/* XPM */
static char * C3selButton_xpm[] = {
"12 12 108 2",
"  	c #003366",
". 	c #1B4876",
"+ 	c #819AB2",
"@ 	c #C0CCD8",
"# 	c #517395",
"$ 	c #F2F3F1",
"% 	c #FEFBF8",
"& 	c #FEFCF8",
"* 	c #FEFCF9",
"= 	c #FEFCFA",
"- 	c #F3F3F4",
"; 	c #517396",
"> 	c #355C81",
", 	c #F6ECDD",
"' 	c #FBEEDC",
") 	c #FBEDDA",
"! 	c #FBEFDB",
"~ 	c #FBF0DF",
"{ 	c #FCF2E4",
"] 	c #FDF5EA",
"^ 	c #F8F3EE",
"/ 	c #365D85",
"( 	c #B6B5AE",
"_ 	c #F7DEBB",
": 	c #F6D9B0",
"< 	c #F6DEAD",
"[ 	c #F6E0B1",
"} 	c #F7E4BA",
"| 	c #F8E8C5",
"1 	c #F9E9D1",
"2 	c #FBEFDF",
"3 	c #B9C1C8",
"4 	c #113F6D",
"5 	c #F3D7B0",
"6 	c #F3D09E",
"7 	c #F2D191",
"8 	c #F1D188",
"9 	c #F1D38D",
"0 	c #F3D89C",
"a 	c #F5DFAD",
"b 	c #F7E4BE",
"c 	c #F9E8D0",
"d 	c #F9F0E3",
"e 	c #124170",
"f 	c #345675",
"g 	c #F3CD98",
"h 	c #F0C17F",
"i 	c #EEC873",
"j 	c #EDC569",
"k 	c #EEC66D",
"l 	c #F0CD7D",
"m 	c #F2D592",
"n 	c #F5DEAB",
"o 	c #F8E1C2",
"p 	c #FBEEDB",
"q 	c #365C82",
"r 	c #315576",
"s 	c #F4D3A5",
"t 	c #F2C98F",
"u 	c #F0CF84",
"v 	c #F0CD7E",
"w 	c #F0CE81",
"x 	c #F4DA9F",
"y 	c #F6E2B5",
"z 	c #F9E5CA",
"A 	c #FCF2E3",
"B 	c #335A81",
"C 	c #093969",
"D 	c #EDD6B3",
"E 	c #F4D2A3",
"F 	c #F3D398",
"G 	c #F2D695",
"H 	c #F3D798",
"I 	c #F4DBA1",
"J 	c #F6E1B1",
"K 	c #F8E5C2",
"L 	c #FAEBD7",
"M 	c #F4EEE6",
"N 	c #093A6B",
"O 	c #929CA0",
"P 	c #F7DDB8",
"Q 	c #F5D8AD",
"R 	c #F5DCAC",
"S 	c #F6E0AF",
"T 	c #F6E3B7",
"U 	c #F8E6C3",
"V 	c #FAE9D1",
"W 	c #95A8BA",
"X 	c #0C3C6C",
"Y 	c #DFD5C5",
"Z 	c #F8E4C7",
"` 	c #F8E3C4",
" .	c #F8E4C6",
"..	c #F9E7CC",
"+.	c #FAEBD6",
"@.	c #FCF1E2",
"#.	c #E2E3E1",
"$.	c #0C3D6D",
"%.	c #244E78",
"&.	c #CCCCC9",
"*.	c #FBEFDD",
"=.	c #FDF6EB",
"-.	c #CED5DA",
";.	c #24507B",
">.	c #355C82",
",.	c #6B859E",
"'.	c #6B86A0",
").	c #365D84",
"      . + @ @ + .       ",
"    # $ % & * = - ;     ",
"  > , ' ) ! ~ { ] ^ /   ",
"  ( _ : < [ } | 1 2 3   ",
"4 5 6 7 8 9 0 a b c d e ",
"f g h i j k l m n o p q ",
"r s t u v w 9 x y z A B ",
"C D E F G H I J K L M N ",
"  O P Q R S T U V A W   ",
"  X Y Z `  ...+.@.#.$.  ",
"    %.&.*.2 { =.-.;.    ",
"        >.,.'.).        "};
