/* XPM */
static char * C3selButtonSel_xpm[] = {
"12 12 113 2",
"  	c #0A3364",
". 	c #053265",
"+ 	c #1F4775",
"@ 	c #8398B1",
"# 	c #C1CBD7",
"$ 	c #8399B2",
"% 	c #1F4875",
"& 	c #043365",
"* 	c #003366",
"= 	c #517295",
"- 	c #F2EFF1",
"; 	c #FEF8F8",
"> 	c #FEF9F9",
", 	c #FEFAFA",
"' 	c #F3F2F4",
") 	c #517396",
"! 	c #355981",
"~ 	c #F6DCDD",
"{ 	c #FBDCDC",
"] 	c #FBDADA",
"^ 	c #FBDDDB",
"/ 	c #FBE1DF",
"( 	c #FCE4E4",
"_ 	c #FDEAEA",
": 	c #F8EDEE",
"< 	c #365D85",
"[ 	c #B6A0AE",
"} 	c #F7BBBB",
"| 	c #F6B2B0",
"1 	c #F6BCAD",
"2 	c #F6C3B1",
"3 	c #F7CABA",
"4 	c #F8D0C5",
"5 	c #F9D2D1",
"6 	c #FBDFDF",
"7 	c #B9BBC8",
"8 	c #163C6C",
"9 	c #F3B0B0",
"0 	c #F39E9E",
"a 	c #F2A291",
"b 	c #F1A488",
"c 	c #F1A88D",
"d 	c #F3B29C",
"e 	c #F5BFAD",
"f 	c #F7C8BE",
"g 	c #F9D0D0",
"h 	c #F9E2E3",
"i 	c #163F6F",
"j 	c #384C75",
"k 	c #F39898",
"l 	c #F07F7F",
"m 	c #EE9273",
"n 	c #ED8B69",
"o 	c #EE8E6D",
"p 	c #F09B7D",
"q 	c #F2AA92",
"r 	c #F5BEAB",
"s 	c #F8C2C2",
"t 	c #FBDBDB",
"u 	c #3A5981",
"v 	c #354D76",
"w 	c #F4A5A5",
"x 	c #F28F8F",
"y 	c #F09F84",
"z 	c #F09B7E",
"A 	c #F09D81",
"B 	c #F1A78D",
"C 	c #F4B59F",
"D 	c #F6C5B5",
"E 	c #F9CACA",
"F 	c #FCE3E3",
"G 	c #375881",
"H 	c #0E3768",
"I 	c #EDB1B3",
"J 	c #F4A3A3",
"K 	c #F3A698",
"L 	c #F2AD95",
"M 	c #F3AF98",
"N 	c #F4B6A1",
"O 	c #F6C2B1",
"P 	c #F8CAC2",
"Q 	c #FAD7D7",
"R 	c #F4E5E6",
"S 	c #0E396A",
"T 	c #928BA0",
"U 	c #F7B8B8",
"V 	c #F5AEAD",
"W 	c #F5B8AC",
"X 	c #F6C1AF",
"Y 	c #F6C7B7",
"Z 	c #F8CCC3",
"` 	c #FAD2D1",
" .	c #95A5BA",
"..	c #0C3B6C",
"+.	c #DFBFC5",
"@.	c #F8C7C7",
"#.	c #F8C4C4",
"$.	c #F8C7C6",
"%.	c #F9CDCC",
"&.	c #FAD6D6",
"*.	c #FCE2E2",
"=.	c #E2DCE1",
"-.	c #0C3D6D",
";.	c #244C78",
">.	c #CCBFC9",
",.	c #FBDDDD",
"'.	c #FDEBEB",
").	c #CED0DA",
"!.	c #24507B",
"~.	c #395981",
"{.	c #6E809D",
"].	c #6E829F",
"^.	c #3A5B83",
"  . . + @ # # $ % . .   ",
"& * = - ; ; > , ' ) * & ",
". ! ~ { ] ^ / ( _ : < . ",
". [ } | 1 2 3 4 5 6 7 . ",
"8 9 0 a b c d e f g h i ",
"j k l m n o p q r s t u ",
"v w x y z A B C D E F G ",
"H I J K L M N O P Q R S ",
". T U V W X Y Z ` F  .. ",
". ..+.@.#.$.%.&.*.=.-.. ",
"& * ;.>.,.6 ( '.).!.* & ",
"  . . . ~.{.].^.. . .   "};
