/* XPM */
static char * C3shelf_xpm[] = {
"32 32 76 1",
" 	c #000000",
".	c #212121",
"+	c #040404",
"@	c #121212",
"#	c #414141",
"$	c #646464",
"%	c #868686",
"&	c #939393",
"*	c #A7A7A7",
"=	c #A1A1A1",
"-	c #828282",
";	c #626262",
">	c #373737",
",	c #0A0A0A",
"'	c #A5A5A5",
")	c #9B9B9B",
"!	c #434343",
"~	c #888888",
"{	c #686868",
"]	c #5A5A5A",
"^	c #565656",
"/	c #585858",
"(	c #6E6E6E",
"_	c #4F4F4F",
":	c #747474",
"<	c #353535",
"[	c #1A1A1A",
"}	c #5E5E5E",
"|	c #999999",
"1	c #919191",
"2	c #3D3D3D",
"3	c #5C5C5C",
"4	c #9D9D9D",
"5	c #787878",
"6	c #6C6C6C",
"7	c #A3A3A3",
"8	c #2F2F2F",
"9	c #020202",
"0	c #7C7C7C",
"a	c #9F9F9F",
"b	c #848484",
"c	c #0E0E0E",
"d	c #080808",
"e	c #979797",
"f	c #2D2D2D",
"g	c #1C1C1C",
"h	c #494949",
"i	c #1D1D1D",
"j	c #101010",
"k	c #474747",
"l	c #3B3B3B",
"m	c #141414",
"n	c #1F1F1F",
"o	c #0C0C0C",
"p	c #4D4D4D",
"q	c #6A6A6A",
"r	c #161616",
"s	c #8B8B8B",
"t	c #606060",
"u	c #767676",
"v	c #727272",
"w	c #707070",
"x	c #515151",
"y	c #313131",
"z	c #4B4B4B",
"A	c #333333",
"B	c #181818",
"C	c #454545",
"D	c #7A7A7A",
"E	c #393939",
"F	c #8F8F8F",
"G	c #8A8A8A",
"H	c #959595",
"I	c #3F3F3F",
"J	c #272727",
"K	c #545454",
"                                ",
"                                ",
"             .......+           ",
"     @#$%&*************=-;>+    ",
"   ,;'*********************)!   ",
"  ,~*************************;  ",
"  {***)]^/($$$$$$$$$$$$__:'***< ",
" ['**}/|*****************12-**- ",
" ^**~3***4%%%5$$$6%%%%&***78**'9",
" 0**^a*bc              d/**_***@",
" e**_**f                94*/7**g",
"+***h**i                 &*/|**i",
"j***k**i                 e*/l!!j",
"m***n!!o                d'*p    ",
"g***d                  ,q**8    ",
"r***                  g)**s9    ",
"m***                  .=**|o    ",
"j***9                  ct**k    ",
",***,                   9&*6    ",
",***]*'                  u*5    ",
"9'**}**                  v*0;**/",
" e**t**o                 w*u6**x",
" b**}**y                 ~*w5**z",
" w**t&*1Aij.....Bj....<CD**3s**E",
" C**7!=*******************7A'**n",
" ja**F#/-G**************HwA-**|9",
"  p****1v/!!!!3$$$$t!!!z$-'***h ",
"   $*************************q  ",
"    f()********************FI   ",
"       J!K$$w%%%%%%%%D$$3#n     ",
"                                ",
"                                "};
