/* XPM */
static char * 2p_CurveDFK_xpm[] = {
"26 26 253 2",
"  	c #3E3E3E",
". 	c #3D3E3E",
"+ 	c #3E3E3D",
"@ 	c #3E3D3E",
"# 	c #414142",
"$ 	c #424142",
"% 	c #414242",
"& 	c #424242",
"* 	c #424241",
"= 	c #424141",
"- 	c #414141",
"; 	c #633131",
"> 	c #493E3D",
", 	c #5B3636",
"' 	c #464646",
") 	c #454646",
"! 	c #454645",
"~ 	c #464645",
"{ 	c #464546",
"] 	c #464545",
"^ 	c #454545",
"/ 	c #762C2C",
"( 	c #C70000",
"_ 	c #AF0D0D",
": 	c #454546",
"< 	c #772C2C",
"[ 	c #971A1A",
"} 	c #4A4A4A",
"| 	c #4A4A4B",
"1 	c #4B4A4A",
"2 	c #4B4B4A",
"3 	c #484B4D",
"4 	c #6D3441",
"5 	c #9D1724",
"6 	c #82263D",
"7 	c #4F4F4F",
"8 	c #39576D",
"9 	c #1C6192",
"0 	c #0968AD",
"a 	c #0669B0",
"b 	c #83263C",
"c 	c #B30C11",
"d 	c #2F5A79",
"e 	c #545454",
"f 	c #555454",
"g 	c #545455",
"h 	c #525456",
"i 	c #355C79",
"j 	c #1066A4",
"k 	c #18649A",
"l 	c #325D7C",
"m 	c #7A363B",
"n 	c #AB1515",
"o 	c #9C201F",
"p 	c #595959",
"q 	c #5A5A5A",
"r 	c #595A59",
"s 	c #595A5A",
"t 	c #5A595A",
"u 	c #59595A",
"v 	c #465D6D",
"w 	c #1467A2",
"x 	c #2A628C",
"y 	c #505B63",
"z 	c #833737",
"A 	c #AC1616",
"B 	c #5A5959",
"C 	c #833738",
"D 	c #9E2222",
"E 	c #5F5F5F",
"F 	c #605F5F",
"G 	c #60605F",
"H 	c #326488",
"I 	c #226697",
"J 	c #556069",
"K 	c #665959",
"L 	c #932F2F",
"M 	c #5F605F",
"N 	c #873B3B",
"O 	c #932F30",
"P 	c #656565",
"Q 	c #656564",
"R 	c #656465",
"S 	c #616468",
"T 	c #256897",
"U 	c #0969AD",
"V 	c #416781",
"W 	c #646565",
"X 	c #656464",
"Y 	c #6B6A6B",
"Z 	c #6B6B6B",
"` 	c #6A6B6B",
" .	c #6B6B6A",
"..	c #606B72",
"+.	c #1869A4",
"@.	c #1069A9",
"#.	c #566B7A",
"$.	c #6A6B6A",
"%.	c #717170",
"&.	c #717071",
"*.	c #717171",
"=.	c #687076",
"-.	c #186AA5",
";.	c #196AA5",
">.	c #667077",
",.	c #707071",
"'.	c #707170",
").	c #707171",
"!.	c #777777",
"~.	c #767777",
"{.	c #747777",
"].	c #216CA3",
"^.	c #0F6AAB",
"/.	c #6B767D",
"(.	c #777677",
"_.	c #777776",
":.	c #7D7D7D",
"<.	c #3A729A",
"[.	c #0A6AAE",
"}.	c #647989",
"|.	c #7E7E7D",
"1.	c #7D7D7E",
"2.	c #848383",
"3.	c #838383",
"4.	c #838483",
"5.	c #667D8E",
"6.	c #567A93",
"7.	c #838384",
"8.	c #848384",
"9.	c #898989",
"0.	c #898A89",
"a.	c #86888A",
"b.	c #186EAA",
"c.	c #2571A7",
"d.	c #89898A",
"e.	c #8A8989",
"f.	c #898A8A",
"g.	c #8F8F8F",
"h.	c #58809C",
"i.	c #0869B0",
"j.	c #768895",
"k.	c #8F8F90",
"l.	c #908F8F",
"m.	c #8F908F",
"n.	c #959595",
"o.	c #939495",
"p.	c #176EAD",
"q.	c #407BA5",
"r.	c #949595",
"s.	c #959494",
"t.	c #959495",
"u.	c #949495",
"v.	c #9A9A9B",
"w.	c #9B9A9B",
"x.	c #9B9B9A",
"y.	c #9A9B9A",
"z.	c #6C8AA2",
"A.	c #086AB0",
"B.	c #89959D",
"C.	c #9B9A9A",
"D.	c #9A9A9A",
"E.	c #9B9B9B",
"F.	c #9A9B9B",
"G.	c #A0A09F",
"H.	c #A0A0A0",
"I.	c #3379AB",
"J.	c #9F9FA0",
"K.	c #A09F9F",
"L.	c #9FA0A0",
"M.	c #A09FA0",
"N.	c #AE7C7C",
"O.	c #A79B9B",
"P.	c #9FA3A5",
"Q.	c #0C6BB0",
"R.	c #7E7589",
"S.	c #A5A6A5",
"T.	c #A5A5A5",
"U.	c #AB8686",
"V.	c #B65252",
"W.	c #BF2929",
"X.	c #B45D5D",
"Y.	c #B56A6A",
"Z.	c #C21F1F",
"`.	c #7A97AC",
" +	c #4F416E",
".+	c #BC3F3F",
"++	c #A9A9AA",
"@+	c #AAAAAA",
"#+	c #AAAAA9",
"$+	c #A9AAAA",
"%+	c #AD9594",
"&+	c #AE9595",
"*+	c #AF8A8A",
"=+	c #C02A2A",
"-+	c #AAA9AA",
";+	c #AFAFAE",
">+	c #B86C6C",
",+	c #AB222B",
"'+	c #BE4141",
")+	c #AEAFAE",
"!+	c #AEAFAF",
"~+	c #AEAEAF",
"{+	c #AFAEAE",
"]+	c #AEAEAE",
"^+	c #AFAEAF",
"/+	c #BF3636",
"(+	c #B38D8D",
"_+	c #B19898",
":+	c #B3B3B2",
"<+	c #BF4243",
"[+	c #B71016",
"}+	c #B2B2B3",
"|+	c #B2B3B2",
"1+	c #B2B2B2",
"2+	c #B2B3B3",
"3+	c #B3B2B2",
"4+	c #B3B2B3",
"5+	c #C04343",
"6+	c #C22C2C",
"7+	c #B97B7A",
"8+	c #C60A0A",
"9+	c #B4A8A8",
"0+	c #B6B6B6",
"a+	c #BC7171",
"b+	c #9E1D2C",
"c+	c #C14444",
"d+	c #B6B7B6",
"e+	c #B89F9F",
"f+	c #C04F4F",
"g+	c #BA8888",
"h+	c #C42222",
"i+	c #BF5B5B",
"j+	c #B7B6B6",
"k+	c #BE7374",
"l+	c #C42E2E",
"m+	c #588EB4",
"n+	c #A06672",
"o+	c #C24545",
"p+	c #B9B9BA",
"q+	c #B9BABA",
"r+	c #BABAB9",
"s+	c #B9B9B9",
"t+	c #B9BAB9",
"u+	c #BAB9B9",
"v+	c #BD8B8B",
"w+	c #C15151",
"x+	c #C33939",
"y+	c #BE7373",
"z+	c #C25E5E",
"A+	c #BDB0B0",
"B+	c #BCBCBC",
"C+	c #C07575",
"D+	c #BE9999",
"    . .                           . .     +       @ ",
"# $ % & * * % = % - & & $ & - $ * & = ; ; > - & , ; ",
"' ) ! ~ ' { ' ' ! ! ] ' ' { ' ^ ) ) ~ / ( _ : < ( [ ",
"} | 1 2 | } } } } } | 1 } } } 1 } } | 3 4 ( 5 ( 6 1 ",
"7 7 7 7 7 7 7 7 7 7 7 7 7 7 7 7 7 8 9 0 a b ( c d 7 ",
"e e f e e e e e g e g e e e h i j a k l m ( n ( o e ",
"p q r s q r p p r s p t u v w 0 x y q z ( A B C ( D ",
"E F E E E E E E G E E E H a I J F E K L L K M E N O ",
"P Q P P P P P P R R S T U V P P W P R X P P P Q P R ",
"Y Z Y Z ` Z Z  .Z ..+.@.#. . .Z Z Z  .Z Y  .Z Z ` $.",
"%.%.%.&.*.&.*.*.=.-.;.>.,.'.*.*.).*.*.%.%.%.*.).).%.",
"!.!.!.!.!.~.!.{.].^./.!.!.~.!.!.!.!.!.!.!.(.!._.!._.",
":.:.:.:.:.:.:.<.[.}.:.:.|.1.:.:.:.:.:.:.:.:.:.:.:.:.",
"2.3.3.4.4.3.5.a 6.3.7.3.4.3.3.3.8.7.3.3.2.3.4.3.3.3.",
"9.0.9.9.9.a.b.c.d.e.9.d.9.0.9.9.9.9.9.f.0.e.9.9.9.9.",
"g.g.g.g.g.h.i.j.g.k.g.g.l.l.g.k.g.g.g.g.m.g.g.g.g.g.",
"n.n.n.n.o.p.q.r.n.n.n.r.s.n.n.n.n.t.n.t.u.n.n.n.n.n.",
"v.w.x.y.z.A.B.w.w.C.D.w.E.x.x.D.D.x.D.x.F.F.C.v.C.D.",
"G.H.H.H.I.I.J.K.L.H.H.M.H.H.H.H.L.H.M.L.J.L.M.H.H.L.",
"N.N.O.P.Q.R.N.O.S.T.T.T.T.T.T.T.T.T.T.U.V.W.W.X.T.T.",
"Y.( Z.`. +( .+++@+@+@+@+@+#+@+@+$+$+%+( Y.&+*+=+=+-+",
";+>+( ,+( '+)+!+;+~+~+{+)+]+)+^+{+)+'+/+^+)+]+(+( _+",
":+:+<+( [+}+}+:+|+1+|+2+:+}+3+4+3+2+5+6+3+4+|+7+8+9+",
"0+a+( b+( c+d+0+0+0+d+0+0+0+0+0+d+0+e+( f+g+a+h+i+j+",
"k+( l+m+n+( o+p+q+p+p+q+r+s+t+u+p+s+u+v+w+l+x+y+u+s+",
"z+z+A+B+B+C+z+D+B+B+B+B+B+B+B+B+B+B+B+B+B+B+B+B+B+B+"};
