/* XPM */
static char * 3p_CurveDFK_xpm[] = {
"26 26 230 2",
"  	c #383838",
". 	c #3B3B3B",
"+ 	c #3B3B3A",
"@ 	c #3A3B3B",
"# 	c #5E2C2C",
"$ 	c #443737",
"% 	c #553030",
"& 	c #3E3F3E",
"* 	c #3E3E3E",
"= 	c #3F3F3E",
"- 	c #3F3E3E",
"; 	c #3E3E3F",
"> 	c #3F3E3F",
", 	c #722727",
"' 	c #C70000",
") 	c #AE0C0C",
"! 	c #941717",
"~ 	c #434343",
"{ 	c #424242",
"] 	c #434243",
"^ 	c #434342",
"/ 	c #424243",
"( 	c #434242",
"_ 	c #424342",
": 	c #414446",
"< 	c #69303E",
"[ 	c #9C1723",
"} 	c #82253C",
"| 	c #474747",
"1 	c #474748",
"2 	c #484747",
"3 	c #335167",
"4 	c #1A5F90",
"5 	c #0868AC",
"6 	c #0669B0",
"7 	c #B30B10",
"8 	c #2B5675",
"9 	c #4C4C4C",
"0 	c #4D4D4D",
"a 	c #4C4C4D",
"b 	c #4C4D4C",
"c 	c #4B4D4E",
"d 	c #305874",
"e 	c #0F65A3",
"f 	c #166298",
"g 	c #2E5978",
"h 	c #763136",
"i 	c #A91313",
"j 	c #991C1C",
"k 	c #515252",
"l 	c #525251",
"m 	c #525151",
"n 	c #515151",
"o 	c #525152",
"p 	c #515152",
"q 	c #405768",
"r 	c #1265A0",
"s 	c #0968AD",
"t 	c #265F88",
"u 	c #4A545C",
"v 	c #7D3333",
"w 	c #AA1414",
"x 	c #9B1E1E",
"y 	c #575857",
"z 	c #575757",
"A 	c #575758",
"B 	c #734141",
"C 	c #744141",
"D 	c #5E5252",
"E 	c #575858",
"F 	c #4B4E6B",
"G 	c #364F84",
"H 	c #2A5D8C",
"I 	c #4D5961",
"J 	c #8F2B2B",
"K 	c #813636",
"L 	c #5D5D5D",
"M 	c #853A3A",
"N 	c #B31111",
"O 	c #595E61",
"P 	c #613F5D",
"Q 	c #93252E",
"R 	c #636363",
"S 	c #636364",
"T 	c #646363",
"U 	c #893E3E",
"V 	c #9C1A28",
"W 	c #9A252B",
"X 	c #646364",
"Y 	c #636463",
"Z 	c #696A6A",
"` 	c #696A69",
" .	c #6A6A6A",
"..	c #6A6969",
"+.	c #626A70",
"@.	c #85273D",
"#.	c #BA0D0E",
"$.	c #696969",
"%.	c #6A696A",
"&.	c #707170",
"*.	c #707070",
"=.	c #707071",
"-.	c #717170",
";.	c #6E7072",
">.	c #5E4364",
",.	c #AF1B1D",
"'.	c #A72A2A",
").	c #717070",
"!.	c #777777",
"~.	c #777776",
"{.	c #777677",
"].	c #6D455E",
"^.	c #AD1D20",
"/.	c #954A4A",
"(.	c #A92C2C",
"_.	c #767777",
":.	c #7D7D7E",
"<.	c #7D7E7E",
"[.	c #7E7D7D",
"}.	c #7D7E7D",
"|.	c #677080",
"1.	c #673458",
"2.	c #8D3B48",
"3.	c #837576",
"4.	c #7E7E7E",
"5.	c #7D7D7D",
"6.	c #994E4E",
"7.	c #A23E3E",
"8.	c #8B6565",
"9.	c #7E7E7D",
"0.	c #7E7D7E",
"a.	c #848484",
"b.	c #818385",
"c.	c #186DAA",
"d.	c #246FA6",
"e.	c #838484",
"f.	c #848384",
"g.	c #8B8B8B",
"h.	c #8A8A8A",
"i.	c #8A8B8B",
"j.	c #8A8B8A",
"k.	c #557D99",
"l.	c #0869B0",
"m.	c #718492",
"n.	c #8B8A8A",
"o.	c #8A8A8B",
"p.	c #8B8A8B",
"q.	c #919091",
"r.	c #919090",
"s.	c #919190",
"t.	c #909191",
"u.	c #8F9091",
"v.	c #166EAC",
"w.	c #3F79A3",
"x.	c #909190",
"y.	c #919191",
"z.	c #909091",
"A.	c #979797",
"B.	c #969697",
"C.	c #979697",
"D.	c #69889F",
"E.	c #086AB0",
"F.	c #86929A",
"G.	c #969797",
"H.	c #979796",
"I.	c #9D9C9D",
"J.	c #9D9D9D",
"K.	c #9C9C9D",
"L.	c #3278AA",
"M.	c #9D9D9C",
"N.	c #9C9D9C",
"O.	c #9C9D9D",
"P.	c #AC7979",
"Q.	c #A59998",
"R.	c #9CA1A2",
"S.	c #0C6BB0",
"T.	c #7D7488",
"U.	c #AB797A",
"V.	c #A2A3A3",
"W.	c #A3A3A3",
"X.	c #A2A2A3",
"Y.	c #A3A3A2",
"Z.	c #A3A2A3",
"`.	c #A2A3A2",
" +	c #A2A2A2",
".+	c #B36968",
"++	c #C11F1F",
"@+	c #7895AA",
"#+	c #4F416E",
"$+	c #BB3F3F",
"%+	c #A8A8A8",
"&+	c #A8A8A7",
"*+	c #A8A7A8",
"=+	c #ADADAD",
"-+	c #B76C6C",
";+	c #AB222B",
">+	c #BD4040",
",+	c #ADACAD",
"'+	c #ACADAD",
")+	c #B1B1B2",
"!+	c #B2B2B2",
"~+	c #BF4242",
"{+	c #B71016",
"]+	c #B1B1B1",
"^+	c #B2B1B2",
"/+	c #B1B2B2",
"(+	c #B2B1B1",
"_+	c #B1B2B1",
":+	c #B2B2B1",
"<+	c #B6B6B6",
"[+	c #BC7171",
"}+	c #9E1D2C",
"|+	c #C04343",
"1+	c #B6B5B6",
"2+	c #B5B6B5",
"3+	c #B6B6B5",
"4+	c #B5B6B6",
"5+	c #B6B5B5",
"6+	c #BE7373",
"7+	c #C42E2E",
"8+	c #588EB4",
"9+	c #A06672",
"0+	c #C24545",
"a+	c #B9B9B9",
"b+	c #B9B9BA",
"c+	c #C25E5E",
"d+	c #BDB0B0",
"e+	c #BCBCBC",
"f+	c #C07575",
"g+	c #BE9999",
"                                                    ",
". . . . . + . . . . . . . . @ . . . . # # $ . . % # ",
"& * = = - ; = = ; - = ; = > = = & = ; , ' ) > , ' ! ",
"~ { ~ ] ~ ^ / ( ] ^ ( ^ / ~ / / ( { _ : < ' [ ' } ~ ",
"| | | | | | 1 2 | | | | | | | | | 3 4 5 6 } ' 7 8 | ",
"9 9 0 9 9 9 9 9 9 9 a 9 9 b c d e 6 f g h ' i ' j 9 ",
"k l l m n o o p n n k m l q r s t u k v ' w o v ' x ",
"y z z z y A z B C D E z F G H I z z D J J D A z K J ",
"L L L L L L L M ' N O P ' Q L L L L L L L L L L L L ",
"R R R R S R R T U ' V ' W R T X R R R S Y S R T S S ",
"Z `  . ... . . .+.@.' #.` $.` `  .Z %. .%.`  .`  .%.",
"&.*.*.*.&.=.-.;.>.' ,.' '.&.*.).=.*.*.*.*.*.&.*.*.).",
"!.~.{.!.~.~.!.].' ^.~./.' (.~.!._.~.{.{.~.~.!.~.!._.",
":.<.[.}.[.:.|.1.2.3.4.5.6.7.8.9.[.[.0.0.}.[.5.}.[.9.",
"a.a.a.a.a.b.c.d.a.a.e.a.a.e.a.a.f.a.a.a.a.a.a.a.f.a.",
"g.h.i.h.j.k.l.m.n.o.n.g.n.i.p.i.p.h.j.h.j.i.h.j.j.h.",
"q.r.s.t.u.v.w.x.s.t.s.t.y.y.y.t.t.y.y.q.z.x.s.t.y.t.",
"A.B.C.A.D.E.F.A.G.A.A.G.H.A.A.A.A.A.A.C.A.A.A.C.A.A.",
"I.J.J.K.L.L.M.N.J.M.M.J.J.O.J.J.J.J.J.J.I.J.J.J.J.J.",
"P.P.Q.R.S.T.U.Q.V.W.X.V.Y.W.Y.X.Z.X.W.X.`.V.Z.W. +Z.",
".+' ++@+#+' $+%+%+%+%+%+%+&+%+%+%+%+*+%+%+%+%+%+%+%+",
"=+-+' ;+' >+=+=+=+=+=+,+=+=+=+'+'+=+=+'+=+=+'+=+'+=+",
")+!+~+' {+]+^+/+/+(+_+]+_+)+_+(+/+_+_+_+:+^+!+!+!+)+",
"<+[+' }+' |+1+<+<+2+2+3+4+1+2+1+5+4+4+3+2+4+1+5+<+<+",
"6+' 7+8+9+' 0+a+a+a+a+a+a+a+a+a+a+a+a+a+a+a+b+a+a+a+",
"c+c+d+e+e+f+c+g+e+e+e+e+e+e+e+e+e+e+e+e+e+e+e+e+e+e+"};
