/* XPM */
static char * Add_CurveDFK_xpm[] = {
"26 26 287 2",
"  	c #3B3B3B",
". 	c #3A3B3B",
"+ 	c #3A3A3A",
"@ 	c #3B3B3A",
"# 	c #702424",
"$ 	c #C70000",
"% 	c #AD0B0B",
"& 	c #6F2524",
"* 	c #931616",
"= 	c #3A3A3B",
"- 	c #3B3A3B",
"; 	c #3E3E3E",
"> 	c #3E3D3E",
", 	c #3D3D3E",
"' 	c #722727",
") 	c #A50F0F",
"! 	c #941717",
"~ 	c #3E3D3D",
"{ 	c #414141",
"] 	c #424241",
"^ 	c #414242",
"/ 	c #424242",
"( 	c #414142",
"_ 	c #414241",
": 	c #951818",
"< 	c #B70808",
"[ 	c #424142",
"} 	c #424141",
"| 	c #464546",
"1 	c #464646",
"2 	c #454546",
"3 	c #464645",
"4 	c #464545",
"5 	c #772C2C",
"6 	c #A71111",
"7 	c #971A1A",
"8 	c #454646",
"9 	c #454645",
"0 	c #4A4A4A",
"a 	c #4B4A4B",
"b 	c #383757",
"c 	c #212166",
"d 	c #17176C",
"e 	c #540947",
"f 	c #9E0919",
"g 	c #3D3D53",
"h 	c #792F2E",
"i 	c #991C1C",
"j 	c #4A4B4A",
"k 	c #4B4B4B",
"l 	c #4B4A4A",
"m 	c #4A4A4B",
"n 	c #4A4B4B",
"o 	c #4F4F4F",
"p 	c #4D4D50",
"q 	c #242466",
"r 	c #1C1C6B",
"s 	c #38385B",
"t 	c #4A3E51",
"u 	c #85212B",
"v 	c #801C2D",
"w 	c #2A1E62",
"x 	c #0F0F72",
"y 	c #33335E",
"z 	c #7C3131",
"A 	c #8B2727",
"B 	c #664040",
"C 	c #555454",
"D 	c #545454",
"E 	c #2C2C65",
"F 	c #232369",
"G 	c #525255",
"H 	c #343462",
"I 	c #101072",
"J 	c #44445B",
"K 	c #545455",
"L 	c #545554",
"M 	c #595A59",
"N 	c #4F4F5D",
"O 	c #131371",
"P 	c #55555C",
"Q 	c #5A595A",
"R 	c #5A5A5A",
"S 	c #5A5959",
"T 	c #26266A",
"U 	c #21216C",
"V 	c #5A5A59",
"W 	c #595A5A",
"X 	c #595959",
"Y 	c #5F605F",
"Z 	c #393968",
"` 	c #2D2C6B",
" .	c #5F5F5F",
"..	c #4E4E63",
"+.	c #565661",
"@.	c #5F5F60",
"#.	c #605F5F",
"$.	c #656564",
"%.	c #25256E",
"&.	c #44456A",
"*.	c #656465",
"=.	c #656565",
"-.	c #656464",
";.	c #646465",
">.	c #646565",
",.	c #191970",
"'.	c #4E4564",
").	c #6B6B6A",
"!.	c #191971",
"~.	c #56566D",
"{.	c #6A6B6B",
"].	c #6B6B6B",
"^.	c #6A6B6A",
"/.	c #7A3347",
"(.	c #A42828",
"_.	c #6B6A6B",
":.	c #6A6A6B",
"<.	c #717171",
"[.	c #151572",
"}.	c #606071",
"|.	c #717070",
"1.	c #707171",
"2.	c #973E3E",
"3.	c #BA1111",
"4.	c #717071",
"5.	c #717170",
"6.	c #777777",
"7.	c #131372",
"8.	c #666676",
"9.	c #8D5757",
"0.	c #C60101",
"a.	c #7B7171",
"b.	c #777677",
"c.	c #7D7D7E",
"d.	c #171773",
"e.	c #67677B",
"f.	c #7D7E7D",
"g.	c #7D7D7D",
"h.	c #837374",
"i.	c #8E6060",
"j.	c #7E7D7D",
"k.	c #838384",
"l.	c #212175",
"m.	c #61617F",
"n.	c #848383",
"o.	c #838483",
"p.	c #838383",
"q.	c #848484",
"r.	c #BF0F0F",
"s.	c #A24848",
"t.	c #848384",
"u.	c #898989",
"v.	c #2F2F78",
"w.	c #585880",
"x.	c #8A8989",
"y.	c #89898A",
"z.	c #898A8A",
"A.	c #B13030",
"B.	c #B72323",
"C.	c #6D6D84",
"D.	c #828288",
"E.	c #898A89",
"F.	c #747486",
"G.	c #828388",
"H.	c #8F8F8F",
"I.	c #47477F",
"J.	c #48487F",
"K.	c #8F908F",
"L.	c #908F8F",
"M.	c #8F8F90",
"N.	c #9F6565",
"O.	c #C60202",
"P.	c #997676",
"Q.	c #636386",
"R.	c #1B1A77",
"S.	c #30307C",
"T.	c #464680",
"U.	c #959595",
"V.	c #626388",
"W.	c #33337B",
"X.	c #76768D",
"Y.	c #8C8D93",
"Z.	c #959594",
"`.	c #BB2323",
" +	c #9F1C2D",
".+	c #796D84",
"++	c #8D8D93",
"@+	c #67678A",
"#+	c #39387E",
"$+	c #484882",
"%+	c #A57473",
"&+	c #92616D",
"*+	c #24176E",
"=+	c #9B9A9A",
"-+	c #A37E7D",
";+	c #A67474",
">+	c #9D9090",
",+	c #9A9A9B",
"'+	c #9A9B9B",
")+	c #6B6A8D",
"!+	c #32327E",
"~+	c #6D6184",
"{+	c #5A144E",
"]+	c #B73838",
"^+	c #B53E3E",
"/+	c #542762",
"(+	c #2B2A7B",
"_+	c #9A9B9A",
":+	c #9B9A9B",
"<+	c #AF6464",
"[+	c #A70516",
"}+	c #868698",
"|+	c #B83C3C",
"1+	c #A0A0A0",
"2+	c #A09FA0",
"3+	c #6D6E91",
"4+	c #3C3B81",
"5+	c #4D4C86",
"6+	c #A8807F",
"7+	c #B06060",
"8+	c #784669",
"9+	c #3F3077",
"0+	c #9FA09F",
"a+	c #A5A5A5",
"b+	c #B26767",
"c+	c #AF1924",
"d+	c #BA3D3D",
"e+	c #4E4E88",
"f+	c #2C2B7D",
"g+	c #717194",
"h+	c #3D3C82",
"i+	c #AAAAAA",
"j+	c #A82C38",
"k+	c #C31515",
"l+	c #AAA9AA",
"m+	c #AAA9A9",
"n+	c #747397",
"o+	c #3E3E84",
"p+	c #504F8A",
"q+	c #A1A1A7",
"r+	c #626290",
"s+	c #626190",
"t+	c #A9AAAA",
"u+	c #8F8FA0",
"v+	c #AEAEAE",
"w+	c #B86C6C",
"x+	c #C12B2B",
"y+	c #BE4141",
"z+	c #AEAEAF",
"A+	c #AFAEAF",
"B+	c #AFAEAE",
"C+	c #777699",
"D+	c #403F85",
"E+	c #777799",
"F+	c #52518C",
"G+	c #AEAFAE",
"H+	c #BB7070",
"I+	c #C22C2C",
"J+	c #B2B3B2",
"K+	c #BA706F",
"L+	c #BF4343",
"M+	c #B3B2B2",
"N+	c #A9A9AF",
"O+	c #666694",
"P+	c #A9A8AE",
"Q+	c #B3B3B3",
"R+	c #B2B3B3",
"S+	c #7A799C",
"T+	c #676694",
"U+	c #9695A7",
"V+	c #B2B2B2",
"W+	c #B3B2B3",
"X+	c #BF5B5B",
"Y+	c #B7ABAB",
"Z+	c #B6B6B6",
"`+	c #BD7171",
" @	c #B99494",
".@	c #B7B6B6",
"+@	c #B6B7B6",
"@@	c #B7B7B6",
"#@	c #B6B6B7",
"$@	c #B9BAB9",
"%@	c #B9B9BA",
"&@	c #B9B9B9",
"*@	c #BAB9B9",
"=@	c #BABAB9",
"-@	c #B9BABA",
"  .     + @ . # $ %   & $ *   = . @ . . -   .   @ - ",
"; ; ; ; ; > , ; ' $ ) $ ! ; ~ ; ; ; ; ; ; ; ; ; ; ; ",
"{ ] ^ ] ] / ] ( _ : $ < [ } _ ] / ^ ] / _ { / / / { ",
"| 1 2 1 3 1 1 4 5 $ 6 $ 7 3 | 4 8 9 3 | 1 8 3 2 1 8 ",
"0 a 0 0 b c d e $ f g h $ i 0 j k 0 a l m 0 0 0 0 n ",
"o o p q r s t u v w x y z A B o o o o o o o o o o o ",
"C D E F G D C D D C H I J D D D D D D D D D D D K L ",
"M N O P Q M Q R R Q S T U V W X R Q W S X R X W R X ",
"Y Z `  .Y  . . . . . ...x +. . .@.@.#. . . . . . . .",
"$.%.&.*.=.=.-.=.;.*.>.=.,.'.=.=.=.=.=.=.=.>.=.=.=.=.",
").!.~.{.].].].].{.].].^./.(.].].].{.].]._.:.].].].].",
"<.[.}.|.<.<.1.<.<.<.<.<.2.3.1.<.<.4.4.4.<.<.1.5.<.<.",
"6.7.8.6.6.6.6.6.6.6.6.6.9.0.a.6.b.6.6.6.6.6.6.6.6.6.",
"c.d.e.f.g.g.g.g.g.g.g.g.h.$ i.g.g.g.g.j.g.g.g.g.g.g.",
"k.l.m.n.o.p.p.o.p.p.q.p.p.r.s.p.p.p.n.p.t.k.k.p.p.p.",
"u.v.w.u.u.u.x.u.x.y.x.z.x.A.B.u.u.x.C.C.D.u.E.F.C.G.",
"H.I.J.H.H.K.L.H.H.K.H.H.M.N.O.P.H.H.Q.R.S.K.Q.R.T.L.",
"U.V.W.U.U.U.U.U.U.U.X.X.Y.Z.`. +.+++U.@+R.#+R.$+U.U.",
"%+&+*+=+=+-+;+>+,+'+)+R.!+'+~+R.{+]+^+^+/+R.(+_+_+:+",
"<+$ [+}+<+$ |+1+2+1+1+3+R.4+R.5+6+7+7+8+R.9+R.5+1+0+",
"a+b+$ c+$ d+a+a+a+a+a+a+e+R.f+a+a+a+g+R.h+a+g+R.e+a+",
"i+i+j+$ k+l+m+i+i+i+l+n+R.o+R.p+i+q+r+s+q+t+i+n+r+u+",
"v+w+$ x+$ y+z+A+B+v+C+R.D+z+E+R.F+z+v+B+v+B+G+v+B+z+",
"H+$ I+J+K+$ L+M+M+N+O+O+P+Q+R+S+T+U+V+Q+M+W+V+M+M+V+",
"X+X+Y+Z+Z+`+X+ @Z+Z+.@Z+Z+Z+Z++@@@Z++@Z++@Z+.@.@#@Z+",
"$@$@%@$@&@*@%@=@=@$@*@$@=@$@-@&@$@*@&@&@%@%@$@%@&@&@"};
