/* XPM */
static char * bendDFK_xpm[] = {
"24 24 347 2",
"  	c #383838",
". 	c #3A3D3F",
"+ 	c #38464D",
"@ 	c #3A525E",
"# 	c #3C6176",
"$ 	c #3C6880",
"% 	c #3C6376",
"& 	c #3C6072",
"* 	c #3B5C6E",
"= 	c #3C5B6B",
"- 	c #3D5968",
"; 	c #3B515D",
"> 	c #465259",
", 	c #4F5253",
"' 	c #3C3B3B",
") 	c #3F4C53",
"! 	c #0E6A99",
"~ 	c #0571AB",
"{ 	c #0271AD",
"] 	c #0470AB",
"^ 	c #046EA9",
"/ 	c #036CA7",
"( 	c #056BA3",
"_ 	c #086BA2",
": 	c #086AA0",
"< 	c #076B9F",
"[ 	c #116FA1",
"} 	c #246D98",
"| 	c #3A6985",
"1 	c #4B606B",
"2 	c #484B4C",
"3 	c #3B3B3B",
"4 	c #3B3C3B",
"5 	c #3B3B3C",
"6 	c #3F3F3F",
"7 	c #45555F",
"8 	c #0675B1",
"9 	c #0079BA",
"0 	c #0279B9",
"a 	c #0278B5",
"b 	c #0274B0",
"c 	c #0272AD",
"d 	c #0070AC",
"e 	c #006FAD",
"f 	c #006FAA",
"g 	c #0C72A9",
"h 	c #2F6E91",
"i 	c #41525C",
"j 	c #454A4D",
"k 	c #444445",
"l 	c #3F3F3E",
"m 	c #434444",
"n 	c #4E6068",
"o 	c #0C7AB3",
"p 	c #0079B8",
"q 	c #047CBA",
"r 	c #047BB9",
"s 	c #057BB7",
"t 	c #0579B5",
"u 	c #0474B0",
"v 	c #0270AD",
"w 	c #0072AD",
"x 	c #0272AE",
"y 	c #0274AD",
"z 	c #0073AE",
"A 	c #026DA9",
"B 	c #095F95",
"C 	c #155C86",
"D 	c #30556B",
"E 	c #434A4E",
"F 	c #444343",
"G 	c #434343",
"H 	c #494949",
"I 	c #535E64",
"J 	c #197CAD",
"K 	c #0076B8",
"L 	c #027BB9",
"M 	c #0479B8",
"N 	c #0476B4",
"O 	c #0273B0",
"P 	c #0473AF",
"Q 	c #0272A9",
"R 	c #02669F",
"S 	c #00588B",
"T 	c #004A78",
"U 	c #00406A",
"V 	c #003861",
"W 	c #032F56",
"X 	c #1C3D55",
"Y 	c #4B4D4E",
"Z 	c #484848",
"` 	c #4D4E4D",
" .	c #555A5D",
"..	c #2C78A0",
"+.	c #0177B5",
"@.	c #047BBA",
"#.	c #0579B7",
"$.	c #04689F",
"%.	c #005280",
"&.	c #00426A",
"*.	c #013B63",
"=.	c #013458",
"-.	c #013152",
";.	c #012E4F",
">.	c #002D4E",
",.	c #022A4E",
"'.	c #435461",
").	c #4D4D4E",
"!.	c #4E4D4E",
"~.	c #4E4E4E",
"{.	c #535354",
"].	c #5A5B5D",
"^.	c #3F7997",
"/.	c #0277B4",
"(.	c #027CB9",
"_.	c #0671AE",
":.	c #034978",
"<.	c #003251",
"[.	c #002E4C",
"}.	c #013355",
"|.	c #013759",
"1.	c #003761",
"2.	c #0F456B",
"3.	c #585D5F",
"4.	c #535353",
"5.	c #59595A",
"6.	c #5C5D5D",
"7.	c #50768A",
"8.	c #0374B3",
"9.	c #027BBA",
"0.	c #047CB9",
"a.	c #0467A1",
"b.	c #033C64",
"c.	c #01365B",
"d.	c #013A61",
"e.	c #003E67",
"f.	c #00416E",
"g.	c #004774",
"h.	c #004579",
"i.	c #2B6084",
"j.	c #5C5C5D",
"k.	c #5A5A59",
"l.	c #595959",
"m.	c #606060",
"n.	c #5D737E",
"o.	c #0773B1",
"p.	c #036199",
"q.	c #01456F",
"r.	c #02426F",
"s.	c #014574",
"t.	c #014A7A",
"u.	c #014D7B",
"v.	c #014F81",
"w.	c #015187",
"x.	c #01508C",
"y.	c #366A8D",
"z.	c #626263",
"A.	c #676767",
"B.	c #687279",
"C.	c #1578AB",
"D.	c #0179B7",
"E.	c #035E95",
"F.	c #025081",
"G.	c #025183",
"H.	c #025388",
"I.	c #02558A",
"J.	c #025990",
"K.	c #025B96",
"L.	c #005C9C",
"M.	c #286B96",
"N.	c #68696A",
"O.	c #666767",
"P.	c #676667",
"Q.	c #666766",
"R.	c #6D6D6D",
"S.	c #6D6E6D",
"T.	c #727476",
"U.	c #3A7D9F",
"V.	c #0275B6",
"W.	c #04609A",
"X.	c #045B91",
"Y.	c #025995",
"Z.	c #045D98",
"`.	c #04619E",
" +	c #0263A4",
".+	c #0065A7",
"++	c #136AA1",
"@+	c #6C757B",
"#+	c #6E6D6D",
"$+	c #757575",
"%+	c #747575",
"&+	c #757474",
"*+	c #64808F",
"=+	c #0773B2",
"-+	c #03649E",
";+	c #05629B",
">+	c #03619C",
",+	c #0460A0",
"'+	c #0363A3",
")+	c #0367A7",
"!+	c #0469AB",
"~+	c #056BAD",
"{+	c #0368AB",
"]+	c #457A9A",
"^+	c #78797B",
"/+	c #757574",
"(+	c #7C7C7B",
"_+	c #7C7B7B",
":+	c #7A7F83",
"<+	c #1275AC",
"[+	c #046EAA",
"}+	c #0669A7",
"|+	c #0668A8",
"1+	c #0569A9",
"2+	c #0369AA",
"3+	c #0966A1",
"4+	c #3E7090",
"5+	c #738087",
"6+	c #7B7C7C",
"7+	c #838283",
"8+	c #838383",
"9+	c #838586",
"0+	c #2C81AC",
"a+	c #0176B7",
"b+	c #0376B1",
"c+	c #0671B0",
"d+	c #066FAF",
"e+	c #066DAD",
"f+	c #076CAF",
"g+	c #066BAC",
"h+	c #0569A7",
"i+	c #01649F",
"j+	c #00568D",
"k+	c #04466F",
"l+	c #3F6278",
"m+	c #89898A",
"n+	c #8A8989",
"o+	c #898A8A",
"p+	c #8B8C8B",
"q+	c #6490A7",
"r+	c #0573B3",
"s+	c #0576B7",
"t+	c #0673B5",
"u+	c #066FB1",
"v+	c #056EAE",
"w+	c #046098",
"x+	c #003B64",
"y+	c #436279",
"z+	c #898989",
"A+	c #909190",
"B+	c #909090",
"C+	c #909191",
"D+	c #8C9499",
"E+	c #1E79AE",
"F+	c #0478B9",
"G+	c #0676B7",
"H+	c #0567A5",
"I+	c #04639D",
"J+	c #003359",
"K+	c #446579",
"L+	c #979797",
"M+	c #979898",
"N+	c #5E8FA7",
"O+	c #0777B6",
"P+	c #0771B2",
"Q+	c #056DAB",
"R+	c #0566A3",
"S+	c #035F97",
"T+	c #035385",
"U+	c #003C68",
"V+	c #002D50",
"W+	c #4E6C7F",
"X+	c #9E9D9E",
"Y+	c #9E9E9E",
"Z+	c #9E9D9D",
"`+	c #9D9E9D",
" @	c #9D9D9D",
".@	c #949BA1",
"+@	c #1B79B1",
"@@	c #0573B0",
"#@	c #035A8E",
"$@	c #00365F",
"%@	c #002B4D",
"&@	c #4D6A7C",
"*@	c #9D9E9E",
"=@	c #A3A4A4",
"-@	c #A4A4A3",
";@	c #A4A3A3",
">@	c #A3A4A3",
",@	c #A4A4A4",
"'@	c #598DAC",
")@	c #0576B6",
"!@	c #035A8D",
"~@	c #002F50",
"{@	c #547284",
"]@	c #AAAAAA",
"^@	c #A9A9AA",
"/@	c #A9AAA9",
"(@	c #A9A9A9",
"_@	c #A9AAAA",
":@	c #98A5AD",
"<@	c #1278B4",
"[@	c #027CBC",
"}@	c #005B9A",
"|@	c #1A537A",
"1@	c #7A93A0",
"2@	c #AAA9AA",
"3@	c #AAAAA9",
"4@	c #AFAFAF",
"5@	c #AFAFAE",
"6@	c #AEAFAF",
"7@	c #AEB0B1",
"8@	c #5795B4",
"9@	c #0376B7",
"0@	c #006DAC",
"a@	c #286A96",
"b@	c #94A9B3",
"c@	c #B3B4B4",
"d@	c #B4B4B4",
"e@	c #B4B4B3",
"f@	c #B3B4B3",
"g@	c #B4B3B4",
"h@	c #A9B1B6",
"i@	c #1E7FB7",
"j@	c #0379B9",
"k@	c #0673B0",
"l@	c #4380A3",
"m@	c #AAB4BA",
"n@	c #B8B8B8",
"o@	c #B8B9B8",
"p@	c #97B0BC",
"q@	c #1A81B6",
"r@	c #0179B8",
"s@	c #127DB4",
"t@	c #6996B1",
"u@	c #BBBFC0",
"v@	c #B9B8B8",
"w@	c #B8B8B9",
"x@	c #BCBCBC",
"y@	c #BBBCBC",
"z@	c #BBBBBB",
"A@	c #BCBBBB",
"B@	c #BBBBBC",
"C@	c #94AFBE",
"D@	c #388EBA",
"E@	c #86A8BB",
"F@	c #BCBBBC",
"  . + @ # $ % & * = - ; > ,                     ",
"' ) ! ~ { ] ^ / ( _ : < [ } | 1 2 3 ' 3 4 3 5 3 ",
"6 7 8 9 0 a b c d d d e d e f g h i j k 6 l 6 6 ",
"m n o p q r s t u c v w x y z z A B C D E F F G ",
"H I J K r L q q M N O y P Q R S T U V W X Y Z Z ",
"`  ...+.M r @.q q q #.$.%.&.*.=.-.;.>.,.'.).!.~.",
"{.].^./.(.@.r q q q _.:.<.[.;.-.}.|.1.2.3.4.4.4.",
"5.6.7.8.L 9.9.0.q q a.b.=.c.d.e.f.g.h.i.j.k.l.5.",
"m.m.n.o.0 L 0 r @.q p.q.r.s.t.u.v.w.x.y.z.m.m.m.",
"A.A.B.C.D.0.(.(.q 0.E.v.F.G.H.I.J.K.L.M.N.O.P.Q.",
"R.S.T.U.V.q q 0.q (.W.X.J.J.Y.Z.`. +.+++@+S.S.#+",
"$+%+&+*+=+r q q r 0.-+;+>+>+,+'+)+!+~+{+]+^+/+/+",
"(+_+_+:+<+0 r r (.q [+}+|+|+1+!+~+~+~+2+3+4+5+6+",
"7+7+8+9+0+a+0 L 0.r b+c+d+e+f+~+e+g+h+i+j+k+l+7+",
"m+n+o+p+q+r+L L r L q s+t+u+v+e+h+a.w+v.x+y+z+z+",
"A+B+A+C+D+E+L r L (.q F+G+u+g+H+I+X.g.J+K+C+B+A+",
"L+L+L+L+M+N+O+0.r q q s P+Q+R+S+T+U+V+W+L+L+L+L+",
"X+Y+Z+`+ @.@+@L M 0.r r @@a.#@u.$@%@&@Y+*@Z+X+ @",
"=@-@;@>@>@,@'@)@0 0.L @.M h+!@1.~@{@-@;@;@;@;@>@",
"]@^@/@(@_@(@:@<@0 r L 0.r [@}@|@1@2@^@^@_@3@2@/@",
"4@5@6@4@4@6@7@8@9@r L 0.9 0@a@b@4@4@4@6@4@5@4@5@",
"c@d@e@f@e@g@c@h@i@j@0 p k@l@m@d@d@c@d@e@d@f@d@e@",
"n@n@n@n@n@n@o@n@p@q@r@s@t@u@v@n@n@n@w@n@n@n@n@o@",
"x@x@y@z@A@B@x@y@x@C@D@E@x@y@y@x@x@x@B@y@A@y@x@F@"};
