/* XPM */
static char * blueDFK_xpm[] = {
"24 24 149 2",
"  	c #7070FF",
". 	c #6A6AFF",
"+ 	c #8178BB",
"@ 	c #857ABC",
"# 	c #887CBE",
"$ 	c #897DBE",
"% 	c #6464FF",
"& 	c #9E8876",
"* 	c #B1937C",
"= 	c #BE9B7F",
"- 	c #C5A081",
"; 	c #5D5DFF",
"> 	c #A28872",
", 	c #BE997A",
"' 	c #D0A480",
") 	c #D9AA82",
"! 	c #DAAA83",
"~ 	c #DBAB83",
"{ 	c #DEAC84",
"] 	c #E1AE85",
"^ 	c #D7A982",
"/ 	c #5555FF",
"( 	c #6760DA",
"_ 	c #6E64DC",
": 	c #7267DE",
"< 	c #7568DE",
"[ 	c #7669DE",
"} 	c #AB8AAF",
"| 	c #E8B082",
"1 	c #EFB484",
"2 	c #C097A0",
"3 	c #4E4EFF",
"4 	c #635AE4",
"5 	c #C5987D",
"6 	c #E1A97B",
"7 	c #ECB07E",
"8 	c #6059EE",
"9 	c #4646FF",
"0 	c #937580",
"a 	c #C1916B",
"b 	c #DAA173",
"c 	c #9476BA",
"d 	c #3F3FFF",
"e 	c #6255A9",
"f 	c #A17B5D",
"g 	c #C49168",
"h 	c #BC8D89",
"i 	c #3737FF",
"j 	c #433EDD",
"k 	c #8F6D52",
"l 	c #B2835D",
"m 	c #D09665",
"n 	c #554AE3",
"o 	c #2F2FFF",
"p 	c #705869",
"q 	c #A37652",
"r 	c #C88D5D",
"s 	c #8262B0",
"t 	c #2828FF",
"u 	c #4D3F9F",
"v 	c #926A48",
"w 	c #BA8155",
"x 	c #B37E7B",
"y 	c #2020FF",
"z 	c #2D28D9",
"A 	c #825C3E",
"B 	c #AA754A",
"C 	c #CB8A54",
"D 	c #4135E0",
"E 	c #1919FF",
"F 	c #614659",
"G 	c #996740",
"H 	c #C2814C",
"I 	c #7552A8",
"J 	c #1313FF",
"K 	c #3628A2",
"L 	c #865936",
"M 	c #B27543",
"N 	c #AC716E",
"O 	c #0D0DFF",
"P 	c #1613E3",
"Q 	c #6F4939",
"R 	c #9F673A",
"S 	c #C57F45",
"T 	c #3123DC",
"U 	c #0808FF",
"V 	c #4E335A",
"W 	c #8E5A31",
"X 	c #B9753E",
"Y 	c #6A45A1",
"Z 	c #0303FF",
"` 	c #281A9B",
" .	c #7C4D28",
"..	c #AA6A35",
"+.	c #A36663",
"@.	c #0000FF",
"#.	c #0A06E2",
"$.	c #663F2E",
"%.	c #9A5F2F",
"&.	c #C0773B",
"*.	c #2617DA",
"=.	c #482C55",
"-.	c #8A552A",
";.	c #B67037",
">.	c #653F9E",
",.	c #25179A",
"'.	c #7A4B25",
").	c #AA6934",
"!.	c #A66662",
"~.	c #5F3A2C",
"{.	c #965C2E",
"].	c #C57A3C",
"^.	c #965D7D",
"/.	c #533398",
"(.	c #412893",
"_.	c #382390",
":.	c #35218F",
"<.	c #34208F",
"[.	c #0C07E3",
"}.	c #734723",
"|.	c #AD6A35",
"1.	c #D88542",
"2.	c #E78F46",
"3.	c #D68441",
"4.	c #BC7439",
"5.	c #A96833",
"6.	c #A06231",
"7.	c #9F6230",
"8.	c #975D2E",
"9.	c #2115C9",
"0.	c #764924",
"a.	c #AF6C35",
"b.	c #D58441",
"c.	c #E48D45",
"d.	c #DA8742",
"e.	c #CE7F3F",
"f.	c #C67A3C",
"g.	c #C3793B",
"h.	c #B97238",
"i.	c #2819CB",
"j.	c #1B11C7",
"k.	c #2718CB",
"l.	c #2E1DCD",
"m.	c #321FCE",
"n.	c #311ECE",
"o.	c #301ECE",
"p.	c #301DCE",
"q.	c #2D1CCD",
"r.	c #0A06F2",
"                                                ",
". . . . . . + @ # $ $ $ $ $ $ $ $ $ # . . . . . ",
"% % % % % % & * = - - - - - - - - - = % % % % % ",
"; ; ; ; ; ; > , ' ) ) ) ) ) ! ~ { ] ^ ; ; ; ; ; ",
"/ / / / / / ( _ : < < < < < [ } | 1 2 / / / / / ",
"3 3 3 3 3 3 3 3 3 3 3 3 3 3 4 5 6 7 8 3 3 3 3 3 ",
"9 9 9 9 9 9 9 9 9 9 9 9 9 9 0 a b c 9 9 9 9 9 9 ",
"d d d d d d d d d d d d d e f g h d d d d d d d ",
"i i i i i i i i i i i i j k l m n i i i i i i i ",
"o o o o o o o o o o o o p q r s o o o o o o o o ",
"t t t t t t t t t t t u v w x t t t t t t t t t ",
"y y y y y y y y y y z A B C D y y y y y y y y y ",
"E E E E E E E E E E F G H I E E E E E E E E E E ",
"J J J J J J J J J K L M N J J J J J J J J J J J ",
"O O O O O O O O P Q R S T O O O O O O O O O O O ",
"U U U U U U U U V W X Y U U U U U U U U U U U U ",
"Z Z Z Z Z Z Z `  ...+.Z Z Z Z Z Z Z Z Z Z Z Z Z ",
"@.@.@.@.@.@.#.$.%.&.*.@.@.@.@.@.@.@.@.@.@.@.@.@.",
"@.@.@.@.@.@.=.-.;.>.@.@.@.@.@.@.@.@.@.@.@.@.@.@.",
"@.@.@.@.@.,.'.).!.@.@.@.@.@.@.@.@.@.@.@.@.@.@.@.",
"@.@.@.@.@.~.{.].^.>./.(._.:.:.:.:.:.<.[.@.@.@.@.",
"@.@.@.@.@.}.|.1.2.3.4.5.6.7.7.7.7.7.8.9.@.@.@.@.",
"@.@.@.@.@.0.a.b.c.d.e.f.g.g.g.g.g.g.h.i.@.@.@.@.",
"@.@.@.@.@.j.k.l.m.n.o.p.p.p.p.p.p.p.q.r.@.@.@.@."};
