/* XPM */
static char * clstrDFK_xpm[] = {
"24 24 366 2",
"  	c #383838",
". 	c #414141",
"+ 	c #404142",
"@ 	c #414344",
"# 	c #444748",
"$ 	c #3D3D3D",
"% 	c #3B3B3B",
"& 	c #3C3C3B",
"* 	c #3F4141",
"= 	c #43667E",
"- 	c #3175A5",
"; 	c #2B79B2",
"> 	c #297DB8",
", 	c #2B81BD",
"' 	c #367FAC",
") 	c #3A7295",
"! 	c #485C68",
"~ 	c #3F4040",
"{ 	c #3B3B3C",
"] 	c #3B3C3B",
"^ 	c #3F3F3F",
"/ 	c #43484C",
"( 	c #2B658D",
"_ 	c #177CC3",
": 	c #1681CF",
"< 	c #1783D2",
"[ 	c #1986D3",
"} 	c #1A88D7",
"| 	c #1E8BD9",
"1 	c #2691DB",
"2 	c #359AD2",
"3 	c #3C657E",
"4 	c #424344",
"5 	c #444343",
"6 	c #444344",
"7 	c #434443",
"8 	c #434344",
"9 	c #485964",
"0 	c #216DA4",
"a 	c #137AC6",
"b 	c #127FCC",
"c 	c #1480CD",
"d 	c #157ECA",
"e 	c #1981CE",
"f 	c #1A86D3",
"g 	c #1C88D6",
"h 	c #1D8BD9",
"i 	c #208EDA",
"j 	c #3197D9",
"k 	c #316A91",
"l 	c #484B4C",
"m 	c #444443",
"n 	c #484848",
"o 	c #484849",
"p 	c #484949",
"q 	c #4F555A",
"r 	c #1E72AE",
"s 	c #0F7AC6",
"t 	c #0F79C5",
"u 	c #0B62A0",
"v 	c #0F4670",
"w 	c #1C4059",
"x 	c #204D6D",
"y 	c #1A669C",
"z 	c #1980CA",
"A 	c #1B87D6",
"B 	c #1C89D8",
"C 	c #1E8CDC",
"D 	c #2992DA",
"E 	c #2B5877",
"F 	c #505150",
"G 	c #494848",
"H 	c #494948",
"I 	c #4D4D4D",
"J 	c #4E4E4E",
"K 	c #4E4F4F",
"L 	c #3C6480",
"M 	c #1078C0",
"N 	c #0C76C1",
"O 	c #074A7A",
"P 	c #111F2A",
"Q 	c #434544",
"R 	c #4F5050",
"S 	c #535557",
"T 	c #365F7C",
"U 	c #1A80CA",
"V 	c #1987D5",
"W 	c #1B88D7",
"X 	c #1D8AD9",
"Y 	c #1D7BBF",
"Z 	c #49535B",
"` 	c #4D4E4E",
" .	c #4E4D4E",
"..	c #545453",
"+.	c #545353",
"@.	c #5B5F61",
"#.	c #1E70AB",
"$.	c #0C77C4",
"%.	c #095890",
"&.	c #0F1C23",
"*.	c #4B4A4A",
"=.	c #555455",
"-.	c #545454",
";.	c #535354",
">.	c #545354",
",.	c #595A5B",
"'.	c #2E678F",
").	c #1783CF",
"!.	c #1985D4",
"~.	c #1C86D2",
"{.	c #2D526A",
"].	c #575657",
"^.	c #535454",
"/.	c #5A5959",
"(.	c #59595A",
"_.	c #576C7A",
":.	c #1573B7",
"<.	c #0D73BB",
"[.	c #0A304D",
"}.	c #333333",
"|.	c #5B5B5B",
"1.	c #5A595A",
"2.	c #5A5A59",
"3.	c #595A5A",
"4.	c #595A59",
"5.	c #5E646A",
"6.	c #1E77B4",
"7.	c #1583D2",
"8.	c #1785D3",
"9.	c #1985D2",
"0.	c #195F91",
"a.	c #5A5C5C",
"b.	c #595959",
"c.	c #5A5A5A",
"d.	c #606060",
"e.	c #4E748D",
"f.	c #1075BC",
"g.	c #0A69AA",
"h.	c #17252F",
"i.	c #565555",
"j.	c #636363",
"k.	c #406B8A",
"l.	c #1571B0",
"m.	c #1567A2",
"n.	c #175888",
"o.	c #235578",
"p.	c #5A5E5F",
"q.	c #676766",
"r.	c #676666",
"s.	c #42779B",
"t.	c #0C76C0",
"u.	c #0A5D98",
"v.	c #20272B",
"w.	c #636463",
"x.	c #676667",
"y.	c #676767",
"z.	c #666666",
"A.	c #666767",
"B.	c #67696B",
"C.	c #606568",
"D.	c #6E6E6F",
"E.	c #6D6D6D",
"F.	c #6E6D6D",
"G.	c #6D6D6E",
"H.	c #6D6E6E",
"I.	c #3978A5",
"J.	c #0C76C2",
"K.	c #095993",
"L.	c #161D21",
"M.	c #6D6C6B",
"N.	c #6D6E6D",
"O.	c #6E6D6E",
"P.	c #6E6E6D",
"Q.	c #6E6E6E",
"R.	c #747575",
"S.	c #747474",
"T.	c #2D7FB8",
"U.	c #0875C2",
"V.	c #085994",
"W.	c #12181B",
"X.	c #747373",
"Y.	c #757475",
"Z.	c #747475",
"`.	c #757574",
" +	c #757474",
".+	c #747574",
"++	c #7C7C7B",
"@+	c #3384BD",
"#+	c #0774C1",
"$+	c #095F9C",
"%+	c #162029",
"&+	c #767676",
"*+	c #7B7C7C",
"=+	c #7C7B7C",
"-+	c #7C7C7C",
";+	c #7C7B7B",
">+	c #7B7C7B",
",+	c #7B7B7C",
"'+	c #828382",
")+	c #838282",
"!+	c #5189B1",
"~+	c #0975C1",
"{+	c #0B68AB",
"]+	c #132634",
"^+	c #777676",
"/+	c #828383",
"(+	c #838283",
"_+	c #838383",
":+	c #828283",
"<+	c #828282",
"[+	c #8A8A8A",
"}+	c #8A898A",
"|+	c #7590A4",
"1+	c #1074BD",
"2+	c #0A71BA",
"3+	c #0B334E",
"4+	c #66686A",
"5+	c #898A89",
"6+	c #898989",
"7+	c #8A8989",
"8+	c #898A8A",
"9+	c #8A8A89",
"0+	c #89898A",
"a+	c #909190",
"b+	c #929597",
"c+	c #357DB1",
"d+	c #0A75C1",
"e+	c #0A4E7D",
"f+	c #3B4851",
"g+	c #929191",
"h+	c #919090",
"i+	c #909090",
"j+	c #909091",
"k+	c #919191",
"l+	c #919091",
"m+	c #8F9091",
"n+	c #898D90",
"o+	c #909193",
"p+	c #909191",
"q+	c #979797",
"r+	c #7C919F",
"s+	c #1276BC",
"t+	c #106FB5",
"u+	c #103A59",
"v+	c #6F777C",
"w+	c #979798",
"x+	c #8897A0",
"y+	c #5D91B2",
"z+	c #4B7D9F",
"A+	c #567992",
"B+	c #6A808D",
"C+	c #9E9D9D",
"D+	c #9D9D9E",
"E+	c #9D9E9D",
"F+	c #9B9D9E",
"G+	c #2C7CB8",
"H+	c #107BCB",
"I+	c #1166A2",
"J+	c #124063",
"K+	c #808C92",
"L+	c #9E9E9D",
"M+	c #9E9E9E",
"N+	c #8797A3",
"O+	c #4286B6",
"P+	c #2289CF",
"Q+	c #299EE4",
"R+	c #2394D9",
"S+	c #21699A",
"T+	c #9D9D9D",
"U+	c #9E9D9E",
"V+	c #9D9E9E",
"W+	c #A4A4A4",
"X+	c #A3A4A4",
"Y+	c #A4A4A3",
"Z+	c #A4A4A5",
"`+	c #588DB1",
" @	c #0B75BF",
".@	c #1C8DD8",
"+@	c #1572AE",
"@@	c #0F4E79",
"#@	c #526F84",
"$@	c #A4A3A3",
"%@	c #7F9AAB",
"&@	c #277DBD",
"*@	c #0E76C0",
"=@	c #0A76C4",
"-@	c #6C8CA0",
";@	c #A3A4A3",
">@	c #AAA9A9",
",@	c #AAA9AA",
"'@	c #A9A9A9",
")@	c #A9A9AA",
"!@	c #95A3AE",
"~@	c #1977BC",
"{@	c #0876C2",
"]@	c #1C91DB",
"^@	c #1A88CE",
"/@	c #0763A0",
"(@	c #0E5A90",
"_@	c #155F94",
":@	c #1266A4",
"<@	c #0A78C3",
"[@	c #0875C3",
"}@	c #0874C0",
"|@	c #0873C0",
"1@	c #0771BC",
"2@	c #1B5A87",
"3@	c #A9AAA9",
"4@	c #AFAFAE",
"5@	c #AFAEAF",
"6@	c #AFAFAF",
"7@	c #709AB6",
"8@	c #0E74BB",
"9@	c #0773BF",
"0@	c #0F7ECE",
"a@	c #148BDE",
"b@	c #1088DC",
"c@	c #0D83D7",
"d@	c #087CCD",
"e@	c #0775C1",
"f@	c #0774BF",
"g@	c #0674C0",
"h@	c #0A62A2",
"i@	c #76868E",
"j@	c #AEAEAE",
"k@	c #AFAEAE",
"l@	c #B4B3B3",
"m@	c #B4B4B3",
"n@	c #B3B3B4",
"o@	c #B3B4B4",
"p@	c #B4B4B4",
"q@	c #8AA2B2",
"r@	c #2E7EB7",
"s@	c #0973BE",
"t@	c #0673BE",
"u@	c #0772BF",
"v@	c #0672C0",
"w@	c #0672BE",
"x@	c #0772C0",
"y@	c #0966A9",
"z@	c #57798D",
"A@	c #B3B4B3",
"B@	c #B4B3B4",
"C@	c #B8B8B9",
"D@	c #B8B8B8",
"E@	c #B9B8B8",
"F@	c #B8BBBB",
"G@	c #81A0B4",
"H@	c #337EB4",
"I@	c #1070B5",
"J@	c #0970BA",
"K@	c #0871BB",
"L@	c #0B71BB",
"M@	c #0B6DB4",
"N@	c #1A659A",
"O@	c #678292",
"P@	c #BCBBBC",
"Q@	c #BCBCBC",
"R@	c #BBBCBC",
"S@	c #BCBCBB",
"T@	c #ACB4B8",
"U@	c #92A6B2",
"V@	c #869EAD",
"W@	c #899FAC",
"X@	c #9AA8B0",
"Y@	c #BBBBBC",
"                . + @ # + $                     ",
"% % % % % & * = - ; > , ' ) ! ~ % % & % % { ] ] ",
"^ ^ ^ ^ ^ / ( _ : < [ } | 1 2 3 4 ^ ^ ^ ^ ^ ^ ^ ",
"5 6 7 8 9 0 a b c d e f g h i j k l 7 8 8 5 m 6 ",
"n o p q r s t u v w x y z A B C D E F G G n o H ",
"I J K L M N O P Q R R S T U V W X Y Z J ` `  .J ",
"..+.@.#.$.%.&.*.=.-.;.>.,.'.).!.V ~.{.].-.>.;.^.",
"/.(._.:.<.[.}.|.1.2.(.3.4.5.6.7.8.9.0.a.b.c./.1.",
"d.d.e.f.g.h.i.d.d.d.d.d.d.j.k.l.m.n.o.p.d.d.d.d.",
"q.r.s.t.u.v.w.x.y.z.A.x.r.y.B.C.D.E.F.z.A.z.r.y.",
"G.H.I.J.K.L.M.N.G.N.O.P.E.Q.H.Q.P.E.E.O.O.G.P.H.",
"R.S.T.U.V.W.X.Y.Z.S.Z.`.S.Z.R.Y. +Y.S. +Y..+Z.R.",
"++++@+#+$+%+&+*+=+-+++*+=+;+=+;+-+++*+>+>+,+-+=+",
"'+)+!+~+{+]+^+'+/+(+)+/+_+:+<+/+/+(+<+)+:+)+/+(+",
"[+}+|+1+2+3+4+[+5+5+5+6+7+8+6+7+9+}+6+0+6+}+8+0+",
"a+a+b+c+d+e+f+g+h+i+j+k+a+k+l+m+n+o+j+h+i+p+j+a+",
"q+q+q+r+s+t+u+v+q+q+q+q+q+q+w+x+y+z+A+B+q+q+q+q+",
"C+D+E+F+G+H+I+J+K+C+E+L+M+D+N+O+P+Q+R+S+T+E+U+V+",
"W+X+Y+Z+`+ @.@+@@@#@W+$@Y+%@&@*@~+=@<.-@;@X+X+X+",
">@,@'@)@!@~@{@]@^@/@(@_@:@<@[@}@|@1@2@>@'@,@)@3@",
"4@5@6@6@6@7@8@9@0@a@b@c@d@e@f@|@g@h@i@j@4@k@6@6@",
"l@m@n@o@p@o@q@r@s@t@u@v@t@w@x@w@y@z@o@l@A@B@p@p@",
"C@D@D@D@D@E@D@F@G@H@I@J@K@L@M@N@O@D@D@D@D@D@D@D@",
"P@Q@Q@Q@R@S@Q@Q@R@S@T@U@V@W@X@Y@Q@Q@P@Q@Q@P@Q@Q@"};
