/* XPM */
static char * CP_CurveDFK_xpm[] = {
"26 26 332 2",
"  	c #383838",
". 	c #3B3B3A",
"+ 	c #433737",
"@ 	c #702425",
"# 	c #9C1212",
"$ 	c #A40F0F",
"% 	c #782121",
"& 	c #3B3B3B",
"* 	c #3B3A3B",
"= 	c #3A3B3B",
"- 	c #3A3A3B",
"; 	c #3B3A3A",
"> 	c #702525",
", 	c #3E3F3E",
"' 	c #941717",
") 	c #9D1313",
"! 	c #602E2E",
"~ 	c #AE0B0C",
"{ 	c #8B1B1B",
"] 	c #3E3E3E",
"^ 	c #3E3E3F",
"/ 	c #3F3F3F",
"( 	c #3E3F3F",
"_ 	c #3F3F3E",
": 	c #C70000",
"< 	c #831F1F",
"[ 	c #4A3E3E",
"} 	c #533A3B",
"| 	c #424242",
"1 	c #5B3636",
"2 	c #BF0404",
"3 	c #3A3A4A",
"4 	c #2F2F54",
"5 	c #26265D",
"6 	c #1D1D65",
"7 	c #191968",
"8 	c #0F0F72",
"9 	c #15156C",
"0 	c #2A2A59",
"a 	c #3D3D47",
"b 	c #434242",
"c 	c #852121",
"d 	c #424243",
"e 	c #663534",
"f 	c #474646",
"g 	c #464747",
"h 	c #353553",
"i 	c #371E57",
"j 	c #2A1161",
"k 	c #1D1D67",
"l 	c #262660",
"m 	c #313058",
"n 	c #313157",
"o 	c #3B3B4F",
"p 	c #3B3C4F",
"q 	c #363753",
"r 	c #2F2F5A",
"s 	c #1F1F66",
"t 	c #101071",
"u 	c #553C3E",
"v 	c #464646",
"w 	c #474746",
"x 	c #971A1A",
"y 	c #872323",
"z 	c #4B4B4B",
"A 	c #B80909",
"B 	c #723334",
"C 	c #4C4B4B",
"D 	c #363659",
"E 	c #7C182E",
"F 	c #9D1419",
"G 	c #4B4C4B",
"H 	c #45454F",
"I 	c #930A20",
"J 	c #771331",
"K 	c #534646",
"L 	c #6A3838",
"M 	c #C00404",
"N 	c #812A2A",
"O 	c #4B4B4C",
"P 	c #505050",
"Q 	c #7D3232",
"R 	c #B90A0A",
"S 	c #A21919",
"T 	c #B10F0F",
"U 	c #6F3C3C",
"V 	c #505150",
"W 	c #505051",
"X 	c #515050",
"Y 	c #653F42",
"Z 	c #7C0B2F",
"` 	c #AE0B11",
" .	c #AA1414",
"..	c #8C2828",
"+.	c #555656",
"@.	c #565556",
"#.	c #555556",
"$.	c #793B3B",
"%.	c #6B4546",
"&.	c #565655",
"*.	c #565656",
"=.	c #555555",
"-.	c #555655",
";.	c #3A3A61",
">.	c #292968",
",.	c #565555",
"'.	c #5C5B5B",
").	c #5B5B5B",
"!.	c #5B5B5C",
"~.	c #5B5C5B",
"{.	c #4D4E60",
"].	c #1C1C6E",
"^.	c #5C5B5C",
"/.	c #616161",
"(.	c #616162",
"_.	c #626161",
":.	c #626162",
"<.	c #616261",
"[.	c #525264",
"}.	c #151571",
"|.	c #7F4D4E",
"1.	c #7F4E4D",
"2.	c #6D6161",
"3.	c #676767",
"4.	c #676867",
"5.	c #795454",
"6.	c #7F4D4D",
"7.	c #676768",
"8.	c #686767",
"9.	c #48486B",
"0.	c #1D1D70",
"a.	c #904445",
"b.	c #B61414",
"c.	c #6E6E6E",
"d.	c #904444",
"e.	c #A52929",
"f.	c #6E6D6D",
"g.	c #6D6E6D",
"h.	c #6D6D6E",
"i.	c #6E6D6E",
"j.	c #6D6E6E",
"k.	c #6E6E6D",
"l.	c #6D6D6D",
"m.	c #845252",
"n.	c #2F236A",
"o.	c #323370",
"p.	c #7E5858",
"q.	c #736666",
"r.	c #747374",
"s.	c #934848",
"t.	c #B21C1C",
"u.	c #A82B2B",
"v.	c #747373",
"w.	c #737373",
"x.	c #747474",
"y.	c #737474",
"z.	c #747473",
"A.	c #737473",
"B.	c #904548",
"C.	c #A60415",
"D.	c #636373",
"E.	c #7A7A7A",
"F.	c #AA2D2D",
"G.	c #BE0F0F",
"H.	c #77777A",
"I.	c #656578",
"J.	c #575777",
"K.	c #4F4F77",
"L.	c #464676",
"M.	c #2D2D74",
"N.	c #141472",
"O.	c #5E1348",
"P.	c #B41E1E",
"Q.	c #808180",
"R.	c #9B5050",
"S.	c #B52020",
"T.	c #AD3030",
"U.	c #7D7C80",
"V.	c #4C4C7A",
"W.	c #282875",
"X.	c #161673",
"Y.	c #262675",
"Z.	c #2C2C76",
"`.	c #3C3C78",
" +	c #494879",
".+	c #6D6D7E",
"++	c #808080",
"@+	c #BE1010",
"#+	c #818181",
"$+	c #9F5454",
"%+	c #B72121",
"&+	c #878787",
"*+	c #AF3232",
"=+	c #353579",
"-+	c #151573",
";+	c #4B4C7D",
">+	c #6F6E82",
",+	c #848387",
"'+	c #878786",
")+	c #868686",
"!+	c #878687",
"~+	c #9E5454",
"{+	c #AA4646",
"]+	c #918484",
"^+	c #8D8D8D",
"/+	c #A35857",
"(+	c #9D3943",
"_+	c #39135E",
":+	c #7D7D8A",
"<+	c #8D8D8C",
"[+	c #8C8D8D",
"}+	c #A35757",
"|+	c #B92323",
"1+	c #8D8C8D",
"2+	c #A35858",
"3+	c #B13535",
"4+	c #939393",
"5+	c #939293",
"6+	c #5B5B85",
"7+	c #42427F",
"8+	c #929393",
"9+	c #929392",
"0+	c #968A89",
"a+	c #AD4949",
"b+	c #968A8A",
"c+	c #A75B5C",
"d+	c #9D7777",
"e+	c #999998",
"f+	c #999999",
"g+	c #5B5B88",
"h+	c #4B4B83",
"i+	c #989999",
"j+	c #A57272",
"k+	c #A57273",
"l+	c #9C8F8F",
"m+	c #999899",
"n+	c #A27C7B",
"o+	c #A57373",
"p+	c #A97676",
"q+	c #A97677",
"r+	c #A19494",
"s+	c #9E9E9F",
"t+	c #A78180",
"u+	c #89576D",
"v+	c #3A2E75",
"w+	c #9E9E9E",
"x+	c #9E9F9F",
"y+	c #9E9F9E",
"z+	c #9F9E9F",
"A+	c #9F9F9E",
"B+	c #AD6363",
"C+	c #C01D1D",
"D+	c #AE6363",
"E+	c #B83B3B",
"F+	c #B16666",
"G+	c #C01E1E",
"H+	c #A4A4A4",
"I+	c #B83B3C",
"J+	c #1F1F77",
"K+	c #6F6F92",
"L+	c #A4A3A4",
"M+	c #A4A4A3",
"N+	c #A3A3A4",
"O+	c #A3A4A3",
"P+	c #9D9CA2",
"Q+	c #757593",
"R+	c #823757",
"S+	c #BE2929",
"T+	c #BA3D3D",
"U+	c #A9A9A9",
"V+	c #B46969",
"W+	c #C02A2A",
"X+	c #BC3F3F",
"Y+	c #86879D",
"Z+	c #1A1A76",
"`+	c #393981",
" @	c #676892",
".@	c #85859C",
"+@	c #8A8A9E",
"@@	c #747496",
"#@	c #6B6B93",
"$@	c #52528A",
"%@	c #31317E",
"&@	c #111173",
"*@	c #353580",
"=@	c #61618F",
"-@	c #BB3E3F",
";@	c #C31415",
">@	c #A8A9A9",
",@	c #AEAEAE",
"'@	c #ADAEAE",
")@	c #BE4141",
"!@	c #C41515",
"~@	c #AEADAD",
"{@	c #A7A7AA",
"]@	c #6D6D95",
"^@	c #434386",
"/@	c #2F2F7E",
"(@	c #4E4E8A",
"_@	c #5E5E90",
":@	c #7F7F9C",
"<@	c #A2A3A9",
"[@	c #B76C6C",
"}@	c #C12B2B",
"|@	c #ADADAD",
"1@	c #B2B2B1",
"2@	c #B96F6F",
"3@	c #C22C2C",
"4@	c #BF4242",
"5@	c #B2B2B2",
"6@	c #BA6F6F",
"7@	c #BC7171",
"8@	c #C32D2D",
"9@	c #B6B6B6",
"0@	c #C14443",
"a@	c #B6B6B5",
"b@	c #B5B6B6",
"c@	c #B7ABAA",
"d@	c #BF5B5B",
"e@	c #BF5B5A",
"f@	c #B6ABAB",
"g@	c #B5B5B6",
"h@	c #B89494",
"i@	c #C05C5D",
"j@	c #C05C5C",
"k@	c #BAAEAD",
"l@	c #B9B9B9",
"m@	c #BE7373",
"n@	c #BC9796",
"o@	c #B9BAB9",
"p@	c #B9B9BA",
"q@	c #BAB9B9",
"                                                    ",
". + @ # $ % & & * & & & . & * & = - = $ & ; & > > * ",
", ' ) ! ! ~ { ] ^ ^ / ( ^ ] ] _ ] ] ] : ] ] ] < < , ",
"[ : } | | 1 2 3 4 5 6 7 7 8 9 7 6 0 a : b | | c c d ",
"e 2 f g h i : j k l m n o p o q r s t : u v w x y f ",
"z A B C D E F z z z z z z G z z z G H I J K L M N O ",
"P Q R S T T U V W P P P P P W W X P P Y Z `  ...P X ",
"+.@.#.$.%.@.+.&.+.*.&.+.@.@.+.=.#.+.@.-.;.>.-.@.#.,.",
"'.).).'.).!.!.!.).).).'.~.).~.).).).).'.{.].~.^.).).",
"/./.(./.(._.:././././.(.(./.(./././.(.<.[.}.<./././.",
"|.1.2.3.4.5.6.2.3.4.3.7.3.3.3.7.3.7.3.8.9.0.3.8.3.3.",
"a.: b.c.d.: e.f.g.h.h.g.c.i.i.j.k.l.m.m.n.o.g.p.m.q.",
"r.s.: t.: u.v.w.v.w.x.x.y.z.w.x.x.A.B.: C.D.s.: u.y.",
"E.E.F.: G.E.E.E.E.E.H.I.I.I.J.K.L.M.N.O.: P.: F.E.E.",
"Q.R.: S.: T.Q.U.V.W.8 8 X.Y.Y.Z.`. +.+++T.: @+#+++++",
"$+: %+&+$+: *+=+-+;+>+,+'+)+!+&+&+!+&+~+: %+: *+&+&+",
"{+{+]+^+^+/+(+_+:+^+^+<+^+^+<+[+^+^+}+: |+1+2+: 3+^+",
"4+4+5+4+4+4+6+7+4+8+4+4+4+9+5+4+4+0+a+a+b+4+4+c+a+d+",
"e+e+e+f+f+f+g+h+e+f+i+f+f+i+f+f+f+f+j+k+l+e+m+n+o+l+",
"p+q+r+s+s+t+u+v+s+s+w+s+s+x+y+z+w+A+B+: C+A+D+: E+y+",
"F+: G+H+F+: I+J+K+H+L+H+H+M+N+O+H+P+Q+R+: S+: T+N+M+",
"U+V+: W+: X+U+Y+Z+`+ @.@+@@@#@$@%@&@*@=@-@: ;@U+>@U+",
",@'@)@: !@~@'@,@{@]@^@/@/@/@(@_@:@<@~@[@: }@: )@|@,@",
"1@2@: 3@: 4@5@5@5@5@5@5@5@5@5@1@5@5@6@: 3@1@6@: 4@5@",
"7@: 8@9@7@: 0@a@b@a@9@9@a@9@9@9@9@c@d@e@f@g@9@7@e@h@",
"i@j@k@l@l@m@j@n@o@l@l@p@l@o@l@o@l@q@l@l@l@l@l@p@l@l@"};
