/* XPM */
static char * cTOkDFK_xpm[] = {
"26 26 301 2",
"  	c #383838",
". 	c #37373A",
"+ 	c #2E2E46",
"@ 	c #3B3B3B",
"# 	c #3B3A3B",
"$ 	c #3A3B3A",
"% 	c #3A3B3B",
"& 	c #3B3A3A",
"* 	c #39393E",
"= 	c #1B1B63",
"- 	c #292951",
"; 	c #3B3B3A",
"> 	c #3E3E3E",
", 	c #3E3E3F",
"' 	c #3E3F3E",
") 	c #3D3D3F",
"! 	c #21215F",
"~ 	c #23235C",
"{ 	c #3F3E3E",
"] 	c #424242",
"^ 	c #424243",
"/ 	c #424343",
"( 	c #434342",
"_ 	c #28285A",
": 	c #202062",
"< 	c #474746",
"[ 	c #474647",
"} 	c #464646",
"| 	c #464746",
"1 	c #474646",
"2 	c #464647",
"3 	c #2C2C5B",
"4 	c #2B2B5C",
"5 	c #464747",
"6 	c #4B4B4C",
"7 	c #4B4B4B",
"8 	c #4C4B4B",
"9 	c #252564",
"0 	c #393958",
"a 	c #515151",
"b 	c #505151",
"c 	c #505050",
"d 	c #505051",
"e 	c #505150",
"f 	c #515050",
"g 	c #4D4D52",
"h 	c #1C1C6B",
"i 	c #4B4B53",
"j 	c #757575",
"k 	c #969696",
"l 	c #7A7979",
"m 	c #555556",
"n 	c #565656",
"o 	c #353563",
"p 	c #1A1A6E",
"q 	c #16166F",
"r 	c #2F2E65",
"s 	c #535357",
"t 	c #555656",
"u 	c #555655",
"v 	c #6A4243",
"w 	c #604D4C",
"x 	c #565655",
"y 	c #565556",
"z 	c #3D3C5F",
"A 	c #323264",
"B 	c #646364",
"C 	c #B9B9B9",
"D 	c #D8D8D8",
"E 	c #BDBDBD",
"F 	c #DCDCDC",
"G 	c #706F70",
"H 	c #5B5B5B",
"I 	c #333367",
"J 	c #373766",
"K 	c #59595D",
"L 	c #313168",
"M 	c #27276B",
"N 	c #5B5C5C",
"O 	c #694D4D",
"P 	c #AB0B0B",
"Q 	c #A80E0E",
"R 	c #6D4949",
"S 	c #5C5C5B",
"T 	c #5A5A5B",
"U 	c #22226C",
"V 	c #5B5C5B",
"W 	c #B8B8B8",
"X 	c #999999",
"Y 	c #434343",
"Z 	c #7D7D7D",
"` 	c #6F6F6F",
" .	c #BABABA",
"..	c #585863",
"+.	c #27276D",
"@.	c #616161",
"#.	c #616261",
"$.	c #626161",
"%.	c #31316B",
"&.	c #36366A",
"*.	c #685A5A",
"=.	c #A51313",
"-.	c #B00606",
";.	c #AD0909",
">.	c #7D4141",
",.	c #25256D",
"'.	c #655D5D",
").	c #707070",
"!.	c #EBEBEB",
"~.	c #343434",
"{.	c #DDDDDD",
"].	c #DEDEDE",
"^.	c #E4E4E4",
"/.	c #818181",
"(.	c #555569",
"_.	c #2F2F6E",
":.	c #676767",
"<.	c #666767",
"[.	c #2A2A6F",
"}.	c #7E2436",
"|.	c #8E3434",
"1.	c #28246D",
"2.	c #9D1F1F",
"3.	c #705A5B",
"4.	c #8E8F8E",
"5.	c #C8C8C8",
"6.	c #454545",
"7.	c #EFEFEF",
"8.	c #696969",
"9.	c #858585",
"0.	c #D2D2D2",
"a.	c #6A6B6D",
"b.	c #222271",
"c.	c #6C6C6E",
"d.	c #6D6E6D",
"e.	c #6E6E6E",
"f.	c #6D6D6E",
"g.	c #6D6D6D",
"h.	c #6B6A6D",
"i.	c #2A2970",
"j.	c #882632",
"k.	c #A20E14",
"l.	c #854949",
"m.	c #AEAFAF",
"n.	c #E6E6E6",
"o.	c #303030",
"p.	c #ACACAC",
"q.	c #FFFFFF",
"r.	c #B7B7B7",
"s.	c #6C6C6C",
"t.	c #ECECEC",
"u.	c #747474",
"v.	c #484873",
"w.	c #424273",
"x.	c #737474",
"y.	c #737374",
"z.	c #737373",
"A.	c #747373",
"B.	c #6E6E74",
"C.	c #272772",
"D.	c #702844",
"E.	c #AF0707",
"F.	c #B75353",
"G.	c #DADADA",
"H.	c #353535",
"I.	c #404040",
"J.	c #363636",
"K.	c #BCBCBC",
"L.	c #C2C2C2",
"M.	c #7A7A7A",
"N.	c #363675",
"O.	c #595978",
"P.	c #76767A",
"Q.	c #444476",
"R.	c #471D59",
"S.	c #A6080E",
"T.	c #B12727",
"U.	c #474747",
"V.	c #D1D1D1",
"W.	c #F5F5F5",
"X.	c #D6D6D6",
"Y.	c #FAFAFA",
"Z.	c #C4C4C4",
"`.	c #808081",
" +	c #7E7D80",
".+	c #2F2F76",
"++	c #595A7C",
"@+	c #818180",
"#+	c #808080",
"$+	c #808180",
"%+	c #8F5959",
"&+	c #746A6A",
"*+	c #F1F1F1",
"=+	c #868687",
"-+	c #9A9999",
";+	c #848383",
">+	c #868786",
",+	c #878787",
"'+	c #878786",
")+	c #828386",
"!+	c #3D3E7A",
"~+	c #46467C",
"{+	c #868586",
"]+	c #878687",
"^+	c #8A7C7C",
"/+	c #AA1818",
"(+	c #D09FA0",
"_+	c #AAAAAA",
":+	c #868787",
"<+	c #8D8D8D",
"[+	c #8C8D8D",
"}+	c #5B5B82",
"|+	c #535381",
"1+	c #8D8C8D",
"2+	c #918081",
"3+	c #C7A5A5",
"4+	c #CAA8A8",
"5+	c #624040",
"6+	c #783434",
"7+	c #C48080",
"8+	c #C37F7F",
"9+	c #987B7B",
"0+	c #8D8D8C",
"a+	c #939393",
"b+	c #939292",
"c+	c #939392",
"d+	c #939293",
"e+	c #929393",
"f+	c #ABABAB",
"g+	c #D8D7D8",
"h+	c #4D4D4D",
"i+	c #7E7E7E",
"j+	c #F0F0F0",
"k+	c #C7C7C7",
"l+	c #999998",
"m+	c #999899",
"n+	c #989999",
"o+	c #999898",
"p+	c #F8F8F8",
"q+	c #7F7F7F",
"r+	c #B1B1B1",
"s+	c #E3E3E3",
"t+	c #989998",
"u+	c #9E9F9E",
"v+	c #9F9E9E",
"w+	c #9F9F9E",
"x+	c #9E9E9F",
"y+	c #9E9E9E",
"z+	c #9E9F9F",
"A+	c #B6B6B7",
"B+	c #555555",
"C+	c #D7D7D7",
"D+	c #A5A4A4",
"E+	c #A4A4A3",
"F+	c #A4A4A4",
"G+	c #A4A3A3",
"H+	c #E0E0E0",
"I+	c #2C2C2C",
"J+	c #FBFBFB",
"K+	c #CECECE",
"L+	c #A4A3A4",
"M+	c #A3A4A3",
"N+	c #A3A4A4",
"O+	c #A9A9A9",
"P+	c #A9A8A9",
"Q+	c #A8A8A8",
"R+	c #B0B0B0",
"S+	c #4C4C4C",
"T+	c #717171",
"U+	c #EDEDED",
"V+	c #B3B3B3",
"W+	c #ADAEAD",
"X+	c #AEADAE",
"Y+	c #AEAEAE",
"Z+	c #AEADAD",
"`+	c #CBCBCA",
" @	c #AFAFAF",
".@	c #414141",
"+@	c #E1E1E1",
"@@	c #C5C5C5",
"#@	c #D3D3D3",
"$@	c #B2B2B2",
"%@	c #B2B1B2",
"&@	c #D0D0D0",
"*@	c #F6F6F6",
"=@	c #BEBEBD",
"-@	c #CBCBCB",
";@	c #B1B2B2",
">@	c #B2B2B1",
",@	c #B6B6B6",
"'@	c #B5B5B6",
")@	c #B5B6B6",
"!@	c #B6B6B5",
"~@	c #E9E9EA",
"{@	c #B6B5B5",
"]@	c #B5B5B5",
"^@	c #B6B5B6",
"/@	c #B9B9BA",
"(@	c #EBEAEA",
"_@	c #BAB9BA",
":@	c #BAB9B9",
"                . +                                 ",
"@ # $ # @ % % & * = - ; @ @ @ ; @ @ @ @ @ @ # ; $ % ",
"> > > , ' , > > > ) ! ~ ) , > , ' > > > > > > , { , ",
"] ^ ] / ( ] ] ] ] ] ] _ : ] ] ] ] ] ] ] ] ] ] ] ] ] ",
"< [ } | < } | 1 } 2 } [ 3 4 5 | < } } } 5 1 } [ < } ",
"6 6 6 7 6 8 7 7 7 7 7 7 7 9 0 7 7 7 7 7 7 7 6 7 7 7 ",
"a b c c d e f d c c c c e g h i e f c c c j k l c d ",
"m n o p q r s t t u v w x y z A x u t B C D E F C G ",
"H I J H K L M N H O P Q R S T U H V H W X Y Z `  . .",
"..+.@.@.#.$.%.&.*.=.-.-.;.>.@.,.'.@.).!.~.{.].^./.^.",
"(._.:.:.:.:.<.[.}.-.-.-.-.-.|.1.2.3.4.5.6.7.8.7.9.0.",
"a.b.c.d.e.f.g.h.i.j.-.-.-.-.-.k.-.l.m.n.o.p.q.r.s.t.",
"u.v.w.x.y.z.u.A.B.C.D.E.-.-.-.-.-.F.G.7 H.I.J.I.K.L.",
"M.M.N.O.M.M.M.M.M.P.Q.R.S.-.-.-.-.T.  U.V.W.X.Y.Z.M.",
"`.`. +.+++`.@+#+`.$+#+#+%+-.-.-.-.E.&+*+K.=+-+;+#+$+",
">+,+'+)+!+~+{+,+,+,+]+^+/+-.-.-.-.-.(+_+,+,+]+:+,+:+",
"<+<+<+<+[+}+|+<+[+[+1+2+3+4+5+6+7+8+9+<+<+[+0+0+<+1+",
"a+a+a+a+b+c+a+d+e+c+f+g+p.h+i+j+k+a+a+a+a+d+a+a+a+e+",
"l+X m+n+m+m+X o+m+L.p+q+7 r+s+C X m+X X t+m+X n+X m+",
"u+v+w+v+x+x+y+z+A+s+B+h+C+X.D+u+u+y+w+w+y+v+w+z+z+y+",
"E+F+F+F+G+F+E+F+H+g.I+} r.J+K+L+F+F+M+L+F+N+N+F+E+F+",
"O+O+P+O+O+Q+O+O+k+R+U.y+S+T+U+V+O+O+P+O+O+O+O+P+O+O+",
"W+W+X+Y+W+Y+Z+Y+`+ @.@W.+@@@#@X+Z+X+Z+Y+Z+Y+Y+Y+Y+Y+",
"$@$@$@$@$@$@%@$@&@Q+] *@=@-@$@$@$@;@$@$@$@>@$@>@$@$@",
",@'@,@)@,@!@,@,@K+r.8.~@,@!@,@{@,@]@,@,@,@^@{@,@^@,@",
"C C C C C C C /@/@&@(@K+C C C _@C C C C C C :@C _@C "};
