/* XPM */
static char * CVshowDFK_xpm[] = {
"26 26 289 2",
"  	c #3B3A3B",
". 	c #3B3B3B",
"+ 	c #3B3B3A",
"@ 	c #6C2C2C",
"# 	c #6C2C2B",
"$ 	c #463636",
"% 	c #3A3B3B",
"& 	c #5F3030",
"* 	c #6C2B2C",
"= 	c #3B3A3A",
"- 	c #3A3A3B",
"; 	c #3A3A3A",
"> 	c #3E3E3E",
", 	c #6E2E2E",
"' 	c #FE4000",
") 	c #FF1000",
"! 	c #8C2525",
"~ 	c #B01A19",
"{ 	c #FE3000",
"] 	c #4A3A3A",
"^ 	c #3E3D3E",
"/ 	c #623232",
"( 	c #424142",
"_ 	c #414241",
": 	c #414141",
"< 	c #414142",
"[ 	c #414242",
"} 	c #892929",
"| 	c #FE6000",
"1 	c #FCFF00",
"2 	c #FDD000",
"3 	c #DC0C0C",
"4 	c #FDA000",
"5 	c #B91919",
"6 	c #713131",
"7 	c #8E2727",
"8 	c #B11B1B",
"9 	c #4D3E3E",
"0 	c #464646",
"a 	c #464645",
"b 	c #464546",
"c 	c #B31C1C",
"d 	c #FDC000",
"e 	c #BA1A1A",
"f 	c #6E3737",
"g 	c #8C2C2B",
"h 	c #DD0D0D",
"i 	c #4A4A4A",
"j 	c #4A4B4A",
"k 	c #4A4A4B",
"l 	c #4B4A4A",
"m 	c #4A4B4B",
"n 	c #3B3B54",
"o 	c #AD0D25",
"p 	c #FCE000",
"q 	c #E4040C",
"r 	c #683140",
"s 	c #B41F1F",
"t 	c #BC1C1C",
"u 	c #713A3A",
"v 	c #4F4F4F",
"w 	c #4E4E4F",
"x 	c #282864",
"y 	c #A10B2C",
"z 	c #A6062A",
"A 	c #662F46",
"B 	c #4F4E4F",
"C 	c #BD1D1D",
"D 	c #EA0A0A",
"E 	c #753E3E",
"F 	c #545454",
"G 	c #545554",
"H 	c #313164",
"I 	c #731343",
"J 	c #D51515",
"K 	c #A8082A",
"L 	c #525256",
"M 	c #B92323",
"N 	c #BF1F1F",
"O 	c #794343",
"P 	c #5A5A5A",
"Q 	c #5A595A",
"R 	c #54535B",
"S 	c #21116A",
"T 	c #FD8000",
"U 	c #923B3B",
"V 	c #BB2525",
"W 	c #65354F",
"X 	c #973837",
"Y 	c #D21217",
"Z 	c #C12122",
"` 	c #5A5A59",
" .	c #5F5F5F",
"..	c #5F605F",
"+.	c #605F5F",
"@.	c #3E3E67",
"#.	c #27276C",
"$.	c #6E5656",
"%.	c #B02F2F",
"&.	c #AF2F2F",
"*.	c #6D5656",
"=.	c #5F5F60",
"-.	c #9B3B3B",
";.	c #572756",
">.	c #32326A",
",.	c #695959",
"'.	c #953E3F",
").	c #9F092F",
"!.	c #7D4D4D",
"~.	c #656565",
"{.	c #2C2C6E",
"].	c #40406B",
"^.	c #656564",
"/.	c #43426A",
"(.	c #2A2A6E",
"_.	c #735B5C",
":.	c #B23232",
"<.	c #735C5C",
"[.	c #26266E",
"}.	c #8A2A42",
"|.	c #825152",
"1.	c #6B6B6B",
"2.	c #6B6A6B",
"3.	c #212171",
"4.	c #4F4F6D",
"5.	c #6A6B6B",
"6.	c #6B6B6A",
"7.	c #222271",
"8.	c #3C3C6F",
"9.	c #34356F",
"0.	c #717170",
"a.	c #717171",
"b.	c #1B1B72",
"c.	c #5A5A71",
"d.	c #595871",
"e.	c #1D1D72",
"f.	c #717071",
"g.	c #505071",
"h.	c #292972",
"i.	c #707171",
"j.	c #777777",
"k.	c #767777",
"l.	c #777776",
"m.	c #1B1B73",
"n.	c #5F5F76",
"o.	c #636376",
"p.	c #181872",
"q.	c #616175",
"r.	c #242473",
"s.	c #7D7D7D",
"t.	c #202074",
"u.	c #5F5F7A",
"v.	c #6E6D7B",
"w.	c #121272",
"x.	c #7D7D7E",
"y.	c #6B6B7B",
"z.	c #191973",
"A.	c #838483",
"B.	c #838383",
"C.	c #2A2A76",
"D.	c #5A5B7D",
"E.	c #848383",
"F.	c #838484",
"G.	c #838384",
"H.	c #787881",
"I.	c #4B0B55",
"J.	c #9D5D61",
"K.	c #8C7B7B",
"L.	c #9A6A6A",
"M.	c #A26262",
"N.	c #736377",
"O.	c #1D1D74",
"P.	c #8A8989",
"Q.	c #898989",
"R.	c #3A3A7A",
"S.	c #51517E",
"T.	c #898A89",
"U.	c #89898A",
"V.	c #A66767",
"W.	c #B95252",
"X.	c #CE3838",
"Y.	c #392970",
"Z.	c #8A898A",
"`.	c #8F8F8F",
" +	c #908F8F",
".+	c #515281",
"++	c #3E3E7D",
"@+	c #B95959",
"#+	c #EA1A1A",
"$+	c #B7172F",
"%+	c #4D4D80",
"&+	c #8F9090",
"*+	c #959495",
"=+	c #B06F6F",
"-+	c #B07070",
";+	c #776782",
">+	c #282879",
",+	c #A97979",
"'+	c #9C8B8C",
")+	c #959595",
"!+	c #949595",
"~+	c #949594",
"{+	c #BD2738",
"]+	c #C32332",
"^+	c #4A135B",
"/+	c #868791",
"(+	c #B37373",
"_+	c #720B45",
":+	c #D33E3F",
"<+	c #A19091",
"[+	c #9B9A9A",
"}+	c #9A9B9A",
"|+	c #9A9A9B",
"1+	c #99999A",
"2+	c #BA1A30",
"3+	c #E5050F",
"4+	c #4F185D",
"5+	c #797991",
"6+	c #9B9B9B",
"7+	c #9A9A9A",
"8+	c #9A9B9B",
"9+	c #C36464",
"0+	c #D70716",
"a+	c #DC3B3B",
"b+	c #A0A0A0",
"c+	c #A0A09F",
"d+	c #D84242",
"e+	c #DB3A3B",
"f+	c #B47D7D",
"g+	c #9FA0A0",
"h+	c #A5A5A5",
"i+	c #DA4444",
"j+	c #DD3D3D",
"k+	c #B88181",
"l+	c #C76767",
"m+	c #E92929",
"n+	c #AAAAAA",
"o+	c #AAA9AA",
"p+	c #DF3F3F",
"q+	c #F51515",
"r+	c #BC8585",
"s+	c #A9A9AA",
"t+	c #AAAAA9",
"u+	c #AF9F9F",
"v+	c #C67070",
"w+	c #DC4646",
"x+	c #BA8A8A",
"y+	c #A9AAAA",
"z+	c #AFAEAF",
"A+	c #DE4848",
"B+	c #E14141",
"C+	c #C08888",
"D+	c #AEAFAF",
"E+	c #AFAEAE",
"F+	c #AEAEAE",
"G+	c #B59E9F",
"H+	c #D75757",
"I+	c #B69F9E",
"J+	c #CC6D6D",
"K+	c #BD8D8D",
"L+	c #AFAFAF",
"M+	c #D06F70",
"N+	c #EC2C2C",
"O+	c #E34243",
"P+	c #B2B3B2",
"Q+	c #B3B2B2",
"R+	c #B2B3B3",
"S+	c #B2B2B2",
"T+	c #B3B3B3",
"U+	c #B2B2B3",
"V+	c #CF7878",
"W+	c #E14B4B",
"X+	c #C49494",
"Y+	c #B6B6B6",
"Z+	c #B6B6B7",
"`+	c #B6B7B6",
" @	c #BFA8A8",
".@	c #DD5C5C",
"+@	c #DC5C5C",
"@@	c #BFA9A8",
"#@	c #B9B9BA",
"$@	c #BAB9B9",
"%@	c #D37473",
"&@	c #DC5C5D",
"*@	c #C69796",
"=@	c #B9BAB9",
"-@	c #BABABA",
";@	c #B9B9B9",
">@	c #BAB9BA",
"  . . + + . @ # $ . % & * $ % = - + . + . ; . + +   ",
"> > > > > , ' ' ) ! ~ { ' ) ] > ^ , , ] > > / , ] > ",
"( _ : < [ } | 1 2 3 | 1 4 5 _ ( 6 ' ' ) 7 8 { ' ) 9 ",
"0 a 0 b 0 b c | 1 d 1 4 e f 0 0 g | 1 2 h | 1 4 e 0 ",
"i j k l m i n o 4 1 p q r i i k j s | 1 d 1 4 t u j ",
"v v v v w x y | 1 d 1 4 z A B v v v C 4 1 p D E v v ",
"F F F G H I | 1 d J | 1 4 K L F F M | 1 d 1 4 N O F ",
"P Q Q R S ) T T ) U V | T { W P X | 1 d Y | 1 4 Z ` ",
" ...+.@.#.$.%.&.*.=. .-.&.;.>.,.) T T ) '.).| T { !.",
"~.~.~.{.].^.~.~.~.~.~.~.~./.(.~._.:.:.<.~.[.}.:.|.~.",
"1.1.2.3.4.1.5.1.1.1.6.1.5.4.7.1.2.2.1.2.1.8.9.1.1.1.",
"0.a.a.b.c.0.a.a.a.a.a.a.a.d.e.f.a.a.a.a.0.g.h.0.i.a.",
"j.k.l.m.n.l.l.j.j.j.j.j.j.o.p.j.j.j.j.j.l.q.r.j.j.j.",
"s.s.s.t.u.s.s.s.s.s.s.s.s.v.w.s.x.s.s.s.s.y.z.s.s.s.",
"A.A.B.C.D.A.E.B.B.B.F.B.G.H.I.J.K.B.B.L.M.N.O.B.B.A.",
"P.P.Q.R.S.Q.Q.T.P.U.P.Q.Q.V.' ' ) W.X.{ ' ) Y.Q.Z.Q.",
"`.`. +.+++`.`.`.`.`.`.`.`.@+| 1 2 #+| 1 4 $+%+`.`.&+",
"*+=+-+;+>+*+,+-+'+)+)+*+!+~+{+| 1 d 1 4 ]+^+/+!+)+)+",
"(+' ' ) _+:+{ ' ) <+[+}+|+[+1+2+4 1 p 3+4+5+6+7+8+[+",
"9+| 1 2 0+| 1 4 a+b+b+c+b+b+d+| 1 d 1 4 e+f+b+g+b+c+",
"h+i+| 1 d 1 4 j+k+h+h+h+h+l+| 1 d m+| 1 4 j+h+h+h+h+",
"n+o+p+4 1 p q+r+n+s+t+n+u+) T T ) v+w+| T { x+y+y+n+",
"z+A+| 1 d 1 4 B+C+D+E+F+E+G+H+H+I+E+E+J+H+K+F+E+L+F+",
"M+| 1 d N+| 1 4 O+P+Q+R+R+R+Q+S+S+S+Q+T+U+S+Q+U+Q+S+",
") T T ) V+W+| T { X+Y+Y+Y+Y+Z+Y+Y+Y+Y+Y+Y+Y+`+Y+Y+`+",
" @.@+@@@#@$@%@&@*@=@#@-@$@$@#@;@;@>@$@=@#@#@;@;@=@=@"};
