/* XPM */
static char * delHisDFK_xpm[] = {
"26 26 425 2",
"  	c #3B3C3C",
". 	c #3C3D3D",
"+ 	c #3C3C3C",
"@ 	c #3B3B3B",
"# 	c #3C3B3C",
"$ 	c #3A3B3B",
"% 	c #3A3A3B",
"& 	c #3B3B3A",
"* 	c #3C3B3B",
"= 	c #3B3A3B",
"- 	c #6D94B2",
"; 	c #799CB9",
"> 	c #C1BEC0",
", 	c #404040",
"' 	c #3E3D3D",
") 	c #3E3E3E",
"! 	c #3E3D3E",
"~ 	c #3D3E3E",
"{ 	c #3F3E3F",
"] 	c #427BA6",
"^ 	c #4180B0",
"/ 	c #B3B9BE",
"( 	c #3F3F3F",
"_ 	c #3D3D3D",
": 	c #424142",
"< 	c #424241",
"[ 	c #424141",
"} 	c #414241",
"| 	c #414242",
"1 	c #424242",
"2 	c #434343",
"3 	c #424243",
"4 	c #414142",
"5 	c #758A9B",
"6 	c #1D69A1",
"7 	c #94AABC",
"8 	c #5F5F5F",
"9 	c #414141",
"0 	c #464646",
"a 	c #464546",
"b 	c #464645",
"c 	c #454646",
"d 	c #516A7E",
"e 	c #6C7881",
"f 	c #464545",
"g 	c #6A6C70",
"h 	c #1F6497",
"i 	c #6692B3",
"j 	c #ABABAD",
"k 	c #494A4A",
"l 	c #454546",
"m 	c #4A4A4A",
"n 	c #4A4B4B",
"o 	c #4A4A4B",
"p 	c #4A4B4A",
"q 	c #4B4A4A",
"r 	c #6D6E71",
"s 	c #2E6E9C",
"t 	c #3C79A4",
"u 	c #69696B",
"v 	c #4B4B4B",
"w 	c #606061",
"x 	c #4C799D",
"y 	c #286DA2",
"z 	c #ADB5BE",
"A 	c #565656",
"B 	c #4F4F4F",
"C 	c #646364",
"D 	c #698CA7",
"E 	c #19649A",
"F 	c #8899A5",
"G 	c #535252",
"H 	c #5A5B5D",
"I 	c #6D889C",
"J 	c #2C6895",
"K 	c #0D5D9A",
"L 	c #94A8BA",
"M 	c #656565",
"N 	c #4E4F4F",
"O 	c #545454",
"P 	c #555454",
"Q 	c #545455",
"R 	c #545554",
"S 	c #545555",
"T 	c #555555",
"U 	c #A4ACB3",
"V 	c #1D6195",
"W 	c #517EA2",
"X 	c #73787D",
"Y 	c #56758D",
"Z 	c #326C95",
"` 	c #4D7FA6",
" .	c #7094AF",
"..	c #236899",
"+.	c #5887AB",
"@.	c #8F8E90",
"#.	c #5A5A59",
"$.	c #595A59",
"%.	c #595A5A",
"&.	c #5A595A",
"*.	c #5A5959",
"=.	c #59595A",
"-.	c #5A5A5A",
";.	c #595959",
">.	c #5C5C5B",
",.	c #646464",
"'.	c #527D9F",
").	c #145D94",
"!.	c #326F9B",
"~.	c #5884A5",
"{.	c #95A8B9",
"].	c #BCBEC1",
"^.	c #CFC9C7",
"/.	c #5982A0",
"(.	c #20669A",
"_.	c #AFB5BC",
":.	c #5C5C5D",
"<.	c #616060",
"[.	c #5F5F60",
"}.	c #605F5F",
"|.	c #6A696A",
"1.	c #808E9A",
"2.	c #0B578E",
"3.	c #729CBA",
"4.	c #E9E7E7",
"5.	c #DAD7D6",
"6.	c #BAB9B7",
"7.	c #C1BDBA",
"8.	c #758998",
"9.	c #135A90",
"0.	c #7690A4",
"a.	c #6D6D6D",
"b.	c #626262",
"c.	c #656464",
"d.	c #656465",
"e.	c #727170",
"f.	c #A6A7A8",
"g.	c #275C83",
"h.	c #4484B4",
"i.	c #E1E7EC",
"j.	c #BEBDB9",
"k.	c #9F9E9E",
"l.	c #B2B0AF",
"m.	c #898C8D",
"n.	c #19517A",
"o.	c #093758",
"p.	c #403E3D",
"q.	c #727172",
"r.	c #646564",
"s.	c #656564",
"t.	c #6A6B6B",
"u.	c #6B6B6B",
"v.	c #6B6B6A",
"w.	c #6B6A6B",
"x.	c #363534",
"y.	c #666664",
"z.	c #5C6D79",
"A.	c #4A7799",
"B.	c #A0AAB3",
"C.	c #A19F9D",
"D.	c #9A9998",
"E.	c #ACABAA",
"F.	c #9B9997",
"G.	c #6C7D88",
"H.	c #6C7C87",
"I.	c #898988",
"J.	c #ADACAB",
"K.	c #787779",
"L.	c #717171",
"M.	c #717071",
"N.	c #717170",
"O.	c #707171",
"P.	c #676766",
"Q.	c #1C1C1C",
"R.	c #232221",
"S.	c #4A4746",
"T.	c #6A6866",
"U.	c #797A79",
"V.	c #969594",
"W.	c #A09F9F",
"X.	c #A8A6A7",
"Y.	c #B4B3B1",
"Z.	c #BEBCBA",
"`.	c #C3C0BD",
" +	c #C2C1C1",
".+	c #B4B3B2",
"++	c #ABACAD",
"@+	c #737374",
"#+	c #777777",
"$+	c #787878",
"%+	c #767676",
"&+	c #222221",
"*+	c #1E1D1D",
"=+	c #302E2D",
"-+	c #3F3D3D",
";+	c #60605F",
">+	c #6A6A69",
",+	c #7A7878",
"'+	c #929190",
")+	c #9D9B9A",
"!+	c #9A9997",
"~+	c #959492",
"{+	c #8B8A8A",
"]+	c #ABABAC",
"^+	c #777878",
"/+	c #7D7D7D",
"(+	c #7E7D7D",
"_+	c #7C7C7C",
":+	c #282827",
"<+	c #2E2C2C",
"[+	c #3E3D3C",
"}+	c #4E4E4C",
"|+	c #5A5958",
"1+	c #6E6D6C",
"2+	c #858583",
"3+	c #949392",
"4+	c #8E8D8C",
"5+	c #747372",
"6+	c #8A8A89",
"7+	c #B1B0B4",
"8+	c #7D7D7E",
"9+	c #7D7E7D",
"0+	c #838383",
"a+	c #838483",
"b+	c #838384",
"c+	c #858485",
"d+	c #848484",
"e+	c #363836",
"f+	c #232322",
"g+	c #2B2B2B",
"h+	c #434243",
"i+	c #363737",
"j+	c #383837",
"k+	c #5F5E5D",
"l+	c #828181",
"m+	c #90908D",
"n+	c #7E7D7A",
"o+	c #585755",
"p+	c #848485",
"q+	c #9D9D9F",
"r+	c #898989",
"s+	c #8A8989",
"t+	c #898A89",
"u+	c #89898A",
"v+	c #8A8A8A",
"w+	c #272726",
"x+	c #545352",
"y+	c #4C4A49",
"z+	c #292828",
"A+	c #202020",
"B+	c #434240",
"C+	c #81817F",
"D+	c #878786",
"E+	c #777775",
"F+	c #6F6E6D",
"G+	c #99999B",
"H+	c #8C8C8C",
"I+	c #8F8F8F",
"J+	c #8E8E8E",
"K+	c #8E8F8E",
"L+	c #8F8F90",
"M+	c #919191",
"N+	c #4C4C4D",
"O+	c #232321",
"P+	c #5E5E5D",
"Q+	c #5E5D5C",
"R+	c #353534",
"S+	c #292A2A",
"T+	c #3A3A3A",
"U+	c #7E7E7C",
"V+	c #7D7C7B",
"W+	c #767573",
"X+	c #767374",
"Y+	c #A4A5A6",
"Z+	c #908F8F",
"`+	c #959495",
" @	c #959595",
".@	c #949494",
"+@	c #929393",
"@@	c #8F9090",
"#@	c #504F50",
"$@	c #222122",
"%@	c #1E1F1D",
"&@	c #545453",
"*@	c #565553",
"=@	c #2F2F2D",
"-@	c #272826",
";@	c #757373",
">@	c #6F6F6D",
",@	c #787778",
"'@	c #A6A6A8",
")@	c #9B9B9B",
"!@	c #999999",
"~@	c #9A9A9A",
"{@	c #989999",
"]@	c #979897",
"^@	c #929292",
"/@	c #8B8A8B",
"(@	c #807F80",
"_@	c #626363",
":@	c #484847",
"<@	c #1D1D1C",
"[@	c #4F4E4D",
"}@	c #50504F",
"|@	c #2B2B29",
"1@	c #232423",
"2@	c #434342",
"3@	c #797877",
"4@	c #6B6A69",
"5@	c #878889",
"6@	c #9E9D9E",
"7@	c #9F9F9F",
"8@	c #9E9E9E",
"9@	c #8D8C8C",
"0@	c #7F7F7F",
"a@	c #717271",
"b@	c #646365",
"c@	c #4A4A49",
"d@	c #232222",
"e@	c #1B1B1B",
"f@	c #494846",
"g@	c #4B4A49",
"h@	c #282826",
"i@	c #222120",
"j@	c #474645",
"k@	c #727070",
"l@	c #6C6C6B",
"m@	c #646463",
"n@	c #A0A0A0",
"o@	c #A5A5A5",
"p@	c #A3A3A3",
"q@	c #8E8F8F",
"r@	c #7F8080",
"s@	c #707071",
"t@	c #636364",
"u@	c #252525",
"v@	c #181917",
"w@	c #434242",
"x@	c #454542",
"y@	c #252423",
"z@	c #1F201F",
"A@	c #4A4948",
"B@	c #696766",
"C@	c #696867",
"D@	c #616161",
"E@	c #A7A7A7",
"F@	c #AAA9AA",
"G@	c #AAAAA9",
"H@	c #AAAAAA",
"I@	c #A8A8A7",
"J@	c #A1A0A1",
"K@	c #929392",
"L@	c #828282",
"M@	c #717273",
"N@	c #666768",
"O@	c #505151",
"P@	c #252524",
"Q@	c #1A1A19",
"R@	c #3D3D3B",
"S@	c #403E3E",
"T@	c #21211F",
"U@	c #1D1E1C",
"V@	c #636261",
"W@	c #60615F",
"X@	c #757576",
"Y@	c #ADADAD",
"Z@	c #AFAEAE",
"`@	c #AEAEAF",
" #	c #AEAFAE",
".#	c #AFAEAF",
"+#	c #A8A8A8",
"@#	c #939394",
"##	c #79797A",
"$#	c #646466",
"%#	c #535354",
"&#	c #181817",
"*#	c #383637",
"=#	c #3A3A39",
"-#	c #1F1F1E",
";#	c #605F5D",
">#	c #585957",
",#	c #969698",
"'#	c #AEAEAE",
")#	c #B2B3B3",
"!#	c #B2B3B2",
"~#	c #B2B2B3",
"{#	c #B2B2B2",
"]#	c #AAABAB",
"^#	c #8D8D8D",
"/#	c #666667",
"(#	c #3C3C3D",
"_#	c #1B1A1A",
":#	c #323130",
"<#	c #1B1D1B",
"[#	c #1E1E1D",
"}#	c #4A4947",
"|#	c #5B5958",
"1#	c #B1B0B2",
"2#	c #B3B3B2",
"3#	c #B3B2B3",
"4#	c #B3B3B3",
"5#	c #B7B6B6",
"6#	c #B6B6B6",
"7#	c #B6B7B6",
"8#	c #99999A",
"9#	c #545353",
"0#	c #31312F",
"a#	c #302F2E",
"b#	c #161615",
"c#	c #1C1D1D",
"d#	c #7D7D7C",
"e#	c #9C9C9C",
"f#	c #BAB9B9",
"g#	c #BABAB9",
"h#	c #B9B9B9",
"i#	c #B9B9BA",
"j#	c #B7B7B8",
"k#	c #A4A4A3",
"l#	c #929293",
"m#	c #737175",
"n#	c #444343",
"o#	c #767575",
"p#	c #B8B8B9",
"q#	c #B9BAB9",
"r#	c #B9BABA",
"  . + @ # $ % & * + = & = @ $ + - ; > = , $   + ' ) ",
") ) ) ! ) ) ) ) ~ { ) ) ) ) ) ! ] ^ / ) ( ) ) ) ) _ ",
": < [ } | | } < 1 1 2 3 3 | 4 2 5 6 7 8 3 1 1 4 9 [ ",
"0 0 a a b c a b a c d e a 0 f 0 g h i j k l c c c f ",
"m n o m p p q m m r s t u o v n w x y z A m m m m m ",
"B B B B B B B B B C D E F G B H I J K L M B B B B N ",
"O O P Q R O P S A T U V W X Y Z `  ...+.@.Q O O O O ",
"#.$.%.&.*.=.-.&.;.>.,.'.).!.~.{.].^./.(._.:.=.-.$.-.",
"8 8 <.[.8 }.[.}.8 8 |.1.2.3.4.5.6.7.8.9.0.a.b.8 8 [.",
"M c.M d.M d.M M M M e.f.g.h.i.j.k.l.m.n.o.p.q.r.s.d.",
"t.u.t.v.u.u.t.w.u.R x.y.z.A.B.C.D.E.F.G.H.I.J.K.t.u.",
"L.L.M.L.L.M.L.N.O.P.Q.R.S.T.U.V.W.X.Y.Z.`. +.+++@+M.",
"#+#+#+#+#+#+#+#+$+%+&+*+=+-+b ;+>+,+'+)+!+~+{+]+^+#+",
"/+(+/+/+/+/+/+/+/+_+:+R.<+[+2 }+|+1+2+3+4+5+6+7+8+9+",
"0+0+a+0+0+0+0+b+c+d+e+f+g+[+h+i+j+k+l+m+n+o+p+q+0+0+",
"r+s+r+r+t+u+u+t+t+v+9 f+w+x+y+z+A+B+C+D+E+F+G+H+r+r+",
"I+I+I+J+K+I+I+I+L+M+N+&+O+P+Q+R+S+T+U+V+W+X+Y+I+Z+I+",
"`+ @.@.@+@@@J+r+I+H+#@$@%@&@*@=@-@[+V+;@>@,@'@ @ @ @",
")@!@~@{@]@^@/@(@O._@:@R.<@[@}@|@1@2@3@F+4@5@6@~@)@~@",
"7@7@7@8@)@`+9@0@a@b@c@d@e@f@g@h@i@j@k@l@m@n@n@n@n@n@",
"o@o@o@p@n@!@q@r@s@t@p u@v@w@x@y@z@A@B@C@D@E@o@o@o@o@",
"F@G@H@H@I@J@K@L@M@N@O@P@Q@R@S@T@U@g@V@W@X@Y@H@G@H@H@",
"Z@`@`@ #.# #+#@###$#%#:+&#*#=#-#*+g@;#>#,#.#'# #`@'#",
")#!#~#{#~#~#!#)#]#^#/#(#_#:#R+<#[#}#|#Q 1#~#2#3#{#4#",
"5#6#6#6#6#7#6#6#6#6#{#8#9#0#a#b#c#g@d#e#6#6#6#6#6#6#",
"f#g#h#h#h#h#h#h#h#g#h#i#j#k#l#m#n#o#p#q#h#f#r#i#q#h#"};
