/* XPM */
static char * EP_CurveDFK_xpm[] = {
"26 26 301 2",
"  	c #3A3B3A",
". 	c #3B3B3B",
"+ 	c #3B3A3A",
"@ 	c #3A3B3B",
"# 	c #3B3B3A",
"$ 	c #3B3A3B",
"% 	c #3A3A3B",
"& 	c #3E3E3E",
"* 	c #3E3D3E",
"= 	c #3D3E3E",
"- 	c #602E2E",
"; 	c #463A3A",
"> 	c #583232",
", 	c #424242",
"' 	c #424141",
") 	c #414241",
"! 	c #424142",
"~ 	c #424241",
"{ 	c #742929",
"] 	c #C70000",
"^ 	c #AE0C0C",
"/ 	c #414242",
"( 	c #732929",
"_ 	c #951919",
": 	c #633131",
"< 	c #493D3E",
"[ 	c #5B3636",
"} 	c #493E3D",
"| 	c #414141",
"1 	c #464646",
"2 	c #454646",
"3 	c #464546",
"4 	c #464645",
"5 	c #454645",
"6 	c #454545",
"7 	c #772C2C",
"8 	c #A71111",
"9 	c #971A1A",
"0 	c #762C2C",
"a 	c #AF0D0D",
"b 	c #4A4A4A",
"c 	c #4A4A4B",
"d 	c #4B4A4A",
"e 	c #3B3B55",
"f 	c #232365",
"g 	c #860928",
"h 	c #B2030D",
"i 	c #232265",
"j 	c #3E3E52",
"k 	c #792E2F",
"l 	c #A81212",
"m 	c #981C1C",
"n 	c #4A4B4A",
"o 	c #4F4F4F",
"p 	c #4E4E4F",
"q 	c #282864",
"r 	c #1A1A6C",
"s 	c #6D223A",
"t 	c #A61015",
"u 	c #890C27",
"v 	c #111171",
"w 	c #3C3C59",
"x 	c #9A1D1D",
"y 	c #B8090A",
"z 	c #4F4E4F",
"A 	c #545454",
"B 	c #555454",
"C 	c #313163",
"D 	c #1F1F6B",
"E 	c #7E3335",
"F 	c #AB1515",
"G 	c #7F3434",
"H 	c #8E1126",
"I 	c #151570",
"J 	c #525255",
"K 	c #555455",
"L 	c #7F3534",
"M 	c #A30D18",
"N 	c #9C1F1F",
"O 	c #595959",
"P 	c #5A595A",
"Q 	c #59595A",
"R 	c #53545B",
"S 	c #131371",
"T 	c #574A56",
"U 	c #902C2C",
"V 	c #902D2D",
"W 	c #615454",
"X 	c #833737",
"Y 	c #902C2D",
"Z 	c #38135A",
"` 	c #414161",
" .	c #595A5A",
"..	c #823737",
"+.	c #AC1616",
"@.	c #48485F",
"#.	c #5C1145",
"$.	c #9E2222",
"%.	c #5A5A5A",
"&.	c #5A5959",
"*.	c #5F5F5F",
"=.	c #5F5F60",
"-.	c #3E3E67",
";.	c #27276C",
">.	c #5F605F",
",.	c #30306A",
"'.	c #32326A",
").	c #605F60",
"!.	c #665959",
"~.	c #932F30",
"{.	c #932F2F",
"].	c #5E5E5F",
"^.	c #151571",
"/.	c #81363C",
"(.	c #93302F",
"_.	c #734E4D",
":.	c #656565",
"<.	c #646565",
"[.	c #2C2C6E",
"}.	c #40406B",
"|.	c #656564",
"1.	c #43436A",
"2.	c #2A2A6E",
"3.	c #656464",
"4.	c #26266E",
"5.	c #44446A",
"6.	c #6B6A6B",
"7.	c #6B6B6B",
"8.	c #212170",
"9.	c #4F4F6D",
"0.	c #6A6B6B",
"a.	c #222270",
"b.	c #6B6A6A",
"c.	c #3C3C6F",
"d.	c #35346F",
"e.	c #717171",
"f.	c #1B1B72",
"g.	c #5A5A71",
"h.	c #707171",
"i.	c #595971",
"j.	c #1D1D72",
"k.	c #717170",
"l.	c #707170",
"m.	c #505071",
"n.	c #2A2A72",
"o.	c #777777",
"p.	c #1B1B73",
"q.	c #5F5F76",
"r.	c #636376",
"s.	c #181872",
"t.	c #767777",
"u.	c #777776",
"v.	c #616176",
"w.	c #242473",
"x.	c #7D7D7D",
"y.	c #202074",
"z.	c #5F5F7B",
"A.	c #7D7E7D",
"B.	c #6D6D7B",
"C.	c #121272",
"D.	c #7D7D7E",
"E.	c #6B6B7B",
"F.	c #191973",
"G.	c #7E7D7E",
"H.	c #838383",
"I.	c #848383",
"J.	c #2B2A76",
"K.	c #5A5A7D",
"L.	c #848483",
"M.	c #787981",
"N.	c #0F0F72",
"O.	c #7B7B82",
"P.	c #838483",
"Q.	c #6A6A7F",
"R.	c #1D1D74",
"S.	c #838384",
"T.	c #898989",
"U.	c #3A3A7A",
"V.	c #51517E",
"W.	c #888989",
"X.	c #3F0D56",
"Y.	c #845263",
"Z.	c #8D8080",
"`.	c #8A8989",
" +	c #956F6F",
".+	c #996767",
"++	c #675B79",
"@+	c #2C2C77",
"#+	c #8F8F8F",
"$+	c #515181",
"%+	c #3E3E7D",
"&+	c #8F8F90",
"*+	c #8F9090",
"=+	c #908F8F",
"-+	c #671C4B",
";+	c #BD1A1B",
">+	c #A45959",
",+	c #B23536",
"'+	c #4D4D80",
")+	c #8F908F",
"!+	c #959594",
"~+	c #6E6D8B",
"{+	c #282879",
"]+	c #959495",
"^+	c #959595",
"/+	c #959494",
"(+	c #949495",
"_+	c #949594",
":+	c #5F5F87",
"<+	c #590E48",
"[+	c #BB2525",
"}+	c #B43837",
"|+	c #5F5F86",
"1+	c #181874",
"2+	c #878791",
"3+	c #949595",
"4+	c #9A9B9B",
"5+	c #A67373",
"6+	c #A67473",
"7+	c #92848D",
"8+	c #121273",
"9+	c #959599",
"0+	c #A27D7D",
"a+	c #A57373",
"b+	c #9E9190",
"c+	c #9B9B9B",
"d+	c #9B9B9A",
"e+	c #9B9A9B",
"f+	c #98999B",
"g+	c #454582",
"h+	c #84072B",
"i+	c #B70810",
"j+	c #262679",
"k+	c #1E1E76",
"l+	c #797991",
"m+	c #A0A0A0",
"n+	c #AF6464",
"o+	c #C01D1D",
"p+	c #252579",
"q+	c #994F5D",
"r+	c #B83C3C",
"s+	c #AE6464",
"t+	c #AF1923",
"u+	c #A82C36",
"v+	c #9E9E9F",
"w+	c #A0A09F",
"x+	c #9FA0A0",
"y+	c #A09FA0",
"z+	c #A5A5A5",
"A+	c #B26767",
"B+	c #A91321",
"C+	c #BA3D3D",
"D+	c #BF2929",
"E+	c #AAA9AA",
"F+	c #A9AAAA",
"G+	c #AAAAAA",
"H+	c #BC3F3F",
"I+	c #BC0D12",
"J+	c #AAAAA9",
"K+	c #AB9F9F",
"L+	c #B95555",
"M+	c #B95554",
"N+	c #A9AAA9",
"O+	c #B56A6A",
"P+	c #B85554",
"Q+	c #AF8A8A",
"R+	c #AEAEAE",
"S+	c #B76C6D",
"T+	c #C12B2B",
"U+	c #BE4141",
"V+	c #AFAEAF",
"W+	c #AFAEAE",
"X+	c #AEAFAF",
"Y+	c #AEAEAF",
"Z+	c #AEAFAE",
"`+	c #B3B3B3",
" @	c #BA7070",
".@	c #C22C2C",
"+@	c #B2B2B3",
"@@	c #BA706F",
"#@	c #BF4342",
"$@	c #B3B3B2",
"%@	c #B2B2B2",
"&@	c #B3B2B2",
"*@	c #B2B3B2",
"=@	c #B3B2B3",
"-@	c #B2B3B3",
";@	c #B7ABAB",
">@	c #BF5B5B",
",@	c #B6B6B6",
"'@	c #BC7271",
")@	c #B99494",
"!@	c #B7B7B6",
"~@	c #B6B6B7",
"{@	c #B7B6B6",
"]@	c #B9B9B9",
"^@	c #B9B9BA",
"/@	c #BABABA",
"(@	c #B9BAB9",
"_@	c #BAB9B9",
":@	c #BAB9BA",
"  . + + @ # $   . . # @ @   # # @ @ . % . $ @ + . @ ",
"& * & & = & - - ; & & > - ; & & * & * & & & & = * & ",
", , ' ) ! ~ { ] ^ / ( ] _ , / ) ~ : : < / / [ : } | ",
"1 2 1 3 4 5 6 7 ] 8 ] 9 2 5 4 4 1 0 ] a 5 0 ] 9 5 2 ",
"b b c b c d e f g ] h i j d b d c b k ] l ] m b c n ",
"o o o o p q r s ] t ] u v w o o o o o x ] y z o o o ",
"A A B A C D E ] F A G ] H I J A B K L ] M ] N A A B ",
"O P Q R S T U V W P O X Y Z `  .O ..] +.@.#.] $.%.&.",
"*.=.*.-.;.*.*.*.*.*.>.*.*.,.'.).!.~.{.!.].^./.(._.>.",
":.<.:.[.}.:.:.:.<.|.:.:.:.1.2.3.<.<.:.<.|.4.5.:.:.<.",
"6.7.7.8.9.7.7.7.7.0.7.7.7.9.a.6.0.7.7.7.b.c.d.7.7.7.",
"e.e.e.f.g.e.h.e.e.e.e.e.e.i.j.e.e.k.e.e.l.m.n.e.e.e.",
"o.o.o.p.q.o.o.o.o.o.o.o.o.r.s.t.o.o.o.u.u.v.w.o.o.o.",
"x.x.x.y.z.A.x.x.x.x.x.x.x.B.C.x.x.x.x.x.D.E.F.D.x.G.",
"H.I.H.J.K.I.H.I.L.H.H.H.H.M.N.O.I.H.P.H.H.Q.R.H.I.S.",
"T.T.T.U.V.T.T.T.T.T.T.T.T.W.X.Y.Z.T.`. +.+++@+T.T.T.",
"#+#+#+$+%+#+&+#+*+#+#+=+#+#+-+] ;+=+>+] ,+%+'+#+)+#+",
"!+!+!+~+{+]+^+^+^+/+^+!+(+_+:+<+] [+] }+|+1+2+3+3+^+",
"4+5+6+7+8+9+0+a+b+c+4+d+e+4+f+g+h+] i+j+k+l+4+d+d+d+",
"m+n+] o+p+q+] r+m+m+m+m+m+m+m+s+] t+] u+v+m+w+m+x+y+",
"z+z+A+] B+] C+z+z+z+z+z+z+z+A+] D+z+A+] C+z+z+z+z+z+",
"E+F+G+H+] I+F+J+E+G+G+G+J+K+L+M+K+G+N+O+P+Q+E+G+G+G+",
"R+R+S+] T+] U+V+W+X+R+R+V+W+Y+Y+R+R+R+R+Z+W+R+R+Z+W+",
"`+ @] .@+@@@] #@$@%@&@+@&@*@=@=@$@%@&@+@+@+@%@*@-@&@",
";@>@>@;@,@,@'@>@)@,@,@,@!@,@,@,@,@,@,@,@,@~@,@,@{@,@",
"]@^@]@^@^@/@^@]@(@(@]@_@^@]@^@^@]@^@:@(@]@^@_@]@^@(@"};
