/* XPM */
static char * flareDFK_xpm[] = {
"24 24 338 2",
"  	c #383838",
". 	c #393939",
"+ 	c #3C3D3E",
"@ 	c #3A4044",
"# 	c #343C41",
"$ 	c #34393C",
"% 	c #33383B",
"& 	c #34383B",
"* 	c #323A3E",
"= 	c #313A3F",
"- 	c #343A3D",
"; 	c #3B3B3C",
"> 	c #3B3B3B",
", 	c #3B3C3B",
"' 	c #3C3C3C",
") 	c #364E5F",
"! 	c #1E689D",
"~ 	c #146BA9",
"{ 	c #1065A0",
"] 	c #125B8F",
"^ 	c #125685",
"/ 	c #11517C",
"( 	c #0E456B",
"_ 	c #0C3553",
": 	c #0C3351",
"< 	c #0C3250",
"[ 	c #1B3146",
"} 	c #3C3D3D",
"| 	c #3B3C3C",
"1 	c #3C3C3B",
"2 	c #3C3B3C",
"3 	c #3F3F3E",
"4 	c #3F3F3F",
"5 	c #404345",
"6 	c #1E6191",
"7 	c #0B7DCF",
"8 	c #0D83D6",
"9 	c #0F84D6",
"0 	c #1285D4",
"a 	c #1383D2",
"b 	c #1382D0",
"c 	c #127AC3",
"d 	c #04406B",
"e 	c #003356",
"f 	c #092C4E",
"g 	c #3F4345",
"h 	c #3E3F3F",
"i 	c #444343",
"j 	c #444344",
"k 	c #434343",
"l 	c #434444",
"m 	c #455058",
"n 	c #0F71B7",
"o 	c #0D82D3",
"p 	c #0F83D6",
"q 	c #1187DA",
"r 	c #1188DC",
"s 	c #148BDF",
"t 	c #158CE1",
"u 	c #158BE0",
"v 	c #06497A",
"w 	c #013358",
"x 	c #013255",
"y 	c #052F51",
"z 	c #3B454B",
"A 	c #434443",
"B 	c #444443",
"C 	c #484848",
"D 	c #494848",
"E 	c #494849",
"F 	c #3F6078",
"G 	c #0A7ACA",
"H 	c #0E83D5",
"I 	c #1085DA",
"J 	c #1289DC",
"K 	c #1489DC",
"L 	c #138CE0",
"M 	c #085086",
"N 	c #02355B",
"O 	c #023155",
"P 	c #263E50",
"Q 	c #484949",
"R 	c #484849",
"S 	c #4E4E4D",
"T 	c #4E4D4E",
"U 	c #4E4E4E",
"V 	c #4F5152",
"W 	c #2B6E9C",
"X 	c #0A7ED0",
"Y 	c #0D82D4",
"Z 	c #1186D8",
"` 	c #1188DA",
" .	c #138ADC",
"..	c #0B5C96",
"+.	c #02375E",
"@.	c #013156",
"#.	c #10324F",
"$.	c #4F4F51",
"%.	c #4D4D4E",
"&.	c #4E4D4D",
"*.	c #4D4E4E",
"=.	c #545353",
"-.	c #545453",
";.	c #546774",
">.	c #1377BE",
",.	c #097FD2",
"'.	c #0C81D5",
").	c #1085D7",
"!.	c #1286DA",
"~.	c #0F6DAF",
"{.	c #033B63",
"].	c #003153",
"^.	c #062D4F",
"/.	c #4B565D",
"(.	c #545454",
"_.	c #535454",
":.	c #535354",
"<.	c #595A59",
"[.	c #5A5A5A",
"}.	c #5C5C5B",
"|.	c #4980A5",
"1.	c #057ACF",
"2.	c #0D7FD3",
"3.	c #1085D8",
"4.	c #1288DB",
"5.	c #117AC3",
"6.	c #043F67",
"7.	c #012E52",
"8.	c #334D5E",
"9.	c #5A5B5A",
"0.	c #5A595A",
"a.	c #59595A",
"b.	c #605F60",
"c.	c #606060",
"d.	c #626364",
"e.	c #3483BD",
"f.	c #037BD1",
"g.	c #0F82D3",
"h.	c #0E85D5",
"i.	c #0F85D8",
"j.	c #148ADD",
"k.	c #127ECB",
"l.	c #03406C",
"m.	c #013155",
"n.	c #1E4059",
"o.	c #606162",
"p.	c #5F5F60",
"q.	c #666667",
"r.	c #676666",
"s.	c #676B6F",
"t.	c #1C80C6",
"u.	c #067DD1",
"v.	c #0B80D2",
"w.	c #0D81D3",
"x.	c #1386D7",
"y.	c #044673",
"z.	c #003156",
"A.	c #103554",
"B.	c #63676A",
"C.	c #676667",
"D.	c #676767",
"E.	c #666766",
"F.	c #676766",
"G.	c #6D6E6E",
"H.	c #6E6D6E",
"I.	c #687881",
"J.	c #0E7DCB",
"K.	c #087DD0",
"L.	c #0B7ED1",
"M.	c #0C7FD1",
"N.	c #1084D7",
"O.	c #148CDE",
"P.	c #064C7F",
"Q.	c #003456",
"R.	c #052F52",
"S.	c #57656F",
"T.	c #6E6F6E",
"U.	c #6E6E6D",
"V.	c #6D6D6E",
"W.	c #6E6D6D",
"X.	c #747475",
"Y.	c #757574",
"Z.	c #5882A0",
"`.	c #067BCF",
" +	c #097ED0",
".+	c #0C80D1",
"++	c #095289",
"@+	c #01365A",
"#+	c #012F53",
"$+	c #2D4F66",
"%+	c #747676",
"&+	c #757474",
"*+	c #747474",
"=+	c #7B7B7B",
"-+	c #7C7C7C",
";+	c #4285B4",
">+	c #067BCE",
",+	c #0B80D1",
"'+	c #095C95",
")+	c #01385F",
"!+	c #003055",
"~+	c #0C3B5B",
"{+	c #747B80",
"]+	c #7B7B7C",
"^+	c #7C7C7B",
"/+	c #838283",
"(+	c #818486",
"_+	c #2882C1",
":+	c #0B7ECF",
"<+	c #128BDE",
"[+	c #0B64A3",
"}+	c #033054",
"|+	c #5D717E",
"1+	c #838282",
"2+	c #838383",
"3+	c #8A8989",
"4+	c #798C99",
"5+	c #137FCA",
"6+	c #097CCF",
"7+	c #0A7DCF",
"8+	c #0E71B7",
"9+	c #053558",
"0+	c #6A7C87",
"a+	c #8A898A",
"b+	c #898A89",
"c+	c #898989",
"d+	c #909190",
"e+	c #598EB2",
"f+	c #097BCE",
"g+	c #0F7BC5",
"h+	c #044471",
"i+	c #002D52",
"j+	c #1F4965",
"k+	c #8C9397",
"l+	c #909091",
"m+	c #979CA0",
"n+	c #3F89BD",
"o+	c #0A7DD1",
"p+	c #0E80CF",
"q+	c #044876",
"r+	c #00294F",
"s+	c #47667A",
"t+	c #9C9C9C",
"u+	c #979797",
"v+	c #949EA6",
"w+	c #3386BF",
"x+	c #0478CD",
"y+	c #087CCE",
"z+	c #0E81D3",
"A+	c #064E80",
"B+	c #053456",
"C+	c #7A8A93",
"D+	c #9D9E9E",
"E+	c #9E9D9E",
"F+	c #A2A5A6",
"G+	c #8AA2B2",
"H+	c #4D90BF",
"I+	c #167FCA",
"J+	c #057ACE",
"K+	c #0A7CCF",
"L+	c #1087DC",
"M+	c #07558B",
"N+	c #013558",
"O+	c #002A50",
"P+	c #27516C",
"Q+	c #A1A4A5",
"R+	c #A4A4A3",
"S+	c #A3A4A3",
"T+	c #A3A3A4",
"U+	c #A9A9A9",
"V+	c #AAABAA",
"W+	c #A7ABAD",
"X+	c #8CA5B6",
"Y+	c #5695C1",
"Z+	c #1C81CB",
"`+	c #047ACF",
" @	c #097DD0",
".@	c #0F88DD",
"+@	c #075B95",
"@@	c #00375C",
"#@	c #01284D",
"$@	c #5E7687",
"%@	c #ADADAC",
"&@	c #A9AAA9",
"*@	c #AAA9A9",
"=@	c #A9A9AA",
"-@	c #AFAEAF",
";@	c #AEAEAF",
">@	c #AFAFAF",
",@	c #ACB0B2",
"'@	c #8DA7BA",
")@	c #4D93C6",
"!@	c #1381CE",
"~@	c #057CD1",
"{@	c #0E87DC",
"]@	c #0965A5",
"^@	c #003962",
"/@	c #063153",
"(@	c #8A969E",
"_@	c #B3B4B4",
":@	c #B4B3B4",
"<@	c #B0B4B7",
"[@	c #86A9BF",
"}@	c #4392CA",
"|@	c #1983CE",
"1@	c #097FD3",
"2@	c #0A7FD2",
"3@	c #0B70B7",
"4@	c #013A68",
"5@	c #2C5169",
"6@	c #AAAFB0",
"7@	c #B4B4B4",
"8@	c #B4B3B3",
"9@	c #B3B4B3",
"0@	c #B4B4B3",
"a@	c #B8B8B8",
"b@	c #B8B9B8",
"c@	c #B5B8BA",
"d@	c #8FADC1",
"e@	c #4D95C9",
"f@	c #1D86D1",
"g@	c #0C80D2",
"h@	c #0A80D4",
"i@	c #0C83D8",
"j@	c #0C76C3",
"k@	c #013D6C",
"l@	c #627886",
"m@	c #BBBABA",
"n@	c #BCBCBC",
"o@	c #BCBBBC",
"p@	c #BCBCBB",
"q@	c #B9BCBE",
"r@	c #8CAEC5",
"s@	c #4094CE",
"t@	c #1884D1",
"u@	c #1084D5",
"v@	c #084D7C",
"w@	c #8B969D",
"          . + @ # $ % % & $ * = - .             ",
"; > , > ' ) ! ~ { ] ^ / ( _ : < [ } > | > > 1 2 ",
"3 4 4 4 5 6 7 8 9 0 a b c d e e f g 4 h 4 4 4 4 ",
"i j k l m n o p q r s t u v w x y z A A i B i i ",
"C D C E F G H 9 I I J K L M N x O P Q C E C R C ",
"S T U V W X Y 9 Z Z `  .t ..+.x @.#.$.%.&.S *.%.",
"=.-.-.;.>.,.'.8 ).Z !.K t ~.{.].x ^./.(._.-.-.:.",
"<.[.}.|.1.2.'.H p 3.q 4.s 5.6.].x 7.8.9.0.a.0.0.",
"b.c.d.e.f.2.2.g.h.i.I 4.j.k.l.].e m.n.o.c.p.c.c.",
"q.r.s.t.u.v.w.Y 8 9 I q  .x.y.x x z.A.B.C.D.E.F.",
"G.H.I.J.K.L.M.w.Y H N.Z J O.P.w x Q.R.S.T.U.V.W.",
"X.Y.Z.`. +.+.+w.Y 8 i.3.r t ++@+x z.#+$+%+Y.&+*+",
"=+-+;+>+L.,+,+2.Y H 9 3.Z L '+)+].w !+~+{+]+]+^+",
"/+(+_+u.:+L.,+,+w.Y H 3.3.<+[+{.].w z.}+|+/+1+2+",
"3+4+5+6+7+:+,+,+2.w.H 9 i.r 8+d ].w z.9+0+a+b+c+",
"d+e+f+6+ + + +,+v.w.Y 9 N.r g+h+].e i+j+k+l+l+l+",
"m+n+`.6+6+7+o+,+v.2.Y H 9 q p+q+].e r+s+t+u+u+u+",
"v+w+x+y+7+7+o+,+v.v.w.z+H i.9 A+x !+B+C+D+D+E+D+",
"F+G+H+I+J+K+o+L.M.,+w.o H p L+M+N+O+P+Q+R+R+S+T+",
"U+V+W+X+Y+Z+`+ @:+L.v.v.Y H .@+@@@#@$@%@&@*@=@U+",
"-@-@;@>@,@'@)@!@~@K.,+w.v.H {@]@^@/@(@>@>@>@-@>@",
"_@:@:@:@:@:@<@[@}@|@X 1@2@Y i.3@4@5@6@7@:@8@9@0@",
"a@a@a@a@a@b@a@a@c@d@e@f@g@h@i@j@k@l@m@a@a@a@a@a@",
"n@n@n@n@o@n@n@o@p@n@q@r@s@t@u@G v@w@n@n@o@n@p@n@"};
