/* XPM */
static char * greenDFK_xpm[] = {
"24 24 132 2",
"  	c #C4FFC4",
". 	c #BAFFBA",
"+ 	c #BDEEBD",
"@ 	c #C0DDC1",
"# 	c #C1DDC2",
"$ 	c #C0E6C0",
"% 	c #BBFBBB",
"& 	c #C2DDC2",
"* 	c #AEFFAE",
"= 	c #B0F5B0",
"- 	c #BFB5C0",
"; 	c #C5B1C6",
"> 	c #C7B1C8",
", 	c #B1F5B1",
"' 	c #B6D7B6",
") 	c #C2B1C3",
"! 	c #C6B1C7",
"~ 	c #BAD8BB",
"{ 	c #A2FFA2",
"] 	c #AED2AE",
"^ 	c #C1A6C3",
"/ 	c #C7A6C9",
"( 	c #BAC2BC",
"_ 	c #A4F4A4",
": 	c #B7AAB8",
"< 	c #C1A6C2",
"[ 	c #C4ABC5",
"} 	c #A4FAA4",
"| 	c #95FF95",
"1 	c #97F897",
"2 	c #B79FB9",
"3 	c #C29AC4",
"4 	c #C49BC6",
"5 	c #9FE69F",
"6 	c #A3BEA4",
"7 	c #B599B7",
"8 	c #BF9AC1",
"9 	c #A6D9A7",
"0 	c #89FF89",
"a 	c #96D497",
"b 	c #B98FBB",
"c 	c #BF90C2",
"d 	c #AFABB1",
"e 	c #8CF18C",
"f 	c #A78DA9",
"g 	c #B48FB6",
"h 	c #B69DB9",
"i 	c #7BFF7B",
"j 	c #A390A5",
"k 	c #B582B8",
"l 	c #B782BA",
"m 	c #87DF88",
"n 	c #8FA68F",
"o 	c #A480A6",
"p 	c #B182B4",
"q 	c #8AE08B",
"r 	c #6EFF6E",
"s 	c #7BD37C",
"t 	c #A775AA",
"u 	c #B076B3",
"v 	c #A18FA3",
"w 	c #75DC75",
"x 	c #957396",
"y 	c #A475A7",
"z 	c #9E98A1",
"A 	c #60FF60",
"B 	c #888C8A",
"C 	c #A569A8",
"D 	c #A869AB",
"E 	c #77C678",
"F 	c #7B8A7D",
"G 	c #936696",
"H 	c #A268A5",
"I 	c #69EC69",
"J 	c #52FF52",
"K 	c #5ED55E",
"L 	c #945A98",
"M 	c #A05BA4",
"N 	c #946F97",
"O 	c #845887",
"P 	c #945A97",
"Q 	c #7DA37F",
"R 	c #46FF46",
"S 	c #6B8F6D",
"T 	c #944F98",
"U 	c #99509E",
"V 	c #63BD64",
"W 	c #787A7A",
"X 	c #8B4F8F",
"Y 	c #8F5A93",
"Z 	c #4BF44B",
"` 	c #39FF39",
" .	c #3FE740",
"..	c #824286",
"+.	c #924495",
"@.	c #8F5093",
"#.	c #914495",
"$.	c #60AD61",
"%.	c #2DFF2D",
"&.	c #528D54",
"*.	c #833888",
"=.	c #923997",
"-.	c #963A9B",
";.	c #88518C",
">.	c #21FF21",
",.	c #24F224",
"'.	c #6E3870",
").	c #892E8E",
"!.	c #932F98",
"~.	c #3CCB3E",
"{.	c #17FF17",
"].	c #4E584F",
"^.	c #7C2481",
"/.	c #8A268F",
"(.	c #0EFF0E",
"_.	c #405043",
":.	c #711A76",
"<.	c #7E1C84",
"[.	c #06FF06",
"}.	c #38493A",
"|.	c #69136E",
"1.	c #77147D",
"2.	c #00FF00",
"3.	c #324535",
"4.	c #640C69",
"5.	c #730E79",
"6.	c #304532",
"7.	c #5F0C64",
"8.	c #6D0D72",
"9.	c #0BD00B",
"0.	c #15C216",
"a.	c #17C219",
"                                                ",
". . . + @ # $ . . . . . . . . . % @ # & . . . . ",
"* * * = - ; > , * * * * * * * * ' ) ! ~ * * * * ",
"{ { { { ] ^ / ( { { { { { { { _ : < [ } { { { { ",
"| | | | 1 2 3 4 5 | | | | | | 6 7 8 9 | | | | | ",
"0 0 0 0 0 a b c d 0 0 0 0 0 e f g h 0 0 0 0 0 0 ",
"i i i i i i j k l m i i i i n o p q i i i i i i ",
"r r r r r r s t u v r r r w x y z r r r r r r r ",
"A A A A A A A B C D E A A F G H I A A A A A A A ",
"J J J J J J J K L M N J K O P Q J J J J J J J J ",
"R R R R R R R R S T U V W X Y Z R R R R R R R R ",
"` ` ` ` ` ` ` `  ...+.@.#.+.$.` ` ` ` ` ` ` ` ` ",
"%.%.%.%.%.%.%.%.%.&.*.=.-.;.%.%.%.%.%.%.%.%.%.%.",
">.>.>.>.>.>.>.>.>.,.'.).!.~.>.>.>.>.>.>.>.>.>.>.",
"{.{.{.{.{.{.{.{.{.{.].^./.{.{.{.{.{.{.{.{.{.{.{.",
"(.(.(.(.(.(.(.(.(.(._.:.<.(.(.(.(.(.(.(.(.(.(.(.",
"[.[.[.[.[.[.[.[.[.[.}.|.1.[.[.[.[.[.[.[.[.[.[.[.",
"2.2.2.2.2.2.2.2.2.2.3.4.5.2.2.2.2.2.2.2.2.2.2.2.",
"2.2.2.2.2.2.2.2.2.2.3.4.5.2.2.2.2.2.2.2.2.2.2.2.",
"2.2.2.2.2.2.2.2.2.2.3.4.5.2.2.2.2.2.2.2.2.2.2.2.",
"2.2.2.2.2.2.2.2.2.2.3.4.5.2.2.2.2.2.2.2.2.2.2.2.",
"2.2.2.2.2.2.2.2.2.2.3.4.5.2.2.2.2.2.2.2.2.2.2.2.",
"2.2.2.2.2.2.2.2.2.2.6.7.8.2.2.2.2.2.2.2.2.2.2.2.",
"2.2.2.2.2.2.2.2.2.2.9.0.a.2.2.2.2.2.2.2.2.2.2.2."};
