/* XPM */
static char * infoDFK_xpm[] = {
"24 24 353 2",
"  	c #383838",
". 	c #3D3C3C",
"+ 	c #876666",
"@ 	c #C38989",
"# 	c #B39F9A",
"$ 	c #777C89",
"% 	c #74819F",
"& 	c #707EA3",
"* 	c #6B779A",
"= 	c #717EA1",
"- 	c #75819D",
"; 	c #626872",
"> 	c #3F4040",
", 	c #3B3B3B",
"' 	c #3C3B3B",
") 	c #504D4C",
"! 	c #685E54",
"~ 	c #62755C",
"{ 	c #6F7F6B",
"] 	c #3B3C3B",
"^ 	c #B5B8B8",
"/ 	c #AEB3B9",
"( 	c #A2A9B7",
"_ 	c #9BA4B6",
": 	c #7B85A4",
"< 	c #5B688D",
"[ 	c #5F6880",
"} 	c #5C6172",
"| 	c #596274",
"1 	c #5F656E",
"2 	c #5E6063",
"3 	c #3F3F3F",
"4 	c #5D635C",
"5 	c #265336",
"6 	c #28633E",
"7 	c #2E6042",
"8 	c #6E716C",
"9 	c #3E3F3F",
"0 	c #8C8D8A",
"a 	c #C6C9C9",
"b 	c #C6C9C7",
"c 	c #C2C5C4",
"d 	c #BEC0C0",
"e 	c #BABCBD",
"f 	c #AFB4BA",
"g 	c #969AA9",
"h 	c #8B93A8",
"i 	c #A0A8BB",
"j 	c #888FA3",
"k 	c #687291",
"l 	c #7F889C",
"m 	c #6F737D",
"n 	c #434443",
"o 	c #434444",
"p 	c #585D57",
"q 	c #224931",
"r 	c #1F5435",
"s 	c #245837",
"t 	c #6B796C",
"u 	c #444444",
"v 	c #A8AAA9",
"w 	c #BFC1BF",
"x 	c #BBBDBB",
"y 	c #BABABA",
"z 	c #BABBB9",
"A 	c #BEBFBD",
"B 	c #BBBDBE",
"C 	c #B9BCBD",
"D 	c #BDC0C3",
"E 	c #969EAC",
"F 	c #949AAD",
"G 	c #B9B8BA",
"H 	c #484848",
"I 	c #494848",
"J 	c #484948",
"K 	c #555653",
"L 	c #294433",
"M 	c #204D2F",
"N 	c #295734",
"O 	c #5A705E",
"P 	c #BEBEBB",
"Q 	c #BABBBA",
"R 	c #B8B8B8",
"S 	c #B3B5B3",
"T 	c #B2B3B2",
"U 	c #B3B3B4",
"V 	c #B3B5B4",
"W 	c #B6B7B5",
"X 	c #B6B8B7",
"Y 	c #BBBCB9",
"Z 	c #C0C1BF",
"` 	c #C5C7C6",
" .	c #C7C9C8",
"..	c #B1AFAA",
"+.	c #4E4E4E",
"@.	c #4D4E4D",
"#.	c #4F4F4F",
"$.	c #565D4D",
"%.	c #848E56",
"&.	c #ACB36A",
"*.	c #AFB183",
"=.	c #C3C4C1",
"-.	c #AFB2B0",
";.	c #AEAFAF",
">.	c #AFB1B0",
",.	c #B4B4B2",
"'.	c #B6B6B6",
").	c #B9BBBA",
"!.	c #ACADAD",
"~.	c #A8A6A1",
"{.	c #545353",
"].	c #535454",
"^.	c #535353",
"/.	c #545354",
"(.	c #545453",
"_.	c #93937A",
":.	c #A8A864",
"<.	c #C5C574",
"[.	c #C2C386",
"}.	c #B9BBB8",
"|.	c #A8ABA9",
"1.	c #A7AAA9",
"2.	c #AAAAA9",
"3.	c #ABADAB",
"4.	c #B9BCBB",
"5.	c #949391",
"6.	c #9E9A96",
"7.	c #5A5A59",
"8.	c #5A5959",
"9.	c #5A595A",
"0.	c #828077",
"a.	c #9B9B63",
"b.	c #C0C073",
"c.	c #C3C37B",
"d.	c #B2B1AA",
"e.	c #A6A8A7",
"f.	c #A4A4A3",
"g.	c #A2A4A4",
"h.	c #A4A6A5",
"i.	c #ABABAB",
"j.	c #ADAEAD",
"k.	c #B1B3B1",
"l.	c #B5B7B4",
"m.	c #B8B8B7",
"n.	c #908E8B",
"o.	c #606060",
"p.	c #686867",
"q.	c #8E8E65",
"r.	c #BBBC71",
"s.	c #C7C879",
"t.	c #ABAB9C",
"u.	c #A2A2A1",
"v.	c #9D9FA0",
"w.	c #A0A0A0",
"x.	c #A1A3A3",
"y.	c #A5A7A7",
"z.	c #ABADAC",
"A.	c #ADAFAE",
"B.	c #B1B3B2",
"C.	c #919290",
"D.	c #94918D",
"E.	c #676767",
"F.	c #666766",
"G.	c #666666",
"H.	c #676667",
"I.	c #9E9F6D",
"J.	c #B9BA6D",
"K.	c #CBCA77",
"L.	c #ACAB91",
"M.	c #9A9D9B",
"N.	c #9A9D9C",
"O.	c #9C9D9D",
"P.	c #A7A9A8",
"Q.	c #B1B1B1",
"R.	c #ACADAB",
"S.	c #90918C",
"T.	c #666767",
"U.	c #6E6E6D",
"V.	c #6E6E6E",
"W.	c #6E6D6E",
"X.	c #6D6E6E",
"Y.	c #ABAA79",
"Z.	c #B3B36A",
"`.	c #B2B27E",
" +	c #969797",
".+	c #9B9B9B",
"++	c #9D9F9F",
"@+	c #A3A4A2",
"#+	c #A5A8A6",
"$+	c #B1B4B2",
"%+	c #989A99",
"&+	c #A19F9A",
"*+	c #6D6E6D",
"=+	c #747474",
"-+	c #747574",
";+	c #747475",
">+	c #757474",
",+	c #9E9D82",
"'+	c #ADAD69",
")+	c #C8CA76",
"!+	c #B7B97B",
"~+	c #929491",
"{+	c #919393",
"]+	c #A0A2A1",
"^+	c #B5B5B5",
"/+	c #B0B1AF",
"(+	c #858482",
"_+	c #8C8B88",
":+	c #757575",
"<+	c #7C7B7B",
"[+	c #7C7B7C",
"}+	c #7C7C7B",
"|+	c #7B7B7C",
"1+	c #7B7C7C",
"2+	c #878682",
"3+	c #A5A56A",
"4+	c #C5C674",
"5+	c #BDBD73",
"6+	c #91928B",
"7+	c #8E8F8E",
"8+	c #949595",
"9+	c #999B9A",
"0+	c #9FA1A0",
"a+	c #B3B6B5",
"b+	c #9A9A9A",
"c+	c #918F8D",
"d+	c #838383",
"e+	c #838382",
"f+	c #828283",
"g+	c #828383",
"h+	c #8B8A88",
"i+	c #A4A468",
"j+	c #BCBD6E",
"k+	c #C5C776",
"l+	c #959786",
"m+	c #8D8D8D",
"n+	c #989998",
"o+	c #888787",
"p+	c #979693",
"q+	c #838283",
"r+	c #828282",
"s+	c #8A8A8A",
"t+	c #8A8989",
"u+	c #8A8A89",
"v+	c #909190",
"w+	c #A4A46D",
"x+	c #B7B66C",
"y+	c #C6C774",
"z+	c #9D9E80",
"A+	c #8B8D8B",
"B+	c #8F908F",
"C+	c #959895",
"D+	c #9EA09F",
"E+	c #A8A8A8",
"F+	c #AFB1AF",
"G+	c #908F8C",
"H+	c #89898A",
"I+	c #919091",
"J+	c #909090",
"K+	c #909191",
"L+	c #909091",
"M+	c #939392",
"N+	c #9A9B6D",
"O+	c #B2B267",
"P+	c #ABAC78",
"Q+	c #898B89",
"R+	c #8D8F8F",
"S+	c #959696",
"T+	c #9E9F9E",
"U+	c #848683",
"V+	c #979796",
"W+	c #979797",
"X+	c #8F8F71",
"Y+	c #AEAE65",
"Z+	c #B5B577",
"`+	c #8A8A86",
" @	c #939290",
".@	c #9E9D9E",
"+@	c #9D9D9E",
"@@	c #9D9E9E",
"#@	c #9E9D9D",
"$@	c #9E9E9F",
"%@	c #A2A197",
"&@	c #A8A967",
"*@	c #C1C271",
"=@	c #BABC72",
"-@	c #8C8B83",
";@	c #8F8F90",
">@	c #878785",
",@	c #A2A3A1",
"'@	c #9E9E9E",
")@	c #A3A4A4",
"!@	c #A3A3A4",
"~@	c #A4A3A4",
"{@	c #A6A5A4",
"]@	c #A6A679",
"^@	c #B9BA6E",
"/@	c #C2C271",
"(@	c #91917E",
"_@	c #BFC0BF",
":@	c #D6D7D6",
"<@	c #A4A4A4",
"[@	c #AAA9A9",
"}@	c #A9A9AA",
"|@	c #A9AAAA",
"1@	c #A9AAA9",
"2@	c #AAAAAA",
"3@	c #A9A993",
"4@	c #B2B26A",
"5@	c #C0C171",
"6@	c #89896C",
"7@	c #939492",
"8@	c #E8EAE9",
"9@	c #D4D5CF",
"0@	c #8C8E8C",
"a@	c #ABAAA8",
"b@	c #A9A9A9",
"c@	c #AFAEAF",
"d@	c #AFAEAE",
"e@	c #AFAFAF",
"f@	c #AFAFAE",
"g@	c #ABAB98",
"h@	c #A6A663",
"i@	c #B4B569",
"j@	c #B2B08A",
"k@	c #B5B2AD",
"l@	c #BABAB9",
"m@	c #949493",
"n@	c #8A8B8A",
"o@	c #989895",
"p@	c #B4B4B4",
"q@	c #B4B3B4",
"r@	c #B3B4B4",
"s@	c #B4B4B3",
"t@	c #B1B0A6",
"u@	c #77734F",
"v@	c #6B633F",
"w@	c #AAA69A",
"x@	c #B6B6B5",
"y@	c #B0AFAE",
"z@	c #B4B3B3",
"A@	c #787066",
"B@	c #504032",
"C@	c #B3AFA9",
"D@	c #B8B8B9",
"E@	c #BCBCBC",
"F@	c #BBBCBC",
"G@	c #BCBBBC",
"H@	c #B2ABA3",
"I@	c #544539",
"J@	c #BCB7B0",
"K@	c #BCBBBB",
"L@	c #BCBCBB",
"        . + @ #       $ % & * = - ; >           ",
", , , ' ) ! ~ { , ] ' ^ / ( _ _ : < [ } | 1 2 , ",
"3 3 3 3 4 5 6 7 8 9 0 a b c d e f g h i j k l m ",
"n o n n p q r s t u v w x y z x A d B C D E F G ",
"H I H J K L M N O P Q R S T U V W X Y Z `  .X ..",
"+.+.@.@.#.$.%.&.*.=.X -.;.;.;.>.-.,.'.).A d !.~.",
"{.].^./.(._.:.<.[.}.;.|.1.2.3.!.;.-.U X 4.X 5.6.",
"7.8.7.8.9.0.a.b.c.d.e.f.g.h.|.i.j.;.k.l.m.e.n.9.",
"o.o.o.o.o.p.q.r.s.t.u.v.w.x.y.1.z.A.B.V ,.C.D.o.",
"E.F.F.G.E.H.I.J.K.L.M.N.O.w.h.P.z.A.Q.S R.S.T.G.",
"U.V.W.X.X.W.Y.Z.K.`. + +.+++@+#+i.;.S $+%+&+*+U.",
"=+-+;+=+=+>+,+'+)+!+~+{+ +N.]+y.i.-.^+/+(+_+:+=+",
"<+[+}+|+1+|+2+3+4+5+6+7+8+9+0+e.!.$+a+b+c+[+[+1+",
"d+e+e+d+f+g+h+i+j+k+l+m+{+n+w.e.!.,./+o+p+d+q+r+",
"s+t+t+u+s+u+v+w+x+y+z+A+B+C+D+E+F+S n+G+t+u+H+s+",
"I+J+K+J+v+L+M+N+O+y+P+Q+R+S+T+1.$+B.U+V+L+L+K+K+",
"W+W+W+W+W+W+V+X+Y+y+Z+`+7+ +]+!.R @+ @W+W+W+W+W+",
".@.@+@@@#@+@$@%@&@*@=@-@;@n+h.X }.>@,@'@+@@@#@+@",
")@)@!@~@!@)@!@{@]@^@/@(@{+@+_@:@a+ @<@<@<@f.f.!@",
"[@2.}@|@}@|@1@2@3@4@5@6@7@` 8@9@0@a@}@|@}@2.b@[@",
"c@d@e@c@e@c@f@;.g@h@i@j@k@l@m@n@o@c@e@e@c@e@f@f@",
"U p@q@q@r@s@s@r@t@u@v@w@U x@y@d@p@p@s@s@p@s@z@p@",
"R R R R R R R R R A@B@C@R R D@R R R R R R R R R ",
"E@E@F@E@F@G@G@E@G@H@I@J@F@E@K@L@F@E@L@E@E@E@E@E@"};
