/* XPM */
static char * kTOcDFK_xpm[] = {
"26 26 302 2",
"  	c #383838",
". 	c #484848",
"+ 	c #ADADAD",
"@ 	c #D8D8D8",
"# 	c #BDBDBD",
"$ 	c #DCDCDC",
"% 	c #565656",
"& 	c #3B3B3B",
"* 	c #3B3A3B",
"= 	c #3A3B3B",
"- 	c #3B3B3A",
"; 	c #AAAAAA",
"> 	c #999999",
", 	c #434343",
"' 	c #7D7D7D",
") 	c #6F6F6F",
"! 	c #BABABA",
"~ 	c #ACACAC",
"{ 	c #3A3B3A",
"] 	c #3E3F3E",
"^ 	c #3E3E3E",
"/ 	c #3E3E3F",
"( 	c #3F3E3E",
"_ 	c #3E3F3F",
": 	c #505050",
"< 	c #EBEBEB",
"[ 	c #343434",
"} 	c #DDDDDD",
"| 	c #D6D6D6",
"1 	c #E4E4E4",
"2 	c #818181",
"3 	c #696969",
"4 	c #424242",
"5 	c #434242",
"6 	c #424342",
"7 	c #424243",
"8 	c #737373",
"9 	c #C8C8C8",
"0 	c #454545",
"a 	c #444444",
"b 	c #858585",
"c 	c #D2D2D2",
"d 	c #828282",
"e 	c #464646",
"f 	c #474746",
"g 	c #464747",
"h 	c #464746",
"i 	c #E6E6E6",
"j 	c #303030",
"k 	c #FFFFFF",
"l 	c #B7B7B7",
"m 	c #6C6C6C",
"n 	c #ECECEC",
"o 	c #5E5E5E",
"p 	c #474646",
"q 	c #474747",
"r 	c #4C4B4B",
"s 	c #4B4B4B",
"t 	c #4B4C4C",
"u 	c #633B3B",
"v 	c #574343",
"w 	c #AFAFAF",
"x 	c #DADADA",
"y 	c #353535",
"z 	c #404040",
"A 	c #363636",
"B 	c #BCBCBC",
"C 	c #B1B1B1",
"D 	c #4B4B4C",
"E 	c #515050",
"F 	c #505051",
"G 	c #604444",
"H 	c #AC0C0C",
"I 	c #B11717",
"J 	c #B59191",
"K 	c #D1D1D1",
"L 	c #F5F5F5",
"M 	c #FAFAFA",
"N 	c #515150",
"O 	c #505150",
"P 	c #555656",
"Q 	c #555556",
"R 	c #5C4F4F",
"S 	c #AC1A1A",
"T 	c #B00606",
"U 	c #AC0808",
"V 	c #874B4B",
"W 	c #F1F1F1",
"X 	c #A6A5A6",
"Y 	c #615959",
"Z 	c #777877",
"` 	c #5A5A59",
" .	c #555655",
"..	c #565556",
"+.	c #555555",
"@.	c #565555",
"#.	c #5B5B5B",
"$.	c #5B5B5C",
"%.	c #5C5B5B",
"&.	c #AF5554",
"*.	c #9F4545",
"=.	c #5D5A59",
"-.	c #9A1C1C",
";.	c #665151",
">.	c #5B5C5B",
",.	c #616162",
"'.	c #626161",
").	c #616161",
"!.	c #636364",
"~.	c #D0CECE",
"{.	c #862424",
"].	c #A61212",
"^.	c #743843",
"/.	c #4C4C65",
"(.	c #545464",
"_.	c #686768",
":.	c #676767",
"<.	c #686767",
"[.	c #898989",
"}.	c #4D4D4D",
"|.	c #7E7E7E",
"1.	c #D58D8D",
"2.	c #B00808",
"3.	c #7A1631",
"4.	c #40406C",
"5.	c #31306E",
"6.	c #212170",
"7.	c #44446B",
"8.	c #666667",
"9.	c #6E6D6E",
"0.	c #6D6E6D",
"a.	c #A7A7A7",
"b.	c #F8F8F8",
"c.	c #7F7F7F",
"d.	c #D7D8D7",
"e.	c #9C9B9C",
"f.	c #7E5454",
"g.	c #AB0D0D",
"h.	c #A31919",
"i.	c #6D6D6D",
"j.	c #68676D",
"k.	c #3C3B70",
"l.	c #272771",
"m.	c #61616E",
"n.	c #6E6D6D",
"o.	c #6D6D6E",
"p.	c #747473",
"q.	c #969696",
"r.	c #E3E3E3",
"s.	c #D7D7D7",
"t.	c #C4C4C4",
"u.	c #7C7C7C",
"v.	c #747374",
"w.	c #865051",
"x.	c #AF0707",
"y.	c #776E6D",
"z.	c #747373",
"A.	c #5D5D73",
"B.	c #212172",
"C.	c #5F5F74",
"D.	c #747474",
"E.	c #7A7A7A",
"F.	c #2C2C2C",
"G.	c #FBFBFB",
"H.	c #7E7070",
"I.	c #A81616",
"J.	c #895959",
"K.	c #6D6D79",
"L.	c #232374",
"M.	c #626278",
"N.	c #808180",
"O.	c #B0B0B0",
"P.	c #9E9E9E",
"Q.	c #4C4C4C",
"R.	c #717171",
"S.	c #EDEDED",
"T.	c #8F8F90",
"U.	c #857575",
"V.	c #8A6868",
"W.	c #462460",
"X.	c #84404E",
"Y.	c #944F4F",
"Z.	c #934F50",
"`.	c #886B6A",
" +	c #808080",
".+	c #818081",
"++	c #808081",
"@+	c #74757F",
"#+	c #222274",
"$+	c #6C6B7D",
"%+	c #808181",
"&+	c #868686",
"*+	c #414141",
"=+	c #E1E1E1",
"-+	c #C5C5C5",
";+	c #BEBEBE",
">+	c #868687",
",+	c #868786",
"'+	c #626280",
")+	c #2E2E77",
"!+	c #878687",
"~+	c #868787",
"{+	c #878786",
"]+	c #878686",
"^+	c #757483",
"/+	c #232375",
"(+	c #797985",
"_+	c #8C8D8D",
":+	c #B9B9B9",
"<+	c #A8A8A8",
"[+	c #F2F2F2",
"}+	c #B3B3B3",
"|+	c #8D8D8D",
"1+	c #8D8D8C",
"2+	c #8C8D8C",
"3+	c #4A4A7F",
"4+	c #40407C",
"5+	c #8C8C8D",
"6+	c #8D8C8D",
"7+	c #727287",
"8+	c #636384",
"9+	c #939393",
"0+	c #DFDFDF",
"a+	c #939293",
"b+	c #929393",
"c+	c #939292",
"d+	c #565683",
"e+	c #30307A",
"f+	c #878690",
"g+	c #999899",
"h+	c #BBBBBB",
"i+	c #989999",
"j+	c #999998",
"k+	c #989998",
"l+	c #72728E",
"m+	c #242478",
"n+	c #7C7C90",
"o+	c #989899",
"p+	c #999898",
"q+	c #9F9E9E",
"r+	c #9F9F9F",
"s+	c #9E9E9F",
"t+	c #575888",
"u+	c #91919B",
"v+	c #9F9E9F",
"w+	c #9E9F9F",
"x+	c #8A8A98",
"y+	c #28287A",
"z+	c #767692",
"A+	c #9F9F9E",
"B+	c #A4A4A4",
"C+	c #A4A4A3",
"D+	c #A4A3A4",
"E+	c #A3A4A4",
"F+	c #A4A3A3",
"G+	c #86869A",
"H+	c #34347E",
"I+	c #9F9FA2",
"J+	c #A3A4A3",
"K+	c #91919E",
"L+	c #212178",
"M+	c #9999A0",
"N+	c #A9A9A9",
"O+	c #A9A9A8",
"P+	c #7A7A98",
"Q+	c #404083",
"R+	c #A5A5A8",
"S+	c #444485",
"T+	c #7F7F9A",
"U+	c #ADADAE",
"V+	c #AEAEAE",
"W+	c #AEAEAD",
"X+	c #ADAEAD",
"Y+	c #AEADAE",
"Z+	c #ADAEAE",
"`+	c #737398",
" @	c #363681",
".@	c #9F9FA7",
"+@	c #3A3A82",
"@@	c #9D9DA8",
"#@	c #AEADAD",
"$@	c #B2B2B2",
"%@	c #8A8AA2",
"&@	c #2F307F",
"*@	c #7C7C9D",
"=@	c #B2B2B1",
"-@	c #B1B2B2",
";@	c #5C5C90",
">@	c #595A8F",
",@	c #B6B6B6",
"'@	c #B5B6B6",
")@	c #B6B5B6",
"!@	c #B6B6B5",
"~@	c #A6A6B0",
"{@	c #56568F",
"]@	c #303080",
"^@	c #2C2C7E",
"/@	c #656595",
"(@	c #B4B4B5",
"_@	c #BAB9B9",
":@	c #B9BAB9",
"<@	c #B9B9BA",
"                        . + @ # $ + %               ",
"& * * & & & = & & - & - ; > , ' ) ! ~ & { - & & & & ",
"] ] ^ / ] ] ( ^ ^ ^ _ : < [ } | 1 2 1 3 ^ ( ] ^ ^ ] ",
"4 5 4 4 4 4 4 6 4 7 4 8 9 0 < a < b c d 4 4 4 4 4 4 ",
"e e f g e e h e e g h > i j ~ k l m n o p q e p e g ",
"r s s s s s s t u v w x s y z A z B C s s s s s D s ",
": : : : E : F G H I J   q K L | M C : E N : F : O E ",
"P P Q P % P R S T T U V W X Y Z `  .......+.@.P  . .",
"#.$.$.$.%.#.&.T T T T T *.=.-.;.$.#.#.>.#.%.#.#.#.>.",
",.'.'.).!.! ~.{.T T T T T ].T ^./.(.).,.).).).).).).",
"_.:.<.[.9 ~ }.|.1.2.T T T T T 3.4.5.6.7.8.:.:.<.:.:.",
"9.0.a.b.c.s C d.e.f.g.T T T T h.i.i.j.k.l.m.n.o.n.i.",
"p.q.r.+.}.s.t.u.p.v.w.T T T T x.y.8 p.z.A.B.C.D.D.D.",
"E.c i.F.e l G.l E.H.I.T T T T T J.E.E.E.E.K.L.M.E.E.",
"N.+ O.q P.Q.R.S.T.U.V.V.W.X.Y.Z.`. +N..+.+++@+#+$+%+",
"&+C w *+W =+-+;+>+,+&+>+'+)+!+,+~+{+&+~+]+,+,+^+/+(+",
"_+:+<+4 [+P.}+|+1+2+|+|+|+3+4+5+|+|+1+|+|+|+6+_+7+8+",
"9+l l 3 0+9+a+b+9+9+9+c+b+9+d+e+f+a+9+b+9+9+b+9+9+9+",
"> g+h+=+l i+> j+k+> > > j+k+> l+m+n+> i+i+> o+p+> > ",
"q+q+P.r+r+q+q+r+s+t+u+q+P.v+s+w+x+y+z+A+w+v+w+s+P.r+",
"B+B+C+D+B+E+D+D+F+G+H+I+F+B+J+D+B+K+L+M+B+B+B+B+C+B+",
"N+O+N+N+N+N+N+N+N+N+P+Q+R+N+N+N+N+N+S+T+O+N+N+O+N+O+",
"U+V+V+W+V+X+W+X+Y+V+Z+`+ @.@Z+Y+V+Z++@@@Y+Y+#@Y+W+X+",
"$@$@$@$@$@$@$@$@$@$@$@$@%@&@*@=@-@;@>@$@=@$@$@$@-@$@",
",@,@'@,@,@,@'@,@,@,@)@,@!@~@{@]@^@/@(@'@,@!@,@,@,@!@",
"_@:@:@<@:+:+<@_@:+:+:+_@_@:@<@:+:+:+:+<@_@:+:+:+:+:@"};
