/* XPM */
static char * latDFK_xpm[] = {
"24 24 349 2",
"  	c #383838",
". 	c #3B3B3B",
"+ 	c #3B3B3C",
"@ 	c #3C3B3B",
"# 	c #3C3C3D",
"$ 	c #414449",
"% 	c #3B3C3B",
"& 	c #3C3C3C",
"* 	c #3F3F3F",
"= 	c #3E3F3F",
"- 	c #45474C",
"; 	c #525D6C",
"> 	c #5B708B",
", 	c #6080A9",
"' 	c #628FC6",
") 	c #639CE0",
"! 	c #609ADF",
"~ 	c #5E99DE",
"{ 	c #6AA0E3",
"] 	c #73A5E6",
"^ 	c #749ACE",
"/ 	c #7B9CCB",
"( 	c #86A3CF",
"_ 	c #91A9D3",
": 	c #9AAFD6",
"< 	c #727C90",
"[ 	c #52555C",
"} 	c #7B88A1",
"| 	c #869CC0",
"1 	c #8AABDD",
"2 	c #7EA7E0",
"3 	c #688CBC",
"4 	c #56759A",
"5 	c #4C627B",
"6 	c #45515E",
"7 	c #466280",
"8 	c #466D99",
"9 	c #434344",
"0 	c #444343",
"a 	c #434443",
"b 	c #4A5561",
"c 	c #4D5864",
"d 	c #515A67",
"e 	c #7B95BD",
"f 	c #A1C0F3",
"g 	c #A4BBE6",
"h 	c #7C88A0",
"i 	c #9CB8E7",
"j 	c #91B5EC",
"k 	c #7CA4DC",
"l 	c #5E7CA1",
"m 	c #50647B",
"n 	c #495159",
"o 	c #494948",
"p 	c #484848",
"q 	c #416080",
"r 	c #3C6997",
"s 	c #494848",
"t 	c #484849",
"u 	c #4B525C",
"v 	c #668FC2",
"w 	c #7292BF",
"x 	c #626F82",
"y 	c #8FA7CF",
"z 	c #484948",
"A 	c #717C90",
"B 	c #7B91B3",
"C 	c #4E4E4E",
"D 	c #55616F",
"E 	c #546F90",
"F 	c #4C79AC",
"G 	c #4081C6",
"H 	c #377AC0",
"I 	c #396CA1",
"J 	c #386DA5",
"K 	c #3A6B9E",
"L 	c #4D4D4D",
"M 	c #4E4D4E",
"N 	c #48627F",
"O 	c #4B89CE",
"P 	c #4D4E4D",
"Q 	c #617086",
"R 	c #7E95B9",
"S 	c #4E4E4D",
"T 	c #4E4D4D",
"U 	c #68717F",
"V 	c #7C9AC6",
"W 	c #545353",
"X 	c #535453",
"Y 	c #535353",
"Z 	c #535354",
"` 	c #4E5965",
" .	c #46627F",
"..	c #3772B1",
"+.	c #2E7CCC",
"@.	c #307AC6",
"#.	c #3970AB",
"$.	c #41678E",
"%.	c #495E73",
"&.	c #3B6FA5",
"*.	c #3677BB",
"=.	c #4F5C6A",
"-.	c #637B98",
";.	c #7186A6",
">.	c #535454",
",.	c #626970",
"'.	c #79A0D6",
").	c #5A5A5A",
"!.	c #5A5A59",
"~.	c #5A5959",
"{.	c #595A59",
"].	c #486889",
"^.	c #3D70A4",
"/.	c #555C63",
"(.	c #4B647E",
"_.	c #406E9E",
":.	c #2E7CCD",
"<.	c #585A5E",
"[.	c #595A5A",
"}.	c #6182A9",
"|.	c #697B95",
"1.	c #595959",
"2.	c #616263",
"3.	c #73A3E3",
"4.	c #606060",
"5.	c #4E6A86",
"6.	c #4072A7",
"7.	c #5A636D",
"8.	c #3479C0",
"9.	c #5C87B8",
"0.	c #667487",
"a.	c #676766",
"b.	c #6A9BD7",
"c.	c #656B72",
"d.	c #676667",
"e.	c #666667",
"f.	c #666767",
"g.	c #536E8B",
"h.	c #4275A9",
"i.	c #676767",
"j.	c #606972",
"k.	c #3579C1",
"l.	c #676666",
"m.	c #5589C6",
"n.	c #67717C",
"o.	c #6D6E6D",
"p.	c #6592C8",
"q.	c #667584",
"r.	c #6E6D6E",
"s.	c #6D6E6E",
"t.	c #6D6D6D",
"u.	c #6D6D6E",
"v.	c #57738F",
"w.	c #4577AB",
"x.	c #6E6D6D",
"y.	c #667079",
"z.	c #357AC2",
"A.	c #6E6E6D",
"B.	c #4D8BD2",
"C.	c #6D7075",
"D.	c #747475",
"E.	c #678EBC",
"F.	c #657C94",
"G.	c #757575",
"H.	c #757474",
"I.	c #757574",
"J.	c #5E7790",
"K.	c #437AB2",
"L.	c #6D757F",
"M.	c #367BC3",
"N.	c #747574",
"O.	c #757475",
"P.	c #727678",
"Q.	c #4A8AD0",
"R.	c #7B7C7B",
"S.	c #6B8CB2",
"T.	c #6483A4",
"U.	c #7C7C7B",
"V.	c #7B7C7C",
"W.	c #7B7B7C",
"X.	c #7B7B7B",
"Y.	c #707B87",
"Z.	c #417CB9",
"`.	c #337CC8",
" +	c #487CB2",
".+	c #577CA2",
"++	c #607C98",
"@+	c #377CC3",
"#+	c #7C7B7B",
"$+	c #7C7B7C",
"%+	c #707C8A",
"&+	c #5088C6",
"*+	c #838383",
"=+	c #738CAA",
"-+	c #6188B2",
";+	c #838283",
">+	c #828383",
",+	c #828282",
"'+	c #818383",
")+	c #5A7FA5",
"!+	c #357DC7",
"~+	c #5E80A3",
"{+	c #75828E",
"]+	c #64809E",
"^+	c #537FAD",
"/+	c #407DBD",
"(+	c #3C7DC1",
"_+	c #4D7FB2",
":+	c #5F7FA2",
"<+	c #708193",
"[+	c #6C8198",
"}+	c #5888BE",
"|+	c #828382",
"1+	c #8A8A8A",
"2+	c #7E90A4",
"3+	c #5F8CBF",
"4+	c #898989",
"5+	c #798796",
"6+	c #3F7EC0",
"7+	c #4880BA",
"8+	c #7E8893",
"9+	c #8A8989",
"0+	c #89898A",
"a+	c #898A8A",
"b+	c #7E8792",
"c+	c #397EC5",
"d+	c #6685A4",
"e+	c #5481B1",
"f+	c #417FBF",
"g+	c #3882CF",
"h+	c #658BB8",
"i+	c #8A898A",
"j+	c #919191",
"k+	c #8993A0",
"l+	c #5E91CB",
"m+	c #8D9092",
"n+	c #5C85B1",
"o+	c #377EC7",
"p+	c #6D89A6",
"q+	c #919090",
"r+	c #909090",
"s+	c #909091",
"t+	c #909190",
"u+	c #858E97",
"v+	c #3A7EC6",
"w+	c #919091",
"x+	c #898E95",
"y+	c #4586CC",
"z+	c #8090A3",
"A+	c #919190",
"B+	c #979797",
"C+	c #94989D",
"D+	c #5E97D8",
"E+	c #518CCC",
"F+	c #5788BB",
"G+	c #8E959B",
"H+	c #8B949D",
"I+	c #3A7FC7",
"J+	c #5287BE",
"K+	c #6B90B9",
"L+	c #989797",
"M+	c #9D9D9D",
"N+	c #9D9E9E",
"O+	c #8A9EB5",
"P+	c #5993D2",
"Q+	c #5C8EC2",
"R+	c #8F99A5",
"S+	c #9E9D9D",
"T+	c #9E9E9D",
"U+	c #9D9E9D",
"V+	c #9099A3",
"W+	c #3B80C7",
"X+	c #7392B0",
"Y+	c #4F8ACA",
"Z+	c #9B9E9E",
"`+	c #A4A4A3",
" @	c #A3A4A3",
".@	c #A4A3A3",
"+@	c #A1A3A5",
"@@	c #7999BD",
"#@	c #4386CF",
"$@	c #648FBB",
"%@	c #9DA1A6",
"&@	c #A3A4A4",
"*@	c #A4A3A4",
"=@	c #959FA8",
"-@	c #3C81C8",
";@	c #949EA9",
">@	c #959FAD",
",@	c #A4A4A4",
"'@	c #A3A3A4",
")@	c #A9A9A9",
"!@	c #A9A9AA",
"~@	c #A9AAAA",
"{@	c #A1A6AD",
"]@	c #6894C3",
"^@	c #3C83CC",
"/@	c #7897B7",
"(@	c #A9AAA9",
"_@	c #9BA5AD",
":@	c #3D81C9",
"<@	c #568ECA",
"[@	c #809DBE",
"}@	c #AFAEAF",
"|@	c #AEAFAE",
"1@	c #AEAFAF",
"2@	c #AFAFAF",
"3@	c #AEAEAF",
"4@	c #9BA8B5",
"5@	c #598FC9",
"6@	c #4E8ACA",
"7@	c #91A3B7",
"8@	c #A1AAB3",
"9@	c #4A8ACE",
"0@	c #7B9DC2",
"a@	c #6999CE",
"b@	c #AFAEAE",
"c@	c #B4B4B4",
"d@	c #B3B3B4",
"e@	c #B3B4B3",
"f@	c #B4B4B3",
"g@	c #B3B4B4",
"h@	c #93A8BF",
"i@	c #5691D1",
"j@	c #6998CB",
"k@	c #A5AEB8",
"l@	c #A8AFB7",
"m@	c #5492D9",
"n@	c #629AD9",
"o@	c #ABB1B8",
"p@	c #B4B3B3",
"q@	c #B4B3B4",
"r@	c #B8B8B8",
"s@	c #B8B9B8",
"t@	c #B6B7B9",
"u@	c #90AAC9",
"v@	c #679CDC",
"w@	c #82A6D1",
"x@	c #A1B2C7",
"y@	c #B9B8B8",
"z@	c #BCBCBC",
"A@	c #BBBBBC",
"B@	c #BCBBBB",
"C@	c #BCBCBB",
"D@	c #BBBCBC",
"E@	c #B6BAC0",
"F@	c #96B2D8",
"G@	c #A2B5D1",
"H@	c #BCBBBC",
"                                                ",
". . . . . + @ . @ # $ . . . % @ . + . % + . & . ",
"* * * = - ; > , ' ) ! ~ ! ) { ] ^ / ( _ : < = * ",
"[ } | 1 2 3 4 5 6 7 8 9 0 a 9 a b c d e f g a 9 ",
"h i j k l m n o p q r s t s s p p u v w x y z p ",
"A B C D E F G H I J K L C C M L N O E P Q R S T ",
"U V W W X Y Z `  ...+.@.#.$.%.&.*.=.W Y -.;.X >.",
",.'.).!.!.).~.{.).].^./.(._.:._.<.~.[.).}.|.[.1.",
"2.3.4.4.4.4.4.4.4.5.6.4.4.7.8.4.4.4.4.4.9.0.4.4.",
"a.b.c.d.e.f.a.f.f.g.h.i.i.j.k.l.i.i.f.f.m.n.d.l.",
"o.p.q.r.s.t.u.o.r.v.w.r.x.y.z.x.r.o.A.s.B.C.A.o.",
"D.E.F.G.H.I.H.H.D.J.K.H.D.L.M.D.N.N.O.P.Q.D.G.G.",
"R.S.T.U.V.W.X.R.Y.Z.`. +.+++@+#+$+R.U.%+&+$+X.X.",
"*+=+-+;+>+,+'+)+!+~+{+]+^+/+:.(+_+:+<+[+}+|+*+;+",
"1+2+3+4+1+5+6+7+8+1+9+0+a+b+c+5+d+e+f+g+h+9+4+i+",
"j+k+l+m+n+o+p+q+r+s+r+r+t+u+v+w+r+s+x+y+z+q+q+A+",
"B+C+D+E+F+G+B+B+B+B+B+B+B+H+I+B+B+B+J+K+B+B+B+L+",
"M+N+O+P+Q+R+S+M+T+U+M+M+N+V+W+U+U+X+Y+Z+T+M+M+T+",
"`+ @.@+@@@#@$@%@ @&@.@*@ @=@-@`+;@#@>@,@*@'@'@*@",
")@)@!@!@~@{@]@^@/@(@~@)@)@_@:@(@<@[@(@~@)@!@)@(@",
"}@|@}@}@1@2@3@4@5@6@7@1@|@8@9@0@a@b@}@}@|@2@2@2@",
"c@d@c@c@e@d@f@g@g@h@i@j@k@l@m@n@o@c@c@p@q@e@p@p@",
"r@r@r@r@r@r@r@r@r@s@t@u@v@w@{ x@r@r@r@r@y@r@r@r@",
"z@A@B@z@z@z@z@z@C@D@D@z@E@F@G@C@z@C@H@z@z@z@z@D@"};
