/* XPM */
static char * massNameDFK_xpm[] = {
"24 24 355 2",
"  	c #49A9FD",
". 	c #48A6FB",
"+ 	c #47A6FA",
"@ 	c #45A1F7",
"# 	c #439DF5",
"$ 	c #4199F1",
"% 	c #3F93EE",
"& 	c #3D8DE9",
"* 	c #3A8AE7",
"= 	c #3886E4",
"- 	c #3783E2",
"; 	c #357FE0",
"> 	c #347BDD",
", 	c #3277DB",
"' 	c #3074D7",
") 	c #2F71D6",
"! 	c #2D6DD3",
"~ 	c #2C69D1",
"{ 	c #2A66CF",
"] 	c #2963CD",
"^ 	c #2761CB",
"/ 	c #265DC8",
"( 	c #4D4D4D",
"_ 	c #FFFFFF",
": 	c #357FDF",
"< 	c #3174D8",
"[ 	c #FF3A3A",
"} 	c #3985E4",
"| 	c #5C5C5C",
"1 	c #E8E7E7",
"2 	c #4D4D4C",
"3 	c #515251",
"4 	c #525452",
"5 	c #535553",
"6 	c #555554",
"7 	c #525251",
"8 	c #494848",
"9 	c #4D4E4D",
"0 	c #4B4B4B",
"a 	c #484948",
"b 	c #484849",
"c 	c #494948",
"d 	c #484848",
"e 	c #4E514E",
"f 	c #525552",
"g 	c #575E58",
"h 	c #5D6C60",
"i 	c #596D5E",
"j 	c #376648",
"k 	c #336345",
"l 	c #2F6543",
"m 	c #336B46",
"n 	c #366E48",
"o 	c #40604B",
"p 	c #5E7062",
"q 	c #3A6C4B",
"r 	c #386B4A",
"s 	c #3D674B",
"t 	c #4D5B50",
"u 	c #4D4D4E",
"v 	c #4E4E4E",
"w 	c #4E4D4E",
"x 	c #535454",
"y 	c #47584D",
"z 	c #346245",
"A 	c #2E6E44",
"B 	c #2D7444",
"C 	c #2D7645",
"D 	c #1B6135",
"E 	c #0B2B16",
"F 	c #223528",
"G 	c #3D664B",
"H 	c #297043",
"I 	c #2E7D47",
"J 	c #154023",
"K 	c #2D4E37",
"L 	c #26693F",
"M 	c #257842",
"N 	c #27663C",
"O 	c #616561",
"P 	c #535354",
"Q 	c #545453",
"R 	c #545454",
"S 	c #585A58",
"T 	c #4C5B4F",
"U 	c #256037",
"V 	c #287A42",
"W 	c #1E5D33",
"X 	c #1E6839",
"Y 	c #0E2F1A",
"Z 	c #484846",
"` 	c #626261",
" .	c #486853",
"..	c #327B49",
"+.	c #226036",
"@.	c #475248",
"#.	c #647768",
"$.	c #2A6D41",
"%.	c #2A7845",
"&.	c #44594C",
"*.	c #5A5A5B",
"=.	c #59595A",
"-.	c #5A5A5A",
";.	c #595A5A",
">.	c #4D7659",
",.	c #257541",
"'.	c #17522C",
").	c #236E3D",
"!.	c #164124",
"~.	c #4D4F4C",
"{.	c #606060",
"].	c #636A64",
"^.	c #306D46",
"/.	c #29673D",
"(.	c #454D48",
"_.	c #616361",
":.	c #456551",
"<.	c #267241",
"[.	c #2F6E43",
"}.	c #5B605C",
"|.	c #60605F",
"1.	c #487054",
"2.	c #23743E",
"3.	c #267141",
"4.	c #184729",
"5.	c #4E504E",
"6.	c #676767",
"7.	c #696969",
"8.	c #3D6C4D",
"9.	c #225C37",
"0.	c #515553",
"a.	c #56675C",
"b.	c #286A3E",
"c.	c #257740",
"d.	c #396449",
"e.	c #686969",
"f.	c #676766",
"g.	c #666767",
"h.	c #4D7257",
"i.	c #22723D",
"j.	c #164C29",
"k.	c #2B7346",
"l.	c #184928",
"m.	c #4E504D",
"n.	c #6E6E6D",
"o.	c #6F7170",
"p.	c #3C6D4E",
"q.	c #1C5331",
"r.	c #4A504C",
"s.	c #6D6F6D",
"t.	c #586A5E",
"u.	c #214830",
"v.	c #1F6F3D",
"w.	c #2C7846",
"x.	c #58665C",
"y.	c #6D6D6D",
"z.	c #6D6E6E",
"A.	c #56725E",
"B.	c #236F3C",
"C.	c #387B4F",
"D.	c #164326",
"E.	c #444C46",
"F.	c #767675",
"G.	c #69796F",
"H.	c #2A6942",
"I.	c #123821",
"J.	c #4D4F4D",
"K.	c #767976",
"L.	c #5A6F62",
"M.	c #2D4133",
"N.	c #3D734F",
"O.	c #257341",
"P.	c #3B724D",
"Q.	c #6D716E",
"R.	c #747575",
"S.	c #747574",
"T.	c #65756A",
"U.	c #2A6E43",
"V.	c #154527",
"W.	c #448358",
"X.	c #1D6E3A",
"Y.	c #2A6E44",
"Z.	c #467155",
"`.	c #326D48",
" +	c #194C2B",
".+	c #233027",
"++	c #868483",
"@+	c #7E807E",
"#+	c #5D7366",
"$+	c #435148",
"%+	c #868B85",
"&+	c #52765F",
"*+	c #36784D",
"=+	c #456A51",
"-+	c #7C7D7D",
";+	c #7C7B7B",
">+	c #767B78",
",+	c #3C714F",
"'+	c #1D472C",
")+	c #4C855F",
"!+	c #15552D",
"~+	c #17572E",
"{+	c #1D6A3A",
"]+	c #154828",
"^+	c #253428",
"/+	c #8B8B87",
"(+	c #838383",
"_+	c #5E7767",
":+	c #59645D",
"<+	c #828382",
"[+	c #818482",
"}+	c #4E795F",
"|+	c #32774A",
"1+	c #617267",
"2+	c #848583",
"3+	c #77807A",
"4+	c #3B714F",
"5+	c #1E472D",
"6+	c #578F68",
"7+	c #0C2E18",
"8+	c #1E6C38",
"9+	c #39874E",
"0+	c #2D4D38",
"a+	c #8C8C8B",
"b+	c #898989",
"c+	c #89898A",
"d+	c #5E7A68",
"e+	c #47564C",
"f+	c #6C8474",
"g+	c #2A7446",
"h+	c #337249",
"i+	c #5D6F63",
"j+	c #497459",
"k+	c #246A3D",
"l+	c #2C4E36",
"m+	c #6F9A79",
"n+	c #175A2F",
"o+	c #081E10",
"p+	c #285E3C",
"q+	c #348A4D",
"r+	c #336B44",
"s+	c #767C78",
"t+	c #909090",
"u+	c #909190",
"v+	c #5F7D6B",
"w+	c #2E4334",
"x+	c #909091",
"y+	c #939A93",
"z+	c #34754C",
"A+	c #2B8047",
"B+	c #307C47",
"C+	c #1C6637",
"D+	c #1C6636",
"E+	c #2F4B38",
"F+	c #195E32",
"G+	c #0A2616",
"H+	c #647365",
"I+	c #297644",
"J+	c #38864F",
"K+	c #3B5745",
"L+	c #8D918D",
"M+	c #909491",
"N+	c #527A61",
"O+	c #1E3A29",
"P+	c #979797",
"Q+	c #989797",
"R+	c #758B7C",
"S+	c #377A4E",
"T+	c #409759",
"U+	c #1E6F3C",
"V+	c #196132",
"W+	c #38523F",
"X+	c #22703F",
"Y+	c #206F3C",
"Z+	c #1A5730",
"`+	c #314F3B",
" @	c #2B6B42",
".@	c #2F8249",
"+@	c #27663D",
"@@	c #2F4E3B",
"#@	c #487A5A",
"$@	c #2E7447",
"%@	c #1F6036",
"&@	c #496651",
"*@	c #A2A4A0",
"=@	c #9D9D9D",
"-@	c #9E9E9D",
";@	c #728B7B",
">@	c #347C4C",
",@	c #20733D",
"'@	c #3E5244",
")@	c #A0AFA0",
"!@	c #5E8D6D",
"~@	c #398550",
"{@	c #1B542D",
"]@	c #1B3322",
"^@	c #25733F",
"/@	c #3B8D51",
"(@	c #164A28",
"_@	c #3C5D46",
":@	c #4E7E5D",
"<@	c #347A4B",
"[@	c #386F4B",
"}@	c #8D908C",
"|@	c #A4A3A3",
"1@	c #A3A4A3",
"2@	c #9FA19F",
"3@	c #4D8160",
"4@	c #526154",
"5@	c #A9A9A9",
"6@	c #AAA9AA",
"7@	c #A8AEA8",
"8@	c #708373",
"9@	c #9C9D95",
"0@	c #528A64",
"a@	c #30824A",
"b@	c #194A2A",
"c@	c #707F71",
"d@	c #A9ACA5",
"e@	c #A3A5A1",
"f@	c #ABAAA9",
"g@	c #A9AAA9",
"h@	c #A9A9AA",
"i@	c #ABABAB",
"j@	c #7B9683",
"k@	c #22703D",
"l@	c #15582D",
"m@	c #687266",
"n@	c #AFAFAF",
"o@	c #AEAFAF",
"p@	c #AFAEAF",
"q@	c #AAB3A8",
"r@	c #538866",
"s@	c #3D8D54",
"t@	c #30864A",
"u@	c #29603A",
"v@	c #979A97",
"w@	c #AFAFAE",
"x@	c #AAB0A9",
"y@	c #2A7144",
"z@	c #13532A",
"A@	c #73796F",
"B@	c #B4B3B4",
"C@	c #B4B4B4",
"D@	c #B4B4B3",
"E@	c #B3B4B4",
"F@	c #B6B7B4",
"G@	c #8DA692",
"H@	c #3F8154",
"I@	c #2A5C3A",
"J@	c #969796",
"K@	c #B3B3B4",
"L@	c #73977A",
"M@	c #225032",
"N@	c #92948B",
"  . + @ # # $ % % & * = - ; > , ' ) ! ~ { ] ^ / ",
"  ( + _ _ _ _ _ _ _ _ = - : > , < ) ! ~ { ] [ / ",
"} } } } } } } } } } } } } } } } } } } } } } } } ",
"} | | | | | | | | | | | | | | | | | | | | | 1 } ",
"} | 2 3 4 5 6 7 8 9 9 0 a b 8 c d e f g h i 1 } ",
"} | j k l m n o p q r s t u v w x y z A B C 1 } ",
"} | D E F G H I J K L M N O P Q R S T U V W 1 } ",
"} | X Y Z `  ...+.@.#.$.%.&.*.=.-.-.;.>.,.'.1 } ",
"} | ).!.~.{.].^./.(._.:.<.[.}.{.{.|.{.1.2.'.1 } ",
"} | 3.4.5.6.7.8.9.0.6.a.b.c.d.e.f.6.g.h.i.j.1 } ",
"} | k.l.m.n.o.p.q.r.s.t.u.v.w.x.y.y.z.A.B.j.1 } ",
"} | C.D.E.F.G.H.I.J.K.L.M.N.O.P.Q.R.S.T.U.V.1 } ",
"} | W.X.Y.Z.`. +.+++@+#+$+%+&+*+=+-+;+>+,+'+1 } ",
"} | )+!+~+{+]+^+/+(+(+_+:+<+[+}+|+1+2+3+4+5+1 } ",
"} | 6+~+7+8+9+0+a+b+c+d+e+b+b+f+g+h+i+j+k+l+1 } ",
"} | m+n+o+p+q+r+s+t+u+v+w+u+x+y+z+A+B+C+D+E+1 } ",
"} | )+F+G+H+I+J+K+L+M+N+O+P+P+Q+R+S+T+U+V+W+1 } ",
"} | X+Y+Z+`+ @.@+@@@#@$@%@&@*@=@-@;@>@,@F+'@1 } ",
"} | )@!@~@{@]@^@/@(@_@:@<@[@}@|@1@2@3@Y+n+4@1 } ",
"} | 5@6@7@8@9@0@a@/@b@c@d@e@f@g@h@i@j@k@l@m@1 } ",
"} | n@o@p@n@o@q@r@s@t@u@v@n@w@o@n@p@x@y@z@A@1 } ",
"} | B@C@D@B@B@E@F@G@H@I@J@B@K@D@B@K@K@L@M@N@1 } ",
"} | 1 1 1 1 1 1 1 1 1 1 1 1 1 1 1 1 1 1 1 1 1 } ",
"} } } } } } } } } } } } } } } } } } } } } } } } "};
