/* XPM */
static char * nameDFK_xpm[] = {
"24 24 399 2",
"  	c #383838",
". 	c #3B3B3C",
"+ 	c #3C3C3B",
"@ 	c #3B3B3B",
"# 	c #3B3C3B",
"$ 	c #3C3B3B",
"% 	c #3F3F3F",
"& 	c #3F3E3E",
"* 	c #3E3F3F",
"= 	c #434443",
"- 	c #434343",
"; 	c #444343",
"> 	c #444443",
", 	c #434444",
"' 	c #4A4A4A",
") 	c #4A4949",
"! 	c #4A494A",
"~ 	c #494949",
"{ 	c #494A49",
"] 	c #484948",
"^ 	c #484949",
"/ 	c #484848",
"( 	c #4C4C4B",
"_ 	c #4D4F4D",
": 	c #484849",
"< 	c #525453",
"[ 	c #565C58",
"} 	c #5A665C",
"| 	c #596C5E",
"1 	c #57745E",
"2 	c #526F5B",
"3 	c #506D59",
"4 	c #316D46",
"5 	c #2F6D45",
"6 	c #2A6942",
"7 	c #296A40",
"8 	c #2E6F45",
"9 	c #366E48",
"0 	c #435B4B",
"a 	c #5D6D61",
"b 	c #376E4B",
"c 	c #327348",
"d 	c #34774B",
"e 	c #4B6553",
"f 	c #4D4D4E",
"g 	c #4D4E4D",
"h 	c #4E4E4E",
"i 	c #555555",
"j 	c #455E4D",
"k 	c #326345",
"l 	c #396348",
"m 	c #316F45",
"n 	c #2E7545",
"o 	c #29713F",
"p 	c #256B3C",
"q 	c #1B5B32",
"r 	c #4C7759",
"s 	c #1C6136",
"t 	c #0A2A15",
"u 	c #1F3224",
"v 	c #376B49",
"w 	c #257342",
"x 	c #2F7C48",
"y 	c #164125",
"z 	c #2E4D37",
"A 	c #28693F",
"B 	c #257742",
"C 	c #27663C",
"D 	c #5F625F",
"E 	c #545453",
"F 	c #535353",
"G 	c #585957",
"H 	c #4C5B4F",
"I 	c #256038",
"J 	c #297942",
"K 	c #1E5E34",
"L 	c #1B3624",
"M 	c #485449",
"N 	c #546256",
"O 	c #6C706C",
"P 	c #2A6540",
"Q 	c #12321D",
"R 	c #494948",
"S 	c #666766",
"T 	c #476952",
"U 	c #317B49",
"V 	c #216035",
"W 	c #465147",
"X 	c #637968",
"Y 	c #2E6B43",
"Z 	c #2B7746",
"` 	c #3F5A48",
" .	c #5B5B5B",
"..	c #595A59",
"+.	c #595959",
"@.	c #595A5A",
"#.	c #4D7659",
"$.	c #257541",
"%.	c #205333",
"&.	c #5F625E",
"*.	c #5A5959",
"=.	c #626262",
"-.	c #3F684D",
";.	c #20452C",
">.	c #606060",
",.	c #616562",
"'.	c #316C46",
").	c #24683B",
"!.	c #2E3C33",
"~.	c #636C65",
"{.	c #3D664C",
"].	c #277241",
"^.	c #297040",
"/.	c #586059",
"(.	c #60605F",
"_.	c #477153",
":.	c #24743F",
"<.	c #365742",
"[.	c #616261",
"}.	c #696A69",
"|.	c #426D52",
"1.	c #1E4A2E",
"2.	c #5B5C5B",
"3.	c #676767",
"4.	c #6A6C69",
"5.	c #376C4A",
"6.	c #1D5C33",
"7.	c #27372D",
"8.	c #67746A",
"9.	c #326644",
"0.	c #206A39",
"a.	c #23773F",
"b.	c #2F6441",
"c.	c #6D6F6C",
"d.	c #676667",
"e.	c #4A7356",
"f.	c #23723E",
"g.	c #3F5A49",
"h.	c #6E6E6D",
"i.	c #407152",
"j.	c #1D4A2B",
"k.	c #6D6E6E",
"l.	c #70706F",
"m.	c #3B6C4D",
"n.	c #1A522F",
"o.	c #363F3A",
"p.	c #6D716E",
"q.	c #376548",
"r.	c #124125",
"s.	c #1F6F3D",
"t.	c #297944",
"u.	c #44604D",
"v.	c #717271",
"w.	c #6E6D6D",
"x.	c #6D6D6D",
"y.	c #4F735B",
"z.	c #246F3D",
"A.	c #3E5A48",
"B.	c #6E6F6E",
"C.	c #6D6E6D",
"D.	c #747575",
"E.	c #467A58",
"F.	c #194528",
"G.	c #4D534F",
"H.	c #757675",
"I.	c #6F7771",
"J.	c #336B48",
"K.	c #153C25",
"L.	c #424542",
"M.	c #7C8A7E",
"N.	c #2E6543",
"O.	c #23392A",
"P.	c #4B7358",
"Q.	c #3B7450",
"R.	c #367249",
"S.	c #676F68",
"T.	c #757474",
"U.	c #757574",
"V.	c #5A7562",
"W.	c #236D3E",
"X.	c #32543F",
"Y.	c #767676",
"Z.	c #7C7B7B",
"`.	c #49825B",
" +	c #1E6E3B",
".+	c #2D6F46",
"++	c #4C725A",
"@+	c #3B6F4F",
"#+	c #1B4D2D",
"$+	c #333E36",
"%+	c #81807F",
"&+	c #7E7E7E",
"*+	c #416C50",
"=+	c #3B4B40",
"-+	c #818481",
";+	c #707A73",
">+	c #467957",
",+	c #3C664A",
"'+	c #7E807D",
")+	c #7C7B7C",
"!+	c #627669",
"~+	c #256C40",
"{+	c #284C34",
"]+	c #7B7C7B",
"^+	c #7B7B7B",
"/+	c #838382",
"(+	c #4D855F",
"_+	c #15552D",
":+	c #18582F",
"<+	c #1E6939",
"[+	c #154828",
"}+	c #213125",
"|+	c #888886",
"1+	c #828282",
"2+	c #828383",
"3+	c #52735D",
"4+	c #3A4C40",
"5+	c #838283",
"6+	c #818581",
"7+	c #4A785B",
"8+	c #307749",
"9+	c #5B6F63",
"0+	c #878886",
"a+	c #577862",
"b+	c #226A3C",
"c+	c #1F472D",
"d+	c #838282",
"e+	c #828283",
"f+	c #898A89",
"g+	c #598F69",
"h+	c #17572E",
"i+	c #0B2D18",
"j+	c #1E6C38",
"k+	c #38874D",
"l+	c #24462F",
"m+	c #8B8B8A",
"n+	c #8A8A89",
"o+	c #89898A",
"p+	c #5F7968",
"q+	c #2F4437",
"r+	c #8A8989",
"s+	c #578065",
"t+	c #327248",
"u+	c #546A5B",
"v+	c #346D48",
"w+	c #1C6737",
"x+	c #2A4E36",
"y+	c #8A8A8A",
"z+	c #8A898A",
"A+	c #909090",
"B+	c #76987E",
"C+	c #195B31",
"D+	c #081E10",
"E+	c #285E3C",
"F+	c #348A4D",
"G+	c #2B683E",
"H+	c #777C78",
"I+	c #909191",
"J+	c #919291",
"K+	c #4E765D",
"L+	c #273D2D",
"M+	c #909091",
"N+	c #949E94",
"O+	c #31744A",
"P+	c #2A8046",
"Q+	c #307C47",
"R+	c #1A6535",
"S+	c #1B6635",
"T+	c #2F4B38",
"U+	c #919091",
"V+	c #9B9B9A",
"W+	c #688C74",
"X+	c #1C5F34",
"Y+	c #0A2616",
"Z+	c #647365",
"`+	c #297644",
" @	c #35854D",
".@	c #32523E",
"+@	c #858C86",
"@@	c #728878",
"#@	c #2A6A40",
"$@	c #1B3826",
"%@	c #979797",
"&@	c #65866F",
"*@	c #267541",
"=@	c #3E9757",
"-@	c #1E6F3C",
";@	c #196132",
">@	c #38523F",
",@	c #9EA29E",
"'@	c #417C57",
")@	c #21703D",
"!@	c #1A5730",
"~@	c #314F3B",
"{@	c #2B6841",
"]@	c #2F8249",
"^@	c #226339",
"/@	c #11351F",
"(@	c #1E6838",
"_@	c #1F6F3B",
":@	c #1F6036",
"<@	c #4C6854",
"[@	c #A3A6A0",
"}@	c #9D9D9D",
"|@	c #A1A2A0",
"1@	c #4E7D5F",
"2@	c #267842",
"3@	c #1F733C",
"4@	c #195E32",
"5@	c #3E5244",
"6@	c #9E9D9E",
"7@	c #A4A3A3",
"8@	c #A0ACA0",
"9@	c #5E8E6D",
"0@	c #388550",
"a@	c #1D552F",
"b@	c #1D3424",
"c@	c #267340",
"d@	c #3B8D51",
"e@	c #164927",
"f@	c #3A5C44",
"g@	c #51805F",
"h@	c #48815B",
"i@	c #577D64",
"j@	c #8D908D",
"k@	c #989F99",
"l@	c #31764B",
"m@	c #1E6E3A",
"n@	c #175A2F",
"o@	c #526154",
"p@	c #A4A4A4",
"q@	c #A3A4A4",
"r@	c #A3A3A4",
"s@	c #A9A9A9",
"t@	c #A9AAA9",
"u@	c #A9AAAA",
"v@	c #A8AEA8",
"w@	c #7E8C80",
"x@	c #9FA09B",
"y@	c #618F70",
"z@	c #35844E",
"A@	c #1A4B2B",
"B@	c #778578",
"C@	c #AAAAA7",
"D@	c #A7A9A7",
"E@	c #ACACAC",
"F@	c #658C72",
"G@	c #1E6F3B",
"H@	c #15582D",
"I@	c #687266",
"J@	c #A9A9AA",
"K@	c #AAA9AA",
"L@	c #AAA9A9",
"M@	c #AFAFAE",
"N@	c #AFAEAF",
"O@	c #AEAFAF",
"P@	c #AFAEAE",
"Q@	c #ADB1AC",
"R@	c #608E70",
"S@	c #3E8D55",
"T@	c #31864B",
"U@	c #336643",
"V@	c #979997",
"W@	c #AEAEAF",
"X@	c #AFAFAF",
"Y@	c #A8B1A5",
"Z@	c #266F41",
"`@	c #13532A",
" #	c #73796F",
".#	c #AEAFAE",
"+#	c #B3B3B4",
"@#	c #B4B3B3",
"##	c #B3B3B3",
"$#	c #B4B4B4",
"%#	c #B3B4B3",
"&#	c #B4B3B4",
"*#	c #B5B6B3",
"=#	c #92A896",
"-#	c #438357",
";#	c #2B5D3C",
">#	c #757773",
",#	c #B3B4B4",
"'#	c #B4B4B3",
")#	c #719679",
"!#	c #225032",
"~#	c #92948B",
"{#	c #B8B8B9",
"]#	c #B8B8B8",
"^#	c #BDBDB8",
"/#	c #AEB2AB",
"(#	c #BEBCB8",
"_#	c #BCBCB4",
":#	c #BCBCBC",
"<#	c #BCBCBB",
"[#	c #BCBBBC",
"}#	c #BCBBBB",
"|#	c #BBBCBC",
"1#	c #BBBBBC",
"2#	c #BBBCBB",
"                                                ",
". + . @ @ @ @ . + . @ @ @ @ @ @ # $ # @ @ @ @ @ ",
"% % % % & * % % % % % % % % % % % % % % % % % % ",
"= - = - - ; - = - > - , , ; = - - , ; , - ; , - ",
"' ) ! ~ { ] ^ / { ( _ ] / / : / < [ ! } | 1 2 3 ",
"4 5 6 7 8 9 0 a b c d e f g h i j k l m n o p q ",
"r s t u v w x y z A B C D E F F G H I J K L M N ",
"O P Q R S T U V W X Y Z `  ...+...@.#.$.%.&...*.",
"=.-.;...>.,.'.).!.~.{.].^./.(.>.>.>._.:.<.[.>.>.",
"}.|.1.2.3.4.5.6.7.8.9.0.a.b.c.3.d.3.e.f.g.3.3.d.",
"h.i.j.2.k.l.m.n.o.p.q.r.s.t.u.v.w.x.y.z.A.B.x.C.",
"D.E.F.G.H.I.J.K.L.M.N.O.P.Q.R.S.T.U.V.W.X.Y.U.T.",
"Z.`. +.+++@+#+$+%+&+*+=+-+;+>+,+'+)+!+~+{+]+]+^+",
"/+(+_+:+<+[+}+|+1+2+3+4+5+6+7+8+9+0+a+b+c+d+5+e+",
"f+g+h+i+j+k+l+m+n+o+p+q+r+f+s+w t+u+v+w+x+o+y+z+",
"A+B+C+D+E+F+G+H+I+J+K+L+I+M+N+O+P+Q+R+S+T+U+A+A+",
"V+W+X+Y+Z+`+ @.@+@@@#@$@%@%@%@&@*@=@-@;@>@%@%@%@",
",@'@)@!@~@{@]@^@/@(@_@:@<@[@}@|@1@2@3@4@5@6@}@}@",
"7@8@9@0@a@b@c@d@e@f@g@h@i@j@7@7@k@l@m@n@o@p@q@r@",
"s@t@u@v@w@x@y@z@d@A@B@C@D@t@s@s@E@F@G@H@I@J@K@L@",
"M@N@N@O@P@N@Q@R@S@T@U@V@W@N@X@M@X@Y@Z@`@ #.#O@M@",
"+#@###$#%#&#&#*#=#-#;#>#$#$#,#'#@#$#)#!#~#&#,#$#",
"{#]#]#{#]#]#]#]#]#^#/#(#]#{#]#]#]#]#]#_#]#{#]#]#",
":#:#:#:#:#:#<#:#[#}#|#:#1#:#2#:#|#:#|#}#|#2#:#:#"};
