/* XPM */
static char * P_CurveDFK_xpm[] = {
"26 26 340 2",
"  	c #383838",
". 	c #3D3D3C",
"+ 	c #393939",
"@ 	c #3F3F3E",
"# 	c #3A3A3A",
"$ 	c #474645",
"% 	c #414040",
"& 	c #3B3B3B",
"* 	c #3B3A3A",
"= 	c #3A3A3B",
"- 	c #3B3A3B",
"; 	c #3B3B3A",
"> 	c #3C3C3B",
", 	c #3C3C3C",
"' 	c #6F706C",
") 	c #D59C9D",
"! 	c #AB8281",
"~ 	c #927D7D",
"{ 	c #3C3D3D",
"] 	c #3E3E3E",
"^ 	c #3E3E3F",
"/ 	c #3E3F3E",
"( 	c #4A4949",
"_ 	c #62866C",
": 	c #5B7255",
"< 	c #B07B7A",
"[ 	c #AA6D6C",
"} 	c #4E4D4D",
"| 	c #424242",
"1 	c #424342",
"2 	c #424243",
"3 	c #434242",
"4 	c #424343",
"5 	c #454444",
"6 	c #444F47",
"7 	c #285F3D",
"8 	c #22613B",
"9 	c #3A5B40",
"0 	c #9E7A77",
"a 	c #535352",
"b 	c #474747",
"c 	c #474646",
"d 	c #474746",
"e 	c #464746",
"f 	c #474647",
"g 	c #464646",
"h 	c #464647",
"i 	c #4A4C4A",
"j 	c #194F2F",
"k 	c #235937",
"l 	c #1B4E2E",
"m 	c #104123",
"n 	c #616460",
"o 	c #49494A",
"p 	c #4B4B4B",
"q 	c #4B4C4B",
"r 	c #4C4B4B",
"s 	c #4B4B4C",
"t 	c #61615C",
"u 	c #ABAF71",
"v 	c #4B6B3F",
"w 	c #1A4B2D",
"x 	c #1A4228",
"y 	c #586E5C",
"z 	c #535353",
"A 	c #505050",
"B 	c #515050",
"C 	c #505051",
"D 	c #505150",
"E 	c #515150",
"F 	c #515051",
"G 	c #696965",
"H 	c #C5C583",
"I 	c #C5C572",
"J 	c #B5B46A",
"K 	c #38532C",
"L 	c #3D5542",
"M 	c #5B5B5B",
"N 	c #525150",
"O 	c #555353",
"P 	c #555556",
"Q 	c #565655",
"R 	c #555555",
"S 	c #555655",
"T 	c #565656",
"U 	c #565556",
"V 	c #555656",
"W 	c #5A5A5A",
"X 	c #CDCD8E",
"Y 	c #CDCD79",
"Z 	c #B3B369",
"` 	c #A7A763",
" .	c #9E9C73",
"..	c #5C5D5C",
"+.	c #575657",
"@.	c #5B5C5B",
"#.	c #5C5B5B",
"$.	c #5C5C5B",
"%.	c #5B5B5C",
"&.	c #C4C297",
"*.	c #CFD074",
"=.	c #C1C172",
"-.	c #A6A75C",
";.	c #A6A476",
">.	c #6B6A69",
",.	c #616161",
"'.	c #616162",
").	c #626161",
"!.	c #616261",
"~.	c #8D8C7C",
"{.	c #D4D482",
"].	c #C6C675",
"^.	c #B0B067",
"/.	c #9E9D65",
"(.	c #6B6B68",
"_.	c #676767",
":.	c #676768",
"<.	c #676867",
"[.	c #686767",
"}.	c #6D6D6C",
"|.	c #CDCE79",
"1.	c #CCCC76",
"2.	c #B6B669",
"3.	c #9C9B5C",
"4.	c #6C6C6B",
"5.	c #6D6D6D",
"6.	c #6E6D6E",
"7.	c #6D6D6E",
"8.	c #6E6E6E",
"9.	c #6D6E6D",
"0.	c #6E6E6D",
"a.	c #737372",
"b.	c #D3D38B",
"c.	c #CFD078",
"d.	c #B8B86B",
"e.	c #AAAA64",
"f.	c #7B7A73",
"g.	c #747473",
"h.	c #737374",
"i.	c #747474",
"j.	c #737474",
"k.	c #747373",
"l.	c #737473",
"m.	c #747374",
"n.	c #7A7978",
"o.	c #C9C88B",
"p.	c #CECE75",
"q.	c #BEBE6F",
"r.	c #A1A055",
"s.	c #89887A",
"t.	c #7A7A7A",
"u.	c #A3A288",
"v.	c #D2D379",
"w.	c #BEBF6F",
"x.	c #B2B166",
"y.	c #908F70",
"z.	c #808080",
"A.	c #808181",
"B.	c #808081",
"C.	c #818081",
"D.	c #808180",
"E.	c #818080",
"F.	c #818181",
"G.	c #838382",
"H.	c #CFD073",
"I.	c #C6C674",
"J.	c #B0AF63",
"K.	c #A1A16F",
"L.	c #838383",
"M.	c #7F807F",
"N.	c #7F8080",
"O.	c #7F7F7F",
"P.	c #807F80",
"Q.	c #818180",
"R.	c #878786",
"S.	c #878687",
"T.	c #878686",
"U.	c #878787",
"V.	c #868787",
"W.	c #ADAD84",
"X.	c #C7C873",
"Y.	c #B2B268",
"Z.	c #A4A460",
"`.	c #868785",
" +	c #858584",
".+	c #848484",
"++	c #838282",
"@+	c #838484",
"#+	c #858485",
"$+	c #858685",
"%+	c #8C8D8C",
"&+	c #8C8D8D",
"*+	c #8D8D8C",
"=+	c #8D8C8D",
"-+	c #8D8D8D",
";+	c #8C8C8C",
">+	c #ACAC83",
",+	c #C9C974",
"'+	c #B5B569",
")+	c #9B9C55",
"!+	c #8F8F8A",
"~+	c #888888",
"{+	c #858686",
"]+	c #858585",
"^+	c #848384",
"/+	c #8A8A8A",
"(+	c #8B8B8B",
"_+	c #939293",
":+	c #939393",
"<+	c #939392",
"[+	c #929292",
"}+	c #AEAD8D",
"|+	c #C7C66F",
"1+	c #A6A55E",
"2+	c #929279",
"3+	c #828282",
"4+	c #898989",
"5+	c #8E8E8E",
"6+	c #909191",
"7+	c #999899",
"8+	c #999998",
"9+	c #989999",
"0+	c #989898",
"a+	c #979697",
"b+	c #979694",
"c+	c #9F9E6A",
"d+	c #9A9A55",
"e+	c #939272",
"f+	c #878788",
"g+	c #868686",
"h+	c #8E8D8E",
"i+	c #949394",
"j+	c #999999",
"k+	c #9F9E9F",
"l+	c #9E9F9F",
"m+	c #9E9E9F",
"n+	c #9F9E9E",
"o+	c #9D9D9E",
"p+	c #9B9C9B",
"q+	c #8B857F",
"r+	c #4F452A",
"s+	c #7D7B47",
"t+	c #7D7C47",
"u+	c #8A8A87",
"v+	c #838483",
"w+	c #8F8F8F",
"x+	c #959695",
"y+	c #9B9A9A",
"z+	c #9F9F9E",
"A+	c #A4A4A4",
"B+	c #A3A4A4",
"C+	c #A3A2A3",
"D+	c #A2A2A2",
"E+	c #9E9D9E",
"F+	c #56483C",
"G+	c #3D2F24",
"H+	c #60594D",
"I+	c #898982",
"J+	c #848483",
"K+	c #949494",
"L+	c #9A9A99",
"M+	c #9F9F9F",
"N+	c #A2A3A3",
"O+	c #A9A9A9",
"P+	c #A9A8A8",
"Q+	c #A9A9A8",
"R+	c #A5A6A5",
"S+	c #6F6B66",
"T+	c #3F342A",
"U+	c #8E8981",
"V+	c #8D8C8B",
"W+	c #919191",
"X+	c #949595",
"Y+	c #9C9C9B",
"Z+	c #A0A0A0",
"`+	c #A4A3A4",
" @	c #A5A6A6",
".@	c #A8A8A8",
"+@	c #ADAEAE",
"@@	c #AEAEAE",
"#@	c #ADADAD",
"$@	c #979898",
"%@	c #787673",
"&@	c #797773",
"*@	c #7D7B77",
"=@	c #5C5A56",
"-@	c #83817B",
";@	c #959594",
">@	c #959595",
",@	c #9C9C9C",
"'@	c #A6A6A6",
")@	c #AAAAAB",
"!@	c #ACABAB",
"~@	c #ACACAD",
"{@	c #AEADAE",
"]@	c #AEAEAD",
"^@	c #B2B2B2",
"/@	c #272725",
"(@	c #5F5D59",
"_@	c #6C6A66",
":@	c #666561",
"<@	c #5A5855",
"[@	c #7D7C7B",
"}@	c #A5A5A5",
"|@	c #AAAAAA",
"1@	c #ACACAC",
"2@	c #AFAFAF",
"3@	c #B1B1B0",
"4@	c #B1B1B1",
"5@	c #B0B1B1",
"6@	c #B2B2B1",
"7@	c #B1B2B2",
"8@	c #B2B1B2",
"9@	c #B6B6B6",
"0@	c #646364",
"a@	c #545555",
"b@	c #BDBCBA",
"c@	c #B8B7B7",
"d@	c #B3B4B4",
"e@	c #B2B3B1",
"f@	c #B2B1B0",
"g@	c #AEAEAF",
"h@	c #B0B0B0",
"i@	c #B3B3B3",
"j@	c #B5B5B5",
"k@	c #B5B6B6",
"l@	c #B6B6B5",
"m@	c #B9B9B9",
"n@	c #313132",
"o@	c #B9BAB9",
"p@	c #B8B9B9",
"q@	c #B9B9B8",
"r@	c #BDBDBA",
"s@	c #B7B7B7",
"t@	c #B7B7B8",
"u@	c #B8B9B8",
"v@	c #B8B8B8",
"w@	c #B9B9BA",
"x@	c #BAB9B9",
"y@	c #BABAB9",
"                                    . + @   # $ @ % ",
"& * & = & - ; & & & ; & - & & - & & > , = ' ) ! ~ { ",
"] ^ ] ] ] / ] ] / ] ] ] ^ ] ^ ] ] ^ ] ] ( _ : < [ } ",
"| | 1 2 | | | | 3 4 | | | | 1 | 2 | | 5 6 7 8 9 0 a ",
"b c d e f f c g h g b e f g g g e d b i j k l m n o ",
"p q p p p p q p p p p p r s r p p s t u v w x y z p ",
"A B A C D B A A B A A A D E A F A G H I J K L M N O ",
"P Q R Q Q P P R S T U S Q Q V Q W X Y Z `  ...Q T +.",
"M @.#.$.M M M #.M @.M @.M %.M M &.*.=.-.;.>.%.M M M ",
",.,.,.,.,.,.,.'.,.,.).,.).,.!.~.{.].^./.(.,.,.!.).,.",
"_.:.<._._._.<.[.[._._._._.:.}.|.1.2.3.4.<._._._._._.",
"5.5.6.7.8.9.9.7.0.9.7.7.5.a.b.c.d.e.f.7.9.9.7.8.0.7.",
"g.h.i.j.k.j.l.m.i.g.g.j.n.o.p.q.r.s.j.m.i.i.j.h.i.j.",
"t.t.t.t.t.t.t.t.t.t.t.t.u.v.w.x.y.t.t.t.t.t.t.t.t.t.",
"z.A.B.z.C.D.E.E.E.z.F.G.H.I.J.K.L.M.N.O.P.M.z.Q.z.B.",
"R.S.S.T.R.U.U.V.U.V.U.W.X.Y.Z.`. +.+++L.@+#+$+R.V.R.",
"%+&+*+=+*+-+-+*+=+;+>+,+'+)+!+~+{+]+^+]+U./+(+;+=+-+",
"_+:+:+:+:+<+:+[+[+}+|+Y.1+2+/+U.]+L.3+.+4+5+6+[+:+<+",
"7+8+9+9+9+0+0+a+b+c+^.d+e+f+g+L.F.z.3+~+h+i+a+0+j+8+",
"k+l+k+m+n+o+p+7+q+r+s+t+u+v+F.F.3+v+~+w+x+y+o+z+k+z+",
"A+A+B+A+C+D+E+j+F+G+H+I+J+.+]+U./+5+K+L+M+D+N+A+A+A+",
"O+O+O+O+P+Q+R+S+T+U+V+4+(+-+W+X+0+Y+Z+`+ @.@O+O+O+O+",
"+@@@#@$@%@&@*@=@-@;@:+>@0+,@Z+`+'@P+)@!@~@{@{@]@{@{@",
"^@^@a./@(@_@:@<@[@D+D+}@.@|@1@@@2@3@4@5@^@^@^@6@7@8@",
"9@9@0@a@b@c@d@e@f@g@2@h@8@i@j@j@j@k@k@k@9@9@l@9@l@9@",
"m@m@0+n@h@o@p@q@r@s@t@u@v@v@m@w@o@x@m@o@m@m@y@m@m@m@"};
