/* XPM */
static char * perspGraphDeformKeyDFK_xpm[] = {
"32 32 199 2",
"  	c #000000",
". 	c #8A8A8A",
"+ 	c #C7ABAB",
"@ 	c #FF0000",
"# 	c #BCCDCD",
"$ 	c #C0C0C0",
"% 	c #BFBFBF",
"& 	c #FFFFFF",
"* 	c #9DA0A1",
"= 	c #9DA1A2",
"- 	c #9BA2A3",
"; 	c #9B9E9F",
"> 	c #A49693",
", 	c #AD938D",
"' 	c #A89692",
") 	c #9E9E9F",
"! 	c #9CA2A4",
"~ 	c #9DA1A1",
"{ 	c #9AA3A6",
"] 	c #9E9D9F",
"^ 	c #B28F89",
"/ 	c #C68A7D",
"( 	c #D58E7F",
"_ 	c #CE8D7F",
": 	c #AD8F8A",
"< 	c #9A9EA0",
"[ 	c #9CA3A4",
"} 	c #236BFF",
"| 	c #617AD7",
"1 	c #3C83FB",
"2 	c #CBC6BB",
"3 	c #9BA3A5",
"4 	c #9F9997",
"5 	c #BC8477",
"6 	c #E1846E",
"7 	c #F88F73",
"8 	c #FF9070",
"9 	c #FD8B6E",
"0 	c #CC7C69",
"a 	c #998985",
"b 	c #99A3A6",
"c 	c #9DA2A4",
"d 	c #647CD6",
"e 	c #6398EC",
"f 	c #7798DC",
"g 	c #C4C2BE",
"h 	c #9BA3A4",
"i 	c #B68F7F",
"j 	c #D57557",
"k 	c #EA8366",
"l 	c #FC9778",
"m 	c #F79575",
"n 	c #F99173",
"o 	c #DA775C",
"p 	c #A27366",
"q 	c #979A9A",
"r 	c #9DA4A6",
"s 	c #C4AAAC",
"t 	c #BECECC",
"u 	c #4F83EC",
"v 	c #C6C3BD",
"w 	c #C6C3BE",
"x 	c #2F71F9",
"y 	c #1462FF",
"z 	c #93979B",
"A 	c #9F8DA5",
"B 	c #D29EA1",
"C 	c #EC9372",
"D 	c #B06E7F",
"E 	c #AB9AC6",
"F 	c #EBBDB4",
"G 	c #DF8262",
"H 	c #B26A55",
"I 	c #9A8E8A",
"J 	c #9BA1A4",
"K 	c #C9C5BC",
"L 	c #7B9BDC",
"M 	c #7C9BDA",
"N 	c #CBC6BA",
"O 	c #939398",
"P 	c #81769B",
"Q 	c #B991A1",
"R 	c #F19B7E",
"S 	c #9D6078",
"T 	c #8174A4",
"U 	c #D3A79E",
"V 	c #E98B6C",
"W 	c #C46F58",
"X 	c #9E867F",
"Y 	c #999D9E",
"Z 	c #CEB0A8",
"` 	c #C2D0CA",
" .	c #7094DE",
"..	c #6C92E0",
"+.	c #C7C4BD",
"@.	c #B7BBC4",
"#.	c #5486EA",
"$.	c #9BABCD",
"%.	c #9F9898",
"&.	c #9C6B64",
"*.	c #BB6A57",
"=.	c #F08F71",
"-.	c #E68873",
";.	c #CB7969",
">.	c #E28872",
",.	c #F28D73",
"'.	c #CB735B",
").	c #9E837A",
"!.	c #989B9A",
"~.	c #90A6D3",
"{.	c #CAC5BC",
"].	c #A3958F",
"^.	c #B46F56",
"/.	c #D37352",
"(.	c #FC9474",
"_.	c #FF9D78",
":.	c #FF9471",
"<.	c #FD9477",
"[.	c #F78D6F",
"}.	c #C26F54",
"|.	c #97827A",
"1.	c #979D9E",
"2.	c #0CFF00",
"3.	c #051942",
"4.	c #A1948F",
"5.	c #A76956",
"6.	c #B5654F",
"7.	c #D98169",
"8.	c #F49175",
"9.	c #FF9676",
"0.	c #FF9874",
"a.	c #EB7F5A",
"b.	c #A7654D",
"c.	c #908886",
"d.	c #C8C4BD",
"e.	c #9CACCD",
"f.	c #5A89E7",
"g.	c #ADB6C8",
"h.	c #C1C1C0",
"i.	c #9D9B9B",
"j.	c #9E6D5E",
"k.	c #9D5541",
"l.	c #B56954",
"m.	c #DD8065",
"n.	c #FC9371",
"o.	c #FE9068",
"p.	c #C66C4B",
"q.	c #917368",
"r.	c #969D9F",
"s.	c #9EA3A5",
"t.	c #C3C2BF",
"u.	c #A9B4C9",
"v.	c #1362FF",
"w.	c #7296E0",
"x.	c #CAC6BC",
"y.	c #9AA1A3",
"z.	c #A88173",
"A.	c #BC6749",
"B.	c #C67051",
"C.	c #E28260",
"D.	c #FF916B",
"E.	c #E37D58",
"F.	c #9E7362",
"G.	c #929698",
"H.	c #9EA5A9",
"I.	c #98A3A7",
"J.	c #A78E86",
"K.	c #D97A59",
"L.	c #F5845C",
"M.	c #FF926B",
"N.	c #F3835B",
"O.	c #B3765E",
"P.	c #929291",
"Q.	c #9CA6AA",
"R.	c #9EA1A2",
"S.	c #9BA2A5",
"T.	c #BA8878",
"U.	c #DF8564",
"V.	c #E18564",
"W.	c #B98069",
"X.	c #97908C",
"Y.	c #9AA3A7",
"Z.	c #9FA2A3",
"`.	c #9DA0A0",
" +	c #6AB1DE",
".+	c #7298AF",
"++	c #6AAED7",
"@+	c #6AA3C5",
"#+	c #6AAE6C",
"$+	c #7D85B2",
"%+	c #75A3D1",
"&+	c #CE757B",
"*+	c #ADAAA9",
"=+	c #05DC00",
"-+	c #0039DC",
";+	c #D4D0C8",
">+	c #4C4A46",
",+	c #8A8782",
"'+	c #1800FF",
"                                                                ",
"  . . . . . + @ # $ $ $ $ $ $ % &   * * = - ; > , ' ) ! ~ * &   ",
"  & & & & . + @ # $ $ $ $ $ $ % &   * * { ] ^ / ( _ : < [ * &   ",
"  & } } & . | @ 1 2 $ $ $ $ $ % &   * 3 4 5 6 7 8 9 0 a b c &   ",
"  & & & & . d @ e f g $ $ $ $ % &   * h i j k l m n o p q r &   ",
"  & & & & . s @ t u v $ $ w x y &   * z A B C D E F G H I J &   ",
"  & @ @ & . s @ t u v $ K L M N &   * O P Q R S T U V W X Y &   ",
"  & & & & . Z @ `  ...+.@.#.$.% &   * %.&.*.=.-.;.>.,.'.).!.&   ",
"  & & & & . Z @ ` ~...+.@.#.{.% &   * ].^./.(._.:.<.[.}.|.1.&   ",
"  & 2.2.& .   @     3.  3.3.    &   * 4.5.6.7.8.9.0.a.b.c.3 &   ",
"  & & & & . + @ # d.u e.f.g.h.% &   * i.j.k.l.m.n.o.p.q.r.s.&   ",
"  & 2.2.& . + @ # t.u.v.w.x.$ % &   * y.z.A.B.C.D.E.F.G.H.= &   ",
"  & & & & . + @ # $ $ $ $ $ $ % &   * I.J.K.L.M.N.O.P.Q.R.* &   ",
"  . . . . . + @ # $ $ $ $ $ $ % &   * S.i.T.U.V.W.X.Y.Z.`.* &   ",
"  & & & & & & & & & & & & & & & &   * * * * * * * * * * * * &   ",
"                                                                ",
"   + +.+++++@+@+@+@+@+@+#+$+%+%+&+*+@ =+-+;+;+;+;+;+;+;+;+;+&   ",
"  ;+;+;+;+;+>+* * * * * * * * * * * * * * * * * * * * * * * &   ",
"  ,+,+& & & >+* * * * @ @ * * * * * * * * * * * * * * * * * &   ",
"  ;+;+;+;+;+>+* * @ @ * @ * * * * * * * * * * * * * * * * * &   ",
"  ,+,+& & & >+* * * * * * @ * '+'+* * * * * =+* * =+* * '+* &   ",
"  ;+;+;+;+;+>+* * * * * * @ '+* * '+* * * =+=+* =+* =+'+* * &   ",
"  ,+,+& & & >+* * * * '+'+* @ * * * '+* =+* * =+* * =+* * * &   ",
"  ;+;+;+;+;+>+* * * * * * * @ * * * * =+* * * * * '+* =+* * &   ",
"  ,+,+& & & >+* * * * * * * @ * * * * =+'+* * * '+* * =+* * &   ",
"  ;+;+;+;+;+>+* * * * * * * * @ * * =+* * '+* '+* * * * =+* &   ",
"  >+>+>+>+>+>+* =+=+=+=+=+=+=+@ =+=+* * * * '+* * * * * * * &   ",
"  ;+;+;+;+;+>+* * * * * * * * * @ * * * * * * * * * * * * * &   ",
"  ,+,+& & & >+* * * * * * * * * @ * * * * * * * * * * * * * &   ",
"  ;+;+;+;+;+>+* * * * * * * * * * * * * * * * * * * * * * * &   ",
"  & & & & & & & & & & & & & & & & & & & & & & & & & & & & & &   ",
"                                                                "};
