/* XPM */
static char * redDFK_xpm[] = {
"24 24 193 2",
"  	c #FF9696",
". 	c #FF8E8E",
"+ 	c #E59595",
"@ 	c #CB9E9E",
"# 	c #CCA0A1",
"$ 	c #DF9A9A",
"% 	c #EC9393",
"& 	c #CB9E9F",
"* 	c #E59797",
"= 	c #FF8686",
"- 	c #EA8C8C",
"; 	c #92B0B1",
"> 	c #96BABC",
", 	c #9DBBBC",
"' 	c #F88989",
") 	c #A6A5A6",
"! 	c #94B6B8",
"~ 	c #9CB9BA",
"{ 	c #F28C8D",
"] 	c #FF7D7D",
"^ 	c #BE999A",
"/ 	c #91C0C2",
"( 	c #94CACC",
"_ 	c #C2A6A7",
": 	c #C39091",
"< 	c #8DB3B4",
"[ 	c #92C3C4",
"} 	c #C9A2A3",
"| 	c #FF7373",
"1 	c #F77676",
"2 	c #90B7B9",
"3 	c #8ECDD0",
"4 	c #8ECFD1",
"5 	c #E98182",
"6 	c #EF7878",
"7 	c #8AA3A5",
"8 	c #89BCBE",
"9 	c #9BC0C3",
"0 	c #FF6969",
"a 	c #C68788",
"b 	c #84C5C8",
"c 	c #88D1D3",
"d 	c #A3B0B3",
"e 	c #A18B8B",
"f 	c #7EAEB0",
"g 	c #84C4C7",
"h 	c #E18283",
"i 	c #FF5E5E",
"j 	c #91A2A5",
"k 	c #7EC7CB",
"l 	c #7ECBCE",
"m 	c #D57B7C",
"n 	c #D16D6D",
"o 	c #729FA1",
"p 	c #79B8BA",
"q 	c #A6A7A9",
"r 	c #FF5454",
"s 	c #D96667",
"t 	c #72B8BB",
"u 	c #77C9CC",
"v 	c #86B6B8",
"w 	c #F65959",
"x 	c #F65858",
"y 	c #7A8F90",
"z 	c #6DABAD",
"A 	c #7CBABD",
"B 	c #EE6263",
"C 	c #FF4A4A",
"D 	c #958789",
"E 	c #6DBEC2",
"F 	c #6FC6CA",
"G 	c #B48183",
"H 	c #B27A7B",
"I 	c #66A8AB",
"J 	c #6BB7BA",
"K 	c #BF7F80",
"L 	c #FF3F3F",
"M 	c #EA4949",
"N 	c #68A5A7",
"O 	c #65C1C4",
"P 	c #70BDC0",
"Q 	c #6DB5B8",
"R 	c #64BDC0",
"S 	c #82A8AB",
"T 	c #FF3535",
"U 	c #A86565",
"V 	c #5AB2B5",
"W 	c #61C7CB",
"X 	c #62CDD1",
"Y 	c #61CCCF",
"Z 	c #D75859",
"` 	c #FF2B2B",
" .	c #639093",
"..	c #57C0C4",
"+.	c #5DD2D6",
"@.	c #999295",
"#.	c #FF2222",
"$.	c #F32626",
"%.	c #4D888A",
"&.	c #4EB7BB",
"*.	c #56D0D5",
"=.	c #6AB9BC",
"-.	c #FF1A1A",
";.	c #8A4546",
">.	c #3B8A8E",
",.	c #48B5BA",
"'.	c #50CFD4",
").	c #4FCDD2",
"!.	c #AE5C5D",
"~.	c #FF1212",
"{.	c #D61E1E",
"].	c #2E6F71",
"^.	c #399599",
"/.	c #669A9D",
"(.	c #49CCD1",
"_.	c #4DACB0",
":.	c #F31A1A",
"<.	c #FF0B0B",
"[.	c #59484A",
"}.	c #2D8184",
"|.	c #38A3A7",
"1.	c #CF3738",
"2.	c #877D80",
"3.	c #42C2C7",
"4.	c #3FB9BE",
"5.	c #82696C",
"6.	c #FF0505",
"7.	c #9B2525",
"8.	c #246D70",
"9.	c #309599",
"0.	c #75797C",
"a.	c #F20F0F",
"b.	c #419EA2",
"c.	c #39B3B7",
"d.	c #37AFB3",
"e.	c #D81F1F",
"f.	c #FF0000",
"g.	c #F00404",
"h.	c #285758",
"i.	c #278488",
"j.	c #3D9CA0",
"k.	c #E51516",
"l.	c #934244",
"m.	c #2FA0A4",
"n.	c #35B1B6",
"o.	c #637A7E",
"p.	c #6E3233",
"q.	c #227477",
"r.	c #2E9BA0",
"s.	c #995759",
"t.	c #42777A",
"u.	c #32A9AE",
"v.	c #34AFB4",
"w.	c #B03839",
"x.	c #C41212",
"y.	c #1E6467",
"z.	c #2A8D91",
"A.	c #4B959A",
"B.	c #C71C1C",
"C.	c #2D979B",
"D.	c #4A9396",
"E.	c #F10808",
"F.	c #444749",
"G.	c #257D81",
"H.	c #30A2A7",
"I.	c #BF3738",
"J.	c #5C6063",
"K.	c #31A5A9",
"L.	c #964D4F",
"M.	c #992122",
"N.	c #206C6F",
"O.	c #2C959A",
"P.	c #668387",
"Q.	c #E30D0D",
"R.	c #2B9296",
"S.	c #34AEB3",
"T.	c #33ACB0",
"U.	c #E41112",
"V.	c #E10808",
"W.	c #275153",
"X.	c #247B7E",
"Y.	c #2F9DA1",
"Z.	c #E51515",
"`.	c #834345",
" +	c #2E9CA1",
".+	c #6D676A",
"++	c #C61617",
"@+	c #C81E1F",
"#+	c #D71B1C",
"$+	c #F10606",
"%+	c #C92021",
"&+	c #CA2526",
"*+	c #C92324",
"                                                ",
". . . . + @ # $ . . . . . . . . % & # * . . . . ",
"= = = = - ; > , ' = = = = = = = ) ! ~ { = = = = ",
"] ] ] ] ] ^ / ( _ ] ] ] ] ] ] : < [ } ] ] ] ] ] ",
"| | | | | 1 2 3 4 5 | | | | 6 7 8 9 | | | | | | ",
"0 0 0 0 0 0 a b c d 0 0 0 0 e f g h 0 0 0 0 0 0 ",
"i i i i i i i j k l m i i n o p q i i i i i i i ",
"r r r r r r r s t u v w x y z A B r r r r r r r ",
"C C C C C C C C D E F G H I J K C C C C C C C C ",
"L L L L L L L L M N O P Q R S L L L L L L L L L ",
"T T T T T T T T T U V W X Y Z T T T T T T T T T ",
"` ` ` ` ` ` ` ` ` `  ...+.@.` ` ` ` ` ` ` ` ` ` ",
"#.#.#.#.#.#.#.#.#.$.%.&.*.=.#.#.#.#.#.#.#.#.#.#.",
"-.-.-.-.-.-.-.-.-.;.>.,.'.).!.-.-.-.-.-.-.-.-.-.",
"~.~.~.~.~.~.~.~.{.].^./.(.(._.:.~.~.~.~.~.~.~.~.",
"<.<.<.<.<.<.<.<.[.}.|.1.2.3.4.5.<.<.<.<.<.<.<.<.",
"6.6.6.6.6.6.6.7.8.9.0.6.a.b.c.d.e.6.6.6.6.6.6.6.",
"f.f.f.f.f.f.g.h.i.j.k.f.f.l.m.n.o.f.f.f.f.f.f.f.",
"f.f.f.f.f.f.p.q.r.s.f.f.f.f.t.u.v.w.f.f.f.f.f.f.",
"f.f.f.f.f.x.y.z.A.f.f.f.f.f.B.C.n.D.E.f.f.f.f.f.",
"f.f.f.f.f.F.G.H.I.f.f.f.f.f.f.J.K.n.L.f.f.f.f.f.",
"f.f.f.f.M.N.O.P.f.f.f.f.f.f.f.Q.R.S.T.U.f.f.f.f.",
"f.f.f.V.W.X.Y.Z.f.f.f.f.f.f.f.f.`. +u..+f.f.f.f.",
"f.f.f.g.++@+#+f.f.f.f.f.f.f.f.f.$+%+&+*+f.f.f.f."};
