/* XPM */
static char * sculptDFK_xpm[] = {
"26 26 417 2",
"  	c #3E3E3E",
". 	c #3E3D3E",
"+ 	c #3D3D3E",
"@ 	c #3E3E3D",
"# 	c #3D3E3E",
"$ 	c #414241",
"% 	c #414242",
"& 	c #414141",
"* 	c #424242",
"= 	c #414142",
"- 	c #4C3C3C",
"; 	c #4B3D3C",
"> 	c #444041",
", 	c #483E3D",
"' 	c #4C3D3C",
") 	c #454141",
"! 	c #424142",
"~ 	c #424241",
"{ 	c #424141",
"] 	c #464646",
"^ 	c #454546",
"/ 	c #464645",
"( 	c #464545",
"_ 	c #553D3E",
": 	c #6D3030",
"< 	c #653434",
"[ 	c #563C3D",
"} 	c #633535",
"| 	c #702E2F",
"1 	c #5E3938",
"2 	c #454545",
"3 	c #513F3F",
"4 	c #563D3C",
"5 	c #4A4444",
"6 	c #454646",
"7 	c #4A4B4A",
"8 	c #4A4A4A",
"9 	c #4B4A4A",
"0 	c #4B4A4B",
"a 	c #594242",
"b 	c #703434",
"c 	c #762B32",
"d 	c #9B191A",
"e 	c #8B2424",
"f 	c #7B2D2D",
"g 	c #991C1C",
"h 	c #763030",
"i 	c #4A4B4B",
"j 	c #623D3D",
"k 	c #6A3737",
"l 	c #524546",
"m 	c #4A4A4B",
"n 	c #4F4F4F",
"o 	c #664040",
"p 	c #6C2F3D",
"q 	c #772735",
"r 	c #8B2727",
"s 	c #762B36",
"t 	c #A0171A",
"u 	c #C70000",
"v 	c #B10F0F",
"w 	c #7C3131",
"x 	c #9A1D1D",
"y 	c #555454",
"z 	c #545454",
"A 	c #545554",
"B 	c #614A4A",
"C 	c #773B3B",
"D 	c #653846",
"E 	c #6C3041",
"F 	c #872F2F",
"G 	c #831F30",
"H 	c #7A2237",
"I 	c #7F3534",
"J 	c #A81216",
"K 	c #9C1F1F",
"L 	c #5A5959",
"M 	c #5A5A5A",
"N 	c #5A595A",
"O 	c #595A59",
"P 	c #66504F",
"Q 	c #7B3F3E",
"R 	c #724645",
"S 	c #4E4D5F",
"T 	c #6D3646",
"U 	c #A11F1F",
"V 	c #7D2337",
"W 	c #831F33",
"X 	c #7C3E3D",
"Y 	c #911427",
"Z 	c #BA0B0B",
"` 	c #5A5A59",
" .	c #595A5A",
"..	c #595959",
"+.	c #59595A",
"@.	c #605F5F",
"#.	c #5F5F5F",
"$.	c #615D5D",
"%.	c #705050",
"&.	c #6F5050",
"*.	c #674151",
"=.	c #8C2832",
"-.	c #8E3435",
";.	c #543E5D",
">.	c #5D3254",
",.	c #A71D1E",
"'.	c #9D061D",
").	c #A02323",
"!.	c #5F605F",
"~.	c #656565",
"{.	c #656465",
"].	c #646565",
"^.	c #686261",
"/.	c #6F3D4F",
"(.	c #74424E",
"_.	c #686162",
":.	c #4B4B6B",
"<.	c #772C43",
"[.	c #B31214",
"}.	c #1C1B77",
"|.	c #722645",
"1.	c #A22526",
"2.	c #656564",
"3.	c #6B6B6B",
"4.	c #726363",
"5.	c #726362",
"6.	c #6C6969",
"7.	c #68686B",
"8.	c #53536F",
"9.	c #685F66",
"0.	c #574667",
"a.	c #8B2637",
"b.	c #993535",
"c.	c #716464",
"d.	c #272675",
"e.	c #2C2B74",
"f.	c #8D4343",
"g.	c #7C5756",
"h.	c #6A6B6B",
"i.	c #6B6A6B",
"j.	c #6B6B6A",
"k.	c #717171",
"l.	c #707170",
"m.	c #7B6464",
"n.	c #8B4F4F",
"o.	c #865555",
"p.	c #6D5564",
"q.	c #734658",
"r.	c #8D4D4D",
"s.	c #815C5C",
"t.	c #4C4B74",
"u.	c #635068",
"v.	c #7C6363",
"w.	c #746D6D",
"x.	c #353671",
"y.	c #1D1C76",
"z.	c #5D6362",
"A.	c #5F6561",
"B.	c #626764",
"C.	c #717071",
"D.	c #707171",
"E.	c #777777",
"F.	c #777677",
"G.	c #806969",
"H.	c #8A4D53",
"I.	c #84394B",
"J.	c #A82629",
"K.	c #A13939",
"L.	c #717177",
"M.	c #613A61",
"N.	c #99353B",
"O.	c #874C49",
"P.	c #314B3A",
"Q.	c #1A2C4D",
"R.	c #1B1A77",
"S.	c #193534",
"T.	c #183A24",
"U.	c #183823",
"V.	c #284131",
"W.	c #5F6763",
"X.	c #7D7D7D",
"Y.	c #7D7D7E",
"Z.	c #7A7A7E",
"`.	c #754F64",
" +	c #854957",
".+	c #9B4B4B",
"++	c #A23E3E",
"@+	c #84394D",
"#+	c #8E293D",
"$+	c #993B3A",
"%+	c #4B3222",
"&+	c #334331",
"*+	c #1A3146",
"=+	c #624157",
"-+	c #5F3E33",
";+	c #243823",
">+	c #203F2B",
",+	c #193924",
"'+	c #606863",
")+	c #7E7D7D",
"!+	c #838383",
"~+	c #838484",
"{+	c #828183",
"]+	c #745D71",
"^+	c #854959",
"/+	c #916465",
"(+	c #95595B",
"_+	c #8D3547",
":+	c #8D293E",
"<+	c #9B4449",
"[+	c #6B3126",
"}+	c #AC0F0B",
"|+	c #354557",
"1+	c #5C104A",
"2+	c #AE3131",
"3+	c #485D4F",
"4+	c #20412D",
"5+	c #45584C",
"6+	c #203C2A",
"7+	c #7D7F7D",
"8+	c #838384",
"9+	c #89898A",
"0+	c #898989",
"a+	c #7D6576",
"b+	c #864A5C",
"c+	c #926469",
"d+	c #706F85",
"e+	c #753D5D",
"f+	c #A3212D",
"g+	c #A34145",
"h+	c #9C3C3A",
"i+	c #563021",
"j+	c #8E4A45",
"k+	c #AD181F",
"l+	c #A12531",
"m+	c #868787",
"n+	c #274733",
"o+	c #56655B",
"p+	c #284433",
"q+	c #56635B",
"r+	c #898A89",
"s+	c #908F8F",
"t+	c #8F8F8F",
"u+	c #7F7C88",
"v+	c #7B5C73",
"w+	c #806174",
"x+	c #5E5981",
"y+	c #714B6C",
"z+	c #A23E45",
"A+	c #A84F4F",
"B+	c #987979",
"C+	c #6F5046",
"D+	c #8A312A",
"E+	c #78473E",
"F+	c #97221D",
"G+	c #B2030E",
"H+	c #75758A",
"I+	c #8F8F90",
"J+	c #57695D",
"K+	c #3A5342",
"L+	c #56665B",
"M+	c #3A5042",
"N+	c #959595",
"O+	c #8A8A92",
"P+	c #69688A",
"Q+	c #5D5D88",
"R+	c #5E5D87",
"S+	c #7E778B",
"T+	c #A16F70",
"U+	c #A27070",
"V+	c #979090",
"W+	c #496152",
"X+	c #6F584F",
"Y+	c #842824",
"Z+	c #9D071D",
"`+	c #99241F",
" @	c #5F7065",
".@	c #4C6355",
"+@	c #435D4D",
"@@	c #284834",
"#@	c #6A756F",
"$@	c #2A4534",
"%@	c #9B9B9A",
"&@	c #989899",
"*@	c #63628B",
"=@	c #525186",
"-@	c #7D7C93",
";@	c #989799",
">@	c #9A9B9A",
",@	c #8A8996",
"'@	c #818193",
")@	c #69698C",
"!@	c #585887",
"~@	c #252F64",
"{@	c #5F1743",
"]@	c #4A4984",
"^@	c #A2575E",
"/@	c #B63A39",
"(@	c #9B9B9B",
"_@	c #6E7C72",
":@	c #274833",
"<@	c #2A4734",
"[@	c #294534",
"}@	c #9A9A9A",
"|@	c #9A9B9B",
"1@	c #A0A0A0",
"2@	c #757492",
"3@	c #4F4E86",
"4@	c #8B8A9A",
"5@	c #65648E",
"6@	c #3D3D82",
"7@	c #212079",
"8@	c #232279",
"9@	c #36357F",
"0@	c #2F3473",
"a@	c #262850",
"b@	c #7F2330",
"c@	c #8E3136",
"d@	c #4E564E",
"e@	c #9FA0A0",
"f@	c #AF6464",
"g@	c #B45050",
"h@	c #A78182",
"i@	c #5A6E62",
"j@	c #4A6252",
"k@	c #526659",
"l@	c #173723",
"m@	c #808782",
"n@	c #A2A2A4",
"o@	c #525189",
"p@	c #676791",
"q@	c #2A297C",
"r@	c #33337F",
"s@	c #6E6D93",
"t@	c #8D8C9D",
"u@	c #A5A5A5",
"v@	c #8D948F",
"w@	c #2F513B",
"x@	c #21452E",
"y@	c #858D88",
"z@	c #22442E",
"A@	c #989B99",
"B@	c #9FA09F",
"C@	c #294B36",
"D@	c #64756A",
"E@	c #23422E",
"F@	c #3F5648",
"G@	c #A0A1A0",
"H@	c #83829C",
"I@	c #4F4E89",
"J@	c #4D4D89",
"K@	c #A8A8A8",
"L@	c #A9AAAA",
"M@	c #AAA9AA",
"N@	c #AAAAA9",
"O@	c #AAAAAA",
"P@	c #A7A8A7",
"Q@	c #4E6757",
"R@	c #1E432C",
"S@	c #2A4B36",
"T@	c #375542",
"U@	c #63766A",
"V@	c #718076",
"W@	c #5B7163",
"X@	c #3D5B48",
"Y@	c #234731",
"Z@	c #1C3F29",
"`@	c #334F3D",
" #	c #A8A9A8",
".#	c #59588E",
"+#	c #2C2C7E",
"@#	c #484788",
"##	c #ABABAE",
"$#	c #AFAEAF",
"%#	c #AEAEAE",
"&#	c #AEAFAE",
"*#	c #AEAFAF",
"=#	c #A5A8A7",
"-#	c #3B5946",
";#	c #264A32",
">#	c #1C4229",
",#	c #2D4F3A",
"'#	c #66796D",
")#	c #32533E",
"!#	c #20432D",
"~#	c #979C9A",
"{#	c #AEAEAF",
"]#	c #302F7F",
"^#	c #403F86",
"/#	c #AEAEB1",
"(#	c #B3B3B2",
"_#	c #B2B3B3",
":#	c #B2B2B3",
"<#	c #B2B3B2",
"[#	c #B2B2B2",
"}#	c #B3B2B3",
"|#	c #ADAEAE",
"1#	c #617568",
"2#	c #254931",
"3#	c #1B4129",
"4#	c #53695B",
"5#	c #A0A4A1",
"6#	c #333281",
"7#	c #ADADB2",
"8#	c #B6B6B6",
"9#	c #B7B6B6",
"0#	c #B6B6B7",
"a#	c #B6B7B6",
"b#	c #ACACB4",
"c#	c #B9B9B9",
"d#	c #B9BAB9",
"e#	c #BAB9BA",
"f#	c #BAB9B9",
"g#	c #B9B9BA",
"h#	c #BABAB9",
"i#	c #B9BABA",
"j#	c #BCBCBC",
"                              .     +     .   @   # ",
"$ % & * = - ; > $ & , ' ) * ! * % ~ ! * $ $ { ! % = ",
"] ^ / ] ( _ : < [ } | 1 2 3 4 5 / 6 6 ^ ^ / / ] 6 / ",
"7 8 9 9 0 7 a b c d e 8 f g h 7 i j k l 8 m m 8 8 8 ",
"n n n n n n n o p q r s t u v n w u x n n n n n n n ",
"y z A z z z B C D E F G H I u J u K z y z z z y A y ",
"L L M N O P Q R S T U V W X Y u Z `  .M N  ...L +.O ",
"@.#.#.#.$.%.&.$.*.=.-.;.>.,.u '.u ).@.!.@.#.#.#.#.#.",
"~.{.~.~.~.~.].^./.(._.:.<.u [.}.|.u 1.~.~.~.2.~.~.~.",
"3.3.3.3.4.5.6.7.8.9.4.0.a.b.c.d.e.f.b.g.3.3.h.i.j.i.",
"k.l.k.k.m.n.o.p.q.r.s.t.u.v.w.x.y.z.A.B.C.C.k.D.D.C.",
"E.E.E.F.E.G.H.I.J.K.L.M.N.O.P.Q.R.S.T.U.V.W.E.E.E.E.",
"X.X.X.Y.X.Z.`. +.+++@+#+$+%+&+*+R.=+-+;+>+,+'+X.)+X.",
"!+~+!+!+{+]+^+/+(+_+:+<+[+u }+|+1+u 2+3+4+5+6+7+!+8+",
"9+0+0+0+a+b+c+d+e+f+g+h+i+j+u k+u l+0+m+n+o+p+q+r+0+",
"s+t+t+u+v+w+x+y+z+A+B+C+D+E+F+u G+H+I+s+J+K+L+M+s+t+",
"N+N+O+P+Q+R+S+T+U+V+N+W+X+Y+u Z+u `+ @.@+@@@#@$@N+N+",
"%@&@*@=@-@;@>@,@'@)@!@~@{@u Z+]@^@u /@(@_@:@<@[@}@|@",
"1@2@3@4@5@6@7@R.8@9@0@a@b@c@d@e@1@f@g@h@i@j@k@l@m@1@",
"n@o@p@q@r@s@t@u@u@u@v@w@x@y@z@A@u@u@u@B@C@D@E@F@G@u@",
"H@I@q@J@K@L@M@N@O@O@L@P@Q@R@S@T@U@V@W@X@Y@Z@`@ #O@N@",
".#+#@###$#%#%#&#*#%#%#&#=#-#;#>#,#'#)#>#!#n+~#%#%#{#",
"]#^#/#(#_#:#<#[#}#_#[#<#[#|#1#2#>#>#3#!#4#5#<#[#(#<#",
"6#7#8#8#8#8#9#8#8#8#0#8#8#8#a#8#8#8#8#8#8#0#8#8#0#8#",
"b#c#d#c#d#c#e#c#f#c#d#c#e#d#c#c#g#c#h#g#c#c#g#i#f#f#",
"j#j#j#j#j#j#j#j#j#j#j#j#j#j#j#j#j#j#j#j#j#j#j#j#j#j#"};
