/* XPM */
static char * sineDFK_xpm[] = {
"24 24 413 2",
"  	c #383838",
". 	c #383939",
"+ 	c #393939",
"@ 	c #393A3A",
"# 	c #3A3B3B",
"$ 	c #3A3A3A",
"% 	c #3C3E3E",
"& 	c #3F4142",
"* 	c #3E4041",
"= 	c #3C3D3E",
"- 	c #3B3B3B",
"; 	c #3E3E3F",
"> 	c #3D4041",
", 	c #3B444B",
"' 	c #374955",
") 	c #374C5A",
"! 	c #364C5A",
"~ 	c #364C5B",
"{ 	c #355062",
"] 	c #33536A",
"^ 	c #33546B",
"/ 	c #34556B",
"( 	c #34546A",
"_ 	c #345770",
": 	c #315772",
"< 	c #2D4A5C",
"[ 	c #2C3841",
"} 	c #2B2E31",
"| 	c #353535",
"1 	c #3C3C3C",
"2 	c #3D3D3D",
"3 	c #3B3C3B",
"4 	c #414C53",
"5 	c #305773",
"6 	c #1C608F",
"7 	c #13659E",
"8 	c #1167A4",
"9 	c #1068A6",
"0 	c #106AA8",
"a 	c #0F6BAC",
"b 	c #0E6CAD",
"c 	c #0F6EB1",
"d 	c #106EAF",
"e 	c #0F65A0",
"f 	c #0B3F64",
"g 	c #072033",
"h 	c #070F16",
"i 	c #101010",
"j 	c #3C3A39",
"k 	c #424242",
"l 	c #3F3F3F",
"m 	c #3E3F3F",
"n 	c #3F3F3E",
"o 	c #344F61",
"p 	c #166095",
"q 	c #0B6EB2",
"r 	c #0A71B9",
"s 	c #0A72BC",
"t 	c #0A73BC",
"u 	c #0B73BD",
"v 	c #0B75BF",
"w 	c #0B76C1",
"x 	c #0A6AAD",
"y 	c #043354",
"z 	c #011A2B",
"A 	c #000F1B",
"B 	c #031829",
"C 	c #142636",
"D 	c #494C4D",
"E 	c #444344",
"F 	c #444343",
"G 	c #434443",
"H 	c #434343",
"I 	c #434344",
"J 	c #46525B",
"K 	c #215E89",
"L 	c #0C68AA",
"M 	c #096FB5",
"N 	c #0A71BA",
"O 	c #0974BE",
"P 	c #0A74BF",
"Q 	c #0C77C2",
"R 	c #0A6BAF",
"S 	c #023457",
"T 	c #002B4B",
"U 	c #013255",
"V 	c #043960",
"W 	c #173E5C",
"X 	c #444B50",
"Y 	c #484949",
"Z 	c #484848",
"` 	c #494848",
" .	c #494948",
"..	c #484948",
"+.	c #515252",
"@.	c #525C63",
"#.	c #3E6179",
"$.	c #216391",
"%.	c #1067A6",
"&.	c #0D6FB3",
"*.	c #0C72BC",
"=.	c #0973C1",
"-.	c #0B75C0",
";.	c #0B77C2",
">.	c #0C75BE",
",.	c #0963A1",
"'.	c #044D82",
").	c #02416E",
"!.	c #023D67",
"~.	c #0F4063",
"{.	c #334656",
"].	c #4A4C4E",
"^.	c #4E4E4D",
"/.	c #4D4D4E",
"(.	c #4D4E4E",
"_.	c #4E4E4E",
":.	c #535354",
"<.	c #565756",
"[.	c #545A5E",
"}.	c #476172",
"|.	c #28638D",
"1.	c #1369A7",
"2.	c #0D71B8",
"3.	c #085B96",
"4.	c #054C7C",
"5.	c #073F68",
"6.	c #173F5D",
"7.	c #314858",
"8.	c #414D56",
"9.	c #474F57",
"0.	c #515356",
"a.	c #535353",
"b.	c #535453",
"c.	c #535454",
"d.	c #595A59",
"e.	c #5A5A5A",
"f.	c #5B5B5C",
"g.	c #595F61",
"h.	c #45657B",
"i.	c #1F6BA0",
"j.	c #0E72B7",
"k.	c #0D7BC8",
"l.	c #0D7AC7",
"m.	c #0B6CB1",
"n.	c #085992",
"o.	c #084D7C",
"p.	c #0D456D",
"q.	c #144262",
"r.	c #1E425F",
"s.	c #31495D",
"t.	c #4A535A",
"u.	c #55585B",
"v.	c #606060",
"w.	c #616364",
"x.	c #4A6B84",
"y.	c #156EAE",
"z.	c #0B74BC",
"A.	c #0D77C5",
"B.	c #0C75BD",
"C.	c #0A63A0",
"D.	c #064F83",
"E.	c #064471",
"F.	c #0D4265",
"G.	c #1D4563",
"H.	c #324D62",
"I.	c #475863",
"J.	c #666767",
"K.	c #676766",
"L.	c #676767",
"M.	c #676666",
"N.	c #666667",
"O.	c #676667",
"P.	c #606D75",
"Q.	c #1A6CA7",
"R.	c #0D73BB",
"S.	c #0973BE",
"T.	c #0A76BF",
"U.	c #0C75C1",
"V.	c #0B77C4",
"W.	c #0D78C5",
"X.	c #0F7BC8",
"Y.	c #107ECB",
"Z.	c #0F7AC4",
"`.	c #0A65A7",
" +	c #065083",
".+	c #064370",
"++	c #0A3F69",
"@+	c #285370",
"#+	c #6D6D6E",
"$+	c #6E6E6D",
"%+	c #6D6E6D",
"&+	c #696B6E",
"*+	c #456278",
"=+	c #1C72B2",
"-+	c #0B73BC",
";+	c #0A75C2",
">+	c #0D78C2",
",+	c #0D7AC5",
"'+	c #107BC6",
")+	c #064A7A",
"!+	c #345E7B",
"~+	c #747575",
"{+	c #757575",
"]+	c #757675",
"^+	c #727678",
"/+	c #67717A",
"(+	c #5B717E",
"_+	c #47718E",
":+	c #2773A8",
"<+	c #0F73B9",
"[+	c #0773BE",
"}+	c #0A73BF",
"|+	c #0F78C4",
"1+	c #0F79C6",
"2+	c #127BC4",
"3+	c #187BBE",
"4+	c #2872A6",
"5+	c #5B7588",
"6+	c #7C7C7C",
"7+	c #797D80",
"8+	c #63798A",
"9+	c #42769A",
"0+	c #2B74A6",
"a+	c #2073AD",
"b+	c #1872B3",
"c+	c #0E72B8",
"d+	c #0972BC",
"e+	c #0872BD",
"f+	c #0A72BD",
"g+	c #1378C1",
"h+	c #277AB4",
"i+	c #467BA1",
"j+	c #687D8D",
"k+	c #7E8183",
"l+	c #838282",
"m+	c #818488",
"n+	c #617F93",
"o+	c #2E74A6",
"p+	c #1671B3",
"q+	c #0871BB",
"r+	c #0771BB",
"s+	c #0771BC",
"t+	c #0875C1",
"u+	c #0B71BB",
"v+	c #0A6FB6",
"w+	c #0A6CAF",
"x+	c #2873A8",
"y+	c #6D8798",
"z+	c #848787",
"A+	c #828284",
"B+	c #828282",
"C+	c #8A8989",
"D+	c #898A8A",
"E+	c #8A8C8C",
"F+	c #758894",
"G+	c #3C7AA4",
"H+	c #1472B5",
"I+	c #0971BA",
"J+	c #0772BD",
"K+	c #0870B9",
"L+	c #0763A4",
"M+	c #05558E",
"N+	c #055189",
"O+	c #034F82",
"P+	c #03497B",
"Q+	c #024779",
"R+	c #034575",
"S+	c #0A4773",
"T+	c #345D7A",
"U+	c #7B8388",
"V+	c #8A898A",
"W+	c #898989",
"X+	c #919190",
"Y+	c #909090",
"Z+	c #899297",
"`+	c #4880A7",
" @	c #106FB5",
".@	c #0771BA",
"+@	c #0572BD",
"@@	c #013F6C",
"#@	c #023F6C",
"$@	c #013E69",
"%@	c #013D66",
"&@	c #013C65",
"*@	c #023B64",
"=@	c #0A3F66",
"-@	c #375A74",
";@	c #80878C",
">@	c #909091",
",@	c #979797",
"'@	c #959B9F",
")@	c #6392B1",
"!@	c #1B79BC",
"~@	c #086FB9",
"{@	c #0662A1",
"]@	c #034B7F",
"^@	c #023B65",
"/@	c #013B64",
"(@	c #003C67",
"_@	c #023D66",
":@	c #074067",
"<@	c #255372",
"[@	c #687B88",
"}@	c #909395",
"|@	c #969797",
"1@	c #9D9D9D",
"2@	c #9D9E9D",
"3@	c #9D9E9E",
"4@	c #979C9E",
"5@	c #537B97",
"6@	c #1C74B1",
"7@	c #0766AA",
"8@	c #024371",
"9@	c #033E66",
"0@	c #0E456B",
"a@	c #2F5A78",
"b@	c #627A8A",
"c@	c #8F9599",
"d@	c #9E9D9D",
"e@	c #A3A4A4",
"f@	c #A4A4A4",
"g@	c #A4A4A3",
"h@	c #A3A3A3",
"i@	c #A2A2A3",
"j@	c #91979B",
"k@	c #5782A1",
"l@	c #247CB9",
"m@	c #1074BA",
"n@	c #0A72BB",
"o@	c #0A74BE",
"p@	c #01406A",
"q@	c #013A63",
"r@	c #043F6A",
"s@	c #10466D",
"t@	c #486B83",
"u@	c #999EA0",
"v@	c #A9A9AA",
"w@	c #AAA9A9",
"x@	c #A9A9A9",
"y@	c #AAAAA9",
"z@	c #A9AAA9",
"A@	c #A9A8AA",
"B@	c #94A0A8",
"C@	c #588DB3",
"D@	c #2B7CB6",
"E@	c #1676B9",
"F@	c #0D73BA",
"G@	c #066CB2",
"H@	c #045A98",
"I@	c #014979",
"J@	c #033B65",
"K@	c #0D416A",
"L@	c #5D798D",
"M@	c #A7AAA9",
"N@	c #AEAFAF",
"O@	c #AFAFAF",
"P@	c #AFAFAE",
"Q@	c #AFAEAE",
"R@	c #ADAFAF",
"S@	c #A0AAB1",
"T@	c #769AB3",
"U@	c #508CB6",
"V@	c #2C7EB7",
"W@	c #1375BB",
"X@	c #0C73BC",
"Y@	c #014473",
"Z@	c #0E426C",
"`@	c #678192",
" #	c #B0B0AF",
".#	c #B4B4B3",
"+#	c #B3B3B4",
"@#	c #B4B4B4",
"##	c #B4B3B4",
"$#	c #B4B3B3",
"%#	c #B0B2B5",
"&#	c #A4AEB6",
"*#	c #88A3B7",
"=#	c #5690B9",
"-#	c #277DB9",
";#	c #0472BD",
">#	c #0673C2",
",#	c #0671BD",
"'#	c #025FA0",
")#	c #0A4D7E",
"!#	c #698494",
"~#	c #B3B4B3",
"{#	c #B9B9B8",
"]#	c #B8B9B8",
"^#	c #B8B8B9",
"/#	c #B8B8B8",
"(#	c #B7B9B9",
"_#	c #ABB3BA",
":#	c #7FA3BB",
"<#	c #448ABC",
"[#	c #1E7BBD",
"}#	c #1477BC",
"|#	c #1579BE",
"1#	c #177ABE",
"2#	c #2273AB",
"3#	c #7793A4",
"4#	c #BCBBBC",
"5#	c #BBBCBC",
"6#	c #BCBBBB",
"7#	c #BCBCBC",
"8#	c #BBBCBB",
"9#	c #BDBDBD",
"0#	c #ADB9BF",
"a#	c #86AAC1",
"b#	c #6B9DBF",
"c#	c #6F9EBE",
"d#	c #74A0BE",
"e#	c #81A6BE",
"f#	c #AAB7BF",
"      . + + . @ # # # $ $ % & * = - $ $         ",
"; > , ' ) ! ~ { ] ^ / ( _ : < [ } | 1 2 3 - - 3 ",
"4 5 6 7 8 9 0 a b c d e f g h i j k l l m l n l ",
"o p q r s t u v w w x y z A B C D E F F G H I H ",
"J K L M N O P P w Q R S T U V W X Y Z `  .Y Z ..",
"+.@.#.$.%.&.*.=.-.;.>.,.'.).!.~.{.].^./.(.(./._.",
":.:.<.[.}.|.1.2.P -.Q Q R 3.4.5.6.7.8.9.0.a.b.c.",
"d.e.e.e.f.g.h.i.j.O w Q k.l.m.n.o.p.q.r.s.t.u.e.",
"v.v.v.v.v.v.w.x.y.z.O w ;.A.k.k.B.C.D.E.F.G.H.I.",
"J.K.L.M.N.O.K.P.Q.R.S.T.U.Q V.W.X.Y.Z.`. +.+++@+",
"#+$+%+$+%+%+&+*+=+-+S.S.P ;+V.Q >+,+X.Y.'+`.)+!+",
"~+{+]+^+/+(+_+:+<+[+O }+P P ;+w Q >+|+1+2+3+4+5+",
"6+7+8+9+0+a+b+c+d+S.e+f+O P -.w Q Q V.g+h+i+j+k+",
"l+m+n+o+p+r q+r+r+s+e+e+t+t+P u+u+v+w+x+y+z+A+B+",
"C+D+E+F+G+H+I+r+r+J+K+L+M+N+O+P+Q+R+S+T+U+V+C+W+",
"X+Y+Y+Y+Z+`+ @.@s++@v+O+@@#@$@%@&@*@=@-@;@Y+Y+>@",
",@,@,@,@,@'@)@!@d+e+~@{@]@^@/@%@(@_@:@<@[@}@|@,@",
"1@2@3@1@1@2@4@5@6@R.s+q+7@M+8@/@/@_@9@0@a@b@c@d@",
"e@f@g@e@h@e@i@j@k@l@m@n@o@~@{@O+p@q@&@r@s@t@u@e@",
"v@w@x@v@w@y@z@A@B@C@D@E@F@e+t+G@H@I@%@J@K@L@M@y@",
"N@O@P@O@Q@N@P@O@R@S@T@U@V@W@X@t+t+7@N+Y@Z@`@ #O@",
".#+#+#@#####$#.#$#.#%#&#*#=#-#R.;#>#,#'#)#!#@#~#",
"{#]#^#/#^#/#/#/#/#/#/#/#(#_#:#<#[#}#|#1#2#3#/#/#",
"4#5#4#6#7#8#7#7#7#5#4#7#7#7#9#0#a#b#c#d#e#f#7#7#"};
