/* XPM */
static char * squashDFK_xpm[] = {
"24 24 369 2",
"  	c #383838",
". 	c #3B3B3B",
"+ 	c #3B3C3C",
"@ 	c #3C3C3B",
"# 	c #3B3C3B",
"$ 	c #3B3B3C",
"% 	c #3C3B3B",
"& 	c #3F3F3F",
"* 	c #3E3F3F",
"= 	c #3F3E3F",
"- 	c #40403F",
"; 	c #404040",
"> 	c #414141",
", 	c #424242",
"' 	c #3F403F",
") 	c #434343",
"! 	c #444343",
"~ 	c #444443",
"{ 	c #454645",
"] 	c #464848",
"^ 	c #4B4D4E",
"/ 	c #4B5052",
"( 	c #454D52",
"_ 	c #404A50",
": 	c #3C4850",
"< 	c #35434D",
"[ 	c #31424E",
"} 	c #344450",
"| 	c #374753",
"1 	c #394954",
"2 	c #3D4A53",
"3 	c #404950",
"4 	c #42494E",
"5 	c #454B50",
"6 	c #474E51",
"7 	c #474B4C",
"8 	c #464546",
"9 	c #484848",
"0 	c #4D4F4F",
"a 	c #4E5A60",
"b 	c #485F6F",
"c 	c #3E5F75",
"d 	c #265476",
"e 	c #12486E",
"f 	c #0A3C61",
"g 	c #0A3355",
"h 	c #0A3151",
"i 	c #09304F",
"j 	c #082E4E",
"k 	c #082C4C",
"l 	c #082C4B",
"m 	c #0A2E4B",
"n 	c #0D2F4B",
"o 	c #0F324E",
"p 	c #103554",
"q 	c #103958",
"r 	c #153D5B",
"s 	c #2A475C",
"t 	c #4C5458",
"u 	c #4E4D4E",
"v 	c #525453",
"w 	c #486273",
"x 	c #20699C",
"y 	c #0C6AAF",
"z 	c #046AB6",
"A 	c #026BB6",
"B 	c #0268AF",
"C 	c #0563A6",
"D 	c #055E9A",
"E 	c #045791",
"F 	c #04528A",
"G 	c #034E83",
"H 	c #014A7B",
"I 	c #024474",
"J 	c #003F6D",
"K 	c #023C66",
"L 	c #01355B",
"M 	c #01365D",
"N 	c #003A65",
"O 	c #013C69",
"P 	c #023B66",
"Q 	c #08385D",
"R 	c #2B4D64",
"S 	c #545453",
"T 	c #545F67",
"U 	c #2A6E9D",
"V 	c #0F79C5",
"W 	c #0C80D3",
"X 	c #0B82D6",
"Y 	c #0B83D5",
"Z 	c #0C80D4",
"` 	c #0B81D3",
" .	c #0B7ECF",
"..	c #0A79CA",
"+.	c #0977C5",
"@.	c #0872BC",
"#.	c #076DB5",
"$.	c #0669AC",
"%.	c #0661A2",
"&.	c #02558E",
"*.	c #024373",
"=.	c #023D68",
"-.	c #003C69",
";.	c #003963",
">.	c #00355B",
",.	c #134161",
"'.	c #5F605F",
").	c #456C86",
"!.	c #1979BC",
"~.	c #0C7FD0",
"{.	c #0B81D5",
"].	c #0D84D6",
"^.	c #0D85D9",
"/.	c #0E85D9",
"(.	c #0F87D9",
"_.	c #0F86DB",
":.	c #1087DB",
"<.	c #1186D9",
"[.	c #1085D9",
"}.	c #1185D7",
"|.	c #0D7ECE",
"1.	c #05558E",
"2.	c #00385F",
"3.	c #003257",
"4.	c #083A5A",
"5.	c #657077",
"6.	c #3077A9",
"7.	c #0C7CCB",
"8.	c #0D80D1",
"9.	c #0D82D5",
"0.	c #0C83D6",
"a.	c #1289DE",
"b.	c #128BE0",
"c.	c #158FE2",
"d.	c #1690E4",
"e.	c #1790E6",
"f.	c #1892E7",
"g.	c #1B97ED",
"h.	c #0F6AAC",
"i.	c #013C66",
"j.	c #00365D",
"k.	c #00355D",
"l.	c #003054",
"m.	c #0B3956",
"n.	c #5F7685",
"o.	c #217AB8",
"p.	c #0A7CCE",
"q.	c #097CCF",
"r.	c #0B80D0",
"s.	c #0C81D1",
"t.	c #138DE1",
"u.	c #1891E7",
"v.	c #1A93EA",
"w.	c #1D97ED",
"x.	c #22A1F9",
"y.	c #167DC3",
"z.	c #054572",
"A.	c #013258",
"B.	c #002C50",
"C.	c #153C57",
"D.	c #657886",
"E.	c #2377B2",
"F.	c #0878C7",
"G.	c #097ACA",
"H.	c #0B7CCB",
"I.	c #0A7DCD",
"J.	c #0C80D2",
"K.	c #0F85D7",
"L.	c #1289DD",
"M.	c #1994EA",
"N.	c #1D99EF",
"O.	c #1D8CDA",
"P.	c #095182",
"Q.	c #002F51",
"R.	c #013054",
"S.	c #062D4D",
"T.	c #324C60",
"U.	c #757C81",
"V.	c #3976A1",
"W.	c #0B73BB",
"X.	c #0777C4",
"Y.	c #0879C7",
"Z.	c #0A7BCC",
"`.	c #0F84D5",
" +	c #1188DB",
".+	c #138BDE",
"++	c #168DE2",
"@+	c #1E93E6",
"#+	c #0E598E",
"$+	c #002D4D",
"%+	c #05304F",
"&+	c #254358",
"*+	c #6A7276",
"=+	c #7D7D7D",
"-+	c #597A90",
";+	c #1A6EAB",
">+	c #0570B9",
",+	c #0673BE",
"'+	c #0775C2",
")+	c #0F83D5",
"!+	c #158DDF",
"~+	c #1891E5",
"{+	c #1D95E9",
"]+	c #0D5A93",
"^+	c #022B4C",
"/+	c #173750",
"(+	c #5C6770",
"_+	c #7F7E7F",
":+	c #838382",
"<+	c #7D8287",
"[+	c #407598",
"}+	c #116BAA",
"|+	c #056CB5",
"1+	c #056EBA",
"2+	c #097BC9",
"3+	c #0D82D2",
"4+	c #0F86D5",
"5+	c #1386DA",
"6+	c #148ADE",
"7+	c #0D5C93",
"8+	c #0A2E4A",
"9+	c #3B5162",
"0+	c #7E8182",
"a+	c #828283",
"b+	c #8A898A",
"c+	c #8B8B8B",
"d+	c #77858F",
"e+	c #3E7197",
"f+	c #1569A3",
"g+	c #0969AE",
"h+	c #066BB3",
"i+	c #056DB7",
"j+	c #0771BD",
"k+	c #0774C1",
"l+	c #0A7AC9",
"m+	c #0F83D3",
"n+	c #168CE0",
"o+	c #0C5B90",
"p+	c #1B354C",
"q+	c #6A747A",
"r+	c #8A8B8A",
"s+	c #898A89",
"t+	c #919191",
"u+	c #919090",
"v+	c #909291",
"w+	c #858D92",
"x+	c #537790",
"y+	c #236399",
"z+	c #0C65A3",
"A+	c #0666AA",
"B+	c #0469B2",
"C+	c #066DB8",
"D+	c #076FBA",
"E+	c #0875C0",
"F+	c #0A79C8",
"G+	c #0C7DCB",
"H+	c #0B558A",
"I+	c #2F4658",
"J+	c #888A8C",
"K+	c #909090",
"L+	c #979797",
"M+	c #959798",
"N+	c #7A8B96",
"O+	c #3D6E92",
"P+	c #1E6096",
"Q+	c #0C62A0",
"R+	c #0765A9",
"S+	c #0668AF",
"T+	c #056CB4",
"U+	c #066FB8",
"V+	c #0771BB",
"W+	c #0774BF",
"X+	c #0976C3",
"Y+	c #0978C5",
"Z+	c #0E7DCC",
"`+	c #0D4C7D",
" @	c #5F6D76",
".@	c #989898",
"+@	c #989797",
"@@	c #9D9E9D",
"#@	c #9E9E9D",
"$@	c #9D9D9D",
"%@	c #9E9D9D",
"&@	c #9E9E9E",
"*@	c #999C9E",
"=@	c #7A8D9B",
"-@	c #467495",
";@	c #286496",
">@	c #13639E",
",@	c #0966A7",
"'@	c #0568AD",
")@	c #0774BE",
"!@	c #22587F",
"~@	c #8B8F90",
"{@	c #9D9D9E",
"]@	c #A3A4A3",
"^@	c #A3A4A4",
"/@	c #A3A3A3",
"(@	c #A4A3A4",
"_@	c #A4A3A3",
":@	c #A4A4A4",
"<@	c #9FA2A4",
"[@	c #8B98A1",
"}@	c #5D8099",
"|@	c #316C96",
"1@	c #15629B",
"2@	c #0764A5",
"3@	c #0566AA",
"4@	c #0568AF",
"5@	c #066AB4",
"6@	c #0570BA",
"7@	c #0968AD",
"8@	c #5E8096",
"9@	c #A5A6A5",
"0@	c #A9AAA9",
"a@	c #AAA9A9",
"b@	c #AAA9AA",
"c@	c #A9A9AA",
"d@	c #A9A9A9",
"e@	c #A9AAAA",
"f@	c #A8A8A9",
"g@	c #98A1A7",
"h@	c #69889F",
"i@	c #296895",
"j@	c #0E5C98",
"k@	c #025D9E",
"l@	c #0263A7",
"m@	c #0266AE",
"n@	c #246FA4",
"o@	c #98A3AA",
"p@	c #AAAAA9",
"q@	c #AEAFAF",
"r@	c #AFAEAF",
"s@	c #AFAEAE",
"t@	c #AFAFAF",
"u@	c #AEAEAF",
"v@	c #ADAEAF",
"w@	c #919FA7",
"x@	c #547D9C",
"y@	c #186193",
"z@	c #035794",
"A@	c #105D9D",
"B@	c #6B90AB",
"C@	c #B0B1B2",
"D@	c #AEAEAE",
"E@	c #AFAFAE",
"F@	c #B3B3B3",
"G@	c #B4B3B3",
"H@	c #B3B4B3",
"I@	c #B4B4B4",
"J@	c #B4B3B4",
"K@	c #B4B4B3",
"L@	c #B3B4B4",
"M@	c #B3B3B4",
"N@	c #B0B4B5",
"O@	c #7C96A5",
"P@	c #4B7B9B",
"Q@	c #5B85A3",
"R@	c #A9B0B5",
"S@	c #B8B8B8",
"T@	c #B8B9B8",
"U@	c #B9BAB9",
"V@	c #B7B8B9",
"W@	c #B8B8B9",
"X@	c #BCBCBC",
"Y@	c #BCBBBC",
"Z@	c #BBBCBB",
"`@	c #BBBBBC",
" #	c #BCBCBB",
"                                                ",
". . + . . @ . # . . . . . . . $ $ $ . % % $ . $ ",
"& & * & & & = & & - & ; ; > > , > ' ; & & & & & ",
") ) ! ~ { ] ^ / ( _ : < [ } | 1 2 3 4 5 ( 6 7 8 ",
"9 9 0 a b c d e f g h i j k l l m n o p q r s t ",
"u v w x y z A B C D E F G H I J K L M N O P Q R ",
"S T U V W X Y X Z `  ...+.@.#.$.%.&.*.=.-.;.>.,.",
"'.).!.~.{.X ].^././.(._.:.<.(.[.}.|.1.;.;.2.3.4.",
"5.6.7.8.` Y 9.0./._.:.a.b.c.d.e.f.g.h.i.j.k.l.m.",
"n.o.p.q.r.s.9.0.^._.:.a.t.d.u.v.w.x.y.z.3.A.B.C.",
"D.E.F.G.H.I. .J.9.K.:.L.b.c.u.M.N.x.O.P.Q.R.S.T.",
"U.V.W.X.Y.G.Z.I. .J.`.[. +.+++u.g.x.@+#+$+%+&+*+",
"=+-+;+>+,+'+X.Y.H.I. .J.)+[. +!+~+N.{+]+^+/+(+_+",
":+<+[+}+|+1+,+'+X.Y.2+I.|.3+4+5+6+f.@+7+8+9+0+a+",
"b+c+d+e+f+g+h+i+j+k+X.Y.l+H.|.m+`.L.n+o+p+q+r+s+",
"t+u+v+w+x+y+z+A+B+C+D+,+E++.F+G+|.m+<.H+I+J+u+K+",
"L+L+L+L+M+N+O+P+Q+R+S+T+U+V+W+X+Y+H.Z+`+ @.@+@L+",
"@@#@$@%@&@&@*@=@-@;@>@,@'@B+#.D+j+X+)@!@~@%@{@$@",
"]@^@/@(@_@^@:@^@<@[@}@|@1@2@3@4@5@6@7@8@9@(@_@/@",
"0@a@b@c@d@c@e@c@a@a@f@g@h@i@j@k@l@m@n@o@d@p@c@d@",
"q@r@s@t@q@t@q@t@t@t@u@r@v@w@x@y@z@A@B@C@q@D@t@E@",
"F@G@G@H@I@J@K@L@J@M@J@F@K@I@N@O@P@Q@R@I@K@I@H@J@",
"S@S@S@S@S@S@S@S@S@S@S@S@T@S@S@S@U@V@W@S@S@S@T@S@",
"X@Y@X@X@X@Y@X@X@Y@X@X@X@Z@X@X@`@X@ #X@Y@X@X@X@ #"};
