/* XPM */
static char * twistDFK_xpm[] = {
"24 24 419 2",
"  	c #383838",
". 	c #3A3A3A",
"+ 	c #3B3B3B",
"@ 	c #3E3E3E",
"# 	c #3D3E3E",
"$ 	c #3E3F40",
"% 	c #3B3D3F",
"& 	c #3A3C3D",
"* 	c #393B3C",
"= 	c #393A3B",
"- 	c #393939",
"; 	c #3B3C3D",
"> 	c #3E4040",
", 	c #404141",
"' 	c #3F4040",
") 	c #3C3D3C",
"! 	c #3B3C3B",
"~ 	c #3C3B3B",
"{ 	c #3B3D3D",
"] 	c #3B3D40",
"^ 	c #374750",
"/ 	c #314E61",
"( 	c #2D4E65",
"_ 	c #2B4D65",
": 	c #264B64",
"< 	c #22445D",
"[ 	c #234257",
"} 	c #244054",
"| 	c #273E4F",
"1 	c #2D3D49",
"2 	c #333D43",
"3 	c #363C41",
"4 	c #323C43",
"5 	c #2B3C49",
"6 	c #253B4C",
"7 	c #253C4C",
"8 	c #2B3B47",
"9 	c #3D4044",
"0 	c #3C3C3C",
"a 	c #3B3B3C",
"b 	c #3F3F3F",
"c 	c #3D4245",
"d 	c #284963",
"e 	c #11588A",
"f 	c #095D99",
"g 	c #08609E",
"h 	c #08619F",
"i 	c #09629F",
"j 	c #0A609D",
"k 	c #0A5F9B",
"l 	c #0D5C97",
"m 	c #125B91",
"n 	c #185985",
"o 	c #194C6F",
"p 	c #133956",
"q 	c #0B2E4B",
"r 	c #062F4E",
"s 	c #073153",
"t 	c #11334F",
"u 	c #33414A",
"v 	c #404040",
"w 	c #434343",
"x 	c #434344",
"y 	c #444544",
"z 	c #404B51",
"A 	c #1E4E73",
"B 	c #095C96",
"C 	c #0463A5",
"D 	c #0565A8",
"E 	c #0568AC",
"F 	c #086AB0",
"G 	c #086DB2",
"H 	c #076DB4",
"I 	c #0B6AAE",
"J 	c #095A92",
"K 	c #074874",
"L 	c #043B62",
"M 	c #023960",
"N 	c #023D67",
"O 	c #03416E",
"P 	c #09416B",
"Q 	c #29475E",
"R 	c #44474A",
"S 	c #434444",
"T 	c #494949",
"U 	c #484948",
"V 	c #484848",
"W 	c #494A49",
"X 	c #424D56",
"Y 	c #174C74",
"Z 	c #045590",
"` 	c #035B98",
" .	c #035D9C",
"..	c #045FA0",
"+.	c #0561A1",
"@.	c #045B98",
"#.	c #02518A",
"$.	c #024575",
"%.	c #02416E",
"&.	c #024A7C",
"*.	c #024C81",
"=.	c #024E83",
"-.	c #054F84",
";.	c #1A4F74",
">.	c #475057",
",.	c #4E4D4E",
"'.	c #4D4E4E",
").	c #4E4E4E",
"!.	c #4E4E4D",
"~.	c #4E4F51",
"{.	c #274862",
"].	c #074C7B",
"^.	c #025188",
"/.	c #01538C",
"(.	c #015691",
"_.	c #035690",
":.	c #045188",
"<.	c #034F84",
"[.	c #04528B",
"}.	c #04558F",
"|.	c #035792",
"1.	c #035995",
"2.	c #055B97",
"3.	c #195885",
"4.	c #4D5961",
"5.	c #535453",
"6.	c #545453",
"7.	c #545353",
"8.	c #535454",
"9.	c #555555",
"0.	c #2E475A",
"a.	c #08416C",
"b.	c #03568F",
"c.	c #055994",
"d.	c #055A97",
"e.	c #055E9B",
"f.	c #06609E",
"g.	c #0661A2",
"h.	c #0662A3",
"i.	c #0563A5",
"j.	c #0565A7",
"k.	c #0665A9",
"l.	c #0662A5",
"m.	c #29648E",
"n.	c #5A6165",
"o.	c #535353",
"p.	c #595A59",
"q.	c #5A595A",
"r.	c #5A5A5A",
"s.	c #595959",
"t.	c #5B5D5E",
"u.	c #25455D",
"v.	c #094E81",
"w.	c #075E9C",
"x.	c #0968AA",
"y.	c #0A69AD",
"z.	c #096BB1",
"A.	c #086CB0",
"B.	c #096DB3",
"C.	c #076DB3",
"D.	c #086EB5",
"E.	c #0A6EB3",
"F.	c #0F68A9",
"G.	c #486B83",
"H.	c #5F5F60",
"I.	c #595A5A",
"J.	c #60605F",
"K.	c #606060",
"L.	c #616161",
"M.	c #566169",
"N.	c #1B5987",
"O.	c #1173BA",
"P.	c #0F7AC6",
"Q.	c #0F79C4",
"R.	c #0E78C3",
"S.	c #0D79C4",
"T.	c #0C77C2",
"U.	c #0C77C4",
"V.	c #0E74BC",
"W.	c #3272A0",
"X.	c #62696D",
"Y.	c #676766",
"Z.	c #676667",
"`.	c #676666",
" +	c #686868",
".+	c #656A6D",
"++	c #3A6D90",
"@+	c #1A81C7",
"#+	c #1482D1",
"$+	c #1382D1",
"%+	c #1183D1",
"&+	c #1080D0",
"*+	c #1080CE",
"=+	c #1376BC",
"-+	c #57778D",
";+	c #686969",
">+	c #676767",
",+	c #6D6D6D",
"'+	c #6E6E6E",
")+	c #6D6E6E",
"!+	c #6E7171",
"~+	c #627380",
"{+	c #3375A4",
"]+	c #177BC0",
"^+	c #107FCC",
"/+	c #0F80CF",
"(+	c #0E82D0",
"_+	c #1081D2",
":+	c #1084D4",
"<+	c #1183D4",
"[+	c #1284D3",
"}+	c #1182D2",
"|+	c #1284D2",
"1+	c #186CA7",
"2+	c #61717B",
"3+	c #6E6E6D",
"4+	c #6D6D6E",
"5+	c #747575",
"6+	c #757574",
"7+	c #757475",
"8+	c #78797A",
"9+	c #667988",
"0+	c #266FA2",
"a+	c #0F74BA",
"b+	c #0B78C3",
"c+	c #0A7BC7",
"d+	c #0C7DCB",
"e+	c #0D7FCF",
"f+	c #0F77C0",
"g+	c #145485",
"h+	c #606D78",
"i+	c #757474",
"j+	c #747574",
"k+	c #7B7C7C",
"l+	c #7B7B7B",
"m+	c #7C7C7B",
"n+	c #7B7C7B",
"o+	c #7B7B7C",
"p+	c #7D7E7E",
"q+	c #677B8A",
"r+	c #1A679E",
"s+	c #096DB4",
"t+	c #0770BB",
"u+	c #0873BE",
"v+	c #0875C2",
"w+	c #0977C4",
"x+	c #0A79C7",
"y+	c #0B7AC8",
"z+	c #0D7DCC",
"A+	c #0A71B9",
"B+	c #05548A",
"C+	c #0D4774",
"D+	c #5A7284",
"E+	c #7C7D7D",
"F+	c #7C7B7B",
"G+	c #828382",
"H+	c #838382",
"I+	c #838282",
"J+	c #828282",
"K+	c #7E8387",
"L+	c #2A6088",
"M+	c #0962A0",
"N+	c #0467AB",
"O+	c #076AB1",
"P+	c #076EB6",
"Q+	c #0A75C1",
"R+	c #0763A6",
"S+	c #03528A",
"T+	c #014E84",
"U+	c #08508A",
"V+	c #547891",
"W+	c #848486",
"X+	c #898A8A",
"Y+	c #898A89",
"Z+	c #8A8A89",
"`+	c #89898A",
" @	c #898989",
".@	c #8A8989",
"+@	c #858A8C",
"@@	c #275679",
"#@	c #06568F",
"$@	c #0562A2",
"%@	c #0465A9",
"&@	c #0669B0",
"*@	c #066AAE",
"=@	c #055D9D",
"-@	c #025590",
";@	c #0E5F9A",
">@	c #5C819C",
",@	c #8C8D8C",
"'@	c #909090",
")@	c #909191",
"!@	c #919090",
"~@	c #909091",
"{@	c #929191",
"]@	c #7B8489",
"^@	c #1B4769",
"/@	c #044C80",
"(@	c #01528B",
"_@	c #015995",
":@	c #0360A1",
"<@	c #045F9F",
"[@	c #045E9D",
"}@	c #0867A8",
"|@	c #2772A6",
"1@	c #7E919D",
"2@	c #919190",
"3@	c #909190",
"4@	c #979797",
"5@	c #919192",
"6@	c #485863",
"7@	c #0F395B",
"8@	c #014271",
"9@	c #0667AB",
"0@	c #056AB0",
"a@	c #066DB5",
"b@	c #086EB6",
"c@	c #1070B5",
"d@	c #628CAA",
"e@	c #97999A",
"f@	c #9E9D9E",
"g@	c #9D9D9D",
"h@	c #9D9E9D",
"i@	c #9F9F9E",
"j@	c #929597",
"k@	c #4C697F",
"l@	c #14578B",
"m@	c #065F9D",
"n@	c #066FB9",
"o@	c #0872BD",
"p@	c #0874C0",
"q@	c #0C76C1",
"r@	c #2175B7",
"s@	c #8197A6",
"t@	c #9E9D9D",
"u@	c #9D9D9E",
"v@	c #A3A4A4",
"w@	c #A3A3A4",
"x@	c #A4A3A4",
"y@	c #A4A4A4",
"z@	c #A4A5A4",
"A@	c #94A0A8",
"B@	c #3F83B3",
"C@	c #0C75C1",
"D@	c #0979C9",
"E@	c #0A7BCB",
"F@	c #097AC8",
"G@	c #157BC4",
"H@	c #4D85AE",
"I@	c #9AA2A7",
"J@	c #A4A4A3",
"K@	c #A4A3A3",
"L@	c #A9AAAA",
"M@	c #A9A9AA",
"N@	c #AAAAAA",
"O@	c #AAA9AA",
"P@	c #ABABAC",
"Q@	c #8EA2AE",
"R@	c #2173AE",
"S@	c #066EBB",
"T@	c #0774C1",
"U@	c #0979C7",
"V@	c #0A79C8",
"W@	c #0879C9",
"X@	c #187CC4",
"Y@	c #5E95BC",
"Z@	c #9DA8AE",
"`@	c #AAABAA",
" #	c #A9A9A9",
".#	c #AEAFAE",
"+#	c #AEAEAF",
"@#	c #AFAFAF",
"##	c #AFAEAF",
"$#	c #AEAFAF",
"%#	c #B1B2B1",
"&#	c #6E91AA",
"*#	c #1268A6",
"=#	c #036AB1",
"-#	c #0772BC",
";#	c #0774C0",
">#	c #0573C3",
",#	c #1E7EC1",
"'#	c #6799BD",
")#	c #AAAFB3",
"!#	c #AFAFAE",
"~#	c #B3B4B4",
"{#	c #B4B4B3",
"]#	c #B3B3B3",
"^#	c #B4B4B4",
"/#	c #B3B4B3",
"(#	c #B3B3B4",
"_#	c #B0B5B6",
":#	c #5686A6",
"<#	c #0E63A1",
"[#	c #0365A9",
"}#	c #0369B1",
"|#	c #076DB7",
"1#	c #3181B8",
"2#	c #7AA1BC",
"3#	c #B2B5B6",
"4#	c #B4B3B4",
"5#	c #B8B8B8",
"6#	c #B8B9B9",
"7#	c #A9B2B7",
"8#	c #427AA2",
"9#	c #196AA3",
"0#	c #2173AD",
"a#	c #4586B2",
"b#	c #98ACB9",
"c#	c #BABABA",
"d#	c #BBBCBC",
"e#	c #BCBCBC",
"f#	c #BCBBBC",
"g#	c #BBBBBC",
"h#	c #A5B0B8",
"i#	c #6F94AE",
"j#	c #8DA5B4",
"k#	c #BBBEBD",
"l#	c #BCBCBB",
"      . + @ # # $ % & * = -     - ; > , ' )     ",
"! ~ { ] ^ / ( _ : < [ } | 1 2 3 4 5 6 7 8 9 0 a ",
"b b b c d e f g h i j k l m n o p q r s t u v b ",
"w x w y z A B C D E F G H I J K L M N O P Q R S ",
"T U V V W X Y Z `  ...+.@.#.$.%.$.&.*.=.-.;.>.V ",
",.'.,.).!.~.{.].^./.(._.:.*.<.[.}.|.1.@.2.3.4.,.",
"5.6.7.6.8.9.0.a.*.b.c.c.d.e.f.g.h.i.j.k.l.m.n.o.",
"p.q.q.r.s.t.u.v.w.x.y.y.z.A.B.B.C.D.D.E.F.G.H.I.",
"J.K.K.K.L.M.N.O.P.Q.R.S.S.T.U.T.T.U.U.V.W.X.K.K.",
"Y.Z.`. +.+++@+#+$+$+%+&+%+&+*+*+*+*+*+=+-+;+`.>+",
",+'+)+!+~+{+]+^+/+(+_+:+<+_+[+}+:+:+|+1+2+3+4+,+",
"5+6+5+7+8+9+0+a+b+c+d+d+e+(+&+_+}+:+f+g+h+i+6+j+",
"k+l+m+n+o+p+q+r+s+t+u+v+w+x+y+z+e+A+B+C+D+E+k+F+",
"G+G+H+I+H+J+K+L+M+N+O+P+t+u+Q+Q+R+S+T+U+V+W+H+I+",
"X+Y+Z+`+ @.@+@@@#@ .$@%@&@C.*@=@b.-@@.;@>@,@Y+Z+",
"'@)@!@~@!@{@]@^@/@(@_@ .:@<@[@e.<@i.}@|@1@2@3@!@",
"4@4@4@4@4@5@6@7@8@T+_@..j.j.9@0@a@b@c@d@e@4@4@4@",
"f@g@h@h@i@j@k@l@m@9@C.n@o@u+p@p@p@q@r@s@t@u@t@h@",
"v@w@w@x@y@z@A@B@C@D@E@D@D@F@F@x+y+G@H@I@J@K@x@J@",
"L@M@M@N@M@O@P@Q@R@S@T@w+U@U@V@W@X@Y@Z@`@M@ #M@M@",
".#+#@###@#$#@#%#&#*#=#n@-#;#>#,#'#)#!#@#!#$#.#!#",
"~#{#]#^#/#^#(#]#_#:#<#[#}#|#1#2#3#{#~#~#4#^#]#~#",
"5#5#5#5#5#5#5#5#6#7#8#9#0#a#b#c#5#5#5#5#5#6#5#5#",
"d#e#e#f#e#e#e#g#e#e#h#i#j#k#l#f#f#e#e#e#e#e#e#e#"};
