/* XPM */
static char * waveDFK_xpm[] = {
"24 24 336 2",
"  	c #383838",
". 	c #3B3B3B",
"+ 	c #3C3B3B",
"@ 	c #3B3C3B",
"# 	c #3B3B3C",
"$ 	c #3B3C3C",
"% 	c #3F3F3F",
"& 	c #3E3F3F",
"* 	c #3F3E3F",
"= 	c #404040",
"- 	c #3F403F",
"; 	c #404140",
"> 	c #404244",
", 	c #3F4448",
"' 	c #3F4346",
") 	c #3F4040",
"! 	c #3F3F3E",
"~ 	c #4A4C4B",
"{ 	c #4A4C4D",
"] 	c #494D50",
"^ 	c #474F54",
"/ 	c #444A4E",
"( 	c #424649",
"_ 	c #3E464C",
": 	c #374650",
"< 	c #2F4352",
"[ 	c #2E4454",
"} 	c #254054",
"| 	c #1F3E56",
"1 	c #284151",
"2 	c #42494D",
"3 	c #444748",
"4 	c #43474B",
"5 	c #3B464C",
"6 	c #3C4348",
"7 	c #434444",
"8 	c #434343",
"9 	c #434443",
"0 	c #444343",
"a 	c #46525A",
"b 	c #314E63",
"c 	c #204258",
"d 	c #184C71",
"e 	c #1B557F",
"f 	c #1D496B",
"g 	c #163C5A",
"h 	c #0D3D60",
"i 	c #0A3D63",
"j 	c #0A3D65",
"k 	c #074A7A",
"l 	c #0B5587",
"m 	c #0D4065",
"n 	c #193F5D",
"o 	c #1E3F58",
"p 	c #1A3B56",
"q 	c #153956",
"r 	c #203851",
"s 	c #464D53",
"t 	c #4B4C4B",
"u 	c #484848",
"v 	c #45494A",
"w 	c #484949",
"x 	c #46535C",
"y 	c #20537A",
"z 	c #0A3B60",
"A 	c #06558A",
"B 	c #0B6FB8",
"C 	c #0A66A6",
"D 	c #074B7B",
"E 	c #023C63",
"F 	c #013E66",
"G 	c #034B7D",
"H 	c #096AAE",
"I 	c #0B71B8",
"J 	c #054D80",
"K 	c #043B64",
"L 	c #05395D",
"M 	c #05385C",
"N 	c #053458",
"O 	c #073152",
"P 	c #244255",
"Q 	c #384854",
"R 	c #39454F",
"S 	c #34414D",
"T 	c #31404A",
"U 	c #4A4F51",
"V 	c #4C5B65",
"W 	c #216291",
"X 	c #084875",
"Y 	c #055B98",
"Z 	c #0871BB",
"` 	c #0873BD",
" .	c #0764A6",
"..	c #044F83",
"+.	c #034F84",
"@.	c #0664A5",
"#.	c #0A77C3",
"$.	c #0A74BF",
"%.	c #0761A1",
"&.	c #023D65",
"*.	c #00375B",
"=.	c #013559",
"-.	c #03416E",
";.	c #054A7B",
">.	c #054572",
",.	c #0A3F67",
"'.	c #103B5B",
").	c #0F2E48",
"!.	c #243A4B",
"~.	c #595D5F",
"{.	c #55636D",
"].	c #226A9C",
"^.	c #075F9B",
"/.	c #0567AE",
"(.	c #0771BC",
"_.	c #0773BE",
":.	c #0873BE",
"<.	c #086CB5",
"[.	c #066BB2",
"}.	c #0874C0",
"|.	c #096EB7",
"1.	c #044470",
"2.	c #00355B",
"3.	c #013961",
"4.	c #075E9A",
"5.	c #0C74BD",
"6.	c #0B73BA",
"7.	c #0B68A9",
"8.	c #084776",
"9.	c #052038",
"0.	c #2C4150",
"a.	c #636464",
"b.	c #616A70",
"c.	c #2D6C99",
"d.	c #086EB6",
"e.	c #056FBB",
"f.	c #0770BB",
"g.	c #0772BC",
"h.	c #0872BD",
"i.	c #05538A",
"j.	c #0A6FB5",
"k.	c #0D7BC8",
"l.	c #0D7DCB",
"m.	c #0D78C2",
"n.	c #074E81",
"o.	c #051E35",
"p.	c #384B58",
"q.	c #686868",
"r.	c #6B6E70",
"s.	c #3D6F93",
"t.	c #0B6CB2",
"u.	c #066FBA",
"v.	c #0871BC",
"w.	c #0665A8",
"x.	c #024879",
"y.	c #0B75C0",
"z.	c #0C7AC7",
"A.	c #0C6DB4",
"B.	c #044370",
"C.	c #031F37",
"D.	c #3E525F",
"E.	c #676667",
"F.	c #717372",
"G.	c #4A7593",
"H.	c #0D6CB0",
"I.	c #0770B8",
"J.	c #0670B9",
"K.	c #0672BB",
"L.	c #0874BE",
"M.	c #0967AB",
"N.	c #0971B9",
"O.	c #0976C1",
"P.	c #0B77C1",
"Q.	c #0B67A9",
"R.	c #02375F",
"S.	c #08273D",
"T.	c #54656F",
"U.	c #6D6D6D",
"V.	c #747574",
"W.	c #527D9A",
"X.	c #0D6FB3",
"Y.	c #066EB7",
"Z.	c #0570B9",
"`.	c #0975BF",
" +	c #0B7BC8",
".+	c #08609F",
"++	c #032F51",
"@+	c #1F394A",
"#+	c #6F777B",
"$+	c #747474",
"%+	c #7B7B7C",
"&+	c #5E89A6",
"*+	c #1572B3",
"=+	c #036DB8",
"-+	c #066FB9",
";+	c #0570BA",
">+	c #0B79C6",
",+	c #065B96",
"'+	c #082A4A",
")+	c #40515F",
"!+	c #828282",
"~+	c #7C7C7C",
"{+	c #838282",
"]+	c #758E9D",
"^+	c #2976AD",
"/+	c #066CB6",
"(+	c #0872BB",
"_+	c #0A77C6",
":+	c #05558D",
"<+	c #0C2940",
"[+	c #51606A",
"}+	c #868686",
"|+	c #828383",
"1+	c #8A898A",
"2+	c #8B8E8F",
"3+	c #5481A1",
"4+	c #126DB1",
"5+	c #056EB8",
"6+	c #0973C1",
"7+	c #044B81",
"8+	c #0E293F",
"9+	c #5E6C75",
"0+	c #919191",
"a+	c #919090",
"b+	c #82939E",
"c+	c #337BAE",
"d+	c #0B6EB5",
"e+	c #0670BE",
"f+	c #0472BF",
"g+	c #096FB8",
"h+	c #054573",
"i+	c #1E384A",
"j+	c #788186",
"k+	c #909191",
"l+	c #909190",
"m+	c #979797",
"n+	c #8399A8",
"o+	c #337CB1",
"p+	c #09518A",
"q+	c #015089",
"r+	c #026FBC",
"s+	c #0775C2",
"t+	c #0969AB",
"u+	c #113F64",
"v+	c #53616C",
"w+	c #9A9C9C",
"x+	c #9D9D9D",
"y+	c #9D9D9E",
"z+	c #9E9E9D",
"A+	c #A0A0A1",
"B+	c #7392A6",
"C+	c #3D6885",
"D+	c #5B798E",
"E+	c #2982BF",
"F+	c #026AB8",
"G+	c #056FB9",
"H+	c #036CB7",
"I+	c #046EB9",
"J+	c #066FBB",
"K+	c #0976C3",
"L+	c #065D9A",
"M+	c #234963",
"N+	c #848A8D",
"O+	c #A4A3A4",
"P+	c #A3A4A4",
"Q+	c #A4A4A4",
"R+	c #A4A3A3",
"S+	c #9FA8AC",
"T+	c #84A8BE",
"U+	c #237AB7",
"V+	c #1673B6",
"W+	c #3280B7",
"X+	c #4288B9",
"Y+	c #1174B8",
"Z+	c #0971BB",
"`+	c #0977C4",
" @	c #06518B",
".@	c #425D70",
"+@	c #A2A3A3",
"@@	c #A4A4A3",
"#@	c #A9A9A9",
"$@	c #A9AAAA",
"%@	c #AAAAAA",
"&@	c #AAA9A9",
"*@	c #AAAAA9",
"=@	c #92A9B9",
"-@	c #85A2B6",
";@	c #9DACB4",
">@	c #A4B0B6",
",@	c #508CB6",
"'@	c #1776B9",
")@	c #0870BB",
"!@	c #0572BC",
"~@	c #0574C1",
"{@	c #085086",
"]@	c #687A84",
"^@	c #AEAEAF",
"/@	c #AFAEAF",
"(@	c #AEAFAF",
"_@	c #AEAEAE",
":@	c #AFAFAF",
"<@	c #9AAAB5",
"[@	c #3984B8",
"}@	c #0A70B9",
"|@	c #0370BB",
"1@	c #0069B8",
"2@	c #276793",
"3@	c #9AA0A0",
"4@	c #AFAFAE",
"5@	c #B4B4B4",
"6@	c #B3B4B4",
"7@	c #B4B3B4",
"8@	c #B3B4B3",
"9@	c #B4B3B3",
"0@	c #B4B4B3",
"a@	c #B3B3B4",
"b@	c #B3B6B6",
"c@	c #6295B8",
"d@	c #217BBB",
"e@	c #468FBE",
"f@	c #3D8CBF",
"g@	c #1771B4",
"h@	c #6190AF",
"i@	c #B8B8B8",
"j@	c #B8B8B9",
"k@	c #B9B8B8",
"l@	c #88A7BC",
"m@	c #709EBF",
"n@	c #85A9C1",
"o@	c #A0B6C3",
"p@	c #BCBCBB",
"q@	c #BCBCBC",
"r@	c #BCBBBC",
"s@	c #BBBCBB",
"t@	c #BBBBBB",
"u@	c #BBBCBC",
"                                                ",
". . . . + . . . . . + @ . . . @ . # $ . . . + . ",
"% % % % & % * = - ; > , ' % % = = ) % % % ! % % ",
"~ { ] ^ / ( _ : < [ } | 1 2 3 4 5 6 7 8 9 9 7 0 ",
"a b c d e f g h i j k l m n o p q r s t u u v w ",
"x y z A B C D E F G H I J K L M N O P Q R S T U ",
"V W X Y Z `  ...+.@.#.$.%.&.*.=.-.;.>.,.'.).!.~.",
"{.].^./.(._.:.<.[.}.:.$.|.1.2.3.4.5.6.7.8.9.0.a.",
"b.c.d.(.e.f.g._.:.h.:.:.$.i.3.G j.k.l.m.n.o.p.q.",
"r.s.t.u.u.f.f.f.v.(.h.:.:.w.x.%.y.m.z.A.B.C.D.E.",
"F.G.H.I.J.K.K.K.(.(.Z g.L.K.M.N.O.P.k.Q.R.S.T.U.",
"V.W.X.Y.Z.J.u.f.(.K.g.g.h.h.$.`.`.O. +.+++@+#+$+",
"%+&+*+=+-+u.-+;+(.(.g.v.v.h.L.:.$.$.>+,+'+)+!+~+",
"{+]+^+/+-+;+u.J.f.f.(.(.(.(+h.:.:.}._+:+<+[+}+|+",
"1+2+3+4+5+5+Z.;+f.f.(.f.v.(.g.h.g.}.6+7+8+9+1+1+",
"0+a+b+c+d+e+f+;+;+u.(.(.K.(.v.h.g.}.g+h+i+j+k+l+",
"m+m+m+n+o+p+q+r+;+f.f.K.(.(.(.g.g.s+t+u+v+w+m+m+",
"x+y+z+A+B+C+D+E+F+G+H+I+J+(.f.(.(.K+L+M+N+y+y+x+",
"O+P+O+Q+R+S+Q+T+U+V+W+X+Y+Z+(.(.K.`+ @.@+@P+@@Q+",
"#@$@%@#@&@#@*@$@=@-@;@>@,@'@)@e.!@~@{@]@*@&@#@&@",
"^@/@(@_@:@/@:@(@:@^@:@_@<@[@}@K.|@1@2@3@4@/@:@(@",
"5@6@7@8@6@5@9@0@5@7@6@a@b@c@d@e@f@g@h@5@9@0@5@0@",
"i@i@i@i@i@i@j@i@i@i@k@i@i@l@m@i@i@n@o@i@i@i@i@i@",
"p@q@q@r@s@r@p@q@q@q@q@q@p@t@q@r@q@q@p@r@u@r@q@q@"};
