/* XPM */
static char * atlas_xpm[] = {
"41 33 535 2",
"  	c #EBCC7D",
". 	c #EECF7F",
"+ 	c #F1D180",
"@ 	c #52462B",
"# 	c #352E1C",
"$ 	c #CBB06B",
"% 	c #D3B770",
"& 	c #D7BA72",
"* 	c #D5B971",
"= 	c #CCB26C",
"- 	c #DABD74",
"; 	c #EDCE7E",
"> 	c #F8D784",
", 	c #625534",
"' 	c #37301D",
") 	c #ECCD7D",
"! 	c #B49B5D",
"~ 	c #2B4C66",
"{ 	c #175188",
"] 	c #4D4F42",
"^ 	c #E2C172",
"/ 	c #9C8954",
"( 	c #786B42",
"_ 	c #A18E57",
": 	c #CFB46E",
"< 	c #CFB36E",
"[ 	c #A69159",
"} 	c #F0D07F",
"| 	c #DEC076",
"1 	c #403822",
"2 	c #B69E61",
"3 	c #F4D481",
"4 	c #F6D582",
"5 	c #B09658",
"6 	c #204768",
"7 	c #17416B",
"8 	c #4E493F",
"9 	c #CBC6B2",
"0 	c #F5D583",
"a 	c #B8A062",
"b 	c #0F0E08",
"c 	c #877548",
"d 	c #CCB06C",
"e 	c #CCB16C",
"f 	c #CBB16C",
"g 	c #D6BA72",
"h 	c #F6D683",
"i 	c #B59E61",
"j 	c #0A0905",
"k 	c #B89F62",
"l 	c #F9D885",
"m 	c #AC955B",
"n 	c #7D6D43",
"o 	c #C8AD6A",
"p 	c #72643E",
"q 	c #000000",
"r 	c #140000",
"s 	c #0B0100",
"t 	c #13110B",
"u 	c #4A432A",
"v 	c #2A2819",
"w 	c #837347",
"x 	c #ECCD7E",
"y 	c #FBDA86",
"z 	c #B59C60",
"A 	c #362F1D",
"B 	c #D9BC74",
"C 	c #F1D181",
"D 	c #EFCF7F",
"E 	c #E8C879",
"F 	c #6F6748",
"G 	c #01030B",
"H 	c #787469",
"I 	c #D4CFBB",
"J 	c #F1D281",
"K 	c #70613C",
"L 	c #241F13",
"M 	c #AE975C",
"N 	c #D9BC73",
"O 	c #CDB26D",
"P 	c #CCB26D",
"Q 	c #CEB36D",
"R 	c #D3B870",
"S 	c #DCBF75",
"T 	c #CDB36D",
"U 	c #262114",
"V 	c #6F603B",
"W 	c #F5D481",
"X 	c #FFE088",
"Y 	c #CDB36E",
"Z 	c #120F0A",
"` 	c #360100",
" .	c #630B00",
"..	c #570800",
"+.	c #450400",
"@.	c #210000",
"#.	c #0A0000",
"$.	c #010202",
"%.	c #312D1C",
"&.	c #4F452A",
"*.	c #7A6A41",
"=.	c #EED07F",
"-.	c #F2D281",
";.	c #FCDA87",
">.	c #685831",
",.	c #171715",
"'.	c #B5B09F",
").	c #CFCAB7",
"!.	c #F1D280",
"~.	c #E3C579",
"{.	c #433A24",
"].	c #1E1A10",
"^.	c #D7BB73",
"/.	c #CCB16D",
"(.	c #645735",
"_.	c #282315",
":.	c #E6C87A",
"<.	c #F9D884",
"[.	c #A08D57",
"}.	c #5D0A00",
"|.	c #6C0C00",
"1.	c #6A0C00",
"2.	c #6B0D00",
"3.	c #600C00",
"4.	c #3C0500",
"5.	c #0C0000",
"6.	c #F0D180",
"7.	c #635432",
"8.	c #1A1813",
"9.	c #89877B",
"0.	c #D3CEBA",
"a.	c #CAC5B2",
"b.	c #F3D381",
"c.	c #CEB36E",
"d.	c #252014",
"e.	c #B8A061",
"f.	c #D8BC73",
"g.	c #A08B55",
"h.	c #17140D",
"i.	c #AB945B",
"j.	c #F5D582",
"k.	c #87774A",
"l.	c #080000",
"m.	c #600B00",
"n.	c #690C00",
"o.	c #660C00",
"p.	c #680C00",
"q.	c #6F0D00",
"r.	c #590900",
"s.	c #5F5535",
"t.	c #FFE18A",
"u.	c #AB945A",
"v.	c #322A16",
"w.	c #020406",
"x.	c #646661",
"y.	c #C9C5B2",
"z.	c #CEC8B5",
"A.	c #C8AE6A",
"B.	c #201C11",
"C.	c #302919",
"D.	c #F4D482",
"E.	c #776B42",
"F.	c #100000",
"G.	c #620B00",
"H.	c #1B0000",
"I.	c #302818",
"J.	c #C6AC6A",
"K.	c #D6B972",
"L.	c #615330",
"M.	c #040403",
"N.	c #484843",
"O.	c #797A73",
"P.	c #8F928A",
"Q.	c #C1BDAC",
"R.	c #CDC7B4",
"S.	c #BDA364",
"T.	c #15120B",
"U.	c #2F2919",
"V.	c #BEA565",
"W.	c #D4B871",
"X.	c #D7BB72",
"Y.	c #77673F",
"Z.	c #1D190F",
"`.	c #D8BB73",
" +	c #FBDB86",
".+	c #776A41",
"++	c #090000",
"@+	c #640B00",
"#+	c #6B0C00",
"$+	c #330200",
"%+	c #212115",
"&+	c #CDB56F",
"*+	c #C0A666",
"=+	c #1E180C",
"-+	c #232322",
";+	c #898579",
">+	c #CDC8B4",
",+	c #9D9D94",
"'+	c #848680",
")+	c #B8B5A5",
"!+	c #BAA263",
"~+	c #3C3420",
"{+	c #D0B56F",
"]+	c #D4B971",
"^+	c #13110A",
"/+	c #927F4D",
"(+	c #FFDF89",
"_+	c #B9A163",
":+	c #16120B",
"<+	c #2E0000",
"[+	c #6C0D00",
"}+	c #6D0D00",
"|+	c #510700",
"1+	c #040101",
"2+	c #A08D56",
"3+	c #C5AB69",
"4+	c #131008",
"5+	c #343431",
"6+	c #B9B5A4",
"7+	c #D8D3BE",
"8+	c #CEC9B5",
"9+	c #9E9D92",
"0+	c #B0AEA0",
"a+	c #ECCC7D",
"b+	c #F8D884",
"c+	c #B0995E",
"d+	c #1B170E",
"e+	c #74653E",
"f+	c #D0B46E",
"g+	c #D5B871",
"h+	c #53482C",
"i+	c #3A321E",
"j+	c #F3D281",
"k+	c #A38D56",
"l+	c #1A170F",
"m+	c #330000",
"n+	c #4E0500",
"o+	c #610A00",
"p+	c #2D0000",
"q+	c #2C291A",
"r+	c #352D19",
"s+	c #292A2A",
"t+	c #BDB8A7",
"u+	c #D2CDBA",
"v+	c #CCC7B3",
"w+	c #A5A497",
"x+	c #A9A89B",
"y+	c #9E8954",
"z+	c #14120A",
"A+	c #857347",
"B+	c #9F8A54",
"C+	c #A58F57",
"D+	c #C8AF6B",
"E+	c #756941",
"F+	c #272517",
"G+	c #130A06",
"H+	c #0F0000",
"I+	c #0A0201",
"J+	c #817045",
"K+	c #816F42",
"L+	c #1E1E1C",
"M+	c #B1AD9D",
"N+	c #D5D0BB",
"O+	c #ACAA9D",
"P+	c #838680",
"Q+	c #A2A295",
"R+	c #EECE7E",
"S+	c #594D2F",
"T+	c #0A0805",
"U+	c #AC955C",
"V+	c #413923",
"W+	c #3B331F",
"X+	c #EBCD7D",
"Y+	c #DFC277",
"Z+	c #AB975C",
"`+	c #7E7145",
" @	c #A28F58",
".@	c #C1A766",
"+@	c #131109",
"@@	c #706F67",
"#@	c #CBC6B3",
"$@	c #B4B1A2",
"%@	c #9B9B91",
"&@	c #E0C377",
"*@	c #372F1D",
"=@	c #3E3621",
"-@	c #D1B56F",
";@	c #A9935A",
">@	c #16130C",
",@	c #7D6D42",
"'@	c #FCDA86",
")@	c #FFE68D",
"!@	c #3E341C",
"~@	c #242524",
"{@	c #C4C0AD",
"]@	c #CEC9B6",
"^@	c #BBB8A7",
"/@	c #96968D",
"(@	c #040302",
"_@	c #655836",
":@	c #010101",
"<@	c #685B38",
"[@	c #A58F58",
"}@	c #D2B670",
"|@	c #CBB06C",
"1@	c #A69058",
"2@	c #342D1A",
"3@	c #121212",
"4@	c #9A9789",
"5@	c #BFBBAA",
"6@	c #898B83",
"7@	c #92928A",
"8@	c #C5C1AE",
"9@	c #CCC6B3",
"0@	c #F6D583",
"a@	c #786840",
"b@	c #110F09",
"c@	c #B1995D",
"d@	c #D1B66F",
"e@	c #CAAF6B",
"f@	c #6C5D39",
"g@	c #211D11",
"h@	c #070603",
"i@	c #2D2D2C",
"j@	c #A39F90",
"k@	c #CCC7B4",
"l@	c #C2BEAD",
"m@	c #8F9188",
"n@	c #8D8E87",
"o@	c #BFBCAB",
"p@	c #E0C277",
"q@	c #4E442A",
"r@	c #978350",
"s@	c #887649",
"t@	c #78683F",
"u@	c #120E08",
"v@	c #7F7C71",
"w@	c #D9D4C0",
"x@	c #C5C1AF",
"y@	c #96978D",
"z@	c #888B84",
"A@	c #BAB7A7",
"B@	c #A38D57",
"C@	c #0C0B07",
"D@	c #93804E",
"E@	c #D2B66F",
"F@	c #807044",
"G@	c #5C5031",
"H@	c #050402",
"I@	c #78756A",
"J@	c #D2CDB9",
"K@	c #C9C4B1",
"L@	c #9C9D91",
"M@	c #848780",
"N@	c #B5B3A3",
"O@	c #EECF7E",
"P@	c #EECE7F",
"Q@	c #4B4128",
"R@	c #CAB06C",
"S@	c #D9BD74",
"T@	c #B9A062",
"U@	c #433B23",
"V@	c #15130B",
"W@	c #1F1B10",
"X@	c #4C4329",
"Y@	c #574C2E",
"Z@	c #110E08",
"`@	c #7A776C",
" #	c #D3CDBA",
".#	c #CDC8B3",
"+#	c #A3A296",
"@#	c #80827D",
"##	c #F7D683",
"$#	c #BBA363",
"%#	c #0C0A06",
"&#	c #867547",
"*#	c #332C1B",
"=#	c #2C2618",
"-#	c #9F8B55",
";#	c #D8BB72",
">#	c #221D11",
",#	c #7A776E",
"'#	c #A9A79B",
")#	c #7F827D",
"!#	c #AAA89B",
"~#	c #EDCD7E",
"{#	c #282316",
"]#	c #5A4E30",
"^#	c #DEC177",
"/#	c #D6BA71",
"(#	c #211C10",
"_#	c #AFAD9F",
":#	c #83867F",
"<#	c #50452B",
"[#	c #6A5B38",
"}#	c #E4C679",
"|#	c #F4D382",
"1#	c #D4B870",
"2#	c #878982",
"3#	c #9B9C91",
"4#	c #EACB7D",
"5#	c #EFD07F",
"6#	c #BBB8A8",
"7#	c #8A8C84",
"8#	c #94958C",
"9#	c #C6C2AF",
"0#	c #C2BDAC",
"a#	c #8D8F86",
"b#	c #8E8F87",
"c#	c #252012",
"d#	c #75736A",
"e#	c #CBC5B2",
"f#	c #C8C3B0",
"g#	c #909289",
"h#	c #C2BEAC",
"i#	c #282213",
"j#	c #726F67",
"k#	c #BCB9A8",
"l#	c #868882",
"m#	c #B6B3A4",
"n#	c #E8C97B",
"o#	c #737067",
"p#	c #B5B3A4",
"q#	c #A8A79A",
"r#	c #A5A498",
"s#	c #858780",
"t#	c #E7C97A",
"u#	c #E5C779",
"v#	c #221D10",
"w#	c #79766D",
"x#	c #98998F",
"y#	c #ACAB9D",
"z#	c #A9A89A",
"A#	c #DDC075",
"B#	c #E1C477",
"C#	c #E7C97B",
"D#	c #E8CA7B",
"E#	c #E9CA7C",
"F#	c #E9C97B",
"G#	c #CFB46D",
"H#	c #DFC276",
"I#	c #1E190E",
"J#	c #7E7B71",
"K#	c #93948C",
"L#	c #82857F",
"M#	c #A2A296",
"N#	c #D0B56E",
"O#	c #D2B770",
"P#	c #CFB36D",
"Q#	c #DDC076",
"R#	c #18140B",
"S#	c #858277",
"T#	c #CFC9B5",
"U#	c #C4C0AE",
"V#	c #838580",
"W#	c #9D9C91",
"X#	c #C4AB68",
"Y#	c #B59D60",
"Z#	c #AA945A",
"`#	c #F5D482",
" $	c #8E8B7F",
".$	c #CCC8B4",
"+$	c #9A9A8F",
"@$	c #A4A396",
"#$	c #C6C1AF",
"$$	c #97978D",
"%$	c #A5A598",
"&$	c #BEBBAA",
"*$	c #97978E",
"=$	c #39311E",
"-$	c #695B38",
";$	c #907C4D",
">$	c #AB955B",
",$	c #988450",
"'$	c #867548",
")$	c #75663E",
"!$	c #635635",
"~$	c #4A4028",
"{$	c #020202",
"]$	c #655736",
"^$	c #C9AE6A",
"/$	c #0C0A05",
"($	c #979486",
"_$	c #BFBCAC",
":$	c #666D6B",
"<$	c #7F827C",
"[$	c #C7C2B0",
"}$	c #98988F",
"|$	c #9F9E93",
"1$	c #8F9087",
"2$	c #93948B",
"3$	c #5E5132",
"4$	c #221D12",
"5$	c #1C190F",
"6$	c #1F1B11",
"7$	c #211D12",
"8$	c #413823",
"9$	c #665836",
"0$	c #9B8753",
"a$	c #5F5333",
"b$	c #272215",
"c$	c #BBA364",
"d$	c #E5C77A",
"e$	c #C5AB68",
"f$	c #030301",
"g$	c #A19D8F",
"h$	c #BDBAAB",
"i$	c #676E6C",
"j$	c #7C807B",
"k$	c #95968C",
"l$	c #8D8F87",
"m$	c #E2C478",
"n$	c #998552",
"o$	c #7E6D42",
"p$	c #7C6B42",
"q$	c #8B784A",
"r$	c #A68F58",
"s$	c #C3A967",
"t$	c #E9CB7C",
"u$	c #FFDF88",
"v$	c #988351",
"w$	c #1E190F",
"x$	c #B29A5E",
"y$	c #DDBF75",
"z$	c #E6C77A",
"A$	c #E8CA7C",
"B$	c #E3C578",
"C$	c #AF985C",
"D$	c #030302",
"E$	c #A7A393",
"F$	c #BAB8A8",
"G$	c #787D78",
"H$	c #9F9F93",
"I$	c #98998E",
"J$	c #888A83",
"    . + @ # $ % & * = - ; > , ' ) ! ~ { ] ^ / ( _ : < [ . } + | 1 2 3 4 5 6 7 8 9 ",
"      0 a b c - d e f g ) h i j k l m n o p q r s t u v w x y z A B C D E F G H I ",
"      ) J K L M N O P Q R S T U V h W X Y Z `  ...+.@.#.$.%.&.# *.=.; -.;.>.,.'.).",
"        !.~.{.].2 ^.O O f /.g (._.:.. <.[.q }.|.1.2.1.3.4.5.q K ; 6.l S 7.8.9.0.a.",
"          b.c.d.U e.f.O O O * g.h.i.> j.k.l.m.n.o.o.o.p.q.r.q s.t.} u.v.w.x.y.z.a.",
"            > A.B.U a * O O c.< C., h D.E.F.G.p.o.o.o.n.G.H.I.J.K.L.M.N.O.P.Q.R.a.",
"              h S.T.U.V.W.O O X.Y.Z.`. +.+++@+#+o.o.o.n.$+%+&+*+=+-+;+>+,+'+)+>+a.",
"              ) <.!+T.~+O {+O ]+a ^+/+(+_+:+<+m.[+#+}+|+1+2+3+4+5+6+7+8+9+'+0+>+a.",
"                a+b+c+d+e+& f+Q g+h+i+; j+k+l+5.m+n+o+p+q+* r+s+t+u+a.v+w+'+x+R.a.",
"                  x <.y+z+A+X.O g B+T.C+> j.D+E+F+G+H+I+J+K+L+M+N+a.a.R.O+P+Q+R.a.",
"                    R+-.S+T+U+`.c.% V+W+X+-.D.D.Y+Z+`+ @.@+@@@I #@a.a.>+$@P+%@R.a.",
"                      -.&@*@=@T -@]+;@>@,@'@> D.0 '@)@:.!@~@{@]@a.a.a.>+^@'+/@a.9 ",
"                        b+c+(@K N : g _@:@<@[@.@}@|@1@2@3@4@0.a.a.a.a.>+5@6@7@8@9@",
"                        ) 0@a@b@c@]+d@e@f@g@Z.Z.].].h@i@j@0.#@a.a.a.a.k@l@m@n@o@k@",
"                          b.p@d.q@W.Q {+g |@c+r@s@t@u@v@w@9 a.a.a.a.a.9@x@y@z@A@>+",
"                            h B@C@D@N O W.E@M F@G@~+H@I@J@9 a.a.a.a.a.#@K@L@M@N@z.",
"                            O@P@Q@U.R@S@T@U@V@W@X@Y@Z@`@ #a.a.a.a.a.a.a..#+#@#0+8+",
"                              ##$#%#&#2 *#=#-#p@!.;#>#,# #a.a.a.a.a.a.a.8+'#)#!#>+",
"                              ~###_@j {#]#^###-.##/#(#,# #a.a.a.a.a.a.a.z._#:#+#a.",
"                                -.d@<#[#}#|#    b.1#(#,# #a.a.a.a.a.a.a.>+N@2#3#K@",
"                                4#6.5#D }       b.1#(#,# #a.a.a.a.a.a.a.R.6#7#8#9#",
"                                    ; ;         b.1#(#,# #a.a.a.a.a.a.a.v+0#a#b#x@",
"                                                b./#c#d#J@e#a.a.a.a.a.a.#@f#g#6@h#",
"                                                -.X.i#j#J@9 a.a.9 a.a.a.#@a.y@2#k#",
")                                               -.X.i#j#J@9 9@5@o@v+a.a.#@9 9+l#m#",
"n#~#x                         x                 -.X.i#o#J@9 z.p#q##@#@a.e#v+r#s#_#",
"-@| t#) x x x x x ) ) x x x ) u#u#              b.1#v#w# #a.>+^@x#8@#@a.a.k@y#'+z#",
"e f -@X.A#B#}#C#D#E#E#F#:.&@N G#H#x             |#E@I#J#0.a.R.o@K#A@R.a.a.>+$@L#M#",
"-@O e f /.O Q < N#E@}@d@O#W.* P#Q#x             D.< R#S#I 8+T#U#8#_#>+a.a.z.A@V#W#",
"e - & % d@d@% W.g f.- -@X#Y#Z#3+-               `#|@Z@ $.$+$@$#$$$%$z.a.a.>+&$6@*$",
"=$-$;$>$T@a Z#,$'$)$!$~$*#V@{$]$O#}#R+          4 ^$/$($_$:$<$[$}$|$8+a.a.k@l@1$2$",
"3$4$].5$Z.Z.].W@6$B.7$8$9$0$a$b$c$;#d$; x ) x x > e$f$g$h$i$j$K@%@%@v+a.a.9@9#k$l$",
"D.m$!+n$o$p$q$r$s$& t$-.b.u$v$w$x$R {+y$z$A$:.B$C#C$D$E$F$i$G$f#H$I$K@#@a.9 a.%@J$"};
