/* XPM */
static char * attrDel_xpm[] = {
"34 34 756 2",
"  	c #D3D0C9",
". 	c #D2CFC7",
"+ 	c #D6D2CA",
"@ 	c #D1CCC4",
"# 	c #C7948E",
"$ 	c #E20F10",
"% 	c #E42827",
"& 	c #AC8681",
"* 	c #BDC0B9",
"= 	c #D3CFC8",
"- 	c #D7D3CB",
"; 	c #D7D4CC",
"> 	c #D3CFC6",
", 	c #C0BFBC",
"' 	c #CACACA",
") 	c #D4D4D4",
"! 	c #D3D3D3",
"~ 	c #D3D4D4",
"{ 	c #CFD5D5",
"] 	c #EF9393",
"^ 	c #C02121",
"/ 	c #815353",
"( 	c #858484",
"_ 	c #919191",
": 	c #B4B4B4",
"< 	c #CDCDCD",
"[ 	c #6C6A66",
"} 	c #898681",
"| 	c #C4C0B9",
"1 	c #C8C5BD",
"2 	c #ADAAA3",
"3 	c #B5ACA5",
"4 	c #9C3E3C",
"5 	c #EB1112",
"6 	c #D83736",
"7 	c #8F8C86",
"8 	c #888984",
"9 	c #B9B6AF",
"0 	c #9F9B95",
"a 	c #97948E",
"b 	c #C6C2BB",
"c 	c #B2AFA8",
"d 	c #9A9791",
"e 	c #AAA6A0",
"f 	c #BAB6AE",
"g 	c #D8D7D4",
"h 	c #B5B5B6",
"i 	c #A8A8A8",
"j 	c #EAEAEA",
"k 	c #FFFFFF",
"l 	c #FFC8C8",
"m 	c #E63E3E",
"n 	c #7B3131",
"o 	c #989494",
"p 	c #8C8C8C",
"q 	c #DADADA",
"r 	c #F9F9F9",
"s 	c #A7A39D",
"t 	c #C3C0B8",
"u 	c #54534F",
"v 	c #A8A59E",
"w 	c #55524F",
"x 	c #5E5F5B",
"y 	c #8C7B76",
"z 	c #AC1A1A",
"A 	c #EF1919",
"B 	c #AE3735",
"C 	c #58605E",
"D 	c #565653",
"E 	c #696662",
"F 	c #7B7974",
"G 	c #494845",
"H 	c #989590",
"I 	c #E7E3DB",
"J 	c #787772",
"K 	c #898882",
"L 	c #DDD9D0",
"M 	c #C5C3C0",
"N 	c #B8B8B9",
"O 	c #8E8E8E",
"P 	c #D6D6D6",
"Q 	c #FFE7E7",
"R 	c #F76565",
"S 	c #851616",
"T 	c #988A8A",
"U 	c #888989",
"V 	c #929292",
"W 	c #C0C0C0",
"X 	c #EBEBEB",
"Y 	c #FCFCFC",
"Z 	c #A6A39E",
"` 	c #C0BBB4",
" .	c #8B8983",
"..	c #ACAAA3",
"+.	c #817F79",
"@.	c #716F6A",
"#.	c #AEADA7",
"$.	c #704C4A",
"%.	c #D81919",
"&.	c #E11B1C",
"*.	c #8C4B49",
"=.	c #636C6A",
"-.	c #6E6B67",
";.	c #8C8A85",
">.	c #8A8884",
",.	c #BDBAB3",
"'.	c #B6B2AB",
").	c #A09C96",
"!.	c #AFABA5",
"~.	c #BBB7AF",
"{.	c #CDCBC8",
"].	c #D9DCDC",
"^.	c #FFFBFB",
"/.	c #FD8D8D",
"(.	c #A81313",
"_.	c #8F7070",
":.	c #8C8D8D",
"<.	c #8B8B8B",
"[.	c #B1B1B1",
"}.	c #E1E1E1",
"|.	c #D9D6CE",
"1.	c #DAD6CD",
"2.	c #D8D4CC",
"3.	c #D8D4CB",
"4.	c #DCD8CF",
"5.	c #CFCCC4",
"6.	c #BBB6AF",
"7.	c #AC6361",
"8.	c #E70C0C",
"9.	c #DE2F2E",
"0.	c #A9938E",
"a.	c #C7C9C1",
"b.	c #D5D1CA",
"c.	c #D9D5CD",
"d.	c #CECAC2",
"e.	c #D3D2CF",
"f.	c #CECECF",
"g.	c #F6FDFD",
"h.	c #FFB5B5",
"i.	c #CF2A2A",
"j.	c #834949",
"k.	c #8F8E8E",
"l.	c #858686",
"m.	c #A0A0A0",
"n.	c #D1D1D1",
"o.	c #F0F0F0",
"p.	c #FBFBFB",
"q.	c #D3D0C8",
"r.	c #D3CFC7",
"s.	c #D5D1C9",
"t.	c #D4D0C8",
"u.	c #C9C8C0",
"v.	c #B0A49D",
"w.	c #BA423F",
"x.	c #EC0F10",
"y.	c #CB403F",
"z.	c #A5A6A0",
"A.	c #C8C7BF",
"B.	c #D1CCC3",
"C.	c #D3D4D5",
"D.	c #DDE3E3",
"E.	c #EDC3C3",
"F.	c #EA4D4D",
"G.	c #7E2323",
"H.	c #817A7A",
"I.	c #767777",
"J.	c #818181",
"K.	c #A9A9A9",
"L.	c #D7D7D7",
"M.	c #D9D9D9",
"N.	c #DBDBDB",
"O.	c #A8A59F",
"P.	c #C6C2BA",
"Q.	c #D0CCC5",
"R.	c #D1CDC5",
"S.	c #CFCBC3",
"T.	c #CCC8C1",
"U.	c #B7BAB2",
"V.	c #9E837D",
"W.	c #C91F1E",
"X.	c #E81818",
"Y.	c #B65D5A",
"Z.	c #ABB2AB",
"`.	c #C9C6BF",
" +	c #C7C4BC",
".+	c #C6C3BC",
"++	c #C9C5BE",
"@+	c #C7C3BB",
"#+	c #CBCAC7",
"$+	c #D6DBDC",
"%+	c #E9DCDC",
"&+	c #F87171",
"*+	c #991717",
"=+	c #8C7777",
"-+	c #838686",
";+	c #878787",
">+	c #B0B0B0",
",+	c #EDEDED",
"'+	c #F1F1F1",
")+	c #5E5C59",
"!+	c #B8B6B1",
"~+	c #9C9993",
"{+	c #A5A39C",
"]+	c #908C88",
"^+	c #94918C",
"/+	c #999791",
"(+	c #B5B2AA",
"_+	c #807F7A",
":+	c #81837D",
"<+	c #8C5250",
"[+	c #E00E0F",
"}+	c #E32727",
"|+	c #8B605C",
"1+	c #818983",
"2+	c #ACA9A2",
"3+	c #888580",
"4+	c #ABA7A1",
"5+	c #C2BEB6",
"6+	c #D3D5D1",
"7+	c #A3A5A6",
"8+	c #D47272",
"9+	c #BA2121",
"0+	c #8C5E5E",
"a+	c #8F9090",
"b+	c #8A8B8B",
"c+	c #ACACAC",
"d+	c #DCDCDC",
"e+	c #F8F8F8",
"f+	c #83807B",
"g+	c #B7B4AD",
"h+	c #A19D97",
"i+	c #787671",
"j+	c #5E5D5A",
"k+	c #7C7A75",
"l+	c #7E7C76",
"m+	c #83827D",
"n+	c #6A625F",
"o+	c #983333",
"p+	c #EF0F0F",
"q+	c #B81F1F",
"r+	c #5F5653",
"s+	c #A5A8A2",
"t+	c #DFDBD3",
"u+	c #9F9C95",
"v+	c #DBD6CD",
"w+	c #C0C8C4",
"x+	c #D29696",
"y+	c #D22F2F",
"z+	c #873939",
"A+	c #908F8F",
"B+	c #9E9D9D",
"C+	c #CFCFCF",
"D+	c #F2F2F2",
"E+	c #A5A39D",
"F+	c #C3C1BA",
"G+	c #C5C1BA",
"H+	c #A4A09A",
"I+	c #999590",
"J+	c #A19E97",
"K+	c #C4BFB9",
"L+	c #9F9B96",
"M+	c #93908B",
"N+	c #979C97",
"O+	c #86726D",
"P+	c #C52F2E",
"Q+	c #EC1011",
"R+	c #B44847",
"S+	c #A1A5A0",
"T+	c #CFCEC6",
"U+	c #BDB9B2",
"V+	c #C0BDB6",
"W+	c #D1D4CA",
"X+	c #D5B7B5",
"Y+	c #EB5959",
"Z+	c #912121",
"`+	c #8F8282",
" @	c #8D9191",
".@	c #949494",
"+@	c #C3C3C3",
"@@	c #E4E0D8",
"#@	c #DBD7CE",
"$@	c #DEDAD2",
"%@	c #E0DCD4",
"&@	c #DFDBD2",
"*@	c #DFDAD2",
"=@	c #E0DCD3",
"-@	c #DEDAD1",
";@	c #C2C7BF",
">@	c #AB7D79",
",@	c #DA1818",
"'@	c #E61E1E",
")@	c #B2716E",
"!@	c #B2BAB2",
"~@	c #D7D4CB",
"{@	c #DADBD2",
"]@	c #D6CDC6",
"^@	c #F27E7B",
"/@	c #AA1717",
"(@	c #846262",
"_@	c #848A8A",
":@	c #818282",
"<@	c #A4A4A4",
"[@	c #D0D0D0",
"}@	c #E8E8E8",
"|@	c #EEEEEE",
"1@	c #EFEFEF",
"2@	c #C1BDB7",
"3@	c #C2BFB7",
"4@	c #DDD8D0",
"5@	c #DCD8D0",
"6@	c #D8D3CB",
"7@	c #D7D2CA",
"8@	c #DBD7CF",
"9@	c #D5D1C8",
"0@	c #D2CEC5",
"a@	c #D6D3CB",
"b@	c #B5B4AE",
"c@	c #B25E5A",
"d@	c #EA0E0D",
"e@	c #D82F2F",
"f@	c #A88C87",
"g@	c #ADB6AE",
"h@	c #C3C5BD",
"i@	c #EFA09D",
"j@	c #CE2F2F",
"k@	c #844343",
"l@	c #7A7D7D",
"m@	c #747676",
"n@	c #8A8A8A",
"o@	c #B3B3B3",
"p@	c #CCCCCC",
"q@	c #D5D5D5",
"r@	c #8C8A84",
"s@	c #9E9C95",
"t@	c #BCB8B1",
"u@	c #C8C4BD",
"v@	c #BBB7B1",
"w@	c #C5C2BB",
"x@	c #B4B1AB",
"y@	c #A6A29C",
"z@	c #BFBCB4",
"A@	c #A1A49F",
"B@	c #847873",
"C@	c #BA3936",
"D@	c #F11111",
"E@	c #C95654",
"F@	c #7A817C",
"G@	c #AF837F",
"H@	c #E04747",
"I@	c #8F2C2D",
"J@	c #777373",
"K@	c #707474",
"L@	c #C9C9C9",
"M@	c #98958F",
"N@	c #696763",
"O@	c #A3A19A",
"P@	c #6A6763",
"Q@	c #797773",
"R@	c #8A8882",
"S@	c #888681",
"T@	c #908E88",
"U@	c #6B6965",
"V@	c #6D6B67",
"W@	c #63615D",
"X@	c #666F6B",
"Y@	c #714B48",
"Z@	c #D02221",
"`@	c #F64848",
" #	c #BF6C6A",
".#	c #CB4646",
"+#	c #A21E1E",
"@#	c #755D5C",
"##	c #5F6565",
"$#	c #424242",
"%#	c #9F9F9F",
"&#	c #C0BEB6",
"*#	c #84827D",
"=#	c #B3B0A9",
"-#	c #6F6E69",
";#	c #706E6A",
">#	c #CBC7BE",
",#	c #7B7874",
"'#	c #95928D",
")#	c #9A9892",
"!#	c #807E79",
"~#	c #74716E",
"{#	c #75736E",
"]#	c #8A8983",
"^#	c #606662",
"/#	c #A15653",
"(#	c #F54D4C",
"_#	c #FA4243",
":#	c #B01314",
"<#	c #70403E",
"[#	c #6D726F",
"}#	c #5C5E5E",
"|#	c #545454",
"1#	c #BCBCBC",
"2#	c #FAFAFA",
"3#	c #CAC7BF",
"4#	c #AEABA5",
"5#	c #C0BCB5",
"6#	c #B3AFA9",
"7#	c #C5C1B9",
"8#	c #C1BDB6",
"9#	c #B7B4AE",
"0#	c #BCB9B2",
"a#	c #B0B4AE",
"b#	c #AC9A95",
"c#	c #E4615F",
"d#	c #EB1F20",
"e#	c #8C1C1B",
"f#	c #5C5552",
"g#	c #6D7371",
"h#	c #7F7F7F",
"i#	c #DAD6CE",
"j#	c #E1DDD4",
"k#	c #E7E3DA",
"l#	c #DDD9D1",
"m#	c #DFDAD1",
"n#	c #D8DAD1",
"o#	c #DFAFAA",
"p#	c #EE4A4A",
"q#	c #CA0F0F",
"r#	c #9B1413",
"s#	c #6D3F3C",
"t#	c #616765",
"u#	c #A1A2A2",
"v#	c #DEDEDE",
"w#	c #DDDDDD",
"x#	c #DCD7CF",
"y#	c #CDCAC2",
"z#	c #D6D2C9",
"A#	c #C8CBC3",
"B#	c #E1CEC7",
"C#	c #F27473",
"D#	c #BA2222",
"E#	c #7E2322",
"F#	c #AC1818",
"G#	c #B81B19",
"H#	c #866564",
"I#	c #9FA9A9",
"J#	c #C5C2BA",
"K#	c #575653",
"L#	c #85837F",
"M#	c #98948F",
"N#	c #8B8883",
"O#	c #AAA7A0",
"P#	c #96938D",
"Q#	c #8C8D87",
"R#	c #9F9C96",
"S#	c #F29592",
"T#	c #CB2D2D",
"U#	c #723633",
"V#	c #454C4B",
"W#	c #7E2221",
"X#	c #E80F0E",
"Y#	c #CC4847",
"Z#	c #978F8F",
"`#	c #9EA5A5",
" $	c #C3BFB8",
".$	c #6A6765",
"+$	c #7E7C77",
"@$	c #898782",
"#$	c #95918C",
"$$	c #585754",
"%$	c #525551",
"&$	c #BC827F",
"*$	c #DA3E3E",
"=$	c #852928",
"-$	c #696865",
";$	c #3E4846",
">$	c #4B3735",
",$	c #C12524",
"'$	c #F21314",
")$	c #AD5858",
"!$	c #6A6D6D",
"~$	c #CBCDCD",
"{$	c #CBC7C0",
"]$	c #AAA8A2",
"^$	c #ABA8A2",
"/$	c #A3A09A",
"($	c #A19E99",
"_$	c #ADA9A4",
":$	c #939690",
"<$	c #A88C88",
"[$	c #E35A59",
"}$	c #9F201F",
"|$	c #6E5F5B",
"1$	c #6B6E6A",
"2$	c #615F5B",
"3$	c #717A75",
"4$	c #965D5A",
"5$	c #E11D1C",
"6$	c #E82222",
"7$	c #895E5E",
"8$	c #C3CBCB",
"9$	c #FDFDFD",
"0$	c #D0CDC5",
"a$	c #CECAC3",
"b$	c #C9CAC1",
"c$	c #D0C6C0",
"d$	c #F18684",
"e$	c #BC2122",
"f$	c #6D4341",
"g$	c #767B76",
"h$	c #6F6E68",
"i$	c #8E8C86",
"j$	c #AFAEA7",
"k$	c #A4A7A1",
"l$	c #B24E4C",
"m$	c #E80C0D",
"n$	c #CB2E2E",
"o$	c #C2B1B1",
"p$	c #EAF2F2",
"q$	c #FEFFFF",
"r$	c #E6E2D9",
"s$	c #DFDDD4",
"t$	c #D5D3CB",
"u$	c #EFA8A4",
"v$	c #D33637",
"w$	c #792D2C",
"x$	c #767974",
"y$	c #71706C",
"z$	c #8A8782",
"A$	c #B2AFA9",
"B$	c #D0CCC3",
"C$	c #C7C9C2",
"D$	c #958C8A",
"E$	c #BF2F30",
"F$	c #F31111",
"G$	c #C05959",
"H$	c #B1ADAD",
"I$	c #C9CCCC",
"J$	c #AFACA5",
"K$	c #94928C",
"L$	c #A6A29D",
"M$	c #A2A29C",
"N$	c #EAC3BD",
"O$	c #E75253",
"P$	c #922120",
"Q$	c #706966",
"R$	c #777774",
"S$	c #7F7C78",
"T$	c #87847E",
"U$	c #ABA9A1",
"V$	c #BCBAB3",
"W$	c #BCB8B0",
"X$	c #BCC5C2",
"Y$	c #9E7979",
"Z$	c #D41E1E",
"`$	c #E50F0F",
" %	c #B57F7F",
".%	c #CACFCF",
"+%	c #E7E7E7",
"@%	c #918E89",
"#%	c #555451",
"$%	c #908D87",
"%%	c #99968F",
"&%	c #878883",
"*%	c #746663",
"=%	c #FB8583",
"-%	c #A71516",
";%	c #4A2F2E",
">%	c #4D534F",
",%	c #3F3D3B",
"'%	c #8C8983",
")%	c #A7A59D",
"!%	c #ACA9A3",
"~%	c #CDCAC1",
"{%	c #C6C5C2",
"]%	c #99A3A3",
"^%	c #A24E4E",
"/%	c #E41212",
"(%	c #DE2D2D",
"_%	c #C7AFAF",
":%	c #E8EEEE",
"<%	c #FEFEFE",
"[%	c #D2CEC7",
"}%	c #ACA8A3",
"|%	c #777772",
"1%	c #86817D",
"2%	c #BA6767",
"3%	c #D13030",
"4%	c #440E0C",
"5%	c #353A37",
"6%	c #444340",
"7%	c #514F4C",
"8%	c #A29F99",
"9%	c #9D9A94",
"0%	c #AAA7A1",
"a%	c #C4C3C0",
"b%	c #A7ACAC",
"c%	c #777A7A",
"d%	c #B23030",
"e%	c #EE1010",
"f%	c #CF5050",
"g%	c #CDC5C5",
"h%	c #EFF2F2",
"i%	c #C6C3BB",
"j%	c #BFBDB6",
"k%	c #D19E9B",
"l%	c #DE4343",
"m%	c #7F2120",
"n%	c #6A6A67",
"o%	c #636360",
"p%	c #73706C",
"q%	c #999690",
"r%	c #CBC7BF",
"s%	c #CCC8C0",
"t%	c #BABBBB",
"u%	c #A1A9A9",
"v%	c #B49E9E",
"w%	c #D92E2E",
"x%	c #ED0E0E",
"y%	c #C47A7A",
"z%	c #D8D7D7",
"A%	c #F8F9F9",
"B%	c #D5D3CC",
"C%	c #DEC5BF",
"D%	c #EB6867",
"E%	c #A11D1C",
"F%	c #71635F",
"G%	c #767873",
"H%	c #787572",
"I%	c #9C9994",
"J%	c #C2BDB6",
"K%	c #CFCBC2",
"L%	c #CACAC6",
"M%	c #DDDEDE",
"N%	c #E4E5E5",
"O%	c #D1DADA",
"P%	c #B67676",
"Q%	c #DF1C1C",
"R%	c #E51E1E",
"S%	c #BA9999",
"T%	c #D6D8D8",
"U%	c #ECECEC",
"V%	c #CBC3BB",
"W%	c #F08B8A",
"X%	c #C42424",
"Y%	c #694543",
"Z%	c #7D807B",
"`%	c #75726E",
" &	c #94918B",
".&	c #BDBAB1",
"+&	c #D2CEC6",
"@&	c #CFCCC3",
"#&	c #C1C0BD",
"$&	c #D6D6D7",
"%&	c #E5E4E4",
"&&	c #D4D5D5",
"*&	c #B1BBBB",
"=&	c #BB4B4B",
"-&	c #EB1515",
";&	c #CE3131",
">&	c #ABA3A3",
",&	c #C8CBCB",
"'&	c #706C6A",
")&	c #CE918E",
"!&	c #DD3D3D",
"~&	c #5E1716",
"{&	c #585C59",
"]&	c #5C5C58",
"^&	c #6E6C67",
"/&	c #7D7A75",
"(&	c #8F8C87",
"_&	c #C3C0B9",
":&	c #CBC8C0",
"<&	c #95928B",
"[&	c #888680",
"}&	c #C4C2B9",
"|&	c #D5D5D2",
"1&	c #AEAFAF",
"2&	c #E3E3E3",
"3&	c #EFF3F3",
"4&	c #C6BEBE",
"5&	c #CF3131",
"6&	c #EC1010",
"7&	c #C56060",
"8&	c #D0CBCB",
"9&	c #F0F1F1",
"0&	c #755754",
"a&	c #EE5A5A",
"b&	c #8C1919",
"c&	c #5F5C58",
"d&	c #373835",
"e&	c #605E5B",
"f&	c #494846",
"g&	c #6A6864",
"h&	c #555350",
"i&	c #9D9994",
"j&	c #EAE6DC",
"k&	c #ABA8A1",
"l&	c #B0ACA6",
"m&	c #C5C5C2",
"n&	c #B8B9B9",
"o&	c #E6ECEC",
"p&	c #BF9494",
"q&	c #DC2121",
"r&	c #EB1313",
"s&	c #BF9191",
"t&	c #CEC1BB",
"u&	c #D46263",
"v&	c #B01C1C",
"w&	c #4D3937",
"x&	c #434744",
"y&	c #4A4946",
"z&	c #656360",
"A&	c #676562",
"B&	c #84837E",
"C&	c #B8B5AE",
"D&	c #696764",
"E&	c #C6C3BA",
"F&	c #CDCCCA",
"G&	c #A9AAAB",
"H&	c #828282",
"I&	c #DAE3E3",
"J&	c #C06464",
"K&	c #E61B1B",
"L&	c #DD2525",
"M&	c #C3B4B4",
"N&	c #D6CEC6",
"O&	c #EA908E",
"P&	c #CF2727",
"Q&	c #663835",
"R&	c #818580",
"S&	c #8D8B85",
"T&	c #B6B2AC",
"U&	c #D0CCC4",
"V&	c #D4D0C9",
"W&	c #CEC9C1",
"X&	c #D2D1CE",
"Y&	c #F4F5F5",
"Z&	c #CDD2D2",
"`&	c #C83B3B",
" *	c #DE1313",
".*	c #CCC9C9",
"+*	c #D7D3CC",
"@*	c #D6D0C8",
"#*	c #DF9994",
"$*	c #D51C1C",
"%*	c #6C2121",
"&*	c #72716C",
"**	c #83817C",
"=*	c #CAC7C0",
"-*	c #D5D2CA",
";*	c #C0BEBC",
">*	c #D2D2D2",
",*	c #C2C5C5",
"'*	c #9F8989",
")*	c #9F1C1C",
"!*	c #840808",
"~*	c #8E6969",
"{*	c #B5B4B4",
"]*	c #CECECE",
"  . + + @ # $ % & * = + - - + + + ; ; > , ' ) ! ! ~ { ] ^ / ( _ : < ",
"[ } | 1 2 3 4 5 6 7 8 9 0 a b = c d e f g h i j k k l m n o p i q r ",
"s t u v w x y z A B C D E F G H I J K L M N O P k Q R S T U V W X Y ",
"Z `  ...+.@.#.$.%.&.*.=.-.;.>.,.'.).!.~.{.h _ ].^./.(._.:.<.[.}.r k ",
"|.+ 1.2.3.4.5.6.7.8.9.0.a.b.c.+ + c.2.d.e.f.! g.h.i.j.k.l.m.n.o.p.p.",
"q.r.s.s.s.s.t.u.v.w.x.y.z.A.s.t.t.s.s.B., C.D.E.F.G.H.I.J.K.' L.M.N.",
"O.P.Q.R.S.S.T.R.U.V.W.X.Y.Z.`.+  +.+++@+#+$+%+&+*+=+-+;+>+M.,+o.'+'+",
")+!+~+{+]+^+/+(+_+:+<+[+}+|+1+Q.2+3+4+5+6+7+8+9+0+a+b+c+d+e+k k k k ",
"f+g+h+i+j+@.g+k+l+m+n+o+p+q+r+s+t+u+2 v+w+x+y+z+A+b+B+C+D+k k k k k ",
"E+F+G+H+I+J+K+L+M+v N+O+P+Q+R+S+T+U+V+W+X+Y+Z+`+ @.@+@,+k k k k k k ",
"@@#@- $@%@&@- *@=@-@4.;@>@,@'@)@!@~@{@]@^@/@(@_@:@<@[@}@|@|@|@|@|@1@",
"2@3@4@- 5@6@5@7@8@9@0@a@b@c@d@e@f@g@h@i@j@k@l@m@n@o@p@) q@q@q@q@q@P ",
"r@s@t@u@v@w@x@++,.t@y@z@A@B@C@D@E@F@G@H@I@J@K@_ L@o.k k k k k k k k ",
"M@9 N@O@P@Q@R@;.S@T@U@V@W@X@Y@Z@`@ #.#+#@###$#%#}@Y k k k k k k k k ",
"O.&#*#=#-#;#>#,#'#)#!#~#{#]#^#/#(#_#:#<#[#}#|#1#2#k k k k k k k k k ",
"3#S.t R.4#5#S.U+6#7#8#9#0#f a#b#c#d#e#f#g#h#m.}@k k k k k k k k k k ",
"i#+ #@s.j#k#l#8@m#4.4.l#$@%@n#o#p#q#r#s#t#u#) v#w#w#w#w#w#w#w#w#w#v#",
"+ t.t.t.5.O.9#x#3.y#z#&@R.A#B#C#D#E#F#G#H#I#< w#w#w#w#w#w#w#w#w#w#v#",
"+ t.t.t.J#K#L#=#M#N#O#P#Q#R#S#T#U#V#W#X#Y#Z#`#j k k k k k k k k k k ",
"+ t.t.t. $.$+$r@@$K##$$$%$&$*$=$-$;$>$,$'$)$!$~$k k k k k k k k k k ",
"+ t.t.t.{$]$=#^$/$($_$:$<$[$}$|$1$2$3$4$5$6$7$8$9$k k k k k k k k k ",
"+ t.t.t.r.0$+ a$ $+ b$c$d$e$f$g$h$i$j$k$l$m$n$o$p$q$k k k k k k k k ",
"+ t.t.t.L r$$@t.#@s$t$u$v$w$x$y$z$A$B$C$D$E$F$G$H$I$) q@q@q@q@q@q@P ",
"+ t.t.r.J$K$L$j# +M$N$O$P$Q$R$S$T$U$V$W$X$Y$Z$`$ %.%+%|@|@|@|@|@|@1@",
"+ t.t.r.@%#%$%%%&%*%=%-%;%>%,%'%)%z$!%~%{%]%^%/%(%_%:%<%k k k k k k ",
"+ t.t.[%M+}%k+|%1%2%3%4%5%6%7%8%s.9%0%3.a%b%c%d%e%f%g%h%k k k k k k ",
"+ t.t.t.i%r.5#j%k%l%m%n%o%p%q%@++ r%s%S.e.t%u%v%w%x%y%z%A%k k k k k ",
"+ t.t.t.s.s.B%C%D%E%F%G%H%I%J%> s.s.+ K%L%M%N%O%P%Q%R%S%T%U%o.'+'+'+",
"+ t.t.t.s.y#V%W%X%Y%Z%`% &.&+&+ [%T.y#@&#&$&%&&&*&=&-&;&>&,&L.M.M.N.",
"+ t.t.t.G+'&)&!&~&{&]&^&/&(&_&:&3.<&[&}&|&1&m.2&3&4&5&6&7&8&9&p.p.p.",
"+ t.t.t.K+0&a&b&c&d&e&f&g&f+h&i&j&k&l&1.m&n&_ M.k o&p&q&r&s&v#r k k ",
"+ t.t.t.t&u&v&w&x&y&z&A&[ B&+.C&C&D&z$E&F&G&H&L.k r I&J&K&L&M&}@Y k ",
"+ t.t.N&O&P&Q&R&y$S&T&U&+ s.s.t.t.V&s.W&X&P N.e+k k Y&Z&`& *=&.*D+k ",
"+*+ @*#*$*%*m+&***!%=*-*+ + + + + + - r.;*' ) ! ! ! >*,*'*)*!*~*{*]*"};
