/* XPM */
static char * autoWeld_xpm[] = {
"32 32 359 2",
"  	c None",
". 	c #C1C1C1",
"+ 	c #B5A4B9",
"@ 	c #BDB7BE",
"# 	c #BFBFC0",
"$ 	c #783198",
"% 	c #814E9E",
"& 	c #8585A5",
"* 	c #9393AB",
"= 	c #A590B1",
"- 	c #BAB2BC",
"; 	c #BEBEC0",
"> 	c #57578F",
", 	c #2F54A4",
"' 	c #406EB1",
") 	c #1253A3",
"! 	c #0C2883",
"~ 	c #6F2893",
"{ 	c #7F489C",
"] 	c #6C6C99",
"^ 	c #8282A4",
"/ 	c #A492B2",
"( 	c #B5A6B9",
"_ 	c #B5A5B9",
": 	c #73739C",
"< 	c #09469D",
"[ 	c #0271C1",
"} 	c #1277C1",
"| 	c #1272BC",
"1 	c #293583",
"2 	c #3867A8",
"3 	c #2D7ABB",
"4 	c #0D56A7",
"5 	c #0A3A92",
"6 	c #3E2481",
"7 	c #783298",
"8 	c #404085",
"9 	c #676797",
"0 	c #8B8AA7",
"a 	c #9561A7",
"b 	c #BAB2BD",
"c 	c #B9AEBC",
"d 	c #7F2F99",
"e 	c #733D98",
"f 	c #1F5BA6",
"g 	c #146CB7",
"h 	c #4391A4",
"i 	c #6D7C72",
"j 	c #2B529A",
"k 	c #0773C1",
"l 	c #0974C1",
"m 	c #0C4298",
"n 	c #274390",
"o 	c #5084BC",
"p 	c #1561AE",
"q 	c #063E97",
"r 	c #211F7B",
"s 	c #80369B",
"t 	c #AC95B5",
"u 	c #BDBDBF",
"v 	c #6B6898",
"w 	c #723E9B",
"x 	c #6670AA",
"y 	c #3E5798",
"z 	c #52566C",
"A 	c #C0BF1F",
"B 	c #D8D713",
"C 	c #4775AC",
"D 	c #0B68B6",
"E 	c #2E84BC",
"F 	c #548C9F",
"G 	c #282D7B",
"H 	c #0C6FBB",
"I 	c #1076C1",
"J 	c #2D82C1",
"K 	c #086DBB",
"L 	c #383B84",
"M 	c #9B79AB",
"N 	c #484889",
"O 	c #0B358D",
"P 	c #0A74C1",
"Q 	c #0E76C1",
"R 	c #1F7DC1",
"S 	c #64898F",
"T 	c #CECE26",
"U 	c #D7D616",
"V 	c #315198",
"W 	c #111E79",
"X 	c #777E52",
"Y 	c #D9D917",
"Z 	c #C9CB26",
"` 	c #2680BE",
" .	c #1278C1",
"..	c #4C90C1",
"+.	c #476CA5",
"@.	c #7979A0",
"#.	c #A09BB1",
"$.	c #264A95",
"%.	c #0070C1",
"&.	c #0170C1",
"*.	c #0472C1",
"=.	c #1164B2",
"-.	c #413B87",
";.	c #6F93BA",
">.	c #4A8FC1",
",.	c #0A75C1",
"'.	c #0B74C1",
").	c #7C8D5B",
"!.	c #D6D922",
"~.	c #D7D517",
"{.	c #62628E",
"].	c #1F398A",
"^.	c #6565A3",
"/.	c #8758A0",
"(.	c #84329B",
"_.	c #86479F",
":.	c #5B76A7",
"<.	c #125FAE",
"[.	c #0673C1",
"}.	c #1A6AB3",
"|.	c #363282",
"1.	c #333193",
"2.	c #2D4F99",
"3.	c #376BAA",
"4.	c #387DB8",
"5.	c #4279B2",
"6.	c #78629E",
"7.	c #5F89B1",
"8.	c #478EC1",
"9.	c #3285C1",
"0.	c #4279B3",
"a.	c #623593",
"b.	c #7D3099",
"c.	c #A98DB2",
"d.	c #9359A5",
"e.	c #9393AC",
"f.	c #464687",
"g.	c #3D3A86",
"h.	c #673D94",
"i.	c #4F4B94",
"j.	c #1A73BC",
"k.	c #0466B7",
"l.	c #094BA0",
"m.	c #0C3991",
"n.	c #312D7F",
"o.	c #7C2C98",
"p.	c #783A9D",
"q.	c #3C86BE",
"r.	c #247FC1",
"s.	c #2B78B8",
"t.	c #3E3E84",
"u.	c #A993B3",
"v.	c #B4A5B9",
"w.	c #A696B2",
"x.	c #563C8E",
"y.	c #2773BA",
"z.	c #0572C1",
"A.	c #026FC0",
"B.	c #126DBA",
"C.	c #6A2D94",
"D.	c #4A489A",
"E.	c #2B4A94",
"F.	c #2F559C",
"G.	c #30428C",
"H.	c #79739F",
"I.	c #9764A7",
"J.	c #A27CAE",
"K.	c #B9B9BE",
"L.	c #6F6F9B",
"M.	c #2D73B5",
"N.	c #0874C1",
"O.	c #11116F",
"P.	c #0C75C1",
"Q.	c #146BB6",
"R.	c #154598",
"S.	c #403286",
"T.	c #722B94",
"U.	c #784199",
"V.	c #77779F",
"W.	c #9696AD",
"X.	c #BFBDC0",
"Y.	c #8B4AA0",
"Z.	c #856AA1",
"`.	c #3E6EAB",
" +	c #0D0D6D",
".+	c #0362B6",
"++	c #0E227E",
"@+	c #1B3E91",
"#+	c #2975BD",
"$+	c #1F66AF",
"%+	c #094197",
"&+	c #0A1F7C",
"*+	c #1B1B74",
"=+	c #686597",
"-+	c #7D2E99",
";+	c #9D6CAA",
">+	c #8948A0",
",+	c #5C258F",
"'+	c #206DB3",
")+	c #0357AC",
"!+	c #0A2682",
"~+	c #035DB1",
"{+	c #0D1472",
"]+	c #06449C",
"^+	c #0371C1",
"/+	c #086CBB",
"(+	c #355AA6",
"_+	c #6B2591",
":+	c #B09BB6",
"<+	c #8D62A4",
"[+	c #6B3C99",
"}+	c #33499D",
"|+	c #13277F",
"1+	c #0C1372",
"2+	c #08328C",
"3+	c #0451A6",
"4+	c #1863A5",
"5+	c #1D3682",
"6+	c #1655A4",
"7+	c #151B76",
"8+	c #0458AC",
"9+	c #0F76C1",
"0+	c #255FA7",
"a+	c #746C9C",
"b+	c #8D8DA9",
"c+	c #36468D",
"d+	c #1673BC",
"e+	c #0163B6",
"f+	c #05449C",
"g+	c #123A8F",
"h+	c #5A8980",
"i+	c #93A63E",
"j+	c #9B9C2F",
"k+	c #667173",
"l+	c #206DB4",
"m+	c #0C217D",
"n+	c #8B8BA7",
"o+	c #9898AE",
"p+	c #0F1673",
"q+	c #0364B6",
"r+	c #0169BB",
"s+	c #1756A3",
"t+	c #95A239",
"u+	c #D8D612",
"v+	c #D7D512",
"w+	c #90A864",
"x+	c #1679BF",
"y+	c #181872",
"z+	c #A7A7B5",
"A+	c #1573B9",
"B+	c #949E38",
"C+	c #D6D513",
"D+	c #D4D415",
"E+	c #7C8459",
"F+	c #161D73",
"G+	c #0069BB",
"H+	c #0873C1",
"I+	c #0B4298",
"J+	c #5C5C91",
"K+	c #BCBCBF",
"L+	c #054AA1",
"M+	c #025DB1",
"N+	c #111D77",
"O+	c #41688D",
"P+	c #91904E",
"Q+	c #83AF6B",
"R+	c #2581AD",
"S+	c #036ABA",
"T+	c #044AA1",
"U+	c #082B87",
"V+	c #092C87",
"W+	c #056BBB",
"X+	c #1877C0",
"Y+	c #363C88",
"Z+	c #A378AF",
"`+	c #877AA5",
" @	c #234C98",
".@	c #0B1977",
"+@	c #0572C0",
"@@	c #1F1F72",
"#@	c #167ABE",
"$@	c #0472C0",
"%@	c #1C2A86",
"&@	c #5F288D",
"*@	c #8F55A4",
"=@	c #AA88B2",
"-@	c #7F2C99",
";@	c #792B97",
">@	c #427AB7",
",@	c #0B75C1",
"'@	c #1C2B8A",
")@	c #7C2D98",
"!@	c #80359B",
"~@	c #B19BB7",
"{@	c #83309B",
"]@	c #82369B",
"^@	c #7A6F9E",
"/@	c #364C92",
"(@	c #0E51A3",
"_@	c #092582",
":@	c #1C277D",
"<@	c #9161A5",
"[@	c #AC94B5",
"}@	c #BDB8BE",
"|@	c #9191AA",
"1@	c #4A4A89",
"2@	c #2B307F",
"3@	c #2C4D9D",
"4@	c #593A9F",
"5@	c #48308D",
"6@	c #10388E",
"7@	c #035EB1",
"8@	c #29297A",
"9@	c #B3B3BA",
"0@	c #794099",
"a@	c #6F2F95",
"b@	c #185DA9",
"c@	c #083991",
"d@	c #5B5B91",
"e@	c #AD8FB4",
"f@	c #863C9D",
"g@	c #8F61A5",
"h@	c #4E4E8B",
"i@	c #0C1A77",
"j@	c #16479A",
"k@	c #0A4198",
"l@	c #AAAAB6",
"m@	c #ABABB6",
"n@	c #1B1B73",
"o@	c #294491",
"p@	c #3C2B8F",
"q@	c #1D3E98",
"r@	c #2F2F7C",
"s@	c #8C68A4",
"t@	c #7A2C97",
"u@	c #5B268E",
"v@	c #094098",
"w@	c #093A92",
"x@	c #73739D",
"y@	c #AF95B6",
"z@	c #863B9D",
"A@	c #996EAA",
"B@	c #595990",
"C@	c #191972",
"D@	c #1676C0",
"E@	c #AEAEB8",
"F@	c #B6B6BC",
"G@	c #7F7FA2",
"H@	c #30307D",
"I@	c #0F1C78",
"J@	c #1B51A0",
"K@	c #3A3C9E",
"L@	c #663691",
"M@	c #BCB4BE",
"N@	c #7C679E",
"O@	c #7A2B97",
"P@	c #85389C",
"Q@	c #812E9A",
"R@	c #9357A5",
". . . . . . . . . . . . + @ . . . . . . . . . . . . . . . . . . ",
". . . . . . . . . . . # $ % & * = - . . . . . . . . . . . . . . ",
". . . . . . . . . . ; > , ' ) ! ~ { ] ^ / ( . . . . . . . . . . ",
". . . . . . . . . _ : < [ } | 1 2 3 4 5 6 7 8 9 0 a b . . . . . ",
". . . . . . . . c d e f g h i j k k l m n o p q r s t . . . . . ",
". . . . . . . u v w x y z A B C D E F G H I J K L M . . . . . . ",
". . . . . . ; N O P Q R S T U V W X Y Z `  ...+.@.. . . . . . . ",
". . . . . c #.$.%.&.*.=.-.;.>.,.'.).!.~.{.].^./.# . . . . . . . ",
". . . . @ (._.:.<.[.}.|.1.2.3.4.5.6.7.8.9.0.a.b.c.. . . . . . . ",
". . . . . d.t e.f.g.h.i.j.k.l.m.n.o.p.q.r.s.t.u.v.. . . . . . . ",
". . . . . . . . . w.x.y.z.%.&.A.B.C.D.E.F.G.H.I.J.. . . . . . . ",
". . . . . . . . K.L.M.N.%.%.%.%.[ O.l P.Q.R.S.T.U.V.W.. . b X.. ",
". . . . . . . Y.Z.`.l %.%.%.&.%.%. +&.&..+++@+#+$+%+&+*+=+-+;+. ",
". . . . . . >+o.,+'+&.%.%.%.[ [ )+!+&.~+{+]+^+z.z.[ &./+(+_+:+. ",
". . . . . . <+[+}+|+1+2+3+%.z. .4+5+6+7+8+&.%.%.%.^+k 9+0+a+. . ",
". . . . . b+c+d+z.&.e+f+&+1+g+h+i+j+k+l+*.%.%.%.%.[ z.^+m+n+. . ",
". . . . o+p+q+%.%.%.%.%.%.r+s+t+u+v+w+x+&.%.%.%.[ [ [ e+y+. . . ",
". . . z+*+~+%.%.%.%.%.%.&.[ A+B+C+D+E+F+2+3+G+[ [ ^+H+I+J+. . . ",
". . K+t.L+%.%.%.%.%.%.%.%.M+N+O+P+Q+R+S+T+U+ +V+L+W+X+Y+z+. . . ",
". Z+`+ @[ %.%.%.%.%.%.%.T+.@T++@@@#@$@%.%.%.G+T+U+{+%@&@*@. . . ",
"=@-@;@>@,@&.%.%.%.%.%.q .@M+%.G+1+[ &.%.%.%.%.%.%.%.'@)@!@. . . ",
"~@{@]@^@/@(@[ &.[ r+U+&+G+%.%.)+_@%.%.%.%.%.%.&.%.&.:@<@[@. . . ",
". . }@. |@1@2@3@4@5@6@%.%.%.%.)+_@%.%.%.%.%.%.&.&.7@8@. . . . . ",
". . . . . . 9@0@o.a@b@&.%.%.[ L+2+%.%.%.%.%.%.%.&.c@d@. . . . . ",
". . . . . . . e@f@g@h@i@q e+H+j@k@%.%.%.%.%.%.&.[ i@l@. . . . . ",
". . . . . . . . . . . m@d@n@o@p@q@[ %.%.%.%.&.&.7@r@. . . . . . ",
". . . . . . . . . . . . . . s@t@u@v@e+%.%.%.[ ^+w@x@. . . . . . ",
". . . . . . . . . . . . . . y@z@A@B@C@U+3+%.^+D@1 E@. . . . . . ",
". . . . . . . . . . . . . . . . . . F@G@H@I@J@K@L@M@. . . . . . ",
". . . . . . . . . . . . . . . . . . . . . l@N@O@P@. . . . . . . ",
". . . . . . . . . . . . . . . . . . . . . . e@Q@R@. . . . . . . ",
". . . . . . . . . . . . . . . . . . . . . . . c c . . . . . . . "};
