/* XPM */
static char * bat_xpm[] = {
"41 33 593 2",
"  	c #5D4A33",
". 	c #614D35",
"+ 	c #5E4A33",
"@ 	c #57452F",
"# 	c #4E3E2B",
"$ 	c #463827",
"% 	c #453726",
"& 	c #4D3D2A",
"* 	c #53422E",
"= 	c #55432E",
"- 	c #5B4832",
"; 	c #634E36",
"> 	c #5F4C34",
", 	c #624F36",
"' 	c #33281B",
") 	c #5E4B33",
"! 	c #433625",
"~ 	c #1E1811",
"{ 	c #0C0907",
"] 	c #020202",
"^ 	c #050402",
"/ 	c #040402",
"( 	c #020201",
"_ 	c #020101",
": 	c #080604",
"< 	c #0D0B07",
"[ 	c #18130D",
"} 	c #271F15",
"| 	c #372C1F",
"1 	c #4F3F2B",
"2 	c #584630",
"3 	c #604D34",
"4 	c #2F261A",
"5 	c #030302",
"6 	c #120F0B",
"7 	c #241D16",
"8 	c #2D251B",
"9 	c #30271C",
"0 	c #2F261B",
"a 	c #2D241A",
"b 	c #272017",
"c 	c #241D15",
"d 	c #1B1510",
"e 	c #0F0C08",
"f 	c #080705",
"g 	c #070604",
"h 	c #17120C",
"i 	c #403323",
"j 	c #5F4B34",
"k 	c #624D35",
"l 	c #3A2E1F",
"m 	c #000000",
"n 	c #261E16",
"o 	c #392E21",
"p 	c #372D20",
"q 	c #382D21",
"r 	c #392F22",
"s 	c #3A2F22",
"t 	c #382E21",
"u 	c #372C20",
"v 	c #352B1F",
"w 	c #2C241A",
"x 	c #1A150F",
"y 	c #040403",
"z 	c #2A2117",
"A 	c #614E35",
"B 	c #5E4B34",
"C 	c #56442F",
"D 	c #070503",
"E 	c #201A13",
"F 	c #3B3023",
"G 	c #362C20",
"H 	c #362C1F",
"I 	c #241F16",
"J 	c #1A1911",
"K 	c #13130D",
"L 	c #0C0E0A",
"M 	c #0B0C08",
"N 	c #090A07",
"O 	c #080906",
"P 	c #0A0B08",
"Q 	c #0B0C09",
"R 	c #0E100B",
"S 	c #17170F",
"T 	c #17140F",
"U 	c #010001",
"V 	c #2E2519",
"W 	c #645037",
"X 	c #3A2E20",
"Y 	c #060504",
"Z 	c #221C14",
"` 	c #15110C",
" .	c #0F0C09",
"..	c #0A0906",
"+.	c #0D0806",
"@.	c #180C0A",
"#.	c #24100E",
"$.	c #331613",
"%.	c #411C19",
"&.	c #542520",
"*.	c #642C26",
"=.	c #6F302B",
"-.	c #592722",
";.	c #552520",
">.	c #451E1A",
",.	c #321513",
"'.	c #000201",
").	c #483A29",
"!.	c #634F36",
"~.	c #211A12",
"{.	c #1B150F",
"].	c #030201",
"^.	c #260F0E",
"/.	c #A94B41",
"(.	c #CD5C4F",
"_.	c #D76053",
":.	c #E26557",
"<.	c #E06557",
"[.	c #DF6456",
"}.	c #E06457",
"|.	c #E36658",
"1.	c #D66053",
"2.	c #BB5448",
"3.	c #8D3F37",
"4.	c #3E1C18",
"5.	c #070504",
"6.	c #604C34",
"7.	c #1C160F",
"8.	c #050403",
"9.	c #362B1E",
"0.	c #4D3E2B",
"a.	c #13100B",
"b.	c #401B18",
"c.	c #D55F52",
"d.	c #DB6254",
"e.	c #D45F52",
"f.	c #DB6255",
"g.	c #823931",
"h.	c #211B13",
"i.	c #372B1E",
"j.	c #624E36",
"k.	c #53432E",
"l.	c #030703",
"m.	c #592622",
"n.	c #DE6356",
"o.	c #DC6255",
"p.	c #54432E",
"q.	c #413323",
"r.	c #473928",
"s.	c #4C201C",
"t.	c #642B26",
"u.	c #6D2F29",
"v.	c #A64A40",
"w.	c #D96154",
"x.	c #493A28",
"y.	c #443725",
"z.	c #221D14",
"A.	c #221E14",
"B.	c #010402",
"C.	c #53241F",
"D.	c #B85347",
"E.	c #813932",
"F.	c #4E211D",
"G.	c #542420",
"H.	c #833A33",
"I.	c #C6594C",
"J.	c #E36657",
"K.	c #904037",
"L.	c #604C35",
"M.	c #54422E",
"N.	c #0C0A07",
"O.	c #604D35",
"P.	c #0D0C08",
"Q.	c #080202",
"R.	c #0C0B07",
"S.	c #26100E",
"T.	c #AA4C42",
"U.	c #964339",
"V.	c #0B0303",
"W.	c #574630",
"X.	c #0E0B08",
"Y.	c #1E1A11",
"Z.	c #685239",
"`.	c #69533A",
" +	c #594831",
".+	c #231E14",
"++	c #0B0504",
"@+	c #0B0705",
"#+	c #352B1E",
"$+	c #5D4B33",
"%+	c #19140E",
"&+	c #1F1911",
"*+	c #352B1D",
"=+	c #120E0A",
"-+	c #5C4933",
";+	c #3E3222",
">+	c #261E14",
",+	c #1D1810",
"'+	c #0D0B08",
")+	c #34291C",
"!+	c #594731",
"~+	c #51412D",
"{+	c #5B4932",
"]+	c #5C4932",
"^+	c #14100B",
"/+	c #32281B",
"(+	c #1E1710",
"_+	c #594631",
":+	c #0E0C08",
"<+	c #665138",
"[+	c #433525",
"}+	c #090705",
"|+	c #080704",
"1+	c #584731",
"2+	c #2B2218",
"3+	c #0A0806",
"4+	c #2C2318",
"5+	c #51402C",
"6+	c #15110B",
"7+	c #2E2419",
"8+	c #53422D",
"9+	c #413424",
"0+	c #4A3B29",
"a+	c #0B0906",
"b+	c #644F37",
"c+	c #31271B",
"d+	c #30271B",
"e+	c #50402C",
"f+	c #120F0A",
"g+	c #110E0A",
"h+	c #15110D",
"i+	c #100D0A",
"j+	c #2D2419",
"k+	c #614D36",
"l+	c #4E3D2B",
"m+	c #0C0906",
"n+	c #0A0805",
"o+	c #3D3221",
"p+	c #3B2E20",
"q+	c #060503",
"r+	c #1B1611",
"s+	c #17120E",
"t+	c #120E0B",
"u+	c #0E0A08",
"v+	c #0B0806",
"w+	c #16120D",
"x+	c #14110C",
"y+	c #010101",
"z+	c #1C1710",
"A+	c #2B2217",
"B+	c #574530",
"C+	c #52412C",
"D+	c #4B3C29",
"E+	c #52412D",
"F+	c #040302",
"G+	c #624E35",
"H+	c #100D08",
"I+	c #56452F",
"J+	c #5A4832",
"K+	c #13100C",
"L+	c #17130E",
"M+	c #090505",
"N+	c #050503",
"O+	c #191910",
"P+	c #242318",
"Q+	c #2D2D1E",
"R+	c #212116",
"S+	c #060604",
"T+	c #19150F",
"U+	c #090806",
"V+	c #3E3122",
"W+	c #110E09",
"X+	c #0E0B07",
"Y+	c #3B3021",
"Z+	c #5F4B35",
"`+	c #352A1D",
" @	c #0E0C09",
".@	c #201A12",
"+@	c #231C13",
"@@	c #140F0C",
"#@	c #050302",
"$@	c #3F3E29",
"%@	c #8D8B5D",
"&@	c #C5C584",
"*@	c #D8D68F",
"=@	c #DCD991",
"-@	c #EEEB9D",
";@	c #EDEC9F",
">@	c #BBB97C",
",@	c #1A1A11",
"'@	c #030202",
")@	c #1D1812",
"!@	c #0D0B09",
"~@	c #15100C",
"{@	c #1D170F",
"]@	c #584936",
"^@	c #46452E",
"/@	c #B1B077",
"(@	c #FFFFAA",
"_@	c #FFFFB5",
":@	c #C7C485",
"<@	c #53513B",
"[@	c #23221A",
"}@	c #2A291F",
"|@	c #676548",
"1@	c #CCCB8D",
"2@	c #D2D18C",
"3@	c #181810",
"4@	c #0A0705",
"5@	c #655037",
"6@	c #4B3C2A",
"7@	c #473827",
"8@	c #443625",
"9@	c #241C14",
"0@	c #7F684E",
"a@	c #A3A16C",
"b@	c #FDFCAB",
"c@	c #FFFFB4",
"d@	c #FBFAAA",
"e@	c #696747",
"f@	c #101106",
"g@	c #5A5F15",
"h@	c #A4AC2B",
"i@	c #959D27",
"j@	c #44480E",
"k@	c #0F0F07",
"l@	c #9A9868",
"m@	c #C1BF7F",
"n@	c #130E0B",
"o@	c #1D1710",
"p@	c #423525",
"q@	c #0F0B08",
"r@	c #251D14",
"s@	c #2A2217",
"t@	c #4B3B29",
"u@	c #887054",
"v@	c #1A1510",
"w@	c #010100",
"x@	c #1D1D13",
"y@	c #E4E296",
"z@	c #F9F7A7",
"A@	c #54523A",
"B@	c #191A01",
"C@	c #B7C031",
"D@	c #FAFF46",
"E@	c #F7FF45",
"F@	c #FBFF46",
"G@	c #A2AA2B",
"H@	c #080901",
"I@	c #B3B177",
"J@	c #6D6C48",
"K@	c #070605",
"L@	c #292117",
"M@	c #453625",
"N@	c #5B4831",
"O@	c #8A7255",
"P@	c #020000",
"Q@	c #403F2A",
"R@	c #D2D18E",
"S@	c #74724F",
"T@	c #151702",
"U@	c #CBD438",
"V@	c #F9FF46",
"W@	c #EEFA43",
"X@	c #F4FF44",
"Y@	c #F2FD44",
"Z@	c #FFFF48",
"`@	c #565B12",
" #	c #58573E",
".#	c #D0CD89",
"+#	c #221B13",
"@#	c #655038",
"##	c #5A4731",
"$#	c #52422D",
"%#	c #261E15",
"&#	c #382B1E",
"*#	c #443524",
"=#	c #403222",
"-#	c #1B160F",
";#	c #130F08",
">#	c #201810",
",#	c #271E13",
"'#	c #231B11",
")#	c #66553F",
"!#	c #040202",
"~#	c #0E0E09",
"{#	c #0A0B04",
"]#	c #BDC634",
"^#	c #FDFF47",
"/#	c #EDF942",
"(#	c #E9F341",
"_#	c #6C711E",
":#	c #2B2D0C",
"<#	c #9AA12B",
"[#	c #949C26",
"}#	c #393927",
"|#	c #010000",
"1#	c #30261A",
"2#	c #030402",
"3#	c #313120",
"4#	c #29281B",
"5#	c #1C1B12",
"6#	c #010203",
"7#	c #22242D",
"8#	c #20232C",
"9#	c #161920",
"0#	c #1B1E26",
"a#	c #1F1A12",
"b#	c #2A2116",
"c#	c #100D09",
"d#	c #080505",
"e#	c #0A0B02",
"f#	c #888E26",
"g#	c #E3ED40",
"h#	c #FFFF49",
"i#	c #A6AD2E",
"j#	c #30320D",
"k#	c #F0FA43",
"l#	c #ADB52E",
"m#	c #2C2C1D",
"n#	c #72714D",
"o#	c #4E4D33",
"p#	c #ADAB72",
"q#	c #8F8D61",
"r#	c #414031",
"s#	c #757451",
"t#	c #D1D08B",
"u#	c #656342",
"v#	c #070401",
"w#	c #191B20",
"x#	c #525668",
"y#	c #515567",
"z#	c #06070A",
"A#	c #25272F",
"B#	c #120E08",
"C#	c #15100D",
"D#	c #000002",
"E#	c #35380E",
"F#	c #ADAF30",
"G#	c #B8C034",
"H#	c #121305",
"I#	c #6F741F",
"J#	c #A3AB2B",
"K#	c #313021",
"L#	c #CCCA87",
"M#	c #47452F",
"N#	c #5D5D3E",
"O#	c #D2CF8B",
"P#	c #383728",
"Q#	c #292B0B",
"R#	c #555A17",
"S#	c #2F320E",
"T#	c #363526",
"U#	c #B4B277",
"V#	c #242317",
"W#	c #040301",
"X#	c #1A1B21",
"Y#	c #505466",
"Z#	c #4D5162",
"`#	c #383C4A",
" $	c #535769",
".$	c #323540",
"+$	c #070708",
"@$	c #040200",
"#$	c #1A1610",
"$$	c #070407",
"%$	c #383B0F",
"&$	c #5D611A",
"*$	c #7C8223",
"=$	c #E5EF40",
"-$	c #757B1E",
";$	c #2A291D",
">$	c #646342",
",$	c #201F15",
"'$	c #0D0A07",
")$	c #644F36",
"!$	c #585739",
"~$	c #2E2D22",
"{$	c #45490D",
"]$	c #DEE83E",
"^$	c #F5FF44",
"/$	c #E5ED40",
"($	c #4A4F0F",
"_$	c #454331",
":$	c #58563A",
"<$	c #0C0D10",
"[$	c #4F5365",
"}$	c #4E5263",
"|$	c #404452",
"1$	c #141519",
"2$	c #19140F",
"3$	c #16120F",
"4$	c #090608",
"5$	c #040203",
"6$	c #26280B",
"7$	c #393C10",
"8$	c #130F0B",
"9$	c #060403",
"0$	c #535236",
"a$	c #6E6C4C",
"b$	c #262805",
"c$	c #E4EF3F",
"d$	c #FAFF45",
"e$	c #F1FC43",
"f$	c #B5BE31",
"g$	c #181910",
"h$	c #2F2E20",
"i$	c #181A1F",
"j$	c #515566",
"k$	c #4B4F60",
"l$	c #282A33",
"m$	c #040405",
"n$	c #080507",
"o$	c #050107",
"p$	c #050207",
"q$	c #0F0B0A",
"r$	c #1E1912",
"s$	c #1E1913",
"t$	c #0A0907",
"u$	c #29291B",
"v$	c #FBFAAB",
"w$	c #D1CE8B",
"x$	c #050602",
"y$	c #B0B92F",
"z$	c #FFFF47",
"A$	c #C6CF37",
"B$	c #545818",
"C$	c #B5BE33",
"D$	c #DAE43C",
"E$	c #2C2D12",
"F$	c #616042",
"G$	c #28281D",
"H$	c #2E313D",
"I$	c #4E5264",
"J$	c #3E414F",
"K$	c #0A0703",
"L$	c #16110C",
"M$	c #090706",
"N$	c #0B0907",
"O$	c #423424",
"P$	c #28281A",
"Q$	c #DFDF98",
"R$	c #666447",
"S$	c #3F420C",
"T$	c #F3FD44",
"U$	c #4E5216",
"V$	c #6A6F1D",
"W$	c #EDF842",
"X$	c #303210",
"Y$	c #4D4C36",
"Z$	c #17160F",
"`$	c #3A3D49",
" %	c #4F5364",
".%	c #373946",
"+%	c #0E0E12",
"@%	c #110D08",
"#%	c #1B140C",
"$%	c #281F14",
"%%	c #342A1C",
"&%	c #1F1910",
"*%	c #1B160E",
"=%	c #413423",
"-%	c #443624",
";%	c #1A150D",
">%	c #18170F",
",%	c #13120F",
"'%	c #969C28",
")%	c #FCFF47",
"!%	c #33350F",
"~%	c #ABB330",
"{%	c #E9F441",
"]%	c #202209",
"^%	c #24262E",
"/%	c #515667",
"(%	c #494D5D",
"_%	c #30343F",
":%	c #1E2129",
"<%	c #111215",
"[%	c #080706",
"}%	c #140F09",
"|%	c #120E09",
"1%	c #050504",
"2%	c #0B0C0F",
"3%	c #0A0B0E",
"4%	c #27290B",
"5%	c #63681B",
"6%	c #959A29",
"7%	c #737920",
"8%	c #5C601A",
"9%	c #A4AC2E",
"0%	c #484C14",
"a%	c #130F0C",
"b%	c #333742",
"                                          . + @ # $ $ % & * = @ - . ; >       , ' ",
"                                      ) . ! ~ { ] ^ ^ / ( _ : < [ } | 1 > . ) ) 2 ",
"                                    + 3 4 5 6 7 8 9 9 9 0 a b c d e f g h i > j k ",
"                                    . l m n o p p q o r s t t p u r v w x y z ) A ",
"                                  B C D E F G H 9 I J K L M M N O P Q R S T U V W ",
"                                  . X Y Z `  ...+.@.#.$.%.&.&.*.=.-.;.>.,.@.m '.).",
"                                  !.c ] f ~.{.].^./.(._.:.<.<.[.[.}.<.|.1.2.3.4.5.",
"                                ) 6.7.8.9.W . 0.a.b.c.d.e.e.e.e.e.e.e.e.1.d.[.f.g.",
"                                  . h.i.6.    j.k.l.m.<.}.n.o.1.e.e.c.e.e.e.e._.f.",
"                                > p. .q..       k r.( s.t.u.v.1.f.[.n.}.[._.e.1.w.",
"                                . x.8.C B         . y.z.A.A.B.C.D.E.F.G.H.I.n.J.K.",
"                                L.M.N.i .           . O.O.j.# P.Q.R.J S R.S.T.U.V.",
"                                  A {.~.j.      . .       > W.X.Y.W.Z.`. +.+++@+#+",
")                     B > )     $+. %+&+6.+   O.i *+  )   j.} =+-+j.;+>+% !.,+'+)+",
".             j . . . !+~+{+j.L.B ]+^+/+j.    . ^+(+> ) B _+:+X <+[+m m }+  # m |+",
"3         > !.1+% 2+^+< 3+e 4+5+; L.6+7+!.  > 8+X.9+O.  . 0+a+# b+c+m _ 4+B {+d+e+",
"* B   B . 5+4+f+m Y '+g+h+i+8.}+j+k+} ~ O.) L.l+m+x.L.  . $ n+* ; ;+m >+. B   A . ",
"o+!.> B p+q+8.i+r+s+t+u+v+X.w+x+y+z+A+X.B+j 6.C+< [+O.  . D+m+& j.E+F+X G+    )   ",
"H+I+J+~ F+K+L+M+m N+O+P+Q+R+S+3+T+U+( ( V+j.B   W+c+j.  j !+X+Y+!.Z+} `+.     ) j ",
" @.@+@y+@@#@y $@%@&@*@=@-@;@>@,@'@)@!@m ~@  j !.h.%+> B   j.~ {@6.> @ 5+B     O.9+",
"]@5 8.5._ ^@/@(@_@:@<@[@}@|@1@2@3@4@)@F+m 4+A 5@6@: # O.  O.7@( 8@!.j >     B 2 9@",
"0@}+/ S a@b@c@d@e@f@g@h@i@j@k@l@m@q+n@U+o@n+{.p@D+q@r@!.)   . s@^ t@W . j B B - _+",
"u@v@w@x@y@_@z@A@B@C@D@E@E@F@G@H@I@J@y+K@4+~+~.}+}+n+].;+; j.. A 2+a+L@M@= N@B . k+",
"O@7 m P@Q@R@S@T@U@V@W@X@Y@X@Z@`@ #.#m K@+#@#> ##$#%#m 5 r@&#M@*#=#-#m m D ;#>#,#'#",
")#< a+a+!#~#{#]#^#/#(#_#:#<#^#[#}#a@|#U+%+j.) j.1#F+i+m 2#3#4#4#5#m 5.|#6#7#8#9#0#",
"a#m b#c#i+d#e#f#g#h#i#m m j#k#l#m#n#m 5 7+. G+`+m '+m o#p#q#r#s#t#u#|#v#w#x#y#y#y#",
"z#A#Y B#] K+C#D#E#F#G#H#w@I#^#J#K#L#M#} - . E+Y 3+m N#O#P#Q#R#S#T#U#V#W#X#Y#Z#Z#Z#",
"`# $.$+$@$m a.#$$$y %$&$*$=$F@-$;$>$,$'$i.)$+#y+m !$-@~${$]$^$/$($_$:$m <$[$Z#Z#Z#",
"x#}$y#|$1$m ].}+2$3$4$5$6$%$7$H#m |#8$N.X.7@9$U 0$d@a$b$c$d$e$Z@f$g$h$m i$Y#Z#Z#Z#",
"}$Z#Z#j$k$l$m$m w@3+N.!@n$o$p$q$v@r$s$t$W+4+m u$v$w$x$y$z$A$B$C$D$E$F$G$H$y#Z#Z#Z#",
"Z#Z#Z#Z#I$y#J$X#m K$L$[ N.F+q+M$3+N$8.|+O$/+y+P$Q$R$S$E@T$U$m V$W$X$Y$Z$z#`$Y#Z#Z#",
"Z#Z#Z#Z#Z#Z#Y# %.%+%@%#%$%%%j+r@&%*%A+=%-%;%'@!#>%,%'%Z@)%!%m ~%{%]%m c#P@^%/%Z#Z#",
"Z#Z#Z#Z#Z#Z#Z#}$y#(%_%:%<%[%a+H+}%|%'$1%2%3%m 8.4@_ 4%5%6%7%8%9%0%'@a%%+_ b%j$Z#Z#"};
