/* XPM */
static char * blendshapeEditor_xpm[] = {
"32 32 35 1",
" 	c #C1C1C1",
".	c #9FA9BA",
"+	c #738BB1",
"@	c #B5B9BE",
"#	c #AAB1BC",
"$	c #3B64A6",
"%	c #0F469E",
"&	c #2555A2",
"*	c #94A2B8",
"=	c #5C7BAD",
"-	c #305DA4",
";	c #5174AB",
">	c #7E92B3",
",	c #0F56B0",
"'	c #1288E6",
")	c #1178D4",
"!	c #0F51AA",
"~	c #466CA8",
"{	c #0F4BA4",
"]	c #105CB6",
"^	c #899AB6",
"/	c #149FFF",
"(	c #116CC8",
"_	c #6883AF",
":	c #1A58AC",
"<	c #127DDA",
"[	c #1393F2",
"}	c #1061BC",
"|	c #1067C2",
"1	c #1A4DA0",
"2	c #1399F8",
"3	c #1172CE",
"4	c #1283E0",
"5	c #1A53A6",
"6	c #138EEC",
"                                ",
"                                ",
"                                ",
" .+@                     #.     ",
" $%&*                  =-%%;#   ",
">,'%%=@#$$$+@         =,)!)%~   ",
"-''{{%&%%%]%%.       ^{'!'/(%_  ",
":/]<[}%%|(%}%-# #   .1%%{2/3%%  ",
"~|!///'!{!,<{%; &$#@-32{3{4{(%. ",
"*%)////2%''%%,$^]35&%23|/<%3[%^ ",
" _1}'//3%()%<%&$</[]![{[/6%3/!_ ",
"   >1!({6{,,<%%!////!{|//]|!/(; ",
"    =%}!'%'}{%%3///'!<{64,/,4($ ",
"    _{|!%])(},%2///]</4!!'/<,%$ ",
"    ^%%)]<,%,%|///'!///<]///{]$ ",
"    *%%3(<%)%%6///]<///]%'/[{3$ ",
"    *%%%{{])%,///[!///4,<]/,{|$ ",
"     &](|'{%%,2//|3///!'/!]}3]$ ",
"     +!334%%+_{4[{2//<]//(%23{; ",
"     #%{!%%;  +%{,3]!%|/<,%/'%_ ",
"      $%!{~   .%%{,')!}!,2{[}%^ ",
"      @_$*     13{)/|)/]'/],%%# ",
"               -|!!({[/,'[,,};  ",
"               +%%2|%](%]{{<{#  ",
"               @-%}|('3{4/{!;   ",
"                #1%%]<<]6)%1#   ",
"                 @_%%%%%%%-*    ",
"                   #=$-$;+      ",
"                                ",
"                                ",
"                                ",
"                                "};
