/* XPM */
static char * boxer_xpm[] = {
"41 33 566 2",
"  	c #45453C",
". 	c #F3F3DA",
"+ 	c #FFFFE4",
"@ 	c #FEFEDF",
"# 	c #FEFEDE",
"$ 	c #FFFFEC",
"% 	c #888876",
"& 	c #000001",
"* 	c #B0B0B0",
"= 	c #FFFFFF",
"- 	c #696969",
"; 	c #000000",
"> 	c #909090",
", 	c #A1A1A1",
"' 	c #494949",
") 	c #C3C3C3",
"! 	c #C5C5C5",
"~ 	c #686869",
"{ 	c #2D2D27",
"] 	c #605F53",
"^ 	c #6B3C0F",
"/ 	c #FC9124",
"( 	c #FF9023",
"_ 	c #FE8F23",
": 	c #E2E3C8",
"< 	c #FFFFE7",
"[ 	c #FFFFE2",
"} 	c #F4F4D8",
"| 	c #3D3D36",
"1 	c #141415",
"2 	c #DFDFDF",
"3 	c #A3A3A3",
"4 	c #4A4A4A",
"5 	c #E5E5E5",
"6 	c #EDEDED",
"7 	c #666666",
"8 	c #868686",
"9 	c #BABABB",
"0 	c #1D1D1A",
"a 	c #6A6B5E",
"b 	c #141310",
"c 	c #76400E",
"d 	c #F68C22",
"e 	c #FF9124",
"f 	c #FFFFE9",
"g 	c #E0E2C7",
"h 	c #161814",
"i 	c #3C3C3E",
"j 	c #F1F1F1",
"k 	c #F6F6F6",
"l 	c #404040",
"m 	c #242424",
"n 	c #282828",
"o 	c #191919",
"p 	c #DADADA",
"q 	c #BEBEBF",
"r 	c #131312",
"s 	c #979886",
"t 	c #242624",
"u 	c #83460B",
"v 	c #FF9A26",
"w 	c #FDE3C8",
"x 	c #FEFFE3",
"y 	c #FEFFE0",
"z 	c #FEF3D6",
"A 	c #FFCEB9",
"B 	c #ADA995",
"C 	c #6E6E6E",
"D 	c #434343",
"E 	c #141414",
"F 	c #A8A8A9",
"G 	c #121211",
"H 	c #CCCCB2",
"I 	c #393F3D",
"J 	c #4A2502",
"K 	c #FF9324",
"L 	c #FDEED2",
"M 	c #FEFFE2",
"N 	c #FEFFE1",
"O 	c #F99086",
"P 	c #FFCAB5",
"Q 	c #8A8A79",
"R 	c #7D7D7D",
"S 	c #FBFBFB",
"T 	c #A6A6A6",
"U 	c #5C5C5C",
"V 	c #454545",
"W 	c #737373",
"X 	c #D9D9D9",
"Y 	c #6A6A6B",
"Z 	c #26261F",
"` 	c #F7F7DD",
" .	c #767A6E",
"..	c #211000",
"+.	c #E17F1F",
"@.	c #FDF2D5",
"#.	c #F9958A",
"$.	c #FC978B",
"%.	c #FBD1BC",
"&.	c #727767",
"*.	c #727172",
"=.	c #E3E3E3",
"-.	c #151516",
";.	c #636355",
">.	c #FFFFF2",
",.	c #B8BAA5",
"'.	c #030000",
").	c #BF6C1A",
"!.	c #FF9725",
"~.	c #FEF5D8",
"{.	c #FA9C90",
"].	c #F99288",
"^.	c #FC9C90",
"/.	c #FEDFC6",
"(.	c #787E6E",
"_.	c #000100",
":.	c #404042",
"<.	c #CACACA",
"[.	c #3D3D3E",
"}.	c #12120F",
"|.	c #DCDCC3",
"1.	c #FFFFE8",
"2.	c #E9E9CD",
"3.	c #0B1214",
"4.	c #884C10",
"5.	c #FF9524",
"6.	c #FF8F23",
"7.	c #FFFFE0",
"8.	c #FFFFE1",
"9.	c #FEFADC",
"0.	c #FAAC9C",
"a.	c #F99388",
"b.	c #FE9F92",
"c.	c #FFE6CC",
"d.	c #ABB19B",
"e.	c #252620",
"f.	c #5C5C5D",
"g.	c #A4A4A5",
"h.	c #C1C1C1",
"i.	c #D6D6D6",
"j.	c #8E8E8F",
"k.	c #29292A",
"l.	c #141411",
"m.	c #BDBDA6",
"n.	c #FAFADC",
"o.	c #494D47",
"p.	c #442203",
"q.	c #FC8E23",
"r.	c #FFFFE5",
"s.	c #FCFCDE",
"t.	c #EFEFD2",
"u.	c #D3D3B9",
"v.	c #D0D0B6",
"w.	c #CECEB5",
"x.	c #E3E3C7",
"y.	c #FFFFEB",
"z.	c #FFD8C1",
"A.	c #F99389",
"B.	c #FFDFC7",
"C.	c #E4E3C9",
"D.	c #838876",
"E.	c #2B3028",
"F.	c #020604",
"G.	c #0F1413",
"H.	c #1B201F",
"I.	c #050A07",
"J.	c #4D5247",
"K.	c #CFD0B6",
"L.	c #FFFFEA",
"M.	c #8B8C7C",
"N.	c #070100",
"O.	c #EC8520",
"P.	c #FF9224",
"Q.	c #D8D8BE",
"R.	c #828271",
"S.	c #31312A",
"T.	c #020200",
"U.	c #050504",
"V.	c #050505",
"W.	c #060605",
"X.	c #20201B",
"Y.	c #626255",
"Z.	c #BFC0A9",
"`.	c #F7F7DC",
" +	c #FFD2BE",
".+	c #F9988C",
"++	c #F99489",
"@+	c #FFB4A5",
"#+	c #FFDAC2",
"$+	c #F9E0C9",
"%+	c #D8C4AE",
"&+	c #AD9987",
"*+	c #8E7B6C",
"=+	c #AB9383",
"-+	c #E8CCB5",
";+	c #FDE4CC",
">+	c #FFFFE3",
",+	c #FEFEE0",
"'+	c #BEBEA7",
")+	c #030506",
"!+	c #B46416",
"~+	c #A1A18E",
"{+	c #151512",
"]+	c #4E4E4B",
"^+	c #7D7D77",
"/+	c #91918A",
"(+	c #92928C",
"_+	c #93938C",
":+	c #878781",
"<+	c #60605C",
"[+	c #222222",
"}+	c #515247",
"|+	c #EAEFD4",
"1+	c #FEE5CF",
"2+	c #FAAB9B",
"3+	c #F99289",
"4+	c #FA9187",
"5+	c #FB968B",
"6+	c #FFA295",
"7+	c #FFA497",
"8+	c #FF9D92",
"9+	c #FC9086",
"0+	c #FA968B",
"a+	c #FDECD0",
"b+	c #E9E9CC",
"c+	c #272A28",
"d+	c #6D3807",
"e+	c #FF9625",
"f+	c #4B4B48",
"g+	c #C3C3BA",
"h+	c #DFDFD5",
"i+	c #EDEDE3",
"j+	c #ECECE1",
"k+	c #EBEBE1",
"l+	c #EEEEE3",
"m+	c #E5E5DA",
"n+	c #D2D2C9",
"o+	c #898983",
"p+	c #020203",
"q+	c #5B5C4F",
"r+	c #FBFFE2",
"s+	c #FEF8DD",
"t+	c #FCCDB7",
"u+	c #F99E91",
"v+	c #F99187",
"w+	c #F9948A",
"x+	c #F98E85",
"y+	c #FAB0A1",
"z+	c #FEFBDD",
"A+	c #4D524C",
"B+	c #2B1100",
"C+	c #FD9224",
"D+	c #282827",
"E+	c #D7D7CC",
"F+	c #EEEEE4",
"G+	c #EAEAE0",
"H+	c #EBEBE0",
"I+	c #E8E8DE",
"J+	c #E0E0D6",
"K+	c #E4E4D9",
"L+	c #F0F0E6",
"M+	c #777772",
"N+	c #090907",
"O+	c #ECECCF",
"P+	c #FDF0D4",
"Q+	c #FBC0AC",
"R+	c #FA9B90",
"S+	c #F98F85",
"T+	c #F9958B",
"U+	c #FAA093",
"V+	c #FAAB9C",
"W+	c #FBBEAC",
"X+	c #939585",
"Y+	c #120901",
"Z+	c #CC721A",
"`+	c #FF9424",
" @	c #575754",
".@	c #E4E4DA",
"+@	c #BBBBB2",
"@@	c #787873",
"#@	c #525250",
"$@	c #535350",
"%@	c #71716C",
"&@	c #9C9C95",
"*@	c #D0D0C6",
"=@	c #E7E7DD",
"-@	c #E1E1D7",
";@	c #F0F0E5",
">@	c #FDEBD0",
",@	c #FDDFC6",
"'@	c #FDE4CA",
")@	c #FDECD1",
"!@	c #FEF6D9",
"~@	c #DBDBC0",
"{@	c #535246",
"]@	c #9E9E8A",
"^@	c #DDDDC3",
"/@	c #040809",
"(@	c #985412",
"_@	c #FF9925",
":@	c #272727",
"<@	c #4A4A46",
"[@	c #020202",
"}@	c #10100D",
"|@	c #2D2D26",
"1@	c #2B2B25",
"2@	c #20201C",
"3@	c #0D0D0B",
"4@	c #151514",
"5@	c #8C8C85",
"6@	c #DADAD0",
"7@	c #3B3B39",
"8@	c #F7F7D8",
"9@	c #FEFFE4",
"0@	c #FDFDE1",
"a@	c #6A695B",
"b@	c #141210",
"c@	c #D1D1B8",
"d@	c #373D3A",
"e@	c #472405",
"f@	c #F78C22",
"g@	c #FF9123",
"h@	c #47473E",
"i@	c #010100",
"j@	c #171714",
"k@	c #BBBBA5",
"l@	c #F8F8DC",
"m@	c #F5F5D7",
"n@	c #DEDEC3",
"o@	c #BBBBA9",
"p@	c #505045",
"q@	c #40403E",
"r@	c #373736",
"s@	c #A5A590",
"t@	c #FFFFE6",
"u@	c #EEEED1",
"v@	c #26231A",
"w@	c #173855",
"x@	c #071320",
"y@	c #2D2A22",
"z@	c #C6C5AF",
"A@	c #DB7C1F",
"B@	c #A5A591",
"C@	c #8E8E7C",
"D@	c #FFFFEF",
"E@	c #FFFFED",
"F@	c #F8F8DB",
"G@	c #919180",
"H@	c #2E2E27",
"I@	c #3D3D35",
"J@	c #A7A793",
"K@	c #FEFEE1",
"L@	c #F0F0D2",
"M@	c #2C2920",
"N@	c #193B57",
"O@	c #336B9B",
"P@	c #020D17",
"Q@	c #0F0E0B",
"R@	c #545246",
"S@	c #DEDEC5",
"T@	c #090E10",
"U@	c #87490F",
"V@	c #373731",
"W@	c #2A2A25",
"X@	c #5B594C",
"Y@	c #06192A",
"Z@	c #4085BF",
"`@	c #3876AA",
" #	c #1E4568",
".#	c #000B15",
"+#	c #48463C",
"@#	c #FCFDE0",
"##	c #55584F",
"$#	c #1E0D00",
"%#	c #F48A22",
"&#	c #ADAD98",
"*#	c #8F8E7C",
"=#	c #000104",
"-#	c #3874A8",
";#	c #4087C2",
">#	c #458FCF",
",#	c #265378",
"'#	c #040201",
")#	c #EDECD0",
"!#	c #B4B5A0",
"~#	c #000306",
"{#	c #9C5612",
"]#	c #F1F1D3",
"^#	c #CECEB4",
"/#	c #100E09",
"(#	c #1A3E5E",
"_#	c #438DCB",
":#	c #438BC9",
"<#	c #1C3E5B",
"[#	c #050503",
"}#	c #EAEACD",
"|#	c #3E423D",
"1#	c #210E00",
"2#	c #EA8420",
"3#	c #FF9825",
"4#	c #6F6F61",
"5#	c #F9F9E1",
"6#	c #626154",
"7#	c #000003",
"8#	c #1D4263",
"9#	c #183A58",
"0#	c #767566",
"a#	c #FCFCE3",
"b#	c #C8C8B0",
"c#	c #090C0D",
"d#	c #442204",
"e#	c #C7721B",
"f#	c #8F8F7D",
"g#	c #FFFFF1",
"h#	c #F1F1D4",
"i#	c #5B5A4E",
"j#	c #14120E",
"k#	c #16140F",
"l#	c #F7F7D9",
"m#	c #ADAE99",
"n#	c #171B1D",
"o#	c #090200",
"p#	c #7C450E",
"q#	c #6A6A5C",
"r#	c #F2F2D5",
"s#	c #949482",
"t#	c #D8D8BD",
"u#	c #FEFEE5",
"v#	c #E3E2C6",
"w#	c #EBEACD",
"x#	c #EDEDD3",
"y#	c #797C6D",
"z#	c #010608",
"A#	c #080807",
"B#	c #A7A792",
"C#	c #FEFEE4",
"D#	c #E3E3C9",
"E#	c #4B4B42",
"F#	c #C2C2AB",
"G#	c #999A88",
"H#	c #404038",
"I#	c #030302",
"J#	c #42423B",
"K#	c #9E9E8B",
"L#	c #CACAB2",
"M#	c #D0D0B7",
"N#	c #CCCCB4",
"O#	c #B2B29D",
"P#	c #6A6A5E",
"Q#	c #10100E",
"R#	c #A4A491",
"S#	c #F1F1D5",
"T#	c #A2A28E",
"U#	c #3C3C35",
"V#	c #030303",
"W#	c #252520",
"X#	c #727264",
"Y#	c #CECEB7",
"Z#	c #FFFFDF",
"`#	c #C9C9B2",
" $	c #4F4F45",
".$	c #383832",
"+$	c #F5F5D8",
"@$	c #F4F4D6",
"#$	c #BABAA3",
"$$	c #AAAA95",
"%$	c #B4B49E",
"&$	c #D5D5BB",
"*$	c #ACAC97",
"=$	c #4D4D44",
"-$	c #4D4D43",
";$	c #090908",
">$	c #2C2C27",
",$	c #C5C5AE",
"'$	c #C6C6B0",
")$	c #30302A",
"!$	c #080806",
"~$	c #A8A893",
"{$	c #FDFDDE",
"]$	c #FAFADB",
"^$	c #F0F0D3",
"/$	c #D6D7BC",
"($	c #D1D2B9",
"_$	c #B7B8A3",
":$	c #B3B59F",
"<$	c #D6D7BD",
"[$	c #EDEDD4",
"}$	c #57574C",
"|$	c #979783",
"1$	c #DADABF",
"2$	c #C4C4AC",
"3$	c #9C9D8B",
"4$	c #676A5E",
"5$	c #454A41",
"6$	c #262C28",
"7$	c #080E0D",
"8$	c #080A09",
"9$	c #080908",
"0$	c #090504",
"a$	c #090A09",
"b$	c #1C221E",
"c$	c #7D7E6E",
"d$	c #F6F6DD",
"e$	c #5E5E52",
"f$	c #A6A691",
"g$	c #D8D9BF",
"h$	c #AAAC96",
"i$	c #818474",
"j$	c #5D6055",
"k$	c #3A3D36",
"l$	c #171A18",
"m$	c #0F0000",
"n$	c #1C0000",
"o$	c #290000",
"p$	c #350300",
"q$	c #3E0400",
"r$	c #3F0400",
"s$	c #480600",
"t$	c #490700",
"u$	c #270000",
"v$	c #707162",
"w$	c #F8F8DF",
"x$	c #525248",
"y$	c #0C0C0A",
"z$	c #C8C8AF",
"A$	c #E1E1C6",
"B$	c #B0B29D",
"C$	c #6D7163",
"D$	c #2D332D",
"E$	c #161714",
"F$	c #090403",
"G$	c #070000",
"H$	c #1F0000",
"I$	c #370100",
"J$	c #4F0800",
"K$	c #5A0B00",
"L$	c #610B00",
"M$	c #660C00",
"N$	c #6A0C00",
"O$	c #6E0D00",
"P$	c #6C0D00",
"Q$	c #6B0D00",
"R$	c #6D0D00",
"S$	c #350500",
"T$	c #B3B39D",
"U$	c #ECECD1",
"V$	c #252521",
"W$	c #393932",
"X$	c #FBFBDE",
"Y$	c #B0B19C",
"Z$	c #7B7C6D",
"`$	c #3E4139",
" %	c #040909",
".%	c #0E0000",
"+%	c #1E0000",
"@%	c #370000",
"#%	c #4D0600",
"$%	c #600B00",
"%%	c #690C00",
"&%	c #680C00",
"*%	c #670C00",
"=%	c #650C00",
"-%	c #43473F",
";%	c #F7F8DF",
">%	c #B1B19B",
",%	c #A1A18D",
"  . + @ @ @ @ @ @ # $ % & * = = - ; ; ; > = = , ; ' ) ! ~ { ] ; ; ^ / ( _ _ _ _ _ ",
": < @ @ @ @ @ @ @ @ [ } | 1 2 = 3 ; ; ; 4 5 6 7 ; 8 = = 9 0 a b c d e _ _ _ _ _ _ ",
"< @ @ @ @ @ @ @ @ @ @ f g h i j k l ; ; ; m n ; o p = = q r s t u v _ _ _ _ _ _ _ ",
"w x @ @ @ @ @ @ @ @ y z A B ; C = 5 D ; ; ; ; E * = = = F G H I J K ( _ _ _ _ _ _ ",
"L M @ @ @ @ @ @ @ @ N L O P Q ; R = S T U V W X = = = = Y Z `  ...+.K _ _ _ _ _ _ ",
"M @ @ @ @ @ @ @ @ @ N @.#.$.%.&.; *.S = = = = = = = = =.-.;.>.,.'.).!._ _ _ _ _ _ ",
"M @ @ @ @ @ @ @ @ @ N ~.{.].^./.(._.:.<.= = = = = = 5 [.}.|.1.2.3.4.5.6._ _ _ _ _ ",
"N @ 7.7.[ + + + [ 8.[ 9.0.a.a.b.c.d.e.; f.g.h.i.h.j.k.l.m.f [ n.o.p.q.( _ _ _ _ _ ",
"7.< r.s.t.u.v.w.x.n.[ y.z.a.A.A.{.B.C.D.E.F.G.H.G.I.J.K.< @ @ L.M.N.O.P._ _ _ _ _ ",
"< Q.R.S.T.U.V.W.; X.Y.Z.`. +.+].++A.@+#+$+%+&+*+=+-+;+>+,+@ @ $ '+)+!+K _ _ _ _ _ ",
"~+{+V.]+^+/+(+_+:+<+[+; }+|+1+2+].3+A.4+5+b.6+7+8+9+0+a+N @ @ r.b+c+d+e+_ _ _ _ _ ",
"V.f+g+h+i+j+j+k+l+m+n+o+p+q+r+s+t+u+v+A.#.w+A.].O x+y+z+y @ @ 7.L.A+B+C+( _ _ _ _ ",
"D+E+F+G+H+G+I+m+J+J+K+L+M+N+O+r.x P+Q+R+S+S+T+U+V+W+@.r.y.< @ @ L.X+Y+Z+`+_ _ _ _ ",
" @.@+@@@#@$@%@&@*@=@-@;@:+; 2.>+@ N N >@,@,@'@)@!@M 1.~@{@]@L.@ >+^@/@(@_@_ _ _ _ ",
":@<@[@}@|@1@2@3@4@5@.@6@7@S.8@[ @ @ y x 9@9@x M N [ 0@a@; b@c@$ 7.[ d@e@f@g@_ _ _ ",
"h@i@j@k@l@m@n@o@p@; q@r@; s@t@,+@ @ @ @ @ @ @ @ @ >+u@v@w@x@y@z@t@$ X+N.A@`+_ _ _ ",
"B@; C@D@>+[ r.E@F@G@H@I@J@r.K@@ @ @ @ @ @ @ @ @ @ >+L@M@N@O@P@Q@R@S@n@T@U@5._ _ _ ",
"V@W@l@[ @ @ @ @ >+t@+ r.t@8.@ @ @ @ @ @ @ @ @ @ @ [ s.X@Y@Z@`@ #.#+#@###$#%#( _ _ ",
"; &#1.@ @ @ @ @ @ @ @ @ @ @ @ @ @ @ @ @ @ @ @ @ @ ,+L.*#=#-#;#>#,#'#)#!#~#{#!._ _ ",
"{ ]#r.@ @ @ @ @ @ @ @ @ @ @ @ @ @ @ @ @ @ @ @ @ @ @ f ^#/#(#_#:#<#[#}#t@|#1#2#3#_ ",
"4#1.8.@ @ @ @ @ @ @ @ @ @ @ @ @ @ @ @ @ @ @ @ @ @ @ K@5#6#7#8#9#& 0#a#1.b#c#d#e#!.",
"f#g#@ @ @ @ @ @ @ @ @ >+D@+ # @ @ @ @ @ @ @ @ @ @ @ @ + h#i#j#k#0#l#+ @ 1.m#n#o#p#",
"q#L.[ @ @ @ @ @ @ 7.r.r#s#t#u#@ @ @ @ @ @ @ @ @ @ @ @ @ >+r.v#w#< [ @ @ 7.< x#y#z#",
"A#B#C#1.L.f f L.L.t@D#E#; F#L.@ @ @ @ @ @ @ @ @ @ @ [ + 7.@ >+[ @ @ @ @ @ @ + $ G#",
"H#I#J#K#L#M#M#N#O#P#Q#Q#R#t@@ @ @ @ @ @ @ @ @ @ # t@8.h#1.[ @ @ @ @ @ @ @ @ @ 8.L.",
"S#T#U#[@; V#V#; ; W#X#Y#f Z#@ @ @ @ @ @ @ @ @ @ < `# $.$Q +$< 7.@ @ @ @ @ @ @ @ >+",
">+y.@$n@#$$$$$%$&$O+r.1.@ @ @ @ @ @ @ @ @ @ @ 7.< *$=$-$;$>$,$y.8.@ @ @ @ @ @ @ @ ",
"@ @ >+t@< < < < < + 7.@ @ @ @ @ @ 7.7.8.8.>++ t@t@r.< r.'$)$!$~$1.7.@ @ @ @ @ @ @ ",
"@ @ @ @ @ @ @ @ @ @ @ @ 8.+ < y.1.[ {$]$^$/$($_$:$<$@$r.E@[$}$V.|$< 8.@ @ @ @ @ @ ",
"@ @ @ @ @ @ @ @ @ + L.D@t@^$1$2$3$4$5$6$7$8$9$0$0$a$b$c$d$L.{$e$; f$y.@ @ @ @ @ @ ",
"@ @ @ 7.>+r.t@< + g$h$i$j$k$l$; ; m$n$o$p$q$r$s$t$r$u$; v$+ t@w$x$y$z$< @ @ @ @ @ ",
"@ + $ < m@A$B$C$D$E$F$; G$H$I$J$K$L$M$N$O$P$P$Q$Q$R$R$S$& T$1.< U$V$W$X$8.@ @ @ @ ",
"$ 2.Y$Z$`$ %; .%+%@%#%$%%%%%%%N$%%&%*%*%M$M$M$M$M$M$%%=%.%-%;%,+L.>%; ,%$ @ @ @ @ "};
