/* XPM */
static char * buttonMaker_xpm[] = {
"32 32 285 2",
"  	c #BCBCBC",
". 	c #BBBBBB",
"+ 	c #B7BABD",
"@ 	c #9FB5C7",
"# 	c #8EB2CE",
"$ 	c #93B3CC",
"% 	c #A8B7C3",
"& 	c #BBBBBC",
"* 	c #B8BBBD",
"= 	c #7CAED6",
"- 	c #43A2EC",
"; 	c #1999FD",
"> 	c #1598FF",
", 	c #1498FF",
"' 	c #299AF4",
") 	c #68A4D7",
"! 	c #AFB4BB",
"~ 	c #BABBBB",
"{ 	c #7CAED5",
"] 	c #2A9CF6",
"^ 	c #1494FA",
"/ 	c #1381E4",
"( 	c #1377D8",
"_ 	c #148DF3",
": 	c #2491EC",
"< 	c #93A4BA",
"[ 	c #ABB8C2",
"} 	c #42A2ED",
"| 	c #1490F6",
"1 	c #116BCA",
"2 	c #0F4BA4",
"3 	c #0F469E",
"4 	c #104EA7",
"5 	c #104EA8",
"6 	c #0F4EA7",
"7 	c #104BA4",
"8 	c #115EBB",
"9 	c #1592F8",
"0 	c #1D8CEC",
"a 	c #94A4B9",
"b 	c #A0B5C6",
"c 	c #269BF7",
"d 	c #137BDC",
"e 	c #104DA6",
"f 	c #104AA3",
"g 	c #148EF3",
"h 	c #1597FE",
"i 	c #1497FF",
"j 	c #1492F9",
"k 	c #1273D3",
"l 	c #1055B0",
"m 	c #1491F7",
"n 	c #277FD3",
"o 	c #B2B5B9",
"p 	c #A1B6C7",
"q 	c #259BF7",
"r 	c #1266C4",
"s 	c #1048A0",
"t 	c #1164C1",
"u 	c #1487EB",
"v 	c #1164C2",
"w 	c #6987B2",
"x 	c #ADB9C2",
"y 	c #299BF5",
"z 	c #1166C4",
"A 	c #0F47A0",
"B 	c #1378DA",
"C 	c #1380E2",
"D 	c #1158B4",
"E 	c #1755AC",
"F 	c #1591F6",
"G 	c #1382E5",
"H 	c #246ABD",
"I 	c #B9BABB",
"J 	c #48A3EA",
"K 	c #1278D9",
"L 	c #0F48A0",
"M 	c #127ADC",
"N 	c #1E51A2",
"O 	c #7F92B1",
"P 	c #B3B8BD",
"Q 	c #137FE2",
"R 	c #126ECD",
"S 	c #148CF1",
"T 	c #1269C7",
"U 	c #8C9BB3",
"V 	c #7EAED4",
"W 	c #0F4AA2",
"X 	c #1168C7",
"Y 	c #97A3B5",
"Z 	c #BBBCBC",
"` 	c #67A9DD",
" .	c #1480E3",
"..	c #2053A2",
"+.	c #788DAF",
"@.	c #448DD2",
"#.	c #5978AB",
"$.	c #299CF6",
"%.	c #115FBB",
"&.	c #1594FA",
"*.	c #4698DE",
"=.	c #40A1EE",
"-.	c #909EB4",
";.	c #90ACC6",
">.	c #1275D6",
",.	c #3661A5",
"'.	c #195EB5",
").	c #94B3CC",
"!.	c #1167C5",
"~.	c #184C9F",
"{.	c #3AA0F0",
"].	c #1270D0",
"^.	c #136FCD",
"/.	c #1595FB",
"(.	c #1489ED",
"_.	c #659BCD",
":.	c #85B0D1",
"<.	c #38A0F1",
"[.	c #1058B3",
"}.	c #174B9F",
"|.	c #ADB8C1",
"1.	c #1798FE",
"2.	c #1165C2",
"3.	c #4E71A9",
"4.	c #B0B4B9",
"5.	c #3899E8",
"6.	c #1593F9",
"7.	c #23539F",
"8.	c #B4B4B4",
"9.	c #8CB2CF",
"0.	c #1376D7",
"a.	c #BABABA",
"b.	c #1594FB",
"c.	c #1383E7",
"d.	c #1378D9",
"e.	c #1F4786",
"f.	c #636363",
"g.	c #8D8D8D",
"h.	c #AFAFAF",
"i.	c #6FABDA",
"j.	c #0F4DA7",
"k.	c #8B97AC",
"l.	c #779AB5",
"m.	c #1698FD",
"n.	c #1057B2",
"o.	c #1A4385",
"p.	c #21467C",
"q.	c #1585E7",
"r.	c #274069",
"s.	c #3B3B3B",
"t.	c #434343",
"u.	c #646464",
"v.	c #9A9A9A",
"w.	c #B7B7B7",
"x.	c #61A8E1",
"y.	c #1276D7",
"z.	c #2787DA",
"A.	c #1996F8",
"B.	c #126CCA",
"C.	c #204277",
"D.	c #3A3A3B",
"E.	c #3A3A3A",
"F.	c #27659A",
"G.	c #0F469D",
"H.	c #343C4A",
"I.	c #3D3D3D",
"J.	c #555555",
"K.	c #8A8A8A",
"L.	c #B3B3B3",
"M.	c #65A9DF",
"N.	c #363C45",
"O.	c #3D4042",
"P.	c #207DC6",
"Q.	c #1056B1",
"R.	c #10479F",
"S.	c #1D4586",
"T.	c #3C3C3C",
"U.	c #4D4D4D",
"V.	c #848484",
"W.	c #B2B2B2",
"X.	c #78ADD7",
"Y.	c #1386E9",
"Z.	c #1059B5",
"`.	c #1596FD",
" +	c #1374D3",
".+	c #324E69",
"++	c #39678B",
"@+	c #248ADA",
"#+	c #126ECE",
"$+	c #10469E",
"%+	c #627188",
"&+	c #575757",
"*+	c #939393",
"=+	c #9AB4C9",
"-+	c #355992",
";+	c #8B8B8B",
">+	c #626262",
",+	c #404040",
"'+	c #747474",
")+	c #B9BBBC",
"!+	c #2A98F1",
"~+	c #1597FD",
"{+	c #1274D4",
"]+	c #1488ED",
"^+	c #1485E9",
"/+	c #154592",
"(+	c #3D4147",
"_+	c #484848",
":+	c #3E3E3E",
"<+	c #75A2CC",
"[+	c #1490F5",
"}+	c #0F479F",
"|+	c #124699",
"1+	c #343D4B",
"2+	c #B8B9BB",
"3+	c #4094DE",
"4+	c #1166C3",
"5+	c #164897",
"6+	c #3E485A",
"7+	c #6C6C6C",
"8+	c #AFB3BA",
"9+	c #3685D1",
"0+	c #1272D3",
"a+	c #39404B",
"b+	c #858585",
"c+	c #B2B4B8",
"d+	c #567AAA",
"e+	c #1874CF",
"f+	c #1379DB",
"g+	c #104CA5",
"h+	c #15448F",
"i+	c #2A3F61",
"j+	c #3A3A3C",
"k+	c #4C4C4C",
"l+	c #737373",
"m+	c #A0A0A0",
"n+	c #B1B1B1",
"o+	c #878B91",
"p+	c #4A6083",
"q+	c #274A82",
"r+	c #1A4589",
"s+	c #134596",
"t+	c #124598",
"u+	c #17448B",
"v+	c #214276",
"w+	c #2F3E56",
"x+	c #3A3B3C",
"y+	c #525252",
"z+	c #757575",
"A+	c #969696",
"B+	c #AEAEAE",
"C+	c #919191",
"D+	c #535353",
"E+	c #414141",
"F+	c #3F3F3F",
"G+	c #4B4B4B",
"H+	c #606060",
"I+	c #7F7F7F",
"J+	c #9F9F9F",
"K+	c #838383",
"L+	c #696969",
"M+	c #444444",
"N+	c #4F4F4F",
"O+	c #5F5F5F",
"P+	c #A8A8A8",
"Q+	c #B8B8B8",
"R+	c #ACACAC",
"S+	c #9C9C9C",
"T+	c #8C8C8C",
"U+	c #777777",
"V+	c #666666",
"W+	c #5B5B5B",
"X+	c #515151",
"Y+	c #545454",
"Z+	c #5E5E5E",
"`+	c #686868",
" @	c #929292",
".@	c #A4A4A4",
"+@	c #B9B9B9",
"@@	c #ABABAB",
"#@	c #8E8E8E",
"$@	c #868686",
"%@	c #898989",
"&@	c #AAAAAA",
"*@	c #B6B6B6",
"  . . . . . . .       . .   .     . . . . . . .   . .   .   .   ",
"  . . . .     . . . .   .     . . .   . . . . . . .   . . . .   ",
". . . .   . .           . + @ # $ % & .       .           . .   ",
"    .   .   . . . . * = - ; > > > , ' ) ! . .     .     . .   . ",
".   . .   .   . ~ { ] ^ / ( ( ( _ > > > : < .     . . .   .   . ",
".     . . .   [ } | 1 2 3 4 5 6 7 8 9 > > 0 a . . . .   . . .   ",
". . .   .   b c d e f 1 g h i , j k l m i > n o . .   . . .     ",
".   . .   p q r s t | > > > , > > > u v > > m w .         .     ",
"  . .   x y z A B > C D E F > > > > , G g > > H I .         . . ",
". . . & J K L K > M N O P ; > Q R m > h S > > T U   . . . . . . ",
". . . V F W R > > X Y Z ` >  ...+.@.i > g > > ( #.. .   . . . . ",
"    + $.%.6 &.> > m *.=.> > D -.. ;.> > , i > >.,.  .   .   .   ",
". . { | f K > > > , i > > > '.~   ).> > > , > !.~.. .   .   .   ",
".   {.].2 ^ 9 T ^./.> > > > (._.:.<.> > > > > [.}.  . . . . . . ",
"  |.1.2.v > R 3.4.5.> > > > > > > > > > > > 6.f 7.8.. .   .     ",
"  9.> 4 0.> !.-.a.{.> b.c.6.i > > > , > > > d.3 e.f.g.h.a.    . ",
"  i.> j.( > R k.l.m.m n.o.p.q.> > > > i > h D 3 r.s.t.u.v.w..   ",
". x.> D y.> 9 z.A., B.C.D.E.F.> > > > > > C 3 G.H.s.E.I.J.K.L.. ",
". M.> R R > > > > i 4 N.s.O.P.> > > > > ^ Q.R.S.T.E.s.s.T.U.V.W.",
". X.> Y.Z.`.> > > >  +.+++@+> > > > , > #+3 $+%+&+T.s.s.s.T.&+*+",
". =+> > R M > > > > > > > > > > > , > d.A 3 -+;+>+,+s.s.E.E.t.'+",
"  )+!+> ~+{+]+> > > > > > > i > > > ^+W 3 /+(+_+,+T.s.s.E.s.:+u.",
". . <+h > > [+> > > > > > > > > > d.}+3 |+1+E.s.s.E.s.E.s.s.,+u.",
". . 2+3+> > > > > > > > > > > &.4+}+3 5+6+T.s.E.E.E.E.E.s.E.t.7+",
".     8+9+b.> > i > > > > b.0+j.3 3 o.a+I.E.s.s.s.s.s.s.s.I.J.b+",
"    .   c+d+e+Y.F F | f+z g+3 3 h+i+j+E.E.s.E.s.s.E.s.s.T.k+l+m+",
". . . . . n+o+p+q+r+s+t+t+u+v+w+x+s.s.s.s.s.s.s.E.E.s.,+y+z+A+W.",
". .   .   a.B+C+l+D+E+s.E.s.E.s.E.s.E.s.E.s.s.E.s.F+G+H+I+v.L.. ",
".   . . . . a.W.J+K+L+D+_+,+I.s.s.s.s.s.s.I.F+M+N+O+l+g.P+Q+  . ",
". . .       . . w.R+S+T+U+V+W+J.y+N+N+X+Y+Z+`+U+K+ @.@8.a..   . ",
". .   . .   . . . . +@8.@@m+A+C+#@$@%@%@g.*+m+&@n+*@. .   .   . ",
". . . . . .   .   .   . . a.w.Q+w.L.L.8.w.Q+a.. .     . . .   . "};
