/* XPM */
static char * colorConverter_xpm[] = {
"32 32 730 2",
"  	c #232323",
". 	c #0E0E0E",
"+ 	c #030303",
"@ 	c #000000",
"# 	c #000101",
"$ 	c #010302",
"% 	c #030503",
"& 	c #020604",
"* 	c #030403",
"= 	c #0D0D0D",
"- 	c #126812",
"; 	c #127312",
"> 	c #121212",
", 	c #000100",
"' 	c #010301",
") 	c #020802",
"! 	c #000902",
"~ 	c #001700",
"{ 	c #00FD00",
"] 	c #00FF00",
"^ 	c #003100",
"/ 	c #031100",
"( 	c #020303",
"_ 	c #010202",
": 	c #030A05",
"< 	c #002F09",
"[ 	c #00E531",
"} 	c #00961D",
"| 	c #0C930C",
"1 	c #0D9C0D",
"2 	c #198400",
"3 	c #33EB00",
"4 	c #125C00",
"5 	c #000202",
"6 	c #002C12",
"7 	c #007733",
"8 	c #006D19",
"9 	c #00FF32",
"0 	c #10C034",
"a 	c #367434",
"b 	c #357B37",
"c 	c #33AC16",
"d 	c #34FF00",
"e 	c #1A7F00",
"f 	c #317600",
"g 	c #215300",
"h 	c #010403",
"i 	c #000F09",
"j 	c #00160D",
"k 	c #00C64E",
"l 	c #00FF77",
"m 	c #127A3C",
"n 	c #287436",
"o 	c #306036",
"p 	c #32F930",
"q 	c #30FF31",
"r 	c #346731",
"s 	c #387728",
"t 	c #366817",
"u 	c #72FF00",
"v 	c #5AE700",
"w 	c #0E1B00",
"x 	c #162500",
"y 	c #010303",
"z 	c #000904",
"A 	c #00DD87",
"B 	c #00CE7D",
"C 	c #076B30",
"D 	c #10B854",
"E 	c #2F8449",
"F 	c #36F068",
"G 	c #34AE53",
"H 	c #3FA63E",
"I 	c #3EB240",
"J 	c #4E9D34",
"K 	c #69F136",
"L 	c #4C9032",
"M 	c #53B311",
"N 	c #34770A",
"O 	c #6EB500",
"P 	c #9BF900",
"Q 	c #192B00",
"R 	c #001B14",
"S 	c #00A78D",
"T 	c #005A43",
"U 	c #00E386",
"V 	c #08DB87",
"W 	c #31815B",
"X 	c #36B67B",
"Y 	c #327F4A",
"Z 	c #2FFC63",
"` 	c #46C666",
" .	c #69B268",
"..	c #68B96A",
"+.	c #66B64C",
"@.	c #65FE2F",
"#.	c #4B8F32",
"$.	c #77B135",
"%.	c #5E8635",
"&.	c #7CC70D",
"*.	c #91F200",
"=.	c #446100",
"-.	c #9FBB00",
";.	c #364300",
">.	c #001F1F",
",.	c #003233",
"'.	c #007E63",
").	c #00FFF5",
"!.	c #0BA98B",
"~.	c #277257",
"{.	c #2D6955",
"].	c #32C77B",
"^.	c #2EFFA9",
"/.	c #479870",
"(.	c #5AA56E",
"_.	c #63876A",
":.	c #64F863",
"<.	c #63FF64",
"[.	c #688F63",
"}.	c #70A75A",
"|.	c #69884D",
"1.	c #A5FF2F",
"2.	c #87E032",
"3.	c #54682D",
"4.	c #5B7A28",
"5.	c #758D10",
"6.	c #F5FF00",
"7.	c #7FA000",
"8.	c #2F2E00",
"9.	c #252500",
"0.	c #000707",
"a.	c #00CECE",
"b.	c #00FFFF",
"c.	c #08665D",
"d.	c #14A086",
"e.	c #297866",
"f.	c #36EEC4",
"g.	c #33DBB5",
"h.	c #408966",
"i.	c #48B780",
"j.	c #63A57C",
"k.	c #68FD9E",
"l.	c #67C989",
"m.	c #77B976",
"n.	c #78C07A",
"o.	c #86BE69",
"p.	c #9EFF68",
"q.	c #7FAF65",
"r.	c #80B64A",
"s.	c #678D43",
"t.	c #A8CC34",
"u.	c #CEF836",
"v.	c #6B7F2C",
"w.	c #88A115",
"x.	c #55610C",
"y.	c #F4F200",
"z.	c #E5E500",
"A.	c #121200",
"B.	c #000606",
"C.	c #00B3B1",
"D.	c #04DFDD",
"E.	c #2C8585",
"F.	c #37B7BA",
"G.	c #337E7A",
"H.	c #35DCB1",
"I.	c #3FD9B2",
"J.	c #66A793",
"K.	c #69C6AD",
"L.	c #66A481",
"M.	c #68F096",
"N.	c #7CD69A",
"O.	c #9DCD9C",
"P.	c #9CD09E",
"Q.	c #9ACF81",
"R.	c #97F167",
"S.	c #82AD67",
"T.	c #AAC468",
"U.	c #95A969",
"V.	c #ABCF43",
"W.	c #B9E435",
"X.	c #7A8334",
"Y.	c #BBB737",
"Z.	c #828130",
"`.	c #D7D906",
" +	c #C4C600",
".+	c #0E0E00",
"++	c #002027",
"@+	c #0D3C48",
"#+	c #36A2A1",
"$+	c #31FFFF",
"%+	c #41C8C9",
"&+	c #63827F",
"*+	c #657F7E",
"=+	c #64DBB3",
"-+	c #61FFDB",
";+	c #7FBFAA",
">+	c #98B0A2",
",+	c #99AB9D",
"'+	c #96FC95",
")+	c #95FF96",
"!+	c #9CB299",
"~+	c #A4B198",
"{+	c #A4B385",
"]+	c #D8FF61",
"^+	c #BDED64",
"/+	c #7F8265",
"(+	c #818464",
"_+	c #B4B446",
":+	c #FFFF31",
"<+	c #BCBD37",
"[+	c #493E12",
"}+	c #2E2600",
"|+	c #020200",
"1+	c #00080A",
"2+	c #00ABD7",
"3+	c #01D5FF",
"4+	c #25707C",
"5+	c #358986",
"6+	c #5C9290",
"7+	c #6AFBFC",
"8+	c #65EEF0",
"9+	c #76A498",
"0+	c #82C2AC",
"a+	c #97C4AE",
"b+	c #99FFD1",
"c+	c #99E1BE",
"d+	c #AFD1AE",
"e+	c #AED4B0",
"f+	c #BAD89B",
"g+	c #D2FF99",
"h+	c #B3CE98",
"i+	c #ACC183",
"j+	c #98A77A",
"k+	c #E4E266",
"l+	c #FFFF69",
"m+	c #9A9B5E",
"n+	c #878A35",
"o+	c #6F692A",
"p+	c #FACB03",
"q+	c #E8B800",
"r+	c #201C04",
"s+	c #070702",
"t+	c #000506",
"u+	c #0083A2",
"v+	c #05B3D5",
"w+	c #2B6E83",
"x+	c #3399B7",
"y+	c #5390A2",
"z+	c #67DDD8",
"A+	c #73E0DD",
"B+	c #9BC7C9",
"C+	c #9DDADE",
"D+	c #99C3B7",
"E+	c #9BF4C6",
"F+	c #B2E9CC",
"G+	c #D1E8CF",
"H+	c #CFEAD1",
"I+	c #CDE7B7",
"J+	c #C8F69B",
"K+	c #B4C599",
"L+	c #DDD89C",
"M+	c #CECB9D",
"N+	c #D8D978",
"O+	c #E0E466",
"P+	c #9F9257",
"Q+	c #B79933",
"R+	c #86702F",
"S+	c #CBAA08",
"T+	c #B39000",
"U+	c #100F02",
"V+	c #030301",
"W+	c #002239",
"X+	c #0B4266",
"Y+	c #35829D",
"Z+	c #30EAFF",
"`+	c #46A6C6",
" @	c #668391",
".@	c #7E99A6",
"+@	c #9DE8E6",
"@@	c #97FFFF",
"#@	c #B4DCDD",
"$@	c #CADDDB",
"%@	c #CCD9D4",
"&@	c #CCFDCA",
"*@	c #CAFFCB",
"=@	c #D2DACD",
"-@	c #DCDECA",
";@	c #D6D5B7",
">@	c #FFFF98",
",@	c #F2F49C",
"'@	c #A89D84",
")@	c #968766",
"!@	c #B59A4C",
"~@	c #FFEA30",
"{@	c #B49537",
"]@	c #614111",
"^@	c #462A00",
"/@	c #010100",
"(@	c #000508",
"_@	c #0082DB",
":@	c #00A5FF",
"<@	c #265A77",
"[@	c #5C808F",
"}@	c #67CDFE",
"|@	c #6AC8F9",
"1@	c #94B1B5",
"2@	c #A0D1D3",
"3@	c #CBE2E1",
"4@	c #CEFFFF",
"5@	c #CCF0F2",
"6@	c #CEDECC",
"7@	c #CBE0CE",
"8@	c #EBEACB",
"9@	c #FFFFCE",
"0@	c #E6E7CD",
"a@	c #D3D0A1",
"b@	c #B6B597",
"c@	c #EEC26F",
"d@	c #FFD466",
"e@	c #96855E",
"f@	c #9E8335",
"g@	c #6D572B",
"h@	c #FF9D02",
"i@	c #EF8D00",
"j@	c #171003",
"k@	c #040301",
"l@	c #000102",
"m@	c #00548A",
"n@	c #067ABE",
"o@	c #2D5E8A",
"p@	c #3289E0",
"q@	c #517EAA",
"r@	c #66ADC9",
"s@	c #74B5D1",
"t@	c #99B3CF",
"u@	c #9BC3F1",
"v@	c #C1D5E0",
"w@	c #CDF6F1",
"x@	c #CDE6E4",
"y@	c #F3EEF1",
"z@	c #F5F2F7",
"A@	c #E2E3CF",
"B@	c #F2F6CD",
"C@	c #E1DAC5",
"D@	c #F1C39D",
"E@	c #D5B59A",
"F@	c #CBB27A",
"G@	c #D1B466",
"H@	c #A68055",
"I@	c #E18A32",
"J@	c #906031",
"K@	c #B47409",
"L@	c #9F6200",
"M@	c #0C0802",
"N@	c #060502",
"O@	c #001A45",
"P@	c #0B3475",
"Q@	c #346699",
"R@	c #31A6FF",
"S@	c #4785C2",
"T@	c #66759A",
"U@	c #7E8DAD",
"V@	c #9CC1E3",
"W@	c #96D1FF",
"X@	c #B9CBE1",
"Y@	c #CECCE2",
"Z@	c #D0CFDA",
"`@	c #FCFDFB",
" #	c #FEFFFF",
".#	c #DBD3D4",
"+#	c #E2CBCD",
"@#	c #DDCBBF",
"##	c #FFD098",
"$#	c #EEC69C",
"%#	c #AE9183",
"&#	c #A07766",
"*#	c #B27F4D",
"=#	c #FFA630",
"-#	c #AF7236",
";#	c #6F3510",
">#	c #532000",
",#	c #030201",
"'#	c #00050C",
")#	c #005DEA",
"!#	c #0072FF",
"~#	c #234676",
"{#	c #354E69",
"]#	c #5D6E88",
"^#	c #679DFF",
"/#	c #699BFF",
"(#	c #929DAD",
"_#	c #A1ADBB",
":#	c #CBCCE2",
"<#	c #CDCCFF",
"[#	c #CACBF4",
"}#	c #D7D5D6",
"|#	c #D7D7D9",
"1#	c #EECBCB",
"2#	c #FFCCCD",
"3#	c #E7CCCC",
"4#	c #BCADA2",
"5#	c #AB9E96",
"6#	c #F69A6D",
"7#	c #FF9F66",
"8#	c #93725F",
"9#	c #6A4F35",
"0#	c #674328",
"a#	c #FF6D01",
"b#	c #FE6400",
"c#	c #2B1305",
"d#	c #0C0603",
"e#	c #003174",
"f#	c #084BA1",
"g#	c #2F4B91",
"h#	c #325EE4",
"i#	c #4E66B2",
"j#	c #6686B9",
"k#	c #7895C3",
"l#	c #9998D5",
"m#	c #9A97F3",
"n#	c #C0C1E2",
"o#	c #CDD1EC",
"p#	c #CECEE1",
"q#	c #F3CAF2",
"r#	c #F4CAF6",
"s#	c #E0CDD1",
"t#	c #ECD1CD",
"u#	c #E1C5C4",
"v#	c #F3999B",
"w#	c #DB989A",
"x#	c #C2967C",
"y#	c #BE8866",
"z#	c #AB6952",
"A#	c #E55E32",
"B#	c #9A4D32",
"C#	c #9C4A0B",
"D#	c #833600",
"E#	c #0A0401",
"F#	c #060302",
"G#	c #000D49",
"H#	c #0A1B6D",
"I#	c #334C98",
"J#	c #316CFF",
"K#	c #4866C0",
"L#	c #666199",
"M#	c #7C7AAB",
"N#	c #9D9DE2",
"O#	c #9799FF",
"P#	c #A4A0CB",
"Q#	c #CBB1DD",
"R#	c #D1C1DC",
"S#	c #FBCFFA",
"T#	c #FCCFFE",
"U#	c #DDC3D5",
"V#	c #DFB2CC",
"W#	c #C7A3A9",
"X#	c #FE9996",
"Y#	c #EC9E9D",
"Z#	c #AF8081",
"`#	c #9C6166",
" $	c #B1664E",
".$	c #FF6B31",
"+$	c #AC5235",
"@$	c #6C1F0E",
"#$	c #530E00",
"$$	c #030101",
"%$	c #00020A",
"&$	c #002FEC",
"*$	c #0038FF",
"=$	c #233479",
"-$	c #35407C",
";$	c #5E6188",
">$	c #6867FF",
",$	c #6767FF",
"'$	c #8D8BAC",
")$	c #9893BB",
"!$	c #AE98C2",
"~$	c #D294FF",
"{$	c #C6A0F0",
"]$	c #D5C3D4",
"^$	c #D6C6D9",
"/$	c #E8A5C5",
"($	c #FF94D2",
"_$	c #CF98B4",
":$	c #BA9398",
"<$	c #A68C90",
"[$	c #F36A69",
"}$	c #FF6767",
"|$	c #96615F",
"1$	c #7E4135",
"2$	c #663429",
"3$	c #FF3700",
"4$	c #FF3200",
"5$	c #2C0A05",
"6$	c #0B0303",
"7$	c #000001",
"8$	c #00176E",
"9$	c #092CA4",
"0$	c #31348C",
"a$	c #312EF1",
"b$	c #4D4DB5",
"c$	c #686ABA",
"d$	c #6367AC",
"e$	c #8766C2",
"f$	c #9B66F8",
"g$	c #9F8CC2",
"h$	c #BC9DDA",
"i$	c #AC99BC",
"j$	c #ED99EB",
"k$	c #F39AF4",
"l$	c #BD99B0",
"m$	c #DB9DBC",
"n$	c #BC90A1",
"o$	c #F8689A",
"p$	c #D0658B",
"q$	c #A76765",
"r$	c #C06A68",
"s$	c #A85252",
"t$	c #F12E31",
"u$	c #9D3333",
"v$	c #9D2D0D",
"w$	c #7E1A00",
"x$	c #040101",
"y$	c #060202",
"z$	c #00006B",
"A$	c #0907A4",
"B$	c #343391",
"C$	c #3336FE",
"D$	c #35359F",
"E$	c #5F3EAF",
"F$	c #664DAF",
"G$	c #8969C7",
"H$	c #9967FC",
"I$	c #836BA5",
"J$	c #B972D7",
"K$	c #AF89BF",
"L$	c #F09DEE",
"M$	c #F59DF7",
"N$	c #BE8EB1",
"O$	c #DA72BB",
"P$	c #A26C86",
"Q$	c #F96796",
"R$	c #D56B8E",
"S$	c #A75168",
"T$	c #B93E61",
"U$	c #923638",
"V$	c #FE3532",
"W$	c #A03636",
"X$	c #9C0B0D",
"Y$	c #7E0000",
"Z$	c #010000",
"`$	c #000009",
" %	c #0000E7",
".%	c #0000FF",
"+%	c #161567",
"@%	c #33288E",
"#%	c #3B3169",
"$%	c #6831FF",
"%%	c #6332F9",
"&%	c #625081",
"*%	c #7B5CA9",
"=%	c #8E65A2",
"-%	c #DD63FF",
";%	c #B56BDD",
">%	c #B18AB0",
",%	c #B48BB7",
"'%	c #CE6EAC",
")%	c #FF62DF",
"!%	c #B3669A",
"~%	c #A55C79",
"{%	c #7F5265",
"]%	c #E5355F",
"^%	c #FF306B",
"/%	c #763141",
"(%	c #8F2732",
"_%	c #59181A",
":%	c #FF0000",
"<%	c #130000",
"[%	c #000063",
"}%	c #000090",
"|%	c #150079",
"1%	c #3600FF",
"2%	c #3317A3",
"3%	c #4B368D",
"4%	c #463584",
"5%	c #7531B6",
"6%	c #9F31FF",
"7%	c #7E56A3",
"8%	c #9E6AB5",
"9%	c #8A6798",
"0%	c #E864E7",
"a%	c #F264F4",
"b%	c #97668D",
"c%	c #B76A9F",
"d%	c #9B5A7D",
"e%	c #FE339C",
"f%	c #CA307F",
"g%	c #7B3445",
"h%	c #97374E",
"i%	c #921C34",
"j%	c #FF0036",
"k%	c #8D001A",
"l%	c #800000",
"m%	c #780000",
"n%	c #130059",
"o%	c #3300E8",
"p%	c #1B0083",
"q%	c #450B95",
"r%	c #4D1997",
"s%	c #7136AC",
"t%	c #9034E4",
"u%	c #663789",
"v%	c #A73FC3",
"w%	c #9155A3",
"x%	c #DB6AD9",
"y%	c #E36AE4",
"z%	c #A15994",
"A%	c #C63FAA",
"B%	c #833666",
"C%	c #E0348A",
"D%	c #BD377A",
"E%	c #8E1D4C",
"F%	c #A30D4C",
"G%	c #75001B",
"H%	c #ED0033",
"I%	c #81001A",
"J%	c #060618",
"K%	c #060616",
"L%	c #020009",
"M%	c #0C001F",
"N%	c #5B00D1",
"O%	c #6000F4",
"P%	c #361C51",
"Q%	c #4A2865",
"R%	c #743289",
"S%	c #E830FF",
"T%	c #AE37D8",
"U%	c #7E587D",
"V%	c #805A82",
"W%	c #C23A9F",
"X%	c #FF2FEB",
"Y%	c #A23387",
"Z%	c #632949",
"`%	c #4B1E37",
" &	c #E6015B",
".&	c #FF0074",
"+&	c #4D001F",
"@&	c #120003",
"#&	c #010101",
"$&	c #010104",
"%&	c #03030F",
"&&	c #03030E",
"*&	c #11002A",
"=&	c #1C0049",
"-&	c #6D00B4",
";&	c #A700FF",
">&	c #5E2086",
",&	c #703780",
"'&	c #5F3468",
")&	c #EC31EB",
"!&	c #F731F8",
"~&	c #703368",
"{&	c #813770",
"]&	c #772558",
"^&	c #FF00A2",
"/&	c #CD007B",
"(&	c #500020",
"_&	c #73002F",
":&	c #060003",
"<&	c #010102",
"[&	c #020209",
"}&	c #040411",
"|&	c #08040F",
"1&	c #05030A",
"2&	c #030205",
"3&	c #500088",
"4&	c #8D00E3",
"5&	c #490169",
"6&	c #980DB0",
"7&	c #781F8C",
"8&	c #C638C4",
"9&	c #CE38D0",
"0&	c #882378",
"a&	c #B40E9D",
"b&	c #69034D",
"c&	c #E10089",
"d&	c #AB0066",
"e&	c #080808",
"f&	c #090909",
"g&	c #040209",
"h&	c #040208",
"i&	c #030206",
"j&	c #100515",
"k&	c #030007",
"l&	c #2F003B",
"m&	c #D600E2",
"n&	c #9A03C2",
"o&	c #661E65",
"p&	c #6A206C",
"q&	c #A70685",
"r&	c #FF00F6",
"s&	c #830069",
"t&	c #0D0007",
"u&	c #040002",
"v&	c #020101",
"w&	c #020103",
"x&	c #040105",
"y&	c #020002",
"z&	c #3A0048",
"A&	c #35003E",
"B&	c #EB00E9",
"C&	c #FB00FC",
"D&	c #490042",
"E&	c #7C0067",
"F&	c #12000F",
"G&	c #050505",
"H&	c #0A070C",
"I&	c #0A060C",
"J&	c #060308",
"K&	c #070207",
"L&	c #040104",
"M&	c #080807",
"N&	c #131112",
"O&	c #BC12BD",
"P&	c #CD12CD",
"Q&	c #1B121D",
"R&	c #111111",
"S&	c #0A0909",
"T&	c #070706",
"U&	c #070704",
"  . + @ @ @ # $ % & @ @ @ * = - ; > > > > > > > > > > > > > >   ",
"= @ @ @ @ # @ @ # , , ' ) ! ~ { ] ^ / @ @ @ @ @ @ @ @ @ @ @ @ = ",
"> @ @ ( _ @ @ @ @ # : @ < [ } | 1 2 3 4 @ @ @ @ @ @ @ @ @ @ @ > ",
"> @ @ 5 @ @ @ @ # @ 6 7 8 9 0 a b c d e f g @ @ @ @ @ @ @ @ @ > ",
"> @ @ # @ @ @ h i j k l m n o p q r s t u v w x @ @ @ @ @ @ @ > ",
"> @ @ y # _ @ z A B C D E F G H I J K L M N O P Q @ @ @ @ @ @ > ",
"> @ @ @ @ R S T U V W X Y Z `  ...+.@.#.$.%.&.*.=.-.;.@ @ @ @ . ",
"> @ @ >.,.'.).!.~.{.].^./.(._.:.<.[.}.|.1.2.3.4.5.6.7.8.9.@ @ + ",
"> @ 0.a.b.c.d.e.f.g.h.i.j.k.l.m.n.o.p.q.r.s.t.u.v.w.x.y.z.A.@ @ ",
"> @ B.C.D.E.F.G.H.I.J.K.L.M.N.O.P.Q.R.S.T.U.V.W.X.Y.Z.`. +.+@ @ ",
"> @ @ ++@+#+$+%+&+*+=+-+;+>+,+'+)+!+~+{+]+^+/+(+_+:+<+[+}+@ |+@ ",
"> @ 1+2+3+4+5+6+7+8+9+0+a+b+c+d+e+f+g+h+i+j+k+l+m+n+o+p+q+r+s+@ ",
"> @ t+u+v+w+x+y+z+A+B+C+D+E+F+G+H+I+J+K+L+M+N+O+P+Q+R+S+T+U+V+@ ",
"> @ @ W+X+Y+Z+`+ @.@+@@@#@$@%@&@*@=@-@;@>@,@'@)@!@~@{@]@^@@ /@@ ",
"> @ (@_@:@<@Y+[@}@|@1@2@3@4@5@6@7@8@9@0@a@b@c@d@e@f@g@h@i@j@k@@ ",
"> @ l@m@n@o@p@q@r@s@t@u@v@w@x@y@z@A@B@C@D@E@F@G@H@I@J@K@L@M@N@@ ",
"> @ @ O@P@Q@R@S@T@U@V@W@X@Y@Z@`@ #.#+#@###$#%#&#*#=#-#;#>#@ ,#@ ",
"> @ '#)#!#~#{#]#^#/#(#_#:#<#[#}#|#1#2#3#4#5#6#7#8#9#0#a#b#c#d#@ ",
"> @ l@e#f#g#h#i#j#k#l#m#n#o#p#q#r#s#t#u#v#w#x#y#z#A#B#C#D#E#F#@ ",
"> @ @ G#H#I#J#K#L#M#N#O#P#Q#R#S#T#U#V#W#X#Y#Z#`# $.$+$@$#$@ $$@ ",
"> @ %$&$*$=$-$;$>$,$'$)$!$~${$]$^$/$($_$:$<$[$}$|$1$2$3$4$5$6$@ ",
"> @ 7$8$9$0$a$b$c$d$e$f$g$h$i$j$k$l$m$n$o$p$q$r$s$t$u$v$w$x$y$@ ",
"> @ @ z$A$B$C$D$E$F$G$H$I$J$K$L$M$N$O$P$Q$R$S$T$U$V$W$X$Y$Z$@ @ ",
"> @ `$ %.%+%@%#%$%%%&%*%=%-%;%>%,%'%)%!%~%{%]%^%/%(%_%:%:%<%@ @ ",
"> @ @ [%}%|%1%2%3%4%5%6%7%8%9%0%a%b%c%d%e%f%g%h%i%j%k%l%m%Z$@ @ ",
"> @ @ @ @ n%o%p%q%r%s%t%u%v%w%x%y%z%A%B%C%D%E%F%G%H%I%@ @ @ @ @ ",
". @ @ @ J%K%L%M%N%O%P%Q%R%S%T%U%V%W%X%Y%Z%`% &.&+&@&@ @ @ @ @ #&",
"+ @ @ $&%&&&@ @ *&=&-&;&>&,&'&)&!&~&{&]&^&/&(&_&:&@ @ @ @ @ @ #&",
"@ 7$<&<&[&}&|&1&2&@ 3&4&5&6&7&8&9&0&a&b&c&d&@ @ @ @ @ e&f&+ @ #&",
"@ @ @ @ @ #&g&h&i&j&j&k&l&m&n&o&p&q&r&s&t&u&@ @ @ v&@ #&@ @ @ @ ",
"@ @ @ @ @ @ @ @ @ w&x&@ y&z&A&B&C&D&E&F&@ @ @ #&G&# @ @ @ @ @ @ ",
"l@@ @ @ @ @ @ H&I&J&w&K&L&M&N&O&P&Q&> > > > R&S&#&@ @ @ @ T&U&/@"};
