/* XPM */
static char * cubicMap_xpm[] = {
"32 32 543 2",
"  	c #C1C1C1",
". 	c #ABB7AB",
"+ 	c #5EA15F",
"@ 	c #379239",
"# 	c #38943A",
"$ 	c #2B712C",
"% 	c #A0ADA1",
"& 	c #A4B4A5",
"* 	c #A4B6A5",
"= 	c #A8BDA9",
"- 	c #77B678",
"; 	c #38933A",
"> 	c #378F39",
", 	c #87B18A",
"' 	c #96AE97",
") 	c #8CA48D",
"! 	c #C1C0C1",
"~ 	c #C1C0C0",
"{ 	c #C0C1C1",
"] 	c #BFBFBE",
"^ 	c #BEBCBC",
"/ 	c #B9BABA",
"( 	c #AAB0A9",
"_ 	c #599059",
": 	c #539E54",
"< 	c #59A85A",
"[ 	c #3A953B",
"} 	c #2F7B2F",
"| 	c #326B32",
"1 	c #949F93",
"2 	c #AFAEB0",
"3 	c #B4B3B3",
"4 	c #B6B6B4",
"5 	c #B6B7B6",
"6 	c #BBBCBB",
"7 	c #BFBEBF",
"8 	c #C0C0C1",
"9 	c #C0C1C0",
"0 	c #C0C0C0",
"a 	c #BABAB9",
"b 	c #ADAEAE",
"c 	c #9D9B9B",
"d 	c #848384",
"e 	c #636563",
"f 	c #676767",
"g 	c #878687",
"h 	c #B0B0AE",
"i 	c #CACBCA",
"j 	c #638C63",
"k 	c #2F7A30",
"l 	c #368D37",
"m 	c #378E37",
"n 	c #276728",
"o 	c #224623",
"p 	c #828982",
"q 	c #ADADAD",
"r 	c #B7B5B5",
"s 	c #939393",
"t 	c #5A5A5B",
"u 	c #2E2E2E",
"v 	c #323232",
"w 	c #4C4C4C",
"x 	c #6F6E6F",
"y 	c #858684",
"z 	c #9E9F9F",
"A 	c #B2B3B3",
"B 	c #C0BFC1",
"C 	c #727273",
"D 	c #464545",
"E 	c #202020",
"F 	c #0C0C0B",
"G 	c #040707",
"H 	c #080909",
"I 	c #1E1C1C",
"J 	c #444243",
"K 	c #7A7B7A",
"L 	c #A9A9A9",
"M 	c #9A9C9A",
"N 	c #4A694B",
"O 	c #2C762E",
"P 	c #328233",
"Q 	c #266527",
"R 	c #173817",
"S 	c #202722",
"T 	c #565556",
"U 	c #919191",
"V 	c #ACABAD",
"W 	c #969796",
"X 	c #747473",
"Y 	c #555655",
"Z 	c #383939",
"` 	c #212221",
" .	c #121414",
"..	c #181818",
"+.	c #30302F",
"@.	c #636463",
"#.	c #BEBFBF",
"$.	c #B1B2B2",
"%.	c #7B7B7B",
"&.	c #808180",
"*.	c #595959",
"=.	c #383737",
"-.	c #595759",
";.	c #8D8C8C",
">.	c #B7B9B8",
",.	c #D7D7D7",
"'.	c #E6E7E6",
").	c #EBEAEB",
"!.	c #EBEBE8",
"~.	c #E0E0DF",
"{.	c #96AC98",
"].	c #235123",
"^.	c #233F23",
"/.	c #4B4F4D",
"(.	c #818080",
"_.	c #B0B1B1",
":.	c #D1D0D1",
"<.	c #DFDFDF",
"[.	c #E3E1E1",
"}.	c #DFDDDD",
"|.	c #D3D2D0",
"1.	c #BEBFBE",
"2.	c #A0A09F",
"3.	c #80807F",
"4.	c #414241",
"5.	c #101010",
"6.	c #777778",
"7.	c #888887",
"8.	c #A8A7A8",
"9.	c #929494",
"0.	c #444644",
"a.	c #69696A",
"b.	c #AEAEAE",
"c.	c #E3E3E3",
"d.	c #E7E7E6",
"e.	c #D3D3D4",
"f.	c #AAAAAA",
"g.	c #716F6F",
"h.	c #333E34",
"i.	c #141714",
"j.	c #0B0B0B",
"k.	c #1B1C1C",
"l.	c #3A3A3A",
"m.	c #5A5A5A",
"n.	c #7D7D7D",
"o.	c #9A9C99",
"p.	c #B1B3B3",
"q.	c #C4C3C1",
"r.	c #C3C3C1",
"s.	c #D7D5D7",
"t.	c #C5C5C5",
"u.	c #242324",
"v.	c #0C0E0C",
"w.	c #9B9C9C",
"x.	c #929191",
"y.	c #A5A6A5",
"z.	c #2F2E30",
"A.	c #010303",
"B.	c #0F0F0F",
"C.	c #28282A",
"D.	c #5D5B5B",
"E.	c #8A8A8A",
"F.	c #524F51",
"G.	c #1C1C1C",
"H.	c #040405",
"I.	c #000000",
"J.	c #030403",
"K.	c #0F1010",
"L.	c #333334",
"M.	c #5F5E5F",
"N.	c #FEFEFF",
"O.	c #FFFFFF",
"P.	c #B1B1B0",
"Q.	c #0F1110",
"R.	c #282728",
"S.	c #B3B4B4",
"T.	c #A4A2A2",
"U.	c #A5A2A5",
"V.	c #B1B3B1",
"W.	c #434643",
"X.	c #010001",
"Y.	c #0F0D10",
"Z.	c #727271",
"`.	c #7B7B7A",
" +	c #3B3B3A",
".+	c #1E1C1F",
"++	c #0B0909",
"@+	c #000001",
"#+	c #030303",
"$+	c #151714",
"%+	c #373737",
"&+	c #323230",
"*+	c #302F30",
"=+	c #C8C7C7",
"-+	c #858485",
";+	c #070504",
">+	c #545455",
",+	c #BFBFC0",
"'+	c #B2B3B1",
")+	c #949494",
"!+	c #BCBCBD",
"~+	c #BBB9BB",
"{+	c #5E5E5D",
"]+	c #040303",
"^+	c #090909",
"/+	c #6A6D6A",
"(+	c #BBBBBB",
"_+	c #BFBFBC",
":+	c #B3B4B5",
"<+	c #A0A2A1",
"[+	c #7E807E",
"}+	c #3E3E3C",
"|+	c #222223",
"1+	c #363334",
"2+	c #303032",
"3+	c #0F0F10",
"4+	c #030001",
"5+	c #2F2F30",
"6+	c #DDDFDF",
"7+	c #595B59",
"8+	c #050505",
"9+	c #8D8C8D",
"0+	c #C3C3C2",
"a+	c #BBBCBC",
"b+	c #8F8F90",
"c+	c #B5B5B6",
"d+	c #BDBCBD",
"e+	c #777676",
"f+	c #0C0B0C",
"g+	c #040504",
"h+	c #615F5F",
"i+	c #BBBBB9",
"j+	c #C0BFBD",
"k+	c #BFC0C0",
"l+	c #BCBDBD",
"m+	c #B5B5B3",
"n+	c #7E7D7E",
"o+	c #171817",
"p+	c #000101",
"q+	c #464346",
"r+	c #F0EFF2",
"s+	c #EBEAEC",
"t+	c #3C3C3C",
"u+	c #484645",
"v+	c #BABABA",
"w+	c #C2C1C1",
"x+	c #767778",
"y+	c #656566",
"z+	c #9DA89E",
"A+	c #868C86",
"B+	c #141515",
"C+	c #010304",
"D+	c #535553",
"E+	c #B8B9B8",
"F+	c #C0C0BF",
"G+	c #BFBFBF",
"H+	c #807E81",
"I+	c #0B0C0C",
"J+	c #5F5E5D",
"K+	c #838383",
"L+	c #8F8E8F",
"M+	c #120F10",
"N+	c #445546",
"O+	c #6A966A",
"P+	c #282828",
"Q+	c #030301",
"R+	c #010100",
"S+	c #464847",
"T+	c #BFBFBD",
"U+	c #BDBDBD",
"V+	c #767675",
"W+	c #050405",
"X+	c #7B7A7A",
"Y+	c #F2F3F2",
"Z+	c #B5B4B5",
"`+	c #EFEFEF",
" @	c #BDBFBB",
".@	c #C0BFBF",
"+@	c #CACACA",
"@@	c #B7B8B7",
"#@	c #1F2121",
"$@	c #2B372B",
"%@	c #8CCD8C",
"&@	c #556D55",
"*@	c #484847",
"=@	c #141414",
"-@	c #040403",
";@	c #3C3B3E",
">@	c #AEB1B0",
",@	c #C0BFC0",
"'@	c #BCBCBC",
")@	c #717172",
"!@	c #070507",
"~@	c #080908",
"{@	c #969695",
"]@	c #D5D4D5",
"^@	c #636263",
"/@	c #B7D8B7",
"(@	c #96A795",
"_@	c #ABD8AC",
":@	c #91BD91",
"<@	c #91BC91",
"[@	c #9FD0A1",
"}@	c #A7DCA9",
"|@	c #8DBD8D",
"1@	c #84C885",
"2@	c #3C8A3E",
"3@	c #A8ADA8",
"4@	c #858586",
"5@	c #434444",
"6@	c #3F3E3F",
"7@	c #ACAAA9",
"8@	c #BFC0BF",
"9@	c #6F7171",
"0@	c #050507",
"a@	c #141417",
"b@	c #3E3C3E",
"c@	c #20231F",
"d@	c #C0E1C1",
"e@	c #61AC62",
"f@	c #BABCB9",
"g@	c #71BA71",
"h@	c #389139",
"i@	c #389039",
"j@	c #3A963B",
"k@	c #3E993F",
"l@	c #449E46",
"m@	c #48A04A",
"n@	c #429C43",
"o@	c #619462",
"p@	c #818181",
"q@	c #858584",
"r@	c #B0AEB0",
"s@	c #666765",
"t@	c #070505",
"u@	c #171414",
"v@	c #3B3C3C",
"w@	c #181C15",
"x@	c #A2CBA2",
"y@	c #94D495",
"z@	c #5CA85D",
"A@	c #9EBA9F",
"B@	c #A8B9A9",
"C@	c #A9B8A9",
"D@	c #B4BCB4",
"E@	c #72BC72",
"F@	c #368A37",
"G@	c #266126",
"H@	c #ADB5AD",
"I@	c #9EA09E",
"J@	c #333633",
"K@	c #464646",
"L@	c #888686",
"M@	c #B3B3B1",
"N@	c #BDBDBF",
"O@	c #B9B9B9",
"P@	c #575959",
"Q@	c #030405",
"R@	c #262624",
"S@	c #A0A1A0",
"T@	c #CCCBCB",
"U@	c #4A5348",
"V@	c #A9D7A9",
"W@	c #89CD8A",
"X@	c #4DA44E",
"Y@	c #4AA24B",
"Z@	c #65AF66",
"`@	c #72A873",
" #	c #6A9B6B",
".#	c #709F71",
"+#	c #276628",
"@#	c #4B674B",
"##	c #A8A6A8",
"$#	c #2B2C2C",
"%#	c #181817",
"&#	c #4B4B4D",
"*#	c #8D8D8C",
"=#	c #4E514F",
"-#	c #404340",
";#	c #C3C8C1",
">#	c #88C788",
",#	c #73BF75",
"'#	c #429D43",
")#	c #3A983B",
"!#	c #3A973B",
"~#	c #368E37",
"{#	c #318032",
"]#	c #307D31",
"^#	c #38923A",
"/#	c #338534",
"(#	c #348836",
"_#	c #2E772F",
":#	c #7A7E7D",
"<#	c #B4B4B4",
"[#	c #BDBFBF",
"}#	c #373637",
"|#	c #000100",
"1#	c #1B1B1C",
"2#	c #4F4F51",
"3#	c #777677",
"4#	c #DFE1E0",
"5#	c #ADADAC",
"6#	c #366F36",
"7#	c #379138",
"8#	c #39943A",
"9#	c #389339",
"0#	c #348835",
"a#	c #1E5020",
"b#	c #1A441A",
"c#	c #143615",
"d#	c #3B573B",
"e#	c #6A946A",
"f#	c #225723",
"g#	c #718271",
"h#	c #515252",
"i#	c #565656",
"j#	c #A0A0A1",
"k#	c #B3B0B1",
"l#	c #404040",
"m#	c #010000",
"n#	c #0D0D0D",
"o#	c #B4B5B3",
"p#	c #929294",
"q#	c #637365",
"r#	c #3C963E",
"s#	c #379038",
"t#	c #6B866B",
"u#	c #808B81",
"v#	c #4A4D4A",
"w#	c #383838",
"x#	c #B4C5B6",
"y#	c #3F6E3F",
"z#	c #B8B8B8",
"A#	c #5D5D5D",
"B#	c #0B0808",
"C#	c #767777",
"D#	c #474748",
"E#	c #0D0C0F",
"F#	c #C8C7C8",
"G#	c #B0B0B0",
"H#	c #F2F3F0",
"I#	c #7EB57F",
"J#	c #2A6F2A",
"K#	c #355E36",
"L#	c #2F522F",
"M#	c #1D4A1D",
"N#	c #235C24",
"O#	c #2D762E",
"P#	c #348935",
"Q#	c #969696",
"R#	c #252525",
"S#	c #283A29",
"T#	c #9CAC9C",
"U#	c #BBBCBA",
"V#	c #757676",
"W#	c #090C0C",
"X#	c #131413",
"Y#	c #444444",
"Z#	c #201F20",
"`#	c #D5D5D5",
" $	c #B4B5B4",
".$	c #D0D2CF",
"+$	c #F5F4F4",
"@$	c #A7B0A9",
"#$	c #285B28",
"$$	c #7C887B",
"%$	c #A9AEA9",
"&$	c #7A877A",
"*$	c #4D634E",
"=$	c #254625",
"-$	c #676968",
";$	c #111111",
">$	c #8B8A8B",
",$	c #969694",
"'$	c #181A18",
")$	c #8C8D8D",
"!$	c #424042",
"~$	c #0C0C0C",
"{$	c #151718",
"]$	c #A6A5A6",
"^$	c #424242",
"/$	c #D7D7D5",
"($	c #CDCECC",
"_$	c #B7B7B7",
":$	c #6D896D",
"<$	c #A1A9A2",
"[$	c #3D3D3D",
"}$	c #4A4949",
"|$	c #969597",
"1$	c #1F1F20",
"2$	c #4E4B4D",
"3$	c #B7B4B4",
"4$	c #AAA9A9",
"5$	c #6A696A",
"6$	c #202022",
"7$	c #1E1E1E",
"8$	c #D5D3D5",
"9$	c #A2A4A2",
"0$	c #1F1F1E",
"a$	c #D0D0D1",
"b$	c #B6BAB6",
"c$	c #898A8A",
"d$	c #3B3B3B",
"e$	c #989897",
"f$	c #B1B1B1",
"g$	c #B9B8B8",
"h$	c #908E91",
"i$	c #555756",
"j$	c #818282",
"k$	c #1E1E1C",
"l$	c #474747",
"m$	c #6D6D6D",
"n$	c #707272",
"o$	c #828080",
"p$	c #ACADAD",
"q$	c #BFBDC0",
"r$	c #999999",
"s$	c #080B0B",
"t$	c #797879",
"u$	c #BEBDBD",
"v$	c #A1A0A0",
"w$	c #656665",
"x$	c #ACABAC",
"y$	c #B3B3B2",
"z$	c #989699",
"A$	c #131313",
"B$	c #080707",
"C$	c #666766",
"D$	c #C1C1C0",
"E$	c #8A8988",
"F$	c #9A9A9A",
"G$	c #ACAAAA",
"H$	c #BEBCBE",
"I$	c #8E8E8E",
"J$	c #B7B7B8",
"K$	c #9E9E9E",
"L$	c #A0A0A0",
"M$	c #7F7F7F",
"N$	c #4D4B4C",
"O$	c #B2B3B2",
"P$	c #B2B1B2",
"Q$	c #868687",
"R$	c #AFAFAE",
"                        . + @ # # $ %                           ",
"                    & * = - ; # # > , ' ) ! ~                   ",
"            { ] ^ / ( _ : < # # # [ } | 1 2 3 4 5 6 7 8 9 {     ",
"  9 0 a b c d e f g h i j k l # m n o p q r s t u v w x y z A B ",
"  A C D E F G H I J K L M N O P Q R S T U V W X Y Z `  ...+.@.#.",
"  $.%.&.*.=.-.;.>.,.'.).!.~.{.].^./.(._.:.<.[.}.|.1.2.3.4.5.6.  ",
"  6 7.8.6 9.0.a.b.:.c.d.e.f.g.h.i.j.k.l.m.n.o.p.q.r.s.t.u.v.w.{ ",
"  0 x.L #.y.z.A.B.C.D.E.F.G.H.I.I.I.I.I.J.K.L.M._.N.O.P.Q.R.S.  ",
"  { T.U.] V.W.X.I.I.Y.Z.M `. +.+++@+I.#+$+%+&+*+=+O.O.-+;+>+,+  ",
"  8 '+)+!+~+{+]+I.I.^+/+(+_+:+<+[+}+|+1+2+3+4+5+6+O.O.7+8+9+0+  ",
"    a+b+c+d+e+f+I.I.g+h+i+0 j+k+l+m+n+o+X.I.p+q+r+O.s+t+u+v+w+  ",
"    ,+x+y+z+A+B+I.I.C+D+E+k+F+G+F+d+H+I+I.I.A.J+O.O.e.K+(+7     ",
"    9 L+M+N+O+P+Q+I.R+S+S.G+T+G+0 U+V+++I.I.W+X+O.Y+Z+`+ @.@    ",
"+@  w+@@#@$@%@&@*@=@-@;@>@k+k+,@k+'@)@!@I.I.~@{@]@^@T./@(@~     ",
"_@:@<@[@}@|@1@2@3@4@5@6@7@k+.@8@,+a+9@0@I.@+a@%.b@c@d@e@f@~     ",
"g@h@i@j@k@l@m@n@o@G+b p@q@r@G+0 .@6 s@t@I.u@a.v@w@x@y@z@A@B@C@D@",
"E@j@j@j@j@j@j@F@G@H@G+I@J@K@L@M@N@O@P@Q@R@S@T@U@V@W@X@Y@Z@`@ #.#",
"E@j@j@j@j@j@# +#@#,@F+##$#J.%#&#*#b =#-#! O.;#>#,#'#)#)#!#~#{#]#",
"E@j@^#/#k (#_#].:#<#[#b.}#|#I.#+1#2#3#4#O.O.5#6#7#)#)#)#)#!#8#9#",
"0#a#b#c#d#e#f#g#h#i#j#k#l#m#I.I.I.n#o#O.O.O.p#q#r#l s## [ )#)#)#",
"t#u#v#I.w#x#y#z#A#B#u C#D#A.I.I.I.E#F#O.O.O.G#H#I#J#K#L#M#N#O#P#",
"      Q#R#S#T#U#V#W#@+X#Y#Z#Q+I.I.X#`#O.O. $.$+$@$#$$$  %$&$*$=$",
"        G+-$;$>$,$'$I.J.i#)$!$~$|#{$6+O.]$^$/$($_$:$<$          ",
"            f.[$}$|$1$-@2$3$4$5$6$7$8$9$0$l.a$ $0 b$8@          ",
"                c$d$e$%+Y#f$0 g$h$i$j$k$I.l$/ ,@0               ",
"                  0 m$n$o$p$q$,@[#r$R@m#s$t$u$!                 ",
"                      v$w$x$y$G+T+z$A$B$C$6 0                   ",
"                        D$E$F$G$H$I$K.w J$9                     ",
"                          8 G#K$L$M$N$O$!                       ",
"                              ~ P$Q$R$8                         ",
"                                ~ 1.0                           ",
"                                                                "};
