/* XPM */
static char * curveDecompialer_xpm[] = {
"32 32 282 2",
"  	c #C1C1C1",
". 	c #C1C0C0",
"+ 	c #C1C1C0",
"@ 	c #C0C0BF",
"# 	c #C0C1C0",
"$ 	c #C0C1C1",
"% 	c #BFBAC0",
"& 	c #BD8FBE",
"* 	c #C158C1",
"= 	c #C062C1",
"- 	c #BF9FBD",
"; 	c #C1BFC0",
"> 	c #C1C0C2",
", 	c #BFBCBF",
"' 	c #B053B0",
") 	c #C505C4",
"! 	c #E100E1",
"~ 	c #E701E7",
"{ 	c #D511D5",
"] 	c #BF84BF",
"^ 	c #C0C0C1",
"/ 	c #B49BB4",
"( 	c #A10AA2",
"_ 	c #C500C3",
": 	c #DF00DE",
"< 	c #E800E6",
"[ 	c #DD00DD",
"} 	c #B81CB9",
"| 	c #BDAFBC",
"1 	c #A279A3",
"2 	c #8B028A",
"3 	c #AC00AB",
"4 	c #C600C5",
"5 	c #CE00CF",
"6 	c #C700C7",
"7 	c #A503A7",
"8 	c #AD8CAD",
"9 	c #A28FA2",
"0 	c #610661",
"a 	c #810081",
"b 	c #9B009C",
"c 	c #A600A6",
"d 	c #9D009D",
"e 	c #7A047E",
"f 	c #5F7EB9",
"g 	c #B3BCC5",
"h 	c #C1C2C2",
"i 	c #BBB7B9",
"j 	c #5F385F",
"k 	c #440043",
"l 	c #5C005C",
"m 	c #690069",
"n 	c #5F005E",
"o 	c #351453",
"p 	c #157EDA",
"q 	c #45A0E6",
"r 	c #A3B6C5",
"s 	c #C0C0C0",
"t 	c #ABA5AB",
"u 	c #564655",
"v 	c #241225",
"w 	c #260D24",
"x 	c #402C3F",
"y 	c #3B4453",
"z 	c #0D497B",
"A 	c #107CD6",
"B 	c #3098E9",
"C 	c #A1B7C8",
"D 	c #C2C1C1",
"E 	c #BCBDBD",
"F 	c #AAA9AA",
"G 	c #A7A7A7",
"H 	c #B8B8B8",
"I 	c #B8BABA",
"J 	c #626C76",
"K 	c #0D426E",
"L 	c #1077CB",
"M 	c #3197EB",
"N 	c #A0B7C9",
"O 	c #C1C0C1",
"P 	c #BBBCBD",
"Q 	c #7A848B",
"R 	c #164368",
"S 	c #0E70C3",
"T 	c #3195E5",
"U 	c #A8B8C4",
"V 	c #C0BFBF",
"W 	c #848B93",
"X 	c #17446B",
"Y 	c #0F77CB",
"Z 	c #499DE1",
"` 	c #B4BAC2",
" .	c #C0BEBF",
"..	c #BFBEBF",
"+.	c #848D94",
"@.	c #164974",
"#.	c #117AD3",
"$.	c #7162D0",
"%.	c #C44CC5",
"&.	c #BF9CBF",
"*.	c #C1C0BF",
"=.	c #B9AAB8",
"-.	c #B180B2",
";.	c #C097C0",
">.	c #C1BDC0",
",.	c #BFBDBE",
"'.	c #60547B",
").	c #413CA0",
"!.	c #B21ADD",
"~.	c #E700E7",
"{.	c #D01FD0",
"].	c #BDA5BE",
"^.	c #AEA0AE",
"/.	c #8D1B8D",
"(.	c #BD01BD",
"_.	c #DC09DD",
":.	c #C96AC9",
"<.	c #BAB5B9",
"[.	c #811E82",
"}.	c #A801A8",
"|.	c #D000D1",
"1.	c #E400E3",
"2.	c #D500D6",
"3.	c #B86EB8",
"4.	c #875F88",
"5.	c #820182",
"6.	c #B700B6",
"7.	c #DA00DA",
"8.	c #CF28D0",
"9.	c #C0B9C0",
"0.	c #BAB6BB",
"a.	c #6F226E",
"b.	c #880088",
"c.	c #AD00AD",
"d.	c #C100BF",
"e.	c #B201B2",
"f.	c #AC73AC",
"g.	c #806D90",
"h.	c #581376",
"i.	c #850087",
"j.	c #A900A9",
"k.	c #A734AB",
"l.	c #BEBBC0",
"m.	c #C0BFC0",
"n.	c #826A82",
"o.	c #4C054C",
"p.	c #6A0069",
"q.	c #7B007C",
"r.	c #641574",
"s.	c #AFA9B4",
"t.	c #BABCBF",
"u.	c #4283BA",
"v.	c #1A84DF",
"w.	c #422462",
"x.	c #430F55",
"y.	c #5072B4",
"z.	c #BCBEC2",
"A.	c #BDBBBC",
"B.	c #857884",
"C.	c #5B485B",
"D.	c #2B294F",
"E.	c #1967B4",
"F.	c #8CAECB",
"G.	c #8EA3B6",
"H.	c #1687DD",
"I.	c #419CE0",
"J.	c #AAAFB1",
"K.	c #3F5C76",
"L.	c #2475B9",
"M.	c #B0B6C2",
"N.	c #BFC1C1",
"O.	c #BFBEBE",
"P.	c #637788",
"Q.	c #0E61A8",
"R.	c #4B99D9",
"S.	c #BEC0C1",
"T.	c #BABDBE",
"U.	c #4081B7",
"V.	c #1994F1",
"W.	c #8FB0C9",
"X.	c #BCB9BD",
"Y.	c #59517F",
"Z.	c #3254B6",
"`.	c #B83DCF",
" +	c #C3A2C4",
".+	c #C0C0C2",
"++	c #A4AAAE",
"@+	c #185485",
"#+	c #1F85DB",
"$+	c #A5B6C5",
"%+	c #95A8B7",
"&+	c #1784D8",
"*+	c #3B99DF",
"=+	c #B9BDC1",
"-+	c #9F869F",
";+	c #7C067D",
">+	c #B105B9",
",+	c #E001E1",
"'+	c #D246D2",
")+	c #C1BEC0",
"!+	c #BDBFBE",
"~+	c #4C6D8B",
"{+	c #1074C5",
"]+	c #73A5CF",
"^+	c #BEBEC0",
"/+	c #4B87BA",
"(+	c #1594F2",
"_+	c #84ACCC",
":+	c #987F97",
"<+	c #5F035F",
"[+	c #980098",
"}+	c #C000C1",
"|+	c #BD39BC",
"1+	c #8896A1",
"2+	c #1060A2",
"3+	c #4192D6",
"4+	c #BABDC1",
"5+	c #9EABB8",
"6+	c #1C82D3",
"7+	c #319AE9",
"8+	c #B5BDC2",
"9+	c #B7B3B7",
"0+	c #654465",
"a+	c #500D52",
"b+	c #822182",
"c+	c #B395B4",
"d+	c #B0B3B7",
"e+	c #225D8F",
"f+	c #1D85D9",
"g+	c #A8B8C3",
"h+	c #BFC0C0",
"i+	c #5789B0",
"j+	c #1491EE",
"k+	c #73A7CD",
"l+	c #BCBBBA",
"m+	c #A9A5A8",
"n+	c #B6B3B7",
"o+	c #BEBFBE",
"p+	c #496E8D",
"q+	c #1278CC",
"r+	c #88ACCA",
"s+	c #A5AFB8",
"t+	c #1E78C2",
"u+	c #2A98E7",
"v+	c #B1B9C2",
"w+	c #7A8D9F",
"x+	c #0E67B0",
"y+	c #5595CE",
"z+	c #BAB5BC",
"A+	c #668DB1",
"B+	c #138DE9",
"C+	c #6AA7D5",
"D+	c #A8ADB3",
"E+	c #1A5991",
"F+	c #2E6CCD",
"G+	c #A926B3",
"H+	c #6249C1",
"I+	c #3297E5",
"J+	c #ADB8C0",
"K+	c #B6B3B8",
"L+	c #334275",
"M+	c #494FC5",
"N+	c #D704DD",
"O+	c #D207DD",
"P+	c #9D81C7",
"Q+	c #AFA2AE",
"R+	c #6E0F76",
"S+	c #A605B0",
"T+	c #DB00DB",
"U+	c #DE01DF",
"V+	c #BE66BF",
"W+	c #712A71",
"X+	c #B100B2",
"Y+	c #B509B5",
"Z+	c #B890B9",
"`+	c #A89EA9",
" @	c #6E3E6E",
".@	c #793379",
"+@	c #A678A5",
"@@	c #BDBEBD",
"#@	c #BEBCBE",
"$@	c #C0BFC1",
"                                                                ",
"    . + @ #                                                     ",
"$ % & * = - ; >                                                 ",
", ' ) ! ~ { ] ^                                                 ",
"/ ( _ : < [ } |                                                 ",
"1 2 3 4 5 6 7 8 .                                               ",
"9 0 a b c d e f g h                                             ",
"i j k l m n o p q r +                                           ",
"s t u v w x y z A B C $                                         ",
"  D E F G H I J K L M N $                                       ",
"            O P Q R S T U ^                                     ",
"                V W X Y Z `  .O                   ^   O         ",
"                # ..+.@.#.$.%.&.*.              . =.-.;.>..     ",
"                  ^ ,.'.).!.~.{.].O           $ ^./.(._.:.;     ",
"                    <.[.}.|.1.2.3.            # 4.5.6.7.8.9.    ",
"                    0.a.b.c.d.e.f.$           ^ g.h.i.j.k.l.    ",
"                    m.n.o.p.q.r.s.O           t.u.v.w.x.y.z.    ",
"                      A.B.C.D.E.F.$         . G.H.I.J.K.L.M.#   ",
"                      $ N.O.P.Q.R.S.        T.U.V.W.X.Y.Z.`. +.+",
"                          O ++@+#+$++     # %+&+*+=+-+;+>+,+'+)+",
"                            !+~+{+]+s     ^+/+(+_+  :+<+[+}+|+m.",
"                            s 1+2+3+4+  O 5+6+7+8+# 9+0+a+b+c+# ",
"                            O d+e+f+g+O h+i+j+k+O   # l+m+n+^   ",
"                              o+p+q+r+$ s+t+u+v+s               ",
"                              # w+x+y+z+A+B+C+$                 ",
"                              . D+E+F+G+H+I+J+s                 ",
"                                K+L+M+N+O+P+.                   ",
"                                Q+R+S+T+U+V+s                   ",
"                                <.W+b.X+Y+Z+#                   ",
"                                . `+ @.@+@V                     ",
"                                  . @@#@$@^                     ",
"                                                                "};
