/* XPM */
static char * flipShape_xpm[] = {
"32 32 97 2",
"  	c None",
". 	c #C1C1C1",
"+ 	c #9FA7B8",
"@ 	c #7E8EAF",
"# 	c #687EA9",
"$ 	c #4664A0",
"% 	c #3B5C9D",
"& 	c #A0A8B8",
"* 	c #7E8FAF",
"= 	c #8F9BB4",
"- 	c #ABB0BB",
"; 	c #BBBDC0",
"> 	c #7386AC",
", 	c #1A499A",
"' 	c #0F3B91",
") 	c #1058B3",
"! 	c #116FCE",
"~ 	c #1169C8",
"{ 	c #0F4097",
"] 	c #6881AC",
"^ 	c #698AB7",
"/ 	c #B0B4BD",
"( 	c #AAB0BB",
"_ 	c #1052AC",
": 	c #138CF1",
"< 	c #1163C1",
"[ 	c #9AA4B7",
"} 	c #6A9BCB",
"| 	c #6887B3",
"1 	c #698FBE",
"2 	c #6E82AB",
"3 	c #95A0B5",
"4 	c #1392F8",
"5 	c #105DBA",
"6 	c #0F469E",
"7 	c #1386EA",
"8 	c #1498FF",
"9 	c #6884B0",
"0 	c #6AA1D2",
"a 	c #6AA7D9",
"b 	c #6AAADC",
"c 	c #6BADE0",
"d 	c #1275D5",
"e 	c #1A4394",
"f 	c #6992C1",
"g 	c #6A9ECE",
"h 	c #99A3B6",
"i 	c #ABB1BB",
"j 	c #949FB5",
"k 	c #698DBA",
"l 	c #68A0D2",
"m 	c #33569B",
"n 	c #1B4494",
"o 	c #127ADC",
"p 	c #1280E3",
"q 	c #0F4CA5",
"r 	c #6995C4",
"s 	c #6AA4D5",
"t 	c #667CA8",
"u 	c #3E5E9E",
"v 	c #144498",
"w 	c #8997B2",
"x 	c #6AACE0",
"y 	c #4477B7",
"z 	c #68A9DD",
"A 	c #265BA9",
"B 	c #104CA5",
"C 	c #B6B9BE",
"D 	c #688CBA",
"E 	c #4B7EBC",
"F 	c #154598",
"G 	c #5D76A6",
"H 	c #214996",
"I 	c #126AC8",
"J 	c #6998C7",
"K 	c #69ACE0",
"L 	c #114297",
"M 	c #30549A",
"N 	c #5097D7",
"O 	c #164093",
"P 	c #619DD4",
"Q 	c #2363B4",
"R 	c #104197",
"S 	c #6789B6",
"T 	c #2C559E",
"U 	c #103C91",
"V 	c #6398CC",
"W 	c #164599",
"X 	c #5B91C9",
"Y 	c #133E92",
"Z 	c #4A67A1",
"` 	c #7C8CAE",
" .	c #1B4394",
"..	c #254B97",
"+.	c #516DA3",
"@.	c #B5B8BE",
"#.	c #5C75A6",
". . . . . . . . . . . . . . . . . . . . . . . . . . . . . . . . ",
". . . . . . . . . . . . . . . . . . . . + @ # $ % $ . . . . . . ",
". . & * = & - ; . . . . . . . . . . . > , ' ) ! ~ { $ . . . . . ",
". & ] ^ # # # > / . . . . . . . . ( % _ : < ' ' _ < ' @ . . . . ",
"[ ] } ] | | 1 | 2 3 ; . . . . . > , ! 4 5 6 6 7 8 8 _ ' + . . . ",
"3 # 9 0 a ] b c | ] > & . . ( % { 7 ! { ~ 4 5 d 8 8 ) ) e ( . . ",
"3 # # } c f 1 c 0 9 g ] h i e 5 _ { _ 7 8 8 d 5 8 8 ~ ~ _ j . . ",
"3 # k ] k 9 # # 9 # 1 l m n 5 8 5 { o 8 8 8 7 6 8 p 5 q q j . . ",
"3 # r 0 | a f f s g t u v _ 8 5 q ! 5 8 8 8 p ' ' q ) 6 { j . . ",
"w # r c # c a 9 c x y v q 4 5 q 4 : 6 8 p _ 6 6 p 8 p _ ~ # . . ",
"& # | } # b c | 0 z A B 4 5 q 4 8 8 6 ) 6 d 8 _ p 8 p _ ~ # . . ",
"C # 9 k # k r 1 D E F { 5 q 4 8 8 ! { < 4 8 8 _ p 8 p _ p % . . ",
". > ] c 1 k r ^ G H I p ' ) 4 : _ _ q p 8 8 8 _ p 8 8 ' p % . . ",
". w # 0 J 1 c K m L 4 5 ~ 5 6 { ! 8 _ p 8 8 8 _ p 8 8 ' ~ M . . ",
". & # f s | c N O ~ : { 4 8 ' 7 8 8 _ p 8 8 8 _ p 8 : ' { % . . ",
". ; 2 # | # P Q R 4 ) ~ 8 7 q 8 8 8 _ p 8 8 8 _ ) 6 { ' p % . . ",
". . w # } S T U < p 6 8 8 ! < 8 8 8 _ p : ~ 6 ' < 7 8 ' o $ . . ",
". . / # f V W ' q { < 7 8 ) o 8 : p q 6 { < 7 _ p 8 : 6 ~ # . . ",
". . . * ] X Y ' 4 ' ) 6 ' ' ' ' { _ { ! 8 8 8 q p 8 p _ ~ # . . ",
". . . / # Z L 6 p _ 8 8 : 6 : 8 8 8 _ p 8 8 8 ' 8 8 p _ ) > . . ",
". . . . j m B _ p _ 8 8 p _ 8 8 8 8 { 4 8 8 8 ' 8 8 p ' ' + . . ",
". . . . . `  .{ _ < 8 8 d ) 8 8 8 8 ' 8 8 8 8 ' 4 d q 6 ... . . ",
". . . . . . ( ' q 6 ! 7 ~ ~ 8 8 8 : 6 8 8 p d ' { 5 6 q +.. . . ",
". . . . . . . e < q < 6 ' 6 _ _ _ q { 6 ' q _ q 4 8 { q w . . . ",
". . . . . . . % 5 q 8 8 ~ 5 p p p ! q 7 8 8 d 5 8 7 ' M @.. . . ",
". . . . . . . w { ' 8 8 d 5 8 8 8 p _ 8 8 8 ~ ~ 8 5 e ( . . . . ",
". . . . . . . . +.' { 5 < _ 8 8 8 p _ 8 8 8 _ ~ _ ' j . . . . . ",
". . . . . . . . @...' < 5 ' ' { _ q { _ _ _ { 6 { #.. . . . . . ",
". . . . . . . . . + ..{ o q d 4 p ) < p p 5 q ~ ..@.. . . . . . ",
". . . . . . . . . . . > e ' ' q d { d p p { ' +.( . . . . . . . ",
". . . . . . . . . . . . . @ ..' ' ' ' ' M +.@.. . . . . . . . . ",
". . . . . . . . . . . . . . . ( . . . . . . . . . . . . . . . . "};
