/* XPM */
static char * globalSmooth_xpm[] = {
"32 32 407 2",
"  	c None",
". 	c #3F93DB",
"+ 	c #429CE8",
"@ 	c #429AE7",
"# 	c #4198E6",
"$ 	c #4196E5",
"% 	c #4094E4",
"& 	c #3F92E2",
"* 	c #3E91E0",
"= 	c #3D8DDE",
"- 	c #3C8BDD",
"; 	c #3B88DB",
"> 	c #3986D9",
", 	c #3883D8",
"' 	c #3680D6",
") 	c #357DD4",
"! 	c #347BD1",
"~ 	c #3378D0",
"{ 	c #3275CE",
"] 	c #3072CD",
"^ 	c #2E70CA",
"/ 	c #2E6CC8",
"( 	c #2C6AC6",
"_ 	c #2B67C4",
": 	c #2964C2",
"< 	c #2963C1",
"[ 	c #285FBF",
"} 	c #275DBE",
"| 	c #265BBD",
"1 	c #2559BA",
"2 	c #2457B9",
"3 	c #2456B8",
"4 	c #204FAC",
"5 	c #439DE9",
"6 	c #4D4D4D",
"7 	c #47A6FA",
"8 	c #46A3F8",
"9 	c #45A1F7",
"0 	c #449EF6",
"a 	c #439CF4",
"b 	c #429AF2",
"c 	c #4097F0",
"d 	c #3F94EE",
"e 	c #3E91EC",
"f 	c #3D8FEA",
"g 	c #3B8BE8",
"h 	c #3989E6",
"i 	c #3985E4",
"j 	c #3782E2",
"k 	c #367FDF",
"l 	c #347CDD",
"m 	c #3378DB",
"n 	c #3276D9",
"o 	c #3072D7",
"p 	c #2F70D5",
"q 	c #2E6DD3",
"r 	c #2D6AD1",
"s 	c #2B67D0",
"t 	c #2B65CD",
"u 	c #2963CC",
"v 	c #2861CA",
"w 	c #FF3A3A",
"x 	c #2354B7",
"y 	c #47A5FA",
"z 	c #FFFFFF",
"A 	c #3378DC",
"B 	c #3275D9",
"C 	c #3073D7",
"D 	c #2C6AD1",
"E 	c #2C68D0",
"F 	c #2A65CE",
"G 	c #2962CC",
"H 	c #2860CA",
"I 	c #3478CF",
"J 	c #367DD7",
"K 	c #357BD2",
"L 	c #3173C6",
"M 	c #5C5C5C",
"N 	c #E8E7E7",
"O 	c #3071C1",
"P 	c #BABABA",
"Q 	c #BBBBBB",
"R 	c #BCBCBC",
"S 	c #A5A5B1",
"T 	c #BDBDBD",
"U 	c #BEBEBE",
"V 	c #BFBFBF",
"W 	c #C0C0C0",
"X 	c #C1C1C1",
"Y 	c #5E5E8B",
"Z 	c #353576",
"` 	c #363676",
" .	c #363677",
"..	c #22226C",
"+.	c #101062",
"@.	c #101063",
"#.	c #101064",
"$.	c #2D2D74",
"%.	c #636390",
"&.	c #9B9BAC",
"*.	c #0F0F5F",
"=.	c #124197",
"-.	c #1679D3",
";.	c #167AD3",
">.	c #1683DE",
",.	c #18A2FF",
"'.	c #178EE9",
").	c #177BD4",
"!.	c #1568C0",
"~.	c #123186",
"{.	c #101065",
"].	c #78789B",
"^.	c #114094",
"/.	c #0F1666",
"(.	c #124095",
"_.	c #11378A",
":.	c #102E81",
"<.	c #0F1667",
"[.	c #101E70",
"}.	c #112F83",
"|.	c #134297",
"1.	c #1354AB",
"2.	c #1567BF",
"3.	c #177CD5",
"4.	c #14459B",
"5.	c #61618E",
"6.	c #124FA5",
"7.	c #1592F2",
"8.	c #0E0E5B",
"9.	c #1261BA",
"0.	c #1475D0",
"a.	c #1588E7",
"b.	c #179EFF",
"c.	c #179FFF",
"d.	c #18A0FF",
"e.	c #18A1FF",
"f.	c #1454AB",
"g.	c #5F5F8B",
"h.	c #B9B9B9",
"i.	c #103485",
"j.	c #159AFF",
"k.	c #0F2B7B",
"l.	c #1372CF",
"m.	c #159BFF",
"n.	c #169BFF",
"o.	c #169CFF",
"p.	c #169DFF",
"q.	c #17A0FF",
"r.	c #1353AA",
"s.	c #5D5D89",
"t.	c #B8B8B8",
"u.	c #0D1B68",
"v.	c #1598FF",
"w.	c #103A8D",
"x.	c #1153AC",
"y.	c #1599FF",
"z.	c #1250A7",
"A.	c #46467C",
"B.	c #87879E",
"C.	c #88889F",
"D.	c #68688F",
"E.	c #5E5E8A",
"F.	c #696990",
"G.	c #9696A8",
"H.	c #0C0C55",
"I.	c #138BF0",
"J.	c #10499F",
"K.	c #0F4095",
"L.	c #1496FF",
"M.	c #1497FF",
"N.	c #11459B",
"O.	c #0E1564",
"P.	c #102D7F",
"Q.	c #0F1E6E",
"R.	c #0F0F5E",
"S.	c #112E82",
"T.	c #101F71",
"U.	c #0F0F61",
"V.	c #171765",
"W.	c #3F3F7B",
"X.	c #696991",
"Y.	c #ADADB2",
"Z.	c #232361",
"`.	c #116BCB",
" +	c #0D2775",
".+	c #1394FF",
"++	c #1495FF",
"@+	c #1597FF",
"#+	c #115CB7",
"$+	c #0F2471",
"%+	c #158FF2",
"&+	c #114DA4",
"*+	c #0D1563",
"=+	c #1358B0",
"-+	c #1693F2",
";+	c #102778",
">+	c #11378B",
",+	c #146FC8",
"'+	c #12388C",
")+	c #48487F",
"!+	c #B7B7B7",
"~+	c #3C3C6E",
"{+	c #0F469C",
"]+	c #127CE2",
"^+	c #0B1259",
"/+	c #1392FF",
"(+	c #1393FF",
"_+	c #1163C0",
":+	c #0C135E",
"<+	c #115BB5",
"[+	c #0E2370",
"}+	c #0F2B7A",
"|+	c #1484E5",
"1+	c #1692F2",
"2+	c #0F2D7F",
"3+	c #113F94",
"4+	c #168AE6",
"5+	c #112778",
"6+	c #717193",
"7+	c #B6B6B6",
"8+	c #57577D",
"9+	c #0D2D7A",
"0+	c #1290FF",
"a+	c #0B0B4F",
"b+	c #1285EF",
"c+	c #1390FF",
"d+	c #1391FF",
"e+	c #1288F0",
"f+	c #0C0C53",
"g+	c #0C1963",
"h+	c #0C125C",
"i+	c #1052A9",
"j+	c #113D90",
"k+	c #0F2574",
"l+	c #1475CF",
"m+	c #171E69",
"n+	c #9191A3",
"o+	c #B5B5B5",
"p+	c #8D8D9A",
"q+	c #0B1156",
"r+	c #1179E1",
"s+	c #0D256F",
"t+	c #1066C7",
"u+	c #128EFF",
"v+	c #128FFF",
"w+	c #0F4599",
"x+	c #0E3686",
"y+	c #0D206A",
"z+	c #0C0C52",
"A+	c #0F479D",
"B+	c #1494FF",
"C+	c #1596FF",
"D+	c #0E1C6A",
"E+	c #0E1562",
"F+	c #272769",
"G+	c #B4B4B4",
"H+	c #A6A6A6",
"I+	c #4B4B75",
"J+	c #0C246F",
"K+	c #0D3382",
"L+	c #0E4AA2",
"M+	c #128DFF",
"N+	c #0C185E",
"O+	c #1070D5",
"P+	c #0B1157",
"Q+	c #0E2E7C",
"R+	c #0D216A",
"S+	c #1173D7",
"T+	c #1493FF",
"U+	c #115AB3",
"V+	c #0E2A78",
"W+	c #0E1A67",
"X+	c #0D145F",
"Y+	c #125DB6",
"Z+	c #0D1460",
"`+	c #9797A4",
" @	c #A5A5A5",
".@	c #272760",
"+@	c #0B1054",
"@@	c #0D398B",
"#@	c #128CFF",
"$@	c #1182EE",
"%@	c #0D2C78",
"&@	c #0E4297",
"*@	c #0F53AD",
"=@	c #0F55AF",
"-@	c #0B1258",
";@	c #0F459A",
">@	c #1387F0",
",@	c #0F479B",
"'@	c #0D1A63",
")@	c #0E2875",
"!@	c #1159B1",
"~@	c #0F4194",
"{@	c #104A9F",
"]@	c #104295",
"^@	c #4B4B7A",
"/@	c #96969C",
"(@	c #111150",
"_@	c #0C236D",
":@	c #1076E0",
"<@	c #0E49A0",
"[@	c #0C246D",
"}@	c #0A0A4C",
"|@	c #0F5BB9",
"1@	c #0F52AC",
"2@	c #117AE1",
"3@	c #0D2570",
"4@	c #0B0B50",
"5@	c #0E3585",
"6@	c #1171D5",
"7@	c #10489C",
"8@	c #1274D6",
"9@	c #1C1C5E",
"0@	c #A4A4A4",
"a@	c #A3A3A3",
"b@	c #676784",
"c@	c #181854",
"d@	c #373767",
"e@	c #676783",
"f@	c #A2A2A2",
"g@	c #5C5C7E",
"h@	c #0D3280",
"i@	c #0A1054",
"j@	c #0F5BBA",
"k@	c #138EFF",
"l@	c #138FFF",
"m@	c #105FBB",
"n@	c #0E2F7C",
"o@	c #0E216B",
"p@	c #95959A",
"q@	c #0A1053",
"r@	c #0C1D63",
"s@	c #128BFF",
"t@	c #0E4195",
"u@	c #0E4295",
"v@	c #1166C6",
"w@	c #0D2670",
"x@	c #127AE1",
"y@	c #131A5D",
"z@	c #A1A1A1",
"A@	c #27275D",
"B@	c #0D3889",
"C@	c #128AFF",
"D@	c #0E4094",
"E@	c #1178DF",
"F@	c #0E2D78",
"G@	c #4D4D76",
"H@	c #484871",
"I@	c #0E4093",
"J@	c #117FEE",
"K@	c #0D398A",
"L@	c #0E489E",
"M@	c #0B0B4D",
"N@	c #1A1A56",
"O@	c #11114F",
"P@	c #0C1D62",
"Q@	c #0A1052",
"R@	c #0D3F93",
"S@	c #117FED",
"T@	c #1289FF",
"U@	c #0C236B",
"V@	c #1061C3",
"W@	c #1075DE",
"X@	c #0F59B6",
"Y@	c #0B0B4C",
"Z@	c #717189",
"`@	c #1074DF",
" #	c #0D317E",
".#	c #0F58B5",
"+#	c #0E4092",
"@#	c #0D2B74",
"##	c #0B1052",
"$#	c #0B175A",
"%#	c #0B1053",
"&#	c #2F2F61",
"*#	c #A7A7A7",
"=#	c #888894",
"-#	c #0A0A4B",
";#	c #0F61C4",
">#	c #0A0A4A",
",#	c #0C236A",
"'#	c #0F58B6",
")#	c #1074DE",
"!#	c #0F58B4",
"~#	c #191953",
"{#	c #93939A",
"]#	c #A0A0A0",
"^#	c #A8A8A8",
"/#	c #3F3F6C",
"(#	c #0D2A75",
"_#	c #0E489D",
":#	c #0F69CF",
"<#	c #111856",
"[#	c #7A7A8D",
"}#	c #AAAAAA",
"|#	c #A9A9A9",
"1#	c #95959B",
"2#	c #181853",
"3#	c #0B165A",
"4#	c #5B5B7C",
"5#	c #ACACAC",
"6#	c #ABABAB",
"7#	c #7C7C8F",
"8#	c #717187",
"9#	c #707088",
"0#	c #707087",
". + @ # $ % & * = - ; > , ' ) ! ~ { ] ^ / ( _ : < [ } | 1 2 3 4 ",
"5 6 6 7 8 9 0 a b c d e f g h i j k l m n o p q r s t u v w w x ",
"5 6 6 y z z z z z z z z z z z z z k l A B C p q D E F G H w w x ",
"I J K K K K K K K K K K K K K K K K K K K K K K K K K K K K J I ",
"L M M M M M M M M M M M M M M M M M M M M M M M M M M M M M N L ",
"O M P P P P Q Q Q Q R S T T T U U V V V W W X X X X X X X X N O ",
"O M Y Y Z `  ...+.@.@.#.$.%.&.T T U V V V V W W W W W W W X N O ",
"O M *.=.-.-.;.>.,.'.).!.~.@.#.{.].T T T U U U V V V V W W W N O ",
"O M ^./.(._.:.<.*.[.}.|.1.2.3.4.5.Q R R R T T U U V V V V V N O ",
"O M 6.7.8.9.0.a.b.c.c.d.e.,.,.f.g.h.P Q Q Q T T T U T U U U N O ",
"O M i.j.k.l.m.n.o.o.p.b.b.c.q.r.s.t.t.h.h.Q Q Q R Q R R T T N O ",
"O M u.v.w.x.v.v.y.y.j.n.o.p.b.z.A.B.C.D.E.F.G.h.P P P Q R R N O ",
"O M H.I.J.K.L.M.M.M.v.y.j.j.n.N.O.P.Q.R.S.T.U.V.W.X.Y.P P Q N O ",
"O M Z.`.`. +.+++++L.L.M.M.@+#+$+%+&+*+=+b.-+;+>+,+'+)+!+t.h.N O ",
"O M ~+{+]+^+/+/+/+(+.+.+++_+:+<+[+}+|+n.o.n.1+2+3+4+5+6+7+!+N O ",
"O M 8+9+0+a+b+c+c+d+d+/+e+f+g+h+i+M.@+v.v.y.j.n.j+k+l+m+n+o+N O ",
"O M p+q+r+s+t+u+u+v+0+0+w+x+y+z+A+B+B+++C+M.v.@+y.k.D+E+F+G+N O ",
"O M H+I+J+K+L+M+M+M+u+r+N+O+P+b+Q+R+S+T+.+++++U+V+W+X+Y+Z+`+N O ",
"O M H+ @.@+@@@#@#@#@$@%@&@*@%@v+0+=@-@;@>@,@'@)@!@B+~@{@]@^@N O ",
"O M  @ @/@(@_@:@<@[@}@(@|@K+1@M+u+u+2@3@4@5@6@d+d+(+,@7@8@9@N O ",
"O M 0@0@a@b@(@c@d@e@f@g@h@i@:@#@M+#@#@j@%@M+u+k@l@l@m@n@d+o@N O ",
"O M 0@a@a@a@f@f@f@f@f@p@q@r@s@s@#@#@#@t@u@#@M+M+k@u+v@w@x@y@N O ",
"O M 0@a@a@a@f@f@f@f@f@z@A@B@C@s@s@s@s@D@t@s@#@#@#@#@E@q+F@G@N O ",
"O M  @0@a@f@f@f@f@f@f@z@H@q@I@J@C@C@C@K@L@C@s@C@s@s@s@M@N@0@N O ",
"O M  @0@0@a@f@f@f@z@f@z@p@O@P@Q@R@S@T@U@V@C@T@C@T@W@X@Y@Z@z@N O ",
"O M H+ @0@0@a@a@f@f@f@f@z@H@U@`@ #Q@I@P@.#V@+#@###$#%#&#z@z@N O ",
"O M *#H+ @ @0@a@a@a@f@f@z@=#-#;#T@`@ #>#q@,#+#'#)#!#~#{#]#]#N O ",
"O M ^#^#H+H+ @ @0@a@a@a@f@f@/#q@(#_#)#>#T@T@T@T@:#<#[#]#]#]#N O ",
"O M }#|#^#*#*#H+ @ @ @0@a@a@f@1#g@d@2#>#U@U@U@,#3#4#]#]#]#]#N O ",
"O M 5#6#}#|#^#^#*#H+H+ @ @a@a@a@a@f@f@7#8#9#0#9#0#z@]#]#]#]#N O ",
"L M N N N N N N N N N N N N N N N N N N N N N N N N N N N N N L ",
"O L O O O O O O O O O O O O O O O O O O O O O O O O O O O O L O "};
