/* XPM */
static char * googleSearch_xpm[] = {
"32 32 505 2",
"  	c None",
". 	c #FFFFFF",
"+ 	c #DDE8FE",
"@ 	c #8FB1F4",
"# 	c #4272DB",
"$ 	c #0E45BB",
"% 	c #0F3FA4",
"& 	c #2D53A4",
"* 	c #4967A5",
"= 	c #5874AD",
"- 	c #5672AB",
"; 	c #4563A2",
"> 	c #2B53A8",
", 	c #1243A9",
"' 	c #033DBD",
") 	c #0A45C9",
"! 	c #1751D3",
"~ 	c #2C61D5",
"{ 	c #4D79D8",
"] 	c #90ACE5",
"^ 	c #E1E6F4",
"/ 	c #EFF3FE",
"( 	c #99BAF8",
"_ 	c #3D72DE",
": 	c #0F43B3",
"< 	c #2F55A5",
"[ 	c #8191B5",
"} 	c #B6BAC4",
"| 	c #CBCAC9",
"1 	c #D1CDC9",
"2 	c #D3CBC5",
"3 	c #CDC9C3",
"4 	c #C7C5C0",
"5 	c #BEBABB",
"6 	c #A2A5B2",
"7 	c #7182A8",
"8 	c #3356A5",
"9 	c #0F44B8",
"0 	c #134BC9",
"a 	c #134ED2",
"b 	c #0E4BCF",
"c 	c #2A5BCA",
"d 	c #7A97D7",
"e 	c #E6EAF3",
"f 	c #FFFFFE",
"g 	c #CCDDFC",
"h 	c #6F9AF2",
"i 	c #2359CC",
"j 	c #1D4397",
"k 	c #7887A8",
"l 	c #C5C5C6",
"m 	c #CDCBC6",
"n 	c #C4BEBD",
"o 	c #C0BCBD",
"p 	c #BEBBBE",
"q 	c #C3BEBF",
"r 	c #C4C2C3",
"s 	c #C4C4C4",
"t 	c #C7C5C5",
"u 	c #C7C0BE",
"v 	c #BFBBB6",
"w 	c #ACABAF",
"x 	c #62759F",
"y 	c #1543A8",
"z 	c #1045BB",
"A 	c #194FC8",
"B 	c #1347BD",
"C 	c #01329C",
"D 	c #24448D",
"E 	c #C1C8DA",
"F 	c #B8CFF8",
"G 	c #578CEF",
"H 	c #2050B9",
"I 	c #223F7B",
"J 	c #9D9FA8",
"K 	c #C7C3C0",
"L 	c #B6B2B4",
"M 	c #B7B7B7",
"N 	c #C7C5C6",
"O 	c #D7D5D5",
"P 	c #E1E0E1",
"Q 	c #EAE8E6",
"R 	c #ECEAEA",
"S 	c #EEEDEC",
"T 	c #EBE9EA",
"U 	c #E7E4E4",
"V 	c #D9D8DA",
"W 	c #D0CDCD",
"X 	c #C5BFB7",
"Y 	c #8B93A6",
"Z 	c #2750A8",
"` 	c #0D43B8",
" .	c #14409F",
"..	c #01226D",
"+.	c #2E4271",
"@.	c #C5C7D3",
"#.	c #F9F6F7",
"$.	c #B6CEF8",
"%.	c #5A8EF0",
"&.	c #2554BA",
"*.	c #193474",
"=.	c #989BA0",
"-.	c #B9B4B2",
";.	c #B2ADAF",
">.	c #C5C2C4",
",.	c #DDDBDC",
"'.	c #F2F0F1",
").	c #FBF9FA",
"!.	c #FDFCFD",
"~.	c #FCFBFC",
"{.	c #F5F3F5",
"].	c #E4E2E4",
"^.	c #D5D1CB",
"/.	c #A8AAB5",
"(.	c #2C4F9F",
"_.	c #002170",
":.	c #2E406A",
"<.	c #9E9D9F",
"[.	c #C5C3C2",
"}.	c #E4E2E3",
"|.	c #C5D8FA",
"1.	c #5E93F4",
"2.	c #3062CC",
"3.	c #09296F",
"4.	c #7C838F",
"5.	c #AFACA9",
"6.	c #AFACAE",
"7.	c #D0CCCD",
"8.	c #EEEAED",
"9.	c #FCFAFC",
"0.	c #F6F5F6",
"a.	c #CECED6",
"b.	c #274487",
"c.	c #2E4471",
"d.	c #919194",
"e.	c #A5A1A1",
"f.	c #BCBBBC",
"g.	c #E5E3E4",
"h.	c #E4ECFD",
"i.	c #71A0F4",
"j.	c #4276E2",
"k.	c #072E87",
"l.	c #425172",
"m.	c #AAA8A5",
"n.	c #ACACAB",
"o.	c #D2D1D4",
"p.	c #F0EEEF",
"q.	c #FEFDFE",
"r.	c #BFCAE5",
"s.	c #7F90B8",
"t.	c #AEACB0",
"u.	c #A8A5A3",
"v.	c #B7B4B7",
"w.	c #DDDADD",
"x.	c #F7F4F7",
"y.	c #9EBEF7",
"z.	c #578DF0",
"A.	c #2250B6",
"B.	c #0D2765",
"C.	c #888990",
"D.	c #ACAAA7",
"E.	c #CAC9CB",
"F.	c #F0EEF1",
"G.	c #FFFDFE",
"H.	c #FFFEFF",
"I.	c #FDFDFD",
"J.	c #F7F2F0",
"K.	c #CAC7C7",
"L.	c #BEBDBE",
"M.	c #DEDADE",
"N.	c #F9F5F9",
"O.	c #DCE6FE",
"P.	c #75A3F5",
"Q.	c #4376E0",
"R.	c #072D82",
"S.	c #394A70",
"T.	c #A5A3A1",
"U.	c #BBBBBA",
"V.	c #E6E4E7",
"W.	c #FFFCFE",
"X.	c #F1F0F1",
"Y.	c #E1DDE1",
"Z.	c #E6E5E5",
"`.	c #F9F7F7",
" +	c #ACC7F8",
".+	c #6595F3",
"++	c #2554BB",
"@+	c #05256B",
"#+	c #68707E",
"$+	c #B1ADAC",
"%+	c #D5D4D5",
"&+	c #F9F7F9",
"*+	c #FAF8FA",
"=+	c #FFFEFE",
"-+	c #ECF1FC",
";+	c #8DB0F7",
">+	c #5285EA",
",+	c #133FA0",
"'+	c #102C63",
")+	c #8C8C91",
"!+	c #BFBCBD",
"~+	c #E8E6E8",
"{+	c #D0DCF8",
"]+	c #7CA7F6",
"^+	c #4375E0",
"/+	c #0A3593",
"(+	c #21386A",
"_+	c #9D9C9E",
":+	c #CDC9CA",
"<+	c #F2F1F2",
"[+	c #AFC7F7",
"}+	c #6C9CF5",
"|+	c #3162CC",
"1+	c #072D84",
"2+	c #304573",
"3+	c #AEACAD",
"4+	c #DCD8DA",
"5+	c #FBFAFB",
"6+	c #98BAF2",
"7+	c #6093F0",
"8+	c #2556C5",
"9+	c #062C81",
"0+	c #384B78",
"a+	c #B9B5B6",
"b+	c #E3E1E3",
"c+	c #91B5F2",
"d+	c #558BEF",
"e+	c #1C4EBD",
"f+	c #052B7E",
"g+	c #3B4D7A",
"h+	c #BDB8B9",
"i+	c #E5E4E9",
"j+	c #FFFDFF",
"k+	c #729FF2",
"l+	c #3F75E5",
"m+	c #184BB9",
"n+	c #062E83",
"o+	c #374A76",
"p+	c #C0BDBD",
"q+	c #EBEAEB",
"r+	c #4E80E1",
"s+	c #275FD8",
"t+	c #184ABD",
"u+	c #0B348B",
"v+	c #273F73",
"w+	c #BAB9BE",
"x+	c #EEEBEB",
"y+	c #4672D4",
"z+	c #1853D6",
"A+	c #194DC1",
"B+	c #0E3891",
"C+	c #1A3978",
"D+	c #ACADB2",
"E+	c #EFEAEB",
"F+	c #537BD5",
"G+	c #1651D6",
"H+	c #184EC5",
"I+	c #123F9F",
"J+	c #0E327F",
"K+	c #9197A4",
"L+	c #EAE8E5",
"M+	c #FEFCFE",
"N+	c #7295E1",
"O+	c #124FD3",
"P+	c #1950CB",
"Q+	c #1544A9",
"R+	c #073188",
"S+	c #63739A",
"T+	c #E6E1DE",
"U+	c #FDFBFD",
"V+	c #A5BAE8",
"W+	c #154FD0",
"X+	c #1850CD",
"Y+	c #1848B5",
"Z+	c #0A3792",
"`+	c #2E4A89",
" @	c #CCCACC",
".@	c #F9F6F8",
"+@	c #D6E4FD",
"@@	c #AEC6F8",
"#@	c #ADC4F5",
"$@	c #B6CCFC",
"%@	c #BDD2FB",
"&@	c #B8CEFB",
"*@	c #A6BFF2",
"=@	c #93AEE6",
"-@	c #99ADD2",
";@	c #D8E0F2",
">@	c #2158D1",
",@	c #144DCB",
"'@	c #194ABA",
")@	c #1341A2",
"!@	c #0B3489",
"~@	c #919CB6",
"{@	c #FBF5F4",
"]@	c #FDFDFF",
"^@	c #CCDBF9",
"/@	c #6F98E8",
"(@	c #2F63D4",
"_@	c #1850CE",
":@	c #265CCF",
"<@	c #4C80E3",
"[@	c #76A4F4",
"}@	c #79A5F4",
"|@	c #4A80EA",
"1@	c #144CC9",
"2@	c #0C3696",
"3@	c #94A1BF",
"4@	c #FCFDFD",
"5@	c #537ED9",
"6@	c #0C48CC",
"7@	c #184DC5",
"8@	c #1949B6",
"9@	c #0A3693",
"0@	c #3E5A96",
"a@	c #E7E2E4",
"b@	c #E9EDF7",
"c@	c #9AB3E3",
"d@	c #8DA6DA",
"e@	c #96A9CE",
"f@	c #94A1C5",
"g@	c #9BA5BF",
"h@	c #A3B0CF",
"i@	c #6B98ED",
"j@	c #5F90EF",
"k@	c #2F65DA",
"l@	c #073497",
"m@	c #475A83",
"n@	c #E4DFDA",
"o@	c #AABBE2",
"p@	c #1149C8",
"q@	c #164CC6",
"r@	c #184BBD",
"s@	c #1645AB",
"t@	c #0A358F",
"u@	c #8D99B7",
"v@	c #FFFDF9",
"w@	c #FDFDFE",
"x@	c #FFFEFB",
"y@	c #FDF7F0",
"z@	c #E6E1DD",
"A@	c #CFCBC4",
"B@	c #C6C1BA",
"C@	c #B7B7C4",
"D@	c #4C7CDF",
"E@	c #3068DF",
"F@	c #194AB8",
"G@	c #042978",
"H@	c #4A5A78",
"I@	c #BFBAB9",
"J@	c #466EC9",
"K@	c #0B44C3",
"L@	c #184DC3",
"M@	c #1849B6",
"N@	c #0F40AA",
"O@	c #1E4597",
"P@	c #C6CBD8",
"Q@	c #E9E7E9",
"R@	c #DAD8DA",
"S@	c #D3D2D3",
"T@	c #D5D1D0",
"U@	c #C9CDD7",
"V@	c #6693E9",
"W@	c #366DE3",
"X@	c #1746B1",
"Y@	c #062977",
"Z@	c #465778",
"`@	c #B5BDD4",
" #	c #1648B6",
".#	c #1349C4",
"+#	c #184AB8",
"@#	c #1547B4",
"##	c #0C3CA9",
"$#	c #375EAE",
"%#	c #E4E3E8",
"&#	c #FCFCFC",
"*#	c #F8F6F8",
"=#	c #F5F2F5",
"-#	c #FAF9F8",
";#	c #EAEFF7",
">#	c #7EA8F1",
",#	c #457BEA",
"'#	c #1746B2",
")#	c #052978",
"!#	c #475879",
"~#	c #C2BFBF",
"{#	c #F9F4F0",
"]#	c #7D90BD",
"^#	c #093EB1",
"/#	c #1547B6",
"(#	c #1748B5",
"_#	c #1548B6",
":#	c #093CAD",
"<#	c #4869B0",
"[#	c #E5E7ED",
"}#	c #F1F5FC",
"|#	c #83ACEF",
"1#	c #447BEA",
"2#	c #1746B3",
"3#	c #052979",
"4#	c #475878",
"5#	c #C7C4C2",
"6#	c #FDFEFC",
"7#	c #E6E5E1",
"8#	c #5D78B3",
"9#	c #073BAB",
"0#	c #1649B7",
"a#	c #1749B6",
"b#	c #0A3EB1",
"c#	c #3B63BC",
"d#	c #C6D2EB",
"e#	c #F0F4FB",
"f#	c #84ACF0",
"g#	c #457CEB",
"h#	c #052A7B",
"i#	c #465777",
"j#	c #FEFCFA",
"k#	c #DDDBDA",
"l#	c #5C77AD",
"m#	c #08399E",
"n#	c #113FA5",
"o#	c #1746AE",
"p#	c #0C42BC",
"q#	c #1D50BF",
"r#	c #88A1DA",
"s#	c #EAEEF6",
"t#	c #F9FAFC",
"u#	c #729EEF",
"v#	c #3064D7",
"w#	c #103B9B",
"x#	c #001F66",
"y#	c #465776",
"z#	c #C5C1BE",
"A#	c #FDFCFB",
"B#	c #DEDBD8",
"C#	c #77829F",
"D#	c #193E8B",
"E#	c #093694",
"F#	c #1340A3",
"G#	c #1846B0",
"H#	c #1345B7",
"I#	c #0C42B9",
"J#	c #3A66CB",
"K#	c #8FA9E3",
"L#	c #D2DDF5",
"M#	c #FAFAFC",
"N#	c #F7FAFF",
"O#	c #BBCFF9",
"P#	c #3968D4",
"Q#	c #103A9D",
"R#	c #062468",
"S#	c #001A5A",
"T#	c #445676",
"U#	c #C4C1BE",
"V#	c #E6E2DD",
"W#	c #A2A5AD",
"X#	c #4A5F8F",
"Y#	c #143886",
"Z#	c #09318A",
"`#	c #0D3897",
" $	c #1140A7",
".$	c #0E41B4",
"+$	c #0C42BB",
"@$	c #2256C8",
"#$	c #4873D5",
"$$	c #7294E0",
"%$	c #92ADE5",
"&$	c #A2BBF1",
"*$	c #A4BDF5",
"=$	c #A1BAF1",
"-$	c #8DADEE",
";$	c #6992E7",
">$	c #4170D5",
",$	c #174BBE",
"'$	c #183C8F",
")$	c #264075",
"!$	c #404F73",
"~$	c #5C677E",
"{$	c #848992",
"]$	c #BEBDBD",
"^$	c #F0EDEB",
"/$	c #CAC6C5",
"($	c #8F949F",
"_$	c #606B87",
":$	c #374C79",
"<$	c #1B3C80",
"[$	c #123682",
"}$	c #0C348B",
"|$	c #053495",
"1$	c #00319B",
"2$	c #0436A7",
"3$	c #0539AC",
"4$	c #0A3CAE",
"5$	c #0D3FAB",
"6$	c #1446AE",
"7$	c #2351B1",
"8$	c #4063AF",
"9$	c #5F7BB7",
"0$	c #8D9CBA",
"a$	c #A4AAB6",
"b$	c #AAA9A9",
"c$	c #A8A5A5",
"d$	c #A6A3A1",
"e$	c #ACA8A8",
"f$	c #C6C4C7",
". . . . . . . . . + @ # $ % & * = - ; > , ' ) ! ~ { ] ^ . . . . ",
". . . . . . . / ( _ : < [ } | 1 2 3 4 5 6 7 8 9 0 a b c d e . . ",
". . . . . f g h i j k l m n o p q r s t u v w x y z A B C D E . ",
". . . . . F G H I J K L M N O P Q R S T U V W X Y Z `  ...+.@.#.",
". . . . $.%.&.*.=.-.;.>.,.'.).!.. . . . . ~.{.].^./.(._.:.<.[.}.",
". . . |.1.2.3.4.5.6.7.8.9.. . . . . . . . . . !.0.a.b.c.d.e.f.g.",
". . h.i.j.k.l.m.n.o.p.q.. . . . . . . . . . . . . r.s.t.u.v.w.x.",
". . y.z.A.B.C.D.E.F.G.. H.. . . . . . . . . . . . I.J.K.L.M.N.. ",
". O.P.Q.R.S.T.U.V.W.. . . . . . . . . . . . . . . f X.Y.Z.`.. . ",
".  +.+++@+#+$+%+&+H.. . . . . . . . . . . . . . . . I.*+=+. . . ",
"-+;+>+,+'+)+!+~+H.. . . . . . . . . . . . . . . . . . . . . . . ",
"{+]+^+/+(+_+:+<+. . . . . . . . . . . . . . . . . . . . . . . . ",
"[+}+|+1+2+3+4+5+. H.. . . . . . . . . . . . . . . . . . . . . . ",
"6+7+8+9+0+a+b+q.. . . . . . . . . . . . . . . . . . . . . . . . ",
"c+d+e+f+g+h+i+j+. . . . . . . . . . . . . . . . . . . . . . . . ",
"k+l+m+n+o+p+q+H.. . . . . . . . . . . . . . . . . . . . . . . . ",
"r+s+t+u+v+w+x+f . . . . . . . . . . . . . . . . . . . . . . . . ",
"y+z+A+B+C+D+E+G.. . . . . . . . . . . . . . . . . . . . . . . . ",
"F+G+H+I+J+K+L+M+H.. . . . . . . . . . . . . . . . . . . . . . . ",
"N+O+P+Q+R+S+T+U+H.. . . . . . . . . . . . . . . . . . . . . . . ",
"V+W+X+Y+Z+`+ @.@. . . . . . . . . . . . . . +@@@#@$@%@%@&@*@=@-@",
";@>@,@'@)@!@~@{@. . . . . . . . . . . ]@^@/@(@_@:@<@[@}@|@1@2@3@",
"4@5@6@7@8@9@0@a@. . . . . . . . . . . b@c@d@e@f@g@h@i@j@k@l@m@n@",
". o@p@q@r@s@t@u@v@. . . . . . . . . . w@x@y@z@A@B@C@D@E@F@G@H@I@",
". '.J@K@L@M@N@O@P@. . . . . . . . . . . 5+Q@R@S@T@U@V@W@X@Y@Z@a+",
". f `@ #.#+#@###$#%#. H.. . . . . . . . &#*#=#*#-#;#>#,#'#)#!#~#",
". . {#]#^#/#(#_#:#<#[#. . . . . . . . . . . . . . }#|#1#2#3#4#5#",
". . 6#7#8#9#/#0#a#b#c#d#. . . . . . . . . . . . . e#f#g#(#h#i#5#",
". . . j#k#l#m#n#o#F@p#q#r#s#. . . . . . . . . . . t#u#v#w#x#y#z#",
". . . . A#B#C#D#E#F#G#H#I#J#K#L#M#. . . . . . . N#O#P#Q#R#S#T#U#",
". . . . . A#V#W#X#Y#Z#`# $.$+$@$#$$$%$&$*$=$-$;$>$,$'$)$!$~${$]$",
". . . . . . !.^$/$($_$:$<$[$}$|$1$2$3$4$5$6$7$8$9$0$a$b$c$d$e$f$"};
