/* XPM */
static char * importAll_xpm[] = {
"32 32 644 2",
"  	c None",
". 	c #868686",
"+ 	c #878787",
"@ 	c #888888",
"# 	c #888889",
"$ 	c #888988",
"% 	c #898888",
"& 	c #878887",
"* 	c #878788",
"= 	c #888787",
"- 	c #8A898A",
"; 	c #898A89",
"> 	c #898989",
", 	c #8A8A8A",
"' 	c #89898A",
") 	c #8A8989",
"! 	c #888989",
"~ 	c #898889",
"{ 	c #888788",
"] 	c #888887",
"^ 	c #8B8B8B",
"/ 	c #8A8B8B",
"( 	c #8B8B8A",
"_ 	c #898A8A",
": 	c #E03C3C",
"< 	c #E83636",
"[ 	c #FE2424",
"} 	c #C25555",
"| 	c #868586",
"1 	c #878786",
"2 	c #8D8C8D",
"3 	c #8D8D8C",
"4 	c #8C8C8C",
"5 	c #8C8D8C",
"6 	c #8C8B8C",
"7 	c #8C8C8B",
"8 	c #8A8B8A",
"9 	c #8B8A8A",
"0 	c #C45656",
"a 	c #E13D3D",
"b 	c #F03030",
"c 	c #E13C3D",
"d 	c #C15453",
"e 	c #848383",
"f 	c #8E8F8E",
"g 	c #8E8E8E",
"h 	c #8D8D8D",
"i 	c #948E7C",
"j 	c #A6805F",
"k 	c #E53D34",
"l 	c #E13C3A",
"m 	c #B46262",
"n 	c #E13C3C",
"o 	c #D14848",
"p 	c #858585",
"q 	c #858685",
"r 	c #848484",
"s 	c #C05252",
"t 	c #808080",
"u 	c #818181",
"v 	c #828282",
"w 	c #909090",
"x 	c #B59435",
"y 	c #C6AD60",
"z 	c #D4B147",
"A 	c #E1C570",
"B 	c #E3CA7E",
"C 	c #F5735F",
"D 	c #D84141",
"E 	c #F72A2A",
"F 	c #818081",
"G 	c #BE5050",
"H 	c #7C7C7C",
"I 	c #7D7D7D",
"J 	c #919292",
"K 	c #919192",
"L 	c #9F936C",
"M 	c #E6CB7B",
"N 	c #FFFDEC",
"O 	c #FEFCE0",
"P 	c #FDFCC8",
"Q 	c #FAF9BF",
"R 	c #FD3E34",
"S 	c #867878",
"T 	c #7E7D7D",
"U 	c #877F65",
"V 	c #D35934",
"W 	c #B29542",
"X 	c #C2A85C",
"Y 	c #AE8F35",
"Z 	c #6D6E6E",
"` 	c #BB4E4E",
" .	c #777677",
"..	c #787878",
"+.	c #7A7B7B",
"@.	c #80807F",
"#.	c #939493",
"$.	c #939494",
"%.	c #BF9B32",
"&.	c #FCF4E3",
"*.	c #FFFFA4",
"=.	c #FEFE98",
"-.	c #FBFB97",
";.	c #F9B571",
">.	c #FD302A",
",.	c #CC6A3C",
"'.	c #BCA563",
").	c #BCA86E",
"!.	c #E57765",
"~.	c #CDCB9F",
"{.	c #CECD8E",
"].	c #B39630",
"^.	c #504343",
"/.	c #965E5F",
"(.	c #727272",
"_.	c #747474",
":.	c #777878",
"<.	c #969696",
"[.	c #9C9683",
"}.	c #E6C975",
"|.	c #FFFBCC",
"1.	c #FFFF99",
"2.	c #FDFD98",
"3.	c #F9F995",
"4.	c #FA714D",
"5.	c #EBA769",
"6.	c #EC5547",
"7.	c #BFBE8A",
"8.	c #BEBD82",
"9.	c #DF714B",
"0.	c #C0C073",
"a.	c #C2C274",
"b.	c #A88A1D",
"c.	c #652E2E",
"d.	c #925C5C",
"e.	c #6E6F6F",
"f.	c #717070",
"g.	c #767676",
"h.	c #989798",
"i.	c #A59565",
"j.	c #F2DEAA",
"k.	c #FFFDAC",
"l.	c #F7F794",
"m.	c #FB3C30",
"n.	c #DADA83",
"o.	c #F54334",
"p.	c #B4A665",
"q.	c #ADAD68",
"r.	c #D86A47",
"s.	c #B5B56D",
"t.	c #B8B86E",
"u.	c #A0841C",
"v.	c #632C2C",
"w.	c #965844",
"x.	c #6E685B",
"y.	c #6B6B6B",
"z.	c #737373",
"A.	c #7B7B7B",
"B.	c #9A9A9A",
"C.	c #A2956F",
"D.	c #F2DDA6",
"E.	c #FFFAA8",
"F.	c #FEFB95",
"G.	c #FAF793",
"H.	c #F8A467",
"I.	c #F1754E",
"J.	c #D1CF7B",
"K.	c #DC7B50",
"L.	c #C36F48",
"M.	c #9D9B5C",
"N.	c #C57146",
"O.	c #D5C964",
"P.	c #D2C054",
"Q.	c #BD9513",
"R.	c #AA7326",
"S.	c #F9443F",
"T.	c #F6523B",
"U.	c #F84E3B",
"V.	c #C08772",
"W.	c #9B702D",
"X.	c #5B5B5B",
"Y.	c #6D6D6D",
"Z.	c #797979",
"`.	c #9C9C9C",
" +	c #A3966F",
".+	c #F2DBA0",
"++	c #FFF4A1",
"@+	c #FDF38E",
"#+	c #F8EE8B",
"$+	c #FA6143",
"%+	c #F74434",
"&+	c #FB2D29",
"*+	c #DD4432",
"=+	c #D7BB61",
"-+	c #E8842B",
";+	c #EE914E",
">+	c #EA894B",
",+	c #D0A86B",
"'+	c #D0C399",
")+	c #D4C8A6",
"!+	c #DFDFD6",
"~+	c #E8D3CE",
"{+	c #FEAFAD",
"]+	c #FFB2AD",
"^+	c #FFB2AF",
"/+	c #E6D0C6",
"(+	c #88671B",
"_+	c #703A3A",
":+	c #9F4D4D",
"<+	c #876D6D",
"[+	c #9E9E9F",
"}+	c #A59872",
"|+	c #E9C974",
"1+	c #FEEB96",
"2+	c #FBE783",
"3+	c #F6D67A",
"4+	c #F7362C",
"5+	c #EB4432",
"6+	c #F92B27",
"7+	c #F89C54",
"8+	c #CB9D55",
"9+	c #FFB3B3",
"0+	c #FFB3AB",
"a+	c #FFB2AA",
"b+	c #E2CEC0",
"c+	c #D9D9C3",
"d+	c #E2D4B8",
"e+	c #E4CCA7",
"f+	c #ECCEBA",
"g+	c #FFB3A2",
"h+	c #FFB2A9",
"i+	c #FDB3A9",
"j+	c #F09565",
"k+	c #CE3D36",
"l+	c #986161",
"m+	c #A0A1A1",
"n+	c #A79A74",
"o+	c #E6C364",
"p+	c #FEE694",
"q+	c #FAE07C",
"r+	c #F88A53",
"s+	c #ED804E",
"t+	c #D1BB67",
"u+	c #BFAB5E",
"v+	c #AD9B55",
"w+	c #E9A754",
"x+	c #F49245",
"y+	c #EE8936",
"z+	c #EC8C50",
"A+	c #EAC1BF",
"B+	c #FFB39A",
"C+	c #FFB395",
"D+	c #FCB596",
"E+	c #FFB392",
"F+	c #FFB390",
"G+	c #F3C3A5",
"H+	c #FFB29A",
"I+	c #FEB29B",
"J+	c #FBAB95",
"K+	c #DC5A2E",
"L+	c #AB3939",
"M+	c #C83232",
"N+	c #B54848",
"O+	c #886D6D",
"P+	c #A3A3A3",
"Q+	c #9D9D9D",
"R+	c #E6C160",
"S+	c #FDE099",
"T+	c #F8D471",
"U+	c #FC4332",
"V+	c #E3B445",
"W+	c #D0A72A",
"X+	c #D1B255",
"Y+	c #C6A955",
"Z+	c #CFAB6C",
"`+	c #F6A289",
" @	c #FBAA9E",
".@	c #FFB3B0",
"+@	c #F4BA96",
"@@	c #FFB38A",
"#@	c #FFB389",
"$@	c #FFB388",
"%@	c #F7B98B",
"&@	c #F6BC8F",
"*@	c #F0C192",
"=@	c #EDCAA5",
"-@	c #E7D4B2",
";@	c #E3CFAE",
">@	c #C7B97D",
",@	c #5C4F2A",
"'@	c #393939",
")@	c #5E5E5E",
"!@	c #707070",
"~@	c #A5A6A5",
"{@	c #A4A3A3",
"]@	c #E5C05D",
"^@	c #FBDB91",
"/@	c #F7B760",
"(@	c #EA8E31",
"_@	c #DDC888",
":@	c #EDEDED",
"<@	c #E8E8DA",
"[@	c #E2E2CB",
"}@	c #DEDEBA",
"|@	c #FAB793",
"1@	c #F5BC90",
"2@	c #F2BD87",
"3@	c #EBC189",
"4@	c #E3C68D",
"5@	c #DECB8F",
"6@	c #DAD193",
"7@	c #D5D595",
"8@	c #D8D896",
"9@	c #DADA9C",
"0@	c #DDD493",
"a@	c #DEDEB0",
"b@	c #DEDFB3",
"c@	c #D5D1A1",
"d@	c #A08839",
"e@	c #3B3B39",
"f@	c #4B4B4B",
"g@	c #696869",
"h@	c #A8A7A8",
"i@	c #A6A6A6",
"j@	c #E5BE59",
"k@	c #FBD58A",
"l@	c #F97E47",
"m@	c #FC372B",
"n@	c #E0A954",
"o@	c #F2F2E7",
"p@	c #EEEEA1",
"q@	c #E9E995",
"r@	c #E4E492",
"s@	c #E0E08F",
"t@	c #DEDE8E",
"u@	c #DBDB8C",
"v@	c #D8D88A",
"w@	c #D6D689",
"x@	c #D5D588",
"y@	c #D7D78A",
"z@	c #D7D68B",
"A@	c #D9D88E",
"B@	c #DBDB95",
"C@	c #DED592",
"D@	c #DEDDAB",
"E@	c #DCD9A7",
"F@	c #CABF7E",
"G@	c #66582B",
"H@	c #383838",
"I@	c #5F5F5F",
"J@	c #727172",
"K@	c #7E7E7E",
"L@	c #AAA9AA",
"M@	c #A8A9A8",
"N@	c #D8AB2B",
"O@	c #F8D282",
"P@	c #F0BF5B",
"Q@	c #ECBA4B",
"R@	c #E1CB8A",
"S@	c #F3F3C8",
"T@	c #EFEF8F",
"U@	c #EBEB8D",
"V@	c #E8E88B",
"W@	c #E4E489",
"X@	c #E2E288",
"Y@	c #E0E086",
"Z@	c #DDDD85",
"`@	c #DBDB83",
" #	c #D9D982",
".#	c #DADA85",
"+#	c #DAD888",
"@#	c #DBDA8A",
"##	c #DEDD90",
"$#	c #E0D68E",
"%#	c #E0DEA3",
"&#	c #DBD69B",
"*#	c #B39E4A",
"=#	c #464338",
"-#	c #505050",
";#	c #7F7F7F",
">#	c #ACACAC",
",#	c #ABABAB",
"'#	c #D4A931",
")#	c #F8D488",
"!#	c #ECBC52",
"~#	c #DFAD2F",
"{#	c #F1EAD7",
"]#	c #F4F0A1",
"^#	c #F0EC8C",
"/#	c #EEE98A",
"(#	c #EBE688",
"_#	c #E9E487",
":#	c #E7E386",
"<#	c #E5E085",
"[#	c #E2DE83",
"}#	c #E0DC82",
"|#	c #DFDB82",
"1#	c #DFDA81",
"2#	c #DFDA83",
"3#	c #E0DD88",
"4#	c #E1DF8D",
"5#	c #E4D88B",
"6#	c #E3DE9D",
"7#	c #D8CB88",
"8#	c #846D2D",
"9#	c #4B484D",
"0#	c #696969",
"a#	c #AEAEAE",
"b#	c #ADADAD",
"c#	c #C9A74B",
"d#	c #F7D386",
"e#	c #E9B84A",
"f#	c #D8AF3D",
"g#	c #F7F6EA",
"h#	c #F5ED8A",
"i#	c #F2EA89",
"j#	c #F0E888",
"k#	c #EFE787",
"l#	c #EEE586",
"m#	c #ECE486",
"n#	c #EAE284",
"o#	c #E9E083",
"p#	c #E7DF82",
"q#	c #E6DE82",
"r#	c #E5DD81",
"s#	c #E5DD82",
"t#	c #E5DD85",
"u#	c #E6DF87",
"v#	c #E7E08B",
"w#	c #E8D784",
"x#	c #E5DF91",
"y#	c #C8B254",
"z#	c #544D38",
"A#	c #585757",
"B#	c #919191",
"C#	c #939393",
"D#	c #979797",
"E#	c #B0B0B1",
"F#	c #B0AFB0",
"G#	c #CBA94C",
"H#	c #F6CF7D",
"I#	c #E2B139",
"J#	c #E2C97E",
"K#	c #F8F2CD",
"L#	c #F7E886",
"M#	c #F5E784",
"N#	c #F3E584",
"O#	c #F3E483",
"P#	c #F2E483",
"Q#	c #F1E382",
"R#	c #F0E282",
"S#	c #EFE181",
"T#	c #EEE081",
"U#	c #EDDF80",
"V#	c #ECDE80",
"W#	c #EBDE81",
"X#	c #EDE084",
"Y#	c #EDE288",
"Z#	c #EBDA80",
"`#	c #E3D984",
" $	c #96802D",
".$	c #4B4A4A",
"+$	c #767575",
"@$	c #999999",
"#$	c #9B9B9B",
"$$	c #9E9D9D",
"%$	c #A0A0A0",
"&$	c #B2B3B2",
"*$	c #B2B1B1",
"=$	c #C6A139",
"-$	c #F8D078",
";$	c #DCA924",
">$	c #F2E9CC",
",$	c #FAEEA9",
"'$	c #F9E683",
")$	c #F8E582",
"!$	c #F7E582",
"~$	c #F6E481",
"{$	c #F6E381",
"]$	c #F5E381",
"^$	c #F4E280",
"/$	c #F3E180",
"($	c #F2E07F",
"_$	c #F1DF7F",
":$	c #F2E17F",
"<$	c #F3E282",
"[$	c #F0D976",
"}$	c #D9C253",
"|$	c #655932",
"1$	c #5C5C5C",
"2$	c #8F8F8F",
"3$	c #A1A1A1",
"4$	c #A4A4A5",
"5$	c #A5A5A5",
"6$	c #A7A7A8",
"7$	c #B4B4B4",
"8$	c #B4B4B3",
"9$	c #BF9928",
"0$	c #F9CF77",
"a$	c #D9AD30",
"b$	c #FDFBF5",
"c$	c #FCE37E",
"d$	c #FBE27E",
"e$	c #FAE17E",
"f$	c #FAE17D",
"g$	c #F9E17D",
"h$	c #F9E07D",
"i$	c #F8E07D",
"j$	c #F8DF7C",
"k$	c #F7DF7C",
"l$	c #F6DE7B",
"m$	c #F6DE7A",
"n$	c #F6DF7C",
"o$	c #F4DA73",
"p$	c #A8871C",
"q$	c #4D4D4D",
"r$	c #A2A2A2",
"s$	c #ABABAC",
"t$	c #ACACAB",
"u$	c #ACACAD",
"v$	c #ADAEAD",
"w$	c #AFAFAF",
"x$	c #B6B6B6",
"y$	c #B5B5B5",
"z$	c #B89C47",
"A$	c #FBD079",
"B$	c #E1C56F",
"C$	c #FDF4D5",
"D$	c #FDE07B",
"E$	c #FCDF7B",
"F$	c #FCDF7A",
"G$	c #FBDF7A",
"H$	c #FADE7A",
"I$	c #F7DA72",
"J$	c #EAC854",
"K$	c #DEB737",
"L$	c #D3A518",
"M$	c #B0870F",
"N$	c #726333",
"O$	c #B2B2B2",
"P$	c #B3B2B2",
"Q$	c #B3B3B3",
"R$	c #B5B4B4",
"S$	c #B8B8B8",
"T$	c #B7B7B7",
"U$	c #B9A053",
"V$	c #ECBD4C",
"W$	c #EEDEAF",
"X$	c #FEE8A8",
"Y$	c #FEDB75",
"Z$	c #FDDB75",
"`$	c #F8D367",
" %	c #EAC34A",
".%	c #DEB22D",
"+%	c #D0A10F",
"@%	c #AA8413",
"#%	c #8A7225",
"$%	c #6C5E39",
"%%	c #4F4F4F",
"&%	c #555554",
"*%	c #616161",
"=%	c #ACABAC",
"-%	c #B7B8B8",
";%	c #B9B9B9",
">%	c #B9B8B8",
",%	c #BBA154",
"'%	c #E2B43B",
")%	c #FFFFFF",
"!%	c #FFDA7B",
"~%	c #FFD872",
"{%	c #FED772",
"]%	c #F4CC5D",
"^%	c #E9BD41",
"/%	c #DCAD24",
"(%	c #C7990D",
"_%	c #A48118",
":%	c #846E2A",
"<%	c #665C3F",
"[%	c #515151",
"}%	c #575757",
"|%	c #616061",
"1%	c #747374",
"2%	c #989898",
"3%	c #AEAFAE",
"4%	c #B9BAB9",
"5%	c #BAB9BA",
"6%	c #BABABA",
"7%	c #BBBBBB",
"8%	c #BDA356",
"9%	c #E2C367",
"0%	c #FFF4DA",
"a%	c #FFD36D",
"b%	c #F2C553",
"c%	c #E6B737",
"d%	c #D9A81C",
"e%	c #C09312",
"f%	c #9C7C1C",
"g%	c #7C6930",
"h%	c #5E5845",
"i%	c #535353",
"j%	c #5E5B62",
"k%	c #676767",
"l%	c #7A7A7A",
"m%	c #A4A4A4",
"n%	c #BBBBBA",
"o%	c #BBBBBC",
"p%	c #BCBBBB",
"q%	c #BBBCBB",
"r%	c #BDBDBC",
"s%	c #BDA456",
"t%	c #DCB950",
"u%	c #DFB94D",
"v%	c #B68C10",
"w%	c #987B26",
"x%	c #756535",
"y%	c #5F5845",
"z%	c #545454",
"A%	c #5D5D5E",
"B%	c #6C6C6C",
"C%	c #929292",
"D%	c #9F9F9F",
"E%	c #A8A8A7",
"F%	c #B5B6B5",
"G%	c #BBBCBC",
"H%	c #BCBCBB",
"I%	c #BDBDBD",
"J%	c #BCBCBC",
"K%	c #BCBDBC",
"L%	c #BDBCBC",
"M%	c #BCBCBD",
"N%	c #BEBEBE",
"O%	c #B7A984",
"P%	c #867D62",
"Q%	c #615E55",
"R%	c #6E6E6E",
"S%	c #949493",
"T%	c #A2A2A1",
"U%	c #AAABAB",
"V%	c #B2B1B2",
"W%	c #B9B9B8",
"X%	c #BDBEBE",
"Y%	c #BEBDBE",
"Z%	c #BFBFBF",
"`%	c #C0BFBF",
". . . . . . . . . . . . . . . . . . . . . . . . . . . . . . . . ",
"+ + + + + + + + + + + + + + + + + + + + + + + + + + + + + + + + ",
"@ @ # @ @ @ $ @ # @ $ @ @ # # @ @ @ % @ @ $ @ @ @ & + & + + * = ",
"- ; > , ' ' - ; - ' - > > > - ) > $ ! ~ % ~ ~ ~ % = { + & { { ] ",
"^ ^ ^ ^ / ( ^ ^ ( / , , _ , - _ , > > > > > * = : < [ } . | + 1 ",
"2 3 4 2 2 3 5 6 7 7 8 , 9 , ) > 0 a b c + + + + [ [ [ d e e . . ",
"f g g g h h 4 i j k l [ m % + + n [ [ o p q p r [ [ [ s t u v p ",
"w w w x y z A B C [ [ [ D p r r E [ [ s F u u t [ [ [ G H I t v ",
"J K L M N O P Q R [ [ [ [ S T U [ [ [ V W X Y Z [ [ [ `  ...+.@.",
"#.$.%.&.*.=.-.;.[ >.[ [ [ ,.'.).[ [ [ !.~.{.].^.[ [ [ /.(._.:.I ",
"<.[.}.|.1.2.3.4.[ 5.[ [ [ 6.7.8.[ [ [ 9.0.a.b.c.[ [ [ d.e.f.g.H ",
"h.i.j.k.=.-.l.>.m.n.o.[ [ [ p.q.[ [ [ r.s.t.u.v.[ [ [ w.x.y.z.A.",
"B.C.D.E.F.G.H.[ I.J.K.[ [ [ L.M.[ [ [ N.O.P.Q.R.S.T.U.V.W.X.Y.Z.",
"`. +.+++@+#+$+[ %+&+[ [ [ [ *+=+-+;+>+,+'+)+!+~+{+]+^+/+(+_+:+<+",
"[+}+|+1+2+3+[ [ [ 4+5+6+[ [ 7+8+9+0+a+b+c+d+e+f+g+h+i+j+k+[ [ l+",
"m+n+o+p+q+r+[ s+t+u+v+w+x+y+z+A+B+C+C+D+E+F+F+G+H+I+J+K+L+M+N+O+",
"P+Q+R+S+T+U+[ V+W+X+Y+Z+`+ @.@+@@@@@#@$@%@&@*@=@-@;@>@,@'@)@!@Z.",
"~@{@]@^@/@[ (@_@:@<@[@}@|@1@2@3@4@5@6@7@8@9@0@a@b@c@d@e@f@g@_.A.",
"h@i@j@k@l@m@n@o@p@q@r@s@t@u@v@w@x@w@y@z@A@B@C@D@E@F@G@H@I@J@:.K@",
"L@M@N@O@P@Q@R@S@T@U@V@W@X@Y@Z@`@n. #.#+#@###$#%#&#*#=#-#!@A.;#p ",
">#,#'#)#!#~#{#]#^#/#(#_#:#<#[#}#|#1#1#2#3#4#5#6#7#8#9#0#u . , g ",
"a#b#c#d#e#f#g#h#i#j#k#l#m#n#o#p#q#r#s#t#u#v#w#x#y#z#A#u g B#C#D#",
"E#F#G#H#I#J#K#L#M#N#O#P#Q#R#S#T#U#V#W#V#X#Y#Z#`# $.$+$C#@$#$$$%$",
"&$*$=$-$;$>$,$'$)$!$~$~${$]$^$/$($_$_$_$:$<$[$}$|$1$2$3${@4$5$6$",
"7$8$9$0$a$b$c$d$e$f$g$g$g$h$i$j$k$l$l$l$m$n$o$p$q$A.r$s$t$u$v$w$",
"x$y$z$A$B$C$D$D$E$E$E$E$E$F$F$G$H$H$I$J$K$L$M$N$I@D#w$O$P$Q$Q$R$",
"S$T$U$V$W$X$Y$Y$Z$Z$Y$Y$Y$Y$`$ %.%+%@%#%$%%%&%*%! =%T$T$T$-%S$-%",
";%>%,%'%)%!%~%{%{%{%]%^%/%(%_%:%<%[%}%|%1%+ 2%P+3%-%4%5%6%5%6%5%",
"7%6%8%9%0%a%b%c%d%e%f%g%h%i%j%k%l%4 #$m%>#Q$;%n%o%7%7%7%p%7%7%q%",
"r%7%s%t%u%v%w%x%y%z%A%B%t C%D%E%3%F%q%G%H%I%J%K%r%L%J%K%L%L%M%K%",
"N%I%O%P%Q%}%*%R%p S%T%U%V%W%I%I%X%N%N%N%N%N%Y%N%N%X%N%N%X%N%N%N%",
"Z%`%S$%$C#B.5$b#y$6%N%N%Z%Z%Z%Z%Z%Z%Z%Z%Z%Z%Z%Z%Z%Z%Z%Z%Z%Z%Z%Z%"};
