/* XPM */
static char * parentFaceJoints_xpm[] = {
"32 32 419 2",
"  	c #C1C1C1",
". 	c #C4C3C4",
"+ 	c #C2C0C2",
"@ 	c #BEBEBE",
"# 	c #C2C2C2",
"$ 	c #C6C4C6",
"% 	c #ADB4AD",
"& 	c #648864",
"* 	c #537D53",
"= 	c #889C88",
"- 	c #C7C5C7",
"; 	c #CDC9CD",
"> 	c #889A88",
", 	c #005200",
"' 	c #004700",
") 	c #466F46",
"! 	c #CEC9CE",
"~ 	c #BABAC0",
"{ 	c #6969BC",
"] 	c #4F4FC1",
"^ 	c #5959CA",
"/ 	c #7D7DCC",
"( 	c #ABABC6",
"_ 	c #CAC7CA",
": 	c #95A395",
"< 	c #115E11",
"[ 	c #004E00",
"} 	c #547954",
"| 	c #CCC8CC",
"1 	c #B8B8BF",
"2 	c #2828A5",
"3 	c #0808B2",
"4 	c #2C2CBE",
"5 	c #4C4CC7",
"6 	c #6363CF",
"7 	c #6F6FD2",
"8 	c #9E9EC9",
"9 	c #CBC8CB",
"0 	c #909F90",
"a 	c #0C5A0C",
"b 	c #537853",
"c 	c #63639D",
"d 	c #030388",
"e 	c #0404A2",
"f 	c #1C1CB7",
"g 	c #4C4CC2",
"h 	c #5353C9",
"i 	c #6262CE",
"j 	c #6868D0",
"k 	c #B7B7C2",
"l 	c #C4C1CA",
"m 	c #525AA6",
"n 	c #313EA4",
"o 	c #5054C0",
"p 	c #616AB0",
"q 	c #B4B2CF",
"r 	c #C5C4C5",
"s 	c #CAC6CA",
"t 	c #C9C6C9",
"u 	c #C2C1C2",
"v 	c #2D2D76",
"w 	c #030370",
"x 	c #15158E",
"y 	c #AFAFBF",
"z 	c #8181C1",
"A 	c #4747C6",
"B 	c #4F4FC8",
"C 	c #9898C4",
"D 	c #C7C4C7",
"E 	c #BBBAC2",
"F 	c #2929A6",
"G 	c #9095BB",
"H 	c #648C64",
"I 	c #618A61",
"J 	c #BABCBA",
"K 	c #282863",
"L 	c #020257",
"M 	c #2D2D81",
"N 	c #9B9BBE",
"O 	c #2323BA",
"P 	c #2F2FBE",
"Q 	c #8989C1",
"R 	c #B4B9B4",
"S 	c #63629D",
"T 	c #1619B1",
"U 	c #313DA7",
"V 	c #6466CC",
"W 	c #0A4316",
"X 	c #245A24",
"Y 	c #B5B8B5",
"Z 	c #505073",
"` 	c #010141",
" .	c #020253",
"..	c #70709D",
"+.	c #9999B4",
"@.	c #3434A3",
"#.	c #0404AB",
"$.	c #0D0DB4",
"%.	c #A3A3BF",
"&.	c #2F7A2F",
"*.	c #131F5C",
"=.	c #0D1086",
"-.	c #125B21",
";.	c #005500",
">.	c #1B405B",
",.	c #43586F",
"'.	c #929992",
").	c #CAC8CA",
"!.	c #A6A6AD",
"~.	c #0C0C3A",
"{.	c #01013D",
"].	c #020251",
"^.	c #020266",
"/.	c #03037B",
"(.	c #03038E",
"_.	c #4242AA",
":.	c #005C00",
"<.	c #02153D",
"[.	c #021756",
"}.	c #066606",
"|.	c #016201",
"1.	c #034D26",
"2.	c #8182B9",
"3.	c #C4C2C4",
"4.	c #C8C4C8",
"5.	c #C8C5C8",
"6.	c #869D86",
"7.	c #567F56",
"8.	c #ACB3AC",
"9.	c #9F9FA7",
"0.	c #23234C",
"a.	c #010140",
"b.	c #020252",
"c.	c #58589A",
"d.	c #BABABF",
"e.	c #798E79",
"f.	c #142936",
"g.	c #02382F",
"h.	c #01521C",
"i.	c #021F72",
"j.	c #296745",
"k.	c #417C41",
"l.	c #5D875D",
"m.	c #8DA28D",
"n.	c #ABB3AB",
"o.	c #BCBEBC",
"p.	c #7171AE",
"q.	c #2424A8",
"r.	c #7C7CC1",
"s.	c #8BA08B",
"t.	c #295F31",
"u.	c #01062F",
"v.	c #03206B",
"w.	c #005F00",
"x.	c #006400",
"y.	c #006300",
"z.	c #016301",
"A.	c #136813",
"B.	c #829A82",
"C.	c #8787B9",
"D.	c #2222BA",
"E.	c #6363C6",
"F.	c #085808",
"G.	c #005A00",
"H.	c #004008",
"I.	c #010C2B",
"J.	c #3A427C",
"K.	c #4A6E4F",
"L.	c #266026",
"M.	c #085208",
"N.	c #005D00",
"O.	c #286A28",
"P.	c #BABBBA",
"Q.	c #8A8AB4",
"R.	c #1313B5",
"S.	c #4949C5",
"T.	c #BFBFC1",
"U.	c #004D00",
"V.	c #003D00",
"W.	c #204C20",
"X.	c #6A7D6A",
"Y.	c #18561F",
"Z.	c #004110",
"`.	c #718674",
" +	c #D2CCD2",
".+	c #C0BEC0",
"++	c #B6B8B6",
"@+	c #A2A9A2",
"#+	c #627962",
"$+	c #396439",
"%+	c #66806C",
"&+	c #575DAB",
"*+	c #AEADC8",
"=+	c #9494B3",
"-+	c #0D0DB0",
";+	c #3D3DC2",
">+	c #ABABC3",
",+	c #003B00",
"'+	c #395539",
")+	c #A9ABA9",
"!+	c #B1B4B1",
"~+	c #226922",
"{+	c #005000",
"]+	c #6C846C",
"^+	c #2928A6",
"/+	c #9396BE",
"(+	c #769676",
"_+	c #849E84",
":+	c #9999B1",
"<+	c #3434BE",
"[+	c #9292C5",
"}+	c #B4B7B4",
"|+	c #C0C0C0",
"1+	c #C3C3C3",
"2+	c #AAB3AA",
"3+	c #A1AEA1",
"4+	c #B7BBB7",
"5+	c #B9BDB9",
"6+	c #9EAE9E",
"7+	c #ABB5AB",
"8+	c #9F9FB2",
"9+	c #030396",
"0+	c #2E2EBB",
"a+	c #7777C6",
"b+	c #8A9D8A",
"c+	c #BDBFBD",
"d+	c #1C701C",
"e+	c #005B00",
"f+	c #026202",
"g+	c #3A5166",
"h+	c #A3A8A3",
"i+	c #A9A9B5",
"j+	c #03038C",
"k+	c #2424B8",
"l+	c #5C5CC7",
"m+	c #5B825B",
"n+	c #205F20",
"o+	c #005600",
"p+	c #7F80B7",
"q+	c #ADADB6",
"r+	c #030383",
"s+	c #1515B6",
"t+	c #4949C6",
"u+	c #B9B9C2",
"v+	c #BBBCBB",
"w+	c #899989",
"x+	c #021F71",
"y+	c #508450",
"z+	c #6A8E6A",
"A+	c #B9BCB9",
"B+	c #B6B6BB",
"C+	c #03037A",
"D+	c #0909B3",
"E+	c #4444C5",
"F+	c #A2A2C4",
"G+	c #A3AFA3",
"H+	c #327B32",
"I+	c #3F7D40",
"J+	c #203066",
"K+	c #0404AE",
"L+	c #3F3FC3",
"M+	c #8C8CC7",
"N+	c #92A192",
"O+	c #0F5D0F",
"P+	c #004C00",
"Q+	c #4F724F",
"R+	c #CCC9CC",
"S+	c #C0C1C0",
"T+	c #4D7B4D",
"U+	c #39417B",
"V+	c #075207",
"W+	c #005300",
"X+	c #2D4E43",
"Y+	c #0505A5",
"Z+	c #3939C2",
"`+	c #7575C9",
" @	c #C3C0C9",
".@	c #585DAC",
"+@	c #333FA5",
"@@	c #6B71BA",
"#@	c #B8B3D2",
"$@	c #347234",
"%@	c #6F8572",
"&@	c #C6C5C6",
"*@	c #BFBFBF",
"=@	c #B1B5B1",
"-@	c #8F9B8F",
";@	c #8B9C8B",
">@	c #617F61",
",@	c #292E69",
"'@	c #06059C",
")@	c #3131BF",
"!@	c #5C5CCB",
"~@	c #C0C0C1",
"{@	c #B7B5BE",
"]@	c #2C2AA9",
"^@	c #7688A1",
"/@	c #005400",
"(@	c #BABABA",
"_@	c #457C45",
":@	c #0F0F5F",
"<@	c #030393",
"[@	c #2929BD",
"}@	c #5454CA",
"|@	c #B0B0C3",
"1@	c #284562",
"2@	c #6868CF",
"3@	c #4D7E59",
"4@	c #2B682B",
"5@	c #687E68",
"6@	c #266B26",
"7@	c #005100",
"8@	c #738B73",
"9@	c #18185D",
"0@	c #07078A",
"a@	c #1E1EB9",
"b@	c #4E4EC8",
"c@	c #9E9DC9",
"d@	c #02174B",
"e@	c #030C7C",
"f@	c #065D15",
"g@	c #1C4D5C",
"h@	c #9294BE",
"i@	c #BEBFBE",
"j@	c #196319",
"k@	c #004F00",
"l@	c #7D937D",
"m@	c #1E1E56",
"n@	c #040478",
"o@	c #0707B2",
"p@	c #3C3CC2",
"q@	c #8280CB",
"r@	c #0B1546",
"s@	c #021755",
"t@	c #026002",
"u@	c #006700",
"v@	c #045A27",
"w@	c #315E69",
"x@	c #538653",
"y@	c #99AA99",
"z@	c #BBBEBB",
"A@	c #357135",
"B@	c #166116",
"C@	c #849884",
"D@	c #1C1E48",
"E@	c #020261",
"F@	c #030399",
"G@	c #1D1DB9",
"H@	c #5251C4",
"I@	c #142E37",
"J@	c #012D2E",
"K@	c #033D1E",
"L@	c #051A75",
"M@	c #045320",
"N@	c #146814",
"O@	c #7F987F",
"P@	c #AEB7AE",
"Q@	c #A6B3A6",
"R@	c #212442",
"S@	c #02024B",
"T@	c #0404A5",
"U@	c #1D1DB8",
"V@	c #B8B8C1",
"W@	c #004D07",
"X@	c #222C8A",
"Y@	c #276027",
"Z@	c #015201",
"`@	c #076107",
" #	c #266926",
".#	c #577857",
"+#	c #BBBBBB",
"@#	c #25293F",
"##	c #010138",
"$#	c #02025C",
"%#	c #9796C1",
"&#	c #1B3F23",
"*#	c #14173D",
"=#	c #615EA3",
"-#	c #B9B7BE",
";#	c #B1B3B1",
">#	c #959E95",
",#	c #295829",
"'#	c #798B79",
")#	c #2D304D",
"!#	c #0E0E77",
"~#	c #2F2FAD",
"{#	c #5050C5",
"]#	c #4E4EBE",
"^#	c #686BB2",
"/#	c #1E5D26",
"(#	c #004010",
"_#	c #687F6C",
":#	c #C8C6C8",
"<#	c #C5C2C5",
"[#	c #B9BAB9",
"}#	c #C1C0C1",
"|#	c #AAB5AA",
"1#	c #7E9C7E",
"2#	c #9CAC9C",
"3#	c #CCC3D3",
"4#	c #1F1F9D",
"5#	c #31555C",
"6#	c #BDBBBD",
"7#	c #CFCCCF",
"8#	c #A9AFA9",
"9#	c #206720",
"0#	c #4C854C",
"a#	c #3D4F77",
"b#	c #1518B1",
"c#	c #323BA7",
"d#	c #6566CC",
"e#	c #C4C4C4",
"f#	c #A6AEA6",
"g#	c #B4B8B4",
"h#	c #006000",
"i#	c #030C7D",
"j#	c #015911",
"k#	c #005E00",
"l#	c #184058",
"      . + @ #                                                   ",
"    $ % & * = -                                                 ",
"    ; > , ' ) !                             ~ { ] ^ / (         ",
"    _ : < [ } |                           1 2 3 4 5 6 7 8       ",
"    9 0 a [ b |                           c d e f g h i j k     ",
"    l m n o p q r s t u                   v w x y   z A B C     ",
"D E F 3 4 5 6 7 G H I J .                 K L M     N O P Q     ",
"R S d e T U h i V W X Y -                 Z `  ...+.@.#.$.%.    ",
"&.*.w =.-.;.>.A B ,.'.).                  !.~.{.].^./.(._.      ",
":.<.L [.}.|.1.O P 2.! 3.4.5.. 6.7.8.        9.0.a.b.^.c.d.      ",
"e.f.`  .g.h.i.#.$.j.k.l.m.n.o., ' )             p.q.r.          ",
"s.t.u.{.].^./.(.v.w.x.y.z.A.B.< [ }             C.D.E.          ",
"F.G.H.I.a.b.^.J.K.L.M., N.O.P.a [ b             Q.R.S.T.        ",
"U.V.W.X.Y.Z.`. +.+++@+#+$+%+&+n o p *+          =+-+;+>+        ",
",+'+)+!+~+{+]+.         1 ^+3 4 5 6 7 /+(+_+    :+e <+[+        ",
"}+|+1+|+2+3+4+  5+6+7+R S d e T U h i V W X |+  8+9+0+a+        ",
"    $ % & * b+c+d+e+f+&.*.w =.-.;.>.A B g+h+    i+j+k+l+        ",
"    ; > , ' ) s m+n+o+:.<.L [.}.|.1.O P p+#     q+r+s+t+u+      ",
"    _ : < [ } _   |+v+w+f.`  .g.h.x+#.$.j.y+z+A+B+C+D+E+F+      ",
"    9 0 a [ b t       G+t.u.{.].^./.(.v.w.x.y.H+I+J+K+L+M+      ",
"    9 N+O+P+Q+R+  S+T+F.G.H.I.a.b.^.U+K.L.V+, N.W+X+Y+Z+`+      ",
"D .  @.@+@o @@#@5+$@U.U.V.W.X.Y.Z.%@&@  *@=@-@;@>@,@'@)@!@~@    ",
"R {@]@3 4 5 6 7 ^@/@U.,+'+(@  _@{+]+              :@<@[@}@|@    ",
"&.1@d e T U h i 2@3@4@5@|+    6@7@8@              9@0@a@b@c@    ",
":.d@w e@f@|.g@A B h@|+      i@j@k@l@            # m@n@o@p@q@    ",
"e.r@L s@t@u@v@O P w@x@y@z@|+|+A@B@C@            # D@E@F@G@H@    ",
"s.I@`  .J@K@L@#.$.M@x.y.z.N@O@P@Q@i@            ).R@S@C+T@U@V@  ",
"F.W@u.{.].^./.(.X@Y@V+Z@`@ #.#+#                9 @###$#r+T@%#s ",
"U.V.&#*#a.b.^.=#-#;#>##+$+,#'#1+        u 5.D . _ )#!#~#{#]#^#H ",
",+'+)+!+/#(#_#9 . :#t <#.+[#}##   u   |#1#2#R .+3#4#3 4 5 6 7 5#",
"5@6#7#8#9#7@8@t       # 1+. #     4.|#d+e+f+&.0#a#d e b#c#h i d#",
"e#r - f#j@k@l@t                   r g#m+n+o+:.h#d@w i#j#k#l#A B "};
