/* XPM */
static char * jointToVertex_xpm[] = {
"32 32 609 2",
"  	c None",
". 	c #C1C1C1",
"+ 	c #C0C0C1",
"@ 	c #BFC0BF",
"# 	c #A1BEA2",
"$ 	c #85BD86",
"% 	c #AFC4AE",
"& 	c #C1C0C1",
"* 	c #C0BFBE",
"= 	c #85A48F",
"- 	c #3DBB4F",
"; 	c #49908F",
"> 	c #56C06A",
", 	c #ACC5AC",
"' 	c #C1C1C0",
") 	c #C0C0C0",
"! 	c #A9ACB1",
"~ 	c #4B8272",
"{ 	c #54A099",
"] 	c #7477F6",
"^ 	c #5D82BC",
"/ 	c #6DCE74",
"( 	c #BEC1BE",
"_ 	c #BAC1BB",
": 	c #B9BFB8",
"< 	c #C1C0BF",
"[ 	c #BEBEBD",
"} 	c #6B8480",
"| 	c #44A45D",
"1 	c #6881CF",
"2 	c #9197FE",
"3 	c #818EEB",
"4 	c #50B66C",
"5 	c #B3C2B3",
"6 	c #BEBFBF",
"7 	c #B6C0B6",
"8 	c #B3C1B3",
"9 	c #C1C1BF",
"0 	c #B2BFB2",
"a 	c #5EB973",
"b 	c #52AA67",
"c 	c #A0B0A7",
"d 	c #C1BFC0",
"e 	c #C0C1C1",
"f 	c #C0BFC0",
"g 	c #BEC0BF",
"h 	c #B8BCBC",
"i 	c #A0A8AA",
"j 	c #397248",
"k 	c #289734",
"l 	c #3BA165",
"m 	c #51B27F",
"n 	c #45B072",
"o 	c #30A93E",
"p 	c #9EB6A1",
"q 	c #BEBFBE",
"r 	c #829B90",
"s 	c #479E5D",
"t 	c #52A37A",
"u 	c #A2C4A6",
"v 	c #C1C0C0",
"w 	c #82B794",
"x 	c #6A8AD3",
"y 	c #6992C4",
"z 	c #609187",
"A 	c #A4AFB8",
"B 	c #95A7B3",
"C 	c #7595AA",
"D 	c #5481A0",
"E 	c #417193",
"F 	c #30556E",
"G 	c #234B65",
"H 	c #155E52",
"I 	c #18465D",
"J 	c #204D62",
"K 	c #1F576A",
"L 	c #1C705D",
"M 	c #507E99",
"N 	c #648596",
"O 	c #40627A",
"P 	c #599A9F",
"Q 	c #7A86F0",
"R 	c #6FB691",
"S 	c #BDC2BB",
"T 	c #B9BDB9",
"U 	c #4FA664",
"V 	c #5A86AF",
"W 	c #6187C7",
"X 	c #246B86",
"Y 	c #2C6893",
"Z 	c #2D6994",
"` 	c #2A6893",
" .	c #296892",
"..	c #296792",
"+.	c #2878B0",
"@.	c #1E7DB8",
"#.	c #166CAD",
"$.	c #2072B5",
"%.	c #1B74B4",
"&.	c #2482C0",
"*.	c #2B7EB6",
"=.	c #185D8C",
"-.	c #155D7A",
";.	c #376E9C",
">.	c #5897A3",
",.	c #4CA564",
"'.	c #B7C1B8",
").	c #BFC1BF",
"!.	c #789981",
"~.	c #165E5B",
"{.	c #15687F",
"].	c #1C5E9B",
"^.	c #1A6788",
"/.	c #296793",
"(.	c #286794",
"_.	c #296692",
":.	c #296997",
"<.	c #2A7DB9",
"[.	c #2A89CA",
"}.	c #2B87CA",
"|.	c #2886C7",
"1.	c #298AC8",
"2.	c #2987CA",
"3.	c #2B89CA",
"4.	c #2983C3",
"5.	c #216CA8",
"6.	c #16677F",
"7.	c #13596C",
"8.	c #629080",
"9.	c #BCBEBF",
"0.	c #698EA5",
"a.	c #145A7E",
"b.	c #116385",
"c.	c #1A599B",
"d.	c #146285",
"e.	c #276790",
"f.	c #296893",
"g.	c #296C9D",
"h.	c #2B82BF",
"i.	c #2B88CA",
"j.	c #2C8ACB",
"k.	c #2C89CB",
"l.	c #2C89CA",
"m.	c #2C88C9",
"n.	c #247CB5",
"o.	c #216695",
"p.	c #386E92",
"q.	c #8FA1B0",
"r.	c #BEC1C0",
"s.	c #849CAF",
"t.	c #306C96",
"u.	c #266690",
"v.	c #1E688A",
"w.	c #1A688C",
"x.	c #23688D",
"y.	c #286893",
"z.	c #2A6FA0",
"A.	c #2A82C1",
"B.	c #2B89CB",
"C.	c #2D8ACA",
"D.	c #2D89CA",
"E.	c #2B8ACA",
"F.	c #2D8ACB",
"G.	c #2C8ACC",
"H.	c #2D89CC",
"I.	c #2B87C7",
"J.	c #2D79AE",
"K.	c #356F97",
"L.	c #BFC1C0",
"M.	c #B7BEB7",
"N.	c #B8BDB7",
"O.	c #BDBEBE",
"P.	c #9AAAB5",
"Q.	c #2B6894",
"R.	c #2A6794",
"S.	c #286892",
"T.	c #286894",
"U.	c #2B72A5",
"V.	c #2C87C5",
"W.	c #2C8ACA",
"X.	c #2B8ACB",
"Y.	c #2B8ACC",
"Z.	c #2D8ACC",
"`.	c #2D89CB",
" +	c #2C89CD",
".+	c #2C83C1",
"++	c #9EC39E",
"@+	c #4CBA5B",
"#+	c #3D8B4F",
"$+	c #5B7F76",
"%+	c #417595",
"&+	c #2A6894",
"*+	c #296994",
"=+	c #2B76AC",
"-+	c #2C89C9",
";+	c #2D8BCB",
">+	c #2C8BCC",
",+	c #2E8BCD",
"'+	c #2D8ACD",
")+	c #2E8ACB",
"!+	c #2E8ACC",
"~+	c #2E8CCC",
"{+	c #B3C0B4",
"]+	c #64C284",
"^+	c #6581D4",
"/+	c #42A56A",
"(+	c #2C6B5F",
"_+	c #1D6D60",
":+	c #276F6C",
"<+	c #26687C",
"[+	c #296791",
"}+	c #2A6895",
"|+	c #2B7AB1",
"1+	c #2E8CCB",
"2+	c #2D8BCC",
"3+	c #2D8BCD",
"4+	c #2D8CCC",
"5+	c #2E8ACD",
"6+	c #2E8BCC",
"7+	c #C0C1C0",
"8+	c #90BC93",
"9+	c #6190B9",
"0+	c #7A7CF7",
"a+	c #56A286",
"b+	c #32C33B",
"c+	c #34C140",
"d+	c #2E7B49",
"e+	c #235A53",
"f+	c #1D5E6B",
"g+	c #2C7DB6",
"h+	c #2D8CCE",
"i+	c #2F8CCC",
"j+	c #2E8CCD",
"k+	c #2E8CCE",
"l+	c #2D8DCD",
"m+	c #2F8CCE",
"n+	c #2F8DCE",
"o+	c #2E8BCE",
"p+	c #2F8CCD",
"q+	c #82B684",
"r+	c #3E9A6D",
"s+	c #518C97",
"t+	c #51CF68",
"u+	c #5387AE",
"v+	c #547FAE",
"w+	c #34BD44",
"x+	c #365977",
"y+	c #224479",
"z+	c #2C7FB9",
"A+	c #2F8BCE",
"B+	c #2E8DCE",
"C+	c #2E8DCD",
"D+	c #308CCD",
"E+	c #308DCF",
"F+	c #308DCE",
"G+	c #308CCE",
"H+	c #568D5E",
"I+	c #3EB54D",
"J+	c #5EA8A7",
"K+	c #7375F8",
"L+	c #787FF9",
"M+	c #55A890",
"N+	c #379F53",
"O+	c #2F4790",
"P+	c #206A76",
"Q+	c #2E8AC8",
"R+	c #2F8CCF",
"S+	c #2F8DCF",
"T+	c #2F8ECF",
"U+	c #318DCF",
"V+	c #2F8DD0",
"W+	c #318ED0",
"X+	c #2F8ED0",
"Y+	c #308ECF",
"Z+	c #95B694",
"`+	c #39C04A",
" @	c #657AD7",
".@	c #7174F7",
"+@	c #9195FF",
"@@	c #8095E2",
"#@	c #3DC450",
"$@	c #26626C",
"%@	c #1B784D",
"&@	c #2D89C4",
"*@	c #318ECF",
"=@	c #308FD0",
"-@	c #318FD0",
";@	c #318ED1",
">@	c #328FD1",
",@	c #308ED0",
"'@	c #318FD1",
")@	c #308DD0",
"!@	c #C1C2C0",
"~@	c #83B683",
"{@	c #2EA646",
"]@	c #5766C8",
"^@	c #646CDE",
"/@	c #707BEE",
"(@	c #6B79D9",
"_@	c #32A654",
":@	c #1E9731",
"<@	c #187B71",
"[@	c #2F8BCB",
"}@	c #328ED1",
"|@	c #328FD0",
"1@	c #3290D2",
"2@	c #3290D1",
"3@	c #3190D0",
"4@	c #328FD2",
"5@	c #338FD2",
"6@	c #3290D0",
"7@	c #3390D2",
"8@	c #C0BFC1",
"9@	c #759895",
"0@	c #2EA93A",
"a@	c #34BC49",
"b@	c #3AB458",
"c@	c #41BB5F",
"d@	c #46C15D",
"e@	c #2EB03A",
"f@	c #137045",
"g@	c #2076B0",
"h@	c #318FCF",
"i@	c #3391D3",
"j@	c #3490D3",
"k@	c #3390D3",
"l@	c #3390D1",
"m@	c #3391D1",
"n@	c #3491D2",
"o@	c #3491D3",
"p@	c #3391D2",
"q@	c #3491D1",
"r@	c #3490D2",
"s@	c #BFC1C1",
"t@	c #AFB5B2",
"u@	c #497690",
"v@	c #276668",
"w@	c #1C683C",
"x@	c #265D46",
"y@	c #235151",
"z@	c #234F65",
"A@	c #1A5C40",
"B@	c #1B6F83",
"C@	c #287EB9",
"D@	c #2C83C2",
"E@	c #308BCB",
"F@	c #338FD1",
"G@	c #3392D3",
"H@	c #3492D4",
"I@	c #3392D4",
"J@	c #3592D3",
"K@	c #3691D4",
"L@	c #3593D5",
"M@	c #3592D4",
"N@	c #3491D4",
"O@	c #3693D3",
"P@	c #ADBAB2",
"Q@	c #55AE65",
"R@	c #317352",
"S@	c #12506D",
"T@	c #12576E",
"U@	c #22607A",
"V@	c #245C72",
"W@	c #266995",
"X@	c #2772A7",
"Y@	c #26739E",
"Z@	c #297DB6",
"`@	c #2B7FBA",
" #	c #297FBB",
".#	c #2D85C4",
"+#	c #338FD0",
"@#	c #3593D4",
"##	c #3693D5",
"$#	c #3693D4",
"%#	c #3692D4",
"&#	c #3794D5",
"*#	c #3693D6",
"=#	c #3793D4",
"-#	c #3694D5",
";#	c #3694D4",
">#	c #3793D6",
",#	c #3794D6",
"'#	c #3692D5",
")#	c #6FBC86",
"!#	c #658ACD",
"~#	c #3F9A74",
"{#	c #115C6C",
"]#	c #185887",
"^#	c #1C6082",
"/#	c #286388",
"(#	c #2879B2",
"_#	c #2A7EB9",
":#	c #2A7DBA",
"<#	c #297FBA",
"[#	c #297EBA",
"}#	c #2A80BA",
"|#	c #2A82BF",
"1#	c #318AC8",
"2#	c #3591D2",
"3#	c #3695D6",
"4#	c #3795D6",
"5#	c #3794D7",
"6#	c #3895D8",
"7#	c #3795D4",
"8#	c #3793D3",
"9#	c #3792D2",
"0#	c #3894D6",
"a#	c #3895D7",
"b#	c #3995D6",
"c#	c #3996D6",
"d#	c #3895D6",
"e#	c #4D9B7E",
"f#	c #6D77E6",
"g#	c #567CB7",
"h#	c #185881",
"i#	c #19528E",
"j#	c #1D5786",
"k#	c #2A638C",
"l#	c #2A7BB7",
"m#	c #297DB9",
"n#	c #287FBA",
"o#	c #2A7EBB",
"p#	c #2A80B9",
"q#	c #2980BB",
"r#	c #2C82C0",
"s#	c #348FCF",
"t#	c #3796D7",
"u#	c #3996D9",
"v#	c #3380B3",
"w#	c #2B6E8F",
"x#	c #2E728F",
"y#	c #2D6A8C",
"z#	c #2D739E",
"A#	c #3084B0",
"B#	c #3A96D6",
"C#	c #3A98D8",
"D#	c #3896D7",
"E#	c #328BC8",
"F#	c #76B17D",
"G#	c #53A76E",
"H#	c #44876E",
"I#	c #185B77",
"J#	c #175976",
"K#	c #256082",
"L#	c #296891",
"M#	c #297FB9",
"N#	c #287DBB",
"O#	c #287EBA",
"P#	c #297DBA",
"Q#	c #287DB9",
"R#	c #297EB9",
"S#	c #287EBB",
"T#	c #2A7EBA",
"U#	c #2980BD",
"V#	c #2E85C3",
"W#	c #3793D2",
"X#	c #3A92CF",
"Y#	c #226663",
"Z#	c #1E6938",
"`#	c #28803A",
" $	c #298C35",
".$	c #1E7A2E",
"+$	c #18733B",
"@$	c #3385B4",
"#$	c #3086C2",
"$$	c #2C7DB7",
"%$	c #BABDBA",
"&$	c #A8B0B4",
"*$	c #37688C",
"=$	c #2B6186",
"-$	c #2B6187",
";$	c #2A6996",
">$	c #287DBA",
",$	c #287FB9",
"'$	c #2A80BB",
")$	c #2B81BC",
"!$	c #307AAF",
"~$	c #22426E",
"{$	c #2C3E7C",
"]$	c #3E4B81",
"^$	c #2A913C",
"/$	c #30C33C",
"($	c #2DB043",
"_$	c #2C6A93",
":$	c #2E7DBA",
"<$	c #2B7EB7",
"[$	c #BDBFBE",
"}$	c #507996",
"|$	c #2A6287",
"1$	c #2A6187",
"2$	c #2A6C9C",
"3$	c #297DBB",
"4$	c #297EBB",
"5$	c #2974A7",
"6$	c #1D5C5B",
"7$	c #263A73",
"8$	c #3D4790",
"9$	c #3C6B6F",
"0$	c #43D153",
"a$	c #5986B8",
"b$	c #489B7D",
"c$	c #40BB5C",
"d$	c #2A7193",
"e$	c #C0C0BF",
"f$	c #67879E",
"g$	c #2972A6",
"h$	c #2A7AB4",
"i$	c #255B7E",
"j$	c #1C633B",
"k$	c #344579",
"l$	c #4B5990",
"m$	c #3DB74B",
"n$	c #5EB39E",
"o$	c #8E91FF",
"p$	c #7F88EC",
"q$	c #45B16A",
"r$	c #2DA457",
"s$	c #297DA6",
"t$	c #2A7DB5",
"u$	c #90A1AE",
"v$	c #2C6388",
"w$	c #2A6188",
"x$	c #2875AC",
"y$	c #297CBA",
"z$	c #287EB8",
"A$	c #2979B0",
"B$	c #26506F",
"C$	c #1F6536",
"D$	c #345A65",
"E$	c #386D5F",
"F$	c #3ACC4D",
"G$	c #6F85E4",
"H$	c #A2A1FF",
"I$	c #9899FF",
"J$	c #5F81C3",
"K$	c #31CB3D",
"L$	c #278C85",
"M$	c #2B7DB5",
"N$	c #A8B1B7",
"O$	c #34668A",
"P$	c #2A628A",
"Q$	c #2878B2",
"R$	c #277EB8",
"S$	c #277DBA",
"T$	c #287DB8",
"U$	c #266795",
"V$	c #24544F",
"W$	c #2C8639",
"X$	c #299E32",
"Y$	c #3F9480",
"Z$	c #6A6DEA",
"`$	c #7D7EF9",
" %	c #8183FE",
".%	c #666DE7",
"+%	c #32AC4D",
"@%	c #279C70",
"#%	c #2B7DB7",
"$%	c #BABBBE",
"%%	c #45728F",
"&%	c #2B638C",
"*%	c #2979B4",
"=%	c #277EB9",
"-%	c #277CB8",
";%	c #277DB8",
">%	c #277DB9",
",%	c #2978B0",
"'%	c #27638C",
")%	c #266C4F",
"!%	c #25A62B",
"~%	c #3D8E78",
"{%	c #516CBA",
"]%	c #5C6BD0",
"^%	c #5A6DCE",
"/%	c #4D7DA6",
"(%	c #28AF3F",
"_%	c #298E8F",
":%	c #C0C2C0",
"<%	c #BFBEBF",
"[%	c #5E7C90",
"}%	c #28638D",
"|%	c #277BB5",
"1%	c #287CBA",
"2%	c #297CB7",
"3%	c #26739F",
"4%	c #1B7D50",
"5%	c #2AB14C",
"6%	c #39CB50",
"7%	c #43CF5A",
"8%	c #43CC59",
"9%	c #38CF52",
"0%	c #2BA27D",
"a%	c #2B7DB4",
"b%	c #2B7CB5",
"c%	c #99AB9A",
"d%	c #54696C",
"e%	c #184E6A",
"f%	c #1C77AB",
"g%	c #277CB9",
"h%	c #297EB8",
"i%	c #297CB8",
"j%	c #287CB5",
"k%	c #297FB5",
"l%	c #2981A6",
"m%	c #298697",
"n%	c #2B85A1",
"o%	c #2B80AF",
"p%	c #2A7CB4",
"q%	c #2A7CB6",
"r%	c #2A7CB5",
". . . . . . . . . . . . . . . . . . . + @ # $ % & . . . . . . . ",
". . . . . . . . . . . . . . . . . . . * = - ; > , ' . . . . . . ",
". . . . . . . . . . . . . . . . . . ) ! ~ { ] ^ / ( . . . . . . ",
". . . . . . . . . + _ : < . . . . . [ } | 1 2 3 4 5 ' 6 7 8 9 . ",
". . . . . . . . . 0 a b c d e f g h i j k l m n o p q r s t u v ",
". . . . . . . . @ w x y z A B C D E F G H I J K L M N O P Q R S ",
". . . . . . . . T U V W X Y Z `  .....+.@.#.$.%.&.*.=.-.;.>.,.'.",
". . . . . . . . ).!.~.{.].^./.(._.:.<.[.}.|.1.2.3.3.4.5.6.7.8.@ ",
". . . . . . . + 9.0.a.b.c.d.e.f.g.h.3.i.j.3.j.3.k.l.3.m.n.o.p.q.",
". . . . . . . r.s.t.u.v.w.x.y.z.A.B.C.C.k.D.l.E.l.F.k.G.H.I.J.K.",
". . . L.M.N.O.P.K.Q.R./.S.T.U.V.W.X.k.G.X.Y.H.G.Y.G.Z.H.`. +`..+",
". . v ++@+#+$+%+&+*+f.` y.=+-+H.k.Z.G.Z.;+>+>+ +G.,+'+)+!+'+!+~+",
". ' {+]+^+/+(+_+:+<+[+}+|+F.1+2+2+>+>+3+Z.2+4+3+!+5+!+,+Z.6+2+,+",
". 7+8+9+0+a+b+c+d+e+f+g+5+,+6+h+i+3+~+j+4+,+3+k+l+m+h+m+n+o+p+p+",
". 7+q+r+s+t+u+v+w+x+y+z+A+j+,+B+p+p+m+m+m+C+B+n+D+m+p+k+E+F+E+G+",
". + N.H+I+J+K+L+M+N+O+P+Q+R+n+F+E+S+S+n+F+T+U+V+W+E+X+Y+E+Y+Y+T+",
". . & Z+`+ @.@+@@@#@$@%@&@E+T+E+*@W+*@=@-@U+*@;@;@-@=@>@,@-@'@)@",
". . !@~@{@]@^@/@(@_@:@<@[@'@}@>@W+|@'@1@>@2@3@2@>@2@>@4@5@1@6@7@",
". . 8@9@0@a@b@c@d@e@f@g@h@'@5@-@>@2@i@j@k@l@k@m@n@o@p@p@q@k@r@k@",
"s@N.t@u@v@w@x@y@z@A@B@C@D@E@F@n@j@G@G@H@I@J@H@K@L@M@J@M@N@O@M@G@",
"P@Q@R@S@T@U@V@W@X@Y@Z@`@ # #.#+#@###$#%###&#*#=#-#;#>#,###&#;#'#",
")#!#~#{#]#^#/#(#_#:#<#[#[#}# #|#1#2#3#4#5#6#,#7#8#9#0#a#b#c#d#0#",
"e#f#g#h#i#j#k#l#m#n#<#<#o#p#<#q#}#r#s#t#u#b#v#w#x#y#z#A#B#C#D#E#",
"F#G#H#I#J#K#L#C@M#N#O#P#Q#R#S#[#T#T#U#V#W#X#Y#Z#`# $.$+$@$0##$$$",
"@ %$&$*$=$-$;$C@C@>$O#P#>$R#R#T#,$T#<#'$)$!$~${$]$^$/$($_$:$g+<$",
". . [$}$|$1$2$P#R#C@,$Q#C@R#3$T#4$4$T#<#5$6$7$8$9$0$a$b$c$d$*.*.",
". . e$f$-$=$g$Q#P#R#Q#m#[#[#C@Q#O#n#S#h$i$j$k$l$m$n$o$p$q$r$s$t$",
". . ' u$v$w$x$P#m#[#y$z$C@m#C@<#C@[#C@A$B$C$D$E$F$G$H$I$J$K$L$M$",
". . ) N$O$P$Q$Q#R$C@O#Q#S$C@R#O#>$[#[#T$U$V$W$X$Y$Z$`$ %.%+%@%#%",
". . . $%%%&%*%=%-%>$R#T$;%=%>%Q#>$>$=%n#,%'%)%!%~%{%]%^%/%(%_%#%",
". . :%<%[%}%|%-%T$T$Q#C@1%C@C@O#>$z$T$P#Q#2%3%4%5%6%7%8%9%0%a%b%",
". . . c%d%e%f%n.>%C@g%C@g%h%>$i%m#z$Q#P#>$R#>$j%k%l%m%n%o%p%q%r%"};
