/* XPM */
static char * jointOrient_xpm[] = {
"32 32 155 2",
"  	c None",
". 	c #3F93DB",
"+ 	c #429CE8",
"@ 	c #429AE7",
"# 	c #4198E6",
"$ 	c #4196E5",
"% 	c #4094E4",
"& 	c #3F92E2",
"* 	c #3E91E0",
"= 	c #3D8DDE",
"- 	c #3C8BDD",
"; 	c #3B88DB",
"> 	c #3986D9",
", 	c #3883D8",
"' 	c #3680D6",
") 	c #357DD4",
"! 	c #347BD1",
"~ 	c #3378D0",
"{ 	c #3275CE",
"] 	c #3072CD",
"^ 	c #2E70CA",
"/ 	c #2E6CC8",
"( 	c #2C6AC6",
"_ 	c #2B67C4",
": 	c #2964C2",
"< 	c #2963C1",
"[ 	c #285FBF",
"} 	c #275DBE",
"| 	c #265BBD",
"1 	c #2559BA",
"2 	c #2457B9",
"3 	c #2456B8",
"4 	c #204FAC",
"5 	c #439DE9",
"6 	c #4D4D4D",
"7 	c #47A6FA",
"8 	c #46A3F8",
"9 	c #45A1F7",
"0 	c #449EF6",
"a 	c #439CF4",
"b 	c #429AF2",
"c 	c #4097F0",
"d 	c #3F94EE",
"e 	c #3E91EC",
"f 	c #3D8FEA",
"g 	c #3B8BE8",
"h 	c #3989E6",
"i 	c #3985E4",
"j 	c #3782E2",
"k 	c #367FDF",
"l 	c #347CDD",
"m 	c #3378DB",
"n 	c #3276D9",
"o 	c #3072D7",
"p 	c #2F70D5",
"q 	c #2E6DD3",
"r 	c #2D6AD1",
"s 	c #2B67D0",
"t 	c #2B65CD",
"u 	c #2963CC",
"v 	c #2861CA",
"w 	c #FF3A3A",
"x 	c #2354B7",
"y 	c #47A5FA",
"z 	c #FFFFFF",
"A 	c #3378DC",
"B 	c #3275D9",
"C 	c #3073D7",
"D 	c #2C6AD1",
"E 	c #2C68D0",
"F 	c #2A65CE",
"G 	c #2962CC",
"H 	c #2860CA",
"I 	c #3478CF",
"J 	c #367DD7",
"K 	c #357BD2",
"L 	c #3173C6",
"M 	c #5C5C5C",
"N 	c #E8E7E7",
"O 	c #3071C1",
"P 	c #C1C1C1",
"Q 	c #B4B4B4",
"R 	c #909090",
"S 	c #303030",
"T 	c #002F00",
"U 	c #001F00",
"V 	c #6C6C6C",
"W 	c #5D5D5D",
"X 	c #272727",
"Y 	c #3B3B3B",
"Z 	c #686868",
"` 	c #BCBCBC",
" .	c #00BF00",
"..	c #007F00",
"+.	c #606060",
"@.	c #444444",
"#.	c #000000",
"$.	c #242424",
"%.	c #B8B8B8",
"&.	c #595959",
"*.	c #A8A8A8",
"=.	c #9A9A9A",
"-.	c #767676",
";.	c #1E1E1E",
">.	c #B6B6B6",
",.	c #171717",
"'.	c #009F00",
").	c #484848",
"!.	c #1B1B1B",
"~.	c #2D2D2D",
"{.	c #888888",
"].	c #020202",
"^.	c #9D9D9D",
"/.	c #393939",
"(.	c #4F4F4F",
"_.	c #A6A6A6",
":.	c #050505",
"<.	c #0E0E0E",
"[.	c #B3B3B3",
"}.	c #727272",
"|.	c #9C9C9C",
"1.	c #2B2B2B",
"2.	c #BFBFBF",
"3.	c #181818",
"4.	c #3F0000",
"5.	c #2F0000",
"6.	c #3C3C3C",
"7.	c #848484",
"8.	c #BABABA",
"9.	c #00000F",
"0.	c #00008F",
"a.	c #0000FF",
"b.	c #FF0000",
"c.	c #CF0000",
"d.	c #AF0000",
"e.	c #7F0000",
"f.	c #4F0000",
"g.	c #1F0000",
"h.	c #00005F",
"i.	c #0000EF",
"j.	c #00007F",
"k.	c #5F0000",
"l.	c #8F0000",
"m.	c #BF0000",
"n.	c #EF0000",
"o.	c #9F0000",
"p.	c #00002F",
"q.	c #0000BF",
"r.	c #0000DF",
"s.	c #545454",
"t.	c #0C0C0C",
"u.	c #0F0000",
"v.	c #0000AF",
"w.	c #00006F",
"x.	c #00009F",
". + @ # $ % & * = - ; > , ' ) ! ~ { ] ^ / ( _ : < [ } | 1 2 3 4 ",
"5 6 6 7 8 9 0 a b c d e f g h i j k l m n o p q r s t u v w w x ",
"5 6 6 y z z z z z z z z z z z z z k l A B C p q D E F G H w w x ",
"I J K K K K K K K K K K K K K K K K K K K K K K K K K K K K J I ",
"L M M M M M M M M M M M M M M M M M M M M M M M M M M M M M N L ",
"O M P P P P P P P P P P Q R R Q P P P P P P P P P P P P P P N O ",
"O M P P P P P P P P P P S T U V P W X X X X X X Y Z ` P P P N O ",
"O M P P P P P P P P P P S  ...+.P @.#.#.#.#.#.#.#.#.$.%.P P N O ",
"O M P P P P P P P P P P S  ...+.P @.#.#.#.#.#.#.#.#.#.&.P P N O ",
"O M P P P P P P P P P P S  ...+.P *.=.=.=.=.=.=.-.#.#.;.P P N O ",
"O M P P P P P P P P P P S  ...+.P P P P P P P P >.#.#.,.P P N O ",
"O M P P P P P P P P P P S  ...+.P P P P P P P P >.#.#.,.P P N O ",
"O M P P P P P P P P P P S  ...+.P P P P P P P P >.#.#.,.P P N O ",
"O M P P P P P P P P P P S  ...+.P P P P P P P P >.#.#.,.P P N O ",
"O M P P P P P P P P P P S  ...+.P P P P P P P P >.#.#.,.P P N O ",
"O M P P P P P P P P P P S  .'.).P P P P P P ` !.#.#.#.#.#.~.N O ",
"O M P P P P P P P P P P S  . .S P P P P P P P {.#.#.#.#.].^.N O ",
"O M P P P P P P P P P P S  . .S P P P P P P P P /.#.#.#.(.P N O ",
"O M P P P P P P P P P P S  . .S P P P P P P P P _.:.#.<.[.P N O ",
"O M P P P P P P P P P P S  . .S P P P P P P P P P &.#.}.P P N O ",
"O M P P P P P P P P P P S  . .$.|.P P P P P P P P [.1.2.P P N O ",
"O M P P P P P P P P P *.3.#.#.4.5.#.$.6.+.7.|.P P P 8.P P P N O ",
"O M P P P P P P P Q +.9.0.a.#.b.b.b.c.d.e.f.g.#.$.6.+.R P P N O ",
"O M P P P P P P 7.3.h.i.a.j.#.#.4.k.l.m.n.b.b.b.m.o.e.#.P P N O ",
"O M P P P P *.S p.q.a.r.p.6.Q Q R V s.S t.u.4.e.o.m.n.#.P P N O ",
"O M P P Q +.9.0.a.a.v.9.V P P P P P P P P *.R +.).$.#.6.P P N O ",
"O M P |.3.h.i.a.a.w.3.|.P P P P P P P P P P P P P P P P P P N O ",
"O M P s.w.a.a.r.p.6.Q P P P P P P P P P P P P P P P P P P P N O ",
"O M P +.w.a.x.9.V P P P P P P P P P P P P P P P P P P P P P N O ",
"O M P *.3.#.$.|.P P P P P P P P P P P P P P P P P P P P P P N O ",
"L M N N N N N N N N N N N N N N N N N N N N N N N N N N N N N L ",
"O L O O O O O O O O O O O O O O O O O O O O O O O O O O O O L O "};
