/* XPM */
static char * killScene_xpm[] = {
"32 32 515 2",
"  	c None",
". 	c #C1C1C1",
"+ 	c #B2A7A8",
"@ 	c #9A1A1A",
"# 	c #E51B1C",
"$ 	c #E73535",
"% 	c #C3B6B6",
"& 	c #BAB5B4",
"* 	c #8A2525",
"= 	c #DE1818",
"- 	c #E72A2A",
"; 	c #C5B1B1",
"> 	c #C0C1C1",
", 	c #BEBBBB",
"' 	c #893837",
") 	c #CC1414",
"! 	c #E01E1E",
"~ 	c #D38281",
"{ 	c #CAA3A4",
"] 	c #C3B8B9",
"^ 	c #C1BFC0",
"/ 	c #C0C1C0",
"( 	c #C1C0C0",
"_ 	c #C0BDBE",
": 	c #C59596",
"< 	c #CE494A",
"[ 	c #BD191A",
"} 	c #BA0F10",
"| 	c #BE1010",
"1 	c #D41414",
"2 	c #E01C1D",
"3 	c #E53636",
"4 	c #D87272",
"5 	c #C7ADAC",
"6 	c #C1C1C0",
"7 	c #C0B2B1",
"8 	c #C75758",
"9 	c #D41717",
"0 	c #C51314",
"a 	c #8B1A1A",
"b 	c #A80E0F",
"c 	c #B30D0F",
"d 	c #8A4243",
"e 	c #724445",
"f 	c #792424",
"g 	c #B61313",
"h 	c #E12F2E",
"i 	c #CB9999",
"j 	c #C2C0C0",
"k 	c #BEA1A2",
"l 	c #C2302F",
"m 	c #CD1211",
"n 	c #9E3130",
"o 	c #947F80",
"p 	c #9D8B89",
"q 	c #AF1212",
"r 	c #DC1212",
"s 	c #CC8585",
"t 	c #BFBEBF",
"u 	c #B7B3B4",
"v 	c #9B8787",
"w 	c #822727",
"x 	c #CA2424",
"y 	c #CA9596",
"z 	c #BDA8AA",
"A 	c #BA3231",
"B 	c #C31011",
"C 	c #874243",
"D 	c #B3AEAE",
"E 	c #C0C0C0",
"F 	c #B7AEAE",
"G 	c #9F1919",
"H 	c #DD1011",
"I 	c #D26F70",
"J 	c #C0C1BF",
"K 	c #B1A8A8",
"L 	c #7E3130",
"M 	c #C52728",
"N 	c #C8A1A2",
"O 	c #C0BAB9",
"P 	c #B23F3D",
"Q 	c #C20F10",
"R 	c #955252",
"S 	c #BAB7B7",
"T 	c #BBB9B8",
"U 	c #90292A",
"V 	c #D80E0F",
"W 	c #D55C5C",
"X 	c #AFA4A3",
"Y 	c #872524",
"Z 	c #CE4647",
"` 	c #C2BCBC",
" .	c #B58482",
"..	c #BD0F10",
"+.	c #9F3837",
"@.	c #B7B3B2",
"#.	c #C1C0C2",
"$.	c #C0BEBE",
"%.	c #904746",
"&.	c #C70B0B",
"*.	c #CC5150",
"=.	c #C0BFBE",
"-.	c #C1C1BF",
";.	c #9C7E7F",
">.	c #A41212",
",.	c #C79697",
"'.	c #C0C0C1",
").	c #BEB7B8",
"!.	c #AA3433",
"~.	c #B31515",
"{.	c #AB9393",
"].	c #C1C0C1",
"^.	c #A78D8E",
"/.	c #AC0B0C",
"(.	c #C46564",
"_.	c #B7B2B2",
":.	c #832120",
"<.	c #C85D5E",
"[.	c #C0BDBD",
"}.	c #BCADAF",
"|.	c #B89796",
"1.	c #B28A8A",
"2.	c #B30F0E",
"3.	c #9C4242",
"4.	c #BEBDBB",
"5.	c #B9B1B2",
"6.	c #9F1F21",
"7.	c #C07D7D",
"8.	c #BEBEBF",
"9.	c #824444",
"0.	c #BC3333",
"a.	c #BEA3A4",
"b.	c #BC7F80",
"c.	c #B74545",
"d.	c #B71C1C",
"e.	c #B5100F",
"f.	c #A44748",
"g.	c #B80F0F",
"h.	c #AD8888",
"i.	c #BFBFBF",
"j.	c #9E5556",
"k.	c #BE908F",
"l.	c #C0B8B9",
"m.	c #BE9E9E",
"n.	c #A15150",
"o.	c #AB0908",
"p.	c #C51113",
"q.	c #C80909",
"r.	c #C30605",
"s.	c #BB0807",
"t.	c #B41413",
"u.	c #BDB7B7",
"v.	c #A12727",
"w.	c #B51F1E",
"x.	c #B7ABAB",
"y.	c #B39A9A",
"z.	c #BC9D9C",
"A.	c #C0B6B7",
"B.	c #BE8080",
"C.	c #C83332",
"D.	c #CF1010",
"E.	c #CB0908",
"F.	c #AA0507",
"G.	c #BF0C0D",
"H.	c #C12322",
"I.	c #BB4645",
"J.	c #BC807F",
"K.	c #BD9F9F",
"L.	c #BCADAD",
"M.	c #A31A19",
"N.	c #AD3434",
"O.	c #BFBBBB",
"P.	c #BEBDBC",
"Q.	c #C1BEC0",
"R.	c #C29393",
"S.	c #C33737",
"T.	c #C60E0E",
"U.	c #CD0E0F",
"V.	c #CA1E20",
"W.	c #B72325",
"X.	c #A61213",
"Y.	c #BD8A8B",
"Z.	c #C0B5B4",
"`.	c #C0BEBF",
" +	c #B7A4A5",
".+	c #A71414",
"++	c #AA3738",
"@+	c #BFBCBD",
"#+	c #C1BFBF",
"$+	c #C1BEBE",
"%+	c #C1BABB",
"&+	c #C1B9B7",
"*+	c #C1B6B6",
"=+	c #C2B6B6",
"-+	c #C0C0BF",
";+	c #C0BDBB",
">+	c #C39495",
",+	c #C08D8E",
"'+	c #C09292",
")+	c #BF999A",
"!+	c #C0B2B2",
"~+	c #A07777",
"{+	c #AF2625",
"]+	c #C1B4B6",
"^+	c #B8A6A7",
"/+	c #A41413",
"(+	c #AB3635",
"_+	c #BAA1A0",
":+	c #BD8A8A",
"<+	c #BA5050",
"[+	c #C63A39",
"}+	c #CC3230",
"|+	c #CB2E2E",
"1+	c #CA4543",
"2+	c #C49596",
"3+	c #C1BEBD",
"4+	c #BDBDBD",
"5+	c #844846",
"6+	c #BB3535",
"7+	c #C1BCBC",
"8+	c #C2C0C1",
"9+	c #C0BFBF",
"0+	c #BDB6B6",
"a+	c #B69F9F",
"b+	c #A87877",
"c+	c #9E0F0E",
"d+	c #B20B0A",
"e+	c #BF1312",
"f+	c #C90B0B",
"g+	c #CB0808",
"h+	c #CB0807",
"i+	c #C71616",
"j+	c #C15E5E",
"k+	c #C0AFAF",
"l+	c #C69091",
"m+	c #C2BCBD",
"n+	c #B9B5B4",
"o+	c #9F2829",
"p+	c #BF6363",
"q+	c #BCB6B5",
"r+	c #B79E9E",
"s+	c #B48080",
"t+	c #AC4546",
"u+	c #B02727",
"v+	c #B51011",
"w+	c #B30B0A",
"x+	c #A70807",
"y+	c #AA0708",
"z+	c #BA0908",
"A+	c #C20C0E",
"B+	c #BF2120",
"C+	c #BE4A49",
"D+	c #C09B9B",
"E+	c #C1BEBF",
"F+	c #BF5A59",
"G+	c #C5A8A8",
"H+	c #C0C2C0",
"I+	c #AA8C8D",
"J+	c #B71A19",
"K+	c #C19B9A",
"L+	c #A92425",
"M+	c #B21212",
"N+	c #BB0C0C",
"O+	c #C0090A",
"P+	c #C00A09",
"Q+	c #BE0908",
"R+	c #B70909",
"S+	c #A70A09",
"T+	c #A20607",
"U+	c #A63030",
"V+	c #BD8D8E",
"W+	c #C1B3B1",
"X+	c #AF3536",
"Y+	c #CE6768",
"Z+	c #C2C0BF",
"`+	c #BCBABA",
" @	c #A93F3F",
".@	c #C13D3D",
"+@	c #C0BABB",
"@@	c #BC0B0A",
"#@	c #BA0A0B",
"$@	c #BB0909",
"%@	c #BA090A",
"&@	c #B80E0E",
"*@	c #B72524",
"=@	c #B7494A",
"-@	c #B07272",
";@	c #A10E0E",
">@	c #A53333",
",@	c #C0B8B7",
"'@	c #BCB8B8",
")@	c #A62A2A",
"!@	c #D52E30",
"~@	c #C2B8B8",
"{@	c #AE7776",
"]@	c #C71B1C",
"^@	c #C09596",
"/@	c #B40B0A",
"(@	c #B20F0E",
"_@	c #B52625",
":@	c #B54949",
"<@	c #BC8E8F",
"[@	c #C0B5B5",
"}@	c #BEBCBB",
"|@	c #9D4747",
"1@	c #B80C0A",
"2@	c #BE7574",
"3@	c #C1BFBE",
"4@	c #A02526",
"5@	c #CE0E0F",
"6@	c #C39C9D",
"7@	c #BC9694",
"8@	c #CC2020",
"9@	c #C26463",
"0@	c #C1BDBE",
"a@	c #B24A49",
"b@	c #BFB3B4",
"c@	c #B6A6A4",
"d@	c #A22627",
"e@	c #C31515",
"f@	c #C58787",
"g@	c #C2BFBE",
"h@	c #BDBBBB",
"i@	c #8F2E2F",
"j@	c #C20709",
"k@	c #C18688",
"l@	c #C28E8E",
"m@	c #D32626",
"n@	c #C54C4C",
"o@	c #BEBFBE",
"p@	c #BFBFBE",
"q@	c #BEBEBD",
"r@	c #BDBEBC",
"s@	c #BDBDBC",
"t@	c #B9B9B9",
"u@	c #B9B9BA",
"v@	c #BABBBA",
"w@	c #AC9495",
"x@	c #A41B1B",
"y@	c #C91313",
"z@	c #D06566",
"A@	c #C7AAAB",
"B@	c #B8BAB9",
"C@	c #A9A8A8",
"D@	c #802D2C",
"E@	c #BC0506",
"F@	c #CE2827",
"G@	c #DE201F",
"H@	c #C55A5B",
"I@	c #BFB5B5",
"J@	c #9B9B9B",
"K@	c #929392",
"L@	c #8C8B8B",
"M@	c #7F7F7F",
"N@	c #7F807F",
"O@	c #7F7F80",
"P@	c #7B7B7B",
"Q@	c #787878",
"R@	c #777777",
"S@	c #808081",
"T@	c #776563",
"U@	c #8F2423",
"V@	c #C00C0B",
"W@	c #DD2221",
"X@	c #E04D4D",
"Y@	c #C16C6D",
"Z@	c #A6615F",
"`@	c #A44C4D",
" #	c #A21C1C",
".#	c #AD0606",
"+#	c #B81D1B",
"@#	c #BE8484",
"##	c #C0BBBC",
"$#	c #6E6E6E",
"%#	c #878788",
"&#	c #939394",
"*#	c #A2A1A1",
"=#	c #A7A8A6",
"-#	c #A8AAA9",
";#	c #AFB0B0",
">#	c #AEAFB0",
",#	c #AFAFAE",
"'#	c #AEAEAE",
")#	c #A7A6A7",
"!#	c #94908F",
"~#	c #735251",
"{#	c #882322",
"]#	c #B41B1B",
"^#	c #C61B1C",
"/#	c #C71D1C",
"(#	c #C02324",
"_#	c #AA2122",
":#	c #A30505",
"<#	c #B03030",
"[#	c #C0BCBC",
"}#	c #626263",
"|#	c #737374",
"1#	c #959594",
"2#	c #AEACAD",
"3#	c #B9B7B7",
"4#	c #BFC1C1",
"5#	c #B7B6B7",
"6#	c #9D9D9C",
"7#	c #818180",
"8#	c #7E7F7E",
"9#	c #8E8D8C",
"0#	c #A59F9E",
"a#	c #B6A8A8",
"b#	c #A49697",
"c#	c #797272",
"d#	c #765557",
"e#	c #A30404",
"f#	c #BB2021",
"g#	c #BFB5B4",
"h#	c #8F8E8F",
"i#	c #868887",
"j#	c #868685",
"k#	c #949594",
"l#	c #A2A2A3",
"m#	c #B8B8B9",
"n#	c #BDBCBC",
"o#	c #A4A4A4",
"p#	c #A7A8A8",
"q#	c #ACADAD",
"r#	c #B6B6B7",
"s#	c #BEBDBD",
"t#	c #AAABAA",
"u#	c #7E7F7F",
"v#	c #745F5E",
"w#	c #9B0606",
"x#	c #B70F0E",
"y#	c #BEA2A3",
"z#	c #B6B5B5",
"A#	c #ACACAE",
"B#	c #A6A5A5",
"C#	c #9D9D9E",
"D#	c #A7A7A8",
"E#	c #989797",
"F#	c #848283",
"G#	c #7C7E7C",
"H#	c #7D7D7D",
"I#	c #8C8C8B",
"J#	c #8D8D8E",
"K#	c #767674",
"L#	c #767575",
"M#	c #8F8383",
"N#	c #940D0D",
"O#	c #B40706",
"P#	c #BE8D8F",
"Q#	c #737272",
"R#	c #6F6E70",
"S#	c #7B7A7A",
"T#	c #9C9C9B",
"U#	c #B3B4B3",
"V#	c #BDBEBE",
"W#	c #B1B3B3",
"X#	c #9D9C9D",
"Y#	c #787979",
"Z#	c #5F6161",
"`#	c #5B5B5C",
" $	c #616161",
".$	c #616061",
"+$	c #5D5D5D",
"@$	c #6B6A6B",
"#$	c #767070",
"$$	c #840E0E",
"%$	c #B00505",
"&$	c #BB7E7E",
"*$	c #676767",
"=$	c #828181",
"-$	c #989898",
";$	c #A1A1A2",
">$	c #A4A3A3",
",$	c #A2A1A2",
"'$	c #999A9A",
")$	c #949394",
"!$	c #8B8C8B",
"~$	c #7F8080",
"{$	c #797979",
"]$	c #757576",
"^$	c #7C7D7C",
"/$	c #9A9A9B",
"($	c #9D9C9C",
"_$	c #979697",
":$	c #858585",
"<$	c #797777",
"[$	c #7E3233",
"}$	c #A93836",
"|$	c #BC9493",
"1$	c #6C6D6D",
"2$	c #717072",
"3$	c #727271",
"4$	c #777776",
"5$	c #767776",
"6$	c #777878",
"7$	c #7D7E7D",
"8$	c #818282",
"9$	c #898888",
"0$	c #969695",
"a$	c #A0A2A1",
"b$	c #B7B5B5",
"c$	c #C0BFC0",
"d$	c #BFBFC0",
"e$	c #BDBCBD",
"f$	c #B8B8B7",
"g$	c #B7B1B2",
"h$	c #A5A4A4",
"i$	c #A6A6A6",
"j$	c #A8A8A8",
"k$	c #AAA9AA",
"l$	c #ACACAB",
"m$	c #B3B4B4",
"n$	c #B5B5B4",
"o$	c #BABAB9",
"p$	c #BCBDBC",
". . . . . . . . . . . . . . + @ # $ % . . . . . . . . . . . . . ",
". . . . . . . . . . . . . . & * = - ; . . . . . . . . . . . . . ",
". . . . . . . . . . . . . > , ' ) ! ~ { ] ^ / . . . . . . . . . ",
". . . . . . . . . . . ( _ : < [ } | 1 2 3 4 5 6 . . . . . . . . ",
". . . . . . . . . . > 7 8 9 0 a b c d e f g h i j . . . . . . . ",
". . . . . . . . . ( k l m n o p q r s t u v w x y 6 . . . . . . ",
". . . . . . . . / z A B C D E F G H I . . J K L M N > . . . . . ",
". . . . . . . > O P Q R S . . T U V W ( . . > X Y Z ` . . . . . ",
". . . . . . . E  ...+.@.#.. . $.%.&.*.=.. . . -.;.>.,.'.. . . . ",
". . . . . . . ).!.~.{.].. . . 6 ^./.(.].. . . E _.:.<.^ '.[.}.|.",
". . . . . . ].1.2.3.4.. . . . . 5.6.7.> . . . . 8.9.0.a.b.c.d.e.",
". . . . . . t f.g.h.( . . . . . i.j.k.( . '.. l.m.n.o.p.q.r.s.t.",
". . . . . . u.v.w.x.. . . . . . ( y.z.. E A.B.C.D.E.F.G.H.I.J.K.",
". . . . . . L.M.N.O.. . . . . . . =.P.Q.R.S.T.U.V.W.X.Y.Z.`./ 6 ",
". . . . . .  +.+++@+].#+$+%+&+*+=+-+. ;+>+,+'+)+!+~+{+]+. . . . ",
". . . . . '.^+/+(+_+:+<+[+}+|+1+2+3+$.( ( > . . 4+5+6+7+. . . . ",
". . 8+9+0+a+b+c+d+e+f+g+h+i+j+k+#+( l+m+. . . . n+o+p+> . . . . ",
"q+r+s+t+u+v+w+x+y+z+A+B+C+D+E+/ . `.F+G+H+. . / I+J+K+/ . . . . ",
"L+M+N+O+P+Q+R+S+T+U+V+W+`.( . . . P.X+Y+Z+. / `+ @.@+@. . . . . ",
"@@#@$@%@&@*@=@-@;@>@,@].. . . . . '@)@!@~@. 9+{@]@^@( . . . . . ",
"/@(@_@:@<@[@_ }@|@1@2@3@. . . . . S 4@5@6@-+7@8@9@0@. . . . . . ",
"a@<@b@3+( > . . c@d@e@f@g@E . . ( h@i@j@k@l@m@n@,@'.. . . . . . ",
"[.o@p@q@r@s@t@u@v@w@x@y@z@A@3@8.B@C@D@E@F@G@H@I@> . . . . . . . ",
"J@K@L@M@N@O@P@Q@R@S@T@U@V@W@X@Y@Z@`@ #.#+#@###. . . . . . . . . ",
"$#%#&#*#=#-#;#>#,#'#)#!#~#{#]#^#/#(#_#:#<#[#'.'.. . . . . . . . ",
"}#|#1#2#3#9+'.4#5#6#7#|#8#9#0#a#b#c#d#e#f#g#. . . . . . . . . . ",
"h#i#j#k#l#m#/ n#,#o#p#q#r#n#o@s#t#u#v#w#x#y#. . . . . . . . . . ",
"z#A#B#C#D#t@-.p@'#E#F#G#H#I#k#J#K#L#M#N#O#P#].. . . . . . . . . ",
"Q#R#S#T#U#V#i.8.v@W#X#Y#Z#`# $.$+$@$#$$$%$&$6 . . . . . . . . . ",
"*$=$-$;$>$,$'$)$!$~${$]$^$!$/$($_$:$<$[$}$|$].. . . . . . . . . ",
"1$2$3$4$5$6$7$8$9$0$a$q#b$n#9+c$d$e$f$g$}@( ].. . . . . . . . . ",
"h$i$j$k$l$m$n$o$p$t d$. / . > ].( / ( ].'.6 . . . . . . . . . . "};
