/* XPM */
static char * lookAt_xpm[] = {
"32 32 358 2",
"  	c None",
". 	c #D3CFC7",
"+ 	c #D2CFC6",
"@ 	c #CDCDC1",
"# 	c #CACABF",
"$ 	c #D1CDC4",
"% 	c #CAC8BE",
"& 	c #559050",
"* 	c #3BB838",
"= 	c #A9B5A0",
"- 	c #CFCCC2",
"; 	c #3C7939",
"> 	c #15B415",
", 	c #94AA8D",
"' 	c #D4D0C7",
") 	c #D1CDC5",
"! 	c #477C42",
"~ 	c #15AF15",
"{ 	c #8DA786",
"] 	c #D3D0C8",
"^ 	c #D4CFC8",
"/ 	c #D2CCC4",
"( 	c #598053",
"_ 	c #14A513",
": 	c #789B72",
"< 	c #D4D0C8",
"[ 	c #D3CFC8",
"} 	c #D4CEC5",
"| 	c #DEBAA7",
"1 	c #EAA78A",
"2 	c #77916E",
"3 	c #149F13",
"4 	c #6A9465",
"5 	c #D4CFC7",
"6 	c #D6C8BC",
"7 	c #EAA689",
"8 	c #FB8758",
"9 	c #F4926A",
"0 	c #8B9A7C",
"a 	c #149613",
"b 	c #588D55",
"c 	c #D1CFC6",
"d 	c #DEB9A6",
"e 	c #F5916A",
"f 	c #FB8356",
"g 	c #FC8353",
"h 	c #F68D63",
"i 	c #9EA489",
"j 	c #159115",
"k 	c #4D8B49",
"l 	c #D1CDC6",
"m 	c #D3CEC6",
"n 	c #DAC3B7",
"o 	c #EDA07E",
"p 	c #F98759",
"q 	c #FD8353",
"r 	c #FC8354",
"s 	c #FC8253",
"t 	c #F8885C",
"u 	c #A9A28B",
"v 	c #188516",
"w 	c #41883E",
"x 	c #CFCDC3",
"y 	c #D3D0C7",
"z 	c #D4CCC4",
"A 	c #E0B7A2",
"B 	c #F68F66",
"C 	c #FC8455",
"D 	c #E57B4C",
"E 	c #B66D3F",
"F 	c #EF7E51",
"G 	c #FB8354",
"H 	c #FB8659",
"I 	c #BDAB93",
"J 	c #1D7E1D",
"K 	c #3B873A",
"L 	c #CCCBC2",
"M 	c #D4D0C6",
"N 	c #D4CEC6",
"O 	c #DCC0B0",
"P 	c #F19874",
"Q 	c #FB8557",
"R 	c #FC8255",
"S 	c #C06F42",
"T 	c #234514",
"U 	c #464C1E",
"V 	c #B76B3E",
"W 	c #F48153",
"X 	c #CCAE9B",
"Y 	c #227922",
"Z 	c #368934",
"` 	c #D3CEC7",
" .	c #CECBC1",
"..	c #B1B6A7",
"+.	c #8EA786",
"@.	c #81A479",
"#.	c #D1CEC6",
"$.	c #D3CFC6",
"%.	c #D9C4B6",
"&.	c #E0B8A2",
"*.	c #F58E66",
"=.	c #FA885B",
"-.	c #FB8556",
";.	c #FC8456",
">.	c #FD8255",
",.	c #F88253",
"'.	c #BF6B40",
").	c #484C1E",
"!.	c #184411",
"~.	c #515123",
"{.	c #9F947C",
"].	c #2C7629",
"^.	c #2D882B",
"/.	c #C4C4B9",
"(.	c #CAC9BF",
"_.	c #AAB2A0",
":.	c #7A9973",
"<.	c #468A43",
"[.	c #1E811E",
"}.	c #1E821C",
"|.	c #558E51",
"1.	c #CDCCC2",
"2.	c #DBC2B2",
"3.	c #D5CBC2",
"4.	c #D7C7BB",
"5.	c #D9C3B6",
"6.	c #DEBDAC",
"7.	c #E3B29D",
"8.	c #E7AB90",
"9.	c #EC9E7F",
"0.	c #F29772",
"a.	c #E48F6B",
"b.	c #856643",
"c.	c #244D1E",
"d.	c #174914",
"e.	c #166115",
"f.	c #1A7B19",
"g.	c #588352",
"h.	c #398736",
"i.	c #1C8A1B",
"j.	c #1A8619",
"k.	c #348232",
"l.	c #658D61",
"m.	c #A4B09C",
"n.	c #CBCAC0",
"o.	c #D2D0C8",
"p.	c #DAC2B4",
"q.	c #F68F68",
"r.	c #F3946F",
"s.	c #D4CEC7",
"t.	c #D2CCC0",
"u.	c #BAB7A7",
"v.	c #738B6B",
"w.	c #125512",
"x.	c #127312",
"y.	c #0F5C0F",
"z.	c #0F6810",
"A.	c #1F781E",
"B.	c #588454",
"C.	c #9FAA95",
"D.	c #C8C5BD",
"E.	c #D2CDC5",
"F.	c #DBC1B4",
"G.	c #F59069",
"H.	c #ED9F7E",
"I.	c #CECBC3",
"J.	c #B4B9AA",
"K.	c #8FA587",
"L.	c #498546",
"M.	c #269024",
"N.	c #179C16",
"O.	c #189B18",
"P.	c #177817",
"Q.	c #0C460D",
"R.	c #0D490D",
"S.	c #1E4D1D",
"T.	c #778570",
"U.	c #C2C0B5",
"V.	c #D4CFC6",
"W.	c #DBC1B2",
"X.	c #F59169",
"Y.	c #FD8355",
"Z.	c #FC8454",
"`.	c #E2B49E",
" +	c #D3CEC8",
".+	c #CBC9BE",
"++	c #A9B19F",
"@+	c #7E9C78",
"#+	c #458E42",
"$+	c #1F9820",
"%+	c #17AE16",
"&+	c #16AF15",
"*+	c #299628",
"=+	c #538450",
"-+	c #9EAB94",
";+	c #60805B",
">+	c #146E12",
",+	c #31542F",
"'+	c #134713",
")+	c #0F4D0F",
"!+	c #2E552B",
"~+	c #98A08F",
"{+	c #CBC9BF",
"]+	c #DBC2B4",
"^+	c #F49069",
"/+	c #FB8454",
"(+	c #FB8353",
"_+	c #F98659",
":+	c #C0C1B5",
"<+	c #65885F",
"[+	c #3C8738",
"}+	c #1C9D1A",
"|+	c #15BB15",
"1+	c #16B115",
"2+	c #249822",
"3+	c #478543",
"4+	c #8D9F85",
"5+	c #BFC0B5",
"6+	c #D1CEC5",
"7+	c #7F9678",
"8+	c #167917",
"9+	c #9DAB94",
"0+	c #99A191",
"a+	c #2E542B",
"b+	c #0F4B0F",
"c+	c #145114",
"d+	c #3E623C",
"e+	c #9BA293",
"f+	c #CCC9C1",
"g+	c #D2CEC7",
"h+	c #DCC1B3",
"i+	c #F69069",
"j+	c #FB8255",
"k+	c #FC8254",
"l+	c #F78E62",
"m+	c #D6CAC0",
"n+	c #BABFAE",
"o+	c #20A620",
"p+	c #17BD15",
"q+	c #20941E",
"r+	c #448440",
"s+	c #8DA086",
"t+	c #BABBB0",
"u+	c #94A28C",
"v+	c #177516",
"w+	c #95A78D",
"x+	c #BDBBB2",
"y+	c #667760",
"z+	c #164917",
"A+	c #0D4E0D",
"B+	c #134D13",
"C+	c #456240",
"D+	c #A5A89B",
"E+	c #D1CCC4",
"F+	c #DAC2B2",
"G+	c #F49167",
"H+	c #FD8354",
"I+	c #FD8253",
"J+	c #F29671",
"K+	c #D5CDC4",
"L+	c #CFCCC4",
"M+	c #6E8D68",
"N+	c #8DA285",
"O+	c #B8BCAF",
"P+	c #CFCBC3",
"Q+	c #A1AD99",
"R+	c #187318",
"S+	c #8DA486",
"T+	c #D2D0C6",
"U+	c #9FA496",
"V+	c #3D5C3A",
"W+	c #0F4C0F",
"X+	c #0F530E",
"Y+	c #194B17",
"Z+	c #7E7859",
"`+	c #EA885F",
" @	c #FB8252",
".@	c #FB8254",
"+@	c #FB8253",
"@@	c #FC8355",
"#@	c #D2CFC7",
"$@	c #ADB3A4",
"%@	c #1A6F1B",
"&@	c #7A9873",
"*@	c #C8C6BD",
"=@	c #768270",
"-@	c #214F20",
";@	c #2E540D",
">@	c #93520B",
",@	c #B45113",
"'@	c #D1662F",
")@	c #F7804F",
"!@	c #DFBAA6",
"~@	c #B8BAAD",
"{@	c #1F6F1F",
"]@	c #698D64",
"^@	c #B9A490",
"/@	c #AB5321",
"(@	c #AE4D0B",
"_@	c #A8550A",
":@	c #A1570E",
"<@	c #E67943",
"[@	c #FA875C",
"}@	c #C7C5BA",
"|@	c #2C742B",
"1@	c #568351",
"2@	c #D4CEC8",
"3@	c #DBC0B1",
"4@	c #F69068",
"5@	c #F87F50",
"6@	c #DB6735",
"7@	c #B65412",
"8@	c #B3601A",
"9@	c #EF7F4C",
"0@	c #F58F67",
"a@	c #D6CCC0",
"b@	c #C9C8BD",
"c@	c #387436",
"d@	c #5B8955",
"e@	c #D2CEC6",
"f@	c #DBC0AF",
"g@	c #F59068",
"h@	c #F47E4B",
"i@	c #F47D4D",
"j@	c #EE9C7B",
"k@	c #D3CDC6",
"l@	c #B2BCA9",
"m@	c #BFC4B4",
"n@	c #DCBFB0",
"o@	c #FA8657",
"p@	c #E3B19A",
"q@	c #DCBEB0",
"r@	c #F58F65",
"s@	c #F8885D",
"t@	c #F19773",
"u@	c #E7A88D",
"v@	c #DEBAA9",
"w@	c #D4CDC3",
"x@	c #F58E65",
"y@	c #FB8457",
"z@	c #F58F66",
"A@	c #EE9E7B",
"B@	c #E2B69F",
"C@	c #DAC5B8",
"D@	c #DDBCAB",
"E@	c #F78D64",
"F@	c #FA885D",
"G@	c #DEBBA9",
"H@	c #D6CABF",
"I@	c #D3D0C6",
"J@	c #F09973",
"K@	c #EE9C7C",
"L@	c #E1B4A0",
"M@	c #D9C5B7",
"N@	c #D4CDC5",
"O@	c #D5CEC6",
"P@	c #D8C5B9",
"Q@	c #D6CBC1",
". . . . . . . . . . . . . . . . . . . . . . . . . . . . . . . . ",
". . . . . . . . . . + @ # $ . . . . . . . . . . . . . . . . . . ",
". . . . . . . . . . % & * = . . . . . . . . . . . . . . . . . . ",
". . . . . . . . . . - ; > , ' . . . . . . . . . . . . . . . . . ",
". . . . . . . . . . ) ! ~ { ] . . . . . . . . . . . . . . . . . ",
". . . . . . . . . ^ / ( _ : < . . . . . . . . . . . . . . . . . ",
". . . . . . . [ } | 1 2 3 4 + . . . . . . . . . . . . . . . . . ",
". . . . . . 5 6 7 8 9 0 a b c . . . . . . . . . . . . . . . . . ",
". . . . [ } d e f g h i j k l . . . . . . . . . . . . . . . . . ",
". . ' m n o p q r s t u v w x . . . . . . . . . . . . . . . . . ",
". y z A B C D E F G H I J K L . . . . M [ N [ . . . . . . . . . ",
"m O P Q s R S T U V W X Y Z % . ^ `  ...+.@.#.. . . . . . . $.%.",
"&.*.=.-.;.>.,.'.).!.~.{.].^./.(._.:.<.[.}.|.1.. . . . . . . 2.P ",
"3.4.5.6.7.8.9.0.a.b.c.d.e.f.g.h.i.j.k.l.m.n.o.. . . . . 5 p.q.r.",
". . . [ 5 5 s.} t.u.v.w.x.y.z.A.B.C.D.E.y . . . . . . $.F.G.s H.",
". . . 5 . I.J.K.L.M.N.O.P.Q.R.S.T.U.V.. . . . . . . ' W.X.Y.Z.`.",
" +$..+++@+#+$+%+&+*+=+-+;+>+,+'+)+!+~+{+' . . . . . ]+^+/+(+_+F.",
":+<+[+}+|+1+2+3+4+5+6+y 7+8+9+0+a+b+c+d+e+f+] . g+h+i+j+k+Y.l+m+",
"n+o+p+q+r+s+t+x . ] . V.u+v+w+5 x+y+z+A+B+C+D+E+F+G+H+k+I+j+J+K+",
"L+M+N+O+P+[ < . . . . . Q+R+S+y T+E+U+V+W+X+Y+Z+`+ @.@+@G @@1 y ",
"o.#@` ' . . . . . . . . $@%@&@] . . 5 *@=@-@;@>@,@'@)@k+k+C !@y ",
". . . . . . . . . . . . ~@{@]@#@. . . ' E.^@/@(@_@:@<@H+(+[@5.. ",
". . . . . . . . . . . . }@|@1@) . . . 2@3@4@5@6@7@8@9@j+>.0@a@. ",
". . . . . . . . . . . . b@c@d@e@. . ' f@g@g Y.(+h@i@.@r q j@k@. ",
". . . . . . . . . . . . e@l@m@] . ^ n@B r Z..@.@(+>.s k+o@p@^ . ",
". . . . . . . . . . . . . . . . ^ q@r@C q s s .@@@s@t@u@v@w@' . ",
". . . . . . . . . . . . . . . V.n@x@H+r C y@z@A@B@C@} 5 5 . . . ",
". . . . . . . . . . . . . . $.D@E@C F@t@u@G@H@s.I@$.. . . . . . ",
". . . . . . . . . . . . . . O J@K@L@M@N@` < . . . . . . . . . . ",
". . . . . . . . . . . . . O@P@Q@O@I@5 . . . . . . . . . . . . . ",
". . . . . . . . . . . . . . . . . . . . . . . . . . . . . . . . ",
". . . . . . . . . . . . . . . . . . . . . . . . . . . . . . . . "};
