/* XPM */
static char * mineSweeper_xpm[] = {
"32 32 143 2",
"  	c None",
". 	c #C1C1C1",
"+ 	c #A5A5A5",
"@ 	c #AFAFAF",
"# 	c #B8B8B8",
"$ 	c #6E6E6E",
"% 	c #828282",
"& 	c #626262",
"* 	c #727272",
"= 	c #808080",
"- 	c #888888",
"; 	c #7A7A7A",
"> 	c #717171",
", 	c #A8A8A8",
"' 	c #606060",
") 	c #797979",
"! 	c #B9B9B9",
"~ 	c #B6B6B6",
"{ 	c #858585",
"] 	c #646464",
"^ 	c #686868",
"/ 	c #5B5B5B",
"( 	c #B4B4B4",
"_ 	c #8B8B8B",
": 	c #464646",
"< 	c #737373",
"[ 	c #959595",
"} 	c #515151",
"| 	c #434343",
"1 	c #1E1E1E",
"2 	c #1D1D1D",
"3 	c #3C3C3C",
"4 	c #585858",
"5 	c #7C7C7C",
"6 	c #5F5F5F",
"7 	c #ADADAD",
"8 	c #838383",
"9 	c #B7B7B7",
"0 	c #454545",
"a 	c #282828",
"b 	c #303030",
"c 	c #373737",
"d 	c #393939",
"e 	c #383838",
"f 	c #363636",
"g 	c #3E3E3E",
"h 	c #8C8C8C",
"i 	c #A9A9A9",
"j 	c #777777",
"k 	c #5C5C5C",
"l 	c #323232",
"m 	c #474747",
"n 	c #3B3B3B",
"o 	c #444444",
"p 	c #4B4B4B",
"q 	c #494949",
"r 	c #222222",
"s 	c #818181",
"t 	c #A0A0A0",
"u 	c #BBBBBB",
"v 	c #333333",
"w 	c #4A4A4A",
"x 	c #545454",
"y 	c #595959",
"z 	c #565656",
"A 	c #555555",
"B 	c #525252",
"C 	c #242424",
"D 	c #757575",
"E 	c #676767",
"F 	c #343434",
"G 	c #4F4F4F",
"H 	c #656565",
"I 	c #575757",
"J 	c #4C4C4C",
"K 	c #353535",
"L 	c #2C2C2C",
"M 	c #707070",
"N 	c #B5B5B5",
"O 	c #636363",
"P 	c #424242",
"Q 	c #696969",
"R 	c #6A6A6A",
"S 	c #3F3F3F",
"T 	c #2F2F2F",
"U 	c #404040",
"V 	c #868686",
"W 	c #979797",
"X 	c #8D8D8D",
"Y 	c #9A9A9A",
"Z 	c #2A2A2A",
"` 	c #767676",
" .	c #8E8E8E",
"..	c #7D7D7D",
"+.	c #7B7B7B",
"@.	c #2B2B2B",
"#.	c #9F9F9F",
"$.	c #6F6F6F",
"%.	c #3A3A3A",
"&.	c #787878",
"*.	c #9E9E9E",
"=.	c #B0B0B0",
"-.	c #929292",
";.	c #484848",
">.	c #2E2E2E",
",.	c #3D3D3D",
"'.	c #848484",
").	c #939393",
"!.	c #414141",
"~.	c #9C9C9C",
"{.	c #969696",
"].	c #8F8F8F",
"^.	c #999999",
"/.	c #7E7E7E",
"(.	c #5E5E5E",
"_.	c #505050",
":.	c #6B6B6B",
"<.	c #898989",
"[.	c #4D4D4D",
"}.	c #5A5A5A",
"|.	c #B1B1B1",
"1.	c #4E4E4E",
"2.	c #6C6C6C",
"3.	c #535353",
"4.	c #6D6D6D",
"5.	c #5D5D5D",
"6.	c #616161",
"7.	c #202020",
"8.	c #ABABAB",
"9.	c #BCBCBC",
"0.	c #8A8A8A",
"a.	c #232323",
"b.	c #2D2D2D",
"c.	c #313131",
"d.	c #A1A1A1",
"e.	c #A2A2A2",
"f.	c #AAAAAA",
"g.	c #7F7F7F",
"h.	c #212121",
"i.	c #919191",
"j.	c #9D9D9D",
"k.	c #909090",
"l.	c #B2B2B2",
". . . . . . . . . . . . + @ . . . . . . . . . . . . . . . . . . ",
". . . . . . . . . . . # $ % . . . . . . . . . . . . . . . . . . ",
". . . . . . . . . . . . & * . . . . . . = - . . . . . . . . . . ",
". . . . . . . . . . . . ; > . . . . . , ' ) . . . . . . . . . . ",
". . . . . . . . ! % ~ . { ] . . . . . ^ / @ . . . . . . . . . . ",
". . . . . ( _ . - : < [ } | 1 2 3 4 5 6 > . . . . . . . . . . . ",
". . . . . 7 ; 8 9 } 0 a b c d e f b g 4 h . . . . . . . . . . . ",
". . . . . . i j k l m n o m p q q o 3 l r s . . . . t u . . . . ",
". . . . . . . h r v n w x x y z A B w o f C t . i D ) [ . . . . ",
". . . . . E ' F F 0 G z 6 ' H ] ' k I J o K L D ) M % N . . . . ",
". . . . . O | P f m G O H Q > $ R E & x } S T U V 9 . . . . . . ",
". W ; X Y @ Z K | w 6 ` ; =  ...+.M R 6 x J d @.. . . . . . . . ",
". #.= $.) 6 C %.w A E ) &.*.=.-.% ) j Q A ;.b 3 Y . . . . . . . ",
". . . . =./ >.,.B 4 > % _ V 6 y [ '.+.R f c d y ).. . . . . . . ",
". . . . . E >.!.A 4 < = s ).s ~.{.'.= ; 3 v f n > . . . . . . . ",
". . . . . [ >.U G A > j { ].[ ^.[ % /.) (.A m @.... . . . . . . ",
". . . . . #.a ,._.x :.* < '.<.<.h j * > I [.o Z }.H D |.. . . . ",
". . . . . . f f o 1.] E > j ) ..= M $.2.3.q %.%., -.&.N . . . . ",
". . . . |.k m ;.3 | }.' O Q 4.4.$ & (.5.w o b H . . . . . . . . ",
". . . =.6.o 3.L c U } z y x z O ] / y z ,.d 7.8.. . . . . . . . ",
". . . 9.V t . 0.a.v o p _.n %.I z G G q v Z > . . . . . . . . . ",
". . . . . . . . = b.c.,.g c K p q !.S F b / D , . . . . . . . . ",
". . . . . . . . . d.2 a >.P c.%.e l @.b e.! = +.f.. . . . . . . ",
". . . . . . . . . . &.g.] I v 7.h.m h . . . ! &.g.N . . . . . . ",
". . . . . . . . . . . . . ! D I / '.. . . . . ! ~.. . . . . . . ",
". . . . . . . . . . . . . 0.9.d.$ i.. . . . . . . . . . . . . . ",
". . . . . . . . . . . . . _ . . _ . . . . . . . . . . . . . . . ",
". . . . . . . . . . . . . ].. . { . . . . . . . . . . . . . . . ",
". . . . . . . . . . . . . j.B < 7 . . . . . . . . . . . . . . . ",
". . . . . . . . . . . . . . '.).. . . . . . . . . . . . . . . . ",
". . . . . . . . . . . . . . k.X . . . . . . . . . . . . . . . . ",
". . . . . . . . . . . . . . ~ l.. . . . . . . . . . . . . . . . "};
