/* XPM */
static char * moveVertex_xpm[] = {
"32 32 224 2",
"  	c #C0C0C0",
". 	c #000000",
"+ 	c #FFFC12",
"@ 	c #F4F230",
"# 	c #CFCF96",
"$ 	c #F1EF38",
"% 	c #B4AE94",
"& 	c #F1EE3A",
"* 	c #C9C9A7",
"= 	c #E8E651",
"- 	c #DDDC6B",
"; 	c #5945AD",
"> 	c #5745AC",
", 	c #5545AC",
"' 	c #96898C",
") 	c #F6F42B",
"! 	c #D0CF94",
"~ 	c #F2F12C",
"{ 	c #4D3FB8",
"] 	c #4B3CB7",
"^ 	c #4639B5",
"/ 	c #8180A8",
"( 	c #E4E553",
"_ 	c #BFB74C",
": 	c #C9C14B",
"< 	c #DFDE6A",
"[ 	c #CFCE98",
"} 	c #E7E93D",
"| 	c #92ADD8",
"1 	c #92AED9",
"2 	c #93AED9",
"3 	c #93AFD9",
"4 	c #8BA2D5",
"5 	c #4939B6",
"6 	c #6C5CB2",
"7 	c #B4B1BE",
"8 	c #F1EE30",
"9 	c #8CA4D5",
"0 	c #8FA8D7",
"a 	c #8CA4D6",
"b 	c #5B52BC",
"c 	c #523CAD",
"d 	c #D7D681",
"e 	c #776072",
"f 	c #6D5E4A",
"g 	c #D2D190",
"h 	c #C5C5B2",
"i 	c #897675",
"j 	c #817571",
"k 	c #928586",
"l 	c #96B3DA",
"m 	c #91ACD9",
"n 	c #8AA0D5",
"o 	c #9BBBDD",
"p 	c #5F5BC1",
"q 	c #3B22A8",
"r 	c #2A08A8",
"s 	c #190563",
"t 	c #4A31AB",
"u 	c #361FAE",
"v 	c #544BBB",
"w 	c #6260C2",
"x 	c #889DD4",
"y 	c #93AED8",
"z 	c #8AA1D5",
"A 	c #95B2DA",
"B 	c #5B55BF",
"C 	c #442CAA",
"D 	c #BCBCBF",
"E 	c #B0ADBD",
"F 	c #4732AC",
"G 	c #6E72C8",
"H 	c #8294D1",
"I 	c #2D0DA9",
"J 	c #696BC5",
"K 	c #8EA6D6",
"L 	c #8DA5D6",
"M 	c #A19ABB",
"N 	c #3A1BAB",
"O 	c #6E74C7",
"P 	c #90A9D7",
"Q 	c #8090D0",
"R 	c #351AAD",
"S 	c #5751BD",
"T 	c #9DBDDD",
"U 	c #97B5DB",
"V 	c #5A54BF",
"W 	c #B2A448",
"X 	c #ADA334",
"Y 	c #D4D388",
"Z 	c #DBD64F",
"` 	c #D3D757",
" .	c #BDD39C",
"..	c #91ACD8",
"+.	c #7077C8",
"@.	c #4E41B9",
"#.	c #3C2FB1",
"$.	c #422FB3",
"%.	c #625FC2",
"&.	c #4130A7",
"*.	c #BBBBBB",
"=.	c #E3E15F",
"-.	c #CDD164",
";.	c #8EA7D7",
">.	c #9CBDDD",
",.	c #6D72C7",
"'.	c #3829AF",
").	c #5C57BF",
"!.	c #5950B7",
"~.	c #8A7EB7",
"{.	c #979797",
"].	c #484848",
"^.	c #060000",
"/.	c #DBD966",
"(.	c #CAC667",
"_.	c #8EA8D7",
":.	c #96B2DB",
"<.	c #3B22AF",
"[.	c #625DB6",
"}.	c #8A96BB",
"|.	c #412298",
"1.	c #C7C6AE",
"2.	c #6F6F6F",
"3.	c #090101",
"4.	c #9F0B0B",
"5.	c #3C0404",
"6.	c #ADAB4C",
"7.	c #B6B162",
"8.	c #8BA3D5",
"9.	c #A5A071",
"0.	c #E9E322",
"a.	c #E8E222",
"b.	c #F8F624",
"c.	c #C5C30E",
"d.	c #270303",
"e.	c #D50F0F",
"f.	c #FF1212",
"g.	c #232202",
"h.	c #4E4A19",
"i.	c #5F4D5B",
"j.	c #554956",
"k.	c #615C80",
"l.	c #7F9CB2",
"m.	c #6F82AA",
"n.	c #8094C3",
"o.	c #9BBCDD",
"p.	c #A09C3B",
"q.	c #A09E0B",
"r.	c #5A0606",
"s.	c #F31111",
"t.	c #630707",
"u.	c #330404",
"v.	c #150101",
"w.	c #8095C3",
"x.	c #A2A03F",
"y.	c #99970B",
"z.	c #990B0B",
"A.	c #690707",
"B.	c #525F7D",
"C.	c #A29C6F",
"D.	c #ECE722",
"E.	c #240303",
"F.	c #CF0F0F",
"G.	c #515F7D",
"H.	c #8EA6D7",
"I.	c #7261AA",
"J.	c #BBB8AC",
"K.	c #D4D37F",
"L.	c #030000",
"M.	c #55637E",
"N.	c #3D26B1",
"O.	c #6A5BB0",
"P.	c #190565",
"Q.	c #0C0101",
"R.	c #AB0C0C",
"S.	c #5E7383",
"T.	c #686BC5",
"U.	c #5B47B3",
"V.	c #8E83B7",
"W.	c #241743",
"X.	c #41413B",
"Y.	c #6C0808",
"Z.	c #F91212",
"`.	c #5D6A73",
" +	c #787CB7",
".+	c #3414A8",
"++	c #A9A4BC",
"@+	c #E7E21B",
"#+	c #E8E647",
"$+	c #545454",
"%+	c #DE1010",
"&+	c #62600E",
"*+	c #EAE423",
"=+	c #C6BC43",
"-+	c #B0ACBD",
";+	c #BEBDC0",
">+	c #F4F131",
",+	c #686868",
"'+	c #0F0101",
")+	c #B10C0C",
"!+	c #574B88",
"~+	c #99B8DC",
"{+	c #A0C2DE",
"]+	c #A1AAA0",
"^+	c #EDE92F",
"/+	c #8A8A8A",
"(+	c #3B3B3B",
"_+	c #720808",
":+	c #360404",
"<+	c #7F755F",
"[+	c #867576",
"}+	c #B7B683",
"|+	c #7B7EB7",
"1+	c #6E73C7",
"2+	c #827D94",
"3+	c #B9B9B9",
"4+	c #6A6A6A",
"5+	c #C0BF26",
"6+	c #806E88",
"7+	c #3314A7",
"8+	c #79658E",
"9+	c #EBE948",
"0+	c #ADA492",
"a+	c #B6B3BA",
"        . .                                                     ",
"      + + + @                               # + + + @           ",
"      + + + $                               % + + + $           ",
"      + + + &               * = = = - ; > , ' + + + )           ",
"      + + + &               ! + + + ~ { ] ^ / ( _ : <           ",
"      + + + $               [ + + + } | 1 2 3 4 5 6 7           ",
"      + + + @               # + + + 8 9 0 a a 4 a b c           ",
"      d e f g               h d i j k l m n 4 4 o p q           ",
"        r s                     t u v w x y z 4 A B C           ",
"        r s                 D E F G H I J K L 9 A B C           ",
"        r s                 M N O P L Q R S T | U V C           ",
"      = W X <             Y Z W `  .a ..+.@.#.$.0 %.&.          ",
"      + + + )           *.=.+ + + -.;.4 >.,.'.$.).%.!.~.        ",
"      + + + &       {.].^./.+ + + (.l 4 z _.:.| <.[.}.|.1.      ",
"      + + + &     2.3.4.5.6.+ + + 7.A 4 4 8.a 9 z 9.0.a.b.      ",
". . . + + + c.. . d.e.f.5.g.h.i.j.k.l.m.n.4 4 4 o.p.+ + + . . . ",
". . . + + + q.. r.s.f.f.t.u.u.u.u.u.u.u.v.w.4 4 o x.+ + + . . . ",
"      + + y.3.z.f.f.f.f.f.f.f.f.f.f.f.f.A.B.8.4 a C.D.b.b.      ",
"      + y.E.F.f.f.f.f.f.f.f.f.f.f.f.f.f.A.G.H.4 5 I.J.1.1.      ",
"      K.L.F.f.f.f.f.f.f.f.f.f.f.f.f.f.f.A.M...l N.O.            ",
"        P.Q.R.f.f.f.f.f.f.f.f.f.f.f.f.f.A.S.n T.U.V.            ",
"      1.|.W.X.Y.Z.f.f.f.f.f.f.f.f.f.f.f.A.`. +.+++              ",
"      b.a.@+#+$+u.%+f.f.5.. . . . . . . &+*+=+-+;+              ",
"      + + + >+  ,+'+)+f.5.!+$.l ~+{+]++ + + ^+                  ",
"      + + + &     /+(+_+:+<+[+}+|+1+2++ + + >+                  ",
"      + + + &       3+4+5++ + + 6+7+8+b.b.b.9+                  ",
"      + + + &           $ + + + 0+-+a+1.1.1.h                   ",
"      + + + &           ) + + + !                               ",
"      + + + >+          < = = = *                               ",
"      + + + &                                                   ",
"        . .                                                     ",
"        . .                                                     "};
