/* XPM */
static char * moveEach_xpm[] = {
"32 32 225 2",
"  	c None",
". 	c #C1C1C1",
"+ 	c #BABCBF",
"@ 	c #B8BABE",
"# 	c #B9BBBE",
"$ 	c #B4B7BD",
"% 	c #AFB3BC",
"& 	c #AFB3BB",
"* 	c #AFB8C1",
"= 	c #BDBEC0",
"- 	c #919BB2",
"; 	c #899AB5",
"> 	c #8A96B0",
", 	c #ABB8C5",
"' 	c #AFBCC7",
") 	c #A9AEBA",
"! 	c #6F87B0",
"~ 	c #83ACD1",
"{ 	c #80A2C6",
"] 	c #86A0BF",
"^ 	c #95A6BC",
"/ 	c #AEBBC7",
"( 	c #A7AEB9",
"_ 	c #5972A4",
": 	c #4E89C8",
"< 	c #5E87BB",
"[ 	c #80A5CA",
"} 	c #80AAD0",
"| 	c #7F95B7",
"1 	c #93A5BD",
"2 	c #AEBBC6",
"3 	c #B6B8BE",
"4 	c #7E8EAE",
"5 	c #5998D4",
"6 	c #4FA3EA",
"7 	c #4A97DD",
"8 	c #4973B0",
"9 	c #7F93B4",
"0 	c #80A4C9",
"a 	c #80A8CD",
"b 	c #8395B4",
"c 	c #AEB7C1",
"d 	c #C0C0C1",
"e 	c #BFC0C0",
"f 	c #7E8CAC",
"g 	c #537BB3",
"h 	c #4FA0E6",
"i 	c #4CA1E9",
"j 	c #488FD4",
"k 	c #4B75B1",
"l 	c #779FC8",
"m 	c #80ADD4",
"n 	c #8495B3",
"o 	c #ADB2BB",
"p 	c #6477A4",
"q 	c #456BA9",
"r 	c #4570AF",
"s 	c #446FAE",
"t 	c #3A68AB",
"u 	c #2762B2",
"v 	c #235CAD",
"w 	c #2259A9",
"x 	c #2354A3",
"y 	c #4C9BE1",
"z 	c #4994DA",
"A 	c #499FE8",
"B 	c #487BBB",
"C 	c #77A3CE",
"D 	c #80ACD3",
"E 	c #7F8FB0",
"F 	c #B5B8BD",
"G 	c #4691D7",
"H 	c #47A1ED",
"I 	c #3E9AEA",
"J 	c #2D93EC",
"K 	c #2D9BF6",
"L 	c #2B99F5",
"M 	c #2590ED",
"N 	c #224793",
"O 	c #4B84C5",
"P 	c #499DE5",
"Q 	c #488ACD",
"R 	c #587DB2",
"S 	c #8D9CB6",
"T 	c #A1A8B7",
"U 	c #467FC1",
"V 	c #489EE8",
"W 	c #2C8EE6",
"X 	c #2D9AF5",
"Y 	c #2C9AF6",
"Z 	c #2562B3",
"` 	c #4E6BA3",
" .	c #4E8ACA",
"..	c #4E91D3",
"+.	c #5378B0",
"@.	c #99AABF",
"#.	c #9CA4B6",
"$.	c #98A1B4",
"%.	c #5D73A1",
"&.	c #254B97",
"*.	c #3164AF",
"=.	c #1664C0",
"-.	c #3060A9",
";.	c #3096EE",
">.	c #2B69B8",
",.	c #5F9FD9",
"'.	c #516EA5",
").	c #5371A7",
"!.	c #8DAAC8",
"~.	c #929CB2",
"{.	c #ACB1BB",
"].	c #7B8AAA",
"^.	c #355395",
"/.	c #2153A2",
"(.	c #2278D1",
"_.	c #2393F2",
":.	c #1B91F6",
"<.	c #1894FB",
"[.	c #1574D5",
"}.	c #2469BD",
"|.	c #3799ED",
"1.	c #6998CA",
"2.	c #6B7DA6",
"3.	c #9DA5B6",
"4.	c #8C98B1",
"5.	c #B8B9BE",
"6.	c #7182A8",
"7.	c #214896",
"8.	c #2263B6",
"9.	c #2388E5",
"0.	c #2498F9",
"a.	c #1990F6",
"b.	c #1891F8",
"c.	c #1892F9",
"d.	c #1571D1",
"e.	c #1D4392",
"f.	c #3879C4",
"g.	c #2C7ACC",
"h.	c #2B66B5",
"i.	c #B0B3BB",
"j.	c #B7B9BE",
"k.	c #B6B9BD",
"l.	c #6277A3",
"m.	c #215EB0",
"n.	c #1A91F6",
"o.	c #1787EC",
"p.	c #154CA2",
"q.	c #133C8F",
"r.	c #2B74C6",
"s.	c #2B77C9",
"t.	c #2A539D",
"u.	c #8995AF",
"v.	c #1C3F8D",
"w.	c #1F51A1",
"x.	c #254690",
"y.	c #3273BF",
"z.	c #2899F7",
"A.	c #177EE0",
"B.	c #1660BA",
"C.	c #15459A",
"D.	c #166BC8",
"E.	c #154AA0",
"F.	c #3790E2",
"G.	c #3B68AB",
"H.	c #526A9E",
"I.	c #104198",
"J.	c #127CE1",
"K.	c #1394FF",
"L.	c #1288F0",
"M.	c #115EBC",
"N.	c #113D93",
"O.	c #2E7ED1",
"P.	c #4194E1",
"Q.	c #2584DE",
"R.	c #1851A7",
"S.	c #15499E",
"T.	c #1675D6",
"U.	c #1790F6",
"V.	c #1895FD",
"W.	c #1555AE",
"X.	c #46A0EB",
"Y.	c #409CEA",
"Z.	c #455F9A",
"`.	c #949EB3",
" +	c #264790",
".+	c #115FBD",
"++	c #128EF7",
"@+	c #1276DA",
"#+	c #1053AE",
"$+	c #1B3E8D",
"%+	c #2A6FC0",
"&+	c #2696F4",
"*+	c #4AA0EA",
"=+	c #4695DD",
"-+	c #5C72A1",
";+	c #5D72A2",
">+	c #1351A9",
",+	c #238CEA",
"'+	c #188FF5",
")+	c #4D669D",
"!+	c #6B7EA6",
"~+	c #3C5897",
"{+	c #3491E6",
"]+	c #237DD8",
"^+	c #10368A",
"/+	c #104DA7",
"(+	c #1170D3",
"_+	c #103B91",
":+	c #1282E9",
"<+	c #1165C4",
"[+	c #3392E7",
"}+	c #2383DE",
"|+	c #4E679D",
"1+	c #3192E9",
"2+	c #226EC4",
"3+	c #116ACB",
"4+	c #1159B5",
"5+	c #10479F",
"6+	c #3690E2",
"7+	c #687BA5",
"8+	c #2F579E",
"9+	c #8290AD",
"0+	c #315094",
"a+	c #AAAFBA",
"b+	c #9FA6B6",
". . . . . . . . . . . . . . . . . . . . . . . . + @ @ @ @ @ # . ",
". . . . . . . . . . . . . . . . . . . . . . $ % & * * * * * & . ",
". . . . . . . . . . . . . . . . . . . . . = - ; > , ' ' ' ' & . ",
". . . . . . . . . . . . . . . . . . . . . ) ! ~ { ] ^ / ' ' & . ",
". . . . . . . . . . . . . . . . . . . . ( _ : < [ } | 1 2 ' & . ",
". . . . . . . . . . . . . . . . . . . 3 4 5 6 7 8 9 0 a b c & d ",
". . . . . . . . . . . . . . . . . . e f g h 6 i j k l m a n o d ",
". . . . . . . . . . . . . . p q r s t u v w x y z A B C D E F . ",
". . . . . . . . . . . . . . p G H I J K L M N O P A Q R S T . . ",
". . . . . . . . . . . . . = p U V W X K K Y Z `  ...+.@.#.. . . ",
". . . . . . . . . . . $.%.&.*.=.-.;.K K K K >.,.'.).!.~.= . . . ",
". . . . . . . . {.].^./.(._.:.<.[.}.|.K K K >.1.2.3.4.5.. . . . ",
". . . . . . . 6.7.8.9.0.0.0.a.b.c.d.e.f.g.g.h.2.i.. j.. . . . . ",
". . . . . . k.l.m.0.0.0.0.0.n.b.c.o.p.q.r.s.t.$.. . . . . . . . ",
". . . . . u.v.w.x.y.z.0.0.0.:.A.B.C.D.E.F.W G.. . . . . . . . . ",
". . . F H.I.J.K.L.M.N.O.P.Q.R.S.T.U.V.W.X.Y.Z.. . . . . . . . . ",
". . `. +.+++K.K.K.K.K.@+#+$+%+&+V.V.V.B.*+=+-+. . . . . . . . . ",
"F ;+I.J.K.K.K.K.K.K.K.K.K.@+>+,+'+'+'+=.)+Z.!+. . . . . . . . . ",
"~+#+++K.K.K.K.K.K.K.K.K.@+I.#+{+0.0.0.]+o . # . . . . . . . . . ",
"^+/+@+K.K.K.K.K.K.K.K.(+_+:+<+[+0.0.0.}+|+. . . . . . . . . . . ",
"~+.+/+I.(+++K.K.K.K.(+_+:+K.<+1+0._.2+7.2.. . . . . . . . . . . ",
"~+3+K.J.4+_+<+L.K..+5+++K.K.<+6+2+7.%.{.. . . . . . . . . . . . ",
"7+#+K.K.K.L.4+_+5+5+++K.K.K.<+8+%.{.. . . . . . . . . . . . . . ",
"`._+K.K.K.K.K.++5+J.K.K.K.K.<+9+. . . . . . . . . . . . . . . . ",
"F ^+:+K.K.K.K.K./+J.K.K.K.K.#+$.. . . . . . . . . . . . . . . . ",
". 0+(+K.K.K.K.K..+3+K.K.K.4+H.. . . . . . . . . . . . . . . . . ",
". 7+_+3+K.K.K.K.<+<+K.K.4+0+F . . . . . . . . . . . . . . . . . ",
". . a+~+I.@+K.K.(+#+K.3+0+F . . . . . . . . . . . . . . . . . . ",
". . . . `.0+/+J.J./+(+0+F . . . . . . . . . . . . . . . . . . . ",
". . . . . . f  +/+_+$+b+. . . . . . . . . . . . . . . . . . . . ",
". . . . . . . F 7+ +b+. . . . . . . . . . . . . . . . . . . . . ",
". . . . . . . . . . . . . . . . . . . . . . . . . . . . . . . . "};
