/* XPM */
static char * nodeBuilder_xpm[] = {
"32 32 296 2",
"  	c None",
". 	c #868686",
"+ 	c #878787",
"@ 	c #8F8F8F",
"# 	c #989897",
"$ 	c #929291",
"% 	c #898989",
"& 	c #888888",
"* 	c #978A89",
"= 	c #AD8D8C",
"- 	c #B49695",
"; 	c #B0AFAD",
"> 	c #BBBAB8",
", 	c #BEBDBB",
"' 	c #BAB9B7",
") 	c #B3B2B1",
"! 	c #AAA9A8",
"~ 	c #A3A3A2",
"{ 	c #9E9D9C",
"] 	c #939392",
"^ 	c #8D8D8D",
"/ 	c #8A8A8A",
"( 	c #8B8B8B",
"_ 	c #979696",
": 	c #A2A2A1",
"< 	c #BB9F9D",
"[ 	c #D78E8D",
"} 	c #E5807F",
"| 	c #EF7070",
"1 	c #F76464",
"2 	c #FB5D5D",
"3 	c #F26B6A",
"4 	c #E87A7A",
"5 	c #C9AA9B",
"6 	c #B6C9A9",
"7 	c #AFD29E",
"8 	c #ADD699",
"9 	c #ABD896",
"0 	c #B4CCA7",
"a 	c #B5CAAA",
"b 	c #BDBEBA",
"c 	c #BDBCBA",
"d 	c #B5B4B2",
"e 	c #C2C1C0",
"f 	c #CECECE",
"g 	c #D3D3D3",
"h 	c #A6A6A6",
"i 	c #B0B0B0",
"j 	c #B5B5B4",
"k 	c #B9B9B8",
"l 	c #BCBBBA",
"m 	c #C8C6A6",
"n 	c #D3CE91",
"o 	c #DCD77D",
"p 	c #E7DE67",
"q 	c #EDDC5C",
"r 	c #EDE45C",
"s 	c #DBD573",
"t 	c #B0AF9A",
"u 	c #7B81C3",
"v 	c #4A55EA",
"w 	c #424FF7",
"x 	c #5560ED",
"y 	c #6D75E2",
"z 	c #8F93CF",
"A 	c #D2CE96",
"B 	c #F5EC5C",
"C 	c #EDEBCA",
"D 	c #FBFBFB",
"E 	c #FDFDFD",
"F 	c #F0F0F0",
"G 	c #A5A5A5",
"H 	c #B2B2B2",
"I 	c #BEBD9E",
"J 	c #E7DF5E",
"K 	c #D7D177",
"L 	c #C7C492",
"M 	c #C8C595",
"N 	c #CCC896",
"O 	c #CAC7A2",
"P 	c #C0BFB6",
"Q 	c #B8B7BE",
"R 	c #A3A5C8",
"S 	c #9094D4",
"T 	c #9FA4E3",
"U 	c #B6BAF0",
"V 	c #D1D4F9",
"W 	c #FAF7C4",
"X 	c #FDF23B",
"Y 	c #FDFBDB",
"Z 	c #8C8C8C",
"` 	c #8E8E8E",
" .	c #BFBD9D",
"..	c #C8C58F",
"+.	c #B3B3B2",
"@.	c #B7B6B5",
"#.	c #C9C9C7",
"$.	c #DEDDDC",
"%.	c #ECECEC",
"&.	c #FCFCFC",
"*.	c #FDFAC4",
"=.	c #909090",
"-.	c #CBC78B",
";.	c #BDBDBD",
">.	c #929292",
",.	c #A7A7A7",
"'.	c #BBBAA4",
").	c #CCC988",
"!.	c #949494",
"~.	c #CDC987",
"{.	c #EDEDED",
"].	c #969696",
"^.	c #A8A8A8",
"/.	c #B7B7AA",
"(.	c #D1CC81",
"_.	c #EBEBEB",
":.	c #989898",
"<.	c #A9A9A9",
"[.	c #B6B6AB",
"}.	c #9B9B9B",
"|.	c #AAAAAA",
"1.	c #B4B4AF",
"2.	c #D4CF7B",
"3.	c #FDF4F4",
"4.	c #FCACAC",
"5.	c #F1B8B8",
"6.	c #9A9A9A",
"7.	c #9C9C9C",
"8.	c #5E67E0",
"9.	c #676FDF",
"0.	c #989BC2",
"a.	c #D5D07A",
"b.	c #FDF6D6",
"c.	c #FCB7B7",
"d.	c #FB6868",
"e.	c #F2B1B1",
"f.	c #9E9E9E",
"g.	c #5963E4",
"h.	c #3745FC",
"i.	c #4E5AEE",
"j.	c #E7DF56",
"k.	c #D7D277",
"l.	c #F9FABE",
"m.	c #E8F14A",
"n.	c #EB9268",
"o.	c #F2B4B4",
"p.	c #A0A0A0",
"q.	c #5962E4",
"r.	c #5862E8",
"s.	c #C6C392",
"t.	c #CCC889",
"u.	c #F1F2FD",
"v.	c #A3B0AD",
"w.	c #A1FB60",
"x.	c #93FC66",
"y.	c #E9795F",
"z.	c #FB8383",
"A.	c #FCD0D0",
"B.	c #9E9FAC",
"C.	c #7B81D3",
"D.	c #4D58EF",
"E.	c #525DEB",
"F.	c #B3B1B1",
"G.	c #F36666",
"H.	c #D58989",
"I.	c #B8ABAB",
"J.	c #F6F7FD",
"K.	c #A7ADFD",
"L.	c #454FF9",
"M.	c #527BD0",
"N.	c #E99E84",
"O.	c #FDD9D9",
"P.	c #E6E6E6",
"Q.	c #A1A1A1",
"R.	c #959595",
"S.	c #999CC1",
"T.	c #87BC9F",
"U.	c #9BE976",
"V.	c #BDBC62",
"W.	c #F7635D",
"X.	c #FA5E5E",
"Y.	c #E27A7A",
"Z.	c #C49D9D",
"`.	c #FBFBFD",
" +	c #AEB3FD",
".+	c #4C58FC",
"++	c #EAFDE2",
"@+	c #E3E3E3",
"#+	c #9D9D9D",
"$+	c #A0DE85",
"%+	c #F5665E",
"&+	c #EF6B6B",
"*+	c #D08F8F",
"=+	c #C1B7B7",
"-+	c #B5BAFD",
";+	c #535FFC",
">+	c #666BF7",
",+	c #B6CAC2",
"'+	c #DFDFDF",
")+	c #818181",
"!+	c #D68B82",
"~+	c #F66363",
"{+	c #D19096",
"]+	c #6F79FC",
"^+	c #D1D4FD",
"/+	c #DEFDD1",
"(+	c #DCDCDC",
"_+	c #858585",
":+	c #939393",
"<+	c #797979",
"[+	c #B0B6AE",
"}+	c #B5AFAF",
"|+	c #CE9191",
"1+	c #ED6D6D",
"2+	c #D19095",
"3+	c #767FFC",
"4+	c #D5D8FD",
"5+	c #D9D9D9",
"6+	c #808080",
"7+	c #686868",
"8+	c #999999",
"9+	c #C39E9E",
"0+	c #D39496",
"a+	c #DADDFD",
"b+	c #F1F1F1",
"c+	c #979797",
"d+	c #7E7E7E",
"e+	c #626262",
"f+	c #515151",
"g+	c #AEAEAE",
"h+	c #BCBCBC",
"i+	c #B7B7B7",
"j+	c #636363",
"k+	c #6C6C6C",
"l+	c #6F6F6F",
"m+	c #5A5A5A",
"n+	c #505050",
"o+	c #5C5C5C",
"p+	c #98D67E",
"q+	c #CCDEC4",
"r+	c #717171",
"s+	c #545454",
"t+	c #919191",
"u+	c #A3A3A3",
"v+	c #838383",
"w+	c #525252",
"x+	c #617A55",
"y+	c #8FE36B",
"z+	c #9EFB76",
"A+	c #92B284",
"B+	c #4F4F4F",
"C+	c #565656",
"D+	c #747474",
"E+	c #737373",
"F+	c #585858",
"G+	c #718E64",
"H+	c #A2A6A1",
"I+	c #B1BDAD",
"J+	c #5D625B",
"K+	c #676767",
"L+	c #777777",
"M+	c #B1B1B1",
"N+	c #B4B4B4",
"O+	c #7C7C7C",
"P+	c #6D6D6D",
"Q+	c #606060",
"R+	c #D6D6D6",
"S+	c #535353",
"T+	c #7F7F7F",
"U+	c #9F9F9F",
"V+	c #B6B6B6",
"W+	c #BABABA",
"X+	c #B3B3B3",
"Y+	c #A4A4A4",
"Z+	c #7A7A7A",
"`+	c #6A6A6A",
" @	c #5F5F5F",
".@	c #575757",
"+@	c #EFEFEF",
"@@	c #AFAFAF",
"#@	c #B8B8B8",
"$@	c #BBBBBB",
"%@	c #B5B5B5",
"&@	c #ADADAD",
"*@	c #616161",
"=@	c #5D5D5D",
"-@	c #696969",
";@	c #ACACAC",
">@	c #BEBEBE",
",@	c #6B6B6B",
"'@	c #5E5E5E",
")@	c #727272",
"!@	c #BFBFBF",
"~@	c #B9B9B9",
"{@	c #C0C0C0",
"]@	c #ABABAB",
". . . . . . . . . . . . . . . . . . . . . . . . . . . . . . . . ",
"+ + + + + + + + + + + + + + @ # $ % + + + + + + + + + + + + + + ",
"% & & & & % & & & * = - ; > , , , , ' ) ! ~ { ] ^ & & & & % & & ",
"% / / / ( _ : < [ } | 1 2 3 4 5 6 7 8 9 8 0 a b , c d e f g / % ",
"( ( h i j k l , , m n o p q r s t u v w x y z A B C D E E F ( ( ",
"^ ^ G H H I J K L M N O P , , , Q R S T U V W X X Y E E E F ^ Z ",
"` @ G H H  .X X ..H H H +.@.k #.$.%.&.E E E *.X X Y E E E F ` ` ",
"=.=.h H H I X X -.H H H H H H ;.E E E E E E *.X X Y E E E F =.=.",
">.>.,.H H '.X X ).H H H H H H ;.E E E E E E *.X X Y E E E F >.>.",
"!.!.,.H H '.X X ~.H H H H H H ;.E E E E E E *.X X Y E E E {.!.!.",
"].].^.H H /.X X (.H H H H H H ;.E E E E E E *.X X Y E E E _.].].",
":.:.<.H H [.X X (.H H H H H H ;.E E E E E E *.X X Y E E E _.:.:.",
"}.}.|.H H 1.X X 2.H H H H H H ;.E E E E E E *.X X Y E 3.4.5.}.6.",
"7.7.8.9.0.H X X a.H H H H H H ;.E E E E E E *.X X b.c.d.2 e.7.7.",
"f.f.g.h.h.i.j.X k.H H H H H H ;.E E E E E E l.X m.n.2 2 2 o.f.f.",
"p.f.q.h.h.h.r.s.t.H H H H H H ;.E E E E E u.v.w.x.y.2 z.A.%.f.p.",
"p.7.B.C.D.h.E.F.G.H.I.H H H H ;.E E E J.K.L.M.x.x.N.O.E E P.7.Q.",
"f.R.Q.H H S.T.U.V.W.X.Y.Z.H H ;.E `. +.+h.h.M.x.x.++E E E @+:.#+",
"6.Z 6.H H H $+x.x.%+2 2 2 &+*+=+-+;+h.h.h.>+,+x.x.++E E E '+@ }.",
"].)+!.H H H $+x.x.!+~+2 2 2 2 {+h.h.h.]+^+E /+x.x.++E E E (+_+:.",
":+<+=.H H H $+x.x.[+}+|+1+2 2 2+h.3+4+E E E /+x.x.++E E E 5+6+].",
":+<+7+8+H H $+x.x.[+H H H 9+Y.0+a+E E E E E /+x.x.++E E b+7.6+:.",
"c+d+e+f+<+g+$+x.x.[+H H H H H h+E E E E E E /+x.x.++E i+j+k+. 7.",
"f.& l+m+n+o+p+x.x.[+H H H H H h+E E E E E E /+x.x.q+r+s+e+<+t+u+",
",.c+v+k+o+w+x+y+x.[+H H H H H h+E E E E E E /+z+A+B+C+e+D+/ f.|.",
"g+h c+v+E+e+F+f+G+H+H H H H H h+E E E E E E I+J+s+m+K+L+/ 7.<.M+",
"N+i ,.#+^ O+P+Q+C+s+. H H H H h+E E E E R+r+S+F+j+l+T+=.U+|.H V+",
"W+V+X+g+Y+:.% Z+`+ @.@P+^.H H h+E E +@t+w+F+Q+P+Z+/ :.h @@X+#@W+",
"$@$@W+i+%@&@u+c+& Z+k+*@=@=.H h+D H =@F+Q+-@L+_+!.Q.;@X+V+W+$@h+",
";.>@;.;.h+i+X+&@u+8+( Z+,@'@D+V+)@.@ @,@<+. :+f.|.i i+W+h+;.;.>@",
"!@!@!@>@!@>@h+~@N+@@h 8+& <+P+`+K+P+<+_+!.p.<.M+V+$@;.>@>@>@>@!@",
"{@{@{@{@{@{@!@!@>@~@%@@@Y+c+^ . . ^ ].Q.]@H V+$@h+>@!@{@{@{@{@{@"};
