/* XPM */
static char * parentUnderShape_xpm[] = {
"32 32 56 1",
" 	c #C1C1C1",
".	c #A1D0B9",
"+	c #72E7AE",
"@	c #82E0B2",
"#	c #A9CCBB",
"$	c #B9C4BF",
"%	c #89DCB3",
"&	c #52F7A6",
"*	c #43FFA3",
"=	c #37E4BA",
"-	c #34DDBF",
";	c #2BC9D1",
">	c #31D6C5",
",	c #5AF3A8",
"'	c #3AEAB4",
")	c #B1C8BD",
"!	c #1394FF",
"~	c #1CA8ED",
"{	c #1FAEE8",
"]	c #62EFAA",
"^	c #22B5E2",
"/	c #6AEBAC",
"(	c #91D8B5",
"_	c #7AE3B0",
":	c #40F8A8",
"<	c #28C2D6",
"[	c #25BCDC",
"}	c #4AFBA4",
"|	c #3DF1AE",
"1	c #2ED0CB",
"2	c #D38B8B",
"3	c #DA7474",
"4	c #CBA1A1",
"5	c #ED3939",
"6	c #FF0000",
"7	c #DB7272",
"8	c #41E2AE",
"9	c #D1675B",
"0	c #FE0505",
"a	c #FD0707",
"b	c #DB6F6F",
"c	c #FA1010",
"d	c #D87878",
"e	c #169AF9",
"f	c #4EA0B0",
"g	c #E72317",
"h	c #F81414",
"i	c #C5B3B3",
"j	c #BA8169",
"k	c #FB0B0B",
"l	c #F03030",
"m	c #CC9F9F",
"n	c #C7AFAF",
"o	c #EB4040",
"p	c #99D4B7",
"q	c #D18F8F",
"                                ",
"               .+@@@@@@@@@@#    ",
"            $%&*=====-;;;;>,    ",
"            .*======='******)   ",
"            .*!!!!!!!!!!!!!*    ",
"            .*!!!!!!!!!!!!!*    ",
"            .*!!!!!!!!!!!!~,    ",
"            .*!!!!!!!!!!!!{]    ",
"            .*!!!!!!!!!!!!^/    ",
"            .*!!!!!!!!!!!!;@    ",
"            $*!!!!!!!!!!!!;@    ",
"             *!!!!!!!!!!!!>(    ",
"             *!!!!!!!!!!!!=.    ",
"     $$      *!!!!!!!!!!!!=.    ",
"    $]***,]]_*!!!!!!!!!!!!:$    ",
"   $,>!!!~{{<*;[{{{!!!!!!!*     ",
"  #&;!!!!!!!!>*}]]]***:===*     ",
" .}[!!!!!!!!!'>]      $...#     ",
" ,**|==1;;{{;={]      234       ",
" ][!~{{;;1==:{{]      567       ",
" +;!!!!!!!!!={{]      567       ",
" @>!!!!!!!!!={{]      567       ",
" %=!!!!!!!!!={{]      567       ",
" .'!!!!!!!!!={[+45    567       ",
" #*!!!!!!!!!={890a333bc6d       ",
"  *e!!!!!!!!=fg66666666hi       ",
"  *{!!!!!!!!=|jk666660lm        ",
"  ]=;[{e!!!!=*$nok              ",
"  )p@+]}*'=;|+   q              ",
"         .p@_#                  ",
"                                ",
"                                "};
