/* XPM */
static char * polyRing_xpm[] = {
"32 32 190 2",
"  	c #C1C1C1",
". 	c #9FA0B1",
"+ 	c #9396AC",
"@ 	c #AAABB6",
"# 	c #4F558D",
"$ 	c #0C156F",
"% 	c #09257C",
"& 	c #092A80",
"* 	c #0B1A73",
"= 	c #222A79",
"- 	c #5B6092",
"; 	c #888BA7",
"> 	c #B5B6BB",
", 	c #7D80A2",
"' 	c #394083",
") 	c #0A1F77",
"! 	c #064092",
"~ 	c #054596",
"{ 	c #0065B1",
"] 	c #006BB6",
"^ 	c #0160AD",
"/ 	c #025AA8",
"( 	c #666B98",
"_ 	c #044A9B",
": 	c #006BB7",
"< 	c #006CB7",
"[ 	c #07358A",
"} 	c #063B8E",
"| 	c #006CB8",
"1 	c #0066B3",
"2 	c #063B8F",
"3 	c #006CB9",
"4 	c #0356A5",
"5 	c #0A2078",
"6 	c #2D357E",
"7 	c #0A1F78",
"8 	c #054799",
"9 	c #0163B1",
"0 	c #006EBB",
"a 	c #0068B6",
"b 	c #064195",
"c 	c #171F74",
"d 	c #092B82",
"e 	c #05479A",
"f 	c #0352A3",
"g 	c #044C9E",
"h 	c #71759D",
"i 	c #006FBC",
"j 	c #07368B",
"k 	c #083187",
"l 	c #063C91",
"m 	c #0070BE",
"n 	c #006FBD",
"o 	c #0352A4",
"p 	c #162579",
"q 	c #0163B3",
"r 	c #0070BF",
"s 	c #063D93",
"t 	c #0260B1",
"u 	c #0072C1",
"v 	c #0071C1",
"w 	c #0071C0",
"x 	c #025FB0",
"y 	c #0B1A74",
"z 	c #0354A6",
"A 	c #0072C2",
"B 	c #0073C3",
"C 	c #0A2079",
"D 	c #092C84",
"E 	c #09267E",
"F 	c #035AAD",
"G 	c #05499E",
"H 	c #064499",
"I 	c #07388E",
"J 	c #035DB1",
"K 	c #006FC1",
"L 	c #0075C6",
"M 	c #092D84",
"N 	c #092D85",
"O 	c #063F95",
"P 	c #06459B",
"Q 	c #054BA0",
"R 	c #0358AD",
"S 	c #0B1B74",
"T 	c #0077CA",
"U 	c #0077C9",
"V 	c #0076C9",
"W 	c #0076C8",
"X 	c #444A88",
"Y 	c #0357AB",
"Z 	c #0075C7",
"` 	c #0075C8",
" .	c #073991",
"..	c #0A217A",
"+.	c #0452A9",
"@.	c #0078CC",
"#.	c #0078CB",
"$.	c #0077CB",
"%.	c #073990",
"&.	c #0453A9",
"*.	c #092881",
"=.	c #054EA6",
"-.	c #08348D",
";.	c #0B1B75",
">.	c #073A93",
",.	c #0359B1",
"'.	c #0079CE",
").	c #092E86",
"!.	c #0078CD",
"~.	c #0360B6",
"{.	c #092E87",
"].	c #0A217B",
"^.	c #0455AC",
"/.	c #073B94",
"(.	c #06429A",
"_.	c #0074CC",
":.	c #007BD3",
"<.	c #007BD2",
"[.	c #0074CB",
"}.	c #064199",
"|.	c #092781",
"1.	c #0266BD",
"2.	c #007ACF",
"3.	c #0267BD",
"4.	c #007CD2",
"5.	c #007CD3",
"6.	c #0075CC",
"7.	c #054EA7",
"8.	c #092F89",
"9.	c #092882",
"0.	c #007DD6",
"a.	c #0170C8",
"b.	c #08358F",
"c.	c #007DD3",
"d.	c #007DD4",
"e.	c #007DD5",
"f.	c #007ED5",
"g.	c #007ED6",
"h.	c #035DB5",
"i.	c #007FD8",
"j.	c #0649A3",
"k.	c #007ED8",
"l.	c #007ED7",
"m.	c #0363BD",
"n.	c #0A227B",
"o.	c #0170C7",
"p.	c #007FD7",
"q.	c #073C96",
"r.	c #0550AA",
"s.	c #007FD9",
"t.	c #0080D9",
"u.	c #0080DA",
"v.	c #0079D3",
"w.	c #026BC5",
"x.	c #007FDA",
"y.	c #064AA3",
"z.	c #0078D1",
"A.	c #0080DB",
"B.	c #0081DB",
"C.	c #0173CE",
"D.	c #0081DC",
"E.	c #0081DD",
"F.	c #035FBA",
"G.	c #0A227C",
"H.	c #007AD6",
"I.	c #007AD5",
"J.	c #073D97",
"K.	c #064BA5",
"L.	c #0082DD",
"M.	c #0459B4",
"N.	c #083791",
"O.	c #0082DE",
"P.	c #0082DF",
"Q.	c #0083DF",
"R.	c #0645A0",
"S.	c #083792",
"T.	c #0175D1",
"U.	c #092984",
"V.	c #0B1B76",
"W.	c #064CA7",
"X.	c #007CD8",
"Y.	c #045AB6",
"Z.	c #0084E1",
"`.	c #007DDA",
" +	c #0368C5",
".+	c #0361BE",
"++	c #064CA8",
"@+	c #0B1C76",
"#+	c #092A84",
"$+	c #09318C",
"                                                                ",
"                                                                ",
"                                                                ",
"                                                                ",
"                                                                ",
"                            . + + + @                           ",
"                @ # $ $ $ $ % & & * * = - ; >                   ",
"            , ' ) ! ~ % { ] ] ] ^ * ] / ~ & $ ' ( >             ",
"      @ ( = & _ ] : < [ } | | 1 2 [ 3 | | | 4 * 5 6 @           ",
"      ' * 7 8 9 0 0 a b $ $ $ c ' $ d e f d 5 g 0 g c .         ",
"    h d i f j * k l * # .         > ; - c k m m m n o p ,       ",
"  . * q m m r r s 6 @                   . p t u v v w x y h     ",
"> 6 z w w v A B C +                       + y D D y $ $ $ $ +   ",
"- E F G H H I E 6                           $ J J K L L L M +   ",
"' N N O P P Q R c >                       > S T U V V W W N +   ",
"X Y Z Z ` W V T  .(                       h ..+.@.@.@.#.$.N +   ",
"h %.V T $.$.@.@.&.c h >               > X *.=.-.;.>.,.'.'.).+   ",
"@ S @.!.!.'.~.{.].^./.$ # ; + + + + , = (._.:.<.[.=.*.].}.|.+   ",
"  6 1.2.3.{.].^.4.4.5.6.7.$ 8.8.8.8.9.9.0.0.0.0.0.0.0.a.b.$ h   ",
"  - /./.;.^.5.c.d.e.f.g.h.9.i.i.i.i.i.8.j.k.l.l.l.l.l.m.;.,     ",
"  . $ n.o.e.g.g.l.p.i.i.q.r.s.s.t.u.u.v.;.w.u.u.x.s.r.c .       ",
"    @ # ;.y.z.s.t.u.A.B.;.C.D.D.D.D.D.E.F.G.H.E.I.J.6 >         ",
"        @ # ;.K.I.L.L.M.N.O.O.P.Q.Q.Q.Q.Q.R.S.T.U.#             ",
"            @ # V.W.X.S.Y.Z.Z.Z.Z.`. + +.+++$ @+,               ",
"                @ # @+$ #+$+#+$ $ c ' ' X ( ( .                 ",
"                    @ h + + .                                   ",
"                                                                ",
"                                                                ",
"                                                                ",
"                                                                ",
"                                                                ",
"                                                                "};
