/* XPM */
static char * polySubSwitcher_xpm[] = {
"32 32 34 1",
" 	c None",
".	c #C1C1C1",
"+	c #B5B8BD",
"@	c #949EB3",
"#	c #7E8CAC",
"$	c #687BA5",
"%	c #3C5897",
"&	c #264790",
"*	c #10368A",
"=	c #5D72A2",
"-	c #8995AF",
";	c #104DA7",
">	c #1053AE",
",	c #1165C4",
"'	c #1276DA",
")	c #127CE1",
"!	c #1282E9",
"~	c #1394FF",
"{	c #116ACB",
"]	c #103B91",
"^	c #315094",
"/	c #104198",
"(	c #128EF7",
"_	c #1170D3",
":	c #10479F",
"<	c #1288F0",
"[	c #1159B5",
"}	c #1B3E8D",
"|	c #115FBD",
"1	c #47619B",
"2	c #7384A8",
"3	c #9FA6B6",
"4	c #526A9E",
"5	c #AAAFBA",
"................................",
"................................",
"................................",
"................................",
"+@@@#$$$%%%&**&=-+..............",
"#**;>,,,'))!~~!{>]^=-...........",
"@/>],(~~))_,,;;]*];:%...........",
"@:~<[***;;[,,))<~~~)%...........",
".*~~~;)~~~~~~~~~~~~)%...........",
".*~~~;)~~~~~~~~~~~~)%...........",
".^!~~;)~~~~~~~~~);]****}$+......",
".%)~~|{~~~~~~~<>/_<~(_]|[*#.....",
".1_~~,,~~~~~~(:[(~~~~~!:'!]#....",
".$,~~,,~~~~~~[*_~~~~~~~!](</-...",
".$|~~{|~~~~~<]';]'~~~~~(;:;/^...",
".-;~~);~~~~~[,~~)/>(<{:][]_);2..",
".@;~~);~~~~!/(~~~(|*]['~~[{~'1..",
".3*(~);~~~~);~~~~~~*~~~~~':~(*+.",
"..4[~(]~~~~);~~~~~~*~~~~~~*~~*..",
"..+^{~*~~~~':~~~~~):~~~~~~*~~*+.",
"...5})*~~~~!*:!~~~);~~~~~~*~)}..",
"....@]*(~~~)*,],<~_[~~~~~~*;*=..",
".....#*__>]^^|([]//;,,,,;]*_;-..",
"......%}4#+.+}!~~<[;,,|,')/'&+..",
".............#:(~~,,~~~~~_/]3...",
"..............=/_~'>~~~~(/}#....",
"...............@%::/{))_;%5.....",
".................-=&**}42.......",
"................................",
"................................",
"................................",
"................................"};
