/* XPM */
static char * preSuf_xpm[] = {
"32 32 80 1",
" 	c #C1C1C1",
".	c #8C8C8C",
"+	c #A7A7A7",
"@	c #AFAFAF",
"#	c #A0A0A0",
"$	c #858585",
"%	c #919191",
"&	c #8E8E8E",
"*	c #808080",
"=	c #8B8B8B",
"-	c #7B7B7B",
";	c #999999",
">	c #8D8D8D",
",	c #767676",
"'	c #717171",
")	c #6B6B6B",
"!	c #9F9F9F",
"~	c #666666",
"{	c #B7B7B7",
"]	c #777777",
"^	c #AEAEAE",
"/	c #949494",
"(	c #898989",
"_	c #6A6A6A",
":	c #5A5A5A",
"<	c #848484",
"[	c #727272",
"}	c #8F8F8F",
"|	c #555555",
"1	c #4F4F4F",
"2	c #646464",
"3	c #7F7F7F",
"4	c #5C5C5C",
"5	c #7A7A7A",
"6	c #686868",
"7	c #5F5F5F",
"8	c #4A4A4A",
"9	c #626262",
"0	c #444444",
"a	c #939393",
"b	c #3E3E3E",
"c	c #ADADAD",
"d	c #676767",
"e	c #B6B6B6",
"f	c #B5B5B5",
"g	c #3F3F3F",
"h	c #A4A4A4",
"i	c #373737",
"j	c #989898",
"k	c #464646",
"l	c #A3A3A3",
"m	c #414141",
"n	c #323232",
"o	c #535353",
"p	c #ABABAB",
"q	c #9B9B9B",
"r	c #262626",
"s	c #6C6C6C",
"t	c #454545",
"u	c #212121",
"v	c #404040",
"w	c #979797",
"x	c #1C1C1C",
"y	c #A2A2A2",
"z	c #636363",
"A	c #171717",
"B	c #3C3C3C",
"C	c #383838",
"D	c #121212",
"E	c #616161",
"F	c #2E2E2E",
"G	c #929292",
"H	c #5E5E5E",
"I	c #343434",
"J	c #909090",
"K	c #0E0E0E",
"L	c #1D1D1D",
"M	c #AAAAAA",
"N	c #0B0B0B",
"O	c #747474",
"                                ",
"                                ",
"                                ",
"        .......   .+            ",
"   @@   +##$%##   $#       @@   ",
"   &&      *#     *.=.+    &&   ",
" +#==#+    -#     -&;>&  +#==#+ ",
" >,,,,>    ,#     ,# ;,  >,,,,> ",
"   >>      '#     '# #'    >>   ",
"   >>      )!     )! !)    >>   ",
"           ~!     ~! !~         ",
"           !{     !{ {!         ",
"         {&]]>^   /]](;         ",
"   ^^    _:</[:{ }|-/>|;   ^^   ",
"   }}   ;1^  {23{1%   34   }}   ",
" +#55#+ &6    &7#8{   #8{+#55#+ ",
" 900009 (:    a8#0^   +0+900009 ",
"   <<   ;bc   |deb&   -b   <<   ",
"   33   fg9hf(ij 9kj /k,   33   ",
"         lmnnn}  fonnnd         ",
"           pq      fqf          ",
"         'rrrrr  ;rrrrr'        ",
"   pp    st      ju        pp   ",
"   66    6v      wx        66   ",
" y/11/y  zAAAAB  /AAAAA  y/11/y ",
" CDDDDC  EFGGG!  GDGGGG  CDDDDC ",
"   HH    HI      JK        HH   ",
"   44    4L4444M JN4444J   44   ",
"         OFFFFFq qFFFFFO        ",
"                                ",
"                                ",
"                                "};
