/* XPM */
static char * randTexApp_xpm[] = {
"32 32 597 2",
"  	c #C1C1C1",
". 	c #C1C2C1",
"+ 	c #C1C0C1",
"@ 	c #C1C0C0",
"# 	c #A0BCA0",
"$ 	c #90D490",
"% 	c #9FCE9F",
"& 	c #ACC9AD",
"* 	c #B8C4B7",
"= 	c #BDC2BC",
"- 	c #C0C1BE",
"; 	c #C0C0C1",
"> 	c #C1C1C0",
", 	c #A7B1A6",
"' 	c #2D852D",
") 	c #3CF33C",
"! 	c #40FA3F",
"~ 	c #42F542",
"{ 	c #4DEF4E",
"] 	c #59E859",
"^ 	c #68E168",
"/ 	c #88D487",
"( 	c #9CCE9C",
"_ 	c #A9C7AA",
": 	c #B3C5B4",
"< 	c #BDC2BE",
"[ 	c #C0C0C0",
"} 	c #C0C1C1",
"| 	c #B9BBB9",
"1 	c #3A713B",
"2 	c #09680B",
"3 	c #3BF23D",
"4 	c #3FFD3F",
"5 	c #3DFA3D",
"6 	c #3BF839",
"7 	c #37F539",
"8 	c #37F435",
"9 	c #34F135",
"0 	c #34EE34",
"a 	c #38EB38",
"b 	c #41E83F",
"c 	c #69DB68",
"d 	c #BDC1BD",
"e 	c #C0BDBD",
"f 	c #D18F90",
"g 	c #D78283",
"h 	c #DC797B",
"i 	c #DE7273",
"j 	c #DF6E6F",
"k 	c #AB6D5D",
"l 	c #0D4F06",
"m 	c #076207",
"n 	c #3FF13F",
"o 	c #41FE42",
"p 	c #40FC3E",
"q 	c #3DFA3C",
"r 	c #3AF83B",
"s 	c #38F537",
"t 	c #36F435",
"u 	c #32F132",
"v 	c #30EF30",
"w 	c #2FEC2E",
"x 	c #44E544",
"y 	c #B7C4B7",
"z 	c #C0BDBB",
"A 	c #E24942",
"B 	c #D8351A",
"C 	c #F81D1D",
"D 	c #FF191D",
"E 	c #FF191C",
"F 	c #E31F18",
"G 	c #194A03",
"H 	c #075D05",
"I 	c #3FEB3E",
"J 	c #45FE43",
"K 	c #41FE41",
"L 	c #3EFC3E",
"M 	c #3CF93B",
"N 	c #39F739",
"O 	c #37F537",
"P 	c #34F133",
"Q 	c #32F032",
"R 	c #2FEE30",
"S 	c #3BE83B",
"T 	c #B3C5B3",
"U 	c #C0C1C0",
"V 	c #A6BAA5",
"W 	c #49BE49",
"X 	c #33AF19",
"Y 	c #21B611",
"Z 	c #AA5518",
"` 	c #FE1B1D",
" .	c #D71F17",
"..	c #104D02",
"+.	c #055C05",
"@.	c #40E740",
"#.	c #46FF47",
"$.	c #44FE44",
"%.	c #41FF41",
"&.	c #3DFB3E",
"*.	c #3BF93A",
"=.	c #38F637",
"-.	c #35F434",
";.	c #32F133",
">.	c #38EA39",
",.	c #ACC6AC",
"'.	c #BDC1C1",
").	c #B6C1C3",
"!.	c #BBC0C3",
"~.	c #BCC2C2",
"{.	c #BDC0C2",
"].	c #C0C0C2",
"^.	c #799F79",
"/.	c #0EA70D",
"(.	c #11C210",
"_.	c #35A913",
":.	c #E12F1B",
"<.	c #FE1A1B",
"[.	c #CD2215",
"}.	c #0B4E02",
"|.	c #055804",
"1.	c #3FE140",
"2.	c #49FE48",
"3.	c #45FE45",
"4.	c #43FF43",
"5.	c #40FD3F",
"6.	c #3DFB3D",
"7.	c #3AF739",
"8.	c #37F535",
"9.	c #33F234",
"0.	c #31EF30",
"a.	c #35EB34",
"b.	c #A4CAA3",
"c.	c #95BCC8",
"d.	c #2BCDF2",
"e.	c #33D0F1",
"f.	c #36CFF0",
"g.	c #3CD0EE",
"h.	c #64CAE1",
"i.	c #619064",
"j.	c #057203",
"k.	c #0FBA0F",
"l.	c #10B60E",
"m.	c #10A40B",
"n.	c #A76211",
"o.	c #FE1D1C",
"p.	c #C42414",
"q.	c #064E02",
"r.	c #045704",
"s.	c #3EDB3E",
"t.	c #4AFF4B",
"u.	c #48FF48",
"v.	c #40FE40",
"w.	c #3EFC3D",
"x.	c #39F93A",
"y.	c #38F536",
"z.	c #35F233",
"A.	c #32EF31",
"B.	c #32ED32",
"C.	c #9CCB9C",
"D.	c #7AA8C3",
"E.	c #0CC6F5",
"F.	c #0CD6FF",
"G.	c #0CD5FE",
"H.	c #0DD4FE",
"I.	c #2BD2F4",
"J.	c #8CAA97",
"K.	c #0C630C",
"L.	c #037304",
"M.	c #026C02",
"N.	c #107101",
"O.	c #D3D603",
"P.	c #FE5B14",
"Q.	c #BB2812",
"R.	c #044E01",
"S.	c #025403",
"T.	c #3DD53E",
"U.	c #4CFF4D",
"V.	c #4AFF4A",
"W.	c #42FF41",
"X.	c #3EFD3F",
"Y.	c #39F638",
"Z.	c #34F335",
"`.	c #32F033",
" +	c #31ED31",
".+	c #91CF91",
"++	c #5C98C0",
"@+	c #09B9EB",
"#+	c #0DD6FF",
"$+	c #0ED5FF",
"%+	c #0CD5FF",
"&+	c #15D6FB",
"*+	c #9BC3CA",
"=+	c #598A59",
"-+	c #0A6B02",
";+	c #287F02",
">+	c #6EA702",
",+	c #F6FA04",
"'+	c #FEE805",
")+	c #B4A006",
"!+	c #055200",
"~+	c #015202",
"{+	c #3ED33D",
"]+	c #4EFE4E",
"^+	c #4AFE4B",
"/+	c #47FE47",
"(+	c #3FFD3E",
"_+	c #3CFA3C",
":+	c #39F637",
"<+	c #36F436",
"[+	c #33F032",
"}+	c #30EF31",
"|+	c #82D482",
"1+	c #4A8EBE",
"2+	c #07A0DD",
"3+	c #0BCBFC",
"4+	c #0CCAFB",
"5+	c #0EC9FA",
"6+	c #7ABED1",
"7+	c #C7AA6D",
"8+	c #BFBF07",
"9+	c #EEF504",
"0+	c #FBFC04",
"a+	c #FEFF05",
"b+	c #FFFE02",
"c+	c #EAEF03",
"d+	c #216700",
"e+	c #025201",
"f+	c #3CCE3D",
"g+	c #4FFE4F",
"h+	c #4BFE4B",
"i+	c #48FF46",
"j+	c #43FE44",
"k+	c #3BF93C",
"l+	c #38F638",
"m+	c #36F335",
"n+	c #71D871",
"o+	c #7EA4C0",
"p+	c #0482D7",
"q+	c #0290EC",
"r+	c #0390EC",
"s+	c #0F8DE5",
"t+	c #7B6395",
"u+	c #D53340",
"v+	c #FC1D16",
"w+	c #FE590D",
"x+	c #FEF805",
"y+	c #FEFF04",
"z+	c #FEFE04",
"A+	c #FFFE03",
"B+	c #FCFD03",
"C+	c #7CA301",
"D+	c #035302",
"E+	c #39C538",
"F+	c #50FF50",
"G+	c #4CFE4C",
"H+	c #46FE48",
"I+	c #44FF42",
"J+	c #40FD40",
"K+	c #3BFA3B",
"L+	c #30ED30",
"M+	c #61DC62",
"N+	c #93AEC1",
"O+	c #0686E0",
"P+	c #018AEA",
"Q+	c #1F83D7",
"R+	c #AF5D7D",
"S+	c #FA494E",
"T+	c #FF2024",
"U+	c #FE0E11",
"V+	c #FE1910",
"W+	c #FEC208",
"X+	c #FFFE04",
"Y+	c #FFFF05",
"Z+	c #C9D901",
"`+	c #0E5A01",
" @	c #34BD33",
".@	c #51FE51",
"+@	c #44FE43",
"@@	c #3FFE3F",
"#@	c #3CF93C",
"$@	c #38F539",
"%@	c #35F435",
"&@	c #31F132",
"*@	c #56E057",
"=@	c #ACB8C1",
"-@	c #3997D9",
";@	c #4A7FC3",
">@	c #C9526A",
",@	c #FD464C",
"'@	c #FE4B4D",
")@	c #FE4446",
"!@	c #FF1A1C",
"~@	c #FF0E10",
"{@	c #FE580C",
"]@	c #FEF905",
"^@	c #FEFF02",
"/@	c #DBE702",
"(@	c #196100",
"_@	c #27A127",
":@	c #46E646",
"<@	c #43EA43",
"[@	c #40EB3F",
"}@	c #3EEF3C",
"|@	c #3AED38",
"1@	c #36E935",
"2@	c #33E934",
"3@	c #31E631",
"4@	c #2FE52E",
"5@	c #2FE32E",
"6@	c #53DC54",
"7@	c #C2BFBF",
"8@	c #D09799",
"9@	c #F44D53",
"0@	c #FF4246",
"a@	c #FF4549",
"b@	c #FF494D",
"c@	c #FF4C50",
"d@	c #FE3F41",
"e@	c #FE1216",
"f@	c #FFBE08",
"g@	c #FEFD03",
"h@	c #FEFE02",
"i@	c #FDFF02",
"j@	c #B1C801",
"k@	c #3D7503",
"l@	c #0A5406",
"m@	c #065708",
"n@	c #085908",
"o@	c #085A08",
"p@	c #085C08",
"q@	c #0A5D0B",
"r@	c #126212",
"s@	c #297228",
"t@	c #3E7E3D",
"u@	c #669B67",
"v@	c #8FB48F",
"w@	c #A6BFA7",
"x@	c #C3BABB",
"y@	c #DF7E7F",
"z@	c #FB4246",
"A@	c #FF3D41",
"B@	c #FF4045",
"C@	c #FF4447",
"D@	c #FE474A",
"E@	c #FE4C50",
"F@	c #FE3234",
"G@	c #FF1011",
"H@	c #FF3010",
"I@	c #FFB706",
"J@	c #FFF602",
"K@	c #F2F813",
"L@	c #B2C96F",
"M@	c #53938D",
"N@	c #449091",
"O@	c #78967F",
"P@	c #7D977F",
"Q@	c #829A83",
"R@	c #90A18F",
"S@	c #A7B1A7",
"T@	c #B7BAB7",
"U@	c #BEBFBD",
"V@	c #BFC1C0",
"W@	c #C7B3B3",
"X@	c #EA6366",
"Y@	c #FD3A3E",
"Z@	c #FF3B3E",
"`@	c #FE3D40",
" #	c #FE3F43",
".#	c #FE474B",
"+#	c #FF4A4F",
"@#	c #FF4B4F",
"##	c #FF2529",
"$#	c #FE0F10",
"%#	c #FE1610",
"&#	c #E16228",
"*#	c #61C4A2",
"=#	c #3FBACC",
"-#	c #16ACF7",
";#	c #0AA9FD",
">#	c #0BA9FC",
",#	c #81B9D6",
"'#	c #BFC0C0",
")#	c #CEA3A3",
"!#	c #F15356",
"~#	c #FF3739",
"{#	c #FE373B",
"]#	c #FE3A3D",
"^#	c #FE3B40",
"/#	c #FE3D42",
"(#	c #FF4044",
"_#	c #FF4347",
":#	c #FF464B",
"<#	c #FF484D",
"[#	c #FF4C4E",
"}#	c #FE494B",
"|#	c #FF1C1F",
"1#	c #EA1A24",
"2#	c #2595DF",
"3#	c #05A9FE",
"4#	c #04AAFE",
"5#	c #06A9FE",
"6#	c #27ADF4",
"7#	c #ABBEC3",
"8#	c #A5B9A4",
"9#	c #B7BEB8",
"0#	c #D2999A",
"a#	c #F64346",
"b#	c #FE3437",
"c#	c #FE3538",
"d#	c #FE363A",
"e#	c #FE383B",
"f#	c #FE3C40",
"g#	c #FE3E43",
"h#	c #FE4146",
"i#	c #FE4347",
"j#	c #FE4749",
"k#	c #FE4A4D",
"l#	c #FF4043",
"m#	c #FE1416",
"n#	c #FC1114",
"o#	c #5D73AA",
"p#	c #04A9FF",
"q#	c #04AAFF",
"r#	c #05A8FF",
"s#	c #07A9FE",
"t#	c #26A3A1",
"u#	c #139116",
"v#	c #52A952",
"w#	c #BEC0BE",
"x#	c #DC8081",
"y#	c #FE3436",
"z#	c #FE3236",
"A#	c #FF3537",
"B#	c #FF343A",
"C#	c #FE3B3F",
"D#	c #FE4042",
"E#	c #FF4146",
"F#	c #FF4348",
"G#	c #FE484C",
"H#	c #FF3134",
"I#	c #FE1113",
"J#	c #BB3851",
"K#	c #0CA6F9",
"L#	c #06A9FF",
"M#	c #05A9FF",
"N#	c #06A6EA",
"O#	c #0B903F",
"P#	c #469F46",
"Q#	c #BBBFBB",
"R#	c #C3BBBA",
"S#	c #E76668",
"T#	c #FD3337",
"U#	c #FF3437",
"V#	c #FE3439",
"W#	c #FF373A",
"X#	c #FF3A3C",
"Y#	c #FF3C40",
"Z#	c #FE4043",
"`#	c #FF4144",
" $	c #FE4447",
".$	c #FE464A",
"+$	c #FE484B",
"@$	c #FE474C",
"#$	c #FE2629",
"$$	c #EA1C24",
"%$	c #2495E1",
"&$	c #05AAFE",
"*$	c #06ABFE",
"=$	c #2CAADD",
"-$	c #B3BCBB",
";$	c #C5B4B5",
">$	c #F14F52",
",$	c #FF3237",
"'$	c #FF3337",
")$	c #FF3538",
"!$	c #FE363B",
"~$	c #FF383D",
"{$	c #FE393D",
"]$	c #FF3B3F",
"^$	c #FF3E41",
"/$	c #FF3F44",
"($	c #FF4448",
"_$	c #FF474B",
":$	c #E82933",
"<$	c #2396E2",
"[$	c #05AAFF",
"}$	c #06ACFF",
"|$	c #05AFFE",
"1$	c #0EB4FB",
"2$	c #9DC0CB",
"3$	c #CDA7A6",
"4$	c #F4464A",
"5$	c #FE3336",
"6$	c #FE3639",
"7$	c #FF373C",
"8$	c #FF3A3E",
"9$	c #FE3F42",
"0$	c #FE4143",
"a$	c #FE4245",
"b$	c #F54951",
"c$	c #9A6B8E",
"d$	c #0CA9F8",
"e$	c #06B1FF",
"f$	c #05B5FE",
"g$	c #06BDFF",
"h$	c #05C1FE",
"i$	c #06C4FE",
"j$	c #14C3FA",
"k$	c #A7C1C9",
"l$	c #C1BFC0",
"m$	c #D19B9C",
"n$	c #FA3B3F",
"o$	c #FE3235",
"p$	c #FF3338",
"q$	c #FF3639",
"r$	c #FF373B",
"s$	c #FF3C3F",
"t$	c #FF3F41",
"u$	c #FE4044",
"v$	c #D0505E",
"w$	c #4D97C8",
"x$	c #0CBBFA",
"y$	c #05C1FF",
"z$	c #05C3FF",
"A$	c #04C5FE",
"B$	c #06C4FF",
"C$	c #05C4FE",
"D$	c #05C3FE",
"E$	c #22C4F4",
"F$	c #B5C1C4",
"G$	c #C2BEBF",
"H$	c #DB8081",
"I$	c #FD3539",
"J$	c #FF3436",
"K$	c #FF3638",
"L$	c #FE3539",
"M$	c #FE373C",
"N$	c #FE3A3F",
"O$	c #FB4347",
"P$	c #E17A7C",
"Q$	c #6A8BA8",
"R$	c #06B9F4",
"S$	c #05C4FF",
"T$	c #04C4FE",
"U$	c #06C5FE",
"V$	c #36C3EF",
"W$	c #BDC1C2",
"X$	c #C2BDBC",
"Y$	c #E37174",
"Z$	c #FF3438",
"`$	c #FD393D",
" %	c #F0595B",
".%	c #CFA0A1",
"+%	c #C1BEBE",
"@%	c #8EA8B9",
"#%	c #0AB1EA",
"$%	c #04C4FF",
"%%	c #5BC1E1",
"&%	c #BFC0C1",
"*%	c #C4B6B6",
"=%	c #EF565A",
"-%	c #FF3335",
";%	c #F94044",
">%	c #DD7F82",
",%	c #C3B9B9",
"'%	c #B2B9BE",
")%	c #1BB3E6",
"!%	c #04C3FE",
"~%	c #07C4FE",
"{%	c #10C4FB",
"]%	c #2AC3F2",
"^%	c #8CC1D2",
"/%	c #CBABAB",
"(%	c #F3494D",
"_%	c #FD3438",
":%	c #EE5B5D",
"<%	c #CDA4A3",
"[%	c #C1C0BF",
"}%	c #BBBFC1",
"|%	c #38BAE4",
"1%	c #08C3FE",
"2%	c #0EC3FC",
"3%	c #25C2F3",
"4%	c #45C3EA",
"5%	c #80C1D6",
"6%	c #A3C1CB",
"7%	c #B8C2C2",
"8%	c #C0C0BF",
"9%	c #CEA2A2",
"0%	c #D58E90",
"a%	c #80BAD0",
"b%	c #7FC1D6",
"c%	c #9FC1CB",
"d%	c #B7C0C4",
"e%	c #BEC0C1",
"f%	c #BFBFC0",
"                                      . + @                     ",
"                                      # $ % & * = - ; ;         ",
"                                  > , ' ) ! ~ { ] ^ / ( _ : < [ ",
"                      + } + } @ } | 1 2 3 4 5 6 7 8 9 0 a b c d ",
"                      e f g h i j k l m n o p q r s t u v w x y ",
"                    + z A B C D E F G H I J K L M N O P Q R S T ",
"                  U V W X Y Z ` E  ...+.@.#.$.%.&.*.=.-.;.v >.,.",
"        '.).!.~.{.].^./.(.(._.:.<.[.}.|.1.2.3.4.5.6.7.8.9.0.a.b.",
"      } c.d.e.f.g.h.i.j.k.l.m.n.o.p.q.r.s.t.u.$.v.w.x.y.z.A.B.C.",
"      [ D.E.F.G.H.I.J.K.L.M.N.O.P.Q.R.S.T.U.V.3.W.X.r Y.Z.`. +.+",
"      U ++@+#+$+%+&+*+=+-+;+>+,+'+)+!+~+{+]+^+/+4.(+_+:+<+[+}+|+",
"      ; 1+2+3+3+4+5+6+7+8+9+0+a+b+c+d+e+f+g+h+i+j+5.k+l+m+`.v n+",
"      @ o+p+q+r+s+t+u+v+w+x+y+z+A+B+C+D+E+F+G+H+I+J+K+l+-.;.L+M+",
"      ; N+O+P+Q+R+S+T+U+V+W+y+X+Y+A+Z+`+ @.@G+/++@@@#@$@%@&@R *@",
"        =@-@;@>@,@'@)@!@~@{@]@y+X+^@/@(@_@:@<@[@}@|@1@2@3@4@5@6@",
"      } 7@8@9@0@a@b@c@d@e@V+f@g@h@i@j@k@l@m@n@o@p@q@r@s@t@u@v@w@",
"    > x@y@z@A@B@C@D@'@E@F@G@H@I@J@B+K@L@M@N@O@P@Q@R@S@T@U@V@+   ",
"    W@X@Y@Z@`@ #0@a@.#+#@###$#%#&#*#=#-#;#>#,#'#U @             ",
"[ )#!#~#{#]#^#/#(#_#:#<#[#}#|#$#1#2#3#4#3#5#6#7#8#9#[           ",
"0#a#b#c#d#e#]#f#g#h#i#j#k#E@l#m#n#o#p#q#3#r#s#t#u#v#w#          ",
"x#y#z#A#B#e#]#C#A@D#E#F#.#G#+#H#I#J#K#L#4#M#M#N#O#P#Q#          ",
"R#S#T#U#V#W#{#X#f#Y#Z#`# $.$+$@$#$$$%$L#M#&$*$3#=$-$[           ",
"> ;$>$,$'$)$!$~${$]$^$/$0@($a@_$ $:$<$M#L#[$}$|$1$2$            ",
"    3$4$5$b#)$6$7$8$C#`@9$0$a$C@b$c$d$e$f$g$h$i$j$k$            ",
"    l$m$n$o$p$V#q$r$]#s$A@t$u$v$w$x$y$z$A$B$C$D$E$F$            ",
"      G$H$I$J$U#K$L$M$]#N$O$P$Q$R$C$S$D$z$T$U$S$V$W$            ",
"        X$Y$b#z#Z$L$~#`$ %.%+%@%#%i$z$z$T$$%D$D$%%&%            ",
"        > *%=%-%5$U#;%>%,%[   '%)%B$$%$%!%~%{%]%^%}             ",
"          @ /%(%_%:%<%[%}     }%|%1%2%3%4%5%6%7%'#+             ",
"            8%9%0%R#>         } a%b%c%d%e%  @                   ",
"              @ + }           + f%U @                           ",
"                                                                "};
