/* XPM */
static char * reloadTextures_xpm[] = {
"32 32 428 2",
"  	c #101098",
". 	c #1018A0",
"+ 	c #1010A0",
"@ 	c #1818A0",
"# 	c #10189E",
"$ 	c #0F0F88",
"% 	c #0F0F91",
"& 	c #0D0D81",
"* 	c #0B106A",
"= 	c #110D56",
"- 	c #160C4D",
"; 	c #0D0A64",
"> 	c #0D137F",
", 	c #101898",
"' 	c #1820A0",
") 	c #17179B",
"! 	c #160C52",
"~ 	c #090834",
"{ 	c #190839",
"] 	c #0F0836",
"^ 	c #2E083A",
"/ 	c #5E0833",
"( 	c #740833",
"_ 	c #800833",
": 	c #640833",
"< 	c #32083A",
"[ 	c #1820A8",
"} 	c #161053",
"| 	c #550A35",
"1 	c #B50A33",
"2 	c #B50A36",
"3 	c #260C3D",
"4 	c #100B37",
"5 	c #3D0C39",
"6 	c #11146B",
"7 	c #2028A8",
"8 	c #2020A8",
"9 	c #1A2189",
"0 	c #2E0E3D",
"a 	c #B70A36",
"b 	c #340C3D",
"c 	c #140E3A",
"d 	c #B70D36",
"e 	c #AA0A36",
"f 	c #0D0E37",
"g 	c #1F27A3",
"h 	c #171867",
"i 	c #181865",
"j 	c #1F27A6",
"k 	c #120E3D",
"l 	c #A60D36",
"m 	c #2F1C28",
"n 	c #672D13",
"o 	c #DB2E0D",
"p 	c #DB310A",
"q 	c #DB2E0A",
"r 	c #D62912",
"s 	c #C91F21",
"t 	c #52131E",
"u 	c #121C1C",
"v 	c #330E3D",
"w 	c #161A6D",
"x 	c #2030B0",
"y 	c #2030A8",
"z 	c #1D1C68",
"A 	c #4F0E39",
"B 	c #B70F39",
"C 	c #B70D39",
"D 	c #BA0F39",
"E 	c #B70F36",
"F 	c #BF2717",
"G 	c #3B340E",
"H 	c #433A09",
"I 	c #C43108",
"J 	c #DE3108",
"K 	c #D92E0A",
"L 	c #C41C0F",
"M 	c #B51A08",
"N 	c #A82108",
"O 	c #102015",
"P 	c #2028B0",
"Q 	c #2830B0",
"R 	c #252DA5",
"S 	c #16113D",
"T 	c #D1241A",
"U 	c #53340C",
"V 	c #7F7814",
"W 	c #827A15",
"X 	c #523709",
"Y 	c #DB2E08",
"Z 	c #CE2705",
"` 	c #BA1A03",
" .	c #B51C05",
"..	c #552305",
"+.	c #18430F",
"@.	c #287040",
"#.	c #2838B0",
"$.	c #2838B8",
"%.	c #1E1C56",
"&.	c #601239",
"*.	c #BA123B",
"=.	c #BA1239",
"-.	c #C2172E",
";.	c #752B10",
">.	c #564E0D",
",.	c #909018",
"'.	c #554C0C",
").	c #803208",
"!.	c #D12705",
"~.	c #B51A03",
"{.	c #B51F05",
"].	c #122306",
"^.	c #1E6A0F",
"/.	c #287818",
"(.	c #287038",
"_.	c #3040B8",
":.	c #3038B8",
"<.	c #2F37B4",
"[.	c #12133D",
"}.	c #90153B",
"|.	c #BC153B",
"1.	c #BC123B",
"2.	c #C0241C",
"3.	c #38320B",
"4.	c #8C8C17",
"5.	c #4A400A",
"6.	c #713208",
"7.	c #BA1703",
"8.	c #B51703",
"9.	c #B51C03",
"0.	c #5B1F05",
"a.	c #193709",
"b.	c #207010",
"c.	c #207810",
"d.	c #288018",
"e.	c #287838",
"f.	c #2D3CAD",
"g.	c #201D53",
"h.	c #3D1743",
"i.	c #A9153B",
"j.	c #4D2F17",
"k.	c #777714",
"l.	c #58520E",
"m.	c #383208",
"n.	c #312A06",
"o.	c #241A03",
"p.	c #2F1A03",
"q.	c #321D03",
"r.	c #581D05",
"s.	c #1F2306",
"t.	c #1C5A0E",
"u.	c #18490A",
"v.	c #1D4609",
"w.	c #3848C0",
"x.	c #3840B8",
"y.	c #3048B8",
"z.	c #3848B8",
"A.	c #263897",
"B.	c #161B2C",
"C.	c #4B2211",
"D.	c #B61C2C",
"E.	c #5A1840",
"F.	c #494022",
"G.	c #908818",
"H.	c #888818",
"I.	c #69690F",
"J.	c #253B07",
"K.	c #0E3807",
"L.	c #134007",
"M.	c #134607",
"N.	c #11410B",
"O.	c #15530E",
"P.	c #1B560D",
"Q.	c #142A06",
"R.	c #4B2706",
"S.	c #172A06",
"T.	c #25760F",
"U.	c #288038",
"V.	c #2C3896",
"W.	c #25307F",
"X.	c #262768",
"Y.	c #26235D",
"Z.	c #1E1F3A",
"`.	c #113415",
" +	c #17400A",
".+	c #0E2712",
"++	c #1B2037",
"@+	c #656D65",
"#+	c #707810",
"$+	c #284008",
"%+	c #104008",
"&+	c #104808",
"*+	c #185008",
"=+	c #185808",
"-+	c #175C0F",
";+	c #1A3508",
">+	c #2C2606",
",+	c #A02405",
"'+	c #B72405",
")+	c #5E2705",
"!+	c #1A3C08",
"~+	c #288010",
"{+	c #288818",
"]+	c #308050",
"^+	c #3850C0",
"/+	c #242456",
"(+	c #421D48",
"_+	c #6B1A3E",
":+	c #7F1A3E",
"<+	c #8B1A40",
"[+	c #861527",
"}+	c #80150A",
"|+	c #112106",
"1+	c #307848",
"2+	c #507070",
"3+	c #808828",
"4+	c #103808",
"5+	c #13360A",
"6+	c #0C2005",
"7+	c #5B2205",
"8+	c #B72105",
"9+	c #B72705",
"0+	c #232B06",
"a+	c #236F0E",
"b+	c #288820",
"c+	c #4058C8",
"d+	c #4050C8",
"e+	c #2B316E",
"f+	c #631D42",
"g+	c #C21A40",
"h+	c #BA1729",
"i+	c #B5150D",
"j+	c #452206",
"k+	c #17470B",
"l+	c #388038",
"m+	c #688040",
"n+	c #707018",
"o+	c #304008",
"p+	c #184808",
"q+	c #154E0E",
"r+	c #1C2206",
"s+	c #AE1F05",
"t+	c #872705",
"u+	c #1D3807",
"v+	c #288810",
"w+	c #394FB4",
"x+	c #271F47",
"y+	c #C21C40",
"z+	c #BC1729",
"A+	c #B5170D",
"B+	c #B51A05",
"C+	c #B51F03",
"D+	c #AC2105",
"E+	c #0F2605",
"F+	c #1F7710",
"G+	c #387828",
"H+	c #284010",
"I+	c #163108",
"J+	c #5B2005",
"K+	c #2E2B06",
"L+	c #21690D",
"M+	c #4860D0",
"N+	c #2A387F",
"O+	c #652042",
"P+	c #BC1A2C",
"Q+	c #B71F05",
"R+	c #4F2605",
"S+	c #17490A",
"T+	c #103008",
"U+	c #185810",
"V+	c #186010",
"W+	c #0B1F05",
"X+	c #932705",
"Y+	c #183507",
"Z+	c #303572",
"`+	c #7A1A2C",
" @	c #B51705",
".@	c #5E2405",
"+@	c #3C2806",
"@@	c #0B2705",
"#@	c #206F10",
"$@	c #17420B",
"%@	c #372606",
"&@	c #1A2B06",
"*@	c #25740F",
"=@	c #5068D8",
"-@	c #263052",
";@	c #5B150D",
">@	c #B21703",
",@	c #A82105",
"'@	c #122806",
")@	c #19560D",
"!@	c #162C07",
"~@	c #0C2E05",
"{@	c #206010",
"]@	c #206810",
"^@	c #1A3208",
"/@	c #5E2105",
"(@	c #0E2705",
"_@	c #287F10",
":@	c #3858A0",
"<@	c #163B25",
"[@	c #151903",
"}@	c #AB1A03",
"|@	c #212606",
"1@	c #1C620E",
"2@	c #083008",
"3@	c #185010",
"4@	c #113E0B",
"5@	c #1F630F",
"6@	c #0E2305",
"7@	c #AE2405",
"8@	c #432B06",
"9@	c #1A3B08",
"0@	c #184038",
"a@	c #162704",
"b@	c #0C1E03",
"c@	c #472206",
"d@	c #1A2506",
"e@	c #1D5F0F",
"f@	c #186008",
"g@	c #0E2206",
"h@	c #17460A",
"i@	c #412806",
"j@	c #2C2C06",
"k@	c #0C2705",
"l@	c #1A3D08",
"m@	c #287810",
"n@	c #152E09",
"o@	c #3B2206",
"p@	c #081F05",
"q@	c #0C2205",
"r@	c #152406",
"s@	c #0B1903",
"t@	c #091100",
"u@	c #0D1403",
"v@	c #0D1703",
"w@	c #0F1A03",
"x@	c #0F1D03",
"y@	c #162B04",
"z@	c #153309",
"A@	c #4A2105",
"B@	c #174A0B",
"C@	c #19530D",
"D@	c #174C0C",
"E@	c #15450B",
"F@	c #193407",
"G@	c #152706",
"H@	c #142706",
"I@	c #262906",
"J@	c #1D6F0F",
"K@	c #175A0F",
"L@	c #A80F03",
"M@	c #A10F03",
"N@	c #A11503",
"O@	c #A11703",
"P@	c #A31703",
"Q@	c #A31A03",
"R@	c #A31C03",
"S@	c #0A1D05",
"T@	c #14500D",
"U@	c #2A2306",
"V@	c #5E1F05",
"W@	c #352606",
"X@	c #482406",
"Y@	c #602105",
"Z@	c #892405",
"`@	c #582505",
" #	c #194309",
".#	c #193C09",
"+#	c #B20D03",
"@#	c #B20F03",
"##	c #B21503",
"$#	c #AF1C03",
"%#	c #185F10",
"&#	c #112406",
"*#	c #9D1F05",
"=#	c #122706",
"-#	c #1E720F",
";#	c #186810",
">#	c #1F650F",
",#	c #AE1A03",
"'#	c #0A1D03",
")#	c #133909",
"!#	c #4D2105",
"~#	c #5B2505",
"{#	c #194209",
"]#	c #133105",
"^#	c #481003",
"/#	c #B21203",
"(#	c #175E0F",
"_#	c #0A2005",
":#	c #192706",
"<#	c #1D670F",
"[#	c #082F08",
"}#	c #051003",
"|#	c #A71203",
"1#	c #582005",
"2#	c #552505",
"3#	c #193E09",
"4#	c #0C2405",
"5#	c #381703",
"6#	c #1F5C0F",
"7#	c #0D2305",
"8#	c #A82405",
"9#	c #1F6D0F",
"0#	c #083000",
"a#	c #112504",
"b#	c #3D1903",
"c#	c #5E1A03",
"d#	c #5E1C05",
"e#	c #5E1C03",
"f#	c #5E1F03",
"g#	c #602405",
"h#	c #0B2405",
"i#	c #1E690F",
"j#	c #123C06",
"k#	c #103505",
"l#	c #103A05",
"m#	c #103A0B",
"n#	c #103F0B",
"o#	c #175B0F",
"p#	c #1A3007",
"q#	c #154A0B",
"r#	c #164D0B",
"s#	c #082800",
"t#	c #1E630F",
"u#	c #082808",
"                                                                ",
". +   . . . + @ .   # $ % & * = - ; * * * >   . . . .     , . @ ",
"@ ' @ @ @ @ @ @ ) ! ~ { ] ^ / ( _ : / / / < - @ @ @ @ @ @ @ @ @ ",
"' ' ' ' ' ' ' [ } | 1 2 2 3 4 1 1 1 2 2 1 1 5 6 ' ' ' [ ' ' ' [ ",
"[ 7 8 7 7 [ [ 9 0 a a a 1 a b c 2 d 2 d d 2 e f g h i 8 ' 8 [ 7 ",
"7 7 7 7 7 7 j k l d d d d d d m n o p q r s d t u v w 7 7 7 7 7 ",
"x x x y 7 x z A B C D E C B F G H I J J J K L M N O x P x x Q Q ",
"Q Q Q Q Q R S B D D D D D T U V W X J J Y Z `  ...+.@.Q #.Q Q Q ",
"#.#.#.#.$.%.&.*.=.=.*.*.-.;.>.,.,.'.).Y !.` ~.{.].^./.(.$.Q $.$.",
"_.:.:.:.<.[.}.|.1.|.|.|.2.3.4.,.,.5.6.!.7.8.9.0.a.b.c.d.e.:.:.:.",
"_._._._._.f.g.h.i.|.|.|.j.k.,.,.l.m.n.o.p.q.r.s.t.b.u.v.d.e._._.",
"w.w._.w.x.y.z.A.B.C.D.E.F.,.,.G.H.I.J.K.L.M.N.O.P.Q.R.S.T.d.U.w.",
"w.w.V.W.X.Y.Y.Z.`. +.+++@+H.H.H.#+$+%+&+*+=+-+;+>+,+'+)+!+~+{+]+",
"^+/+(+_+:+<+[+}+|+b.d.1+2+3+H.#+$+4+&+*+=+5+6+7+8+'+'+9+0+a+~+b+",
"c+d+e+f+g+h+i+ .j+k+c.d.l+m+n+o+4+%+p+*+q+r+s+8+8+'+'+'+t+u+~+v+",
"c+w+x+y+z+A+B+C+D+E+F+~+{+G+H+4+%+&+*+=+=+I+J+8+8+8+'+'+9+K+L+~+",
"M+N+O+P+i+B+ .Q+8+R+S+~+c.&+T+%+p+*+*+U+V+-+W+D+8+'+'+'+9+X+Y+~+",
"M+Z+`+i+ @ .{.8+.@+@@@#@%+T+4+&+*+*+U+V+V+V+$@%@8+'+'+'+9+9+&@*@",
"=@-@;@>@9.{.Q+,@'@)@!@~@T+4+&+*+*+=+U+V+V+{@]@^@/@'+'+'+9+9+(@_@",
":@<@[@}@ .{.8+|@1@]@&+2@4+%+p+*+3@U+V+V+4@{@]@5@6@7@'+'+'+8@9@c.",
"0@&+a@b@c@8+8+d@e@p+2@4+%+p+*+*+U+U+f@V+g@]@]@]@h@i@'+'+j@k@l@m@",
"%+*+n@o@p@q@r@r@s@t@u@v@w@x@x@y@=+U+V+z@A@B@C@D@E@F@G@H@I@S.J@m@",
"*+=+K@|+8+8+8+8.L@M@N@O@P@Q@R@S@=+V+T@U@V@W@W@X@Y@Z@'+'+`@ #c.c.",
"=+U+V+.#..8+8.+#@###>@>@~.~.$#S@U+%#&#*#8+8+8+8+'+'+'+'+=#-#c.c.",
"f@V+;#>#q@,#@#@#####>@~.~.9.$#'#f@)#!#8+8+8+8+8+'+'+'+~#{#c.c.c.",
"V+V+]@]@]#^#@#/###8.~.~.9.9. .p@(#_#{.8+8+8+8+'+'+'+'+:#<#c.c.c.",
"{@]@]@*+[#}#|###8.~.~.9. .9. ._#(#z@1#8+8+8+8+8+'+'+2#3#b.c.c.c.",
"]@]@*+2@T+4#5#>@~.~.9.9. .{.{._#(#6#7#D+8+8+8+'+'+8#'@9#c.c.c.c.",
"]@*+2@0#4+%+a#b#c#c#d#e#e#f#V@_#(#]@$@%@,@Y@g#g#2#h#i#b.c.c.c.c.",
"U+T+0#4+%+&+p+j#k#l#l#l#m#n#n#o#{@{@]@p#7+E@E@q#r#9#b.b.b.c.c.c.",
"T+s#4+%+%+&+*+*+=+=+=+U+V+V+{@{@{@]@]@t#].t#b.b.b.b.b.b.c.c.c.c.",
"u#4+%+%+p+*+*+*+=+=+=+f@V+V+V+V+]@]@]@]@ +b.b.b.b.b.b.b.c.c.c.c."};
