/* XPM */
static char * transferUV_xpm[] = {
"32 32 242 2",
"  	c #C1C1C1",
". 	c #7C7C7C",
"+ 	c #6D6D6D",
"@ 	c #6B6B6B",
"# 	c #686868",
"$ 	c #676767",
"% 	c #717171",
"& 	c #343434",
"* 	c #606060",
"= 	c #919191",
"- 	c #7B7B7B",
"; 	c #959595",
"> 	c #999999",
", 	c #979797",
"' 	c #949494",
") 	c #939393",
"! 	c #929292",
"~ 	c #7F7F7F",
"{ 	c #040404",
"] 	c #000000",
"^ 	c #252525",
"/ 	c #565656",
"( 	c #1B1B1B",
"_ 	c #0D0D0D",
": 	c #333333",
"< 	c #6A6A6A",
"[ 	c #A1A1A1",
"} 	c #AFAFAF",
"| 	c #AEAEAE",
"1 	c #ADADAD",
"2 	c #ABABAB",
"3 	c #AAAAAA",
"4 	c #1E1E1E",
"5 	c #B1B1B1",
"6 	c #121212",
"7 	c #080808",
"8 	c #3B3B3B",
"9 	c #818181",
"0 	c #B4B4B4",
"a 	c #BCBCBC",
"b 	c #BABABA",
"c 	c #292929",
"d 	c #A8A8A8",
"e 	c #050505",
"f 	c #0E0E0E",
"g 	c #525252",
"h 	c #A3A3A3",
"i 	c #313131",
"j 	c #909090",
"k 	c #2F0000",
"l 	c #181818",
"m 	c #696969",
"n 	c #1F0000",
"o 	c #EE0000",
"p 	c #0C0C0C",
"q 	c #828282",
"r 	c #303030",
"s 	c #060606",
"t 	c #A6A6A6",
"u 	c #3C3C3C",
"v 	c #0F0000",
"w 	c #CE0000",
"x 	c #FE0000",
"y 	c #5F0000",
"z 	c #ACACAC",
"A 	c #C9C9C9",
"B 	c #C7C7C7",
"C 	c #C4C4C4",
"D 	c #4D4D4D",
"E 	c #0B0B0B",
"F 	c #B9B9B9",
"G 	c #9E9E9E",
"H 	c #878787",
"I 	c #767676",
"J 	c #2B2B2B",
"K 	c #9F0000",
"L 	c #BE0000",
"M 	c #C6C6C6",
"N 	c #D45E5E",
"O 	c #737373",
"P 	c #A5A5A5",
"Q 	c #A2A2A2",
"R 	c #6E6E6E",
"S 	c #7A7A7A",
"T 	c #858585",
"U 	c #888888",
"V 	c #1A1A1A",
"W 	c #3F0000",
"X 	c #FF0000",
"Y 	c #BEBEBE",
"Z 	c #C8C8C8",
"` 	c #C5C5C5",
" .	c #C2C2C2",
"..	c #D95454",
"+.	c #EB0000",
"@.	c #B8B8B8",
"#.	c #B5B5B5",
"$.	c #9F9F9F",
"%.	c #6F6F6F",
"&.	c #898989",
"*.	c #A0A0A0",
"=.	c #868686",
"-.	c #7F0000",
";.	c #BBBBBB",
">.	c #CB8F8F",
",.	c #BA9D9D",
"'.	c #B2B2B2",
").	c #B3B3B3",
"!.	c #363636",
"~.	c #BF0000",
"{.	c #BFBFBF",
"].	c #BFB0B0",
"^.	c #EC0B0B",
"/.	c #C66060",
"(.	c #A7A7A7",
"_.	c #989898",
":.	c #CFCFCF",
"<.	c #D3D3D3",
"[.	c #D7D7D7",
"}.	c #DBDBDB",
"|.	c #DDDDDD",
"1.	c #FC0D0D",
"2.	c #BB9D9D",
"3.	c #DB3636",
"4.	c #CE3C3C",
"5.	c #9D9D9D",
"6.	c #C3C3C3",
"7.	c #D0D0D0",
"8.	c #D5D5D5",
"9.	c #DADADA",
"0.	c #D1D1D1",
"a.	c #CECECE",
"b.	c #CDCDCD",
"c.	c #D2B2B2",
"d.	c #CF2F2F",
"e.	c #434343",
"f.	c #464646",
"g.	c #5A5A5A",
"h.	c #545454",
"i.	c #8A8A8A",
"j.	c #B6B6B6",
"k.	c #D53F3F",
"l.	c #EF0000",
"m.	c #D82727",
"n.	c #A18484",
"o.	c #8F8F8F",
"p.	c #8D8D8D",
"q.	c #636363",
"r.	c #505050",
"s.	c #2C2C2C",
"t.	c #5C0C0C",
"u.	c #530303",
"v.	c #8C8C8C",
"w.	c #E3E3E3",
"x.	c #E1E1E1",
"y.	c #DFDFDF",
"z.	c #D8D8D8",
"A.	c #D6D6D6",
"B.	c #E93535",
"C.	c #D15B5B",
"D.	c #8F0000",
"E.	c #E5E5E5",
"F.	c #DEDEDE",
"G.	c #DCDCDC",
"H.	c #F10000",
"I.	c #D87171",
"J.	c #010101",
"K.	c #E4E4E4",
"L.	c #E2E2E2",
"M.	c #E0E0E0",
"N.	c #DDB0B0",
"O.	c #F00000",
"P.	c #D3A7A7",
"Q.	c #030303",
"R.	c #CF0000",
"S.	c #E6E6E6",
"T.	c #E47A7A",
"U.	c #90D090",
"V.	c #30EF30",
"W.	c #041404",
"X.	c #070707",
"Y.	c #E7E7E7",
"Z.	c #E66D6D",
"`.	c #E63333",
" +	c #C0C0C0",
".+	c #78D878",
"++	c #00FF00",
"@+	c #063606",
"#+	c #E8E8E8",
"$+	c #EC3636",
"%+	c #CBCBCB",
"&+	c #054505",
"*+	c #3D3D3D",
"=+	c #DACBCB",
"-+	c #DC9191",
";+	c #D88D8D",
">+	c #A8C8A8",
",+	c #068506",
"'+	c #D2D2D2",
")+	c #BDBDBD",
"!+	c #058405",
"~+	c #CCCCCC",
"{+	c #03C303",
"]+	c #575757",
"^+	c #D9D9D9",
"/+	c #03C203",
"(+	c #020202",
"_+	c #151515",
":+	c #A4A4A4",
"<+	c #02F102",
"[+	c #0D0000",
"}+	c #350C0C",
"|+	c #6C6C6C",
"1+	c #60E060",
"2+	c #0E1E0E",
"3+	c #1B0000",
"4+	c #450000",
"5+	c #7D0000",
"6+	c #C20000",
"7+	c #DE0000",
"8+	c #DD0000",
"9+	c #C4A8A8",
"0+	c #3B7B3B",
"a+	c #370000",
"b+	c #6F0000",
"c+	c #990000",
"d+	c #C30000",
"e+	c #DF0000",
"f+	c #D92424",
"g+	c #D06060",
"h+	c #CA8484",
"i+	c #C2B4B4",
"j+	c #84D484",
"k+	c #C84C3C",
"l+	c #E00000",
"m+	c #E10000",
"n+	c #D83030",
"o+	c #D16060",
"p+	c #C89090",
"q+	c #C99090",
"r+	c #CD7878",
"s+	c #C5A8A8",
"                                                                ",
"                  . + + @ @ # # $ % + & * + =                   ",
"                  - ; > , , ; ' ) ! ~ { ] ] ] ] ^ / !           ",
"                  ( _ : < [ } | 1 2 3 4 ] ] ] ] ] ] ]           ",
"                5 6 ] ] ] 7 8 9 0 a b c ] ] ] ] ] ] ] d         ",
"                [ e ] ] ] ] ] ] f g h i ] ] ] ] ] ] ] j         ",
"                ~ ] ] ] ] k ] ] ] ] ] / l ] ] ] ] ] ] j         ",
"                m ] ] ] n o k ] ] ] p ,   q r s ] ] ] j         ",
"              t u ] ] v w x y ] ] ] p z A B C , D E ] j         ",
"      F G H I . J ] ] K x x L ] ] ] p F A M C   N } O P         ",
"  Q 9 R S T = U V ] W X x x x ] ] ] p Y Z `  ...+.@.#.@.        ",
"$.%.. &.; *.2 =.] ] ] -.X X w k ] ] p ;.`   >.o +.,.} 5         ",
"'.~ , h 1 #.Y ` ).m !.~.X X ] ] ] ] f 5 {.].^.o +./.(.h Y       ",
"  _.} F   B :.<.[.}.|.1.X ~.] ] ] ] s , @.2.3.o +.4.5._.P       ",
"  '.6.A 7.8.9.0.a.b.c.X X d.e.f.f.g.h.i.j.z k.l.m.n.) o.i.2     ",
"  ' p.%.q.r.u s.l p t.X X u.v.w.x.y.|.9.z.A.B.l.C.'.d P h [ @.  ",
"  T ] ] ] ] ] ] ] ] D.X X n r.E.w.x.F.G.9.[.H.l.I.              ",
"  = J.] ] ] ] ] ] ] ~.X X ] c }.K.L.M.F.}.N.O.o P.C             ",
"    Q.] ] ] ] ] ] ] ~.X R.] s A S.w.x.y.G.T.O.o a.Z             ",
"U.V.W.] ] ] ] ] ] ] ] v k ] X.2 Y.E.w.M.|.Z.l.`.b.B 6. +        ",
".+++@+] ] ] ] ] ] ] ] ] ] ] ] H #+S.w.M.|.$+O.`.%+B   Y  +      ",
"U.++&+] ] ] ] ] ] ] ] ] ] ] ] *+|.S.w.M.G.=+-+;+A `  +a b {.    ",
">+++,+] ] ] ] ] ] ] ] ] ] ] ] Q.a S.w.y.}.[.'+b.Z C   Y )+{.    ",
"  ++!+] ] ] ] ] ] ] ] ] ] ] ] ] ) S.L.F.9.A.0.~+B 6.            ",
"  ++{+Q.] ] ] ] ] ] ] ] ] ] ] ] ]+0.L.|.^+:.Z  .                ",
"  V./+(+] ] ] ] ] ] ] ] ] ] ] ] _+:+8.~+ .                      ",
"  V.<+s ] ] ] ] ] ] ] ] ] [+}+|+d                               ",
"  1+++2+] ] ] ] ] 3+4+5+6+7+8+9+                                ",
"  1+++0+] a+b+c+d+7+e+f+g+h+i+                                  ",
"  >+j+k+l+m+l+n+o+p+i+                                          ",
"      q+r+s+                                                    ",
"                                                                "};
