/* XPM */
static char * reverseSelection_xpm[] = {
"32 32 132 2",
"  	c #C1C1C1",
". 	c #D49393",
"+ 	c #E36E6E",
"@ 	c #CCA5A5",
"# 	c #C4B7B7",
"$ 	c #D88A8A",
"% 	c #E76565",
"& 	c #FB3838",
"* 	c #FF2F2F",
"= 	c #DC8181",
"- 	c #EB5C5C",
"; 	c #EF5353",
"> 	c #E07878",
", 	c #F34A4A",
"' 	c #8989AA",
") 	c #595996",
"! 	c #262681",
"~ 	c #F74141",
"{ 	c #3B3B8A",
"] 	c #1A1A7C",
"^ 	c #112C91",
"/ 	c #1F6CC3",
"( 	c #1D99ED",
"_ 	c #848FB2",
": 	c #47478E",
"< 	c #B6B5BB",
"[ 	c #B5A1AB",
"} 	c #D1535F",
"| 	c #9494AE",
"1 	c #0F0F78",
"2 	c #1667C3",
"3 	c #1DADFF",
"4 	c #1FADFE",
"5 	c #8D93B5",
"6 	c #78B2D8",
"7 	c #1EADFF",
"8 	c #1554B3",
"9 	c #303085",
"0 	c #B5B5BC",
"a 	c #358FD8",
"b 	c #4C559A",
"c 	c #9D8AA7",
"d 	c #D09C9C",
"e 	c #102288",
"f 	c #1771CC",
"g 	c #35B0F6",
"h 	c #43B2F1",
"i 	c #1972CC",
"j 	c #1B86DD",
"k 	c #123699",
"l 	c #5BB5E8",
"m 	c #D6757A",
"n 	c #1CA3F6",
"o 	c #2D8CDA",
"p 	c #4565AB",
"q 	c #272782",
"r 	c #14147A",
"s 	c #2689DB",
"t 	c #1A3C9B",
"u 	c #22AEFD",
"v 	c #24ADFB",
"w 	c #5E3779",
"x 	c #AF94A2",
"y 	c #144AAA",
"z 	c #18187C",
"A 	c #13137A",
"B 	c #1985DD",
"C 	c #2FAEF7",
"D 	c #449BDE",
"E 	c #E75B5D",
"F 	c #6BB2DD",
"G 	c #173A9A",
"H 	c #143899",
"I 	c #68689C",
"J 	c #1340A2",
"K 	c #1A8FE5",
"L 	c #187BD4",
"M 	c #0F1880",
"N 	c #2FAFF8",
"O 	c #122D91",
"P 	c #133799",
"Q 	c #69699C",
"R 	c #AAAAB7",
"S 	c #165EBB",
"T 	c #5C5C97",
"U 	c #23AEFD",
"V 	c #56B7E5",
"W 	c #5EE8B2",
"X 	c #4AFBA4",
"Y 	c #43FFA3",
"Z 	c #5AF3A8",
"` 	c #B1C8BD",
" .	c #9F9FB3",
"..	c #1B2485",
"+.	c #17177B",
"@.	c #5FBDA4",
"#.	c #40F9A8",
"$.	c #2DD0D6",
"%.	c #89DCB3",
"&.	c #1B99EE",
"*.	c #252581",
"=.	c #7E7EA5",
"-.	c #121279",
";.	c #2FB4F3",
">.	c #34E0C5",
",.	c #3BEFB4",
"'.	c #30D6D1",
").	c #39EABA",
"!.	c #3EF4AE",
"~.	c #32DBCB",
"{.	c #46468E",
"].	c #23AEFC",
"^.	c #52F7A6",
"/.	c #21B7F3",
"(.	c #A9CCBB",
"_.	c #515193",
":.	c #7474A1",
"<.	c #5FBEA4",
"[.	c #2BCBDC",
"}.	c #7AE3B0",
"|.	c #1FB2F9",
"1.	c #37E5BF",
"2.	c #26C1E8",
"3.	c #24BCED",
"4.	c #A1D0B9",
"5.	c #72E7AE",
"6.	c #28C6E2",
"7.	c #99D4B7",
"8.	c #6AEBAC",
"9.	c #B9C4BF",
"0.	c #82E0B2",
"a.	c #62EFAA",
"                                                                ",
"                                                                ",
"                        . + @                                   ",
"                # $ % & * =                   + #               ",
"            $ - * * * * * * * ; % > . @     > * ,               ",
"            ; * * * * * * * * * * * * * * , * * * %             ",
"            ; * * * * * * * * * * * * * * * * * * * $           ",
"      ' ) ! ; * ~ & * * * * * * * * * * * * * * * * & @         ",
"' { ] ^ / ( ; , _ : < [ } * * * * * * * * * * * * * * ~ #       ",
"| 1 2 3 3 4 5 6 7 8 9 0 1 a b c ; * * * * * * * * * * - d       ",
"| e ^ f 3 7 g 3 3 h i 9 1 j k 3 l m * * * * * ~ % .             ",
"| k n ^ 8 4 3 3 3 o p q r s t u v w * * , > x                   ",
"| k 3 n ^ y n f e e f z A B k C D E $ F G H I                   ",
"| k 3 3 n ^ 1 J B 3 K 9 1 L M N g O K 3 k P Q                   ",
"R ] L 3 3 S S 3 3 3 8 T { B 1 U 3 1 V W X Y Y Y Z `             ",
"   ...K 3 J L 3 3 B e  .{ B +.3 3 @.Y Y #.#.$.#.Y Y %.          ",
"     ...K ^ K &.y *.=.  { B -.3 ;.Y >.,.'.).#.!.~.Y #.%.        ",
"      =.M 1 S ] I 0     {.P 1 ].^.#.Y ,./.,.).#./.$.Y Y (.      ",
"        =.1 _.R           :.] <.Y [.!.>.Y ).3 $.!.!.#.#.}.      ",
"                              X #.).'.|.#.!.,.#.!.'.[.!.X       ",
"                              ^.1.Y ).>.>.3 ,.2.2.,.3.Y Y 4.    ",
"                              Z '.Y [.#.!.1.!.>.'.Y #.#.Y 4.    ",
"                              5.Y ,.|.!.6.[.!.>.'.!.2.).Y (.    ",
"                              7.#.#.#.Y 2.3 Y |.3 ).1.#.8.      ",
"                                5.!.2.Y ).Y Y ,.Y Y ).Y 7.      ",
"                                9.Z Y Y $.[.#.$.6.Y !.}.        ",
"                                  ` Z Y Y Y Y Y Y Y 5.          ",
"                                      (.0.8.a.a.}.`             ",
"                                                                ",
"                                                                ",
"                                                                ",
"                                                                "};
