/* XPM */
static char * saveSelection_xpm[] = {
"32 32 114 2",
"  	c None",
". 	c #3F93DB",
"+ 	c #429CE8",
"@ 	c #429AE7",
"# 	c #4198E6",
"$ 	c #4196E5",
"% 	c #4094E4",
"& 	c #3F92E2",
"* 	c #3E91E0",
"= 	c #3D8DDE",
"- 	c #3C8BDD",
"; 	c #3B88DB",
"> 	c #3986D9",
", 	c #3883D8",
"' 	c #3680D6",
") 	c #357DD4",
"! 	c #347BD1",
"~ 	c #3378D0",
"{ 	c #3275CE",
"] 	c #3072CD",
"^ 	c #2E70CA",
"/ 	c #2E6CC8",
"( 	c #2C6AC6",
"_ 	c #2B67C4",
": 	c #2964C2",
"< 	c #2963C1",
"[ 	c #285FBF",
"} 	c #275DBE",
"| 	c #265BBD",
"1 	c #2559BA",
"2 	c #2457B9",
"3 	c #2456B8",
"4 	c #204FAC",
"5 	c #439DE9",
"6 	c #4D4D4D",
"7 	c #47A6FA",
"8 	c #46A3F8",
"9 	c #45A1F7",
"0 	c #449EF6",
"a 	c #439CF4",
"b 	c #429AF2",
"c 	c #4097F0",
"d 	c #3F94EE",
"e 	c #3E91EC",
"f 	c #3D8FEA",
"g 	c #3B8BE8",
"h 	c #3989E6",
"i 	c #3985E4",
"j 	c #3782E2",
"k 	c #367FDF",
"l 	c #347CDD",
"m 	c #3378DB",
"n 	c #3276D9",
"o 	c #3072D7",
"p 	c #2F70D5",
"q 	c #2E6DD3",
"r 	c #2D6AD1",
"s 	c #2B67D0",
"t 	c #2B65CD",
"u 	c #2963CC",
"v 	c #2861CA",
"w 	c #FF3A3A",
"x 	c #2354B7",
"y 	c #47A5FA",
"z 	c #FFFFFF",
"A 	c #3378DC",
"B 	c #3275D9",
"C 	c #3073D7",
"D 	c #2C6AD1",
"E 	c #2C68D0",
"F 	c #2A65CE",
"G 	c #2962CC",
"H 	c #2860CA",
"I 	c #3478CF",
"J 	c #367DD7",
"K 	c #357BD2",
"L 	c #3173C6",
"M 	c #5C5C5C",
"N 	c #E8E7E7",
"O 	c #3071C1",
"P 	c #C1C1C1",
"Q 	c #99D4B7",
"R 	c #62EFAA",
"S 	c #52F7A6",
"T 	c #A1D0B9",
"U 	c #A9CCBB",
"V 	c #5AF3A8",
"W 	c #43FFA3",
"X 	c #4AFBA4",
"Y 	c #82E0B2",
"Z 	c #B9C4BF",
"` 	c #72E7AE",
" .	c #6AEBAC",
"..	c #7AE3B0",
"+.	c #3EF6A4",
"@.	c #19A6B5",
"#.	c #2ED2AC",
"$.	c #3AEDA6",
"%.	c #91D8B5",
"&.	c #36E4A8",
"*.	c #25C0B0",
"=.	c #32DBAA",
"-.	c #149DB7",
";.	c #0071C1",
">.	c #0479BF",
",.	c #B1C8BD",
"'.	c #29C9AE",
").	c #0882BD",
"!.	c #0C8BBB",
"~.	c #1DAFB3",
"{.	c #1094B9",
"].	c #21B8B2",
"^.	c #89DCB3",
"/.	c #46F2A6",
". + @ # $ % & * = - ; > , ' ) ! ~ { ] ^ / ( _ : < [ } | 1 2 3 4 ",
"5 6 6 7 8 9 0 a b c d e f g h i j k l m n o p q r s t u v w w x ",
"5 6 6 y z z z z z z z z z z z z z k l A B C p q D E F G H w w x ",
"I J K K K K K K K K K K K K K K K K K K K K K K K K K K K K J I ",
"L M M M M M M M M M M M M M M M M M M M M M M M M M M M M M N L ",
"O M P P P P P P P P P P P P P P P P P P P P P P P P P P P P N O ",
"O M P P P P P P P P P P P P P P P P P P P Q R R S R T P P P N O ",
"O M P P P U V W W X Y Z P P P P P P P Z ` W W W W W W  .Z P N O ",
"O M P Z ..+.@.@.+.#.$.S %.P P P P P P R &.*.&.#.W =.+.$.S U N O ",
"O M P ` W -.;.;.*.+.=.=.&. .P P P P Y &.+.W @.>.W ;.@.+.W R N O ",
"O M ,.+.@.$.'.&.=.).;.;.>.&...P P ,.W !.=.#.=.+.W W +.$.*.&.N O ",
"O M Y '.;.>.$.~.;.;.;.;.;.>.$.T P Q +.$.$.;.;.;.W ;.;.!.$.+.N O ",
"O M X -.;.{.$.;.;.;.;.;.;.;.=.T P Y '.'.W &.'.].W ].].=.W $.N O ",
"O M X W ~.=.@.;.;.;.;.;.;.;.=.T P Y W +.!.!.@.'.+.*.].{.&.W N O ",
"O M R @.&.$.;.;.;.;.;.;.;.;.&...T ^.W W '.~.!.{.=.;.!.-.$.S N O ",
"O M Y #.!.&.;.;.;.;.;.;.>.'.+.=.=.=.W W $.'.$.W W W &.#.W Q N O ",
"O M Z  .&.W ;.;.;.;.>.@.W '.>.;.{.&.#.!.+.~.{.].*.!.{.'.R P N O ",
"O M P P Y W {.;.;.{.=.&.{.;.>.*.+.-.;.;.*.W W W W W W X ,.P N O ",
"O M P P P %./.~.'.+.~.;.;.-.$.*.>.;.;.;.).W V W V ` Y ,.P P N O ",
"O M P P P P Q W $.{.;.>.#.$.{.;.;.;.;.;.;.#.%.P P P P P P P N O ",
"O M P P P P Z X &.$.+.+.].;.;.;.;.;.;.;.;.-.V P P P P P P P N O ",
"O M P P P P P Y '.;.>.+.).;.;.;.;.;.;.;.;.;.$.U P P P P P P N O ",
"O M P P P P P Z X ).;.].'.;.;.;.;.;.;.;.;.;.].` P P P P P P N O ",
"O M P P P P P P ^.=.;.>.+.).;.;.;.;.;.;.;.;.>.X Z P P P P P N O ",
"O M P P P P P P P S {.;.~.'.;.;.;.;.;.;.;.;.].S ,.P P P P P N O ",
"O M P P P P P P P %.=.;.;.$.).;.;.;.;.;.>.#.V Z P P P P P P N O ",
"O M P P P P P P P P S {.;.@.#.;.;.;.;.).&.` P P P P P P P P N O ",
"O M P P P P P P P P Q +.@.;.$.{.;.;.{.+.%.P P P P P P P P P N O ",
"O M P P P P P P P P P U R $.#.=.;.@.X T P P P P P P P P P P N O ",
"O M P P P P P P P P P P P T R W =.V ,.P P P P P P P P P P P N O ",
"L M N N N N N N N N N N N N N N N N N N N N N N N N N N N N N L ",
"O L O O O O O O O O O O O O O O O O O O O O O O O O O O O O L O "};
