/* XPM */
static char * seaneClean_xpm[] = {
"32 32 190 2",
"  	c #C1C0C1",
". 	c #C1C1C1",
"+ 	c #C0C0C1",
"@ 	c #C0C0C0",
"# 	c #C1C0C0",
"$ 	c #C0C1C0",
"% 	c #C1C1C0",
"& 	c #C0C1C1",
"* 	c #AD9688",
"= 	c #A64205",
"- 	c #A8501A",
"; 	c #B17E60",
"> 	c #BEBDBE",
", 	c #8B7B71",
"' 	c #692600",
") 	c #953600",
"! 	c #A23D00",
"~ 	c #B27F5F",
"{ 	c #BEB2AB",
"] 	c #958C87",
"^ 	c #6B4B39",
"/ 	c #501D00",
"( 	c #652500",
"_ 	c #953800",
": 	c #AA5727",
"< 	c #BDBCBD",
"[ 	c #A49A95",
"} 	c #5D3B27",
"| 	c #612400",
"1 	c #812F00",
"2 	c #9E3B00",
"3 	c #A74B15",
"4 	c #B58A71",
"5 	c #C0BDBB",
"6 	c #61402B",
"7 	c #532102",
"8 	c #A13B00",
"9 	c #A95B2A",
"0 	c #B17F61",
"a 	c #BEBEBE",
"b 	c #BFBFBF",
"c 	c #968D88",
"d 	c #5E3D29",
"e 	c #3D1601",
"f 	c #8E3500",
"g 	c #A23C00",
"h 	c #A23E01",
"i 	c #A5460D",
"j 	c #96777E",
"k 	c #4A2F1E",
"l 	c #491A00",
"m 	c #933700",
"n 	c #A13C00",
"o 	c #A23E03",
"p 	c #A24C16",
"q 	c #949A9F",
"r 	c #BFBFC0",
"s 	c #9F9DAB",
"t 	c #391702",
"u 	c #451A00",
"v 	c #541E00",
"w 	c #692800",
"x 	c #A13C01",
"y 	c #A13E02",
"z 	c #9E3C02",
"A 	c #84544B",
"B 	c #B8B8BD",
"C 	c #BEBEBF",
"D 	c #717171",
"E 	c #302320",
"F 	c #3A1C0A",
"G 	c #421A01",
"H 	c #4A1C00",
"I 	c #A23D01",
"J 	c #9F3D03",
"K 	c #AC6F4B",
"L 	c #BCADA2",
"M 	c #AEB5B8",
"N 	c #151416",
"O 	c #2D2D2C",
"P 	c #080907",
"Q 	c #1F0E03",
"R 	c #3C2213",
"S 	c #4E1B00",
"T 	c #792C00",
"U 	c #A23B00",
"V 	c #A34004",
"W 	c #AB663B",
"X 	c #B79987",
"Y 	c #BEBEBD",
"Z 	c #91999D",
"` 	c #242424",
" .	c #222222",
"..	c #000000",
"+.	c #181618",
"@.	c #151515",
"#.	c #090908",
"$.	c #381601",
"%.	c #5E2300",
"&.	c #983900",
"*.	c #B9A294",
"=.	c #9F9FA2",
"-.	c #313130",
";.	c #010205",
">.	c #252525",
",.	c #0E0E0E",
"'.	c #080709",
").	c #38322E",
"!.	c #201208",
"~.	c #3F1B08",
"{.	c #C0BEBC",
"].	c #BBBBBC",
"^.	c #262729",
"/.	c #0F0F0F",
"(.	c #1E1D1D",
"_.	c #050504",
":.	c #393738",
"<.	c #341A10",
"[.	c #44201A",
"}.	c #732B00",
"|.	c #B74703",
"1.	c #8B949D",
"2.	c #29292A",
"3.	c #060605",
"4.	c #3C3C3B",
"5.	c #100F11",
"6.	c #111211",
"7.	c #191919",
"8.	c #441A13",
"9.	c #803000",
"0.	c #AD4000",
"a.	c #BBBFC0",
"b.	c #5F686F",
"c.	c #444443",
"d.	c #060508",
"e.	c #020102",
"f.	c #171719",
"g.	c #010100",
"h.	c #A84005",
"i.	c #B79A89",
"j.	c #BDC0C1",
"k.	c #BABDBE",
"l.	c #191A1C",
"m.	c #1C0D09",
"n.	c #421C05",
"o.	c #742C02",
"p.	c #624A57",
"q.	c #BDBDBF",
"r.	c #BFC1C1",
"s.	c #BEC0C1",
"t.	c #B3B8BA",
"u.	c #2D3033",
"v.	c #0A0A09",
"w.	c #030203",
"x.	c #20110D",
"y.	c #AEAEB2",
"z.	c #BFC1C0",
"A.	c #A5AAAE",
"B.	c #1F1F1E",
"C.	c #333232",
"D.	c #22222F",
"E.	c #B2B3B7",
"F.	c #B7BBBD",
"G.	c #35373E",
"H.	c #2A292D",
"I.	c #B0B0B9",
"J.	c #0A090A",
"K.	c #161616",
"L.	c #33353C",
"M.	c #B9B9BF",
"N.	c #DE6766",
"O.	c #F71A1A",
"P.	c #FF0000",
"Q.	c #FB0D0D",
"R.	c #DD6666",
"S.	c #8B8B96",
"T.	c #1F1E1E",
"U.	c #65657A",
"V.	c #EA4040",
"W.	c #D18D8D",
"X.	c #D68180",
"Y.	c #C5B4B3",
"Z.	c #D28E8D",
"`.	c #DA7473",
" +	c #C9A7A6",
".+	c #CD9A9A",
"++	c #F32726",
"@+	c #E25A5A",
"#+	c #E64D4D",
"$+	c #EE3333",
"  . + @ .   # @ # # @ $ % .   .   $ % % + @ $ . # # +   &   @ # ",
"% & @ & @ + + # @ % @ & . # % % @   &   $ . % $ & & + . $ . &   ",
"@ + % * = - ; > & + % @ @ % # % @ @ .   $   # $ + . # $ # $ $ $ ",
"@ $ @ , ' ) ! = ~ { + @ @ % + . @ @ @ + $ @ # + #   & @ % # @ % ",
". $ + ] ^ / ( _ ! : ; >   + & @ & % & & @ $   # $ $ % # # @ & + ",
"    @ $ < [ } / | 1 2 3 4 5     @ % % % # $ +   # + $ & .   . # ",
"  @   # + @ < [ 6 7 | 1 8 3 9 0 a % % % b % @ $   #   @ $ . $ $ ",
"& + % + @ @ + # & c d e f 2 g h i j % % % % % % & # % @       $ ",
"$ + & @ . .     + # > k l ( m 2 n o p q % % % % $ % @ $ & # & . ",
". % $ % $ % # b @ r % s t u v w ) 2 x y z A B % % & $ % + $   & ",
"# % + % C @ % % % % % D E F G H v ' m 2 8 I J K L # . $ + $ + % ",
"& . @ % % % % % % % M N O P Q R G S 7 T ) 8 U ! V W X # + $ & % ",
"Y # % % % % @ % % % Z `  ...+.@.#.$.G S %.T &.2 n g V W *.5 % $ ",
"% % % % % % % % % % =.-.P ;.>.,.'.).!.~.l / | T _ 8 g g n W {.. ",
"% % % % % % % % $ % % ].^./.(._.@.:...,.<.[.H / %.}.&.8 n |.{ @ ",
"% % % % % % % % % % $ % % 1.2.3.4.5...6.7.P <.8.H v | 9.0.- . $ ",
"% % % % % % % % % % % % % % a.b.c.d.e.+.f.g.#.).F u / w h.i.+ . ",
"% % % % % % % % % % j.% % % $ % k.l.e.(.,.e.7.>.g.m.n.o.p.q.% . ",
"% % % % % % % % % % % r.% % s.% % % t.u.v.w. . ...6.(.x.y.% % % ",
"% % % % % % % % % % % % % s.$ % z.% % % A.B.C.@...@.7.D.E.% % @ ",
"% % % % % % % % % % % % % % % % % r.% % % F.G.#...6.7.H.I.% @ b ",
"% % % % % % % % % % % % % % % % % $ $ $ % % $ b.J.K. .L.M.% % % ",
"% % % N.O.P.P.P.Q.% % % % % % % % % % % $ $ % Q.R.S.T.U.b % % % ",
"% % N.P.V.% % % % % % % % % % % % % % % % % W.P.X.% Y % % % % % ",
"% Y.Q.Q.% % % % Z.P.P.P.P.P.P.O.X.P.P.P.P.`.P.P.P.N.P. +% O.V.% ",
"% `.P.P.P.P.P.P.N.P. +`.P..+Z.P.N.P. +% ++Q.@+Q.% V.Q.% % Q.N.% ",
"% N.P.@+% % % % #+Q.% N.Q.% X.P.$+Q.% % #+O.$+++% O.$+% .+P.`.% ",
"% Z.P.O.Y.% % % $+$+% V.O.% N.Q.$+$+% .+Q.@+O.$+% Q.#+% `.P. +% ",
"% % N.P.P.P.P.Q.Q.#+% O.#+% #+++Q.P.P.P.@+% $+P.$+#+P.P.P.Q.% % ",
"% % % % % % % % % % % % % % %  +P.`.% % % % % % % % % % ++$+% % ",
"% % % % % % % % % % % % % % % X.P.Z.% % % % % % N.P.P.P.++ +% % ",
"% % % % % % % % % % % % % % % % % % % % % % % % % % % % % % % % "};
