/* XPM */
static char * setDrivenPose_xpm[] = {
"32 32 743 2",
"  	c #C1C1C1",
". 	c #E8AB9C",
"+ 	c #FED0BC",
"@ 	c #FFD8C3",
"# 	c #FED8C2",
"$ 	c #FFD8C2",
"% 	c #FEDBC2",
"& 	c #FFDCC4",
"* 	c #FEDCC6",
"= 	c #FFDDC5",
"- 	c #FED5BB",
"; 	c #FFCFB4",
"> 	c #FFCBB1",
", 	c #FECDB2",
"' 	c #FFCBB3",
") 	c #FEC4B0",
"! 	c #FFC6B1",
"~ 	c #FECAB4",
"{ 	c #FECBB4",
"] 	c #FFCFB6",
"^ 	c #FECDB3",
"/ 	c #FFCFB5",
"( 	c #FED5BA",
"_ 	c #FFDAC1",
": 	c #FFCAB3",
"< 	c #DFBEB2",
"[ 	c #A79090",
"} 	c #E1A08F",
"| 	c #FFCAB0",
"1 	c #FECAAD",
"2 	c #FFCBAE",
"3 	c #FECCB0",
"4 	c #FFD1B5",
"5 	c #FFD5B9",
"6 	c #FFD6BB",
"7 	c #FED6BB",
"8 	c #FFD0B4",
"9 	c #FECBAD",
"0 	c #FFC7A9",
"a 	c #FEC6AA",
"b 	c #FFC1A5",
"c 	c #FFBAA1",
"d 	c #FFBCA4",
"e 	c #FFC4A9",
"f 	c #FFC7AB",
"g 	c #FEC6A7",
"h 	c #FEC0A1",
"i 	c #FFC2A1",
"j 	c #FEC6A6",
"k 	c #FFCBAC",
"l 	c #FFBCA3",
"m 	c #EDAD99",
"n 	c #CBAEA5",
"o 	c #99868A",
"p 	c #C98875",
"q 	c #FFB697",
"r 	c #FFB995",
"s 	c #FEBC99",
"t 	c #FFBC9C",
"u 	c #FEC3A4",
"v 	c #FED0B1",
"w 	c #FFD0B2",
"x 	c #FFCCAD",
"y 	c #FFC4A6",
"z 	c #FFC5A7",
"A 	c #FFC2A5",
"B 	c #FEB89C",
"C 	c #FCAF95",
"D 	c #FBB49B",
"E 	c #FEBFA3",
"F 	c #FEC2A2",
"G 	c #FFBF9D",
"H 	c #FFB593",
"I 	c #FFB18D",
"J 	c #FEB491",
"K 	c #FFB793",
"L 	c #F9AC90",
"M 	c #E1A08C",
"N 	c #C9ACA4",
"O 	c #968487",
"P 	c #A66B59",
"Q 	c #ED9E7B",
"R 	c #FCA983",
"S 	c #F8A37E",
"T 	c #F19F7B",
"U 	c #E69A79",
"V 	c #F2AA87",
"W 	c #FFBB98",
"X 	c #FFC4A1",
"Y 	c #FEC19F",
"Z 	c #FFBA9A",
"` 	c #FEC1A2",
" .	c #FFC3A1",
"..	c #F9AA8C",
"+.	c #E89F86",
"@.	c #F3A78C",
"#.	c #FFB594",
"$.	c #FEB18D",
"%.	c #FDA580",
"&.	c #EF9C78",
"*.	c #F3A07B",
"=.	c #F9A580",
"-.	c #E69879",
";.	c #DD9A84",
">.	c #CC9281",
",.	c #814E42",
"'.	c #C07559",
").	c #D08366",
"!.	c #A55F47",
"~.	c #572619",
"{.	c #2B0C08",
"].	c #441D14",
"^.	c #A56349",
"/.	c #BE7A5F",
"(.	c #FFB28C",
"_.	c #FAAC8B",
":.	c #FFBFA2",
"<.	c #FFC5A4",
"[.	c #EF9D7C",
"}.	c #CC8267",
"|.	c #DC8C6D",
"1.	c #DE8E6D",
"2.	c #D38566",
"3.	c #C4795C",
"4.	c #A8624A",
"5.	c #A8634A",
"6.	c #C4785C",
"7.	c #CF8263",
"8.	c #DC9172",
"9.	c #D7937A",
"0.	c #C98B7D",
"a.	c #6E423C",
"b.	c #8A4E3A",
"c.	c #7B3E2B",
"d.	c #4E2217",
"e.	c #816F6B",
"f.	c #CE8466",
"g.	c #EFA58B",
"h.	c #FEC2A9",
"i.	c #FED4B6",
"j.	c #E8A989",
"k.	c #8A4C36",
"l.	c #643021",
"m.	c #A08277",
"n.	c #BA9789",
"o.	c #CDA696",
"p.	c #B59386",
"q.	c #34120C",
"r.	c #592C1E",
"s.	c #8D503A",
"t.	c #CE8163",
"u.	c #D99177",
"v.	c #C58677",
"w.	c #9A827D",
"x.	c #854835",
"y.	c #603226",
"z.	c #FCBEA9",
"A.	c #E7A595",
"B.	c #FFCEB8",
"C.	c #FFDEC7",
"D.	c #FEDFC8",
"E.	c #FFDFC9",
"F.	c #FDC4B3",
"G.	c #FECCB1",
"H.	c #FFC7A6",
"I.	c #FED7BB",
"J.	c #FFCDAC",
"K.	c #DFCCBE",
"L.	c #DEAC9D",
"M.	c #7F4939",
"N.	c #E29070",
"O.	c #DC9579",
"P.	c #C28477",
"Q.	c #93807F",
"R.	c #B26D55",
"S.	c #FFC7A5",
"T.	c #D6B6AC",
"U.	c #CFADA3",
"V.	c #FEC4AD",
"W.	c #FFBD99",
"X.	c #FED0B3",
"Y.	c #FED6BD",
"Z.	c #FEC5AF",
"`.	c #E4A699",
" +	c #FFD5C2",
".+	c #FEDFCC",
"++	c #FFDFCC",
"@+	c #FEDAC1",
"#+	c #FEC8AA",
"$+	c #FFCAAB",
"%+	c #FED2B4",
"&+	c #F9D5BA",
"*+	c #F8D6BE",
"=+	c #FCD9C3",
"-+	c #FFC5A6",
";+	c #FCB492",
">+	c #D9937B",
",+	c #C3A49B",
"'+	c #9D6455",
")+	c #FDBBA4",
"!+	c #EAA894",
"~+	c #FAB49C",
"{+	c #FEC2A5",
"]+	c #FEC7A7",
"^+	c #FEC8A6",
"/+	c #FECBB5",
"(+	c #F6B4A5",
"_+	c #D79B91",
":+	c #FFD9C6",
"<+	c #FEDBC8",
"[+	c #FFE1CB",
"}+	c #FFC4A2",
"|+	c #FDCAA7",
"1+	c #E0BFA8",
"2+	c #B7A596",
"3+	c #A69A92",
"4+	c #D7BEAD",
"5+	c #F2B69B",
"6+	c #D89882",
"7+	c #C4A49D",
"8+	c #AB9089",
"9+	c #D1907E",
"0+	c #F1AB96",
"a+	c #FEB69B",
"b+	c #FEBD9D",
"c+	c #FFCDB7",
"d+	c #FFC2B0",
"e+	c #E1A196",
"f+	c #D5998F",
"g+	c #FEDBC7",
"h+	c #FFD6C5",
"i+	c #FED9C7",
"j+	c #FEE0CB",
"k+	c #FFDDC4",
"l+	c #F5D0B7",
"m+	c #5C5653",
"n+	c #292F34",
"o+	c #545B61",
"p+	c #52585E",
"q+	c #4C5157",
"r+	c #525356",
"s+	c #B4A9A6",
"t+	c #C6AAA5",
"u+	c #A18C87",
"v+	c #BD8070",
"w+	c #F7B19D",
"x+	c #FEC8AF",
"y+	c #FECEB8",
"z+	c #FDCFB9",
"A+	c #FEC8B6",
"B+	c #FEBEAF",
"C+	c #BA827B",
"D+	c #EBADA2",
"E+	c #FFD3C0",
"F+	c #FECEBE",
"G+	c #FFCBBB",
"H+	c #FEDEC9",
"I+	c #FFE2CE",
"J+	c #FEE0CA",
"K+	c #3A3C3D",
"L+	c #1F262C",
"M+	c #464D55",
"N+	c #151B22",
"O+	c #0E141A",
"P+	c #21282F",
"Q+	c #545B63",
"R+	c #4B4F53",
"S+	c #B0AAAA",
"T+	c #AB9390",
"U+	c #CF9182",
"V+	c #FEBDAB",
"W+	c #FECDB7",
"X+	c #FFCEB7",
"Y+	c #FEC7AE",
"Z+	c #F7B3A0",
"`+	c #DDA197",
" @	c #AC7570",
".@	c #FAB8AB",
"+@	c #FED1C1",
"@@	c #FAC1B1",
"#@	c #FEC5B7",
"$@	c #FEC6B6",
"%@	c #F8C9BA",
"&@	c #F2D3BC",
"*@	c #12171C",
"=@	c #545C63",
"-@	c #363A3F",
";@	c #8D8B8A",
">@	c #AC9E94",
",@	c #363536",
"'@	c #0B1117",
")@	c #424850",
"!@	c #595D63",
"~@	c #BEBEBE",
"{@	c #9E6A64",
"]@	c #DD9E8D",
"^@	c #FEC2AD",
"/@	c #FFCFBD",
"(@	c #FFDAC5",
"_@	c #AA7972",
":@	c #FFC3AE",
"<@	c #C08478",
"[@	c #FFC6AD",
"}@	c #FFD7BB",
"|@	c #FFC8B3",
"1@	c #FFCAB5",
"2@	c #FEDCC5",
"3@	c #F2B09C",
"4@	c #846F65",
"5@	c #2B3138",
"6@	c #373E45",
"7@	c #B9B3B1",
"8@	c #FDE1CC",
"9@	c #FEE0C8",
"0@	c #FCD6BE",
"a@	c #574946",
"b@	c #0E151B",
"c@	c #4B5159",
"d@	c #7B7E81",
"e@	c #AA7267",
"f@	c #DE9D89",
"g@	c #FCB9A4",
"h@	c #FFCDB3",
"i@	c #FED3B4",
"j@	c #895247",
"k@	c #95533D",
"l@	c #B69388",
"m@	c #AF6E54",
"n@	c #D48868",
"o@	c #A1634A",
"p@	c #D8AF9E",
"q@	c #995D48",
"r@	c #DB977B",
"s@	c #4C3D36",
"t@	c #363C43",
"u@	c #595E62",
"v@	c #F5D8C2",
"w@	c #FFE0C4",
"x@	c #FFDCC2",
"y@	c #FED4B9",
"z@	c #CFB2A4",
"A@	c #04090E",
"B@	c #232A31",
"C@	c #373E44",
"D@	c #BDBDBD",
"E@	c #A58E8D",
"F@	c #B17667",
"G@	c #DB9782",
"H@	c #FAB297",
"I@	c #FFC19F",
"J@	c #FEC8A2",
"K@	c #FEBE99",
"L@	c #C07C60",
"M@	c #806D69",
"N@	c #9D705C",
"O@	c #532319",
"P@	c #A78A81",
"Q@	c #DFC6B6",
"R@	c #B77561",
"S@	c #8F5241",
"T@	c #302725",
"U@	c #393F46",
"V@	c #5C6065",
"W@	c #F3BB9C",
"X@	c #FFCDAB",
"Y@	c #FFD4B6",
"Z@	c #FEC9AE",
"`@	c #8D746B",
" #	c #0A1016",
".#	c #3C434A",
"+#	c #85878A",
"@#	c #875752",
"##	c #B87969",
"$#	c #DB957C",
"%#	c #F7A787",
"&#	c #FEAD88",
"*#	c #FFAF89",
"=#	c #FAA480",
"-#	c #FFB38D",
";#	c #F6A787",
">#	c #945A44",
",#	c #C57A5D",
"'#	c #864531",
")#	c #9A5840",
"!#	c #BE755B",
"~#	c #FFBF99",
"{#	c #FCCEAB",
"]#	c #17191C",
"^#	c #2A3138",
"/#	c #51565B",
"(#	c #B77258",
"_#	c #EFA380",
":#	c #F9C29F",
"<#	c #FFCAA9",
"[#	c #FEC8AC",
"}#	c #FEC3A9",
"|#	c #292426",
"1#	c #353C43",
"2#	c #7A7D80",
"3#	c #926057",
"4#	c #C3806C",
"5#	c #DF9579",
"6#	c #F19F7D",
"7#	c #F49F7C",
"8#	c #E99874",
"9#	c #FAAD86",
"0#	c #FFB391",
"a#	c #FEBE9E",
"b#	c #FEC6A4",
"c#	c #FFC8A5",
"d#	c #FECCAE",
"e#	c #FFD2BE",
"f#	c #FFCEBB",
"g#	c #FCCABA",
"h#	c #202529",
"i#	c #1C2229",
"j#	c #293037",
"k#	c #967163",
"l#	c #C1775A",
"m#	c #F6AB87",
"n#	c #FFC29D",
"o#	c #FEC8A7",
"p#	c #FBC5A9",
"q#	c #654E47",
"r#	c #30373E",
"s#	c #6F7377",
"t#	c #A16A5C",
"u#	c #D28B73",
"v#	c #ED9C7C",
"w#	c #F4A17E",
"x#	c #E59372",
"y#	c #D7886A",
"z#	c #FFAC86",
"A#	c #F7B19A",
"B#	c #EEB1A3",
"C#	c #FCC5B5",
"D#	c #FED1BF",
"E#	c #FECFBD",
"F#	c #F6B8A9",
"G#	c #DEA299",
"H#	c #A49E9B",
"I#	c #1C2025",
"J#	c #3E454C",
"K#	c #32373D",
"L#	c #CC8265",
"M#	c #DF906F",
"N#	c #FCBA95",
"O#	c #FFC7A4",
"P#	c #F0C1A9",
"Q#	c #050A10",
"R#	c #222A31",
"S#	c #4A4F54",
"T#	c #AC7261",
"U#	c #DC9378",
"V#	c #F4A37F",
"W#	c #F6A17D",
"X#	c #D88969",
"Y#	c #FDA882",
"Z#	c #CC8D80",
"`#	c #C98E83",
" $	c #F5AE9C",
".$	c #FDBBA1",
"+$	c #FBC6B1",
"@$	c #F1BCAE",
"#$	c #FFC5AA",
"$$	c #F1AF8D",
"%$	c #5D4E4A",
"&$	c #181F25",
"*$	c #373F46",
"=$	c #1B2228",
"-$	c #1B2128",
";$	c #C89A86",
">$	c #D18565",
",$	c #FDB28A",
"'$	c #FFC59E",
")$	c #F0C1A4",
"!$	c #282F37",
"~$	c #75787B",
"{$	c #B57562",
"]$	c #EA9D7D",
"^$	c #F9A582",
"/$	c #BD8771",
"($	c #E3A186",
"_$	c #CA826B",
":$	c #A0644F",
"<$	c #AE674E",
"[$	c #C87E60",
"}$	c #D48668",
"|$	c #EB9976",
"1$	c #BEABA0",
"2$	c #6E7073",
"3$	c #13191F",
"4$	c #262D34",
"5$	c #484F56",
"6$	c #2D343B",
"7$	c #0F151B",
"8$	c #070C11",
"9$	c #2F363C",
"0$	c #42474C",
"a$	c #B9978A",
"b$	c #EEA17D",
"c$	c #FDC199",
"d$	c #706A67",
"e$	c #384047",
"f$	c #959799",
"g$	c #A86B57",
"h$	c #E19372",
"i$	c #F7A280",
"j$	c #484344",
"k$	c #6C6564",
"l$	c #612F21",
"m$	c #7F4836",
"n$	c #894F3D",
"o$	c #736463",
"p$	c #625F61",
"q$	c #11171C",
"r$	c #20272E",
"s$	c #464D54",
"t$	c #323940",
"u$	c #191F25",
"v$	c #484C4F",
"w$	c #959597",
"x$	c #0E1216",
"y$	c #181E25",
"z$	c #40474E",
"A$	c #2F353B",
"B$	c #A58274",
"C$	c #86766E",
"D$	c #3B434A",
"E$	c #4D5358",
"F$	c #A9AAAA",
"G$	c #B5B5B6",
"H$	c #886159",
"I$	c #CB8F75",
"J$	c #AD8270",
"K$	c #30363D",
"L$	c #353C42",
"M$	c #D5B7A6",
"N$	c #FFC3B2",
"O$	c #B37975",
"P$	c #BABABA",
"Q$	c #0F151A",
"R$	c #191F26",
"S$	c #1B2127",
"T$	c #373B3F",
"U$	c #AEAFAF",
"V$	c #F5BFB1",
"W$	c #232528",
"X$	c #151B21",
"Y$	c #3C444B",
"Z$	c #3D454C",
"`$	c #474F56",
" %	c #4F575E",
".%	c #333A41",
"+%	c #8B8888",
"@%	c #7D7F82",
"#%	c #2A2F35",
"$%	c #2A3036",
"%%	c #2C3238",
"&%	c #2D343A",
"*%	c #2F353C",
"=%	c #454A50",
"-%	c #5B5E60",
";%	c #12161C",
">%	c #2E353C",
",%	c #32393F",
"'%	c #1F2327",
")%	c #AAABAC",
"!%	c #EAADA1",
"~%	c #FDCBBA",
"{%	c #FFD0BF",
"]%	c #FBB895",
"^%	c #846B60",
"/%	c #1D2226",
"(%	c #3B3F44",
"_%	c #BB9E92",
":%	c #CA8874",
"<%	c #BEBEBF",
"[%	c #2B3036",
"}%	c #282E34",
"|%	c #2B3137",
"1%	c #232A30",
"2%	c #192026",
"3%	c #2D333A",
"4%	c #282F35",
"5%	c #141A20",
"6%	c #202428",
"7%	c #929394",
"8%	c #D7C3BC",
"9%	c #AB7B75",
"0%	c #FFCCBC",
"a%	c #FEDDC8",
"b%	c #F9DAC5",
"c%	c #FEDBC6",
"d%	c #D18A6C",
"e%	c #FEB990",
"f%	c #FEBC94",
"g%	c #A7674F",
"h%	c #CB856A",
"i%	c #F2A484",
"j%	c #FEAC87",
"k%	c #E99D7A",
"l%	c #C5A194",
"m%	c #A2A3A4",
"n%	c #20262C",
"o%	c #14191F",
"p%	c #20262D",
"q%	c #262D33",
"r%	c #5A5C5E",
"s%	c #C2BCB9",
"t%	c #FBC9AB",
"u%	c #FFD5B1",
"v%	c #FFD7B5",
"w%	c #FDD8B5",
"x%	c #FDD7B4",
"y%	c #EDA986",
"z%	c #B17056",
"A%	c #FDA985",
"B%	c #FDC79E",
"C%	c #FFC69B",
"D%	c #C78265",
"E%	c #C3795C",
"F%	c #F09D7A",
"G%	c #F4A07B",
"H%	c #DB9071",
"I%	c #BCBCBC",
"J%	c #1F252B",
"K%	c #12181E",
"L%	c #272E34",
"M%	c #181E23",
"N%	c #101519",
"O%	c #5B5C5F",
"P%	c #B09B94",
"Q%	c #C78166",
"R%	c #9D604B",
"S%	c #B97E60",
"T%	c #D09473",
"U%	c #CC9171",
"V%	c #B6735A",
"W%	c #8C5341",
"X%	c #D68869",
"Y%	c #FEAF89",
"Z%	c #FEC79F",
"`%	c #FECDA5",
" &	c #FECEA4",
".&	c #DF9C7B",
"+&	c #B97055",
"@&	c #DC8D6D",
"#&	c #CF8363",
"$&	c #B56F58",
"%&	c #181C22",
"&&	c #181E24",
"*&	c #22282E",
"=&	c #171C22",
"-&	c #11161B",
";&	c #5A5D5F",
">&	c #C2A89D",
",&	c #FBAA88",
"'&	c #F5A481",
")&	c #E99A7A",
"!&	c #DA9170",
"~&	c #D7906F",
"{&	c #D99372",
"]&	c #F0A681",
"^&	c #FFB58E",
"/&	c #FEC299",
"(&	c #FEC89F",
"_&	c #FFCEA6",
":&	c #FECFA6",
"<&	c #FDCEA7",
"[&	c #FEBF97",
"}&	c #D28366",
"|&	c #BA7256",
"1&	c #AE6C52",
"2&	c #BFBFBF",
"3&	c #2B3136",
"4&	c #1A2026",
"5&	c #5B5D60",
"6&	c #969494",
"7&	c #956154",
"8&	c #D4896B",
"9&	c #F9A984",
"0&	c #F9AF8E",
"a&	c #FEB08E",
"b&	c #FFBC95",
"c&	c #FEC39B",
"d&	c #FFC89F",
"e&	c #FECAA1",
"f&	c #FFCDA2",
"g&	c #FFCCA1",
"h&	c #FFCCA2",
"i&	c #FECDA3",
"j&	c #FFC69C",
"k&	c #FEBD97",
"l&	c #F9A684",
"m&	c #B16E54",
"n&	c #2A2E32",
"o&	c #313437",
"p&	c #AAABAB",
"q&	c #B89689",
"r&	c #CD8468",
"s&	c #F8AC8D",
"t&	c #FEB89D",
"u&	c #FEC5AE",
"v&	c #FFD8C0",
"w&	c #FEDDBD",
"x&	c #FFDAB6",
"y&	c #FFD5B0",
"z&	c #FECEA5",
"A&	c #FFC098",
"B&	c #F7A580",
"C&	c #C87F62",
"D&	c #A4837B",
"E&	c #C0C0C0",
"F&	c #BA978B",
"G&	c #D78F74",
"H&	c #EBA690",
"I&	c #FCBBA9",
"J&	c #FECEB9",
"K&	c #FFD9C1",
"L&	c #FFDBC8",
"M&	c #FFDFC6",
"N&	c #FFDDBF",
"O&	c #E39474",
"P&	c #AA8B81",
"Q&	c #C5A095",
"R&	c #DF9479",
"S&	c #FFB694",
"T&	c #FECFAC",
"U&	c #FED1AD",
"V&	c #FED9B9",
"W&	c #FFDCBC",
"X&	c #FED5B4",
"Y&	c #FEC49F",
"Z&	c #C98265",
"`&	c #C8A292",
" *	c #D98F70",
".*	c #F9B08B",
"+*	c #FAAF89",
"@*	c #FFBC94",
"#*	c #FEC197",
"$*	c #F4A783",
"%*	c #B6948A",
"      . + @ # $ % & * = - ; > , ' ) ! ~ { ] ^ / ( _ : <         ",
"    [ } | 1 2 3 4 5 6 7 8 9 0 a b c d e f g h i j k l m n       ",
"    o p q r s t u k v w x y z A B C D E F G H I J K L M N       ",
"    O P Q R S T U V W X Y Z `  ...+.@.#.K $.%.&.*.=.-.;.>.      ",
"      ,.'.).!.~.{.].^./.(._.:.<.[.}.|.1.2.3.4.5.6.7.8.9.0.      ",
"      a.b.c.d.        e.f.g.h.i.j.k.l.m.n.o.p.q.r.s.t.u.v.      ",
"      w.x.y.            z.A.B.C.D.E.F.G.H.I.J.K.L.M.N.O.P.      ",
"      Q.R.S.T.U.V.W.X.Y.Z.`. +.+++@+#+g $+%+&+*+=+-+;+>+,+      ",
"        '+)+!+~+{+]+^+/+(+_+:+<+.+[+- ]+}+|+1+2+3+4+5+6+7+      ",
"        8+9+0+a+b+]+c+d+e+f+g+h+i+[+j+k+l+m+n+o+p+q+r+s+t+      ",
"        u+v+w+x+y+z+A+B+C+D+E+F+G+H+I+J+K+L+M+N+O+P+Q+R+S+      ",
"        T+U+V+W+X+Y+Z+`+ @.@+@@@#@$@%@&@*@=@-@;@>@,@'@)@!@~@    ",
"        {@]@^@/@(@, _@:@<@[@}@|@1@2@3@4@5@6@7@8@9@0@a@b@c@d@    ",
"        e@f@g@h@@+i@j@k@l@m@n@o@p@q@r@s@t@u@v@w@x@y@z@A@B@C@D@  ",
"      E@F@G@H@I@J@K@L@M@  N@O@P@Q@R@S@T@U@V@W@X@Y@%+Z@`@ #.#+#  ",
"      @###$#%#&#*#=#-#;#>#,#'#)#!#~#{#]#^#/#(#_#:#<#[#}#|#1#2#  ",
"      3#4#5#6#7#8#9#J 0#a#b#c#d#e#f#g#h#i#j#k#l#m#n#o#p#q#r#s#  ",
"      t#u#v#w#x#y#z#A#B#C#D#E#F#G#/+H#I#'@J#K#L#M#N#O#P#Q#R#S#  ",
"      T#U#V#W#X#Y#Z#`# $.$+$@$#$$$%$&$*$=$B@-$;$>$,$'$)$Q#!$~$  ",
"      {$]$^$/$($_$:$<$[$}$|$1$2$3$4$5$6$7$8$9$0$a$b$c$d$'@e$f$  ",
"      g$h$i$j$k$l$m$n$o$  p$q$r$s$t$u$v$w$x$y$z$A$B$C$7$D$E$F$  ",
"    G$H$I$J$K$L$M$N$O$P$Q$R$1#K$S$T$U$    V$W$X$Y$Z$`$ %.%+%    ",
"    @%#%$%%%&%*%=%-%;%i#>%,%u$'%)%    !%~%{%]%^%/%O+u$(%_%:%    ",
"    <%[%}%$%|%1%X$2%3%4%5%6%7%8%9%0%a%b%c%d%e%f%g%h%i%j%k%l%    ",
"      m%n+n%o%N+p%q%S$h#r%s%t%u%v%w%x%y%z%A%B%C%D%E%F%G%H%      ",
"      I%J%K%n%L%M%N%O%P%Q%R%S%T%U%V%W%X%Y%Z%`% &.&+&@&#&$&      ",
"      %&&&*&=&-&;&>&,&'&Q )&!&~&{&]&^&/&(&_&:&<&[&}&|&1&        ",
"    2&3&4&*@5&6&7&8&9&0&a&b&c&d&e&f&g&h&i&h&j&k&l&m&            ",
"      n&o&p&      q&r&s&t&u&B.v&& w&x&y&z&A&B&C&D&              ",
"      ~@E&      2&  F&G&H&I&J&K&L&M&N&v%c&O&P&                  ",
"                      Q&R&S&T&U&V&W&X&Y&Z&                      ",
"                        `& *.*+*@*#*$*%*                        "};
