/* XPM */
static char * shelfMask_xpm[] = {
"32 32 588 2",
"  	c #4E0000",
". 	c #4E0A09",
"+ 	c #5E2726",
"@ 	c #947472",
"# 	c #937270",
"$ 	c #84605E",
"% 	c #7F5755",
"& 	c #744140",
"* 	c #601D1C",
"= 	c #4B0202",
"- 	c #7B5351",
"; 	c #E4D9D6",
"> 	c #F1E8E5",
", 	c #F6EFEC",
"' 	c #E2D8D5",
") 	c #EDE5E0",
"! 	c #EFE4E0",
"~ 	c #E2D3CF",
"{ 	c #CAB5B0",
"] 	c #BBA39D",
"^ 	c #AF8F8B",
"/ 	c #976B67",
"( 	c #713331",
"_ 	c #510404",
": 	c #4E0909",
"< 	c #AF9693",
"[ 	c #EAE1DE",
"} 	c #E2D9D5",
"| 	c #CBBCBA",
"1 	c #A99694",
"2 	c #D1C1BF",
"3 	c #BBA6A1",
"4 	c #CCB9B4",
"5 	c #DCCAC4",
"6 	c #BDA49E",
"7 	c #CEB5AE",
"8 	c #D0B6B0",
"9 	c #CAAEA7",
"0 	c #C1A49E",
"a 	c #926B66",
"b 	c #500D0C",
"c 	c #4C0202",
"d 	c #9B7D7A",
"e 	c #E8E0DC",
"f 	c #E0D6D3",
"g 	c #CCBFBC",
"h 	c #A89390",
"i 	c #907674",
"j 	c #654544",
"k 	c #846765",
"l 	c #AD9491",
"m 	c #BFA8A3",
"n 	c #A68984",
"o 	c #AA8C86",
"p 	c #BA9C95",
"q 	c #CAABA4",
"r 	c #CDAEA7",
"s 	c #D1B3AC",
"t 	c #D6BAB2",
"u 	c #652E2C",
"v 	c #653331",
"w 	c #E5DAD7",
"x 	c #E1D8D5",
"y 	c #E1D7D4",
"z 	c #E4DBD7",
"A 	c #EEE6E3",
"B 	c #EAE2DE",
"C 	c #AF9B99",
"D 	c #401C1B",
"E 	c #997E7B",
"F 	c #BFA7A1",
"G 	c #C3ABA6",
"H 	c #9E7F79",
"I 	c #B89992",
"J 	c #B1918A",
"K 	c #AB8881",
"L 	c #C8A69E",
"M 	c #C6A7A0",
"N 	c #D6BAB3",
"O 	c #4D0C0B",
"P 	c #4D0302",
"Q 	c #C4B2B0",
"R 	c #E5DCD8",
"S 	c #E0D5D3",
"T 	c #E2D9D6",
"U 	c #E1D6D3",
"V 	c #F2EBE7",
"W 	c #ECE4E0",
"X 	c #E6DDD9",
"Y 	c #D7C9C5",
"Z 	c #634644",
"` 	c #2B0605",
" .	c #DECAC4",
"..	c #A2827D",
"+.	c #B5958E",
"@.	c #AD8A83",
"#.	c #8F6963",
"$.	c #B7928D",
"%.	c #C5A59D",
"&.	c #CFB1A9",
"*.	c #A17E79",
"=.	c #5A2221",
"-.	c #F4ECE8",
";.	c #E5DBD8",
">.	c #C4B4B1",
",.	c #C7B8B5",
"'.	c #C9BAB7",
").	c #806461",
"!.	c #674746",
"~.	c #DCD0CE",
"{.	c #E2D8D4",
"].	c #D6C6C3",
"^.	c #260B0B",
"/.	c #724F4C",
"(.	c #BEA199",
"_.	c #89645F",
":.	c #CBAAA2",
"<.	c #957069",
"[.	c #A7837C",
"}.	c #C7A69D",
"|.	c #C7A9A1",
"1.	c #D2B7B0",
"2.	c #4B0505",
"3.	c #866462",
"4.	c #D6C9C6",
"5.	c #E5DCD9",
"6.	c #BAA9A6",
"7.	c #C9B9B6",
"8.	c #CAB9B6",
"9.	c #44211F",
"0.	c #856968",
"a.	c #7C5F5D",
"b.	c #53312F",
"c.	c #E7DDDA",
"d.	c #E3D6D2",
"e.	c #AD9592",
"f.	c #7D5F5C",
"g.	c #CCB0A9",
"h.	c #9D7973",
"i.	c #B4918A",
"j.	c #835D58",
"k.	c #B6928C",
"l.	c #A7847D",
"m.	c #C2A39C",
"n.	c #D7BBB5",
"o.	c #4E0E0E",
"p.	c #5C1716",
"q.	c #C2B0AD",
"r.	c #AE9A97",
"s.	c #E8DFDC",
"t.	c #A28C89",
"u.	c #DACFCC",
"v.	c #AE9C98",
"w.	c #311111",
"x.	c #E4DAD7",
"y.	c #F9F3EF",
"z.	c #482928",
"A.	c #CDBEBB",
"B.	c #E3D7D3",
"C.	c #DBCBC6",
"D.	c #280505",
"E.	c #876662",
"F.	c #AE8E87",
"G.	c #B08E86",
"H.	c #8F6A64",
"I.	c #BF9D95",
"J.	c #906A64",
"K.	c #DDC2B9",
"L.	c #5A2220",
"M.	c #83514F",
"N.	c #D8CCC8",
"O.	c #D4C6C3",
"P.	c #D5C9C5",
"Q.	c #D7CAC6",
"R.	c #E7DFDB",
"S.	c #E0D5D2",
"T.	c #CABAB7",
"U.	c #EEE7E4",
"V.	c #947F7C",
"W.	c #7C6261",
"X.	c #E7DAD7",
"Y.	c #E4D4CF",
"Z.	c #583A39",
"`.	c #5E3B38",
" +	c #BA9A93",
".+	c #9E7A74",
"++	c #AD8A84",
"@+	c #BA978F",
"#+	c #906C67",
"$+	c #B4938C",
"%+	c #CEB1AA",
"&+	c #5D2625",
"*+	c #AD918F",
"=+	c #D0C2BF",
"-+	c #CDBFBB",
";+	c #C5B3B0",
">+	c #E3D8D5",
",+	c #DFD3D0",
"'+	c #E3D9D6",
")+	c #DED4D0",
"!+	c #AD9A97",
"~+	c #604241",
"{+	c #E4D8D4",
"]+	c #DAC9C4",
"^+	c #AA8D88",
"/+	c #A5847F",
"(+	c #C2A29A",
"_+	c #A7837D",
":+	c #B39089",
"<+	c #98746D",
"[+	c #D4B4AB",
"}+	c #541817",
"|+	c #D1C3C0",
"1+	c #EBE4E0",
"2+	c #E3DBD8",
"3+	c #D3C6C2",
"4+	c #D2C4C0",
"5+	c #DED1CC",
"6+	c #DDCFCA",
"7+	c #DDD1CE",
"8+	c #BEAEAC",
"9+	c #2F0A0A",
"0+	c #EADCD7",
"a+	c #E7D4CD",
"b+	c #836764",
"c+	c #4B2A29",
"d+	c #A7847E",
"e+	c #B18E87",
"f+	c #AC8882",
"g+	c #AE8A83",
"h+	c #B48F89",
"i+	c #AF8B84",
"j+	c #D0ADA4",
"k+	c #551716",
"l+	c #4F0707",
"m+	c #563331",
"n+	c #8B7372",
"o+	c #EBE2DF",
"p+	c #DCCECA",
"q+	c #DBCCC7",
"r+	c #D9CAC5",
"s+	c #DDCDC8",
"t+	c #E3D6D3",
"u+	c #CBBBB9",
"v+	c #1D0000",
"w+	c #D1BEBA",
"x+	c #D8C2BC",
"y+	c #7B5C58",
"z+	c #431F1E",
"A+	c #A6837D",
"B+	c #7A5552",
"C+	c #85605B",
"D+	c #AC8982",
"E+	c #99746D",
"F+	c #8B655F",
"G+	c #BD968E",
"H+	c #5B1917",
"I+	c #581B1B",
"J+	c #60312D",
"K+	c #6E3933",
"L+	c #532E2C",
"M+	c #B5A2A0",
"N+	c #EFE6E2",
"O+	c #DED0CD",
"P+	c #D9C9C5",
"Q+	c #D9C8C3",
"R+	c #E0D3CF",
"S+	c #B6A3A1",
"T+	c #1A0101",
"U+	c #684845",
"V+	c #E6D1CB",
"W+	c #9D7C77",
"X+	c #815E5B",
"Y+	c #1A0000",
"Z+	c #290201",
"`+	c #926E68",
" @	c #582F2C",
".@	c #89625C",
"+@	c #9B746E",
"@@	c #AC847C",
"#@	c #570E0D",
"$@	c #5D2322",
"%@	c #522E2C",
"&@	c #9A5F56",
"*@	c #885048",
"=@	c #673833",
"-@	c #8D7370",
";@	c #DBCBC7",
">@	c #E7DCD8",
",@	c #876C6A",
"'@	c #2C0303",
")@	c #250000",
"!@	c #7F5C59",
"~@	c #391413",
"{@	c #5C3735",
"]@	c #98736E",
"^@	c #734C48",
"/@	c #966E69",
"(@	c #B18982",
"_@	c #A1776F",
":@	c #521615",
"<@	c #6C5151",
"[@	c #6D3932",
"}@	c #9E655C",
"|@	c #A8776E",
"1@	c #A67C74",
"2@	c #8E7370",
"3@	c #E2D4D0",
"4@	c #DBCCC8",
"5@	c #DFD4D0",
"6@	c #E4DBD6",
"7@	c #391314",
"8@	c #522F2E",
"9@	c #320D0D",
"0@	c #1B0000",
"a@	c #2C0504",
"b@	c #5D3735",
"c@	c #9A7772",
"d@	c #97736D",
"e@	c #906A65",
"f@	c #421817",
"g@	c #7C534E",
"h@	c #B68C82",
"i@	c #93625B",
"j@	c #551B1A",
"k@	c #C4B2AF",
"l@	c #210000",
"m@	c #78453E",
"n@	c #B48880",
"o@	c #D2B3AA",
"p@	c #957571",
"q@	c #DBCEC9",
"r@	c #D9CAC6",
"s@	c #EADEDA",
"t@	c #9A8280",
"u@	c #2C0404",
"v@	c #502522",
"w@	c #633734",
"x@	c #714945",
"y@	c #76514C",
"z@	c #623C39",
"A@	c #5B3331",
"B@	c #4C2423",
"C@	c #310B0A",
"D@	c #532B29",
"E@	c #714944",
"F@	c #B78980",
"G@	c #7A3C39",
"H@	c #4B0A0A",
"I@	c #C0B1AF",
"J@	c #482422",
"K@	c #4A201D",
"L@	c #926F6B",
"M@	c #82625F",
"N@	c #DCCDC9",
"O@	c #DACAC5",
"P@	c #E1D3CD",
"Q@	c #6D4D4A",
"R@	c #63332F",
"S@	c #A57067",
"T@	c #B6857C",
"U@	c #C49B92",
"V@	c #C19E96",
"W@	c #CFADA5",
"X@	c #DDBDB4",
"Y@	c #7F5954",
"Z@	c #5B3532",
"`@	c #8C645F",
" #	c #5F3532",
".#	c #B6877E",
"+#	c #5E1614",
"@#	c #4B0504",
"##	c #F2EAE7",
"$#	c #C2B2AE",
"%#	c #B4A09D",
"&#	c #C3B5B1",
"*#	c #725553",
"=#	c #826562",
"-#	c #E3D3CE",
";#	c #D9C7C3",
">#	c #4E2725",
",#	c #7B4A43",
"'#	c #98665F",
")#	c #A8766D",
"!#	c #B48981",
"~#	c #BB978F",
"{#	c #C3A199",
"]#	c #9A756F",
"^#	c #6A4340",
"/#	c #9C756F",
"(#	c #855C56",
"_#	c #8C5F58",
":#	c #9C6D65",
"<#	c #4C0404",
"[#	c #D5C6C3",
"}#	c #CBBDBA",
"|#	c #DBCFCC",
"1#	c #E5DBD7",
"2#	c #E1D4D0",
"3#	c #E1D4CF",
"4#	c #D8C6C2",
"5#	c #D9C7C4",
"6#	c #B9A6A2",
"7#	c #AB9592",
"8#	c #997F7B",
"9#	c #75504D",
"0#	c #704B48",
"a#	c #916E69",
"b#	c #754F4B",
"c#	c #8D6862",
"d#	c #B08A82",
"e#	c #A78078",
"f#	c #6A413D",
"g#	c #9F7068",
"h#	c #6D3732",
"i#	c #C7B6B4",
"j#	c #E0D5D1",
"k#	c #DDD1CC",
"l#	c #D9C9C4",
"m#	c #E5D8D4",
"n#	c #C0AAA6",
"o#	c #C5ADA9",
"p#	c #CEB3AC",
"q#	c #CCAFA7",
"r#	c #A07C75",
"s#	c #C09A92",
"t#	c #88615B",
"u#	c #9F766F",
"v#	c #572E2A",
"w#	c #AC7C73",
"x#	c #551210",
"y#	c #4E0101",
"z#	c #896563",
"A#	c #E4DBD8",
"B#	c #E1D7D3",
"C#	c #DED3CF",
"D#	c #DDD0CB",
"E#	c #DCCDC8",
"F#	c #DBCDC7",
"G#	c #DECECA",
"H#	c #D4C0BB",
"I#	c #BFA7A0",
"J#	c #B3958E",
"K#	c #A9857F",
"L#	c #A17D76",
"M#	c #9C756E",
"N#	c #AA8179",
"O#	c #895E57",
"P#	c #502623",
"Q#	c #7F4B45",
"R#	c #4E0303",
"S#	c #5E2A28",
"T#	c #EFE7E4",
"U#	c #E0D7D3",
"V#	c #DFD3D1",
"W#	c #DED1CE",
"X#	c #DED1CD",
"Y#	c #DCCEC9",
"Z#	c #DCCBC8",
"`#	c #CBB8B3",
" $	c #AA8F89",
".$	c #A68882",
"+$	c #A4827C",
"@$	c #A77F78",
"#$	c #A0746D",
"$$	c #845852",
"%$	c #976861",
"&$	c #4E0E0C",
"*$	c #4F0909",
"=$	c #E7DBD7",
"-$	c #E1D5D1",
";$	c #DFD2CF",
">$	c #DFD2CE",
",$	c #DBCAC5",
"'$	c #C7B0AB",
")$	c #B29791",
"!$	c #A98983",
"~$	c #9E7C76",
"{$	c #AA857E",
"]$	c #A17871",
"^$	c #A37971",
"/$	c #966A62",
"($	c #643935",
"_$	c #6B3834",
":$	c #B09794",
"<$	c #E0D4D0",
"[$	c #E0D4D1",
"}$	c #DDD1CD",
"|$	c #DCCFCB",
"1$	c #DACBC8",
"2$	c #D8C5BF",
"3$	c #B79C97",
"4$	c #9C7C76",
"5$	c #9D7B75",
"6$	c #A9847E",
"7$	c #AC847D",
"8$	c #8A605A",
"9$	c #A67B73",
"0$	c #7E524C",
"a$	c #81524C",
"b$	c #5B2523",
"c$	c #EFE4E1",
"d$	c #E1D3CF",
"e$	c #EBDDDA",
"f$	c #DDCCC7",
"g$	c #DAC8C2",
"h$	c #D5C2BC",
"i$	c #D2BCB6",
"j$	c #CDB1AB",
"k$	c #AB8A84",
"l$	c #99736D",
"m$	c #9C736C",
"n$	c #AA7E76",
"o$	c #7E524B",
"p$	c #976760",
"q$	c #5A1F1C",
"r$	c #4E0505",
"s$	c #CFBCB8",
"t$	c #BCA7A2",
"u$	c #300808",
"v$	c #7E5E5B",
"w$	c #866663",
"x$	c #BDA5A0",
"y$	c #D0B8B2",
"z$	c #D0B5AE",
"A$	c #B0918B",
"B$	c #A6847D",
"C$	c #A37F77",
"D$	c #A87F78",
"E$	c #A0756E",
"F$	c #8F635C",
"G$	c #754641",
"H$	c #6A3632",
"I$	c #4E0100",
"J$	c #8B6663",
"K$	c #E5D3CE",
"L$	c #6C4B48",
"M$	c #AE908B",
"N$	c #C9ADA6",
"O$	c #B3958F",
"P$	c #CFB4AD",
"Q$	c #CBAEA6",
"R$	c #A6847F",
"S$	c #A07C76",
"T$	c #936B66",
"U$	c #9E756D",
"V$	c #A77A72",
"W$	c #80524B",
"X$	c #6A3531",
"Y$	c #501110",
"Z$	c #DAC4BE",
"`$	c #C9AAA4",
" %	c #C8A79F",
".%	c #C5A59E",
"+%	c #C6A69E",
"@%	c #BFA098",
"#%	c #A78079",
"$%	c #976C65",
"%%	c #7E524D",
"&%	c #895B53",
"*%	c #5F2624",
"=%	c #8D6763",
"-%	c #D0B0A8",
";%	c #C19D94",
">%	c #BD9991",
",%	c #BD9990",
"'%	c #C4A098",
")%	c #A6827B",
"!%	c #936D66",
"~%	c #835953",
"{%	c #885C56",
"]%	c #612E2A",
"^%	c #4B0404",
"/%	c #4E0404",
"(%	c #8F6560",
"_%	c #B89088",
":%	c #B68D84",
"<%	c #C3988F",
"[%	c #BC928A",
"}%	c #A87E77",
"|%	c #6F423E",
"1%	c #632D2A",
"2%	c #4C0605",
"3%	c #4D0101",
"4%	c #682422",
"5%	c #814843",
"6%	c #632B29",
"7%	c #4F100F",
"                      . + @ # $ % & *                           ",
"                  = - ; > , ' ) ! ~ { ] ^ / ( _                 ",
"                : < [ } | 1 | 2 3 4 5 6 7 8 9 0 a b             ",
"              c d e f ' g h i j k l m n o p q r s t u           ",
"              v w f x y z A B C D E F G H I J K L M N O         ",
"            P Q R S T U ' V W X Y Z `  ...+.@.#.$.%.&.*.        ",
"            =.-.' ;.>.,.'.).!.~.{.].^./.(._.:.<.[.}.|.1.2.      ",
"            3.4.5.6.7.8.9.0.a.b.c.d.e.f.g.h.i.j.k.l.m.n.o.      ",
"          p.q.r.s.t.u.v.w.x.y.z.A.B.C.D.E.F.G.H.I.J.J K.L.      ",
"          M.N.O.P.Q.R.S.T.[ U.V.W.X.Y.Z.`. +.+++@+#+$+%+&+      ",
"          *+8.=+-+;+>+,+'+)+' !+~+{+]+^+/+(+_+:+<+:+K [+}+      ",
"          |+1+'+2+3+4+5+6+7+;.8+9+0+a+b+c+d+e+f+g+h+i+j+k+      ",
"        l+m+n+{.o+{.p+q+r+s+t+u+v+w+x+y+z+A+B+C+D+E+F+G+H+      ",
"        I+J+K+L+M+N+O+P+Q+q+R+S+T+U+V+W+X+Y+Z+`+ @.@+@@@#@      ",
"        $@%@&@*@=@-@{+;@r+s+>@,@'@)@!@~@{@j.]@^@T+/@(@_@        ",
"        :@<@[@}@|@1@2@3@4@5@6@7@8@9@0@a@b@c@d@e@f@g@h@i@        ",
"        j@k@l@m@n@o@p@q@r@s@t@u@v@w@x@y@z@A@B@C@D@E@F@G@        ",
"        H@> I@J@K@L@M@N@O@P@Q@R@S@T@U@V@W@X@Y@Z@`@ #.#+#        ",
"        @###$#%#&#*#=#-#;#O@>#,#'#)#!#~#{#]#^#/#(#_#:#          ",
"        <#[#}#|#1#2#3#4#5#s+6#7#8#9#0#a#b#c#d#e#f#g#h#          ",
"          i#s.U j#k#;@l#l#q+m#p+n#o#p#q#r#s#t#u#v#w#x#          ",
"        y#z#A#y B#C#D#q+E#N@F#G#H#I#J#K#L#M#N#O#P#Q#R#          ",
"          S#T#U#B#U V#W#X#Y#Z#`# $.$+$r#~#@$#$$$%$&$            ",
"          *$=$B#f -$;$>$p+q+,$'$)$!$~${$]$^$/$($_$              ",
"            :$<$[$5@}$|$1$]+2$3$4$5$6$7$8$9$0$a$@#              ",
"            b$c$Y d$e$f$g$h$i$j$k$@.l$m$n$o$p$q$                ",
"            r$s$t$u$v$w$x$y$z$A$B$C$D$E$F$G$H$I$                ",
"              J$K$L$M$N$O$P$Q$R$S$T$U$V$W$X$                    ",
"              Y$Z$z$`$ %.%+%@%{$#%$%%%&%*%                      ",
"                =%-%;%>%,%'%)%!%~%{%]%^%                        ",
"                /%(%_%:%<%[%}%|%1%2%3%                          ",
"                    4%5%6%7%@#                                  "};
