/* XPM */
static char * shelfButtonMaker_xpm[] = {
"32 32 493 2",
"  	c None",
". 	c #A2A7B7",
"+ 	c #A0A6B5",
"@ 	c #A0A5B5",
"# 	c #A0A6B6",
"$ 	c #A1A5B6",
"% 	c #A1A6B5",
"& 	c #A1A5B5",
"* 	c #A1A6B6",
"= 	c #A0A5B6",
"- 	c #A8ADBC",
"; 	c #898D97",
"> 	c #676A74",
", 	c #50525B",
"' 	c #34363B",
") 	c #202024",
"! 	c #252623",
"~ 	c #FFFFFF",
"{ 	c #FFFFFE",
"] 	c #F6F6F5",
"^ 	c #333431",
"/ 	c #000000",
"( 	c #9EA4B4",
"_ 	c #9FA4B4",
": 	c #9FA4B5",
"< 	c #111113",
"[ 	c #C4C5C2",
"} 	c #FCFFFC",
"| 	c #FBFEFB",
"1 	c #F9FEF9",
"2 	c #090908",
"3 	c #D4D2D0",
"4 	c #EEFAEF",
"5 	c #7E7E7B",
"6 	c #000101",
"7 	c #9DA2B2",
"8 	c #9EA2B2",
"9 	c #9DA2B3",
"0 	c #9DA3B2",
"a 	c #F1F3EE",
"b 	c #E5F3E7",
"c 	c #E6F3E8",
"d 	c #E3F2E6",
"e 	c #EFF3ED",
"f 	c #737370",
"g 	c #F6FFF8",
"h 	c #ECF9EE",
"i 	c #BEBFBD",
"j 	c #9BA1B0",
"k 	c #9BA0B0",
"l 	c #9BA0B1",
"m 	c #010101",
"n 	c #E1F0E4",
"o 	c #E3F1E5",
"p 	c #E0EFE2",
"q 	c #E1C8C7",
"r 	c #360000",
"s 	c #660000",
"t 	c #8A0000",
"u 	c #B60B0B",
"v 	c #FF3333",
"w 	c #E4CCBF",
"x 	c #F4F6F0",
"y 	c #1B1B1A",
"z 	c #9CA0B0",
"A 	c #999EAF",
"B 	c #999EAE",
"C 	c #270000",
"D 	c #720C0C",
"E 	c #FE7B79",
"F 	c #F35450",
"G 	c #F9302D",
"H 	c #FE0808",
"I 	c #FF0000",
"J 	c #FFAEAE",
"K 	c #5F5F59",
"L 	c #969CAC",
"M 	c #979CAC",
"N 	c #969BAC",
"O 	c #979CAB",
"P 	c #030000",
"Q 	c #64201F",
"R 	c #FD4240",
"S 	c #C64C49",
"T 	c #979BAC",
"U 	c #9499AA",
"V 	c #9499A9",
"W 	c #949AAA",
"X 	c #949AA9",
"Y 	c #390000",
"Z 	c #D21B1A",
"` 	c #A90404",
" .	c #9196A7",
"..	c #9297A7",
"+.	c #9197A7",
"@.	c #9296A7",
"#.	c #AA7482",
"$.	c #E42529",
"%.	c #FF6363",
"&.	c #EC7D73",
"*.	c #F83C3A",
"=.	c #CF0000",
"-.	c #8E94A5",
";.	c #8E94A4",
">.	c #8F94A4",
",.	c #AB6F7B",
"'.	c #E32529",
").	c #B70000",
"!.	c #F7C9C3",
"~.	c #D1E8D4",
"{.	c #CFE7D2",
"].	c #EFFFEE",
"^.	c #2B1B1A",
"/.	c #480000",
"(.	c #8B91A1",
"_.	c #8C90A2",
":.	c #8C91A2",
"<.	c #8C91A1",
"[.	c #918A99",
"}.	c #E0272C",
"|.	c #F42222",
"1.	c #D38B8B",
"2.	c #BCBCBC",
"3.	c #BBBBBB",
"4.	c #C2C2C2",
"5.	c #C1C1C1",
"6.	c #C6E8C9",
"7.	c #73786D",
"8.	c #888E9E",
"9.	c #898E9E",
"0.	c #BBBCBD",
"a.	c #C5B6B6",
"b.	c #DD6E6E",
"c.	c #F61B1B",
"d.	c #F91212",
"e.	c #DA7777",
"f.	c #BDBDBD",
"g.	c #3D3D3D",
"h.	c #545454",
"i.	c #C5C5C5",
"j.	c #C5E6CA",
"k.	c #E6F0DF",
"l.	c #070706",
"m.	c #888E9F",
"n.	c #898E9F",
"o.	c #858B9B",
"p.	c #868B9C",
"q.	c #C4C4C4",
"r.	c #C0C0C0",
"s.	c #B3B3B3",
"t.	c #ACACAC",
"u.	c #BC7474",
"v.	c #E22B2B",
"w.	c #FA0707",
"x.	c #C04545",
"y.	c #847B7B",
"z.	c #777777",
"A.	c #6E6E6E",
"B.	c #676767",
"C.	c #0D0D0D",
"D.	c #2E2E2E",
"E.	c #CEEFD4",
"F.	c #F1FEEF",
"G.	c #31312F",
"H.	c #848A9B",
"I.	c #858A9B",
"J.	c #838798",
"K.	c #828899",
"L.	c #747474",
"M.	c #717171",
"N.	c #797979",
"O.	c #858585",
"P.	c #8A8A8A",
"Q.	c #8F8F8F",
"R.	c #888888",
"S.	c #919191",
"T.	c #9E9E9E",
"U.	c #A1A1A1",
"V.	c #121212",
"W.	c #393939",
"X.	c #C3C3C3",
"Y.	c #DCFAE2",
"Z.	c #E2FFE5",
"`.	c #6C6D69",
" +	c #818696",
".+	c #808697",
"++	c #828798",
"@+	c #7F8595",
"#+	c #7F8596",
"$+	c #C6C6C6",
"%+	c #C8C8C8",
"&+	c #C9C9C9",
"*+	c #CACACA",
"=+	c #CBCBCB",
"-+	c #B9B9B9",
";+	c #171717",
">+	c #3F3F3F",
",+	c #E8FFED",
"'+	c #E7FFED",
")+	c #FDFDFD",
"!+	c #1E1E1C",
"~+	c #7A7F90",
"{+	c #7B8090",
"]+	c #7C8191",
"^+	c #7D8292",
"/+	c #7D8293",
"(+	c #7C8192",
"_+	c #808080",
":+	c #737373",
"<+	c #696969",
"[+	c #666666",
"}+	c #6A6A6A",
"|+	c #585858",
"1+	c #494949",
"2+	c #595959",
"3+	c #ADADAD",
"4+	c #B8B8B8",
"5+	c #161616",
"6+	c #EAFFEF",
"7+	c #FDFFFF",
"8+	c #919290",
"9+	c #707685",
"0+	c #717786",
"a+	c #757989",
"b+	c #777B8D",
"c+	c #797E90",
"d+	c #797F90",
"e+	c #B6B6B6",
"f+	c #1B1B1B",
"g+	c #0C0C0C",
"h+	c #282828",
"i+	c #191919",
"j+	c #484848",
"k+	c #5D5D5D",
"l+	c #181818",
"m+	c #060606",
"n+	c #E9FFEF",
"o+	c #DDDEDC",
"p+	c #050505",
"q+	c #606572",
"r+	c #656A78",
"s+	c #6C717E",
"t+	c #707483",
"u+	c #767B8C",
"v+	c #AEAEAE",
"w+	c #8E8E8E",
"x+	c #0F0F0F",
"y+	c #474747",
"z+	c #5A5A5A",
"A+	c #333333",
"B+	c #5C5C5C",
"C+	c #606060",
"D+	c #0B0B0B",
"E+	c #FAFCFB",
"F+	c #2F2F2E",
"G+	c #4B4F59",
"H+	c #535663",
"I+	c #5E6270",
"J+	c #676C7B",
"K+	c #72788A",
"L+	c #727889",
"M+	c #A7A7A7",
"N+	c #D7D7D7",
"O+	c #1F1F1F",
"P+	c #9C9C9C",
"Q+	c #020202",
"R+	c #9B9B9B",
"S+	c #F5FFF9",
"T+	c #797978",
"U+	c #3D4049",
"V+	c #434550",
"W+	c #4F535F",
"X+	c #5D616F",
"Y+	c #707586",
"Z+	c #A2A2A2",
"`+	c #5F5F5F",
" @	c #7F7F7F",
".@	c #969696",
"+@	c #8B8B8B",
"@@	c #999999",
"#@	c #A3A3A3",
"$@	c #5E5E5E",
"%@	c #A0A0A0",
"&@	c #EAFFF0",
"*@	c #E8FFEE",
"=@	c #EBFFF1",
"-@	c #E2E3E1",
";@	c #373A42",
">@	c #3B3E47",
",@	c #464954",
"'@	c #565A67",
")@	c #6C7284",
"!@	c #6D7284",
"~@	c #040404",
"{@	c #898989",
"]@	c #0E0E0E",
"^@	c #080808",
"/@	c #444444",
"(@	c #838383",
"_@	c #6F7477",
":@	c #9CA3A3",
"<@	c #C4CCC9",
"[@	c #E6EFE9",
"}@	c #515250",
"|@	c #353740",
"1@	c #3A3C45",
"2@	c #434651",
"3@	c #535764",
"4@	c #696F7F",
"5@	c #373737",
"6@	c #CECECE",
"7@	c #565656",
"8@	c #ABABAB",
"9@	c #1C1C1C",
"0@	c #D6D6D6",
"a@	c #353535",
"b@	c #242424",
"c@	c #B2B2B2",
"d@	c #343740",
"e@	c #34373F",
"f@	c #343640",
"g@	c #33363F",
"h@	c #32353E",
"i@	c #32353D",
"j@	c #34363E",
"k@	c #363943",
"l@	c #3C3F49",
"m@	c #484C57",
"n@	c #565A69",
"o@	c #656B7C",
"p@	c #666B7D",
"q@	c #989898",
"r@	c #949494",
"s@	c #848484",
"t@	c #929292",
"u@	c #868686",
"v@	c #7D7D7D",
"w@	c #7B7B7B",
"x@	c #909090",
"y@	c #686868",
"z@	c #393C46",
"A@	c #393C45",
"B@	c #3A3E47",
"C@	c #3E414C",
"D@	c #474A56",
"E@	c #515562",
"F@	c #595E6C",
"G@	c #606677",
"H@	c #616676",
"I@	c #BFBFBF",
"J@	c #B4B4B4",
"K@	c #B1B1B1",
"L@	c #434853",
"M@	c #434854",
"N@	c #454855",
"O@	c #454956",
"P@	c #454A56",
"Q@	c #474B57",
"R@	c #494D5A",
"S@	c #4D505E",
"T@	c #525665",
"U@	c #575C6B",
"V@	c #5C6071",
"W@	c #5A5E6F",
"X@	c #5A5F70",
"Y@	c #4B4F5D",
"Z@	c #4B4F5E",
"`@	c #4D515F",
" #	c #4E5360",
".#	c #505563",
"+#	c #515564",
"@#	c #525765",
"##	c #535867",
"$#	c #555A6A",
"%#	c #575E6D",
"&#	c #5B5F70",
"*#	c #5C6173",
"=#	c #505564",
"-#	c #484C59",
";#	c #4D5160",
">#	c #535768",
",#	c #565C6C",
"'#	c #585D6E",
")#	c #595F70",
"!#	c #5A6071",
"~#	c #5B6171",
"{#	c #434754",
"]#	c #414652",
"^#	c #3D404C",
"/#	c #414551",
"(#	c #474A59",
"_#	c #4C5260",
":#	c #515767",
"<#	c #545B6A",
"[#	c #575D6D",
"}#	c #595E6F",
"|#	c #595F71",
"1#	c #5B6072",
"2#	c #5A6072",
"3#	c #363A44",
"4#	c #333741",
"5#	c #2F323C",
"6#	c #333640",
"7#	c #3A3F4A",
"8#	c #454958",
"9#	c #4E5361",
"0#	c #525868",
"a#	c #565B6C",
"b#	c #575D6F",
"c#	c #585E70",
"d#	c #2F333D",
"e#	c #2D3039",
"f#	c #2E313A",
"g#	c #454850",
"h#	c #686B72",
"i#	c #8B8D91",
"j#	c #ABACAE",
"k#	c #282B34",
"l#	c #2B2E36",
"m#	c #30343E",
"n#	c #3B404C",
"o#	c #474C5B",
"p#	c #4F5565",
"q#	c #52596A",
"r#	c #555B6C",
"s#	c #555B6D",
"t#	c #575C6F",
"u#	c #2B2E37",
"v#	c #292C34",
"w#	c #292B33",
"x#	c #292B34",
"y#	c #2A2D36",
"z#	c #2C2F38",
"A#	c #2F313C",
"B#	c #31343F",
"C#	c #323640",
"D#	c #5D6067",
"E#	c #7E8185",
"F#	c #9C9D9F",
"G#	c #B5B6B6",
"H#	c #25272F",
"I#	c #272931",
"J#	c #353843",
"K#	c #424755",
"L#	c #4C5160",
"M#	c #515567",
"N#	c #53586B",
"O#	c #545A6C",
"P#	c #353944",
"Q#	c #292C35",
"R#	c #262931",
"S#	c #25282F",
"T#	c #24272F",
"U#	c #262830",
"V#	c #272A32",
"W#	c #282A32",
"X#	c #282A33",
"Y#	c #272A33",
"Z#	c #252830",
"`#	c #24272E",
" $	c #23262E",
".$	c #23252D",
"+$	c #22252C",
"@$	c #282B33",
"#$	c #3F4350",
"$$	c #494E5E",
"%$	c #4E5465",
"&$	c #515768",
"*$	c #52586A",
"=$	c #53596B",
"-$	c #3B404D",
";$	c #353844",
">$	c #2D303A",
",$	c #22252D",
"'$	c #22252B",
")$	c #22242B",
"!$	c #21232B",
"~$	c #22242C",
"{$	c #21242C",
"]$	c #21242A",
"^$	c #21232A",
"/$	c #20232A",
"($	c #21242B",
"_$	c #23252C",
":$	c #272932",
"<$	c #2F333E",
"[$	c #3C414F",
"}$	c #464B5C",
"|$	c #4C5263",
"1$	c #4F5667",
"2$	c #515668",
"3$	c #51586A",
"4$	c #525869",
". . . . . . . . . . . . . . . . . . . . . . . . . . . . . . . . ",
"+ @ # # $ $ % & * = * * = = # & - ; > , ' ) ! ~ { ] ^ / * # + + ",
"( _ _ _ _ : : _ _ _ < / [ } | 1 ~ 2 / / / / 3 4 ~ 5 6 / _ _ _ _ ",
"7 7 8 7 9 7 0 7 9 9 / / a b c d e / / / / f g h i / / / 8 7 9 0 ",
"j k j k l k j j l l / m ~ n o p q r s t u v w x y / / / z z k k ",
"A B B B B B A B B B C D E F G H I I I I I I J K / / / / B B B B ",
"L M M M L L N L O M P Q R I I I I I I I I I S / / / / / M L L T ",
"U V W W X V U V U V Y Z I I I I I I I I I I ` / / / / / V X V U ",
" . ...+. .+. .@.#.$.I I I I I I I I %.&.*.I =./ / / / / +. .+.+.",
"-.;.>.-.>.;.,.'.I I I I I I I I ).!.~.{.].^././ / / / / >.>.>.;.",
"(._.:.<.[.}.I I I I I I I I |.1.2.3.4.5.6.7./ / / / / / :.:.(.<.",
"8.9.0.5.5.a.b.c.I I I I d.e.f.2.g.h.i.5.j.k.l./ / / / / m.m.9.n.",
"o.p.5.q.r.2.s.t.u.v.w.x.y.z.A.B.C.D.2.5.E.F.G./ / / / / H.H.I.H.",
"J.K.q.L.M.L.N.N.O.P.Q.R.S.T.U.T.V.W.X.5.Y.Z.`./ / / / /  +.+.+++",
"@+#+5.$+%+&+*+=+*+*+&+%+$+q.4.-+;+>+$+5.,+'+)+!+/ / / / ~+{+]+^+",
"/+(+q._+:+A.<+[+<+<+}+|+1+2+3+4+5+>+$+5.6+6+7+8+/ / / / 9+0+a+b+",
"c+d+e+f+g+h+5+i+j+4.k+m l+m+}+i.l+>+$+5.6+6+n+o+p+/ / / q+r+s+t+",
"u+u+v+/ w+x+y+z+/ <+/ A+B+;+/ C+D+>+$+5.6+6+,+E+F+/ / / G+H+I+J+",
"K+L+M+/ N+O+L.P+m e+Q+/ / / / R+;+>+$+5.6+6+6+S+T+/ / / U+V+W+X+",
"Y+Y+v+/ Z+l+`+ @/ .@/ +@@@#@$@%@f+>+$+5.&@n+*@=@-@/ / / ;@>@,@'@",
")@!@v+/ U.l+z+<+~@{@]@^@/@i+/ (@f+>+$+5._@:@<@[@~ }@/ / |@1@2@3@",
"4@4@e+5@6@7@O.8@9@0@4+a@/ b@c@X.l+g.$+5.d@e@d@f@g@h@i@j@k@l@m@n@",
"o@p@X.q@R.r@+@s@t@N.u@{@v@w@t@x@y@t@X.5.z@A@A@z@z@A@A@B@C@D@E@F@",
"G@H@5.q.i.i.i.X.I@2.4+J@K@t.M+#@8@X.5.5.L@M@N@O@O@P@Q@R@S@T@U@V@",
"W@X@5.5.5.5.5.5.5.5.5.5.5.5.4.X.X.5.5.5.Y@Z@`@ #.#+#@###$#%#&#*#",
"=#=#5.5.5.5.5.5.5.5.5.5.5.5.5.5.5.5.5.5.-#Z@;#=#>#$#,#'#)#!#~#*#",
"{#]#5.5.5.5.5.5.5.5.5.5.5.5.5.5.5.5.5.5.^#/#(#_#:#<#[#}#)#|#1#2#",
"3#4#5.5.5.5.5.5.5.5.5.5.5.5.5.5.5.5.5.5.5#6#7#8#9#0#a#b#c#c#|#)#",
"d#e#e#f#g#h#i#j#5.5.5.5.5.5.5.5.5.5.5.5.k#l#m#n#o#p#q#r#s#t#t#b#",
"m#u#v#w#x#y#z#e#A#B#C#C@D#E#F#G#5.5.5.5.H#I#u#J#K#L#M#N#O#r#s#s#",
"P#f#Q#R#S#T#H#S#U#R#V#W#X#Y#V#R#Z#`# $.$+$T#@$B##$$$%$&$*$=$=$=$",
"-$;$>$V#T#,$'$)$!$~$~$~$+$+${$]$!$^$/$^$($_$:$<$[$}$|$1$2$3$4$4$"};
