/* XPM */
static char * showAffectedVert_xpm[] = {
"32 32 381 2",
"  	c #C1C1C1",
". 	c #7C7F9C",
"+ 	c #42487E",
"@ 	c #20276C",
"# 	c #091260",
"$ 	c #4E5384",
"% 	c #9395A8",
"& 	c #B5B6BA",
"* 	c #656990",
"= 	c #141C66",
"- 	c #072371",
"; 	c #06418D",
"> 	c #054D98",
", 	c #04539E",
"' 	c #063582",
") 	c #C1C1C0",
"! 	c #0371BB",
"~ 	c #072F7C",
"{ 	c #081765",
"] 	c #0459A4",
"^ 	c #C3C3BD",
"/ 	c #C4C4B9",
"( 	c #C3C3BC",
"_ 	c #C2C2BF",
": 	c #AAABB4",
"< 	c #878AA2",
"[ 	c #054793",
"} 	c #063B87",
"| 	c #081D6B",
"1 	c #072976",
"2 	c #036BB5",
"3 	c #045FA9",
"4 	c #A0A289",
"5 	c #A6A767",
"6 	c #858871",
"7 	c #464B72",
"8 	c #2D3471",
"9 	c #0A2B75",
"0 	c #0962A7",
"a 	c #0773B9",
"b 	c #C7C6B4",
"c 	c #ACAE56",
"d 	c #E4E333",
"e 	c #A4AF49",
"f 	c #33637C",
"g 	c #0B458B",
"h 	c #0B2670",
"i 	c #244D78",
"j 	c #468081",
"k 	c #285076",
"l 	c #0E1C64",
"m 	c #0365AF",
"n 	c #BCBCC2",
"o 	c #9191CC",
"p 	c #7777CF",
"q 	c #6969CD",
"r 	c #7474C6",
"s 	c #B3B2B5",
"t 	c #D7D66D",
"u 	c #E5E433",
"v 	c #A8B94D",
"w 	c #397786",
"x 	c #0F488A",
"y 	c #073C87",
"z 	c #172A67",
"A 	c #797D49",
"B 	c #D3D438",
"C 	c #84A460",
"D 	c #1E75A1",
"E 	c #0673B9",
"F 	c #0A1F6B",
"G 	c #0572BA",
"H 	c #BDBDC2",
"I 	c #7A7ACF",
"J 	c #6E6ED2",
"K 	c #6868D0",
"L 	c #5C5CCC",
"M 	c #4C4CC8",
"N 	c #4444BD",
"O 	c #B8B79E",
"P 	c #AFB055",
"Q 	c #A6A840",
"R 	c #788D59",
"S 	c #285B80",
"T 	c #094A91",
"U 	c #065AA3",
"V 	c #1C6E9D",
"W 	c #A0C45F",
"X 	c #F9F82F",
"Y 	c #B3CF55",
"Z 	c #2A86A5",
"` 	c #1C366B",
" .	c #3B7D8A",
"..	c #2F8098",
"+.	c #15417D",
"@.	c #0A1965",
"#.	c #9292C7",
"$.	c #6363CF",
"%.	c #6262CE",
"&.	c #6C6CCA",
"*.	c #6E6EC6",
"=.	c #3C3CC3",
"-.	c #3030B2",
";.	c #515099",
">.	c #C5C666",
",.	c #F1F031",
"'.	c #D0DD43",
").	c #539D8E",
"!.	c #0D76B5",
"~.	c #0F78B4",
"{.	c #9BAF52",
"].	c #62866A",
"^.	c #187DAF",
"/.	c #0472BA",
"(.	c #578372",
"_.	c #BFC33E",
":.	c #A4A842",
"<.	c #447075",
"[.	c #0C70B0",
"}.	c #6A6AC8",
"|.	c #5353CA",
"1.	c #6060C8",
"2.	c #C0C0C1",
"3.	c #6B6BB5",
"4.	c #25258E",
"5.	c #2A2A77",
"6.	c #CCCC8A",
"7.	c #BEBF3D",
"8.	c #A7B64C",
"9.	c #429498",
"0.	c #0B75B7",
"a.	c #1B73A3",
"b.	c #1A2861",
"c.	c #157BB1",
"d.	c #1179B3",
"e.	c #0974B8",
"f.	c #153A78",
"g.	c #79814C",
"h.	c #EAEA33",
"i.	c #DAE33E",
"j.	c #61A586",
"k.	c #5B5BC3",
"l.	c #3E3EC3",
"m.	c #4A4AC1",
"n.	c #BFBFC1",
"o.	c #5C5C9A",
"p.	c #1B1B69",
"q.	c #1B1B5A",
"r.	c #BAB9A9",
"s.	c #7A7D6F",
"t.	c #404B58",
"u.	c #1B79A8",
"v.	c #3A5467",
"w.	c #82A260",
"x.	c #6D966C",
"y.	c #2F4061",
"z.	c #0D216A",
"A.	c #0C5295",
"B.	c #3A909C",
"C.	c #85AA64",
"D.	c #7D8E54",
"E.	c #338CA0",
"F.	c #0A75B7",
"G.	c #7676BE",
"H.	c #2D2DAE",
"I.	c #28289D",
"J.	c #3D3D91",
"K.	c #4B4B87",
"L.	c #161657",
"M.	c #111144",
"N.	c #2D2D54",
"O.	c #8D8F9D",
"P.	c #222A5B",
"Q.	c #336D84",
"R.	c #2081AB",
"S.	c #114383",
"T.	c #79844F",
"U.	c #F4F330",
"V.	c #D4D93B",
"W.	c #5F9479",
"X.	c #1078B4",
"Y.	c #167BB0",
"Z.	c #1A2E66",
"`.	c #0C5EA0",
" +	c #BABABF",
".+	c #3C3C93",
"++	c #1E1E74",
"@+	c #18185C",
"#+	c #121246",
"$+	c #0D0D34",
"%+	c #0F0F34",
"&+	c #9B9BA3",
"*+	c #C4C4BA",
"=+	c #6A6E57",
"-+	c #B3B841",
";+	c #839050",
">+	c #2B3259",
",+	c #092570",
"'+	c #104889",
")+	c #4E8981",
"!+	c #B3BC44",
"~+	c #B1C851",
"{+	c #509C90",
"]+	c #0E77B5",
"^+	c #055AA4",
"/+	c #B7B7BD",
"(+	c #5A5A84",
"_+	c #202057",
":+	c #12123D",
"<+	c #20205B",
"[+	c #6262A8",
"}+	c #C6C6B5",
"|+	c #B4B557",
"1+	c #F0EE31",
"2+	c #BFD34C",
"3+	c #3D919A",
"4+	c #3E7580",
"5+	c #465F64",
"6+	c #8686C9",
"7+	c #6161CE",
"8+	c #5151C9",
"9+	c #4141C1",
"0+	c #C5C5B8",
"a+	c #C1C27F",
"b+	c #B4B53D",
"c+	c #2885A7",
"d+	c #112569",
"e+	c #0B63A6",
"f+	c #8989C6",
"g+	c #5B5BCC",
"h+	c #3232BF",
"i+	c #9D9DB8",
"j+	c #C8C7B1",
"k+	c #4D5260",
"l+	c #2A4C71",
"m+	c #0C76B6",
"n+	c #0D468A",
"o+	c #357E91",
"p+	c #1D487A",
"q+	c #0D165F",
"r+	c #8D8DC5",
"s+	c #5252C9",
"t+	c #4848C6",
"u+	c #3030BB",
"v+	c #6F6FA9",
"w+	c #747893",
"x+	c #0667AD",
"y+	c #235D87",
"z+	c #8A8D46",
"A+	c #C4C73D",
"B+	c #6C8E66",
"C+	c #1374AD",
"D+	c #9393C3",
"E+	c #4D4DC8",
"F+	c #4646C6",
"G+	c #3030BC",
"H+	c #373798",
"I+	c #0F185F",
"J+	c #1D6998",
"K+	c #267598",
"L+	c #14528D",
"M+	c #083781",
"N+	c #0B206A",
"O+	c #38576D",
"P+	c #C4CC41",
"Q+	c #FBFA2F",
"R+	c #A1C963",
"S+	c #1B7EAE",
"T+	c #9B9BC3",
"U+	c #4C4CC7",
"V+	c #3333C0",
"W+	c #272797",
"X+	c #A5A5B5",
"Y+	c #444A6A",
"Z+	c #7F8248",
"`+	c #A2A945",
" @	c #527268",
".@	c #105593",
"+@	c #0466AE",
"@@	c #6AA77E",
"#@	c #A2A643",
"$@	c #589480",
"%@	c #A3A3C2",
"&@	c #4B4BC7",
"*@	c #4949C7",
"=@	c #3737C1",
"-@	c #7575A1",
";@	c #979986",
">@	c #C1C23B",
",@	c #EFF336",
"'@	c #91C06B",
")@	c #197DAF",
"!@	c #0874B8",
"~@	c #137AB2",
"{@	c #1C6393",
"]@	c #142E6E",
"^@	c #066DB3",
"/@	c #AEAEC2",
"(@	c #4A4AC7",
"_@	c #3C3CC2",
":@	c #2A2AA5",
"<@	c #3F3F8B",
"[@	c #BDBEAB",
"}@	c #8B8E4A",
"|@	c #C7D646",
"1@	c #71AE7E",
"2@	c #073682",
"3@	c #B7B7C1",
"4@	c #3F3FC3",
"5@	c #2C2CAC",
"6@	c #222283",
"7@	c #AEAEB8",
"8@	c #7D8081",
"9@	c #4B6362",
"0@	c #4141C4",
"a@	c #2E2EB5",
"b@	c #232388",
"c@	c #7E7EA2",
"d@	c #9697A5",
"e@	c #131B5E",
"f@	c #095CA2",
"g@	c #707496",
"h@	c #5050C6",
"i@	c #4444C5",
"j@	c #464689",
"k@	c #2B3272",
"l@	c #5757C5",
"m@	c #4545C5",
"n@	c #262696",
"o@	c #21217A",
"p@	c #B5B5BC",
"q@	c #161E5D",
"r@	c #2B7D9B",
"s@	c #2986A6",
"t@	c #1268A2",
"u@	c #07428D",
"v@	c #595E8A",
"w@	c #6060C5",
"x@	c #20207D",
"y@	c #8787A6",
"z@	c #C2C2BE",
"A@	c #4F5458",
"B@	c #AAB043",
"C@	c #A6AC44",
"D@	c #4E5452",
"E@	c #1D2564",
"F@	c #4F5484",
"G@	c #6969C4",
"H@	c #4747C6",
"I@	c #3B3BC2",
"J@	c #2A2AA6",
"K@	c #212182",
"L@	c #52528E",
"M@	c #C3C3BB",
"N@	c #A0A26A",
"O@	c #E5E436",
"P@	c #F0EE35",
"Q@	c #BFBF6C",
"R@	c #C5C5B7",
"S@	c #7474C3",
"T@	c #2C2CAA",
"U@	c #222284",
"V@	c #232376",
"W@	c #BBBBBE",
"X@	c #CDCDA4",
"Y@	c #E1E074",
"Z@	c #E4E36D",
"`@	c #D2D19A",
" #	c #7A7AC3",
".#	c #4040C4",
"+#	c #28289A",
"@#	c #1E1E76",
"##	c #1A1A64",
"$#	c #9090A6",
"%#	c #C7C7B3",
"&#	c #C8C8B1",
"*#	c #7F7FC1",
"=#	c #2E2EB3",
"-#	c #171758",
";#	c #14144C",
">#	c #55557A",
"                                                                ",
"                                                                ",
"                                          . + @ # # # # # @ $ % ",
"                                    & * = - ; > , ' # - - # # # ",
"              ) )               & * = # ; ! ! > ~ { - { - , ] , ",
"            ) ^ / ( _     : < $ # - [ > { } | 1 , 2 ! 3 { , ! ! ",
"          ) ( 4 5 6 7 8 # # # 9 0 a ! > | { ~ ! ! ! ! ! ] | 2 ! ",
"          ) b c d e f g > , h i j k l 1 ] 2 | , ! ! ! ! ! ' ; m ",
"  n o p q r s t u v w x y 1 z A B C D E ! ! ] F E a G m > ~ # | ",
"H I J K L M N O P Q R S T U V W X Y Z a ! ! E `  ...+.@.' > } 1 ",
"#.$.%.&.*.=.-.;.>.,.'.).!.! ~.).{.].^.a /.! !.(._.:.<.[./.! ! - ",
"}.|.1.2.  3.4.5.6.7.8.9.0.! G ~.a.b.c.d.e.U f.g.h.i.j.d./.! ! 3 ",
"k.l.m.n.  o.p.q.r.s.t.u.a ! ! ! e.v.w.x.y.z.A.B.C.D.E.F.! ! ! ! ",
"G.H.I.J.K.L.M.N._ O.P.Q.R.e.] > S.T.U.V.W.X.G F.Y.Z.`./.! ! [ - ",
" +.+++@+#+$+%+&+) *+=+-+;+>+,+' '+)+!+~+{+]+! ! ! ^+{ m [ | 1 , ",
"  /+(+_+:+<+[+  ) }+|+1+2+3+e.! E ^.4+5+R.a ! ! ! ! ~ # ' m ! ! ",
"      6+7+8+9+n.) 0+a+b+w.c+E ! ! E 0.d+e+E G 2 ; | 1 - } ! ! ! ",
"      f+g+M h+i+  _ j+k+l+m+/.! ! ! ! n+i o+p+q+' 3 ! 2 - > ! ! ",
"      r+s+t+u+v+    _ w+q+x+G ! ! ! x+y+z+A+B+C+/.! ! ! 2 { [ ! ",
"      D+E+F+G+H+      : I+J+K+L+M+| N+O+P+Q+R+S+G ! ! ! ! m - ~ ",
"      T+U+t+V+W+X+    ) Y+Z+`+ @.@+@G S+@@#@$@~./.! ! ! ! ! ! } ",
"      %@&@*@=@I.-@    _ ;@>@,@'@)@/.! !@~@{@]@^@! ! ! ! ! ! 2 } ",
"      /@(@(@_@:@<@    ) [@}@|@1@Y./.! ! ! /.2@~ ! ! ! ! ! ; { = ",
"      3@*@(@4@5@6@7@    ( 8@9@Z e.! ! ! ! ! ! - ; ! m [ { = .   ",
"      2.t+*@0@a@b@c@    ) d@e@f@/.! ! ! ! ! ! 2 # 1 # = g@&     ",
"        h@*@i@G+4.j@        k@~ /.G ! ! ! ] } | # @ . &         ",
"        l@t+m@V+n@o@p@      < q@r@s@t@u@| # = v@%               ",
"        w@t+F+=@I.x@y@      z@A@B@C@D@E@F@. &                   ",
"        G@H@F+I@J@K@L@      M@N@O@P@Q@R@)                       ",
"        S@F+F+=.T@U@V@W@    z@X@Y@Z@`@M@)                       ",
"         #.#=.h++#@###$#    ) ( %#&#*+)                         ",
"        *#V+=#+#@#-#;#>#        ) ) )                           "};
