/* XPM */
static char * soundManager_xpm[] = {
"32 32 82 1",
" 	c None",
".	c #3F93DB",
"+	c #429CE8",
"@	c #429AE7",
"#	c #4198E6",
"$	c #4196E5",
"%	c #4094E4",
"&	c #3F92E2",
"*	c #3E91E0",
"=	c #3D8DDE",
"-	c #3C8BDD",
";	c #3B88DB",
">	c #3986D9",
",	c #3883D8",
"'	c #3680D6",
")	c #357DD4",
"!	c #347BD1",
"~	c #3378D0",
"{	c #3275CE",
"]	c #3072CD",
"^	c #2E70CA",
"/	c #2E6CC8",
"(	c #2C6AC6",
"_	c #2B67C4",
":	c #2964C2",
"<	c #2963C1",
"[	c #285FBF",
"}	c #275DBE",
"|	c #265BBD",
"1	c #2559BA",
"2	c #2457B9",
"3	c #2456B8",
"4	c #204FAC",
"5	c #439DE9",
"6	c #4D4D4D",
"7	c #47A6FA",
"8	c #46A3F8",
"9	c #45A1F7",
"0	c #449EF6",
"a	c #439CF4",
"b	c #429AF2",
"c	c #4097F0",
"d	c #3F94EE",
"e	c #3E91EC",
"f	c #3D8FEA",
"g	c #3B8BE8",
"h	c #3989E6",
"i	c #3985E4",
"j	c #3782E2",
"k	c #367FDF",
"l	c #347CDD",
"m	c #3378DB",
"n	c #3276D9",
"o	c #3072D7",
"p	c #2F70D5",
"q	c #2E6DD3",
"r	c #2D6AD1",
"s	c #2B67D0",
"t	c #2B65CD",
"u	c #2963CC",
"v	c #2861CA",
"w	c #FF3A3A",
"x	c #2354B7",
"y	c #47A5FA",
"z	c #FFFFFF",
"A	c #3378DC",
"B	c #3275D9",
"C	c #3073D7",
"D	c #2C6AD1",
"E	c #2C68D0",
"F	c #2A65CE",
"G	c #2962CC",
"H	c #2860CA",
"I	c #3478CF",
"J	c #367DD7",
"K	c #357BD2",
"L	c #3173C6",
"M	c #5C5C5C",
"N	c #E8E7E7",
"O	c #3071C1",
"P	c #000000",
"Q	c #53E481",
".+@#$%&*=-;>,')!~{]^/(_:<[}|1234",
"5667890abcdefghijklmnopqrstuvwwx",
"566yzzzzzzzzzzzzzklABCpqDEFGHwwx",
"IJKKKKKKKKKKKKKKKKKKKKKKKKKKKKJI",
"LMMMMMMMMMMMMMMMMMMMMMMMMMMMMMNL",
"OMPPPPPPPPPPPPPPPPPPPPPPPPPPPPNO",
"OMPPPPPPPPPPPPPPPPPPPPPPPPPPPPNO",
"OMPPPPPPPPPPPPPPPPPQPPPPPPPPPPNO",
"OMPPPPPPPPPPPPPPPPPQPPPPQPPPPPNO",
"OMPPPPPPPPPPPPPPQPPQPPPPQPQPPPNO",
"OMPPPPPPPPPPQPPPQPPQPPPPQPQPPPNO",
"OMPPPQPPPQPQQPPPQPPQPQPPQPQPPPNO",
"OMPPQQPQPQPQQQPPQPPQPQPPQPQPPPNO",
"OMQPQQPQPQQQQQQQQQQQPQPQQPQPPQNO",
"OMQQQQPQPQQQQQQQQQQQQQQQQPQQPQNO",
"OMQQQQQQPQQQQQQQQQQQQQQQQQQQQQNO",
"OMQQQQQQPQQQQQQQQQQQQQQQQQQQQQNO",
"OMQQQQQQPQQQQQQQQQQQQQQQQQQQQQNO",
"OMQQQQQQQQQQQQQQQQQQQQQQQQQQQPNO",
"OMQPQQQQQQQQQQPQQPQQQQQQQQPQQPNO",
"OMPPQQQQQQPQPQPQQPQQQQPQQQPQQPNO",
"OMPPQQQQQQPPPQPQQPQPQQPQQQPQQPNO",
"OMPPQPQPQQPPPQPQPPQPQQPQQQPQPPNO",
"OMPPPPPPQQPPPQPQPPPPQPPPQPPQPPNO",
"OMPPPPPPQPPPPQPPPPPPPPPPPPPPPPNO",
"OMPPPPPPQPPPPQPPPPPPPPPPPPPPPPNO",
"OMPPPPPPQPPPPPPPPPPPPPPPPPPPPPNO",
"OMPPPPPPQPPPPPPPPPPPPPPPPPPPPPNO",
"OMPPPPPPPPPPPPPPPPPPPPPPPPPPPPNO",
"OMPPPPPPPPPPPPPPPPPPPPPPPPPPPPNO",
"LMNNNNNNNNNNNNNNNNNNNNNNNNNNNNNL",
"OLOOOOOOOOOOOOOOOOOOOOOOOOOOOOLO"};
