/* XPM */
static char * tearOffShelf_xpm[] = {
"32 32 237 2",
"  	c None",
". 	c #3F93DB",
"+ 	c #439DE9",
"@ 	c #4299E7",
"# 	c #4195E5",
"$ 	c #3F92E1",
"% 	c #3C8BDD",
"& 	c #3985D9",
"* 	c #3680D6",
"= 	c #367DD6",
"- 	c #347BD1",
"; 	c #3378D0",
"> 	c #3174CE",
", 	c #2E70CA",
"' 	c #2E6CC8",
") 	c #2C6AC6",
"! 	c #2A65C2",
"~ 	c #285EBF",
"{ 	c #265BBD",
"] 	c #2457B9",
"^ 	c #204FAC",
"/ 	c #4D4D4D",
"( 	c #46A4F9",
"_ 	c #429BF3",
": 	c #3F93ED",
"< 	c #3C8DE9",
"[ 	c #3989E6",
"} 	c #3985E4",
"| 	c #3782E2",
"1 	c #357EDE",
"2 	c #3378DB",
"3 	c #3276D9",
"4 	c #3073D7",
"5 	c #2F70D5",
"6 	c #2E6DD3",
"7 	c #2D6AD1",
"8 	c #2C68D0",
"9 	c #2B65CE",
"0 	c #2963CC",
"a 	c #2861CA",
"b 	c #FF3A3A",
"c 	c #2354B7",
"d 	c #FFFFFF",
"e 	c #3378DC",
"f 	c #3478CF",
"g 	c #357BD2",
"h 	c #3173C6",
"i 	c #5C5C5C",
"j 	c #E8E7E7",
"k 	c #3071C1",
"l 	c #C1C1C1",
"m 	c #716F64",
"n 	c #ACA899",
"o 	c #000000",
"p 	c #070606",
"q 	c #D0D2CE",
"r 	c #FCFFFD",
"s 	c #FBFFFB",
"t 	c #50504F",
"u 	c #757674",
"v 	c #585957",
"w 	c #4E0000",
"x 	c #4A0000",
"y 	c #5D1D1D",
"z 	c #AC908E",
"A 	c #BAA3A0",
"B 	c #9E7774",
"C 	c #763B39",
"D 	c #540807",
"E 	c #490000",
"F 	c #1A1A19",
"G 	c #DCE6DC",
"H 	c #E9F8EC",
"I 	c #EBF4EB",
"J 	c #31302F",
"K 	c #373836",
"L 	c #F4F7F3",
"M 	c #9C9E9C",
"N 	c #4B0000",
"O 	c #591716",
"P 	c #CDBCB9",
"Q 	c #E8E1DE",
"R 	c #A89491",
"S 	c #B09995",
"T 	c #BB9F99",
"U 	c #B5928B",
"V 	c #753837",
"W 	c #3D3E3C",
"X 	c #E5F3E6",
"Y 	c #E1F3E4",
"Z 	c #E1EBE1",
"` 	c #121212",
" .	c #151414",
"..	c #D6DDD6",
"+.	c #C2C9C1",
"@.	c #0C0C0C",
"#.	c #460000",
"$.	c #997270",
"%.	c #DFD7D3",
"&.	c #AA9593",
"*.	c #B9A8A5",
"=.	c #A8928F",
"-.	c #A3827B",
";.	c #AC8C84",
">.	c #AA827C",
",.	c #4D0202",
"'.	c #737571",
").	c #EFFEF1",
"!.	c #E8F9EB",
"~.	c #B6BDB4",
"{.	c #070405",
"].	c #A1A4A0",
"^.	c #E1E8E1",
"/.	c #262625",
"(.	c #4C0000",
"_.	c #510505",
":.	c #BBA4A2",
"<.	c #D8CCC9",
"[.	c #CCBEBB",
"}.	c #AD9A98",
"|.	c #BFADA9",
"1.	c #9D7C76",
"2.	c #AE8C85",
"3.	c #9F7671",
"4.	c #9DA09C",
"5.	c #EDFDF0",
"6.	c #E6FBEA",
"7.	c #717870",
"8.	c #81877F",
"9.	c #9FAA9F",
"0.	c #520A09",
"a.	c #957673",
"b.	c #D8CAC7",
"c.	c #EADDD8",
"d.	c #806B69",
"e.	c #8B706D",
"f.	c #755351",
"g.	c #94706A",
"h.	c #8E5F5A",
"i.	c #510303",
"j.	c #96A897",
"k.	c #CDEDD2",
"l.	c #C2E1C7",
"m.	c #B3C4AF",
"n.	c #C4E1C7",
"o.	c #C1E4C8",
"p.	c #BAD4BC",
"q.	c #1A1A17",
"r.	c #4D0000",
"s.	c #541212",
"t.	c #71433D",
"u.	c #A4837D",
"v.	c #DBCECA",
"w.	c #6A4846",
"x.	c #542C29",
"y.	c #6B4643",
"z.	c #66413E",
"A.	c #8B534E",
"B.	c #070506",
"C.	c #B4C8B6",
"D.	c #DAFADF",
"E.	c #D0EBD4",
"F.	c #A1AA9F",
"G.	c #D6F1DA",
"H.	c #D3F4D9",
"I.	c #E6FCE9",
"J.	c #636560",
"K.	c #5A1515",
"L.	c #A89290",
"M.	c #9F8480",
"N.	c #D0C0BB",
"O.	c #936D67",
"P.	c #AE837C",
"Q.	c #A27E78",
"R.	c #835D56",
"S.	c #743632",
"T.	c #1B1A1A",
"U.	c #DFF0E2",
"V.	c #EBFFF0",
"W.	c #E8F5EA",
"X.	c #333032",
"Y.	c #C3D0C5",
"Z.	c #ECFFF1",
"`.	c #F2FFF7",
" +	c #B3B9B4",
".+	c #530807",
"++	c #D0BFBD",
"@+	c #E6DCD8",
"#+	c #DDCFCB",
"$+	c #CCB9B4",
"%+	c #B59791",
"&+	c #A7827B",
"*+	c #865852",
"=+	c #4F0605",
"-+	c #3C3C3C",
";+	c #F0FEF4",
">+	c #F0FFF6",
",+	c #E5EEE7",
"'+	c #0D0B0C",
")+	c #959594",
"!+	c #E7F2E9",
"~+	c #272727",
"{+	c #B1918F",
"]+	c #E0D7D3",
"^+	c #DACBC7",
"/+	c #C0A6A0",
"(+	c #A6827C",
"_+	c #9A726A",
":+	c #602320",
"<+	c #7C7E7B",
"[+	c #F9FFFD",
"}+	c #F5FFFA",
"|+	c #B4BAB4",
"1+	c #383737",
"2+	c #EBF0EC",
"3+	c #ECFFF2",
"4+	c #FCFFFF",
"5+	c #8C8D8B",
"6+	c #480000",
"7+	c #753D3C",
"8+	c #AB928E",
"9+	c #C5A9A3",
"0+	c #B5958F",
"a+	c #9A736C",
"b+	c #703934",
"c+	c #4D0101",
"d+	c #D6D8D6",
"e+	c #F7FFFA",
"f+	c #787B79",
"g+	c #929692",
"h+	c #FAFFFD",
"i+	c #F7FFFB",
"j+	c #C8CEC9",
"k+	c #986761",
"l+	c #AB817A",
"m+	c #7D4B47",
"n+	c #5E1D1B",
". + @ @ # # $ $ % % % & & * = - ; > > , ' ) ! ! ! ~ ~ { ] ] ] ^ ",
"+ / / ( ( ( _ _ _ : : : < < [ } | 1 1 2 3 4 5 6 7 8 9 0 a b b c ",
"+ / / ( d d d d d d d d d d d d d 1 1 e 3 4 5 6 7 8 9 0 a b b c ",
"f = g g g g g g g g g g g g g g g g g g g g g g g g g g g g = f ",
"h i i i i i i i i i i i i i i i i i i i i i i i i i i i i i j h ",
"k i l l l d d d d d d d d d m l l l l l l l l l l l l l l l j k ",
"k i l l d l l l l l l l l l n m l l l l l l l l l l l l l l j k ",
"k i l l d l o o o o o o o l n m l l l l l l l l l l l l l l j k ",
"k i l l d l l l l l l l l l n m l l l l l l l l l l l l l l j k ",
"k i d d d d d d d d d d d d d d d d d d d d d d d d d d d d j k ",
"k i d o o o o o o o o o o o o o o o o o o o o o o o o o o o j k ",
"k i d o n n n n n n n n n n n n n n n n n n n n n n n n n n j k ",
"k i d o n m m m m m m m m m m m m m m m m m m m m m m m m m j k ",
"k i d o n m l l l l l l l l l l l l l l l l l l l l l l l l j k ",
"k i d o n m l o p q r s t o o u d v l w w x y z A B C D E w j k ",
"k i d o n m l o F G H I J o K L M o l w N O P Q R S T U V E j k ",
"k i d o n m l o W X Y Z `  ...+.@.o l w #.$.%.&.*.=.-.;.>.,.j k ",
"k i d o n m l o '.).!.~.{.].^./.o o l (._.:.<.[.}.|.1.2.3._.j k ",
"k i d o n m l o 4.5.6.7.8.).9.o o o l (.0.a.b.c.d.e.f.g.h.i.j k ",
"k i d o n m l o j.k.l.m.n.o.p.q.o o l r.s.t.u.v.w.x.y.z.A.(.j k ",
"k i d o n m l B.C.D.E.F.G.H.I.J.o o l (.K.L.M.N.O.P.Q.R.S.E j k ",
"k i d o n m l T.U.V.W.X.Y.Z.`. +o o l (..+++@+#+$+%+&+*+=+r.j k ",
"k i d o n m l -+;+>+,+'+)+d Z.!+~+o l r.x {+]+^+/+(+_+:+N w j k ",
"k i d o n m l <+[+}+|+o 1+2+3+4+5+o l w 6+7+8+9+0+a+b+c+r.w j k ",
"k i d o n m l d+e+4+f+o o g+h+i+j+p l w r.c+k+l+m+n+(.r.w w j k ",
"k i d o n l l l l l l l l l l l l l l l l l l l l l l l l l j k ",
"k i d o d d d d d d d d d d d d d d d d d d d d d d d d d d j k ",
"k i d o o o o o o o o o o o o o o o o o o o o o o o o o o o j k ",
"k i d l l l l l l l l l l l l l l l l l l l l l l l l l l l j k ",
"k i d n n n n n n n n n n n n n n n n n n n n n n n n n n n j k ",
"h i j j j j j j j j j j j j j j j j j j j j j j j j j j j j j h ",
"k h k k k k k k k k k k k k k k k k k k k k k k k k k k k k h k "};
