/* XPM */
static char * TFconverter_xpm[] = {
"32 32 14 1",
" 	c None",
".	c #000000",
"+	c #BCDDC2",
"@	c #96B19B",
"#	c #AFCEB5",
"$	c #323B34",
"%	c #A3C0A8",
"&	c #4B584E",
"*	c #647667",
"=	c #718574",
"-	c #7D9381",
";	c #191D1A",
">	c #8AA28E",
",	c #58675B",
"................................",
"................................",
"................................",
"...+++++..........@+#$..$%++&...",
"...@..*=.........*-.$%..@&.;+...",
"......%;...$*....@;..#......#...",
".....;#....@+....+...+.....==...",
".....=*..........>&..#....@=....",
".....%.....$*....*-.$#..$#&.=...",
"....$%.....>+.....@+#&..+++++...",
"................................",
"................................",
"................................",
"................................",
".....@*....;#&.......=++;.......",
".....$+$...%>.......$+$>#.......",
"......=+..*+........+*..+=......",
".......#>$+$.......>%...$+$.....",
".......;++=.......&#;....*@.....",
"................................",
"................................",
"................................",
".&%+...&@>%;...>%>...&%@,..,%@*.",
".$$>...=..;-..,-.....+;....>..@.",
"...>......;>..@.....,*.....>..>.",
"...>......@$..-=>;..>&>=...>..>.",
"...>.....@&...+$;@..>-.,=..@..-.",
"...>...;@&.,..@..-..=&.;>..>..>.",
".,>+>=.#%>>>..&@>*...->@;..$@@&.",
"................................",
"................................",
"................................"};
