/* XPM */
static char * clockShelf_xpm[] = {
"32 32 625 2",
"  	c #A2A7B7",
". 	c #A5A8B7",
"+ 	c #C3C7B7",
"@ 	c #D4D9B2",
"# 	c #D0D7A4",
"$ 	c #B7BF89",
"% 	c #9BA282",
"& 	c #9BA0AD",
"* 	c #9FA4B5",
"= 	c #A0A5B6",
"- 	c #A1A6B7",
"; 	c #ADB2B6",
"> 	c #DEE1BB",
", 	c #C2C896",
"' 	c #939A7F",
") 	c #9CA292",
"! 	c #A1A88C",
"~ 	c #BCC37F",
"{ 	c #B0B983",
"] 	c #9398A2",
"^ 	c #9296A8",
"/ 	c #959AAC",
"( 	c #999EAF",
"_ 	c #9EA2B3",
": 	c #A9AEB7",
"< 	c #DCE0B7",
"[ 	c #9FA681",
"} 	c #9CA1B0",
"| 	c #9398AA",
"1 	c #898FA1",
"2 	c #909596",
"3 	c #D2DAA7",
"4 	c #C1C7B3",
"5 	c #7F8598",
"6 	c #82889B",
"7 	c #8990A2",
"8 	c #9499AB",
"9 	c #9BA0B1",
"0 	c #C8CEB1",
"a 	c #B5BE87",
"b 	c #979CAE",
"c 	c #8E94A6",
"d 	c #81889B",
"e 	c #7A8093",
"f 	c #787D90",
"g 	c #CBCFB0",
"h 	c #E0E3CC",
"i 	c #757C8F",
"j 	c #797F92",
"k 	c #868DA0",
"l 	c #9CA1B2",
"m 	c #D7DCAB",
"n 	c #949B7C",
"o 	c #989DAE",
"p 	c #8D939B",
"q 	c #7C8290",
"r 	c #72788B",
"s 	c #E1E5C8",
"t 	c #D7DBC4",
"u 	c #808699",
"v 	c #6F7588",
"w 	c #969BAD",
"x 	c #9A9FB0",
"y 	c #969BAB",
"z 	c #CBD094",
"A 	c #9BA47D",
"B 	c #B6BC80",
"C 	c #A7B07B",
"D 	c #757D56",
"E 	c #636A72",
"F 	c #6D7386",
"G 	c #8C9393",
"H 	c #FBFBE2",
"I 	c #ADB3AC",
"J 	c #7C8295",
"K 	c #81879A",
"L 	c #AFB87D",
"M 	c #C3CB81",
"N 	c #D9DF9A",
"O 	c #FCFCF5",
"P 	c #8B9475",
"Q 	c #565D46",
"R 	c #989E9A",
"S 	c #F9FADC",
"T 	c #D6DAC3",
"U 	c #878DA0",
"V 	c #7B8194",
"W 	c #6C7285",
"X 	c #6E7487",
"Y 	c #8D94A6",
"Z 	c #9095A7",
"` 	c #8D93A5",
" .	c #62696E",
"..	c #CDD587",
"+.	c #DCE2AE",
"@.	c #FCFCFC",
"#.	c #B6BCAD",
"$.	c #CFD4B6",
"%.	c #FBFBDE",
"&.	c #B3B8A6",
"*.	c #666C7C",
"=.	c #757B8E",
"-.	c #717689",
";.	c #686E81",
">.	c #6F7689",
",.	c #9298AA",
"'.	c #9096A8",
").	c #848B9B",
"!.	c #89928C",
"~.	c #D1D5BA",
"{.	c #EDEFCC",
"].	c #E0E5B7",
"^.	c #EAEEAF",
"/.	c #E1E7B5",
"(.	c #EBEDCE",
"_.	c #9AA186",
":.	c #757C6E",
"<.	c #313536",
"[.	c #282B36",
"}.	c #424857",
"|.	c #5A6072",
"1.	c #656C7F",
"2.	c #676E81",
"3.	c #747B8E",
"4.	c #848B9E",
"5.	c #8C92A4",
"6.	c #7F8595",
"7.	c #B9BEA7",
"8.	c #FDFDF8",
"9.	c #FDFDEB",
"0.	c #FBFCC1",
"a.	c #EBEF96",
"b.	c #EAEE94",
"c.	c #E8ED94",
"d.	c #E1E78F",
"e.	c #CFD586",
"f.	c #99A168",
"g.	c #343729",
"h.	c #15171D",
"i.	c #2C2E39",
"j.	c #464C5B",
"k.	c #5A5F71",
"l.	c #63697C",
"m.	c #6E7588",
"n.	c #8B92A4",
"o.	c #878EA1",
"p.	c #878F96",
"q.	c #FDFDF7",
"r.	c #FDFDF2",
"s.	c #D7E9C8",
"t.	c #81BACF",
"u.	c #61B0EB",
"v.	c #61B5F2",
"w.	c #71BBE7",
"x.	c #84BFD9",
"y.	c #B3CEAA",
"z.	c #DAE08C",
"A.	c #E4E992",
"B.	c #D2DA88",
"C.	c #A6AE70",
"D.	c #4F573B",
"E.	c #242831",
"F.	c #5B6173",
"G.	c #6C7386",
"H.	c #798093",
"I.	c #82899C",
"J.	c #888FA1",
"K.	c #888EA1",
"L.	c #858B9E",
"M.	c #9AA09B",
"N.	c #FEFEFD",
"O.	c #FBFCDC",
"P.	c #72B0D4",
"Q.	c #ADD9FB",
"R.	c #B9E5FD",
"S.	c #C3EEFD",
"T.	c #AABFFE",
"U.	c #C4E1FE",
"V.	c #DFFCFE",
"W.	c #E3FCFF",
"X.	c #81C0E6",
"Y.	c #B6C792",
"Z.	c #D9DF8B",
"`.	c #C5CD82",
" +	c #939B65",
".+	c #494F3A",
"++	c #444958",
"@+	c #61677A",
"#+	c #868C9F",
"$+	c #878E92",
"%+	c #DFF2D3",
"&+	c #4F9EE4",
"*+	c #A0D4F6",
"=+	c #ADE0FC",
"-+	c #BBEDFD",
";+	c #B9E2FD",
">+	c #A1B3FE",
",+	c #C2E2FE",
"'+	c #E3FDFE",
")+	c #DEFBFD",
"!+	c #C7D4E1",
"~+	c #75BAF8",
"{+	c #A2B07F",
"]+	c #CAD083",
"^+	c #AAB373",
"/+	c #7B8559",
"(+	c #3E4245",
"_+	c #5C6173",
":+	c #747A8D",
"<+	c #7F8699",
"[+	c #6C7385",
"}+	c #FDFDFB",
"|+	c #E1F3D3",
"1+	c #4B9BE3",
"2+	c #96CDF2",
"3+	c #9FDAF8",
"4+	c #ACE6FC",
"5+	c #B7EFFD",
"6+	c #BFF4FD",
"7+	c #B0D7FE",
"8+	c #D1FCFE",
"9+	c #CDECFC",
"0+	c #B3B9C6",
"a+	c #C3CFDE",
"b+	c #F3FDFF",
"c+	c #8CB8D4",
"d+	c #A1AB6F",
"e+	c #B7C07A",
"f+	c #889060",
"g+	c #585F3D",
"h+	c #4A5060",
"i+	c #80879A",
"j+	c #7E8396",
"k+	c #C4C8AE",
"l+	c #FBFCE1",
"m+	c #59A0DF",
"n+	c #72BBEC",
"o+	c #95D3F2",
"p+	c #A0DDF8",
"q+	c #A8E6FC",
"r+	c #B0EEFD",
"s+	c #BBF7FD",
"t+	c #C5FBFE",
"u+	c #BCE2F5",
"v+	c #A0A6B7",
"w+	c #ACB4C3",
"x+	c #EAFCFE",
"y+	c #F6FDFF",
"z+	c #92D5FE",
"A+	c #6E7858",
"B+	c #ACB573",
"C+	c #979F6F",
"D+	c #6F794F",
"E+	c #30323D",
"F+	c #555A6C",
"G+	c #5F6570",
"H+	c #FDFDEE",
"I+	c #7FB6CC",
"J+	c #53A6EB",
"K+	c #62BBED",
"L+	c #6BC5F2",
"M+	c #89D7FA",
"N+	c #A7E6FD",
"O+	c #AEEEFD",
"P+	c #B7F6FD",
"Q+	c #ADDCF2",
"R+	c #9098AB",
"S+	c #979EAF",
"T+	c #D0F2FC",
"U+	c #F2FDFF",
"V+	c #9EE0FE",
"W+	c #73888D",
"X+	c #979F68",
"Y+	c #AAB385",
"Z+	c #8C9576",
"`+	c #2B2E25",
" @	c #424756",
".@	c #787F92",
"+@	c #71788B",
"@@	c #B5BAA4",
"#@	c #E8F6D1",
"$@	c #4699E7",
"%@	c #5387EE",
"&@	c #6CBFEE",
"*@	c #6EC9F3",
"=@	c #6DCDF8",
"-@	c #78D6FC",
";@	c #8EDCFC",
">@	c #A2D5ED",
",@	c #818B9F",
"'@	c #B9DDEE",
")@	c #E3FDFF",
"!@	c #EEFDFF",
"~@	c #A8E7FE",
"{@	c #7F9AAB",
"]@	c #80895A",
"^@	c #BBC29C",
"/@	c #B0B8A2",
"(@	c #3E4226",
"_@	c #343845",
":@	c #575D6F",
"<@	c #72798C",
"[@	c #666D80",
"}@	c #F6F7CC",
"|@	c #85B9C6",
"1@	c #5092EB",
"2@	c #3F54F1",
"3@	c #69ACF1",
"4@	c #78CDF5",
"5@	c #78D3FA",
"6@	c #76D7FD",
"7@	c #41688D",
"8@	c #252A34",
"9@	c #4B5061",
"0@	c #96B9D3",
"a@	c #D7FDFF",
"b@	c #E0FDFF",
"c@	c #EDFDFF",
"d@	c #F5FDFF",
"e@	c #AFEBFE",
"f@	c #87A2BC",
"g@	c #727A51",
"h@	c #D0D5B7",
"i@	c #C5CBB7",
"j@	c #4A502B",
"k@	c #2C2F3A",
"l@	c #4F5567",
"m@	c #6D7487",
"n@	c #545A68",
"o@	c #FCFCD1",
"p@	c #5CA2D9",
"q@	c #74B6EC",
"r@	c #6C99EF",
"s@	c #85CEF1",
"t@	c #85D3F6",
"u@	c #84D7FC",
"v@	c #82DCFD",
"w@	c #3A4B61",
"x@	c #3D5A79",
"y@	c #8BF5FE",
"z@	c #9FFBFF",
"A@	c #B0FCFF",
"B@	c #C3FCFF",
"C@	c #C8FCFF",
"D@	c #B3ECFE",
"E@	c #86A1B7",
"F@	c #69724C",
"G@	c #E8EBD7",
"H@	c #CCD0BF",
"I@	c #4D542D",
"J@	c #272B34",
"K@	c #494F5F",
"L@	c #62697C",
"M@	c #4D5150",
"N@	c #FBFBC0",
"O@	c #4B9AE2",
"P@	c #8DC7ED",
"Q@	c #95D0EF",
"R@	c #94D5F3",
"S@	c #93D7F8",
"T@	c #92DDFC",
"U@	c #88D4F6",
"V@	c #444C5B",
"W@	c #3F4857",
"X@	c #567B9E",
"Y@	c #9AF9FE",
"Z@	c #A6FBFF",
"`@	c #9FEDFF",
" #	c #284AFF",
".#	c #7EB2FF",
"+#	c #B5EBFE",
"@#	c #738999",
"##	c #6B744D",
"$#	c #FCFCF8",
"%#	c #CDD3C1",
"&#	c #4B512C",
"*#	c #454A59",
"=#	c #5F6578",
"-#	c #6B7083",
";#	c #6B7285",
">#	c #697083",
",#	c #454B42",
"'#	c #F4F7AC",
")#	c #4F9DDF",
"!#	c #96CBED",
"~#	c #A1D6F0",
"{#	c #9ED9F3",
"]#	c #9EDEF8",
"^#	c #9EE2FC",
"/#	c #9CE7FD",
"(#	c #99E6FD",
"_#	c #719ABB",
":#	c #4C5467",
"<#	c #A2F5FD",
"[#	c #B3FCFF",
"}#	c #87C0FF",
"|#	c #2843FF",
"1#	c #7AA7FF",
"2#	c #AFE3FE",
"3#	c #45504D",
"4#	c #9CA489",
"5#	c #FFFFFF",
"6#	c #C2C8B7",
"7#	c #41482A",
"8#	c #23262F",
"9#	c #444A59",
"0#	c #5C6275",
"a#	c #42473D",
"b#	c #ECF29B",
"c#	c #5CA0D7",
"d#	c #94C9ED",
"e#	c #AEDAF1",
"f#	c #ADDEF5",
"g#	c #ACE2FA",
"h#	c #ADE7FD",
"i#	c #ACEDFD",
"j#	c #AAF3FD",
"k#	c #A0E2FC",
"l#	c #5D6376",
"m#	c #95C7E4",
"n#	c #C1FCFF",
"o#	c #C4FCFF",
"p#	c #94C3FF",
"q#	c #C5F6FF",
"r#	c #A9D5FD",
"s#	c #323726",
"t#	c #D9DDC9",
"u#	c #A6AE9A",
"v#	c #313520",
"w#	c #252932",
"x#	c #656A7D",
"y#	c #5D6275",
"z#	c #3D423A",
"A#	c #ECF29A",
"B#	c #7EB0BE",
"C#	c #7ABBEB",
"D#	c #BADEF1",
"E#	c #BAE2F6",
"F#	c #BAE7FB",
"G#	c #BBF3FD",
"H#	c #BAF9FD",
"I#	c #BCFBFE",
"J#	c #889DB5",
"K#	c #8CA8C1",
"L#	c #D0FDFF",
"M#	c #D8FDFF",
"N#	c #DAFCFF",
"O#	c #BDEEFF",
"P#	c #738DA1",
"Q#	c #5F6856",
"R#	c #FDFDFC",
"S#	c #80886C",
"T#	c #1D2018",
"U#	c #61687B",
"V#	c #60677A",
"W#	c #3C4142",
"X#	c #EEF2A1",
"Y#	c #B7CB9A",
"Z#	c #54A1E8",
"`#	c #C3DFF2",
" $	c #C7E7F7",
".$	c #CAECFC",
"+$	c #CAF3FD",
"@$	c #CCFAFD",
"#$	c #CCFBFD",
"$$	c #CFFCFE",
"%$	c #C7F5FD",
"&$	c #98ACC0",
"*$	c #DEFDFF",
"=$	c #E1FDFF",
"-$	c #D9FCFF",
";$	c #A6D7FD",
">$	c #292E25",
",$	c #C5C9BA",
"'$	c #FDFDFD",
")$	c #606842",
"!$	c #17191E",
"~$	c #333744",
"{$	c #4E5465",
"]$	c #5F6376",
"^$	c #404450",
"/$	c #DCE1A0",
"($	c #DEE38E",
"_$	c #69A4C7",
":$	c #96C9F1",
"<$	c #D4EBF8",
"[$	c #D6F3FC",
"}$	c #D9F9FD",
"|$	c #D2F2FD",
"1$	c #DBFCFD",
"2$	c #E4FDFF",
"3$	c #E6FDFF",
"4$	c #EAFDFF",
"5$	c #AEE5FE",
"6$	c #506170",
"7$	c #737B6F",
"8$	c #C8CDBF",
"9$	c #3D422A",
"0$	c #20232B",
"a$	c #3A3E4C",
"b$	c #515668",
"c$	c #595F71",
"d$	c #9FA67D",
"e$	c #E6EC93",
"f$	c #BCC886",
"g$	c #58A0DF",
"h$	c #B9DEF8",
"i$	c #E3F6FD",
"j$	c #DBEBFD",
"k$	c #CDD7FD",
"l$	c #E6FCFE",
"m$	c #EEFDFE",
"n$	c #F4FDFF",
"o$	c #B7EDFE",
"p$	c #728FAB",
"q$	c #393E2D",
"r$	c #E6E9DA",
"s$	c #FEFEFE",
"t$	c #737B5B",
"u$	c #161818",
"v$	c #292C37",
"w$	c #53596B",
"x$	c #343936",
"y$	c #E4E893",
"z$	c #DFE58F",
"A$	c #A5B381",
"B$	c #599FDC",
"C$	c #86C9FC",
"D$	c #CBDFFD",
"E$	c #E4EDFD",
"F$	c #F8FDFE",
"G$	c #FBFDFE",
"H$	c #FBFDFF",
"I$	c #D8FCFF",
"J$	c #9ADDFE",
"K$	c #6B89A4",
"L$	c #2C3021",
"M$	c #C8CDC0",
"N$	c #B5BCAC",
"O$	c #303424",
"P$	c #1E2129",
"Q$	c #353946",
"R$	c #555B6D",
"S$	c #585E70",
"T$	c #515769",
"U$	c #3E4351",
"V$	c #88926E",
"W$	c #E5EB92",
"X$	c #D9DF8C",
"Y$	c #A2AC6F",
"Z$	c #6C98AA",
"`$	c #56A8F0",
" %	c #61BEFD",
".%	c #7BD3FD",
"+%	c #88DAFE",
"@%	c #7CCFFE",
"#%	c #7CB8E7",
"$%	c #41515B",
"%%	c #363C29",
"&%	c #C2C7B8",
"*%	c #DCE0D4",
"=%	c #42482F",
"-%	c #191B21",
";%	c #2C303B",
">%	c #565C6E",
",%	c #2C2F37",
"'%	c #D7DD8B",
")%	c #B3BB79",
"!%	c #7B8558",
"~%	c #5A6E64",
"{%	c #546F78",
"]%	c #546F7A",
"^%	c #404F4A",
"/%	c #353B29",
"(%	c #676F59",
"_%	c #D8DBCB",
":%	c #ADB4A1",
"<%	c #444A31",
"[%	c #3D4250",
"}%	c #545A6C",
"|%	c #454B5A",
"1%	c #2B2E36",
"2%	c #6F7846",
"3%	c #BDC57C",
"4%	c #C4CC81",
"5%	c #A0A86E",
"6%	c #8C9662",
"7%	c #80885A",
"8%	c #7C8558",
"9%	c #B9BFA7",
"0%	c #FBFBED",
"a%	c #C2C7B6",
"b%	c #6C7552",
"c%	c #292C20",
"d%	c #17191F",
"e%	c #393E4C",
"f%	c #484E5E",
"g%	c #4D5364",
"h%	c #2E323E",
"i%	c #292E24",
"j%	c #656E41",
"k%	c #8D955F",
"l%	c #979F6B",
"m%	c #99A171",
"n%	c #9EA67C",
"o%	c #A0A786",
"p%	c #9FA687",
"q%	c #818964",
"r%	c #5A6240",
"s%	c #323625",
"t%	c #151719",
"u%	c #21242C",
"v%	c #2D313D",
"w%	c #3C414F",
"x%	c #505668",
"y%	c #0D0E10",
"z%	c #161810",
"A%	c #3C4139",
"B%	c #585E5A",
"C%	c #565C5B",
"D%	c #2C312F",
"E%	c #161819",
"F%	c #1B1D24",
"G%	c #363B48",
"H%	c #404554",
"                                  . + @ # $ % & * * = -         ",
"- - - - - - - - - - - - - - - - ; > , ' ) ! ~ { ] ^ / ( _ = - - ",
"* * * * * * * * * * * * * * * : < [ } ( | 1 2 3 4 5 6 7 8 9 _ * ",
"_ _ _ _ _ _ _ _ _ _ _ _ _ _ _ 0 a } b c d e f g h f i j k / 9 l ",
"9 9 9 9 9 9 9 9 9 9 9 9 9 9 9 m n o p q r r j s t u f v j 1 w x ",
"( ( ( ( ( ( ( ( ( ( ( ( ( ( y z A B C D E F G H I 1 J F r K ^ o ",
"b b b b b b b b b b b b b b / L M N O P Q R S T 1 U V W X u Y / ",
"/ / / / / / / / / / / | ^ Z `  ...+.@.#.$.%.&.*.=.j -.;.>.K ` 8 ",
",.,.,.,.,.,.,.,.,.'.Y ).!.~.{.].^./.(._.:.<.[.}.|.1.1.2.3.4.Y '.",
"c c c c c c c ` 5.6.7.8.9.0.a.b.b.c.d.e.f.g.h.i.j.k.l.m.J U ` c ",
"n.n.n.n.n.n.n.o.p.q.r.s.t.u.v.w.x.y.z.A.B.C.D.E.}.F.G.H.I.J.n.n.",
"K.K.K.K.K.U L.M.N.O.P.Q.R.S.T.U.V.W.X.Y.Z.`. +.+++@+=.K #+K.K.K.",
"L.L.L.L.L.6 $+N.%+&+*+=+-+;+>+,+'+)+!+~+{+]+^+/+(+_+:+u L.L.L.L.",
"d d d d <+[+}+|+1+2+3+4+5+6+7+8+9+0+a+b+c+d+e+f+g+h+2.H.i+d d d ",
"5 5 5 j+j k+l+m+n+o+p+q+r+s+t+u+v+w+x+y+z+A+B+C+D+E+F+X V 5 5 5 ",
"V V V j G+H+I+J+K+L+M+N+O+P+Q+R+S+T+U+y+V+W+X+Y+Z+`+ @@+:+e V V ",
".@.@.@+@@@#@$@%@&@*@=@-@;@>@,@o.'@)@!@y+~@{@]@^@/@(@_@:@G.i .@.@",
"3.3.<@[@}@|@1@2@3@4@5@6@7@8@9@0@a@b@c@d@e@f@g@h@i@j@k@l@[@<@3.3.",
"+@+@m@n@o@p@q@r@s@t@u@v@w@k@x@y@z@A@B@C@D@E@F@G@H@I@J@K@L@m.+@+@",
"X F ;.M@N@O@P@Q@R@S@T@U@V@W@X@Y@Z@`@ #.#+#@###$#%#&#E.*#=#-#X X ",
";#>#L@,#'#)#!#~#{#]#^#/#(#_#:#<#[#}#|#1#2#3#4#5#6#7#8#9#0#2.;#;#",
"2.1.=#a#b#c#d#e#f#g#h#i#j#k#l#m#n#o#p#q#r#s#t#5#u#v#w#9#F.1.2.2.",
"x#l.y#z#A#B#C#D#E#F#-+G#H#I#J#K#L#M#N#O#P#Q#R#5#S#T#k@K@_+l.x#x#",
"U#V#F.W#X#Y#Z#`# $.$+$@$#$$$%$&$*$=$-$;$>$,$5#'$)$!$~${$0#U#U#U#",
"=#]$k.^$/$($_$:$<$[$}$|$1$V.2$3$4$3$5$6$7$'$5#8$9$0$a$b$_+=#=#=#",
"0#F.c$K@d$e$f$g$h$i$j$k$l$m$b+n$!@o$p$q$r$5#s$t$u$v$}.w$|.0#0#0#",
"|.|.:@l@x$y$z$A$B$C$D$E$F$G$H$I$J$K$L$M$5#5#N$O$P$Q$K@R$c$|.|.|.",
"S$S$:@T$U$V$W$X$Y$Z$`$ %.%+%@%#%$%%%&%s$5#*%=%-%;%}.l@>%S$S$S$S$",
">%>%>%w$9@,%X+X$'%)%!%~%{%]%^%/%(%_%5#N.:%<%!$v$[%9@w$>%>%>%>%>%",
"}%}%}%w${$|%1%2%3%4%e+5%6%7%8%9%0%@.a%b%c%d%v$e%f%l@w$}%}%}%}%}%",
"w$w$w$w$T$g%|%h%i%j%k%l%m%n%o%p%q%r%s%t%u%v%w%f%{$T$w$w$w$w$w$w$",
"x%x%x%x%x%x%{$f%w%8#y%z%A%B%C%D%E%F%J@h%G%H%f%g%l@x%x%x%x%x%x%x%"};
